<svg width="24" height="24" viewBox="0 0 24 24" fill="none" xmlns="http://www.w3.org/2000/svg">
<g clip-path="url(#clip0_2_21132)">
<path d="M24 0H0V24H24V0Z" fill="white" fill-opacity="0.01"/>
<path d="M3.94963 2.49994C5.36855 4.00959 6.078 5.97035 6.078 8.3822C6.078 12 2.99975 14.7691 2.4845 16.75C2.141 18.0706 1.97942 19.6539 1.99975 21.5" stroke="#333333" stroke-width="2" stroke-linecap="round"/>
<path d="M19.628 2.49994C18.2091 4.00959 17.4996 5.97035 17.4996 8.3822C17.4996 12 20.5779 14.7691 21.0932 16.75C21.4367 18.0706 21.5982 19.6539 21.5779 21.5" stroke="#333333" stroke-width="2" stroke-linecap="round"/>
<path d="M3.12207 15.4184C6.38465 17.4833 9.34745 18.5158 12.0105 18.5158C14.6736 18.5158 17.49 17.4833 20.4596 15.4184" stroke="#333333" stroke-width="2" stroke-linecap="round"/>
<path d="M12 15.5C12.6904 15.5 13.25 14.9403 13.25 14.25C13.25 13.5596 12.6904 13 12 13C11.3097 13 10.75 13.5596 10.75 14.25C10.75 14.9403 11.3097 15.5 12 15.5Z" fill="#333333"/>
</g>
<defs>
<clipPath id="clip0_2_21132">
<rect width="24" height="24" fill="white"/>
</clipPath>
</defs>
</svg>
