<svg width="24" height="24" viewBox="0 0 24 24" fill="none" xmlns="http://www.w3.org/2000/svg">
<path d="M20 8.19885V3C20 2.44771 19.5523 2 19 2H5C4.44771 2 4 2.44771 4 3V21C4 21.5523 4.44771 22 5 22H10" stroke="#333333" stroke-width="2" stroke-linecap="round" stroke-linejoin="round"/>
<path d="M8 7H14.5" stroke="#333333" stroke-width="2" stroke-linecap="round"/>
<path d="M8 10.5H10.5" stroke="#333333" stroke-width="2" stroke-linecap="round"/>
<path d="M12 17C12 19.7614 14.2386 22 17 22C19.7614 22 22 19.7614 22 17C22 14.2386 19.7614 12 17 12C14.2386 12 12 14.2386 12 17Z" stroke="#333333" stroke-width="2" stroke-linecap="round" stroke-linejoin="round"/>
<path d="M17 18V19.5" stroke="#333333" stroke-width="2" stroke-linecap="round"/>
<path d="M17 16C17.5523 16 18 15.5523 18 15C18 14.4477 17.5523 14 17 14C16.4477 14 16 14.4477 16 15C16 15.5523 16.4477 16 17 16Z" fill="#333333"/>
</svg>
