<svg width="24" height="24" viewBox="0 0 24 24" fill="none" xmlns="http://www.w3.org/2000/svg">
<path d="M21 17.5H17" stroke="#333333" stroke-width="2" stroke-linecap="round"/>
<path d="M15.5 21H13.5" stroke="#333333" stroke-width="2" stroke-linecap="round"/>
<path d="M7 11L4 8.5H2C2 8.5 4.743 13.5 5.99995 13.5H22L19 11H7Z" stroke="#333333" stroke-width="2" stroke-linecap="round" stroke-linejoin="round"/>
<path d="M15 11L9.3303 7H8L9.5 11" stroke="#333333" stroke-width="2" stroke-linecap="round" stroke-linejoin="round"/>
<path d="M15 13.5L8.6 19.5H7L9.13335 13.5" stroke="#333333" stroke-width="2" stroke-linecap="round" stroke-linejoin="round"/>
<path d="M16 5.5C16 6 14.5 6.5 14.5 6.5H19.5C19.5 6.5 20.9427 6.5 21.3723 5.35715C21.8149 4.17927 21.0221 2.5 19.511 2.5C18 2.5 18 4 18 4C18 4 17.0727 3.71428 16.5 4C15.9273 4.28572 16 5 16 5.5Z" stroke="#333333" stroke-width="2" stroke-linecap="round" stroke-linejoin="round"/>
</svg>
