<svg width="24" height="24" viewBox="0 0 24 24" fill="none" xmlns="http://www.w3.org/2000/svg">
<path d="M15.1744 16L18.4277 3.8588C18.6421 3.0586 19.4646 2.58373 20.2648 2.79814C21.065 3.01255 21.5399 3.83506 21.3254 4.63526L18.2803 16" stroke="#333333" stroke-width="2" stroke-linecap="round" stroke-linejoin="round"/>
<path d="M18 16V19H6.5C5.67155 19 5 18.3285 5 17.5C5 16.6715 5.67155 16 6.5 16H18Z" stroke="#333333" stroke-width="2" stroke-linecap="round" stroke-linejoin="round"/>
<path d="M10.5 22H14.5" stroke="#333333" stroke-width="2" stroke-linecap="round" stroke-linejoin="round"/>
<path d="M8 4.5C8 3.11929 6.88071 2 5.5 2C4.11929 2 3 3.11929 3 4.5V9.5C3 10.8807 4.11929 12 5.5 12C6.88071 12 8 10.8807 8 9.5V4.5Z" stroke="#333333" stroke-width="2" stroke-linejoin="round"/>
<path d="M3 7H8" stroke="#333333" stroke-width="2" stroke-linecap="round" stroke-linejoin="round"/>
<path d="M3 4.5V9.5" stroke="#333333" stroke-width="2" stroke-linecap="round" stroke-linejoin="round"/>
<path d="M8 4.5V9.5" stroke="#333333" stroke-width="2" stroke-linecap="round" stroke-linejoin="round"/>
</svg>
