<svg width="24" height="24" viewBox="0 0 24 24" fill="none" xmlns="http://www.w3.org/2000/svg">
<path d="M5 9C5 5.134 8.134 2 12 2C15.866 2 19 5.134 19 9V15C19 18.866 15.866 22 12 22C8.134 22 5 18.866 5 15V9Z" stroke="#333333" stroke-width="2" stroke-linecap="round" stroke-linejoin="round"/>
<path d="M5 8.5H19" stroke="#333333" stroke-width="2" stroke-linecap="round" stroke-linejoin="round"/>
<path d="M11 5.5H13" stroke="#333333" stroke-width="2" stroke-linecap="round" stroke-linejoin="round"/>
<path d="M5 13C5 13 7.7 12.7 8.5 13.5C9.3 14.3 9 15.1844 9 15.1844C10.5 15.1844 12 15.2635 12 17C12 18.25 10 19 8.75 18.1844C8.75 19.25 8.5 20 7 20" stroke="#333333" stroke-width="2" stroke-linecap="round" stroke-linejoin="round"/>
<path d="M19 11.5C19 11.5 17.25 10.5 16.5 11C15.75 11.5 16 12.5 16 12.5C15.25 12 14 12.5 14 13.75C14 15 15.25 15.5 16.5 15C17 16.5 18.25 16.5 19 16" stroke="#333333" stroke-width="2" stroke-linecap="round" stroke-linejoin="round"/>
<path d="M12.5 22C16.0898 22 19 19.0898 19 15.5V9C19 5.134 15.866 2 12 2" stroke="#333333" stroke-width="2" stroke-linecap="round" stroke-linejoin="round"/>
<path d="M11.5 22C7.91015 22 5 19.0898 5 15.5V9C5 5.134 8.134 2 12 2" stroke="#333333" stroke-width="2" stroke-linecap="round" stroke-linejoin="round"/>
</svg>
