<svg width="24" height="24" viewBox="0 0 24 24" fill="none" xmlns="http://www.w3.org/2000/svg">
<g clip-path="url(#clip0_2_21728)">
<path d="M24 0H0V24H24V0Z" fill="white" fill-opacity="0.01"/>
<path d="M18 2C15.5147 2 13.5 4.01472 13.5 6.5V22H16.5V10.7439C16.9692 10.9097 17.474 11 18 11C19.7414 11 21.2519 10.0108 22 8.5636V4.4364C21.2519 2.98922 19.7414 2 18 2Z" stroke="#333333" stroke-width="2" stroke-linecap="round" stroke-linejoin="round"/>
<path d="M6 2C8.4853 2 10.5 4.01472 10.5 6.5V22H7.5V10.7439C7.03085 10.9097 6.52595 11 6 11C4.25854 11 2.74812 10.0108 2 8.5636V4.4364C2.74812 2.98922 4.25854 2 6 2Z" stroke="#333333" stroke-width="2" stroke-linecap="round" stroke-linejoin="round"/>
<path d="M7.5 6.5H7" stroke="#333333" stroke-width="2" stroke-linecap="round" stroke-linejoin="round"/>
<path d="M16.5 6.5H17" stroke="#333333" stroke-width="2" stroke-linecap="round" stroke-linejoin="round"/>
</g>
<defs>
<clipPath id="clip0_2_21728">
<rect width="24" height="24" fill="white"/>
</clipPath>
</defs>
</svg>
