<svg width="24" height="24" viewBox="0 0 24 24" fill="none" xmlns="http://www.w3.org/2000/svg">
<g clip-path="url(#clip0_2_20457)">
<path d="M24 0H0V24H24V0Z" fill="white" fill-opacity="0.01"/>
<path d="M12 0C18.6274 0 24 5.3726 24 12C24 18.6274 18.6274 24 12 24C5.3726 24 0 18.6274 0 12C0 5.3726 5.3726 0 12 0ZM12 2.18182C6.57755 2.18182 2.18182 6.57755 2.18182 12C2.18182 17.4225 6.57755 21.8182 12 21.8182C15.3689 21.8182 18.3416 20.1213 20.1099 17.5357C19.3932 17.3235 18.2484 16.956 16.7685 16.3344C16.1501 16.0747 15.2266 15.6649 13.9979 15.1052C12.5278 16.5868 10.3845 18 8.0871 18C6.49275 17.9922 3.81818 17.1864 3.81818 14.6729C3.81818 12.1594 6.29615 11.5612 7.9038 11.5612C8.87675 11.5612 10.5986 12.0982 13.0695 13.1721L13.1074 13.187C13.7706 12.3757 14.2256 11.4335 14.4729 10.3604L14.5227 10.1285H10.1972C9.54205 10.1285 8.83865 10.1284 8.0871 10.1284V8.96855L11.016 8.96835V7.51855L6.9153 7.51875V6.64885L11.016 6.64855L11.0165 4.90909H13.36L13.3598 6.64855L18.0471 6.64885V7.51875L13.3598 7.51855V8.96835L17.1029 8.96855C17.0479 9.3305 16.9861 9.6593 16.9174 9.955L16.8753 10.1284C16.703 10.7512 16.3157 11.6581 15.7131 12.8493C15.5531 13.1656 15.3218 13.5313 15.03 13.919C15.952 14.2607 16.8855 14.5922 17.8302 14.9137C19.0534 15.33 20.1108 15.667 21.0025 15.9243C21.5272 14.7225 21.8182 13.3953 21.8182 12C21.8182 6.57755 17.4225 2.18182 12 2.18182ZM5.1577 14.2718C5.1577 15.8709 8.50235 16.5079 11.2123 14.8249C11.5174 14.6354 11.8024 14.4332 12.0674 14.2184L12.0583 14.2143L11.845 14.0833C10.154 13.0545 8.8403 12.4966 7.9038 12.4097C7.0446 12.33 5.1577 12.6728 5.1577 14.2718ZM14.5227 10.1284V10.1285L15.6268 10.1287L14.5227 10.1284Z" fill="#333333"/>
</g>
<defs>
<clipPath id="clip0_2_20457">
<rect width="24" height="24" fill="white"/>
</clipPath>
</defs>
</svg>
