<svg width="24" height="24" viewBox="0 0 24 24" fill="none" xmlns="http://www.w3.org/2000/svg">
<path d="M21 19C21 14.0294 16.9706 9 12 9C7.02945 9 3 14.0294 3 19" stroke="#333333" stroke-width="2" stroke-linecap="round" stroke-linejoin="round"/>
<path d="M10 7H5" stroke="#333333" stroke-width="2" stroke-linecap="round" stroke-linejoin="round"/>
<path d="M19 7H14" stroke="#333333" stroke-width="2" stroke-linecap="round" stroke-linejoin="round"/>
<path d="M3.5 8.5C4.32843 8.5 5 7.82843 5 7C5 6.17157 4.32843 5.5 3.5 5.5C2.67157 5.5 2 6.17157 2 7C2 7.82843 2.67157 8.5 3.5 8.5Z" stroke="#333333" stroke-width="2" stroke-linecap="round" stroke-linejoin="round"/>
<path d="M20.5 8.5C21.3284 8.5 22 7.82843 22 7C22 6.17157 21.3284 5.5 20.5 5.5C19.6716 5.5 19 6.17157 19 7C19 7.82843 19.6716 8.5 20.5 8.5Z" stroke="#333333" stroke-width="2" stroke-linecap="round" stroke-linejoin="round"/>
<path d="M12 9C13.1046 9 14 8.10457 14 7C14 5.89543 13.1046 5 12 5C10.8954 5 10 5.89543 10 7C10 8.10457 10.8954 9 12 9Z" stroke="#333333" stroke-width="2" stroke-linecap="round" stroke-linejoin="round"/>
</svg>
