<svg width="24" height="24" viewBox="0 0 24 24" fill="none" xmlns="http://www.w3.org/2000/svg">
<g clip-path="url(#clip0_2_21675)">
<path d="M24 0H0V24H24V0Z" fill="white" fill-opacity="0.01"/>
<path d="M7 4H17" stroke="#333333" stroke-width="2" stroke-linecap="round"/>
<path d="M7 4H17" stroke="#333333" stroke-width="2" stroke-linecap="round"/>
<path d="M7 20H17" stroke="#333333" stroke-width="2" stroke-linecap="round"/>
<path d="M21 2H19C18.4477 2 18 2.44772 18 3V5C18 5.55228 18.4477 6 19 6H21C21.5523 6 22 5.55228 22 5V3C22 2.44772 21.5523 2 21 2Z" stroke="#333333" stroke-width="2" stroke-linejoin="round"/>
<path d="M5 2H3C2.44772 2 2 2.44772 2 3V5C2 5.55228 2.44772 6 3 6H5C5.55228 6 6 5.55228 6 5V3C6 2.44772 5.55228 2 5 2Z" stroke="#333333" stroke-width="2" stroke-linejoin="round"/>
<path d="M21 18H19C18.4477 18 18 18.4477 18 19V21C18 21.5523 18.4477 22 19 22H21C21.5523 22 22 21.5523 22 21V19C22 18.4477 21.5523 18 21 18Z" stroke="#333333" stroke-width="2" stroke-linejoin="round"/>
<path d="M5 18H3C2.44772 18 2 18.4477 2 19V21C2 21.5523 2.44772 22 3 22H5C5.55228 22 6 21.5523 6 21V19C6 18.4477 5.55228 18 5 18Z" stroke="#333333" stroke-width="2" stroke-linejoin="round"/>
<path d="M20 7V17" stroke="#333333" stroke-width="2" stroke-linecap="round"/>
<path d="M4 7V17" stroke="#333333" stroke-width="2" stroke-linecap="round"/>
</g>
<defs>
<clipPath id="clip0_2_21675">
<rect width="24" height="24" fill="white"/>
</clipPath>
</defs>
</svg>
