<svg width="24" height="24" viewBox="0 0 24 24" fill="none" xmlns="http://www.w3.org/2000/svg">
<g clip-path="url(#clip0_2_21196)">
<path d="M24 0H0V24H24V0Z" fill="white" fill-opacity="0.01"/>
<path d="M21.9507 18H2.04944C2.55116 12.9467 6.8147 9 12 9C17.1854 9 21.4489 12.9467 21.9507 18Z" stroke="#333333" stroke-width="2" stroke-linejoin="round"/>
<path d="M7 10L5 6.5" stroke="#333333" stroke-width="2" stroke-linecap="round" stroke-linejoin="round"/>
<path d="M16.5 10L18.5 6.5" stroke="#333333" stroke-width="2" stroke-linecap="round" stroke-linejoin="round"/>
<path d="M7.5 15.5C8.05228 15.5 8.5 15.0523 8.5 14.5C8.5 13.9477 8.05228 13.5 7.5 13.5C6.94772 13.5 6.5 13.9477 6.5 14.5C6.5 15.0523 6.94772 15.5 7.5 15.5Z" fill="#333333"/>
<path d="M16.5 15.5C17.0523 15.5 17.5 15.0523 17.5 14.5C17.5 13.9477 17.0523 13.5 16.5 13.5C15.9477 13.5 15.5 13.9477 15.5 14.5C15.5 15.0523 15.9477 15.5 16.5 15.5Z" fill="#333333"/>
</g>
<defs>
<clipPath id="clip0_2_21196">
<rect width="24" height="24" fill="white"/>
</clipPath>
</defs>
</svg>
