<svg width="24" height="24" viewBox="0 0 24 24" fill="none" xmlns="http://www.w3.org/2000/svg">
<g clip-path="url(#clip0_2_21333)">
<path d="M24 0H0V24H24V0Z" fill="white" fill-opacity="0.01"/>
<path d="M12 22C17.5229 22 22 17.5229 22 12C22 6.47715 17.5229 2 12 2C6.47715 2 2 6.47715 2 12C2 17.5229 6.47715 22 12 22Z" stroke="#333333" stroke-width="2" stroke-linejoin="round"/>
<path d="M15.5 9V9.5" stroke="#333333" stroke-width="2" stroke-linecap="round" stroke-linejoin="round"/>
<path d="M8.5 9V9.5" stroke="#333333" stroke-width="2" stroke-linecap="round" stroke-linejoin="round"/>
<path d="M13 14H11C9.89543 14 9 14.8954 9 16C9 17.1046 9.89543 18 11 18H13C14.1046 18 15 17.1046 15 16C15 14.8954 14.1046 14 13 14Z" stroke="#333333" stroke-width="2" stroke-linecap="round" stroke-linejoin="round"/>
</g>
<defs>
<clipPath id="clip0_2_21333">
<rect width="24" height="24" fill="white"/>
</clipPath>
</defs>
</svg>
