<svg width="24" height="24" viewBox="0 0 24 24" fill="none" xmlns="http://www.w3.org/2000/svg">
<g clip-path="url(#clip0_2_21614)">
<path d="M24 0H0V24H24V0Z" fill="white" fill-opacity="0.01"/>
<path fill-rule="evenodd" clip-rule="evenodd" d="M12 20.9979C18.6666 21.0494 22 20.5036 22 19.3607C22 17.6463 14.2071 9.00128 12 9.00128C9.7929 9.00128 2 17.8255 2 19.3607C2 20.3842 5.33335 20.9299 12 20.9979Z" stroke="#333333" stroke-width="2" stroke-linejoin="round"/>
<path d="M10.5301 14.8306L8.72021 17.0001" stroke="#333333" stroke-width="2" stroke-linecap="round"/>
<path d="M12.25 5.50004C12.9404 5.50004 13.5 4.94042 13.5 4.25006C13.5 3.55971 12.9404 3.00006 12.25 3.00006C11.5597 3.00006 11 3.55971 11 4.25006C11 4.94042 11.5597 5.50004 12.25 5.50004Z" fill="#333333"/>
<path d="M17 8.00006C17.5523 8.00006 18 7.55236 18 7.00006C18 6.44781 17.5523 6.00006 17 6.00006C16.4477 6.00006 16 6.44781 16 7.00006C16 7.55236 16.4477 8.00006 17 8.00006Z" fill="#333333"/>
<path d="M6 10.5001C6.5523 10.5001 7 10.0524 7 9.50006C7 8.94781 6.5523 8.50006 6 8.50006C5.4477 8.50006 5 8.94781 5 9.50006C5 10.0524 5.4477 10.5001 6 10.5001Z" fill="#333333"/>
<path d="M8.75 7.50006C9.1642 7.50006 9.5 7.16431 9.5 6.75006C9.5 6.33586 9.1642 6.00006 8.75 6.00006C8.3358 6.00006 8 6.33586 8 6.75006C8 7.16431 8.3358 7.50006 8.75 7.50006Z" fill="#333333"/>
</g>
<defs>
<clipPath id="clip0_2_21614">
<rect width="24" height="24" fill="white"/>
</clipPath>
</defs>
</svg>
