<svg width="24" height="24" viewBox="0 0 24 24" fill="none" xmlns="http://www.w3.org/2000/svg">
<g clip-path="url(#clip0_2_20978)">
<path d="M24 0H0V24H24V0Z" fill="white" fill-opacity="0.01"/>
<path d="M18.5 11.0001L17 12.5001L11.5 7.00007L13 5.50007C13.75 4.75003 16.5 3.50004 18.5 5.50007C20.5 7.50007 19.25 10.25 18.5 11.0001Z" stroke="#333333" stroke-width="2" stroke-linecap="round" stroke-linejoin="round"/>
<path d="M21 3L18.5 5.5" stroke="#333333" stroke-width="2" stroke-linecap="round" stroke-linejoin="round"/>
<path d="M5.50004 12.9999L7.00004 11.4999L12.5 16.9999L11 18.4999C10.25 19.25 7.50004 20.5 5.50004 18.4999C3.50004 16.4999 4.75004 13.75 5.50004 12.9999Z" stroke="#333333" stroke-width="2" stroke-linecap="round" stroke-linejoin="round"/>
<path d="M11.5 16L13.5 14" stroke="#333333" stroke-width="2" stroke-linecap="round" stroke-linejoin="round"/>
<path d="M3 21L5.5 18.5" stroke="#333333" stroke-width="2" stroke-linecap="round" stroke-linejoin="round"/>
<path d="M8 12.5L10 10.5" stroke="#333333" stroke-width="2" stroke-linecap="round" stroke-linejoin="round"/>
</g>
<defs>
<clipPath id="clip0_2_20978">
<rect width="24" height="24" fill="white"/>
</clipPath>
</defs>
</svg>
