<svg width="24" height="24" viewBox="0 0 24 24" fill="none" xmlns="http://www.w3.org/2000/svg">
<g clip-path="url(#clip0_2_21577)">
<path d="M24 0H0V24H24V0Z" fill="white" fill-opacity="0.01"/>
<path d="M11.9558 5.65887C11.9968 4.5431 12.3103 3.56303 12.8889 2.74376C13.4704 1.92034 14.4316 1.33541 15.7475 1.00397C15.7563 1.04449 15.7654 1.08503 15.7748 1.12542V1.33742C15.7748 1.81814 15.6582 2.36937 15.4281 2.9757C15.1869 3.56277 14.8099 4.11531 14.3093 4.61397C13.841 5.05337 13.4078 5.34427 13.025 5.47577C12.8985 5.51352 12.7253 5.55067 12.516 5.58412C12.3298 5.61312 12.1431 5.63802 11.9558 5.65887Z" fill="#333333"/>
<path d="M12.1754 7.3145C10.689 7.3145 9.65705 6 8.1909 6C6.7248 6 3.70435 7.3476 3.70435 12C3.70435 16.6524 6.38655 19.65 6.6865 20C6.9865 20.35 7.6803 21.2498 8.75515 21.2498C9.83005 21.2498 11.0068 20.3951 12.1754 20.3951C13.3439 20.3951 14.8147 21.2498 15.7749 21.2498C16.7351 21.2498 17.13 20.8583 17.7835 20.1831C18.437 19.508 19.6834 17.4477 20.1187 16.2111C19.4017 15.7843 17.5013 14.6256 17.5013 12C17.5013 10.2496 18.141 8.7955 19.4203 7.6376C18.581 6.54585 17.6076 6 16.5001 6C14.8387 6 13.6617 7.3145 12.1754 7.3145Z" stroke="#333333" stroke-width="2" stroke-linejoin="round"/>
</g>
<defs>
<clipPath id="clip0_2_21577">
<rect width="24" height="24" fill="white"/>
</clipPath>
</defs>
</svg>
