<svg width="24" height="24" viewBox="0 0 24 24" fill="none" xmlns="http://www.w3.org/2000/svg">
<path d="M12 20.4166C13.0615 21.3667 14.4633 21.9444 16 21.9444C19.3137 21.9444 22 19.2581 22 15.9444C22 13.294 20.2815 11.0449 17.8979 10.2508" stroke="#333333" stroke-width="2" stroke-linecap="round" stroke-linejoin="round"/>
<path d="M13.5856 13.7495C13.8529 14.4293 13.9998 15.1697 13.9998 15.9444C13.9998 19.2581 11.3135 21.9444 7.99975 21.9444C4.68605 21.9444 1.99976 19.2581 1.99976 15.9444C1.99976 13.287 3.72746 11.033 6.1209 10.2445" stroke="#333333" stroke-width="2" stroke-linecap="round" stroke-linejoin="round"/>
<path d="M12 13.9445C15.3137 13.9445 18 11.2582 18 7.94453C18 4.63081 15.3137 1.94452 12 1.94452C8.6863 1.94452 6 4.63081 6 7.94453C6 11.2582 8.6863 13.9445 12 13.9445Z" stroke="#333333" stroke-width="2" stroke-linecap="round" stroke-linejoin="round"/>
</svg>
