<svg width="24" height="24" viewBox="0 0 24 24" fill="none" xmlns="http://www.w3.org/2000/svg">
<path d="M20.4253 21.9603L19.6381 21.8028C18.4633 21.5679 17.928 19.9994 18.3014 18.861C19.2786 15.8815 18.5623 12.0558 18.1663 10.4047C18.0435 9.89227 17.6376 9.50772 17.1265 9.37992L15.9951 9.09707C15.4577 8.96272 15.0381 8.54312 14.9037 8.00567L14.6209 6.87432C14.4931 6.36312 14.1085 5.95732 13.5961 5.83442C11.945 5.43847 8.11929 4.72222 5.13979 5.69942C4.00143 6.07277 2.43292 5.53747 2.19797 4.36269L2.04053 3.5755" stroke="#333333" stroke-width="2" stroke-linecap="round" stroke-linejoin="round"/>
<path d="M3 5.5L19 21.5" stroke="#333333" stroke-width="2" stroke-linecap="round" stroke-linejoin="round"/>
<path d="M6 18L21.5 2.5" stroke="#333333" stroke-width="2" stroke-linecap="round" stroke-linejoin="round"/>
</svg>
