<svg width="24" height="24" viewBox="0 0 24 24" fill="none" xmlns="http://www.w3.org/2000/svg">
<g clip-path="url(#clip0_2_21530)">
<path d="M24 0H0V24H24V0Z" fill="white" fill-opacity="0.01"/>
<path d="M3.99988 18L4.00218 14.0213C4.00263 13.7453 4.22644 13.5216 4.50247 13.5213C6.16945 13.5213 7.83645 13.5213 9.50345 13.5213C9.9642 13.5213 9.96175 13.1126 9.96175 12.1396C9.96175 11.1666 7.51095 10.3471 7.51095 6.9264C7.51095 3.50576 10.0498 2.5 12.1599 2.5C14.2699 2.5 16.5682 3.50576 16.5682 6.9264C16.5682 10.3471 14.1302 10.8909 14.1302 12.1396C14.1302 13.3882 14.1302 13.5213 14.5205 13.5213C16.1803 13.5213 17.8402 13.5213 19.5 13.5213C19.7761 13.5213 20 13.7452 20 14.0213V18H3.99988Z" stroke="#333333" stroke-width="2" stroke-linejoin="round"/>
<path d="M4 21H20" stroke="#333333" stroke-width="2" stroke-linecap="round" stroke-linejoin="round"/>
</g>
<defs>
<clipPath id="clip0_2_21530">
<rect width="24" height="24" fill="white"/>
</clipPath>
</defs>
</svg>
