<svg width="24" height="24" viewBox="0 0 24 24" fill="none" xmlns="http://www.w3.org/2000/svg">
<path d="M3.5 16C5 18.5 7.5 20 10 20.5C12.5 21 15.4042 20.5718 17.5 19C20.5 16.75 21.5 13 21.5 10.5C21.5 8 20.5 5.25 20 4.5C19.5 3.75 18.5 3.5 18.5 3.5" stroke="#333333" stroke-width="2" stroke-linecap="round" stroke-linejoin="round"/>
<path d="M10.5001 6.5C8.3226 7.3023 6 6.5 4.00007 8C1.65176 9.7613 0.999915 12.5 2.50008 15C3.67604 16.9597 5.49985 18 8.49985 18C11.4999 18 13.3822 17.1177 15.4999 15C18.4999 12 19.4998 7.25 19.4998 5.5C19.4998 3.75 18.25 2.74999 16.4998 2.99999C14.7497 3.24999 13.2863 5.47335 10.5001 6.5Z" stroke="#333333" stroke-width="2" stroke-linecap="round" stroke-linejoin="round"/>
<path d="M10.9726 10.0587C10.3612 10.2988 9.70891 10.0587 9.14726 10.5076C8.48776 11.0346 8.30471 11.8541 8.72601 12.6022C9.05626 13.1887 9.56841 13.5 10.4109 13.5C11.2534 13.5 11.782 13.236 12.3767 12.6022C13.2192 11.7045 13.5 10.2831 13.5 9.75949C13.5 9.23579 13.149 8.93654 12.6575 9.01139C12.1661 9.08619 11.7551 9.75149 10.9726 10.0587Z" stroke="#333333" stroke-width="2" stroke-linecap="round" stroke-linejoin="round"/>
</svg>
