<svg width="24" height="24" viewBox="0 0 24 24" fill="none" xmlns="http://www.w3.org/2000/svg">
<path d="M21.5 13V16C21.5 16.5523 21.0523 17 20.5 17H3.5C2.94771 17 2.5 16.5523 2.5 16V6C2.5 5.4477 2.94771 5 3.5 5H8" stroke="#333333" stroke-width="2" stroke-linecap="round"/>
<path d="M2 20H22" stroke="#333333" stroke-width="2" stroke-linecap="round" stroke-linejoin="round"/>
<path d="M15 13C17.4853 13 19.5 10.9853 19.5 8.5C19.5 6.01472 17.4853 4 15 4C12.5147 4 10.5 6.01472 10.5 8.5C10.5 10.9853 12.5147 13 15 13Z" stroke="#333333" stroke-width="2"/>
<path d="M9.5 9V8" stroke="#333333" stroke-width="2" stroke-linecap="round" stroke-linejoin="round"/>
<path d="M20.5 9V8" stroke="#333333" stroke-width="2" stroke-linecap="round" stroke-linejoin="round"/>
<path d="M15 4C14.9166 3.5 14.4 2.4 13 2" stroke="#333333" stroke-width="2" stroke-linecap="round" stroke-linejoin="round"/>
<path d="M15 4C15.0417 3.5 15.3 2.4 16 2" stroke="#333333" stroke-width="2" stroke-linecap="round" stroke-linejoin="round"/>
<path d="M16.5 9C17.0523 9 17.5 8.55228 17.5 8C17.5 7.44772 17.0523 7 16.5 7C15.9477 7 15.5 7.44772 15.5 8C15.5 8.55228 15.9477 9 16.5 9Z" fill="#333333"/>
<path d="M13.5 9C14.0523 9 14.5 8.55228 14.5 8C14.5 7.44772 14.0523 7 13.5 7C12.9477 7 12.5 7.44772 12.5 8C12.5 8.55228 12.9477 9 13.5 9Z" fill="#333333"/>
</svg>
