<svg width="24" height="24" viewBox="0 0 24 24" fill="none" xmlns="http://www.w3.org/2000/svg">
<path d="M7.50007 10.3061C6.78822 13.3808 10.7465 14.1635 9.81192 16.3299C8.87732 18.4962 6.78442 18.0629 7.01807 20.2292C7.25177 22.3955 10.021 22.426 12.5419 21.1208C17.5838 18.5103 18.6354 12.8083 16.3538 10.3061C13.5501 7.23131 8.21187 7.23131 7.50007 10.3061Z" stroke="#333333" stroke-width="2"/>
<path d="M16.3036 7.91675C16.7267 8.27175 17.5013 8.04508 18.0338 7.41047C18.5664 6.77586 18.6551 5.97362 18.232 5.61862C17.8089 5.26362 17.0343 5.49028 16.5018 6.1249C15.9693 6.75951 15.8805 7.56175 16.3036 7.91675Z" fill="#333333"/>
<path d="M14.0568 6.66095C14.5573 6.89436 15.2469 6.47492 15.597 5.72411C15.9471 4.9733 15.8252 4.17543 15.3246 3.94203C14.8241 3.70862 14.1345 4.12806 13.7844 4.87887C13.4343 5.62968 13.5562 6.42755 14.0568 6.66095Z" fill="#333333"/>
<path d="M11.534 6.29317C12.0832 6.3509 12.5987 5.72981 12.6853 4.90592C12.7719 4.08203 12.3968 3.36734 11.8475 3.30961C11.2983 3.25188 10.7828 3.87297 10.6962 4.69686C10.6096 5.52075 10.9847 6.23544 11.534 6.29317Z" fill="#333333"/>
<path d="M7.68399 5.87929C8.46246 5.59595 8.78728 4.52483 8.40949 3.48687C8.03171 2.44891 7.09438 1.83718 6.31591 2.12051C5.53744 2.40385 5.21263 3.47497 5.59041 4.51293C5.9682 5.55089 6.90552 6.16262 7.68399 5.87929Z" stroke="#333333" stroke-width="2"/>
<path d="M18.1187 9.73188C18.4737 10.155 19.2759 10.0662 19.9106 9.53375C20.5452 9.00124 20.7718 8.22659 20.4168 7.80352C20.0618 7.38045 19.2596 7.46915 18.625 8.00166C17.9904 8.53416 17.7637 9.30881 18.1187 9.73188Z" fill="#333333"/>
</svg>
