<svg width="24" height="24" viewBox="0 0 24 24" fill="none" xmlns="http://www.w3.org/2000/svg">
<path d="M17 2H7C6 2.5 4.5 4.5 4.5 9.5C4.5 15.75 7 22 8.5 22C9.5 22 9.5 20.75 9.5 20.75V12C9.5 9.5 13.5 9.75 13.5 12V17.5C13.5 21.5 17 23 18 22C19 21 17 20 17 18.5C17 16 19 14 19 7.5C19 5 17.8334 3 17 2Z" stroke="#333333" stroke-width="2" stroke-linejoin="round"/>
<path d="M5 6H18.5" stroke="#333333" stroke-width="2" stroke-linecap="round" stroke-linejoin="round"/>
<path d="M5.40159 4C5.03534 4.84789 4.73271 5.9906 4.58936 7.5" stroke="#333333" stroke-width="2" stroke-linejoin="round"/>
<path d="M19 7.5C19 6.38595 18.7683 5.3712 18.4377 4.5" stroke="#333333" stroke-width="2" stroke-linejoin="round"/>
</svg>
