<svg width="24" height="24" viewBox="0 0 24 24" fill="none" xmlns="http://www.w3.org/2000/svg">
<path d="M12 7.5C13.3807 7.5 14.5 6.38071 14.5 5C14.5 3.61929 13.3807 2.5 12 2.5C10.6193 2.5 9.5 3.61929 9.5 5C9.5 6.38071 10.6193 7.5 12 7.5Z" stroke="#333333" stroke-width="2"/>
<path d="M12 10.5C7 10.5 5.5 3 5.5 3L3 4L4.5 12.25C5.08335 12.5834 7.25 13.75 8.5 15.5C9.75 17.25 9.5 19 12.25 19C15 19 15.25 16.75 16 15.5C16.75 14.25 18.8334 12.5 19.5 12.25L21 4L18.5 3C18.5 3 17 10.5 12 10.5Z" stroke="#333333" stroke-width="2" stroke-linecap="round" stroke-linejoin="round"/>
<path d="M17 14.5C17 14.5 20.5 16.5 20.5 21H18C18 18 15.5 16.5 15.5 16.5" stroke="#333333" stroke-width="2" stroke-linecap="round" stroke-linejoin="round"/>
<path d="M7.5 14.5C7.5 14.5 4 16.5 4 21H6.5C6.5 18 9 16.5 9 16.5" stroke="#333333" stroke-width="2" stroke-linecap="round" stroke-linejoin="round"/>
</svg>
