<svg width="24" height="24" viewBox="0 0 24 24" fill="none" xmlns="http://www.w3.org/2000/svg">
<path d="M12 6.5C13.3807 6.5 14.5 5.38071 14.5 4C14.5 2.61929 13.3807 1.5 12 1.5C10.6193 1.5 9.5 2.61929 9.5 4C9.5 5.38071 10.6193 6.5 12 6.5Z" stroke="#333333" stroke-width="2" stroke-linecap="round" stroke-linejoin="round"/>
<path d="M2.5 14C2.5 14 11 3.875 21.5 14" stroke="#333333" stroke-width="2" stroke-linecap="round"/>
<path d="M9.5 14V12.1053C9.5 12.1053 9.5 9.5 12 9.5C14.5 9.5 14.5 12.1053 14.5 12.1053V14V16C14.5 16 14.5 18.5 12 18.5C9.5 18.5 9.5 16 9.5 16V14Z" stroke="#333333" stroke-width="2" stroke-linecap="round" stroke-linejoin="round"/>
<path d="M14.5 16L18.5 18.5L15.5 22" stroke="#333333" stroke-width="2" stroke-linecap="round" stroke-linejoin="round"/>
<path d="M9.5 16L5.5 18.5L8.5 22" stroke="#333333" stroke-width="2" stroke-linecap="round" stroke-linejoin="round"/>
</svg>
