<svg width="24" height="24" viewBox="0 0 24 24" fill="none" xmlns="http://www.w3.org/2000/svg">
<path d="M17.9557 3.22804L20.6406 12.7281C20.8209 13.3663 20.3414 14 19.6782 14H13.9374C13.5857 14 13.3255 14.3271 13.4045 14.6698L13.6543 15.752C13.8834 16.7447 13.957 17.7669 13.8723 18.7821L13.8264 19.3337C13.7771 19.9254 13.5197 20.4803 13.0998 20.9002C12.7158 21.2842 12.1949 21.5 11.6517 21.5H11.5322C11.2037 21.5 10.9011 21.3219 10.7416 21.0348L9.4125 18.6425C8.81645 17.5696 7.92795 16.688 6.85045 16.1003L3.52115 14.2843C3.19989 14.1091 3 13.7723 3 13.4064V3.5C3 2.94771 3.44771 2.5 4 2.5H16.9935C17.441 2.5 17.834 2.79736 17.9557 3.22804Z" stroke="#333333" stroke-width="2" stroke-linecap="round" stroke-linejoin="round"/>
</svg>
