<svg width="24" height="24" viewBox="0 0 24 24" fill="none" xmlns="http://www.w3.org/2000/svg">
<path d="M4.9739 14.4035C6.93455 18.8406 10.9662 20.5951 14 22C15.3162 22.6096 15.6641 20.1416 15.1386 18.6546C14.6966 17.404 13.8128 16.0024 13.8128 16.0024H17.3658C18.3325 16.0024 19.1161 15.2188 19.1161 14.2521C19.1161 13.2854 18.3325 12.5018 17.3658 12.5018H18.2497C19.2163 12.5018 20 11.7182 20 10.7515C20 9.7848 19.2163 9.0012 18.2497 9.0012H16.4819C17.4486 9.0012 18.2322 8.21756 18.2322 7.25091C18.2322 6.28426 17.4486 5.5006 16.4819 5.5006H15.1561C16.1227 5.5006 16.9064 4.71696 16.9064 3.7503C16.9064 2.78363 16.124 2 15.1574 2H9.8353C8.2885 2 6.29975 2.90155 4.9739 5.40216C3.70295 7.79921 3.64807 11.403 4.9739 14.4035Z" stroke="#333333" stroke-width="2" stroke-linecap="round" stroke-linejoin="round"/>
</svg>
