<svg width="24" height="24" viewBox="0 0 24 24" fill="none" xmlns="http://www.w3.org/2000/svg">
<path d="M9.75 22C10.995 22 12 20.995 12 19.75V9.5H10L7.5 19.75C7.5 20.995 8.505 22 9.75 22Z" stroke="#333333" stroke-width="2" stroke-miterlimit="2" stroke-linecap="round" stroke-linejoin="round"/>
<path d="M10 9.5H8L3.33998 18.95C2.78498 20.255 3.57998 21.82 4.98998 21.985C5.075 21.995 5.16 22 5.25 22C6.495 22 7.5 20.995 7.5 19.75" stroke="#333333" stroke-width="2" stroke-miterlimit="2" stroke-linecap="round" stroke-linejoin="round"/>
<path d="M14.25 22C13.005 22 12 20.995 12 19.75V9.5H14L16.5 19.75C16.5 20.995 15.495 22 14.25 22Z" stroke="#333333" stroke-width="2" stroke-miterlimit="2" stroke-linecap="round" stroke-linejoin="round"/>
<path d="M14 9.5H16L20.66 18.95C21.215 20.255 20.42 21.82 19.01 21.985C18.925 21.995 18.84 22 18.75 22C17.505 22 16.5 20.995 16.5 19.75" stroke="#333333" stroke-width="2" stroke-miterlimit="2" stroke-linecap="round" stroke-linejoin="round"/>
<path d="M8.03 6.5C8.01 6.335 8 6.17 8 6C8 3.79 9.79 2 12 2C14.21 2 16 3.79 16 6C16 6.17 15.99 6.335 15.97 6.5H8.03Z" stroke="#333333" stroke-width="2" stroke-miterlimit="2" stroke-linecap="round" stroke-linejoin="round"/>
</svg>
