<svg width="24" height="24" viewBox="0 0 24 24" fill="none" xmlns="http://www.w3.org/2000/svg">
<g clip-path="url(#clip0_2_21485)">
<path d="M24 0H0V24H24V0Z" fill="white" fill-opacity="0.01"/>
<path d="M17.5 12.5C13.945 11.21 10.055 11.21 6.5 12.5L6 7C9.5 5.5 14.5 5.5 18 7L17.5 12.5Z" stroke="#333333" stroke-width="2" stroke-miterlimit="2" stroke-linecap="round" stroke-linejoin="round"/>
<path d="M12 11.5L10.5 9" stroke="#333333" stroke-width="2" stroke-miterlimit="2" stroke-linecap="round" stroke-linejoin="round"/>
<path d="M21 19.5C21 20.3285 20.3285 21 19.5 21H4.5C3.67158 21 3 20.3285 3 19.5V4.5C3 3.67158 3.67158 3 4.5 3H19.5C20.3285 3 21 3.67158 21 4.5V19.5Z" stroke="#333333" stroke-width="2" stroke-miterlimit="2" stroke-linecap="round" stroke-linejoin="round"/>
<path d="M14.5 11.7276C12.8434 11.4674 11.1566 11.4674 9.5 11.7276" stroke="#333333" stroke-width="2" stroke-miterlimit="2" stroke-linecap="round" stroke-linejoin="round"/>
</g>
<defs>
<clipPath id="clip0_2_21485">
<rect width="24" height="24" fill="white"/>
</clipPath>
</defs>
</svg>
