<svg width="24" height="24" viewBox="0 0 24 24" fill="none" xmlns="http://www.w3.org/2000/svg">
<path d="M8 16C6.60025 15.5334 4.98278 14.4137 4.26224 13.2872C4.16355 13.1329 4.12797 12.9488 4.13992 12.766L4.2625 10.891C4.28897 10.4861 4.76739 10.2706 5.098 10.5057C6.1648 11.2646 8.1143 12.5 9.5 12.5C13 12.5 16 11.25 17.5 8.5" stroke="#333333" stroke-width="2" stroke-linecap="round" stroke-linejoin="round"/>
<path d="M12.9999 21.5C17.9999 20.5 22.6213 15.2575 21.4337 9.97066L20.9999 8.00002V4.00001L17.9999 3.5C17.9999 9.97066 16.5 15 9.99992 16C7.01177 16.4597 4.14727 15.8068 1.9353 14.5391L2.49991 18C3.49988 20.5 7.99997 22.5 12.9999 21.5Z" stroke="#333333" stroke-width="2" stroke-linecap="round" stroke-linejoin="round"/>
</svg>
