<svg width="24" height="24" viewBox="0 0 24 24" fill="none" xmlns="http://www.w3.org/2000/svg">
<path d="M22 12H15C15 10.345 13.655 9 12 9C10.345 9 9 10.345 9 12H2C2 6.475 6.475 2 12 2C17.525 2 22 6.475 22 12Z" stroke="#333333" stroke-width="2" stroke-miterlimit="2" stroke-linejoin="round"/>
<path d="M9 12H2C2 17.525 6.475 22 12 22C17.525 22 22 17.525 22 12H15" stroke="#333333" stroke-width="2" stroke-miterlimit="2" stroke-linecap="round" stroke-linejoin="round"/>
<path d="M12 15C13.6568 15 15 13.6568 15 12C15 10.3432 13.6568 9 12 9C10.3432 9 9 10.3432 9 12C9 13.6568 10.3432 15 12 15Z" stroke="#333333" stroke-width="2" stroke-miterlimit="2" stroke-linejoin="round"/>
</svg>
