<svg width="24" height="24" viewBox="0 0 24 24" fill="none" xmlns="http://www.w3.org/2000/svg">
<path d="M10 4C10 2.89543 9.10457 2 8 2C6.89543 2 6 2.89543 6 4C6 5.10457 6.89543 6 8 6C9.10457 6 10 5.10457 10 4Z" stroke="#333333" stroke-width="2" stroke-linecap="round" stroke-linejoin="round"/>
<path d="M10 13C10 11.8954 9.10457 11 8 11C6.89543 11 6 11.8954 6 13C6 14.1046 6.89543 15 8 15C9.10457 15 10 14.1046 10 13Z" stroke="#333333" stroke-width="2" stroke-linecap="round" stroke-linejoin="round"/>
<path d="M8 15.5V22" stroke="#333333" stroke-width="2" stroke-linecap="round"/>
<path d="M18 4C18 2.89543 17.1046 2 16 2C14.8954 2 14 2.89543 14 4C14 5.10457 14.8954 6 16 6C17.1046 6 18 5.10457 18 4Z" stroke="#333333" stroke-width="2" stroke-linecap="round" stroke-linejoin="round"/>
<path d="M18 13C18 11.8954 17.1046 11 16 11C14.8954 11 14 11.8954 14 13C14 14.1046 14.8954 15 16 15C17.1046 15 18 14.1046 18 13Z" stroke="#333333" stroke-width="2" stroke-linecap="round" stroke-linejoin="round"/>
<path d="M16 15.5V22" stroke="#333333" stroke-width="2" stroke-linecap="round"/>
<path d="M6.5 8.5H9.5" stroke="#333333" stroke-width="2" stroke-miterlimit="2" stroke-linecap="round" stroke-linejoin="round"/>
<path d="M14.5 8.5H17.5" stroke="#333333" stroke-width="2" stroke-miterlimit="2" stroke-linecap="round" stroke-linejoin="round"/>
<path d="M6.5 18H9.5" stroke="#333333" stroke-width="2" stroke-miterlimit="2" stroke-linecap="round" stroke-linejoin="round"/>
<path d="M14.5 18H17.5" stroke="#333333" stroke-width="2" stroke-miterlimit="2" stroke-linecap="round" stroke-linejoin="round"/>
<path d="M8 7V10" stroke="#333333" stroke-width="2" stroke-linecap="round"/>
<path d="M16 7V10" stroke="#333333" stroke-width="2" stroke-linecap="round"/>
</svg>
