<svg width="24" height="24" viewBox="0 0 24 24" fill="none" xmlns="http://www.w3.org/2000/svg">
<g clip-path="url(#clip0_2_21629)">
<path d="M24 0H0V24H24V0Z" fill="white" fill-opacity="0.01"/>
<path d="M12 22C17.5228 22 22 17.5228 22 12C22 6.47715 17.5228 2 12 2C6.47715 2 2 6.47715 2 12C2 17.5228 6.47715 22 12 22Z" stroke="#333333" stroke-width="2" stroke-linecap="round" stroke-linejoin="round"/>
<path d="M4.27271 5.63635C6.39392 7.45453 7.45452 9.57575 7.45452 12C7.45452 14.4242 6.39392 16.5454 4.27271 18.3636" stroke="#333333" stroke-width="2" stroke-linecap="round" stroke-linejoin="round"/>
<path d="M19.7272 18.3636C17.606 16.5454 16.5454 14.4242 16.5454 12C16.5454 9.57575 17.606 7.45453 19.7272 5.63635" stroke="#333333" stroke-width="2" stroke-linecap="round" stroke-linejoin="round"/>
</g>
<defs>
<clipPath id="clip0_2_21629">
<rect width="24" height="24" fill="white"/>
</clipPath>
</defs>
</svg>
