<svg width="24" height="24" viewBox="0 0 24 24" fill="none" xmlns="http://www.w3.org/2000/svg">
<g clip-path="url(#clip0_2_21612)">
<path d="M24 0H0V24H24V0Z" fill="white" fill-opacity="0.01"/>
<path d="M15 2C15 3.65685 13.6568 5 12 5C10.3432 5 9 3.65685 9 2H7.5C6.9477 2 6.4988 2.44707 6.48405 2.99916C6.44975 4.28518 6.34145 6.4756 6 7.5C5.61945 8.6416 4.08052 10.0728 3.36681 10.6916C3.13727 10.8906 3 11.1768 3 11.4806V21C3 21.5523 3.44771 22 4 22H20C20.5523 22 21 21.5523 21 21V11.4806C21 11.1768 20.8627 10.8906 20.6332 10.6916C19.9195 10.0728 18.3805 8.6416 18 7.5C17.6585 6.4756 17.5502 4.28518 17.5159 2.99916C17.5012 2.44707 17.0523 2 16.5 2H15Z" stroke="#333333" stroke-width="2" stroke-linejoin="round"/>
<path d="M16.5 12H13.5V18H16.5V12Z" stroke="#333333" stroke-width="2" stroke-linejoin="round"/>
<path d="M7.5 12H10.5V18H7.5" stroke="#333333" stroke-width="2" stroke-linecap="round" stroke-linejoin="round"/>
<path d="M10.5 15H7.5" stroke="#333333" stroke-width="2" stroke-linecap="round" stroke-linejoin="round"/>
</g>
<defs>
<clipPath id="clip0_2_21612">
<rect width="24" height="24" fill="white"/>
</clipPath>
</defs>
</svg>
