<svg width="24" height="24" viewBox="0 0 24 24" fill="none" xmlns="http://www.w3.org/2000/svg">
<path d="M19 7H3C2.44772 7 2 7.44772 2 8V16C2 16.5523 2.44772 17 3 17H19C19.5523 17 20 16.5523 20 16V8C20 7.44772 19.5523 7 19 7Z" stroke="#333333" stroke-width="2" stroke-linecap="round" stroke-linejoin="round"/>
<path d="M21 10H22C22.5523 10 23 10.4477 23 11V13C23 13.5523 22.5523 14 22 14H21V10Z" fill="#333333"/>
<path d="M6.5 10.5V13.5" stroke="#333333" stroke-width="2" stroke-linecap="round" stroke-linejoin="round"/>
<path d="M9.5 10.5V13.5" stroke="#333333" stroke-width="2" stroke-linecap="round" stroke-linejoin="round"/>
<path d="M12.5 10.5V13.5" stroke="#333333" stroke-width="2" stroke-linecap="round" stroke-linejoin="round"/>
<path d="M15.5 12V13.5" stroke="#333333" stroke-width="2" stroke-linecap="round" stroke-linejoin="round"/>
</svg>
