<svg width="24" height="24" viewBox="0 0 24 24" fill="none" xmlns="http://www.w3.org/2000/svg">
<g clip-path="url(#clip0_2_21456)">
<path d="M24 0H0V24H24V0Z" fill="white" fill-opacity="0.01"/>
<path d="M7.17046 10.706L12.0001 12.0001L16.8297 13.2942L21.6594 14.5882C22.8284 10.2253 20.9238 5.76291 17.273 3.50006C16.4598 2.99606 15.56 2.60116 14.5883 2.34078C13.4692 2.04092 12.3435 1.94328 11.2501 2.02548C7.13136 2.33509 3.47037 5.19631 2.34082 9.41186L7.17046 10.706Z" stroke="#333333" stroke-width="2" stroke-linecap="round" stroke-linejoin="round"/>
<path d="M14.5881 2.3407C14.5881 2.3407 11.7677 4.17317 10.1548 6.32915C8.54178 8.48515 8.13623 10.9647 8.13623 10.9647" stroke="#333333" stroke-width="2" stroke-linecap="round" stroke-linejoin="round"/>
<path d="M14.5881 2.3407C14.5881 2.3407 16.1144 5.33785 16.4333 8.0115C16.7522 10.6851 15.8636 13.0352 15.8636 13.0352" stroke="#333333" stroke-width="2" stroke-linecap="round" stroke-linejoin="round"/>
<path d="M2.34082 9.41174L7.17046 10.7058L12.0001 11.9999L16.8297 13.294L21.6594 14.5881" stroke="#333333" stroke-width="2" stroke-linecap="round" stroke-linejoin="round"/>
<path d="M2 22H22" stroke="#333333" stroke-width="2" stroke-linecap="round" stroke-linejoin="round"/>
<path d="M12 12L9.25 22" stroke="#333333" stroke-width="2" stroke-linecap="round" stroke-linejoin="round"/>
<path d="M11.25 2.02548C12.3434 1.94328 13.4691 2.04092 14.5882 2.34078C15.5599 2.60116 16.4597 2.99606 17.2729 3.50006" stroke="#333333" stroke-width="2" stroke-linecap="round" stroke-linejoin="round"/>
</g>
<defs>
<clipPath id="clip0_2_21456">
<rect width="24" height="24" fill="white"/>
</clipPath>
</defs>
</svg>
