<svg width="24" height="24" viewBox="0 0 24 24" fill="none" xmlns="http://www.w3.org/2000/svg">
<path d="M8 18.6207C8 19.5862 8.42855 22 14 22C19.5715 22 20 19.5862 20 18.6207C20 17.6552 20 8 20 8H14H8C8 8 8 17.6552 8 18.6207Z" stroke="#333333" stroke-width="2" stroke-linejoin="round"/>
<path d="M12.5 11.5V18.5" stroke="#333333" stroke-width="2" stroke-linecap="round" stroke-linejoin="round"/>
<path d="M15.5 11.5V18.5" stroke="#333333" stroke-width="2" stroke-linecap="round" stroke-linejoin="round"/>
<path d="M7.99915 8C7.99915 8 6.9996 5.75 8.4994 4.5C9.99915 3.25 11.4995 4 11.4995 4C11.4995 4 11.9991 2 13.9995 2C16 2 16.4992 4 16.4992 4C16.4992 4 18.25 3.25 19.5 4.5C20.75 5.75 19.9992 8 19.9992 8" stroke="#333333" stroke-width="2" stroke-linejoin="round"/>
<path d="M8 9.5H3C3 9.5 3.5 14.5 3.99955 16C4.49911 17.5 8 17 8 17" stroke="#333333" stroke-width="2" stroke-linejoin="round"/>
</svg>
