<svg width="24" height="24" viewBox="0 0 24 24" fill="none" xmlns="http://www.w3.org/2000/svg">
<path fill-rule="evenodd" clip-rule="evenodd" d="M6 12C8.5 12 10 10.6 10 8.5C10 6.4 8.5 5 6 5C3.5 5 2 5 2 5V12H6Z" stroke="#333333" stroke-width="2" stroke-linecap="round" stroke-linejoin="round"/>
<path fill-rule="evenodd" clip-rule="evenodd" d="M6.5156 20C9.2684 20 11 18.5 11 16C11 13.5 9.2684 12 6.5156 12H2V20H6.5156Z" stroke="#333333" stroke-width="2" stroke-linecap="round" stroke-linejoin="round"/>
<path d="M14.5 15.5H22C22 13.5 21 11 18 11C15.5 11 14 13 14 15.5C14 18 15.5 20 18 20C20.5 20 21.5 18.5 21.5 18.5" stroke="#333333" stroke-width="2" stroke-linecap="round" stroke-linejoin="round"/>
<path d="M21 7.5H15" stroke="#333333" stroke-width="2" stroke-linecap="round" stroke-linejoin="round"/>
</svg>
