<svg width="24" height="24" viewBox="0 0 24 24" fill="none" xmlns="http://www.w3.org/2000/svg">
<path d="M5.28255 15.182L2.10059 18.364L5.6361 21.8996L8.8181 18.7176" stroke="#333333" stroke-width="2" stroke-linecap="round" stroke-linejoin="round"/>
<path d="M10.9395 9.5251L18.3641 2.10046L21.8996 5.636L14.475 13.0606" stroke="#333333" stroke-width="2" stroke-linecap="round" stroke-linejoin="round"/>
<path d="M4.92925 14.8284C4.53872 14.4379 4.53872 13.8047 4.92925 13.4142L9.17187 9.17157C9.56242 8.78102 10.1956 8.78102 10.5861 9.17157L14.8287 13.4142C15.2193 13.8047 15.2193 14.4379 14.8287 14.8284L10.5861 19.071C10.1956 19.4616 9.56242 19.4616 9.17187 19.071L4.92925 14.8284Z" stroke="#333333" stroke-width="2" stroke-linecap="round" stroke-linejoin="round"/>
<path d="M12.7074 11.2928L9.17188 14.8284" stroke="#333333" stroke-width="2" stroke-linecap="round" stroke-linejoin="round"/>
<path d="M15.8893 4.57544L19.4248 8.11096" stroke="#333333" stroke-width="2" stroke-linecap="round" stroke-linejoin="round"/>
<path d="M13.4142 7.05029L16.9497 10.5858" stroke="#333333" stroke-width="2" stroke-linecap="round" stroke-linejoin="round"/>
<path d="M7.75769 10.5858L13.4145 16.2427" stroke="#333333" stroke-width="2" stroke-linecap="round" stroke-linejoin="round"/>
</svg>
