<svg width="24" height="24" viewBox="0 0 24 24" fill="none" xmlns="http://www.w3.org/2000/svg">
<path d="M12 22C17.5229 22 22 17.5229 22 12C22 6.47715 17.5229 2 12 2C6.47715 2 2 6.47715 2 12C2 17.5229 6.47715 22 12 22Z" stroke="#333333" stroke-width="2"/>
<path d="M3.33984 17L12.0001 12L3.33984 17ZM12.0001 2V12V2ZM20.6603 17L12.0001 12L20.6603 17Z" stroke="#333333" stroke-width="2" stroke-linecap="round" stroke-linejoin="round"/>
<path d="M21.6849 14.5C21.4566 15.387 21.1097 16.2262 20.6621 17C20.2398 17.73 19.7279 18.4017 19.1414 19M8.9999 2.4578C9.94695 2.16035 10.9547 2 11.9999 2C13.0451 2 14.0529 2.16035 14.9999 2.4578H8.9999ZM2.31494 14.5C2.54322 15.387 2.89012 16.2262 3.33772 17C3.76002 17.73 4.27195 18.4017 4.85847 19L2.31494 14.5Z" stroke="#333333" stroke-width="2"/>
</svg>
