<svg width="24" height="24" viewBox="0 0 24 24" fill="none" xmlns="http://www.w3.org/2000/svg">
<path d="M12 22C17.5229 22 22 17.5229 22 12C22 6.47715 17.5229 2 12 2C6.47715 2 2 6.47715 2 12C2 17.5229 6.47715 22 12 22Z" stroke="#333333" stroke-width="2" stroke-linejoin="round"/>
<path d="M12 11.5C13.3807 11.5 14.5 10.3807 14.5 9C14.5 7.6193 13.3807 6.5 12 6.5C10.6193 6.5 9.5 7.6193 9.5 9C9.5 10.3807 10.6193 11.5 12 11.5Z" stroke="#333333" stroke-width="2" stroke-linejoin="round"/>
<path d="M12 17.5C13.6568 17.5 15 16.1568 15 14.5C15 12.8432 13.6568 11.5 12 11.5C10.3432 11.5 9 12.8432 9 14.5C9 16.1568 10.3432 17.5 12 17.5Z" stroke="#333333" stroke-width="2" stroke-linejoin="round"/>
</svg>
