<svg width="24" height="24" viewBox="0 0 24 24" fill="none" xmlns="http://www.w3.org/2000/svg">
<path d="M4 7V8.5H3C2.44771 8.5 2 8.9477 2 9.5V14.5C2 15.0523 2.44771 15.5 3 15.5H4V17C4 17.5523 4.44771 18 5 18H18.5C19.0523 18 19.5 17.5523 19.5 17V15.5H21C21.5523 15.5 22 15.0523 22 14.5V9.5C22 8.9477 21.5523 8.5 21 8.5H19.5V7C19.5 6.4477 19.0523 6 18.5 6H5C4.44771 6 4 6.4477 4 7Z" stroke="#333333" stroke-width="2" stroke-linecap="round" stroke-linejoin="round"/>
<path d="M6 12H18" stroke="#333333" stroke-width="2" stroke-linecap="round" stroke-linejoin="round"/>
<path d="M12 14C13.1046 14 14 13.1046 14 12C14 10.8954 13.1046 10 12 10C10.8954 10 10 10.8954 10 12C10 13.1046 10.8954 14 12 14Z" fill="#333333"/>
<path d="M16 14.5V9.5" stroke="#333333" stroke-width="2" stroke-linecap="round" stroke-linejoin="round"/>
<path d="M8 14.5V9.5" stroke="#333333" stroke-width="2" stroke-linecap="round" stroke-linejoin="round"/>
</svg>
