<svg width="24" height="24" viewBox="0 0 24 24" fill="none" xmlns="http://www.w3.org/2000/svg">
<path d="M21.7616 8.65741C21.7616 6.53606 19.9938 6.53611 18.7564 5.29866C17.519 4.06124 17.5189 2.29343 15.3976 2.29346C13.9834 2.29345 12.746 3.88444 12.746 4.94511C12.746 6.00581 13.0996 6.71286 13.8067 7.42001L7.44269 13.784C6.73564 13.0769 6.02849 12.7233 4.96784 12.7233C3.9072 12.7233 2.31616 13.9607 2.31619 15.3749C2.13939 17.673 4.26077 17.6731 5.32139 18.7337C6.38204 19.7943 6.38204 21.9157 8.68014 21.7389C10.0943 21.7389 11.3318 20.148 11.3318 19.0873C11.3318 18.0266 10.9783 17.3195 10.2711 16.6124L16.6351 10.2484C17.3422 10.9555 18.0493 11.3091 19.11 11.3091C20.1706 11.3091 21.7616 10.0716 21.7616 8.65741Z" stroke="#333333" stroke-width="2" stroke-linejoin="round"/>
</svg>
