<svg width="24" height="24" viewBox="0 0 24 24" fill="none" xmlns="http://www.w3.org/2000/svg">
<path d="M6.5 10H8.5C8.5 10 12 13.64 12 17C12 20.36 9 22 9 22H6C6 22 3 20.36 3 17C3 13.64 6.5 10 6.5 10Z" stroke="#333333" stroke-width="2" stroke-linecap="round" stroke-linejoin="round"/>
<path d="M7.5 2C8.54165 2 10 2.76 10 5C10 7.24 8.33335 10 8.33335 10H6.66665C6.66665 10 5 7.24 5 5C5 2.76 6.45835 2 7.5 2Z" stroke="#333333" stroke-width="2" stroke-linecap="round" stroke-linejoin="round"/>
<path d="M15.5 10H17.5C17.5 10 21 13.64 21 17C21 20.36 18 22 18 22H15C15 22 12 20.36 12 17C12 13.64 15.5 10 15.5 10Z" stroke="#333333" stroke-width="2" stroke-linecap="round" stroke-linejoin="round"/>
<path d="M16.5 2C17.5417 2 19 2.76 19 5C19 7.24 17.3333 10 17.3333 10H15.6666C15.6666 10 14 7.24 14 5C14 2.76 15.4583 2 16.5 2Z" stroke="#333333" stroke-width="2" stroke-linecap="round" stroke-linejoin="round"/>
</svg>
