<svg width="24" height="24" viewBox="0 0 24 24" fill="none" xmlns="http://www.w3.org/2000/svg">
<path d="M7.5 10.7799C7.5 9.05525 8.40485 7.4571 9.8837 6.56975C9.95585 6.5265 10 6.4485 10 6.3644V2H14V6.3644C14 6.4485 14.0441 6.5265 14.1163 6.56975C15.5951 7.4571 16.5 9.05525 16.5 10.7799V21C16.5 21.5523 16.0523 22 15.5 22H8.5C7.9477 22 7.5 21.5523 7.5 21V10.7799Z" stroke="#333333" stroke-width="2" stroke-linecap="round" stroke-linejoin="round"/>
<path d="M10 5H14" stroke="#333333" stroke-width="2" stroke-linecap="round"/>
<path d="M16.5 11.5H12V19H16.5" stroke="#333333" stroke-width="2" stroke-linecap="round" stroke-linejoin="round"/>
<path d="M16.5 20V10.5" stroke="#333333" stroke-width="2" stroke-linecap="round" stroke-linejoin="round"/>
<path d="M10 6V4" stroke="#333333" stroke-width="2" stroke-linecap="round" stroke-linejoin="round"/>
<path d="M14 6V4" stroke="#333333" stroke-width="2" stroke-linecap="round" stroke-linejoin="round"/>
</svg>
