<svg width="24" height="24" viewBox="0 0 24 24" fill="none" xmlns="http://www.w3.org/2000/svg">
<path d="M3.27184 7.13124C5.70153 7.61444 8.30153 9.37694 10 11.5C10 16.8154 6.32218 18.1185 3.61445 18.4169C2.87554 18.4983 2.38901 17.7164 2.68805 17.0358C3.41264 15.3866 4.00003 13.6496 4.00003 12.5C4.00003 11.3044 3.04698 9.79109 2.40701 8.21329C2.16248 7.61044 2.63377 7.00439 3.27184 7.13124Z" stroke="#333333" stroke-width="2" stroke-linecap="round" stroke-linejoin="round"/>
<path d="M20.7282 7.13124C18.2985 7.61444 15.6985 9.37694 14 11.5C14 16.8154 17.6778 18.1185 20.3855 18.4169C21.1245 18.4983 21.611 17.7164 21.312 17.0358C20.5874 15.3866 20 13.6496 20 12.5C20 11.3044 20.9531 9.79109 21.593 8.21329C21.8376 7.61044 21.3663 7.00439 20.7282 7.13124Z" stroke="#333333" stroke-width="2" stroke-linecap="round" stroke-linejoin="round"/>
<path d="M14 10.5H10V14.5H14V10.5Z" stroke="#333333" stroke-width="2" stroke-linecap="round" stroke-linejoin="round"/>
</svg>
