<svg width="24" height="24" viewBox="0 0 24 24" fill="none" xmlns="http://www.w3.org/2000/svg">
<g clip-path="url(#clip0_2_20796)">
<path d="M24 0H0V24H24V0Z" fill="white" fill-opacity="0.01"/>
<path d="M16 22C16 22 16 20.0678 16.0007 20.0641C16.3493 19.8909 16.6851 19.6957 17.0062 19.4803C17.4948 19.1527 17.9495 18.7785 18.364 18.364C19.9927 16.7353 21 14.4853 21 12H3C3 14.4853 4.00736 16.7353 5.63605 18.364C6.0543 18.7823 6.51355 19.1595 7.00725 19.4893C7.3265 19.7025 7.6602 19.896 8.00655 20.0678L8 22H16Z" stroke="#333333" stroke-width="2" stroke-linecap="round" stroke-linejoin="round"/>
<path d="M12 9.00415V4" stroke="#333333" stroke-width="2" stroke-linecap="round" stroke-linejoin="round"/>
<path d="M18 9.00415V6" stroke="#333333" stroke-width="2" stroke-linecap="round" stroke-linejoin="round"/>
<path d="M6 9.00415V6" stroke="#333333" stroke-width="2" stroke-linecap="round" stroke-linejoin="round"/>
<path d="M20 4C18.8954 4 18 4.89543 18 6" stroke="#333333" stroke-width="2" stroke-linecap="round" stroke-linejoin="round"/>
<path d="M14 2C12.8954 2 12 2.89543 12 4" stroke="#333333" stroke-width="2" stroke-linecap="round" stroke-linejoin="round"/>
<path d="M8 4C6.89545 4 6 4.89543 6 6" stroke="#333333" stroke-width="2" stroke-linecap="round" stroke-linejoin="round"/>
</g>
<defs>
<clipPath id="clip0_2_20796">
<rect width="24" height="24" fill="white"/>
</clipPath>
</defs>
</svg>
