<svg width="24" height="24" viewBox="0 0 24 24" fill="none" xmlns="http://www.w3.org/2000/svg">
<path d="M12 22C17.525 22 22 17.525 22 12C22 6.475 17.525 2 12 2C6.475 2 2 6.475 2 12C2 17.525 6.475 22 12 22Z" stroke="#333333" stroke-width="2" stroke-miterlimit="2" stroke-linejoin="round"/>
<path d="M12 13C12.83 13 13.5 12.33 13.5 11.5C13.5 10.67 12.83 10 12 10C11.17 10 10.5 10.67 10.5 11.5C10.5 12.33 11.17 13 12 13Z" fill="#333333"/>
<path d="M15.5 9C16.33 9 17 8.33 17 7.5C17 6.67 16.33 6 15.5 6C14.67 6 14 6.67 14 7.5C14 8.33 14.67 9 15.5 9Z" fill="#333333"/>
<path d="M8.5 9C9.33 9 10 8.33 10 7.5C10 6.67 9.33 6 8.5 6C7.67 6 7 6.67 7 7.5C7 8.33 7.67 9 8.5 9Z" fill="#333333"/>
</svg>
