<svg width="24" height="24" viewBox="0 0 24 24" fill="none" xmlns="http://www.w3.org/2000/svg">
<path d="M6.5 13H7.5C8.88 13 10 11.88 10 10.5C10 9.12 8.88 8 7.5 8H5.5C4.12 8 3 9.12 3 10.5V15C3 16.6568 4.34315 18 6 18H18C19.6568 18 21 16.6568 21 15V13C21 11.8954 20.1046 11 19 11H12" stroke="#333333" stroke-width="2" stroke-miterlimit="2" stroke-linecap="round" stroke-linejoin="round"/>
<path d="M17 22H7C6.445 22 6 21.55 6 21V18H18V21C18 21.55 17.55 22 17 22Z" stroke="#333333" stroke-width="2" stroke-miterlimit="2" stroke-linecap="round" stroke-linejoin="round"/>
<path d="M3 10C2.5 10 2 9 2 8V6C2 3.79 3.79 2 6 2H18C20.21 2 22 3.79 22 6V8C22 9.655 20.655 11 19 11H9.95" stroke="#333333" stroke-width="2" stroke-miterlimit="2" stroke-linecap="round" stroke-linejoin="round"/>
</svg>
