<svg width="24" height="24" viewBox="0 0 24 24" fill="none" xmlns="http://www.w3.org/2000/svg">
<path d="M19 18V21C19 21.55 18.555 22 18 22H8.5C7.95 22 7.5 21.555 7.5 21V18" stroke="#333333" stroke-width="2" stroke-miterlimit="2" stroke-linecap="round" stroke-linejoin="round"/>
<path d="M5.5 7.5V5C5.5 3.34315 6.84315 2 8.5 2H14H19C20.6568 2 22 3.34315 22 5V15C22 16.6568 20.6599 18 19.003 18C15.4834 18 9.8299 18 7.5 18C4 18 2 14 2 11.5C2 9 2 7.5 2 7.5H5.5Z" stroke="#333333" stroke-width="2" stroke-miterlimit="2" stroke-linecap="round" stroke-linejoin="round"/>
<path d="M5.5 7V11" stroke="#333333" stroke-width="2" stroke-linecap="round"/>
</svg>
