<svg width="24" height="24" viewBox="0 0 24 24" fill="none" xmlns="http://www.w3.org/2000/svg">
<g clip-path="url(#clip0_2_21715)">
<path d="M24 0H0V24H24V0Z" fill="white" fill-opacity="0.01"/>
<path d="M9.518 22.0001C9.02805 20.4023 8.2889 19.2112 7.30055 18.4267C5.818 17.2499 3.46242 17.9813 2.59229 16.7675C1.72217 15.5537 3.20191 13.3216 3.72117 12.0046C4.24043 10.6876 1.7309 10.2219 2.02388 9.84795C2.21921 9.5987 3.48736 8.8794 5.82835 7.6901C6.4935 3.89678 8.9504 2.00012 13.1991 2.00012C19.5721 2.00012 22 7.4031 22 10.8396C22 14.2761 19.0601 17.9782 14.8721 18.7765C14.4976 19.3219 15.0377 20.3964 16.4924 22.0001" stroke="#333333" stroke-width="2" stroke-linecap="round" stroke-linejoin="round"/>
<path fill-rule="evenodd" clip-rule="evenodd" d="M9.74984 7.25005C9.42319 8.51715 9.52039 9.40695 10.0414 9.9193C10.5625 10.4317 11.4505 10.7668 12.7056 10.9245C12.4208 12.5589 12.768 13.3256 13.7471 13.2247C14.7262 13.1238 15.3144 12.717 15.5119 12.0042C17.0421 12.4343 17.8714 12.0744 17.9998 10.9245C18.1926 9.1997 17.2625 7.8238 16.8812 7.8238C16.4998 7.8238 15.5119 7.7774 15.5119 7.25005C15.5119 6.72265 14.3579 6.4247 13.3164 6.4247C12.2749 6.4247 12.9017 5.72265 11.4716 6.00005C10.5181 6.18495 9.94424 6.6016 9.74984 7.25005Z" stroke="#333333" stroke-width="2" stroke-linejoin="round"/>
<path d="M15.2501 12.75C14.7417 13.0655 14.0439 13.5901 13.7501 14C13.0157 15.0247 12.4199 15.6487 12.2896 16.3041" stroke="#333333" stroke-width="2" stroke-linecap="round"/>
</g>
<defs>
<clipPath id="clip0_2_21715">
<rect width="24" height="24" fill="white"/>
</clipPath>
</defs>
</svg>
