<svg width="24" height="24" viewBox="0 0 24 24" fill="none" xmlns="http://www.w3.org/2000/svg">
<g clip-path="url(#clip0_2_21314)">
<path d="M24 0H0V24H24V0Z" fill="white" fill-opacity="0.01"/>
<path d="M12 20C16.4183 20 20 16.4183 20 12C20 7.58172 16.4183 4 12 4C7.58172 4 4 7.58172 4 12C4 16.4183 7.58172 20 12 20Z" stroke="#333333" stroke-width="2" stroke-linecap="round" stroke-linejoin="round"/>
<path d="M12 14C13.1046 14 14 13.1046 14 12C14 10.8954 13.1046 10 12 10C10.8954 10 10 10.8954 10 12C10 13.1046 10.8954 14 12 14Z" stroke="#333333" stroke-width="2" stroke-linecap="round" stroke-linejoin="round"/>
<path d="M12 2C13.3132 2 14.6136 2.25866 15.8268 2.7612C17.0401 3.26375 18.1425 4.00035 19.0711 4.92894C19.9997 5.8575 20.7363 6.9599 21.2388 8.17315C21.7414 9.3864 22 10.6868 22 12H18.0032C18.0032 11.2117 17.8479 10.431 17.5462 9.70265C17.2445 8.97435 16.8023 8.31255 16.2449 7.7551C15.6874 7.19765 15.0256 6.75545 14.2973 6.45375C13.569 6.15205 12.7883 5.9968 12 5.9968V2Z" stroke="#333333" stroke-width="2" stroke-linecap="round" stroke-linejoin="round"/>
</g>
<defs>
<clipPath id="clip0_2_21314">
<rect width="24" height="24" fill="white"/>
</clipPath>
</defs>
</svg>
