<svg width="24" height="24" viewBox="0 0 24 24" fill="none" xmlns="http://www.w3.org/2000/svg">
<g clip-path="url(#clip0_2_21457)">
<path d="M24 0H0V24H24V0Z" fill="white" fill-opacity="0.01"/>
<path fill-rule="evenodd" clip-rule="evenodd" d="M18 6C19.1046 6 20 5.10455 20 4C20 2.89543 19.1046 2 18 2C16.8954 2 16 2.89543 16 4C16 5.10455 16.8954 6 18 6Z" stroke="#333333" stroke-width="2" stroke-linecap="round" stroke-linejoin="round"/>
<path fill-rule="evenodd" clip-rule="evenodd" d="M7 6C8.10455 6 9 5.10455 9 4C9 2.89543 8.10455 2 7 2C5.89545 2 5 2.89543 5 4C5 5.10455 5.89545 6 7 6Z" stroke="#333333" stroke-width="2" stroke-linecap="round" stroke-linejoin="round"/>
<path fill-rule="evenodd" clip-rule="evenodd" d="M7 22C8.10455 22 9 21.1046 9 20C9 18.8954 8.10455 18 7 18C5.89545 18 5 18.8954 5 20C5 21.1046 5.89545 22 7 22Z" stroke="#333333" stroke-width="2" stroke-linecap="round" stroke-linejoin="round"/>
<path d="M7 6V18V16.5C7 12.5 18 12 18 8V6" stroke="#333333" stroke-width="2" stroke-linecap="round" stroke-linejoin="round"/>
</g>
<defs>
<clipPath id="clip0_2_21457">
<rect width="24" height="24" fill="white"/>
</clipPath>
</defs>
</svg>
