<svg width="24" height="24" viewBox="0 0 24 24" fill="none" xmlns="http://www.w3.org/2000/svg">
<g clip-path="url(#clip0_2_21825)">
<path d="M24 0H0V24H24V0Z" fill="white" fill-opacity="0.01"/>
<path d="M20 14C21.1046 14 22 13.1046 22 12C22 10.8954 21.1046 10 20 10C18.8954 10 18 10.8954 18 12C18 13.1046 18.8954 14 20 14Z" stroke="#333333" stroke-width="2" stroke-linejoin="round"/>
<path d="M4.5 6C5.60457 6 6.5 5.10457 6.5 4C6.5 2.89543 5.60457 2 4.5 2C3.39543 2 2.5 2.89543 2.5 4C2.5 5.10457 3.39543 6 4.5 6Z" stroke="#333333" stroke-width="2" stroke-linejoin="round"/>
<path d="M4.5 22C5.60457 22 6.5 21.1046 6.5 20C6.5 18.8954 5.60457 18 4.5 18C3.39543 18 2.5 18.8954 2.5 20C2.5 21.1046 3.39543 22 4.5 22Z" stroke="#333333" stroke-width="2" stroke-linejoin="round"/>
<path d="M4.5 6V18V12.0042H18" stroke="#333333" stroke-width="2" stroke-linecap="round" stroke-linejoin="round"/>
</g>
<defs>
<clipPath id="clip0_2_21825">
<rect width="24" height="24" fill="white"/>
</clipPath>
</defs>
</svg>
