<svg width="24" height="24" viewBox="0 0 24 24" fill="none" xmlns="http://www.w3.org/2000/svg">
<path d="M3.5 13.5C3.5 11.2908 5.29085 9.5 7.5 9.5H16.5C18.7092 9.5 20.5 11.2908 20.5 13.5V17.5C20.5 18.6046 19.6046 19.5 18.5 19.5H5.5C4.39543 19.5 3.5 18.6046 3.5 17.5V13.5Z" stroke="#333333" stroke-width="2" stroke-linecap="round" stroke-linejoin="round"/>
<path d="M17.0001 9.5V6C19.5 6 19.5 2.5 17.0001 2.5C14.5002 2.5 9.5002 2.5 7.0001 2.5C4.50003 2.5 4.4999 6 7.0001 6V9.5" stroke="#333333" stroke-width="2" stroke-linecap="round" stroke-linejoin="round"/>
<path d="M11 5.5L10 6.5" stroke="#333333" stroke-width="2" stroke-linecap="round" stroke-linejoin="round"/>
<path d="M14 5.5L13 6.5" stroke="#333333" stroke-width="2" stroke-linecap="round" stroke-linejoin="round"/>
<path d="M12 16.5C13.1046 16.5 14 15.6046 14 14.5C14 13.3954 13.1046 12.5 12 12.5C10.8954 12.5 10 13.3954 10 14.5C10 15.6046 10.8954 16.5 12 16.5Z" stroke="#333333" stroke-width="2"/>
<path d="M7.5 19.5V21.5" stroke="#333333" stroke-width="2" stroke-linecap="round" stroke-linejoin="round"/>
<path d="M16.5 19.5V21.5" stroke="#333333" stroke-width="2" stroke-linecap="round" stroke-linejoin="round"/>
</svg>
