<svg width="24" height="24" viewBox="0 0 24 24" fill="none" xmlns="http://www.w3.org/2000/svg">
<path d="M4.5 13C4.5 13 8.5 7 11 3.99999C12.5654 2.12156 15.5 1.375 18 2.5C20.5 3.625 21.5 6 20.5 8C19.5 10 15.5 17.5 15.5 17.5" stroke="#333333" stroke-width="2" stroke-linecap="round" stroke-linejoin="round"/>
<path d="M15.5 16.5941C15.5 18.17 14.622 19.5787 13.243 20.5131C12.1601 21.2469 10.7683 20.9335 9.25 20.9335C7.64925 20.9335 6.1891 21.1977 5.08335 20.3911C3.80469 19.4583 3 18.1028 3 16.5941C3 13.4063 5.7982 11.5 9.25 11.5C12.7018 11.5 15.5 13.7807 15.5 16.5941Z" stroke="#333333" stroke-width="2" stroke-linecap="round" stroke-linejoin="round"/>
<path d="M11.5 16.6087C11.5 17.1063 11.184 17.5512 10.6875 17.8463C10.2977 18.078 9.7966 17.979 9.25 17.979C8.67375 17.979 8.14805 18.0624 7.75 17.8077C7.2897 17.5131 7 17.0851 7 16.6087C7 15.602 8.00735 15 9.25 15C10.4927 15 11.5 15.7202 11.5 16.6087Z" stroke="#333333" stroke-width="2" stroke-linecap="round" stroke-linejoin="round"/>
<path d="M7.5 9.00005C7.5 9.00005 9.2501 8.50005 11.5001 9.00005" stroke="#333333" stroke-width="2" stroke-linecap="round" stroke-linejoin="round"/>
<path d="M9.99976 5.49996C9.99976 5.49996 11.7499 4.74996 13.4998 5.49996" stroke="#333333" stroke-width="2" stroke-linecap="round" stroke-linejoin="round"/>
</svg>
