<svg width="24" height="24" viewBox="0 0 24 24" fill="none" xmlns="http://www.w3.org/2000/svg">
<path d="M2 16.0417C2 15.4406 2.133 14.8442 2.48562 14.3574C3.5227 12.9257 6.33505 10 12 10C17.6649 10 20.4773 12.9257 21.5144 14.3574C21.867 14.8442 22 15.4406 22 16.0417C22 18.2278 20.2278 20 18.0417 20H5.95835C3.77221 20 2 18.2278 2 16.0417Z" stroke="#333333" stroke-width="2" stroke-linecap="round" stroke-linejoin="round"/>
<path d="M6 4.5V6.5" stroke="#333333" stroke-width="2" stroke-linecap="round"/>
<path d="M7 11V13" stroke="#333333" stroke-width="2" stroke-linecap="round"/>
<path d="M18 4.5V6.5" stroke="#333333" stroke-width="2" stroke-linecap="round"/>
<path d="M17 11V13" stroke="#333333" stroke-width="2" stroke-linecap="round"/>
<path d="M12 3.5V6.5" stroke="#333333" stroke-width="2" stroke-linecap="round"/>
<path d="M12 10V14" stroke="#333333" stroke-width="2" stroke-linecap="round"/>
<path d="M20 12.7217C18.4529 11.3893 15.9037 10 12 10C8.09625 10 5.5471 11.3893 4 12.7217" stroke="#333333" stroke-width="2" stroke-linecap="round"/>
</svg>
