<svg width="24" height="24" viewBox="0 0 24 24" fill="none" xmlns="http://www.w3.org/2000/svg">
<g clip-path="url(#clip0_2_21484)">
<path d="M24 0H0V24H24V0Z" fill="white" fill-opacity="0.01"/>
<path d="M12.0103 17.6768C15.0478 17.6768 17.5103 15.2143 17.5103 12.1768C17.5103 9.13921 15.0478 6.67676 12.0103 6.67676C8.9727 6.67676 6.51025 9.13921 6.51025 12.1768C6.51025 15.2143 8.9727 17.6768 12.0103 17.6768Z" stroke="#333333" stroke-width="2" stroke-linejoin="round"/>
<path d="M19.4802 4.50488L18.25 5.7421" stroke="#333333" stroke-width="2" stroke-linecap="round"/>
<path d="M5.5337 18.3726L4.51025 19.4019" stroke="#333333" stroke-width="2" stroke-linecap="round"/>
<path d="M12 20.6766V22.1766" stroke="#333333" stroke-width="2" stroke-linecap="round"/>
<path d="M21.9999 11.6768H19.9999" stroke="#333333" stroke-width="2" stroke-linecap="round"/>
<path d="M18.7662 18.1681L19.9999 19.4018" stroke="#333333" stroke-width="2" stroke-linecap="round"/>
<path fill-rule="evenodd" clip-rule="evenodd" d="M12.0103 8.67676C10.0773 8.67676 8.51025 10.2438 8.51025 12.1768C8.51025 14.1098 10.0773 15.6768 12.0103 15.6768" fill="#333333"/>
<path d="M2.00012 12.1768H4.00012" stroke="#333333" stroke-width="2" stroke-linecap="round"/>
<path d="M5.02222 4.50488L6.04862 5.53126" stroke="#333333" stroke-width="2" stroke-linecap="round"/>
<path d="M12 1.67688V3.67688" stroke="#333333" stroke-width="2" stroke-linecap="round"/>
</g>
<defs>
<clipPath id="clip0_2_21484">
<rect width="24" height="24" fill="white"/>
</clipPath>
</defs>
</svg>
