<svg width="24" height="24" viewBox="0 0 24 24" fill="none" xmlns="http://www.w3.org/2000/svg">
<path d="M12.0002 14.3146C13.2554 14.3146 14.273 13.3002 14.273 12.0489C14.273 10.7977 13.2554 9.78333 12.0002 9.78333C10.745 9.78333 9.72754 10.7977 9.72754 12.0489C9.72754 13.3002 10.745 14.3146 12.0002 14.3146Z" stroke="#333333" stroke-width="2" stroke-linejoin="round"/>
<path d="M7.99999 7.5C5.33334 9.9853 5.33334 14.0147 7.99999 16.5" stroke="#333333" stroke-width="2" stroke-linecap="round" stroke-linejoin="round"/>
<path d="M16 16.5C18.6667 14.0147 18.6667 9.9853 16 7.5" stroke="#333333" stroke-width="2" stroke-linecap="round" stroke-linejoin="round"/>
<path d="M5 5C1 8.866 1 15.134 5 19" stroke="#333333" stroke-width="2" stroke-linecap="round" stroke-linejoin="round"/>
<path d="M19.0713 19.0979C22.9765 15.2049 22.9765 8.89305 19.0713 5" stroke="#333333" stroke-width="2" stroke-linecap="round" stroke-linejoin="round"/>
</svg>
