<svg width="24" height="24" viewBox="0 0 24 24" fill="none" xmlns="http://www.w3.org/2000/svg">
<path d="M21 9V20C21 20.5523 20.5523 21 20 21H4C3.44771 21 3 20.5523 3 20V9" stroke="#333333" stroke-width="2" stroke-linecap="round" stroke-linejoin="round"/>
<path d="M3 4C3 3.44771 3.44771 3 4 3H20C20.5523 3 21 3.44771 21 4V9H3V4Z" stroke="#333333" stroke-width="2" stroke-linejoin="round"/>
<path fill-rule="evenodd" clip-rule="evenodd" d="M6 7C6.5523 7 7 6.5523 7 6C7 5.4477 6.5523 5 6 5C5.4477 5 5 5.4477 5 6C5 6.5523 5.4477 7 6 7Z" fill="#333333"/>
<path fill-rule="evenodd" clip-rule="evenodd" d="M9 7C9.5523 7 10 6.5523 10 6C10 5.4477 9.5523 5 9 5C8.4477 5 8 5.4477 8 6C8 6.5523 8.4477 7 9 7Z" fill="#333333"/>
<path fill-rule="evenodd" clip-rule="evenodd" d="M12 7C12.5523 7 13 6.5523 13 6C13 5.4477 12.5523 5 12 5C11.4477 5 11 5.4477 11 6C11 6.5523 11.4477 7 12 7Z" fill="#333333"/>
</svg>
