<svg width="24" height="24" viewBox="0 0 24 24" fill="none" xmlns="http://www.w3.org/2000/svg">
<path d="M12 7.5C14.4853 7.5 16.5 9.5147 16.5 12C16.5 14.4853 14.4853 16.5 12 16.5C9.5147 16.5 7.5 14.4853 7.5 12C7.5 9.5147 9.5147 7.5 12 7.5ZM12 7.5H20.9327H12ZM8.5 21.3704L14.8219 15.5L8.5 21.3704ZM3 7.63585L8.43755 14.776L3 7.63585ZM12 22C17.5229 22 22 17.5229 22 12C22 6.47715 17.5229 2 12 2C6.47715 2 2 6.47715 2 12C2 17.5229 6.47715 22 12 22Z" stroke="#333333" stroke-width="2" stroke-linecap="round" stroke-linejoin="round"/>
</svg>
