<svg width="24" height="24" viewBox="0 0 24 24" fill="none" xmlns="http://www.w3.org/2000/svg">
<g clip-path="url(#clip0_2_20099)">
<path d="M24 0H0V24H24V0Z" fill="white" fill-opacity="0.01"/>
<path d="M12 22C17.5229 22 22 17.5229 22 12C22 6.47715 17.5229 2 12 2C6.47715 2 2 6.47715 2 12C2 17.5229 6.47715 22 12 22Z" stroke="#333333" stroke-width="2" stroke-linejoin="round"/>
<path d="M7.5 16.5L9.75 9.75L16.5 7.5L14.25 14.25L7.5 16.5Z" stroke="#333333" stroke-width="2" stroke-linejoin="round"/>
<path fill-rule="evenodd" clip-rule="evenodd" d="M12 13C12.5523 13 13 12.5523 13 12C13 11.4477 12.5523 11 12 11C11.4477 11 11 11.4477 11 12C11 12.5523 11.4477 13 12 13Z" fill="#333333"/>
</g>
<defs>
<clipPath id="clip0_2_20099">
<rect width="24" height="24" fill="white"/>
</clipPath>
</defs>
</svg>
