<svg width="24" height="24" viewBox="0 0 24 24" fill="none" xmlns="http://www.w3.org/2000/svg">
<g clip-path="url(#clip0_2_21305)">
<path d="M24 0H0V24H24V0Z" fill="white" fill-opacity="0.01"/>
<path d="M12 21C18 21 19 15.7662 19 14C19 12.4189 19 10.0856 19 7H5C5 8.72115 5 11.0545 5 14C5 15.7253 6 21 12 21Z" stroke="#333333" stroke-width="2" stroke-linejoin="round"/>
<path d="M2 4L5 7" stroke="#333333" stroke-width="2" stroke-linecap="round" stroke-linejoin="round"/>
<path d="M22 4L19 7" stroke="#333333" stroke-width="2" stroke-linecap="round" stroke-linejoin="round"/>
<path d="M2 13.5H5" stroke="#333333" stroke-width="2" stroke-linecap="round" stroke-linejoin="round"/>
<path d="M22 13.5H19" stroke="#333333" stroke-width="2" stroke-linecap="round" stroke-linejoin="round"/>
<path d="M3.5 22L6.5 19" stroke="#333333" stroke-width="2" stroke-linecap="round" stroke-linejoin="round"/>
<path d="M20.5 22L17.5 19" stroke="#333333" stroke-width="2" stroke-linecap="round" stroke-linejoin="round"/>
<path d="M12 21V7" stroke="#333333" stroke-width="2" stroke-linecap="round" stroke-linejoin="round"/>
<path d="M7.46021 19.5205C8.5012 20.3916 9.96222 21 12 21C14.0556 21 15.5243 20.3857 16.567 19.507" stroke="#333333" stroke-width="2" stroke-linecap="round" stroke-linejoin="round"/>
<path d="M16 6.16667C16 3.86548 14.2091 2 12 2C9.79086 2 8 3.86548 8 6.16667V7H16V6.16667Z" stroke="#333333" stroke-width="2" stroke-linejoin="round"/>
</g>
<defs>
<clipPath id="clip0_2_21305">
<rect width="24" height="24" fill="white"/>
</clipPath>
</defs>
</svg>
