<svg width="24" height="24" viewBox="0 0 24 24" fill="none" xmlns="http://www.w3.org/2000/svg">
<g clip-path="url(#clip0_2_20997)">
<path d="M24 0H0V24H24V0Z" fill="white" fill-opacity="0.01"/>
<path d="M17.5 13.3069L7.57315 3.65691C6.9934 3.09336 6.0666 3.10647 5.5031 3.68618C5.4826 3.70723 5.4628 3.72888 5.44365 3.75111C4.87218 4.41447 4.9114 5.40693 5.53345 6.02308L10.5455 10.9881" stroke="#333333" stroke-width="2" stroke-linecap="round"/>
<path d="M10.5454 10.988L5.08865 5.57733C4.44176 4.93591 3.41005 4.90081 2.72107 5.49678C2.08777 6.04458 2.01847 7.00208 2.56628 7.63538C2.58705 7.65938 2.60857 7.68273 2.63082 7.70543L8.12765 13.3068" stroke="#333333" stroke-width="2" stroke-linecap="round" stroke-linejoin="round"/>
<path d="M8.12765 13.3068L5 10.25C4.36883 9.60513 3.33658 9.58718 2.68341 10.2098C2.03722 10.8257 2.01269 11.8488 2.6286 12.495C2.63144 12.498 2.63428 12.5009 2.63714 12.5039C7.25195 17.2721 9.647 19.5242 10.5455 20.2767C12 21.4948 14.8675 22 16.3652 21C17.8629 20 19.2166 18.5772 19.8591 17.1643C20.2416 16.3232 20.9846 13.7297 22.0879 9.38393C22.3125 8.49928 21.7774 7.60003 20.8928 7.37543C20.8813 7.37253 20.8698 7.36973 20.8583 7.36708C19.9417 7.15523 19.0215 7.70578 18.7749 8.61363L17.5 13.3068" stroke="#333333" stroke-width="2" stroke-linecap="round"/>
<path d="M15.858 6.33293C15.502 5.80123 15.0952 5.30648 14.6444 4.85569C14.1936 4.40489 13.6988 3.99803 13.1671 3.64209C12.9026 3.46498 12.6289 3.30048 12.3469 3.14945C12.0665 2.99929 11.778 2.86244 11.4821 2.73975" stroke="#333333" stroke-width="2" stroke-linecap="round"/>
<path d="M2.59705 16.8882C2.92468 17.4377 3.30509 17.9531 3.73167 18.4269C4.15826 18.9006 4.63102 19.3328 5.14336 19.7161C5.39826 19.9068 5.66301 20.0854 5.93671 20.251C6.20881 20.4156 6.48981 20.5674 6.77886 20.7054" stroke="#333333" stroke-width="2" stroke-linecap="round"/>
</g>
<defs>
<clipPath id="clip0_2_20997">
<rect width="24" height="24" fill="white"/>
</clipPath>
</defs>
</svg>
