<svg width="24" height="24" viewBox="0 0 24 24" fill="none" xmlns="http://www.w3.org/2000/svg">
<path d="M6.6398 21C6.24975 21 5.8953 20.7732 5.7318 20.4191L3.19336 14.9191C3.07064 14.6532 3.07064 14.3468 3.19336 14.0809L5.7318 8.58095C5.8953 8.2268 6.24975 8 6.6398 8H17.3601C17.7501 8 18.1046 8.2268 18.2681 8.58095L20.8065 14.0809C20.9292 14.3468 20.9292 14.6532 20.8065 14.9191L18.2681 20.4191C18.1046 20.7732 17.7501 21 17.3601 21H6.6398Z" stroke="#333333" stroke-width="2" stroke-linejoin="round"/>
<path d="M4.5 11.5H9V16.5H4" stroke="#333333" stroke-width="2" stroke-linecap="round" stroke-linejoin="round"/>
<path d="M19.5 11.5H12.5V16H20" stroke="#333333" stroke-width="2" stroke-linecap="round" stroke-linejoin="round"/>
<path d="M18.9997 2C18.9997 2 14.2501 3.75 10.2821 4.19696C6.31416 4.64392 4 4.5 4 4.5" stroke="#333333" stroke-width="2" stroke-linecap="round" stroke-linejoin="round"/>
<path d="M13 4V8L8.5 4.5" stroke="#333333" stroke-width="2" stroke-linecap="round" stroke-linejoin="round"/>
<path d="M5.30765 9.5L3.19336 14.0809C3.07064 14.3468 3.07064 14.6532 3.19336 14.9191L4.49995 17.75" stroke="#333333" stroke-width="2" stroke-linecap="round" stroke-linejoin="round"/>
<path d="M18.6924 9.5L20.8066 14.0809C20.9294 14.3468 20.9294 14.6532 20.8066 14.9191L19.5001 17.75" stroke="#333333" stroke-width="2" stroke-linecap="round" stroke-linejoin="round"/>
</svg>
