<svg width="24" height="24" viewBox="0 0 24 24" fill="none" xmlns="http://www.w3.org/2000/svg">
<path d="M3 12.5L5.58555 20.3141C5.72105 20.7235 6.1037 21 6.53495 21H17.465C17.8963 21 18.2789 20.7235 18.4144 20.3141L21 12.5" stroke="#333333" stroke-width="2"/>
<path d="M5.70349 12.5614H3.1582C3.0708 12.5614 2.99976 12.4902 3.00175 12.4028C3.0819 8.8911 5.81699 5.9429 9.49994 5H14.4999C18.0386 6.018 20.9116 8.9789 20.9979 12.4029C21.0001 12.4902 20.9291 12.5614 20.8417 12.5614H18.2964C17.1383 12.5614 16.0196 12.9818 15.1481 13.7445C13.3458 15.322 10.6541 15.322 8.85174 13.7445C7.98029 12.9818 6.86159 12.5614 5.70349 12.5614Z" stroke="#333333" stroke-width="2" stroke-linecap="round" stroke-linejoin="round"/>
<path d="M9.55 5C9.5172 4.83844 9.5 4.67123 9.5 4.5C9.5 3.11929 10.6193 2 12 2C13.3807 2 14.5 3.11929 14.5 4.5C14.5 4.67123 14.4828 4.83844 14.45 5" stroke="#333333" stroke-width="2" stroke-linecap="round" stroke-linejoin="round"/>
</svg>
