<svg width="24" height="24" viewBox="0 0 24 24" fill="none" xmlns="http://www.w3.org/2000/svg">
<path d="M13.5 7L4.5 10.95H19.5L17 7.5" stroke="#333333" stroke-width="2" stroke-linecap="round" stroke-linejoin="round"/>
<path d="M15.5 8.5C16.6046 8.5 17.5 7.60457 17.5 6.5C17.5 5.39543 16.6046 4.5 15.5 4.5C14.3954 4.5 13.5 5.39543 13.5 6.5C13.5 7.60457 14.3954 8.5 15.5 8.5Z" fill="#333333" stroke="#333333" stroke-width="2"/>
<path d="M16.5 4.5L17.5 2" stroke="#333333" stroke-width="2" stroke-linecap="round"/>
<path d="M4.75 13.4785C4.44918 13.6289 4.16888 13.7886 3.91122 13.9567C2.70918 14.7406 2 15.706 2 16.7501C2 19.3735 6.47715 21.5001 12 21.5001C17.5229 21.5001 22 19.3735 22 16.7501C22 15.6806 21.2558 14.6936 20 13.8997" stroke="#333333" stroke-width="2"/>
<path d="M19.5 11H4.5V17H19.5V11Z" stroke="#333333" stroke-width="2" stroke-linecap="round" stroke-linejoin="round"/>
<path d="M4.5 11H20" stroke="#333333" stroke-width="2"/>
</svg>
