<svg width="24" height="24" viewBox="0 0 24 24" fill="none" xmlns="http://www.w3.org/2000/svg">
<path d="M12 6V8.5" stroke="#333333" stroke-width="2" stroke-linecap="round" stroke-linejoin="round"/>
<path d="M4 13.5V20C4 20.5523 4.44771 21 5 21H19C19.5523 21 20 20.5523 20 20V13.5" stroke="#333333" stroke-width="2" stroke-linecap="round" stroke-linejoin="round"/>
<path d="M2 10.9846C2 9.61235 3.11237 8.5 4.48455 8.5H19.5154C20.8876 8.5 22 9.61235 22 10.9846V11.1241C22 12.0558 21.4328 12.8935 20.5678 13.2395C20.1547 13.4048 19.6899 13.3806 19.2962 13.1734L19.125 13.0834C18.6294 12.8225 18.0372 12.8225 17.5417 13.0834C17.0461 13.3442 16.4539 13.3442 15.9584 13.0834C15.4628 12.8225 14.8706 12.8225 14.375 13.0834C13.8794 13.3442 13.2872 13.3442 12.7916 13.0834C12.2961 12.8225 11.7039 12.8225 11.2084 13.0834C10.7128 13.3442 10.1206 13.3442 9.625 13.0834C9.12945 12.8225 8.5372 12.8225 8.04165 13.0834C7.5461 13.3442 6.9539 13.3442 6.45835 13.0834C5.9628 12.8225 5.37055 12.8225 4.875 13.0834L4.70386 13.1734C4.31014 13.3806 3.84537 13.4048 3.43227 13.2395C2.56723 12.8935 2 12.0558 2 11.1241V10.9846Z" stroke="#333333" stroke-width="2" stroke-linecap="round" stroke-linejoin="round"/>
<path d="M13.5 4C13.1 2 12 2 12 2C12 2 10.9004 2 10.5004 4C10.0004 6.5 14 6.5 13.5 4Z" stroke="#333333" stroke-width="2"/>
</svg>
