<svg width="24" height="24" viewBox="0 0 24 24" fill="none" xmlns="http://www.w3.org/2000/svg">
<path d="M20 8.95L15.5288 4L4.5 8.95V15H20V8.95Z" stroke="#333333" stroke-width="2" stroke-linecap="round" stroke-linejoin="round"/>
<path d="M4.5 9H13.193C13.2244 9 13.25 9.02555 13.25 9.057V10.8125C13.25 11.6064 13.8936 12.25 14.6875 12.25C15.4814 12.25 16.125 11.6064 16.125 10.8125V9.057C16.125 9.02555 16.1505 9 16.182 9H20" stroke="#333333" stroke-width="2" stroke-linecap="round" stroke-linejoin="round"/>
<path d="M4.75 11.9785C4.44918 12.1289 4.16888 12.2886 3.91122 12.4567C2.70918 13.2406 2 14.206 2 15.2501C2 17.8735 6.47715 20.0001 12 20.0001C17.5229 20.0001 22 17.8735 22 15.2501C22 14.1806 21.2558 13.1936 20 12.3997" stroke="#333333" stroke-width="2"/>
</svg>
