<svg width="24" height="24" viewBox="0 0 24 24" fill="none" xmlns="http://www.w3.org/2000/svg">
<path d="M4.5 13.5H19.5L17.1562 22H6.84375L4.5 13.5Z" stroke="#333333" stroke-width="2" stroke-linecap="round" stroke-linejoin="round"/>
<path d="M19.5 13.5H4.5C4.5 10.75 7.25 9.5 7.25 9.5C7.25 8.5 8.25 5.5 12 5.5C15.75 5.5 16.75 8.5 16.75 9.5C16.75 9.5 19.5 10.75 19.5 13.5Z" stroke="#333333" stroke-width="2" stroke-linecap="round" stroke-linejoin="round"/>
<path d="M3 13.5H21" stroke="#333333" stroke-width="2" stroke-linecap="round"/>
<path d="M14 6C14 4.89543 13.1046 4 12 4C10.8954 4 10 4.89543 10 6" stroke="#333333" stroke-width="2"/>
<path d="M12 4L14 2" stroke="#333333" stroke-width="2" stroke-linecap="round"/>
<path d="M10 13.5V22" stroke="#333333" stroke-width="2"/>
<path d="M14 13.5V22" stroke="#333333" stroke-width="2"/>
</svg>
