<svg width="24" height="24" viewBox="0 0 24 24" fill="none" xmlns="http://www.w3.org/2000/svg">
<g clip-path="url(#clip0_2_21437)">
<path d="M24 0H0V24H24V0Z" fill="white" fill-opacity="0.01"/>
<path d="M24 0H0V24H24V0Z" fill="white" fill-opacity="0.01"/>
<path d="M20.0002 2H4.00033C3.44805 2 3.00033 2.4477 3.00032 2.99998L3 21C2.99999 21.5523 3.44771 22 4 22H20.0002C20.5525 22 21.0002 21.5523 21.0002 21V3C21.0002 2.44771 20.5525 2 20.0002 2Z" stroke="#333333" stroke-width="2" stroke-linejoin="round"/>
<path d="M17.5 5H6.5V9.5H17.5V5Z" stroke="#333333" stroke-width="2" stroke-linejoin="round"/>
<path d="M6 14L9.5 17.5" stroke="#333333" stroke-width="2" stroke-linecap="round" stroke-linejoin="round"/>
<path d="M9.5 14L6 17.5" stroke="#333333" stroke-width="2" stroke-linecap="round" stroke-linejoin="round"/>
<path d="M14 17.5H18" stroke="#333333" stroke-width="2" stroke-linecap="round" stroke-linejoin="round"/>
<path d="M14 14.5H18" stroke="#333333" stroke-width="2" stroke-linecap="round" stroke-linejoin="round"/>
</g>
<defs>
<clipPath id="clip0_2_21437">
<rect width="24" height="24" fill="white"/>
</clipPath>
</defs>
</svg>
