<svg width="24" height="24" viewBox="0 0 24 24" fill="none" xmlns="http://www.w3.org/2000/svg">
<path d="M12 18.5C16.4183 18.5 20 14.9183 20 10.5C20 6.08172 16.4183 2.5 12 2.5C7.58172 2.5 4 6.08172 4 10.5C4 14.9183 7.58172 18.5 12 18.5Z" stroke="#333333" stroke-width="2"/>
<path d="M12 14C13.933 14 15.5 12.433 15.5 10.5C15.5 8.567 13.933 7 12 7C10.067 7 8.5 8.567 8.5 10.5C8.5 12.433 10.067 14 12 14Z" stroke="#333333" stroke-width="2"/>
<path d="M8 21.5H16" stroke="#333333" stroke-width="2" stroke-linecap="round" stroke-linejoin="round"/>
<path d="M12 18.5V21.5" stroke="#333333" stroke-width="2" stroke-linecap="round" stroke-linejoin="round"/>
</svg>
