<svg width="24" height="24" viewBox="0 0 24 24" fill="none" xmlns="http://www.w3.org/2000/svg">
<g clip-path="url(#clip0_2_21233)">
<path d="M24 0H0V24H24V0Z" fill="white" fill-opacity="0.01"/>
<path fill-rule="evenodd" clip-rule="evenodd" d="M6.75 16C7.44035 16 8 15.4404 8 14.75C8 14.0597 7.44035 13.5 6.75 13.5C6.05965 13.5 5.5 14.0597 5.5 14.75C5.5 15.4404 6.05965 16 6.75 16Z" fill="#333333"/>
<path fill-rule="evenodd" clip-rule="evenodd" d="M17.25 16C17.9404 16 18.5 15.4404 18.5 14.75C18.5 14.0597 17.9404 13.5 17.25 13.5C16.5597 13.5 16 14.0597 16 14.75C16 15.4404 16.5597 16 17.25 16Z" fill="#333333"/>
<path d="M3.5 18.5C2.67158 18.5 2 17.8285 2 17V12.3548C2 11.2181 2.64243 10.179 3.6593 9.6711L4.00027 9.50075L5.15525 4.54597C5.3663 3.64058 6.17335 3 7.103 3H16.9471C17.8837 3 18.6949 3.64999 18.899 4.56408L20.0016 9.50075L20.3417 9.6708C21.358 10.179 22 11.2177 22 12.354V17C22 17.8285 21.3285 18.5 20.5 18.5H19.5016V19C19.5016 20.1046 18.6053 21 17.5008 21C16.3962 21 15.5 20.1046 15.5 19V18.5H8.5V19.0002C8.5 20.1047 7.60465 21 6.50015 21C5.39565 21 4.50027 20.1047 4.50027 19.0002V18.5H3.5Z" stroke="#333333" stroke-width="2" stroke-linejoin="round"/>
<path d="M7 11H17L16.174 7.28305C16.0723 6.82555 15.6666 6.5 15.1979 6.5H8.80215C8.33345 6.5 7.92765 6.82555 7.826 7.28305L7 11Z" stroke="#333333" stroke-width="2" stroke-linejoin="round"/>
</g>
<defs>
<clipPath id="clip0_2_21233">
<rect width="24" height="24" fill="white"/>
</clipPath>
</defs>
</svg>
