<svg width="24" height="24" viewBox="0 0 24 24" fill="none" xmlns="http://www.w3.org/2000/svg">
<g clip-path="url(#clip0_2_20962)">
<path d="M24 0H0V24H24V0Z" fill="white" fill-opacity="0.01"/>
<path d="M2.77734 11.597C2.6849 11.4016 2.59897 11.2034 2.52054 11.0028C2.19632 10.1736 2 9.3021 2 8.4C2 5.41765 4.44208 3 7.45455 3C9.3518 3 11.0228 3.95896 12 5.414C12.9772 3.95896 14.6482 3 16.5455 3C19.5579 3 22 5.41765 22 8.4C22 12.2823 18.3637 15.6 16.5455 17.4C15.3334 18.6 13.8182 19.8 12 21C10.1818 19.8 8.66665 18.6 7.45455 17.4C7.2715 17.2188 7.07005 17.0222 6.8557 16.8112" stroke="#333333" stroke-width="2" stroke-linecap="round" stroke-linejoin="round"/>
<path d="M4 14.9867L9.5569 9.51982L12.7891 12.853L17.631 7.90942" stroke="#333333" stroke-width="2" stroke-linecap="round" stroke-linejoin="round"/>
</g>
<defs>
<clipPath id="clip0_2_20962">
<rect width="24" height="24" fill="white"/>
</clipPath>
</defs>
</svg>
