<svg width="24" height="24" viewBox="0 0 24 24" fill="none" xmlns="http://www.w3.org/2000/svg">
<g clip-path="url(#clip0_2_21386)">
<path d="M24 0H0V24H24V0Z" fill="white" fill-opacity="0.01"/>
<path d="M2 5.5C2 4.94771 2.44771 4.5 3 4.5H21C21.5523 4.5 22 4.94771 22 5.5V17.5C22 18.0523 21.5523 18.5 21 18.5H3C2.44771 18.5 2 18.0523 2 17.5V5.5Z" stroke="#333333" stroke-width="2" stroke-linejoin="round"/>
<path d="M14 8.5H10V14.5H14V8.5Z" stroke="#333333" stroke-width="2" stroke-linejoin="round"/>
<path d="M22 8.5H18V14.5H22" stroke="#333333" stroke-width="2" stroke-linecap="round" stroke-linejoin="round"/>
<path d="M2 8.5H6V14.5H2" stroke="#333333" stroke-width="2" stroke-linecap="round" stroke-linejoin="round"/>
<path d="M2 6.5V16.5" stroke="#333333" stroke-width="2" stroke-linecap="round" stroke-linejoin="round"/>
<path d="M22 6.5V16.5" stroke="#333333" stroke-width="2" stroke-linecap="round" stroke-linejoin="round"/>
</g>
<defs>
<clipPath id="clip0_2_21386">
<rect width="24" height="24" fill="white"/>
</clipPath>
</defs>
</svg>
