<svg width="24" height="24" viewBox="0 0 24 24" fill="none" xmlns="http://www.w3.org/2000/svg">
<path d="M19 14H5C3.89543 14 3 14.8954 3 16V19C3 20.1046 3.89543 21 5 21H19C20.1046 21 21 20.1046 21 19V16C21 14.8954 20.1046 14 19 14Z" stroke="#333333" stroke-width="2"/>
<path d="M10 3.5H5C3.89543 3.5 3 4.39543 3 5.5V8.5C3 9.60455 3.89543 10.5 5 10.5H10" stroke="#333333" stroke-width="2" stroke-linecap="round"/>
<path d="M17 11C19.2091 11 21 9.20914 21 7C21 4.79086 19.2091 3 17 3C14.7909 3 13 4.79086 13 7C13 9.20914 14.7909 11 17 11Z" stroke="#333333" stroke-width="2"/>
<path d="M17 8.5C17.8284 8.5 18.5 7.82843 18.5 7C18.5 6.17157 17.8284 5.5 17 5.5C16.1716 5.5 15.5 6.17157 15.5 7C15.5 7.82843 16.1716 8.5 17 8.5Z" fill="#333333"/>
</svg>
