<svg width="24" height="24" viewBox="0 0 24 24" fill="none" xmlns="http://www.w3.org/2000/svg">
<g clip-path="url(#clip0_2_20656)">
<path d="M24 0H0V24H24V0Z" fill="white" fill-opacity="0.01"/>
<path fill-rule="evenodd" clip-rule="evenodd" d="M9.6391 6.07003C10.5905 6.24013 11.4928 6.48183 12.3462 6.79498C10.9412 6.80373 9.53955 7.38913 8.52705 8.55153L8.42785 8.66903C7.0082 10.4032 6.9129 12.8897 8.14195 14.7249L8.1112 14.6688C9.37485 16.9903 11.526 19.0272 13.7495 19.6822C15.54 20.2096 17.2153 20.3495 18.7589 20.0997L18.7724 20.0906C16.9096 21.546 14.6636 22.2765 12.4155 22.2828H12.3574L12.1419 22.28C9.4838 22.2178 6.84415 21.1431 4.85402 19.0572L4.68931 18.8805C2.90442 16.9198 2.00792 14.4225 2 11.9229V11.8565L2.00317 11.6292C2.04733 9.84258 2.5457 8.06543 3.49821 6.49303L3.46385 6.50263C5.7155 5.87973 7.77345 5.73638 9.6391 6.07003ZM14.9082 16.3164C15.6812 15.9485 16.6128 16.1269 17.2243 16.7381L19.7302 19.2428L19.5604 19.4087C19.5467 19.4219 19.5329 19.435 19.5191 19.448C17.8237 19.9044 15.9457 19.8315 13.8844 19.2243C12.3946 18.7855 11.1166 17.7092 9.97545 16.3852L9.95075 16.3716C11.4629 17.1907 13.302 17.1885 14.8125 16.3653L14.9082 16.3164ZM12.3772 1.5L12.5988 1.50239C15.1828 1.55762 17.7507 2.57102 19.7227 4.54303L17.2243 7.04153L17.1462 7.11568C16.5089 7.69058 15.5715 7.82773 14.8125 7.41408L14.6819 7.34543C14.657 7.33278 14.6321 7.32038 14.6071 7.30818C13.1454 6.49028 11.517 5.92098 9.72315 5.60018C7.93805 5.28098 5.99265 5.38108 3.88806 5.89853C4.17617 5.48843 4.49849 5.09508 4.85402 4.72239L5.01725 4.55503C7.04755 2.51842 9.71055 1.5 12.3748 1.5H12.3772Z" fill="#333333"/>
<path fill-rule="evenodd" clip-rule="evenodd" d="M20.7747 8.66269L16.8299 10.9403L16.722 11.0144C16.722 11.0144 16.3842 11.2407 16.4216 11.7193C16.4542 12.1378 16.7524 12.3144 16.7524 12.3144L20.8676 14.6884C20.8676 14.6884 21.19 14.8624 21.5908 14.6457C22.0389 14.4033 22.0083 13.93 22.0083 13.93V9.37519C22.0083 9.37519 22.0088 9.37024 22.0088 9.36139V9.34904C22.0078 9.25639 21.9814 8.93964 21.6839 8.72049C21.5102 8.59254 21.3388 8.55249 21.1923 8.55249C20.9489 8.55274 20.7747 8.66269 20.7747 8.66269Z" fill="#333333"/>
</g>
<defs>
<clipPath id="clip0_2_20656">
<rect width="24" height="24" fill="white"/>
</clipPath>
</defs>
</svg>
