<svg width="24" height="24" viewBox="0 0 24 24" fill="none" xmlns="http://www.w3.org/2000/svg">
<g clip-path="url(#clip0_2_20628)">
<path d="M24 0H0V24H24V0Z" fill="white" fill-opacity="0.01"/>
<path d="M14.2083 10.9234C14.1499 12.2165 14.4788 13.1229 15.195 13.6427C16.2693 14.4224 18.9186 14.5138 21.0171 10.9234C23.1157 7.33301 21.0799 5.38276 20.3067 5.05751C19.7912 4.84068 19.273 4.75939 18.7522 4.81366" stroke="#333333" stroke-width="2" stroke-linecap="round"/>
<path d="M15.5069 14.0029C14.8966 14.7097 14.8295 15.5587 15.3057 16.5499C16.02 18.0367 17.8494 17.7693 18.7638 19.0078C19.3735 19.8334 19.6044 20.6641 19.4566 21.4999" stroke="#333333" stroke-width="2" stroke-linecap="round"/>
<path fill-rule="evenodd" clip-rule="evenodd" d="M4.25217 11.8199C5.38205 13.3306 8.08315 13.5277 11.25 12.3154C12.5322 11.8246 13.8908 11.1027 15.2524 10.1434C16.2788 9.42034 17.0225 8.68229 17.5459 7.96009C19.4316 5.35814 18.4579 2.96123 17.5459 2.2033C16.5578 1.38212 14.661 1.04456 11.25 2.51685C10.6388 2.78064 9.9791 3.10253 9.26725 3.49015C7.8687 4.25169 6.7168 5.11174 5.8311 6.00009C3.74985 8.08754 3.13866 10.3312 4.25217 11.8199Z" stroke="#333333" stroke-width="2"/>
<path d="M8.12256 4.41968C8.34211 5.89459 8.95826 7.18414 9.97096 8.28834C10.9837 9.39254 12.1942 10.0976 14 10.7501" stroke="#333333" stroke-width="2" stroke-linecap="round"/>
<path d="M4.99075 12.5C2.07786 15.3252 1.29276 17.4644 2.63546 18.9175C4.64951 21.097 6.5439 18.3135 9.0833 18.3135C10.7762 18.3135 12.0818 19.3757 13 21.5" stroke="#333333" stroke-width="2" stroke-linecap="round"/>
<path d="M17.5459 7.95996C17.0225 8.68216 16.2788 9.42016 15.2524 10.1433C13.8908 11.1026 12.5323 11.8245 11.25 12.3153" stroke="#333333" stroke-width="2" stroke-linecap="round"/>
<path d="M11.25 2.51685C10.6388 2.78064 9.97906 3.10253 9.26721 3.49014C7.86871 4.25168 6.71675 5.11174 5.83105 6.00009" stroke="#333333" stroke-width="2" stroke-linecap="round"/>
</g>
<defs>
<clipPath id="clip0_2_20628">
<rect width="24" height="24" fill="white"/>
</clipPath>
</defs>
</svg>
