<svg width="24" height="24" viewBox="0 0 24 24" fill="none" xmlns="http://www.w3.org/2000/svg">
<path d="M13 18H3C2.44771 18 2 17.5523 2 17V4C2 3.44771 2.44771 3 3 3H21C21.5523 3 22 3.44771 22 4V17C22 17.5523 21.5523 18 21 18H17" stroke="#333333" stroke-width="2" stroke-linecap="round" stroke-linejoin="round"/>
<path d="M6 7H18" stroke="#333333" stroke-width="2" stroke-linecap="round" stroke-linejoin="round"/>
<path d="M6 10.5H9" stroke="#333333" stroke-width="2" stroke-linecap="round" stroke-linejoin="round"/>
<path d="M6 14H8" stroke="#333333" stroke-width="2" stroke-linecap="round" stroke-linejoin="round"/>
<path d="M15 16.5C16.6568 16.5 18 15.1568 18 13.5C18 11.8432 16.6568 10.5 15 10.5C13.3432 10.5 12 11.8432 12 13.5C12 15.1568 13.3432 16.5 15 16.5Z" stroke="#333333" stroke-width="2"/>
<path d="M15 20L17 21V15.7361C17 15.7361 16.4297 16.5 15 16.5C13.5703 16.5 13 15.75 13 15.75V21L15 20Z" stroke="#333333" stroke-width="2" stroke-linecap="round" stroke-linejoin="round"/>
</svg>
