<svg width="24" height="24" viewBox="0 0 24 24" fill="none" xmlns="http://www.w3.org/2000/svg">
<path d="M21.0425 17.5L19.4786 4.32322C19.3891 3.56847 18.7491 3 17.9891 3H6.47125C5.72845 3 5.0975 3.54365 4.98771 4.27829L3.01172 17.5" stroke="#333333" stroke-width="2" stroke-linecap="round"/>
<path d="M18 15H6C4.34315 15 3 16.3431 3 18C3 19.6569 4.34315 21 6 21H18C19.6569 21 21 19.6569 21 18C21 16.3431 19.6569 15 18 15Z" stroke="#333333" stroke-width="2"/>
<path d="M11.5 18C11.5 17.4477 11.0523 17 10.5 17C9.94772 17 9.5 17.4477 9.5 18C9.5 18.5523 9.94772 19 10.5 19C11.0523 19 11.5 18.5523 11.5 18Z" fill="#333333"/>
<path d="M14.5 18H17.5" stroke="#333333" stroke-width="2" stroke-linecap="round" stroke-linejoin="round"/>
<path d="M11 6H13" stroke="#333333" stroke-width="2" stroke-linecap="round" stroke-linejoin="round"/>
</svg>
