<svg width="24" height="24" viewBox="0 0 24 24" fill="none" xmlns="http://www.w3.org/2000/svg">
<path d="M21.5 9.99996C21.5 8.91421 12.4461 4.05596 10.067 2.79811C9.7197 2.61449 9.3015 2.65594 8.9926 2.89865L2.5 7.99996" stroke="#333333" stroke-width="2" stroke-linecap="round" stroke-linejoin="round"/>
<path d="M2.5 8.82602C2.5 8.16152 3.1344 7.67707 3.77761 7.84392C6.98095 8.67482 15.4301 10.6665 20.0807 9.87936C20.7778 9.76141 21.5 10.2684 21.5 10.9754V19.0512C21.5 19.583 21.0837 20.0218 20.5525 20.0498L3.55256 20.9445C2.98042 20.9746 2.5 20.5188 2.5 19.9459V8.82602Z" stroke="#333333" stroke-width="2" stroke-linecap="round" stroke-linejoin="round"/>
<path d="M6 13.5C6.55228 13.5 7 13.0523 7 12.5C7 11.9477 6.55228 11.5 6 11.5C5.44772 11.5 5 11.9477 5 12.5C5 13.0523 5.44772 13.5 6 13.5Z" fill="#333333"/>
<path d="M12.5 14.5C13.0523 14.5 13.5 14.0523 13.5 13.5C13.5 12.9477 13.0523 12.5 12.5 12.5C11.9477 12.5 11.5 12.9477 11.5 13.5C11.5 14.0523 11.9477 14.5 12.5 14.5Z" fill="#333333"/>
<path d="M17 17C17.5523 17 18 16.5523 18 16C18 15.4477 17.5523 15 17 15C16.4477 15 16 15.4477 16 16C16 16.5523 16.4477 17 17 17Z" fill="#333333"/>
<path d="M9 17C9.55228 17 10 16.5523 10 16C10 15.4477 9.55228 15 9 15C8.44772 15 8 15.4477 8 16C8 16.5523 8.44772 17 9 17Z" fill="#333333" stroke="#333333" stroke-width="2"/>
</svg>
