<svg width="24" height="24" viewBox="0 0 24 24" fill="none" xmlns="http://www.w3.org/2000/svg">
<path d="M6.5 12.0623C4.50627 11.6792 3 9.9255 3 7.82C3 5.43415 4.93413 3.5 7.32 3.5C7.7033 3.5 8.0749 3.54991 8.4287 3.6436C9.2199 2.64246 10.4449 2 11.82 2C13.2352 2 14.4914 2.68049 15.2794 3.73211C15.7186 3.58166 16.1898 3.5 16.68 3.5C19.0659 3.5 21 5.43415 21 7.82C21 9.9255 19.4937 11.6792 17.5 12.0623V20C17.5 20.5523 17.0523 21 16.5 21H7.5C6.9477 21 6.5 20.5523 6.5 20V12.0623Z" stroke="#333333" stroke-width="2" stroke-linecap="round" stroke-linejoin="round"/>
<path d="M6.5 15.5H17.5" stroke="#333333" stroke-width="2" stroke-linecap="round" stroke-linejoin="round"/>
<path d="M10 12.5V15.5" stroke="#333333" stroke-width="2" stroke-linecap="round" stroke-linejoin="round"/>
<path d="M17.5 14V17" stroke="#333333" stroke-width="2" stroke-linecap="round" stroke-linejoin="round"/>
<path d="M6.5 14V17" stroke="#333333" stroke-width="2" stroke-linecap="round" stroke-linejoin="round"/>
</svg>
