<svg width="24" height="24" viewBox="0 0 24 24" fill="none" xmlns="http://www.w3.org/2000/svg">
<path d="M7 21C9.20914 21 11 19.2091 11 17C11 14.7909 9.20914 13 7 13C4.79086 13 3 14.7909 3 17C3 19.2091 4.79086 21 7 21Z" stroke="#333333" stroke-width="2" stroke-linecap="round" stroke-linejoin="round"/>
<path d="M17.5 22C19.433 22 21 20.433 21 18.5C21 16.567 19.433 15 17.5 15C15.567 15 14 16.567 14 18.5C14 20.433 15.567 22 17.5 22Z" stroke="#333333" stroke-width="2" stroke-linecap="round" stroke-linejoin="round"/>
<path d="M18.5 5C17.1744 5.4058 14.314 6.50725 12.6396 8.13045C10.1279 10.5652 9.5 12.25 9 13.5" stroke="#333333" stroke-width="2" stroke-linecap="round"/>
<path d="M18.4999 5C17.9416 5.6592 16.8576 7.298 16.5219 9.1946C16.0183 12.0395 16.5 13.75 16.9999 15" stroke="#333333" stroke-width="2" stroke-linecap="round"/>
<path d="M15 2L22 8" stroke="#333333" stroke-width="2" stroke-linecap="round"/>
</svg>
