<svg width="24" height="24" viewBox="0 0 24 24" fill="none" xmlns="http://www.w3.org/2000/svg">
<path d="M16.6872 16.9372C18.8085 14.8158 17.3943 7.74478 14.2123 4.5628C12.798 3.14855 8.73225 0.143376 4.31278 4.56276C-0.106666 8.98213 2.8986 13.0481 4.31278 14.4622C7.4948 17.6443 14.5658 19.0585 16.6872 16.9372Z" stroke="#333333" stroke-width="2" stroke-linecap="round" stroke-linejoin="round"/>
<path d="M20.5 20.5C20.1267 20.1267 18.0112 18.0112 17 17" stroke="#333333" stroke-width="2"/>
<path d="M20.2124 19.1518C19.7242 19.6399 19.7242 20.4314 20.2124 20.9195C20.7005 21.4077 21.492 21.4077 21.9801 20.9195C22.4683 20.4314 22.4683 19.6399 21.9801 19.1518C21.492 18.6636 20.7005 18.6636 20.2124 19.1518Z" fill="#333333"/>
<path d="M19.1517 20.2123C18.6635 20.7005 18.6635 21.4919 19.1517 21.9801C19.6398 22.4682 20.4313 22.4682 20.9195 21.9801C21.4076 21.4919 21.4076 20.7005 20.9195 20.2123C20.4313 19.7242 19.6398 19.7242 19.1517 20.2123Z" fill="#333333"/>
<path d="M8.5 10C9.05228 10 9.5 9.55228 9.5 9C9.5 8.44772 9.05228 8 8.5 8C7.94772 8 7.5 8.44772 7.5 9C7.5 9.55228 7.94772 10 8.5 10Z" fill="#333333"/>
<path d="M6 11.5C6.55228 11.5 7 11.0523 7 10.5C7 9.94772 6.55228 9.5 6 9.5C5.44772 9.5 5 9.94772 5 10.5C5 11.0523 5.44772 11.5 6 11.5Z" fill="#333333"/>
<path d="M8.5 13C9.05228 13 9.5 12.5523 9.5 12C9.5 11.4477 9.05228 11 8.5 11C7.94772 11 7.5 11.4477 7.5 12C7.5 12.5523 7.94772 13 8.5 13Z" fill="#333333"/>
</svg>
