<svg width="24" height="24" viewBox="0 0 24 24" fill="none" xmlns="http://www.w3.org/2000/svg">
<path d="M17.9893 7.7499C17.7268 7.5097 17.4405 7.29605 17.1344 7.1124L16.4017 6.6728C15.7221 6.265 14.9749 5.9825 14.1955 5.8387L13.9336 5.7904C12.5235 5.53015 11.1649 5.04805 9.90795 4.36311C9.793 3.85511 9.3971 3.43228 8.8553 3.30917C8.1036 3.13836 7.3557 3.60929 7.1849 4.36103C7.0141 5.11275 7.485 5.86065 8.23675 6.03145C8.29975 6.04575 8.36275 6.05555 8.42535 6.0611C9.2528 6.8704 9.9526 7.80175 10.5 8.82335" stroke="#333333" stroke-width="2" stroke-linecap="round" stroke-linejoin="round"/>
<path d="M5.65335 12.5096C5.52235 12.6506 4 14.3253 4 16C4 17.75 4.77922 18.5 5.5 19C6.2208 19.5 7.3604 20 8.3052 20C9.25 20 14.25 20.5 16.5 20C18.75 19.5 19 19 20 18C20.5408 17.4592 20.941 16.6991 21.1946 16.115C21.4401 15.5495 21.6327 14.9622 21.7824 14.3642C21.9623 13.6461 22.1442 12.6149 22 11.75C21.75 10.25 21 9.25 18.5 8C16.1979 6.84895 14.1766 7.39379 13.871 7.48724C13.8434 7.49569 13.8176 7.50475 13.7903 7.51435C13.3903 7.6558 10.1581 8.81269 8.7857 9.74999C7.38435 10.707 5.8046 12.3509 5.6714 12.4905C5.66465 12.4975 5.66005 12.5024 5.65335 12.5096Z" stroke="#333333" stroke-width="2" stroke-linecap="round" stroke-linejoin="round"/>
<path d="M3.05131 10.0049C2.9887 9.99942 2.92573 9.98962 2.86273 9.97527C2.111 9.80447 1.64007 9.05662 1.81088 8.30487C1.98169 7.55312 2.72956 7.08222 3.48129 7.25302C4.02306 7.37612 4.41899 7.79897 4.53395 8.30697C5.7908 8.99187 7.14945 9.47402 8.5596 9.73422L8.8214 9.78252C9.6008 9.92637 10.348 10.2089 11.0276 10.6166L11.7603 11.0562C12.2502 11.3502 12.6896 11.721 13.0617 12.1546L13.2644 12.3908C13.8763 13.1039 14.155 14.0441 14.0306 14.9754L14.0165 15.0813C13.9318 15.7158 13.6447 16.3061 13.1978 16.7646L12.9672 17.0012C12.2047 17.7835 11.1074 18.1429 10.0297 17.9633C9.19625 17.8244 8.42465 17.4356 7.8171 16.8483L7.4476 16.4912C7.1505 16.204 6.89295 15.8786 6.6817 15.5235L5.59545 13.6976L5.2787 13.0626C4.71119 11.9247 3.95785 10.8916 3.05131 10.0049Z" stroke="#333333" stroke-width="2" stroke-linecap="round" stroke-linejoin="round"/>
</svg>
