<svg width="24" height="24" viewBox="0 0 24 24" fill="none" xmlns="http://www.w3.org/2000/svg">
<path d="M10.5838 8.29696C11.4077 5.49361 14.7452 4.33319 17.1305 6.02081C19.1932 7.48011 19.5394 10.4038 17.8746 12.3045L16.3095 14.0915C13.6999 17.0709 10.4045 19.3705 6.70767 20.7918L4.92863 21.4758C4.56375 21.6161 4.15289 21.5648 3.83376 21.339C3.19745 20.8888 3.17149 19.9538 3.78183 19.469L5.17137 18.3653C7.25407 16.711 8.77447 14.4534 9.52442 11.9016L10.5838 8.29696Z" stroke="#333333" stroke-width="2"/>
<path d="M14.9209 5.3417C15.347 4.04839 16.7409 3.34536 18.0342 3.77146C19.3275 4.19755 20.0305 5.5914 19.6044 6.88475C19.4492 7.356 19.1654 7.74885 18.8049 8.0373" stroke="#333333" stroke-width="2"/>
<path d="M21 2L19 4" stroke="#333333" stroke-width="2" stroke-linecap="round"/>
</svg>
