<svg width="24" height="24" viewBox="0 0 24 24" fill="none" xmlns="http://www.w3.org/2000/svg">
<path d="M19.5 3H4.5C3.67157 3 3 3.67157 3 4.5V19.5C3 20.3284 3.67157 21 4.5 21H19.5C20.3284 21 21 20.3284 21 19.5V4.5C21 3.67157 20.3284 3 19.5 3Z" stroke="#333333" stroke-width="2" stroke-linecap="round" stroke-linejoin="round"/>
<path d="M10.5 9.96946C10.3004 9.38731 9.7015 8.36851 8.5038 8.51406C7.3061 8.65966 6.4076 10.2606 6.5076 12.2981C6.6076 14.3357 7.7053 15.5 8.7034 15.5C9.90115 15.5 10.5 14.1028 10.5 14.1028" stroke="#333333" stroke-width="2" stroke-linecap="round" stroke-linejoin="round"/>
<path d="M13 15.5V9.5" stroke="#333333" stroke-width="2" stroke-linecap="round" stroke-linejoin="round"/>
<path d="M13 15.5V12.25C13 11.0073 14.0073 10 15.25 10C16.4927 10 17.5 11.0073 17.5 12.25V15.5" stroke="#333333" stroke-width="2" stroke-linecap="round" stroke-linejoin="round"/>
</svg>
