<svg width="24" height="24" viewBox="0 0 24 24" fill="none" xmlns="http://www.w3.org/2000/svg">
<g clip-path="url(#clip0_2_21699)">
<path d="M24 0H0V24H24V0Z" fill="white" fill-opacity="0.01"/>
<path fill-rule="evenodd" clip-rule="evenodd" d="M12 5C12.8285 5 13.5 4.32842 13.5 3.5C13.5 2.67158 12.8285 2 12 2C11.1715 2 10.5 2.67158 10.5 3.5C10.5 4.32842 11.1715 5 12 5Z" stroke="#333333" stroke-width="2" stroke-linecap="round" stroke-linejoin="round"/>
<path fill-rule="evenodd" clip-rule="evenodd" d="M12 22C12.8285 22 13.5 21.3285 13.5 20.5C13.5 19.6715 12.8285 19 12 19C11.1715 19 10.5 19.6715 10.5 20.5C10.5 21.3285 11.1715 22 12 22Z" stroke="#333333" stroke-width="2" stroke-linecap="round" stroke-linejoin="round"/>
<path fill-rule="evenodd" clip-rule="evenodd" d="M3.5 13.5C4.32842 13.5 5 12.8285 5 12C5 11.1715 4.32842 10.5 3.5 10.5C2.67158 10.5 2 11.1715 2 12C2 12.8285 2.67158 13.5 3.5 13.5Z" stroke="#333333" stroke-width="2" stroke-linecap="round" stroke-linejoin="round"/>
<path fill-rule="evenodd" clip-rule="evenodd" d="M20.5 13.5C21.3285 13.5 22 12.8285 22 12C22 11.1715 21.3285 10.5 20.5 10.5C19.6715 10.5 19 11.1715 19 12C19 12.8285 19.6715 13.5 20.5 13.5Z" stroke="#333333" stroke-width="2" stroke-linecap="round" stroke-linejoin="round"/>
<path d="M12.0984 7.87189C13.6437 7.87189 15.007 7.09304 15.8173 5.90649C16.7581 6.46939 17.5602 7.24019 18.1602 8.15544C16.8649 8.94549 16.0001 10.3718 16.0001 12C16.0001 13.6714 16.9113 15.13 18.264 15.906C17.7024 16.8147 16.9451 17.5896 16.051 18.172C15.2877 16.7736 13.8038 15.8249 12.0984 15.8249C10.3984 15.8249 8.91864 16.7676 8.15319 18.1587C7.23894 17.5589 6.46894 16.7573 5.90649 15.8172C7.09304 15.007 7.87189 13.6436 7.87189 12.0984C7.87189 10.5583 7.09819 9.19884 5.91824 8.38764C6.52734 7.37684 7.37689 6.52734 8.38764 5.91824C9.19884 7.09819 10.5583 7.87189 12.0984 7.87189Z" stroke="#333333" stroke-width="2" stroke-linecap="round" stroke-linejoin="round"/>
</g>
<defs>
<clipPath id="clip0_2_21699">
<rect width="24" height="24" fill="white"/>
</clipPath>
</defs>
</svg>
