<svg width="24" height="24" viewBox="0 0 24 24" fill="none" xmlns="http://www.w3.org/2000/svg">
<g clip-path="url(#clip0_2_20033)">
<path d="M24 0H0V24H24V0Z" fill="white" fill-opacity="0.01"/>
<path d="M20 6C21.1046 6 22 5.10455 22 4C22 2.89543 21.1046 2 20 2C18.8954 2 18 2.89543 18 4C18 5.10455 18.8954 6 20 6Z" stroke="#333333" stroke-width="2" stroke-linejoin="round"/>
<path d="M12 14C13.1046 14 14 13.1046 14 12C14 10.8954 13.1046 10 12 10C10.8954 10 10 10.8954 10 12C10 13.1046 10.8954 14 12 14Z" stroke="#333333" stroke-width="2" stroke-linejoin="round"/>
<path d="M20 22C21.1046 22 22 21.1046 22 20C22 18.8954 21.1046 18 20 18C18.8954 18 18 18.8954 18 20C18 21.1046 18.8954 22 20 22Z" stroke="#333333" stroke-width="2" stroke-linejoin="round"/>
<path d="M4 6C5.10455 6 6 5.10455 6 4C6 2.89543 5.10455 2 4 2C2.89543 2 2 2.89543 2 4C2 5.10455 2.89543 6 4 6Z" stroke="#333333" stroke-width="2" stroke-linejoin="round"/>
<path d="M4 22C5.10455 22 6 21.1046 6 20C6 18.8954 5.10455 18 4 18C2.89543 18 2 18.8954 2 20C2 21.1046 2.89543 22 4 22Z" stroke="#333333" stroke-width="2" stroke-linejoin="round"/>
<path d="M10 20H14" stroke="#333333" stroke-width="2" stroke-linecap="round" stroke-linejoin="round"/>
<path d="M10 4H14" stroke="#333333" stroke-width="2" stroke-linecap="round" stroke-linejoin="round"/>
<path d="M4 10V14" stroke="#333333" stroke-width="2" stroke-linecap="round" stroke-linejoin="round"/>
<path d="M20 10V14" stroke="#333333" stroke-width="2" stroke-linecap="round" stroke-linejoin="round"/>
</g>
<defs>
<clipPath id="clip0_2_20033">
<rect width="24" height="24" fill="white"/>
</clipPath>
</defs>
</svg>
