<svg width="24" height="24" viewBox="0 0 24 24" fill="none" xmlns="http://www.w3.org/2000/svg">
<path d="M4.5 13C4.5 13 4.46215 13.3933 4 15.5C3.51026 17.7324 2 22 2 22H22C22 22 20.4897 17.7324 20 15.5C19.5378 13.3933 19.5 13 19.5 13" stroke="#333333" stroke-width="2" stroke-linecap="round" stroke-linejoin="round"/>
<path d="M10 14C10.5 18.5 8 22 8 22" stroke="#333333" stroke-width="2" stroke-linecap="round" stroke-linejoin="round"/>
<path d="M14 14C13.5 18.5 16 22 16 22" stroke="#333333" stroke-width="2" stroke-linecap="round" stroke-linejoin="round"/>
<path d="M3 9C3 9 6.79615 8.9726 8.5 8.5C9.93295 8.10255 12 7 12 7C12 7 13.9115 8.0972 15.25 8.5C17.0361 9.0375 21 9 21 9L20.5 12.5C20.5 12.5 18.5 13.5 18 13.5C17.5 13.5 16.5 12.5 16 12.5C15.5 12.5 14.25 14 14 14C13.75 14 12.5 12.5 12 12.5C11.5 12.5 10.5 14.25 10 14.25C9.5 14.25 8.5 12.5 8 12.5C7.901 12.5 7.76285 12.5392 7.6049 12.602C6.53405 13.0282 5.3607 13.2442 4.29058 12.8162L3.5 12.5L3 9Z" stroke="#333333" stroke-width="2" stroke-linecap="round" stroke-linejoin="round"/>
<path d="M12 2.5V7.5" stroke="#333333" stroke-width="2" stroke-linecap="round"/>
<path d="M18 5.49992V2.49992C18 2.49992 17.25 3.99992 15 2.49992C12.75 0.999919 12 2.49992 12 2.49992V5.49992C12 5.49992 12.75 3.99992 15 5.49992C17.25 6.99992 18 5.49992 18 5.49992Z" stroke="#333333" stroke-width="2" stroke-linecap="round" stroke-linejoin="round"/>
</svg>
