<svg width="24" height="24" viewBox="0 0 24 24" fill="none" xmlns="http://www.w3.org/2000/svg">
<g clip-path="url(#clip0_2_21399)">
<path d="M24 0H0V24H24V0Z" fill="white" fill-opacity="0.01"/>
<path fill-rule="evenodd" clip-rule="evenodd" d="M12 6C13.1046 6 14 5.10455 14 4C14 2.89543 13.1046 2 12 2C10.8954 2 10 2.89543 10 4C10 5.10455 10.8954 6 12 6Z" stroke="#333333" stroke-width="2" stroke-linecap="round" stroke-linejoin="round"/>
<path fill-rule="evenodd" clip-rule="evenodd" d="M12 14C13.1046 14 14 13.1046 14 12C14 10.8954 13.1046 10 12 10C10.8954 10 10 10.8954 10 12C10 13.1046 10.8954 14 12 14Z" stroke="#333333" stroke-width="2" stroke-linecap="round" stroke-linejoin="round"/>
<path fill-rule="evenodd" clip-rule="evenodd" d="M17.1963 9.0001C17.7486 9.9567 18.9717 10.2844 19.9283 9.73215C20.8849 9.17985 21.2127 7.9567 20.6604 7.0001C20.1081 6.0435 18.8849 5.71575 17.9283 6.26805C16.9717 6.82035 16.644 8.0435 17.1963 9.0001Z" stroke="#333333" stroke-width="2" stroke-linecap="round" stroke-linejoin="round"/>
<path fill-rule="evenodd" clip-rule="evenodd" d="M17.1963 15.0001C16.644 15.9567 16.9717 17.1798 17.9283 17.7321C18.8849 18.2844 20.1081 17.9567 20.6604 17.0001C21.2127 16.0435 20.8849 14.8203 19.9283 14.268C18.9717 13.7157 17.7486 14.0435 17.1963 15.0001Z" stroke="#333333" stroke-width="2" stroke-linecap="round" stroke-linejoin="round"/>
<path fill-rule="evenodd" clip-rule="evenodd" d="M12 18C10.8954 18 10 18.8954 10 20C10 21.1046 10.8954 22 12 22C13.1046 22 14 21.1046 14 20C14 18.8954 13.1046 18 12 18Z" stroke="#333333" stroke-width="2" stroke-linecap="round" stroke-linejoin="round"/>
<path fill-rule="evenodd" clip-rule="evenodd" d="M6.80392 15.0001C6.25162 14.0435 5.02847 13.7157 4.07187 14.268C3.11528 14.8203 2.78753 16.0435 3.33982 17.0001C3.8921 17.9567 5.11527 18.2844 6.07187 17.7321C7.02847 17.1798 7.35622 15.9567 6.80392 15.0001Z" stroke="#333333" stroke-width="2" stroke-linecap="round" stroke-linejoin="round"/>
<path fill-rule="evenodd" clip-rule="evenodd" d="M6.80392 9.0001C7.35622 8.0435 7.02847 6.82035 6.07187 6.26805C5.11527 5.71575 3.8921 6.0435 3.33982 7.0001C2.78753 7.9567 3.11528 9.17985 4.07187 9.73215C5.02847 10.2844 6.25162 9.9567 6.80392 9.0001Z" stroke="#333333" stroke-width="2" stroke-linecap="round" stroke-linejoin="round"/>
</g>
<defs>
<clipPath id="clip0_2_21399">
<rect width="24" height="24" fill="white"/>
</clipPath>
</defs>
</svg>
