<svg width="24" height="24" viewBox="0 0 24 24" fill="none" xmlns="http://www.w3.org/2000/svg">
<g clip-path="url(#clip0_2_21126)">
<path d="M24 0H0V24H24V0Z" fill="white" fill-opacity="0.01"/>
<path d="M2 21H22" stroke="#333333" stroke-width="2" stroke-linecap="round" stroke-linejoin="round"/>
<path d="M7 13H5C4.44772 13 4 13.4477 4 14V20C4 20.5523 4.44772 21 5 21H7C7.55228 21 8 20.5523 8 20V14C8 13.4477 7.55228 13 7 13Z" stroke="#333333" stroke-width="2" stroke-linejoin="round"/>
<path d="M6 17H6.5" stroke="#333333" stroke-width="2" stroke-linecap="round" stroke-linejoin="round"/>
<path d="M19 2H9C8.44772 2 8 2.44772 8 3V20C8 20.5523 8.44772 21 9 21H19C19.5523 21 20 20.5523 20 20V3C20 2.44772 19.5523 2 19 2Z" stroke="#333333" stroke-width="2" stroke-linejoin="round"/>
<path d="M13 5H11V7H13V5Z" fill="#333333"/>
<path d="M17 5H15V7H17V5Z" fill="#333333"/>
<path d="M13 8.5H11V10.5H13V8.5Z" fill="#333333"/>
<path d="M17 8.5H15V10.5H17V8.5Z" fill="#333333"/>
<path d="M17 12H15V14H17V12Z" fill="#333333"/>
<path d="M17 15.5H15V17.5H17V15.5Z" fill="#333333"/>
</g>
<defs>
<clipPath id="clip0_2_21126">
<rect width="24" height="24" fill="white"/>
</clipPath>
</defs>
</svg>
