<svg width="24" height="24" viewBox="0 0 24 24" fill="none" xmlns="http://www.w3.org/2000/svg">
<path d="M8.55912 13.0067L4.62648 6.19517C4.40482 5.81127 3.91391 5.67972 3.52999 5.90137C3.19123 6.09697 3.04278 6.50827 3.17853 6.87512L5.93867 14.3343C5.97927 14.444 6.00027 14.5599 6.00082 14.6768L6.02932 21.0133C6.03182 21.5639 6.47877 22.0088 7.02932 22.0088H9.50797C10.1463 22.0088 10.6212 21.4189 10.4849 20.7954L9.00002 14.0001L8.55912 13.0067Z" stroke="#333333" stroke-width="2" stroke-linecap="round" stroke-linejoin="round"/>
<path d="M6 14.5L9 14" stroke="#333333" stroke-width="2" stroke-linecap="round" stroke-linejoin="round"/>
<path d="M15.2816 12.8646L19.1272 6.20381C19.3516 5.81516 19.8485 5.68196 20.2372 5.90636C20.5732 6.10041 20.7252 6.50496 20.6 6.87226L18.0475 14.3609C18.016 14.4532 17.9982 14.5496 17.9947 14.6471L17.7616 21.0463C17.7421 21.584 17.3004 22.0099 16.7623 22.0099H14.2801C13.6297 22.0099 13.1523 21.3987 13.3099 20.7676L15 14.0001L15.1672 13.1677C15.1886 13.0611 15.2272 12.9587 15.2816 12.8646Z" stroke="#333333" stroke-width="2" stroke-linecap="round" stroke-linejoin="round"/>
<path d="M15 14L18 14.5" stroke="#333333" stroke-width="2" stroke-linecap="round" stroke-linejoin="round"/>
<path d="M7.5 3.5L9.25 5.5" stroke="#333333" stroke-width="2" stroke-linecap="round" stroke-linejoin="round"/>
<path d="M11.5 2L12 5" stroke="#333333" stroke-width="2" stroke-linecap="round" stroke-linejoin="round"/>
<path d="M16.5 3L15 5" stroke="#333333" stroke-width="2" stroke-linecap="round" stroke-linejoin="round"/>
</svg>
