<svg width="24" height="24" viewBox="0 0 24 24" fill="none" xmlns="http://www.w3.org/2000/svg">
<g clip-path="url(#clip0_2_21542)">
<path d="M24 0H0V24H24V0Z" fill="white" fill-opacity="0.01"/>
<path d="M12 11C14.4853 11 16.5 8.98528 16.5 6.5C16.5 4.01472 14.4853 2 12 2C9.51472 2 7.5 4.01472 7.5 6.5C7.5 8.98528 9.51472 11 12 11Z" stroke="#333333" stroke-width="2" stroke-linejoin="round"/>
<path d="M2.5 22C2.5 17.7812 5.5875 13.8438 8.2 13C8.2 13 10.575 15.5312 12 17.2188L15.8 13C17.9375 13.2812 21.5 17.7812 21.5 22" stroke="#333333" stroke-width="2" stroke-linejoin="round"/>
<path d="M1 22H23" stroke="#333333" stroke-width="2" stroke-linecap="round" stroke-linejoin="round"/>
</g>
<defs>
<clipPath id="clip0_2_21542">
<rect width="24" height="24" fill="white"/>
</clipPath>
</defs>
</svg>
