<svg width="24" height="24" viewBox="0 0 24 24" fill="none" xmlns="http://www.w3.org/2000/svg">
<g clip-path="url(#clip0_2_20784)">
<path d="M24 0H0V24H24V0Z" fill="white" fill-opacity="0.01"/>
<path d="M7.5 13V7.5C7.5 6.67157 8.17157 6 9 6C9.82843 6 10.5 6.67157 10.5 7.5V13" stroke="#333333" stroke-width="2" stroke-linecap="round" stroke-linejoin="round"/>
<path d="M19.5 12.5V15.75C19.5 18.9256 16.9256 21.5 13.75 21.5H13.25C10.0744 21.5 7.5 18.9256 7.5 15.75V12.5" stroke="#333333" stroke-width="2" stroke-linecap="round" stroke-linejoin="round"/>
<path d="M10.5 14.5V13.5529V12C10.5 11.1716 11.1716 10.5 12 10.5C12.8284 10.5 13.5 11.1716 13.5 12V13.5909V14.5" stroke="#333333" stroke-width="2" stroke-linecap="round" stroke-linejoin="round"/>
<path d="M13.5 14.5V13.5529V12C13.5 11.1716 14.1716 10.5 15 10.5C15.8284 10.5 16.5 11.1716 16.5 12V13.5909V14.5" stroke="#333333" stroke-width="2" stroke-linecap="round" stroke-linejoin="round"/>
<path d="M16.5 14.5V13.5529V12C16.5 11.1716 17.1716 10.5 18 10.5C18.8284 10.5 19.5 11.1716 19.5 12V13.5909V14.5" stroke="#333333" stroke-width="2" stroke-linecap="round" stroke-linejoin="round"/>
<path d="M14 7.5C14 6.97444 13.9189 6.46783 13.7686 5.99197C13.6004 5.45976 13.3456 4.96604 13.0208 4.52735C12.1099 3.29736 10.6481 2.5 9 2.5C7.35194 2.5 5.8901 3.29736 4.97924 4.52735C4.65436 4.96604 4.39958 5.45976 4.23143 5.99197C4.08109 6.46783 4 6.97444 4 7.5" stroke="#333333" stroke-width="2" stroke-linecap="round"/>
</g>
<defs>
<clipPath id="clip0_2_20784">
<rect width="24" height="24" fill="white"/>
</clipPath>
</defs>
</svg>
