<svg width="24" height="24" viewBox="0 0 24 24" fill="none" xmlns="http://www.w3.org/2000/svg">
<g clip-path="url(#clip0_2_21093)">
<path d="M24 0H0V24H24V0Z" fill="white" fill-opacity="0.01"/>
<path d="M17 11V7.5V11ZM17 7.5C17 5.1544 17 3.98164 16.3801 3.17372C16.2205 2.96572 16.0343 2.77954 15.8263 2.61994C15.0183 2 13.8456 2 11.5 2H11C8.17155 2 6.75735 2 5.8787 2.87868C5 3.75736 5 5.17155 5 8V19H17V16C17 16 20.5 16 20.5 13C20.5 12 20.5 12 20.5 10.5C20.5 7.5 17 7.5 17 7.5Z" stroke="#333333" stroke-width="2" stroke-linecap="round" stroke-linejoin="round"/>
<path d="M4.5 19H17.5C18.3285 19 19 19.6715 19 20.5C19 21.3285 18.3285 22 17.5 22H4.5C3.67158 22 3 21.3285 3 20.5C3 19.6715 3.67158 19 4.5 19Z" stroke="#333333" stroke-width="2" stroke-linecap="round" stroke-linejoin="round"/>
</g>
<defs>
<clipPath id="clip0_2_21093">
<rect width="24" height="24" fill="white"/>
</clipPath>
</defs>
</svg>
