<svg width="24" height="24" viewBox="0 0 24 24" fill="none" xmlns="http://www.w3.org/2000/svg">
<g clip-path="url(#clip0_2_20786)">
<path d="M24 0H0V24H24V0Z" fill="white" fill-opacity="0.01"/>
<path d="M9 2H4C3.05719 2 2.58579 2 2.2929 2.2929C2 2.58579 2 3.05719 2 4V20C2 20.9428 2 21.4142 2.2929 21.7071C2.58579 22 3.05719 22 4 22H6L8 20L10 22H20C20.9428 22 21.4142 22 21.7071 21.7071C22 21.4142 22 20.9428 22 20V16.2374C22 13.7415 22 12.4935 21.2601 11.6459C20.5202 10.7982 19.2837 10.6296 16.8107 10.2923L16.1893 10.2077C13.7163 9.8704 12.4798 9.7018 11.7399 8.85415C11 8.0065 11 6.75855 11 4.26265V4C11 3.05719 11 2.58579 10.7071 2.2929C10.4142 2 9.9428 2 9 2Z" stroke="#333333" stroke-width="2" stroke-linecap="round" stroke-linejoin="round"/>
<path d="M22 17H2" stroke="#333333" stroke-width="2" stroke-linecap="round" stroke-linejoin="round"/>
<path d="M2 5.75H11" stroke="#333333" stroke-width="2" stroke-linecap="round" stroke-linejoin="round"/>
<path d="M7.5 13C8.32843 13 9 12.3284 9 11.5C9 10.6716 8.32843 10 7.5 10C6.67157 10 6 10.6716 6 11.5C6 12.3284 6.67157 13 7.5 13Z" stroke="#333333" stroke-width="2" stroke-linecap="round" stroke-linejoin="round"/>
</g>
<defs>
<clipPath id="clip0_2_20786">
<rect width="24" height="24" fill="white"/>
</clipPath>
</defs>
</svg>
