<svg width="24" height="24" viewBox="0 0 24 24" fill="none" xmlns="http://www.w3.org/2000/svg">
<g clip-path="url(#clip0_2_21088)">
<path d="M24 0H0V24H24V0Z" fill="white" fill-opacity="0.01"/>
<path d="M12 9V13.5M18.5 11V18.5V11ZM5.5 18.5V22H18.5V18.5H5.5ZM5.5 18.5H2V11C2 9.5 3 7.75 4.5 6.5C6 5.25 8 5 8 5L12 9L5.5 18.5ZM5.5 18.5V11V18.5ZM18.5 18.5H22V11C22 9.5 21 7.75 19.5 6.5C18 5.25 16 5 16 5L12 9L18.5 18.5Z" stroke="#333333" stroke-width="2" stroke-linecap="round" stroke-linejoin="round"/>
<path d="M4.5 6.5C6 5.25 8 5 8 5L12 9L16 5C16 5 18 5.25 19.5 6.5L20.5 4.25L19.5 2H4.5L3.5 4.25L4.5 6.5Z" stroke="#333333" stroke-width="2" stroke-linecap="round" stroke-linejoin="round"/>
</g>
<defs>
<clipPath id="clip0_2_21088">
<rect width="24" height="24" fill="white"/>
</clipPath>
</defs>
</svg>
