<svg width="24" height="24" viewBox="0 0 24 24" fill="none" xmlns="http://www.w3.org/2000/svg">
<g clip-path="url(#clip0_2_21806)">
<path d="M24 0H0V24H24V0Z" fill="white" fill-opacity="0.01"/>
<path d="M3 5.5H21V9.5C21 9.5 21 13.5 19 15.5C17 17.5 13.9211 18.5 13.9211 18.5H10.0789C10.0789 18.5 7 17.5 5 15.5C3 13.5 3 9.5 3 9.5V5.5Z" stroke="#333333" stroke-width="2" stroke-linecap="round" stroke-linejoin="round"/>
<path d="M10.0789 18.5C10.0789 18.5 10.1286 14.9627 8.5 13C6.978 11.1658 3 9.5 3 9.5" stroke="#333333" stroke-width="2" stroke-linecap="round" stroke-linejoin="round"/>
<path d="M13.9211 18.5C13.9211 18.5 13.8714 14.9627 15.5 13C17.022 11.1658 21 9.5 21 9.5" stroke="#333333" stroke-width="2" stroke-linecap="round" stroke-linejoin="round"/>
</g>
<defs>
<clipPath id="clip0_2_21806">
<rect width="24" height="24" fill="white"/>
</clipPath>
</defs>
</svg>
