<svg width="24" height="24" viewBox="0 0 24 24" fill="none" xmlns="http://www.w3.org/2000/svg">
<g clip-path="url(#clip0_2_21511)">
<path d="M24 0H0V24H24V0Z" fill="white" fill-opacity="0.01"/>
<path d="M5.5 18.5V11.5M18.5 11.5V18.5V11.5ZM5.5 18.5V22H18.5V18.5H5.5ZM5.5 18.5H2V11.5C2 10 3 8.25 4.5 7C6 5.75 9 5 9 5H15C15 5 18 5.75 19.5 7C21 8.25 22 10 22 11.5V18.5H18.5H5.5Z" stroke="#333333" stroke-width="2" stroke-linecap="round" stroke-linejoin="round"/>
<path d="M15 5H9V2H15V5Z" stroke="#333333" stroke-width="2" stroke-linecap="round" stroke-linejoin="round"/>
</g>
<defs>
<clipPath id="clip0_2_21511">
<rect width="24" height="24" fill="white"/>
</clipPath>
</defs>
</svg>
