<svg width="24" height="24" viewBox="0 0 24 24" fill="none" xmlns="http://www.w3.org/2000/svg">
<g clip-path="url(#clip0_2_21516)">
<path d="M24 0H0V24H24V0Z" fill="white" fill-opacity="0.01"/>
<path d="M22 14.5H2V21H22V14.5Z" stroke="#333333" stroke-width="2" stroke-linejoin="round"/>
<path d="M17.75 19C18.4404 19 19 18.4404 19 17.75C19 17.0597 18.4404 16.5 17.75 16.5C17.0597 16.5 16.5 17.0597 16.5 17.75C16.5 18.4404 17.0597 19 17.75 19Z" fill="#333333"/>
<path d="M2 14.4999L4.51919 2.49951H19.5103L22 14.4999" stroke="#333333" stroke-width="2" stroke-linejoin="round"/>
<path d="M9.503 8.01294C8.43175 8.01294 7.5 8.75619 7.5 9.75639C7.5 10.9999 8.54735 11.4999 9.84865 11.4999C10.0718 11.4999 10.2784 11.4999 10.4884 11.4999" stroke="#333333" stroke-width="2" stroke-linecap="round" stroke-linejoin="round"/>
<path d="M14.5035 8.01294C15.5519 8.01294 16.5 8.49969 16.5 9.75639C16.5 10.9999 15.4451 11.4999 14.1438 11.4999C13.9206 11.4999 13.7006 11.4999 13.4935 11.4999" stroke="#333333" stroke-width="2" stroke-linecap="round" stroke-linejoin="round"/>
<path d="M14.5034 8.01305C14.5034 6.52115 13.5115 5.5 11.9999 5.5C10.4883 5.5 9.50293 6.49635 9.50293 8.01305" stroke="#333333" stroke-width="2" stroke-linecap="round" stroke-linejoin="round"/>
<path d="M10 11.5H14" stroke="#333333" stroke-width="2"/>
</g>
<defs>
<clipPath id="clip0_2_21516">
<rect width="24" height="24" fill="white"/>
</clipPath>
</defs>
</svg>
