<svg width="24" height="24" viewBox="0 0 24 24" fill="none" xmlns="http://www.w3.org/2000/svg">
<path d="M4.72727 15.4971C3.07121 14.2305 2 12.2139 2 9.94255C2 6.1083 5.0526 3 8.8182 3C11.9667 3 14.6168 5.1731 15.4008 8.12665C16.0177 7.80795 16.7155 7.62835 17.4545 7.62835C19.9649 7.62835 22 9.70055 22 12.2568C22 14.1547 20.8781 15.7858 19.2728 16.5" stroke="#333333" stroke-width="2" stroke-linecap="round" stroke-linejoin="round"/>
<path d="M13.6079 15.0617C12.7874 15.2756 12.1819 16.0216 12.1819 16.9091C12.1819 17.9634 13.0366 18.8182 14.0909 18.8182C14.9784 18.8182 15.7244 18.2126 15.9383 17.3921C15.9788 17.5884 16 17.7917 16 18C16 19.6568 14.6568 21 13 21C11.3432 21 10 19.6568 10 18C10 16.3432 11.3432 15 13 15C13.2083 15 13.4116 15.0212 13.6079 15.0617Z" stroke="#333333" stroke-width="2" stroke-linejoin="round"/>
<path d="M11.1213 7.8787C10.5784 7.3358 9.82845 7 9 7C7.34315 7 6 8.34315 6 10C6 10.8285 6.3358 11.5784 6.8787 12.1213" stroke="#333333" stroke-width="2" stroke-linecap="round" stroke-linejoin="round"/>
</svg>
