<svg width="24" height="24" viewBox="0 0 24 24" fill="none" xmlns="http://www.w3.org/2000/svg">
<g clip-path="url(#clip0_2_21073)">
<path d="M24 0H0V24H24V0Z" fill="white" fill-opacity="0.01"/>
<path d="M18.5 8C19.8807 8 21 6.8807 21 5.5C21 4.11929 19.8807 3 18.5 3C17.1193 3 16 4.11929 16 5.5C16 6.8807 17.1193 8 18.5 8Z" stroke="#333333" stroke-width="2" stroke-linejoin="round"/>
<path d="M5.5 21C6.8807 21 8 19.8807 8 18.5C8 17.1193 6.8807 16 5.5 16C4.11929 16 3 17.1193 3 18.5C3 19.8807 4.11929 21 5.5 21Z" stroke="#333333" stroke-width="2" stroke-linejoin="round"/>
<path d="M18.5 8V17.7521C18.5 19.5459 17.0459 21 15.2521 21C13.4583 21 12.0042 19.5459 12.0042 17.7521V6.2521C12.0042 4.456 10.5481 3 8.7521 3C6.956 3 5.5 4.456 5.5 6.2521V16" stroke="#333333" stroke-width="2" stroke-linecap="round" stroke-linejoin="round"/>
</g>
<defs>
<clipPath id="clip0_2_21073">
<rect width="24" height="24" fill="white"/>
</clipPath>
</defs>
</svg>
