<svg width="24" height="24" viewBox="0 0 24 24" fill="none" xmlns="http://www.w3.org/2000/svg">
<path d="M11.0001 7C11.0001 7 9.64996 9.64665 9.00006 13C8.35011 16.3533 8.50006 21 8.50006 21" stroke="#333333" stroke-width="2" stroke-linecap="round" stroke-linejoin="round"/>
<path d="M16.9765 11.6362C17.1493 11.7509 17.4228 11.8318 17.6907 11.8876C18.1564 11.9847 18.5868 11.6646 18.5746 11.189C18.5521 10.3022 18.2061 8.85147 16.4454 7.68227C14.7831 6.57837 13.1323 6.56327 12.0916 6.72192C11.498 6.81242 11.2617 7.46102 11.6023 7.95552C11.9064 8.39692 12.2606 8.84272 12.5 8.92787C13 9.10562 13.6017 8.63692 14.0399 8.92787C14.478 9.21882 14.3477 9.89042 14.7858 10.1814C15.224 10.4723 15.7924 10.0917 16.2306 10.3826C16.6687 10.6736 16.5384 11.3452 16.9765 11.6362Z" stroke="#333333" stroke-width="2" stroke-linecap="round" stroke-linejoin="round"/>
<path d="M10.0001 8.49991C10.429 8.35696 10.6944 7.88691 10.843 7.51066C10.9658 7.19971 10.8561 6.85641 10.5683 6.68631C9.92044 6.30336 8.53774 5.77936 6.38079 6.40576C4.24873 7.02496 3.68552 8.43366 3.54258 9.26331C3.47569 9.65151 3.73999 10.0027 4.13149 10.0462C4.41194 10.0774 4.71959 10.0635 4.90344 9.90746C5.30689 9.56501 5.41614 9.11621 5.86689 8.99546C6.31764 8.87466 6.70649 9.42431 7.15729 9.30356C7.60804 9.18276 7.66994 8.51231 8.12069 8.39156C8.57149 8.27076 9.25009 8.74991 10.0001 8.49991Z" stroke="#333333" stroke-width="2" stroke-linecap="round" stroke-linejoin="round"/>
<path d="M13.5 3.00011C12.2497 3.50011 10.9996 6.00011 11 7.00011L17.5004 4.00012C16.8101 2.80438 14.7502 2.50011 13.5 3.00011Z" stroke="#333333" stroke-width="2" stroke-linecap="round" stroke-linejoin="round"/>
<path d="M9.99999 2.49995C12 3.21076 11.6904 5.80425 11.0001 6.99995L5.00024 2.96077C5.50024 1.99995 7.99999 1.78914 9.99999 2.49995Z" stroke="#333333" stroke-width="2" stroke-linecap="round" stroke-linejoin="round"/>
<path d="M13 17.5C17.1421 17.5 19.5 18.3954 19.5 19.5C19.5 20.6046 16.1421 21.5 12 21.5C7.85785 21.5 4.5 20.6046 4.5 19.5C4.5 19.2304 4.70003 18.9733 5.06265 18.7386" stroke="#333333" stroke-width="2" stroke-linecap="round"/>
</svg>
