<svg width="24" height="24" viewBox="0 0 24 24" fill="none" xmlns="http://www.w3.org/2000/svg">
<path d="M8 2C7 2 5.5 2.5 5.5 4.5C5.5 6.5 5.5 7.5 5.5 9C5.5 10.5 3 11.5 3 11.5C3 11.5 5.5 12.5 5.5 14C5.5 15.5 5.5 17.5 5.5 19.5C5.5 21.5 7 22 8 22" stroke="#333333" stroke-width="2" stroke-linecap="round" stroke-linejoin="round"/>
<path d="M16 2C17 2 18.5 2.5 18.5 4.5C18.5 6.5 18.5 7.5 18.5 9C18.5 10.5 21 11.5 21 11.5C21 11.5 18.5 12.5 18.5 14C18.5 15.5 18.5 17.5 18.5 19.5C18.5 21.5 17 22 16 22" stroke="#333333" stroke-width="2" stroke-linecap="round" stroke-linejoin="round"/>
</svg>
