<svg width="24" height="24" viewBox="0 0 24 24" fill="none" xmlns="http://www.w3.org/2000/svg">
<path d="M18 18.5L16.6045 21.6999C16.5251 21.8822 16.3451 22 16.1462 22H7.85375C7.6549 22 7.4749 21.8822 7.39545 21.6999L6 18.5" stroke="#333333" stroke-width="2" stroke-linecap="round" stroke-linejoin="round"/>
<path d="M6 5.5L7.39545 2.30013C7.4749 2.11785 7.6549 2 7.85375 2H16.1462C16.3451 2 16.5251 2.11785 16.6045 2.30013L18 5.5" stroke="#333333" stroke-width="2" stroke-linecap="round" stroke-linejoin="round"/>
<path d="M6 6C6 5.4477 6.4477 5 7 5H17C17.5523 5 18 5.4477 18 6V18C18 18.5523 17.5523 19 17 19H7C6.4477 19 6 18.5523 6 18V6Z" stroke="#333333" stroke-width="2"/>
<path d="M6.5 11.2499L9.69805 10.745C10.7025 10.5864 11.6229 10.0898 12.3069 9.33731C13.2191 8.33391 14.5377 7.79916 15.8912 7.88371L17.75 7.99991" stroke="#333333" stroke-width="2" stroke-linecap="round" stroke-linejoin="round"/>
<path d="M6.25 16.25L9.0265 16.1238C10.714 16.0471 12.2352 15.0835 13.0256 13.5906C13.6469 12.417 14.7292 11.5555 16.0123 11.2134L17.75 10.75" stroke="#333333" stroke-width="2" stroke-linecap="round" stroke-linejoin="round"/>
<path d="M18 6V16" stroke="#333333" stroke-width="2" stroke-linecap="round" stroke-linejoin="round"/>
<path d="M6 8V18" stroke="#333333" stroke-width="2" stroke-linecap="round" stroke-linejoin="round"/>
</svg>
