<svg width="24" height="24" viewBox="0 0 24 24" fill="none" xmlns="http://www.w3.org/2000/svg">
<path d="M20 11C20 6.02945 15.9706 2 11 2C6.02945 2 2 6.02945 2 11C2 15.9706 6.02945 20 11 20" stroke="#333333" stroke-width="2" stroke-linecap="round" stroke-linejoin="round"/>
<path d="M16.65 15C15.7387 15 15 15.8609 15 16.9228C15 18.8455 16.95 20.5934 18 21C19.05 20.5934 21 18.8455 21 16.9228C21 15.8609 20.2613 15 19.35 15C18.792 15 18.2986 15.3228 18 15.8169C17.7014 15.3228 17.208 15 16.65 15Z" stroke="#333333" stroke-width="2" stroke-linecap="round" stroke-linejoin="round"/>
<path d="M11 13.5C12.3807 13.5 13.5 12.3807 13.5 11C13.5 9.6193 12.3807 8.5 11 8.5C9.6193 8.5 8.5 9.6193 8.5 11C8.5 12.3807 9.6193 13.5 11 13.5Z" stroke="#333333" stroke-width="2"/>
</svg>
