<svg width="24" height="24" viewBox="0 0 24 24" fill="none" xmlns="http://www.w3.org/2000/svg">
<path d="M9.49998 20C5.06363 17.7818 3.50003 13 1.99982 9.75C1.32499 8.28805 3.76289 7.90545 5.24968 8.5C6.49998 9 7.99983 10 7.99983 10V5.75C7.99983 4.7835 8.78333 4 9.74983 4C10.7163 4 11.4998 4.7835 11.4998 5.75V4.75C11.4998 3.7835 12.2833 3 13.2498 3C14.2163 3 14.9998 3.7835 14.9998 4.75V6.75C14.9998 5.7835 15.7833 5 16.7498 5C17.7163 5 18.4998 5.7835 18.4998 6.75V8.25C18.4998 7.2835 19.2833 6.5 20.2498 6.5C21.2163 6.5 21.9998 7.28275 21.9998 8.24925V14.5C21.9998 16.25 21 18.5 18.4998 20C16.1031 21.4379 12.5 21.5 9.49998 20Z" stroke="#333333" stroke-width="2" stroke-linecap="round" stroke-linejoin="round"/>
</svg>
