<svg width="24" height="24" viewBox="0 0 24 24" fill="none" xmlns="http://www.w3.org/2000/svg">
<g clip-path="url(#clip0_2_21793)">
<path d="M24 0H0V24H24V0Z" fill="white" fill-opacity="0.01"/>
<path d="M4.72727 7.45455C5.25115 7.45455 6.16025 7.45455 7.45455 7.45455C7.45455 6.11665 7.45455 5.20755 7.45455 4.72727C7.45455 3.22104 6.2335 2 4.72727 2C3.22104 2 2 3.22104 2 4.72727C2 6.2335 3.22104 7.45455 4.72727 7.45455Z" stroke="#333333" stroke-width="2" stroke-linejoin="round"/>
<path d="M4.72727 16.5454H7.45455V19.2727C7.45455 20.779 6.2335 22 4.72727 22C3.22104 22 2 20.779 2 19.2727C2 17.7665 3.22104 16.5454 4.72727 16.5454Z" stroke="#333333" stroke-width="2" stroke-linejoin="round"/>
<path d="M16.5455 7.45459H7.45459V16.5455H16.5455V7.45459Z" stroke="#333333" stroke-width="2" stroke-linecap="round" stroke-linejoin="round"/>
<path d="M19.2727 7.45455H16.5454V4.72727C16.5454 3.22104 17.7665 2 19.2727 2C20.7789 2 22 3.22104 22 4.72727C22 6.2335 20.7789 7.45455 19.2727 7.45455Z" stroke="#333333" stroke-width="2" stroke-linejoin="round"/>
<path d="M19.2727 16.5454C20.7789 16.5454 22 17.7665 22 19.2727C22 20.779 20.7789 22 19.2727 22C17.7665 22 16.5454 20.779 16.5454 19.2727V16.5454H19.2727Z" stroke="#333333" stroke-width="2" stroke-linejoin="round"/>
</g>
<defs>
<clipPath id="clip0_2_21793">
<rect width="24" height="24" fill="white"/>
</clipPath>
</defs>
</svg>
