<svg width="24" height="24" viewBox="0 0 24 24" fill="none" xmlns="http://www.w3.org/2000/svg">
<path d="M5 3C5 2.44771 5.4477 2 6 2H18C18.5523 2 19 2.44771 19 3V21C19 21.5523 18.5523 22 18 22H6C5.4477 22 5 21.5523 5 21V3Z" stroke="#333333" stroke-width="2"/>
<path d="M8.5 6H15.5" stroke="#333333" stroke-width="2" stroke-linecap="round" stroke-linejoin="round"/>
<path d="M8.5 11.5C9.05228 11.5 9.5 11.0523 9.5 10.5C9.5 9.94772 9.05228 9.5 8.5 9.5C7.94772 9.5 7.5 9.94772 7.5 10.5C7.5 11.0523 7.94772 11.5 8.5 11.5Z" fill="#333333"/>
<path d="M8.5 14.5C9.05228 14.5 9.5 14.0523 9.5 13.5C9.5 12.9477 9.05228 12.5 8.5 12.5C7.94772 12.5 7.5 12.9477 7.5 13.5C7.5 14.0523 7.94772 14.5 8.5 14.5Z" fill="#333333"/>
<path d="M8.5 17.5C9.05228 17.5 9.5 17.0523 9.5 16.5C9.5 15.9477 9.05228 15.5 8.5 15.5C7.94772 15.5 7.5 15.9477 7.5 16.5C7.5 17.0523 7.94772 17.5 8.5 17.5Z" fill="#333333"/>
<path d="M12 11.5C12.5523 11.5 13 11.0523 13 10.5C13 9.94772 12.5523 9.5 12 9.5C11.4477 9.5 11 9.94772 11 10.5C11 11.0523 11.4477 11.5 12 11.5Z" fill="#333333"/>
<path d="M12 14.5C12.5523 14.5 13 14.0523 13 13.5C13 12.9477 12.5523 12.5 12 12.5C11.4477 12.5 11 12.9477 11 13.5C11 14.0523 11.4477 14.5 12 14.5Z" fill="#333333"/>
<path d="M12 17.5C12.5523 17.5 13 17.0523 13 16.5C13 15.9477 12.5523 15.5 12 15.5C11.4477 15.5 11 15.9477 11 16.5C11 17.0523 11.4477 17.5 12 17.5Z" fill="#333333"/>
<path d="M15.5 11.5C16.0523 11.5 16.5 11.0523 16.5 10.5C16.5 9.94772 16.0523 9.5 15.5 9.5C14.9477 9.5 14.5 9.94772 14.5 10.5C14.5 11.0523 14.9477 11.5 15.5 11.5Z" fill="#333333"/>
<path d="M15.5 14.5C16.0523 14.5 16.5 14.0523 16.5 13.5C16.5 12.9477 16.0523 12.5 15.5 12.5C14.9477 12.5 14.5 12.9477 14.5 13.5C14.5 14.0523 14.9477 14.5 15.5 14.5Z" fill="#333333"/>
<path d="M15.5 17.5C16.0523 17.5 16.5 17.0523 16.5 16.5C16.5 15.9477 16.0523 15.5 15.5 15.5C14.9477 15.5 14.5 15.9477 14.5 16.5C14.5 17.0523 14.9477 17.5 15.5 17.5Z" fill="#333333"/>
</svg>
