<svg width="24" height="24" viewBox="0 0 24 24" fill="none" xmlns="http://www.w3.org/2000/svg">
<g clip-path="url(#clip0_2_21027)">
<path d="M24 0H0V24H24V0Z" fill="white" fill-opacity="0.01"/>
<path d="M19.9141 10.893L10.9843 19.8228C9.27725 21.5299 6.4687 21.4892 4.71132 19.7319C2.95397 17.9745 2.91326 15.166 4.62041 13.4588L13.5501 4.52905" stroke="#333333" stroke-width="2" stroke-linecap="round"/>
<path d="M4.36719 13.712L17.4392 13.3679" stroke="#333333" stroke-width="2" stroke-linecap="round"/>
<path d="M14.6965 10.4535C15.087 10.0629 15.087 9.42975 14.6965 9.03925C14.306 8.6487 13.6728 8.6487 13.2823 9.03925C12.8918 9.42975 12.8918 10.0629 13.2823 10.4535C13.6728 10.844 14.306 10.844 14.6965 10.4535Z" fill="#333333"/>
<path d="M11.8679 11.8678C12.2584 11.4773 12.2584 10.8441 11.8679 10.4536C11.4774 10.063 10.8442 10.063 10.4537 10.4536C10.0631 10.8441 10.0631 11.4773 10.4537 11.8678C10.8442 12.2583 11.4774 12.2583 11.8679 11.8678Z" fill="#333333"/>
<path d="M11.7822 2.76123L21.6817 12.6607" stroke="#333333" stroke-width="2" stroke-linecap="round"/>
</g>
<defs>
<clipPath id="clip0_2_21027">
<rect width="24" height="24" fill="white"/>
</clipPath>
</defs>
</svg>
