<svg width="24" height="24" viewBox="0 0 24 24" fill="none" xmlns="http://www.w3.org/2000/svg">
<path d="M12 22C16.6944 22 20.5 18.1944 20.5 13.5C20.5 8.8056 16.6944 5 12 5C7.3056 5 3.5 8.8056 3.5 13.5C3.5 18.1944 7.3056 22 12 22Z" stroke="#333333" stroke-width="2"/>
<path d="M9.5 2H14.5" stroke="#333333" stroke-width="2" stroke-linecap="round" stroke-linejoin="round"/>
<path d="M10 13.5L12 10L14 13.5L12 17L10 13.5Z" stroke="#333333" stroke-width="2" stroke-linecap="round" stroke-linejoin="round"/>
<path d="M3.5 13.5H5.5" stroke="#333333" stroke-width="2" stroke-linecap="round" stroke-linejoin="round"/>
<path d="M18.5 13.5H20.5" stroke="#333333" stroke-width="2" stroke-linecap="round" stroke-linejoin="round"/>
<path d="M12 5V7" stroke="#333333" stroke-width="2" stroke-linecap="round" stroke-linejoin="round"/>
<path d="M12 20V22" stroke="#333333" stroke-width="2" stroke-linecap="round" stroke-linejoin="round"/>
<path d="M8.75 21.3564C9.7512 21.7711 10.8489 21.9999 12 21.9999C13.1511 21.9999 14.2488 21.7711 15.25 21.3564" stroke="#333333" stroke-width="2" stroke-linecap="round" stroke-linejoin="round"/>
<path d="M4.14346 10.25C3.72882 11.2512 3.5 12.3489 3.5 13.5C3.5 14.6511 3.72882 15.7488 4.14346 16.75" stroke="#333333" stroke-width="2" stroke-linecap="round" stroke-linejoin="round"/>
<path d="M19.8564 10.25C20.2711 11.2512 20.4999 12.3489 20.4999 13.5C20.4999 14.6511 20.2711 15.7488 19.8564 16.75" stroke="#333333" stroke-width="2" stroke-linecap="round" stroke-linejoin="round"/>
<path d="M8.50391 5.75C9.57026 5.2682 10.7539 5 12.0001 5C13.2463 5 14.4299 5.2682 15.4962 5.75" stroke="#333333" stroke-width="2" stroke-linecap="round" stroke-linejoin="round"/>
</svg>
