<svg width="24" height="24" viewBox="0 0 24 24" fill="none" xmlns="http://www.w3.org/2000/svg">
<g clip-path="url(#clip0_2_21017)">
<path d="M24 0H0V24H24V0Z" fill="white" fill-opacity="0.01"/>
<path d="M5.42895 4.92896C3.61929 6.7386 2.5 9.2386 2.5 12C2.5 14.7615 3.61929 17.2615 5.42895 19.0711" stroke="#333333" stroke-width="2" stroke-linecap="round"/>
<path d="M19.571 19.0711C21.3807 17.2615 22.5 14.7615 22.5 12C22.5 9.2386 21.3807 6.7386 19.571 4.92896" stroke="#333333" stroke-width="2" stroke-linecap="round"/>
<path d="M17.4497 16.9498C18.7165 15.683 19.5 13.933 19.5 12C19.5 10.067 18.7165 8.31704 17.4497 7.05029" stroke="#333333" stroke-width="2" stroke-linecap="round"/>
<path d="M7.55025 7.05029C6.2835 8.31704 5.5 10.067 5.5 12C5.5 13.933 6.2835 15.683 7.55025 16.9498" stroke="#333333" stroke-width="2" stroke-linecap="round"/>
<path d="M14.0909 10C15.1453 10 16 10.8059 16 11.8C16 13.0941 14.7273 14.2 14.0909 14.8C13.6667 15.2 13.1363 15.6 12.5 16C11.8637 15.6 11.3333 15.2 10.9091 14.8C10.2727 14.2 9 13.0941 9 11.8C9 10.8059 9.85475 10 10.9091 10C11.5731 10 12.158 10.3197 12.5 10.8047C12.842 10.3197 13.4269 10 14.0909 10Z" stroke="#333333" stroke-width="2" stroke-linejoin="round"/>
</g>
<defs>
<clipPath id="clip0_2_21017">
<rect width="24" height="24" fill="white"/>
</clipPath>
</defs>
</svg>
