<svg width="24" height="24" viewBox="0 0 24 24" fill="none" xmlns="http://www.w3.org/2000/svg">
<g clip-path="url(#clip0_2_21558)">
<path d="M24 0H0V24H24V0Z" fill="white" fill-opacity="0.01"/>
<path d="M21.5 2H2.5C2.22386 2 2 2.24421 2 2.54545V7.45455C2 7.7558 2.22386 8 2.5 8H21.5C21.7761 8 22 7.7558 22 7.45455V2.54545C22 2.24421 21.7761 2 21.5 2Z" stroke="#333333" stroke-width="2" stroke-linejoin="round"/>
<path d="M21.5 16H2.5C2.22386 16 2 16.2442 2 16.5455V21.4545C2 21.7558 2.22386 22 2.5 22H21.5C21.7761 22 22 21.7558 22 21.4545V16.5455C22 16.2442 21.7761 16 21.5 16Z" stroke="#333333" stroke-width="2" stroke-linejoin="round"/>
<path d="M7 8V12.0042L17 12.0086V16" stroke="#333333" stroke-width="2" stroke-linecap="round" stroke-linejoin="round"/>
<path d="M9 19H15" stroke="#333333" stroke-width="2" stroke-linecap="round" stroke-linejoin="round"/>
<path d="M9 5H15" stroke="#333333" stroke-width="2" stroke-linecap="round" stroke-linejoin="round"/>
</g>
<defs>
<clipPath id="clip0_2_21558">
<rect width="24" height="24" fill="white"/>
</clipPath>
</defs>
</svg>
