<svg width="24" height="24" viewBox="0 0 24 24" fill="none" xmlns="http://www.w3.org/2000/svg">
<g clip-path="url(#clip0_2_20998)">
<path d="M24 0H0V24H24V0Z" fill="white" fill-opacity="0.01"/>
<path fill-rule="evenodd" clip-rule="evenodd" d="M4 6C5.10455 6 6 5.10455 6 4C6 2.89543 5.10455 2 4 2C2.89543 2 2 2.89543 2 4C2 5.10455 2.89543 6 4 6Z" stroke="#333333" stroke-width="2" stroke-linecap="round" stroke-linejoin="round"/>
<path fill-rule="evenodd" clip-rule="evenodd" d="M5 21C6.65685 21 8 19.6568 8 18C8 16.3432 6.65685 15 5 15C3.34315 15 2 16.3432 2 18C2 19.6568 3.34315 21 5 21Z" stroke="#333333" stroke-width="2" stroke-linecap="round" stroke-linejoin="round"/>
<path fill-rule="evenodd" clip-rule="evenodd" d="M19 22C20.6568 22 22 20.6568 22 19C22 17.3432 20.6568 16 19 16C17.3432 16 16 17.3432 16 19C16 20.6568 17.3432 22 19 22Z" stroke="#333333" stroke-width="2" stroke-linecap="round" stroke-linejoin="round"/>
<path fill-rule="evenodd" clip-rule="evenodd" d="M11 14C13.2092 14 15 12.2092 15 10C15 7.79085 13.2092 6 11 6C8.79085 6 7 7.79085 7 10C7 12.2092 8.79085 14 11 14Z" stroke="#333333" stroke-width="2" stroke-linecap="round" stroke-linejoin="round"/>
<path fill-rule="evenodd" clip-rule="evenodd" d="M17 6C18.1046 6 19 5.10455 19 4C19 2.89543 18.1046 2 17 2C15.8954 2 15 2.89543 15 4C15 5.10455 15.8954 6 17 6Z" stroke="#333333" stroke-width="2" stroke-linecap="round" stroke-linejoin="round"/>
<path d="M5.5 5.5L7.5 7.5" stroke="#333333" stroke-width="2" stroke-linecap="round" stroke-linejoin="round"/>
<path d="M15 6L14 7" stroke="#333333" stroke-width="2" stroke-linecap="round" stroke-linejoin="round"/>
<path d="M17 16.75L14 13" stroke="#333333" stroke-width="2" stroke-linecap="round" stroke-linejoin="round"/>
<path d="M7 15.5L9 13.5" stroke="#333333" stroke-width="2" stroke-linecap="round" stroke-linejoin="round"/>
</g>
<defs>
<clipPath id="clip0_2_20998">
<rect width="24" height="24" fill="white"/>
</clipPath>
</defs>
</svg>
