<svg width="24" height="24" viewBox="0 0 24 24" fill="none" xmlns="http://www.w3.org/2000/svg">
<path d="M2.5 12H21.5" stroke="#333333" stroke-width="2" stroke-linecap="round" stroke-linejoin="round"/>
<path d="M14 2H10C9.4477 2 9 2.44771 9 3V7C9 7.5523 9.4477 8 10 8H14C14.5523 8 15 7.5523 15 7V3C15 2.44771 14.5523 2 14 2Z" stroke="#333333" stroke-width="2" stroke-linejoin="round"/>
<path d="M8 16H4C3.44771 16 3 16.4477 3 17V21C3 21.5523 3.44771 22 4 22H8C8.5523 22 9 21.5523 9 21V17C9 16.4477 8.5523 16 8 16Z" stroke="#333333" stroke-width="2" stroke-linejoin="round"/>
<path d="M20 16H16C15.4477 16 15 16.4477 15 17V21C15 21.5523 15.4477 22 16 22H20C20.5523 22 21 21.5523 21 21V17C21 16.4477 20.5523 16 20 16Z" stroke="#333333" stroke-width="2" stroke-linejoin="round"/>
<path d="M12 12V8" stroke="#333333" stroke-width="2" stroke-linecap="round" stroke-linejoin="round"/>
<path d="M18 16V12" stroke="#333333" stroke-width="2" stroke-linecap="round" stroke-linejoin="round"/>
<path d="M6 16V12" stroke="#333333" stroke-width="2" stroke-linecap="round" stroke-linejoin="round"/>
</svg>
