<svg width="24" height="24" viewBox="0 0 24 24" fill="none" xmlns="http://www.w3.org/2000/svg">
<path d="M4 7C4 6.4477 4.44771 6 5 6H19C19.5523 6 20 6.4477 20 7V15C20 15.5523 19.5523 16 19 16H5C4.44771 16 4 15.5523 4 15V7Z" stroke="#333333" stroke-width="2" stroke-linejoin="round"/>
<path d="M8 6V16" stroke="#333333" stroke-width="2" stroke-linecap="round" stroke-linejoin="round"/>
<path d="M16 6V16" stroke="#333333" stroke-width="2" stroke-linecap="round" stroke-linejoin="round"/>
<path d="M14 6H18" stroke="#333333" stroke-width="2" stroke-linecap="round" stroke-linejoin="round"/>
<path d="M6 6H10" stroke="#333333" stroke-width="2" stroke-linecap="round" stroke-linejoin="round"/>
<path d="M6 16H10" stroke="#333333" stroke-width="2" stroke-linecap="round" stroke-linejoin="round"/>
<path d="M14 16H18" stroke="#333333" stroke-width="2" stroke-linecap="round" stroke-linejoin="round"/>
<path d="M2 19H22" stroke="#333333" stroke-width="2" stroke-linecap="round" stroke-linejoin="round"/>
<path d="M9 19V20" stroke="#333333" stroke-width="2" stroke-linecap="round"/>
<path d="M6 19V20" stroke="#333333" stroke-width="2" stroke-linecap="round"/>
<path d="M3 19V20" stroke="#333333" stroke-width="2" stroke-linecap="round"/>
<path d="M12 19V20" stroke="#333333" stroke-width="2" stroke-linecap="round"/>
<path d="M15 19V20" stroke="#333333" stroke-width="2" stroke-linecap="round"/>
<path d="M18 19V20" stroke="#333333" stroke-width="2" stroke-linecap="round"/>
<path d="M21 19V20" stroke="#333333" stroke-width="2" stroke-linecap="round"/>
<path d="M15 6V3H9V6" stroke="#333333" stroke-width="2" stroke-linecap="round" stroke-linejoin="round"/>
</svg>
