<svg width="24" height="24" viewBox="0 0 24 24" fill="none" xmlns="http://www.w3.org/2000/svg">
<path d="M18.5 2H5.5C4.94772 2 4.5 2.44772 4.5 3V21C4.5 21.5523 4.94772 22 5.5 22H18.5C19.0523 22 19.5 21.5523 19.5 21V3C19.5 2.44772 19.0523 2 18.5 2Z" stroke="#333333" stroke-width="2"/>
<path d="M12 18.5C13.6569 18.5 15 17.1569 15 15.5C15 13.8431 13.6569 12.5 12 12.5C10.3431 12.5 9 13.8431 9 15.5C9 17.1569 10.3431 18.5 12 18.5Z" stroke="#333333" stroke-width="2"/>
<path d="M9 6H10.5" stroke="#333333" stroke-width="2" stroke-linecap="round" stroke-linejoin="round"/>
<path d="M9 9H10.5" stroke="#333333" stroke-width="2" stroke-linecap="round" stroke-linejoin="round"/>
<path d="M13.5 9H15" stroke="#333333" stroke-width="2" stroke-linecap="round" stroke-linejoin="round"/>
</svg>
