<svg width="24" height="24" viewBox="0 0 24 24" fill="none" xmlns="http://www.w3.org/2000/svg">
<g clip-path="url(#clip0_2_20986)">
<path d="M24 0H0V24H24V0Z" fill="white" fill-opacity="0.01"/>
<path fill-rule="evenodd" clip-rule="evenodd" d="M5 22H19V10.4737C19 7.45065 15.866 5 12 5C8.13401 5 5 7.45065 5 10.4737V22Z" stroke="#333333" stroke-width="2" stroke-linecap="round" stroke-linejoin="round"/>
<path d="M19 11.0218C19 10.9 19 10.7173 19 10.4737C19 7.45065 15.866 5 12 5C8.13401 5 5 7.45065 5 10.4737C5 10.7166 5 10.8988 5 11.0202L19 11.0218Z" stroke="#333333" stroke-width="2" stroke-linejoin="round"/>
<path d="M2 11H22" stroke="#333333" stroke-width="2" stroke-linecap="round" stroke-linejoin="round"/>
<path d="M10.5 2H13.5" stroke="#333333" stroke-width="2" stroke-linecap="round" stroke-linejoin="round"/>
</g>
<defs>
<clipPath id="clip0_2_20986">
<rect width="24" height="24" fill="white"/>
</clipPath>
</defs>
</svg>
