<svg width="24" height="24" viewBox="0 0 24 24" fill="none" xmlns="http://www.w3.org/2000/svg">
<path d="M9.5 20.5C6.75 19.125 4.00064 15.5 2.50031 13C0.999979 10.5 4.1566 8.15625 6.0002 10C7.8438 11.8438 8.0002 12 8.0002 12V3.75001C8.0002 2.78351 8.7837 2 9.7502 2C10.7167 2 11.5002 2.78351 11.5002 3.75001V8.5C11.5002 7.5335 12.2837 6.75 13.2502 6.75C14.2167 6.75 15.0002 7.5335 15.0002 8.5V9.25C15.0002 8.2835 15.7837 7.5 16.7502 7.5C17.7167 7.5 18.5002 8.2835 18.5002 9.25V6.75C18.5002 5.7835 19.2837 5 20.2502 5C21.2167 5 22.0002 5.7835 22.0002 6.75V15.0575C22.0002 16.0061 21.7892 16.9519 21.2134 17.7058C20.5663 18.5528 19.5089 19.6769 18 20.5C15.2499 22 12.25 21.875 9.5 20.5Z" stroke="#333333" stroke-width="2" stroke-linecap="round" stroke-linejoin="round"/>
</svg>
