<svg width="24" height="24" viewBox="0 0 24 24" fill="none" xmlns="http://www.w3.org/2000/svg">
<g clip-path="url(#clip0_2_20069)">
<path d="M0 0H24V24H0V0Z" fill="white" fill-opacity="0.01"/>
<path d="M24 0H0V24H24V0Z" fill="white" fill-opacity="0.01"/>
<path d="M6 4.96352V3.5C6 2.67158 6.67155 2 7.5 2H20.5C21.3285 2 22 2.67158 22 3.5V16.5C22 17.3285 21.3285 18 20.5 18H19.0087" stroke="#333333" stroke-width="2"/>
<path d="M17.5 5H3.5C2.67157 5 2 5.67157 2 6.5V20.5C2 21.3284 2.67157 22 3.5 22H17.5C18.3284 22 19 21.3284 19 20.5V6.5C19 5.67157 18.3284 5 17.5 5Z" stroke="#333333" stroke-width="2" stroke-linejoin="round"/>
<path d="M9.21985 11.555L11.8661 8.80021C12.5919 8.07436 13.7847 8.09036 14.5302 8.83591C15.2758 9.58146 15.2918 10.7742 14.566 11.5001L13.6109 12.5115" stroke="#333333" stroke-width="2" stroke-linecap="round" stroke-linejoin="round"/>
<path d="M6.73311 14.3735C6.47796 14.6287 5.95036 15.1382 5.95036 15.1382C5.22451 15.864 5.20481 17.1577 5.95036 17.9032C6.69591 18.6488 7.88866 18.6648 8.61451 17.9389L11.1966 15.5948" stroke="#333333" stroke-width="2" stroke-linecap="round" stroke-linejoin="round"/>
<path d="M9.33166 14.1642C8.98536 13.8179 8.79646 13.3751 8.76616 12.9274C8.73131 12.4113 8.90726 11.8887 9.29591 11.5" stroke="#333333" stroke-width="2" stroke-linecap="round" stroke-linejoin="round"/>
<path d="M11.161 12.9307C11.9066 13.6762 11.9226 14.869 11.1967 15.5948" stroke="#333333" stroke-width="2" stroke-linecap="round" stroke-linejoin="round"/>
</g>
<defs>
<clipPath id="clip0_2_20069">
<rect width="24" height="24" fill="white"/>
</clipPath>
</defs>
</svg>
