<svg width="24" height="24" viewBox="0 0 24 24" fill="none" xmlns="http://www.w3.org/2000/svg">
<g clip-path="url(#clip0_2_21381)">
<path d="M24 0H0V24H24V0Z" fill="white" fill-opacity="0.01"/>
<path d="M3.81738 17.75C4.16894 18.2494 4.56505 18.7151 4.99994 19.1415C5.459 19.5915 5.96125 19.9976 6.49995 20.353" stroke="#333333" stroke-width="2" stroke-linecap="round" stroke-linejoin="round"/>
<path d="M13.9342 21.813C13.3084 21.9356 12.6617 21.9999 11.9999 21.9999C11.3382 21.9999 10.6915 21.9356 10.0657 21.813" stroke="#333333" stroke-width="2" stroke-linecap="round" stroke-linejoin="round"/>
<path d="M21.7745 14.1214C21.9222 13.4377 22 12.7279 22 12C22 11.2873 21.9254 10.5919 21.7837 9.92139" stroke="#333333" stroke-width="2" stroke-linecap="round" stroke-linejoin="round"/>
<path d="M20.1826 6.24994C19.831 5.75059 19.4349 5.28484 19 4.85852C18.541 4.40849 18.0386 4.00238 17.5 3.64697" stroke="#333333" stroke-width="2" stroke-linecap="round" stroke-linejoin="round"/>
<path d="M10.0776 2.18461C10.6997 2.06347 11.3425 2 12 2C12.6576 2 13.3004 2.06347 13.9225 2.18461" stroke="#333333" stroke-width="2" stroke-linecap="round" stroke-linejoin="round"/>
<path d="M3.81738 6.24994C4.16894 5.75059 4.56505 5.28484 4.99994 4.85852C5.459 4.40849 5.96125 4.00238 6.49995 3.64697" stroke="#333333" stroke-width="2" stroke-linecap="round" stroke-linejoin="round"/>
<path d="M20.2501 17.647C19.8985 18.1464 19.5024 18.6121 19.0675 19.0384C18.6085 19.4885 18.1062 19.8946 17.5675 20.25" stroke="#333333" stroke-width="2" stroke-linecap="round" stroke-linejoin="round"/>
<path d="M8 12H2" stroke="#333333" stroke-width="2" stroke-linecap="round" stroke-linejoin="round"/>
<path d="M5 18.9999L9.17155 14.8284" stroke="#333333" stroke-width="2" stroke-linecap="round" stroke-linejoin="round"/>
<path d="M12 16V22" stroke="#333333" stroke-width="2" stroke-linecap="round" stroke-linejoin="round"/>
<path d="M19 18.9999L14.8284 14.8284" stroke="#333333" stroke-width="2" stroke-linecap="round" stroke-linejoin="round"/>
<path d="M16 12H22" stroke="#333333" stroke-width="2" stroke-linecap="round" stroke-linejoin="round"/>
<path d="M19 5L14.8284 9.17155" stroke="#333333" stroke-width="2" stroke-linecap="round" stroke-linejoin="round"/>
<path d="M12 8V2" stroke="#333333" stroke-width="2" stroke-linecap="round" stroke-linejoin="round"/>
<path d="M5 5L9.17155 9.17155" stroke="#333333" stroke-width="2" stroke-linecap="round" stroke-linejoin="round"/>
<path d="M2.21633 9.92139C2.07457 10.5919 2 11.2873 2 12C2 12.7128 2.07457 13.4081 2.21633 14.0787" stroke="#333333" stroke-width="2" stroke-linecap="round" stroke-linejoin="round"/>
<path d="M12 16C14.2091 16 16 14.2091 16 12C16 9.79086 14.2091 8 12 8C9.79086 8 8 9.79086 8 12C8 14.2091 9.79086 16 12 16Z" stroke="#333333" stroke-width="2" stroke-linecap="round" stroke-linejoin="round"/>
</g>
<defs>
<clipPath id="clip0_2_21381">
<rect width="24" height="24" fill="white"/>
</clipPath>
</defs>
</svg>
