<svg width="24" height="24" viewBox="0 0 24 24" fill="none" xmlns="http://www.w3.org/2000/svg">
<path d="M8.05029 12.9141L19.364 3.01462C19.364 3.01462 20.4247 1.95396 21.4853 3.01462C22.546 4.07528 21.4853 5.13595 21.4853 5.13595L11.5858 16.4497L8.05029 12.9141Z" stroke="#333333" stroke-width="2" stroke-linejoin="round"/>
<path d="M11.2323 10.4392L14.0608 13.2677" stroke="#333333" stroke-width="2" stroke-linecap="round" stroke-linejoin="round"/>
<path d="M2.74707 15.3889L8.05035 12.9141L11.5859 16.4496L9.11105 21.7529C9.11105 21.7529 6.63615 22.1065 4.51484 19.9851C2.39352 17.8638 2.74707 15.3889 2.74707 15.3889Z" stroke="#333333" stroke-width="2" stroke-linejoin="round"/>
<path d="M3.45422 18.2174L5.92912 17.1567" stroke="#333333" stroke-width="2" stroke-linecap="round" stroke-linejoin="round"/>
<path d="M6.28259 21.0458L6.98969 19.6316" stroke="#333333" stroke-width="2" stroke-linecap="round" stroke-linejoin="round"/>
<path d="M9.4646 11.6768L10.8788 10.4394L12.293 9.2019" stroke="#333333" stroke-width="2" stroke-linejoin="round"/>
<path d="M15.2981 12.207L14.0607 13.6213L12.8232 15.0355" stroke="#333333" stroke-width="2" stroke-linejoin="round"/>
</svg>
