<svg width="24" height="24" viewBox="0 0 24 24" fill="none" xmlns="http://www.w3.org/2000/svg">
<path d="M2.5 8.49989C2.5 5.99989 3 0.999891 8.5004 2.99989C8.9732 4.89112 7.5 8.49989 2.5 8.49989Z" stroke="#333333" stroke-width="2" stroke-linecap="round" stroke-linejoin="round"/>
<path d="M21.5 8.49989C21.5003 5.99989 21 0.999891 15.5 2.99989C15.0272 4.89112 16.4997 8.49989 21.5 8.49989Z" stroke="#333333" stroke-width="2" stroke-linecap="round" stroke-linejoin="round"/>
<path d="M15 11H9C6.23858 11 4 13.2386 4 16C4 18.7614 6.23858 21 9 21H15C17.7614 21 20 18.7614 20 16C20 13.2386 17.7614 11 15 11Z" stroke="#333333" stroke-width="2" stroke-linecap="round" stroke-linejoin="round"/>
<path d="M13.5 11V9" stroke="#333333" stroke-width="2" stroke-linecap="round" stroke-linejoin="round"/>
<path d="M10.5 11V9" stroke="#333333" stroke-width="2" stroke-linecap="round" stroke-linejoin="round"/>
<path d="M21.5 8.5C22 10 22 13 20 14.5" stroke="#333333" stroke-width="2" stroke-linecap="round" stroke-linejoin="round"/>
<path d="M2.5 8.5C2 10 2.5 12.5 4 14.5" stroke="#333333" stroke-width="2" stroke-linecap="round" stroke-linejoin="round"/>
<path d="M15 21H22L20 16.5" stroke="#333333" stroke-width="2" stroke-linecap="round" stroke-linejoin="round"/>
<path d="M9 21H2L4 16.5" stroke="#333333" stroke-width="2" stroke-linecap="round" stroke-linejoin="round"/>
</svg>
