<svg width="24" height="24" viewBox="0 0 24 24" fill="none" xmlns="http://www.w3.org/2000/svg">
<g clip-path="url(#clip0_2_21466)">
<path d="M24 0H0V24H24V0Z" fill="white" fill-opacity="0.01"/>
<path d="M21 19.5V4.50001C21 3.67158 20.3284 3.00002 19.5 3.00002L4.5 3C3.67157 3 3 3.67157 3 4.5L3.00003 19.5C3.00003 20.3285 3.6716 21 4.50003 21H19.5C20.3284 21 21 20.3285 21 19.5Z" stroke="#333333" stroke-width="2" stroke-linejoin="round"/>
<path d="M11.9997 9.15796L10.5519 12.1132L7.26318 12.5901L9.64553 14.9192L9.07603 18.158L11.9997 16.5994L14.9239 18.158L14.3586 14.9192L16.7368 12.5901L13.4664 12.1132L11.9997 9.15796Z" stroke="#333333" stroke-width="2" stroke-linejoin="round"/>
<path d="M9.15796 6.31592H14.8422" stroke="#333333" stroke-width="2" stroke-linecap="round" stroke-linejoin="round"/>
</g>
<defs>
<clipPath id="clip0_2_21466">
<rect width="24" height="24" fill="white"/>
</clipPath>
</defs>
</svg>
