<svg width="24" height="24" viewBox="0 0 24 24" fill="none" xmlns="http://www.w3.org/2000/svg">
<path d="M3.49994 14.5C3.49994 14.5 3.47813 16.3738 4.22813 18.6238C4.66426 19.9322 5.18494 20.7333 5.83929 21.1256C6.67784 21.6283 7.53779 20.6358 8.02889 19.7904C8.51004 18.9623 9.21669 18.1138 9.77384 17.5" stroke="#333333" stroke-width="2" stroke-linecap="round" stroke-linejoin="round"/>
<path d="M16.5 3.95605C17.8114 4.17555 19.2657 4.45863 19.8129 4.70965C20.5258 5.03671 21.2428 5.70311 21.5286 6.41541C21.7941 7.07741 21.105 7.58541 20.482 7.93261C19.7796 8.32396 19.0476 8.93747 18.4493 9.50016" stroke="#333333" stroke-width="2" stroke-linecap="round" stroke-linejoin="round"/>
<path d="M12.101 14.8881L10.85 15.7569C10.6212 15.9158 10.4418 16.1358 10.3321 16.3918C10.0101 17.143 9.14165 17.493 8.38875 17.1749L4.40147 15.4902C3.66529 15.1792 3.30892 14.34 3.59636 13.5942L3.82165 13.0098C4.26154 11.8686 5.0657 10.9044 6.10935 10.2668" stroke="#333333" stroke-width="2" stroke-linecap="round" stroke-linejoin="round"/>
<path d="M15.3599 12.2541L16.0549 11.5021L16.511 11.0086C16.6685 10.8382 16.8602 10.7028 17.0736 10.6114C17.8754 10.2677 18.272 9.35996 17.9794 8.53811L16.5533 4.53313C16.3154 3.86518 15.6154 3.4809 14.9242 3.63888L14.3148 3.77815C12.9875 4.0815 11.8238 4.87512 11.0568 6.00006" stroke="#333333" stroke-width="2" stroke-linecap="round" stroke-linejoin="round"/>
<path d="M6.70541 11.5395C5.88726 10.9551 5.66546 9.83296 6.19666 8.97926C6.97141 7.73421 8.02586 6.68221 9.27361 5.91186C10.1099 5.39551 11.2019 5.60226 11.7916 6.38851L14.7576 10.3432C15.4368 11.2488 15.2297 12.537 14.3009 13.1842L14.1809 13.2678C14.0305 13.3726 13.8951 13.4976 13.7787 13.6393L13.437 14.0554C12.7691 14.8686 11.5853 15.0251 10.729 14.4135L6.70541 11.5395Z" stroke="#333333" stroke-width="2"/>
</svg>
