<svg width="24" height="24" viewBox="0 0 24 24" fill="none" xmlns="http://www.w3.org/2000/svg">
<g clip-path="url(#clip0_2_21709)">
<path d="M24 0H0V24H24V0Z" fill="white" fill-opacity="0.01"/>
<path d="M9.72725 13.2222C8.8182 14.1111 7.9091 15 6.0909 15C4.27272 15 2 13.6667 2 11C2 8.33335 4.27272 7 6.0909 7C8.8182 7 10.1818 8.7778 12 11C13.8182 13.2222 15.1818 15 17.9091 15C19.7272 15 22 13.6667 22 11C22 8.33335 19.7272 7 17.9091 7C16.0909 7 14.7272 8.33335 14.2727 8.7778" stroke="#333333" stroke-width="2" stroke-linecap="round" stroke-linejoin="round"/>
</g>
<defs>
<clipPath id="clip0_2_21709">
<rect width="24" height="24" fill="white"/>
</clipPath>
</defs>
</svg>
