<svg width="24" height="24" viewBox="0 0 24 24" fill="none" xmlns="http://www.w3.org/2000/svg">
<path d="M19.0001 20.9999L20.6955 16.3375C20.8691 15.8601 20.6572 15.3285 20.2029 15.1013L12.4473 11.2235C12.1658 11.0827 11.8344 11.0827 11.5529 11.2235L3.79722 15.1013C3.3429 15.3285 3.13105 15.8601 3.30464 16.3375L5.00006 20.9999" stroke="#333333" stroke-width="2" stroke-linejoin="round"/>
<path d="M17.5 7H6.5C5.9477 7 5.5 7.4477 5.5 8V14L11.5809 11.1934C11.8468 11.0707 12.1532 11.0707 12.4191 11.1934L18.5 14V8C18.5 7.4477 18.0523 7 17.5 7Z" stroke="#333333" stroke-width="2" stroke-linecap="round" stroke-linejoin="round"/>
<path d="M14.5 7V3C14.5 2.44771 14.0523 2 13.5 2H10.5C9.9477 2 9.5 2.44771 9.5 3V7" stroke="#333333" stroke-width="2" stroke-linecap="round" stroke-linejoin="round"/>
<path d="M12 16V20" stroke="#333333" stroke-width="2" stroke-linecap="round"/>
<path d="M2 22C4 22 4 21 5.5 21C7 21 7 22 8.5 22C10 22 10.25 21 12 21C13.75 21 14 22 15.5 22C17 22 17 21 18.5 21C20 21 20 22 22 22" stroke="#333333" stroke-width="2" stroke-linecap="round" stroke-linejoin="round"/>
</svg>
