<svg width="24" height="24" viewBox="0 0 24 24" fill="none" xmlns="http://www.w3.org/2000/svg">
<path d="M5 8.5C5 8.5 18 8.5 19 8.5C20 8.5 22 8.5 22 10C22 11.5 20 11.5 19 11.5V20.5C19 21.0523 18.5523 21.5 18 21.5H6C5.4477 21.5 5 21.0523 5 20.5V11.5C4 11.5 2 11.5 2 10C2 8.5 4 8.5 5 8.5Z" stroke="#333333" stroke-width="2" stroke-linecap="round" stroke-linejoin="round"/>
<path d="M20.5 8.5C20.5 5.56355 17.7294 4.65934 14 4V3C14 2.44771 13.5523 2 13 2H11C10.4477 2 10 2.44771 10 3V4C6.27065 4.65934 3.5 5.56355 3.5 8.5" stroke="#333333" stroke-width="2" stroke-linecap="round" stroke-linejoin="round"/>
</svg>
