<svg width="24" height="24" viewBox="0 0 24 24" fill="none" xmlns="http://www.w3.org/2000/svg">
<path d="M7 12.5C7 13.5 7.5357 16 14.5 16C21.4643 16 22 13.5 22 12.5C22 11.5 22 5 22 5H14.5H7C7 5 7 11.5 7 12.5Z" stroke="#333333" stroke-width="2" stroke-linejoin="round"/>
<path d="M14.5 8H11.5V10.5L13 12L14.5 10.5V8Z" stroke="#333333" stroke-width="2" stroke-linecap="round" stroke-linejoin="round"/>
<path d="M13 8V5" stroke="#333333" stroke-width="2" stroke-linecap="round" stroke-linejoin="round"/>
<path d="M7.5 20H21.5" stroke="#333333" stroke-width="2" stroke-linecap="round" stroke-linejoin="round"/>
<path d="M7 7H2C2 7 2.5 9.5 2.99955 11C3.49911 12.5 7 12 7 12" stroke="#333333" stroke-width="2" stroke-linejoin="round"/>
</svg>
