<svg width="24" height="24" viewBox="0 0 24 24" fill="none" xmlns="http://www.w3.org/2000/svg">
<g clip-path="url(#clip0_2_20919)">
<path d="M24 0H0V24H24V0Z" fill="white" fill-opacity="0.01"/>
<path d="M4 8.506C4 8.22655 4.22655 8 4.50602 8H16.494C16.7734 8 17 8.22655 17 8.506V15.5C17 19.0898 14.0898 22 10.5 22C6.91015 22 4 19.0898 4 15.5V8.506Z" stroke="#333333" stroke-width="2"/>
<path d="M17 11.5H4V15.5H17V11.5Z" stroke="#333333" stroke-width="2" stroke-linecap="round" stroke-linejoin="round"/>
<path d="M10.5 2V5" stroke="#333333" stroke-width="2" stroke-linecap="round" stroke-linejoin="round"/>
<path d="M6.5 3V4" stroke="#333333" stroke-width="2" stroke-linecap="round" stroke-linejoin="round"/>
<path d="M14.5 3V4" stroke="#333333" stroke-width="2" stroke-linecap="round" stroke-linejoin="round"/>
<path d="M17 17C18.933 17 20.5 15.433 20.5 13.5C20.5 11.567 18.933 10 17 10" stroke="#333333" stroke-width="2" stroke-linecap="round"/>
</g>
<defs>
<clipPath id="clip0_2_20919">
<rect width="24" height="24" fill="white"/>
</clipPath>
</defs>
</svg>
