<svg width="24" height="24" viewBox="0 0 24 24" fill="none" xmlns="http://www.w3.org/2000/svg">
<g clip-path="url(#clip0_2_21565)">
<path d="M24 0H0V24H24V0Z" fill="white" fill-opacity="0.01"/>
<path fill-rule="evenodd" clip-rule="evenodd" d="M4.30459 18.4933C2.6609 16.6891 1.66096 14.3073 1.66096 11.6957C1.66096 6.06351 6.3092 1.4978 12.043 1.4978C17.777 1.4978 22.4252 6.06351 22.4252 11.6957C22.4252 15.678 20.1005 19.1258 16.712 20.8046C14.6388 21.8855 12.2736 22.4978 9.7629 22.4978C6.68655 22.4978 3.8287 21.5785 1.45874 20.0044C1.45874 20.0044 3.04803 19.831 4.30418 18.4937L4.30459 18.4933ZM16.9198 16.7427C19.6059 14.0568 19.6059 9.70206 16.9198 7.01606C15.6743 5.77066 14.0701 5.10311 12.4397 5.01276V5.01236C12.3905 3.78914 13.049 2.96304 13.0521 2.95902L13.0518 2.95908L13.0522 2.95851C11.1784 3.32048 9.38915 4.22701 7.9382 5.67796C6.82545 6.79066 6.03315 8.10246 5.5608 9.49856C5.62955 9.31641 5.7062 9.13661 5.7907 8.95961C5.69325 9.20831 5.60515 9.46246 5.5255 9.72246C4.73888 12.1104 5.2941 14.8436 7.1932 16.7427C9.8792 19.4287 14.2339 19.4287 16.9198 16.7427Z" fill="#333333"/>
<path fill-rule="evenodd" clip-rule="evenodd" d="M8.56494 11.1724V12.0269V12.596C8.56494 13.1641 9.02544 13.6246 9.59359 13.6246C10.1617 13.6246 10.6221 13.1641 10.6221 12.596V12.026V11.1724C10.6221 10.6044 10.1617 10.1438 9.59359 10.1438C9.02544 10.1438 8.56494 10.6044 8.56494 11.1724Z" fill="#333333"/>
<path fill-rule="evenodd" clip-rule="evenodd" d="M13.6565 11.1724V12.0269V12.596C13.6565 13.1641 14.117 13.6246 14.6851 13.6246C15.2532 13.6246 15.7137 13.1641 15.7137 12.596V12.026V11.1724C15.7137 10.6044 15.2532 10.1438 14.6851 10.1438C14.117 10.1438 13.6565 10.6044 13.6565 11.1724Z" fill="#333333"/>
</g>
<defs>
<clipPath id="clip0_2_21565">
<rect width="24" height="24" fill="white"/>
</clipPath>
</defs>
</svg>
