<svg width="24" height="24" viewBox="0 0 24 24" fill="none" xmlns="http://www.w3.org/2000/svg">
<g clip-path="url(#clip0_2_20904)">
<path d="M24 0H0V24H24V0Z" fill="white" fill-opacity="0.01"/>
<path d="M6.5 17.5H3.5V20.5" stroke="#333333" stroke-width="2" stroke-linecap="round" stroke-linejoin="round"/>
<path d="M20.5 20.5H17.5V17.5" stroke="#333333" stroke-width="2" stroke-linecap="round" stroke-linejoin="round"/>
<path d="M17.5 6.5H20.5V3.5" stroke="#333333" stroke-width="2" stroke-linecap="round" stroke-linejoin="round"/>
<path d="M3.5 3.5H6.5V6.5" stroke="#333333" stroke-width="2" stroke-linecap="round" stroke-linejoin="round"/>
<path d="M6.5 3.64697C3.78889 5.4357 2 8.5089 2 11.9999C2 12.5097 2.03815 13.0106 2.11175 13.4999" stroke="#333333" stroke-width="2" stroke-linecap="round" stroke-linejoin="round"/>
<path d="M13.4999 21.8883C13.0106 21.9619 12.5097 22 11.9999 22C8.5089 22 5.4357 20.2111 3.64697 17.5" stroke="#333333" stroke-width="2" stroke-linecap="round" stroke-linejoin="round"/>
<path d="M21.8883 10.5C21.9619 10.9893 22 11.4902 22 12C22 15.4911 20.2111 18.5643 17.5 20.353" stroke="#333333" stroke-width="2" stroke-linecap="round" stroke-linejoin="round"/>
<path d="M10.5 2.11175C10.9893 2.03815 11.4902 2 12 2C15.4911 2 18.5643 3.78889 20.353 6.5" stroke="#333333" stroke-width="2" stroke-linecap="round" stroke-linejoin="round"/>
</g>
<defs>
<clipPath id="clip0_2_20904">
<rect width="24" height="24" fill="white"/>
</clipPath>
</defs>
</svg>
