<svg width="24" height="24" viewBox="0 0 24 24" fill="none" xmlns="http://www.w3.org/2000/svg">
<g clip-path="url(#clip0_2_20689)">
<path d="M24 0H0V24H24V0Z" fill="white" fill-opacity="0.01"/>
<path d="M10 7.5L12 9.5L14 7.5" stroke="#333333" stroke-width="2" stroke-linecap="round" stroke-linejoin="round"/>
<path d="M12 9.5V4C12 2.89543 12.8954 2 14 2H20C21.1046 2 22 2.89543 22 4V9.5" stroke="#333333" stroke-width="2" stroke-linecap="round" stroke-linejoin="round"/>
<path d="M14 16.5L12 14.5L10 16.5" stroke="#333333" stroke-width="2" stroke-linecap="round" stroke-linejoin="round"/>
<path d="M12 14.5V20C12 21.1046 11.1046 22 10 22H4C2.89543 22 2 21.1046 2 20V14.5" stroke="#333333" stroke-width="2" stroke-linecap="round" stroke-linejoin="round"/>
<path d="M16.5 10L14.5 12L16.5 14" stroke="#333333" stroke-width="2" stroke-linecap="round" stroke-linejoin="round"/>
<path d="M14.5 12H20C21.1046 12 22 12.8954 22 14V20C22 21.1046 21.1046 22 20 22H14.5" stroke="#333333" stroke-width="2" stroke-linecap="round" stroke-linejoin="round"/>
<path d="M7.5 14L9.5 12L7.5 10" stroke="#333333" stroke-width="2" stroke-linecap="round" stroke-linejoin="round"/>
<path d="M9.5 12H4C2.89543 12 2 11.1046 2 10V4C2 2.89543 2.89543 2 4 2H9.5" stroke="#333333" stroke-width="2" stroke-linecap="round" stroke-linejoin="round"/>
</g>
<defs>
<clipPath id="clip0_2_20689">
<rect width="24" height="24" fill="white"/>
</clipPath>
</defs>
</svg>
