<svg width="24" height="24" viewBox="0 0 24 24" fill="none" xmlns="http://www.w3.org/2000/svg">
<g clip-path="url(#clip0_2_20909)">
<path d="M24 0H0V24H24V0Z" fill="white" fill-opacity="0.01"/>
<path d="M24 0H0V24H24V0Z" fill="white" fill-opacity="0.01"/>
<path d="M8.5 8H6.5C4.01472 8 2 10.0147 2 12.5C2 14.9853 4.01472 17 6.5 17C7.7379 17 8.85905 16.5002 9.67265 15.6913C10.4925 14.8763 12 12.5 12 12.5C12 12.5 13.5028 10.1343 14.316 9.32005C15.1305 8.5045 16.2564 8 17.5 8C19.9853 8 22 10.0147 22 12.5C22 14.9853 19.9853 17 17.5 17H15.5" stroke="#333333" stroke-width="2" stroke-linecap="round" stroke-linejoin="round"/>
<path d="M17.5 15L15.5 17L17.5 19" stroke="#333333" stroke-width="2" stroke-linecap="round" stroke-linejoin="round"/>
<path d="M6.5 6L8.5 8L6.5 10" stroke="#333333" stroke-width="2" stroke-linecap="round" stroke-linejoin="round"/>
</g>
<defs>
<clipPath id="clip0_2_20909">
<rect width="24" height="24" fill="white"/>
</clipPath>
</defs>
</svg>
