<svg width="24" height="24" viewBox="0 0 24 24" fill="none" xmlns="http://www.w3.org/2000/svg">
<g clip-path="url(#clip0_2_20901)">
<path d="M24 0H0V24H24V0Z" fill="white" fill-opacity="0.01"/>
<path d="M22 5C22 6.65685 17.5229 8 12 8C6.47715 8 2 6.65685 2 5C2 3.34315 6.47715 2 12 2C17.5229 2 22 3.34315 22 5Z" stroke="#333333" stroke-width="2" stroke-linecap="round" stroke-linejoin="round"/>
<path d="M22 19C22 20.6568 17.5229 22 12 22C6.47715 22 2 20.6568 2 19C2 17.3432 6.47715 16 12 16C17.5229 16 22 17.3432 22 19Z" stroke="#333333" stroke-width="2" stroke-linecap="round" stroke-linejoin="round"/>
<path d="M22 5V19" stroke="#333333" stroke-width="2" stroke-linecap="round" stroke-linejoin="round"/>
<path d="M2 5V19" stroke="#333333" stroke-width="2" stroke-linecap="round" stroke-linejoin="round"/>
</g>
<defs>
<clipPath id="clip0_2_20901">
<rect width="24" height="24" fill="white"/>
</clipPath>
</defs>
</svg>
