<svg width="24" height="24" viewBox="0 0 24 24" fill="none" xmlns="http://www.w3.org/2000/svg">
<path d="M2.5 5V19C2.5 19.5523 2.94771 20 3.5 20H7H9L7.5 14.5L11 13.5L10.5 10L14.5 8L13.5 6.5L15 4H3.5C2.94771 4 2.5 4.44771 2.5 5Z" stroke="#333333" stroke-width="2" stroke-linecap="round" stroke-linejoin="round"/>
<path d="M21.5 19V5C21.5 4.44771 21.0523 4 20.5 4H19L17 7L18.5 9.5L14 11.5L14.5 15.5L11 16.5L12 20H20.5C21.0523 20 21.5 19.5523 21.5 19Z" stroke="#333333" stroke-width="2" stroke-linecap="round" stroke-linejoin="round"/>
<path fill-rule="evenodd" clip-rule="evenodd" d="M7.25 9C7.6642 9 8 8.6642 8 8.25C8 7.8358 7.6642 7.5 7.25 7.5C6.8358 7.5 6.5 7.8358 6.5 8.25C6.5 8.6642 6.8358 9 7.25 9Z" stroke="#333333" stroke-width="2" stroke-linecap="round" stroke-linejoin="round"/>
</svg>
