<svg width="24" height="24" viewBox="0 0 24 24" fill="none" xmlns="http://www.w3.org/2000/svg">
<g clip-path="url(#clip0_2_21444)">
<path d="M24 0H0V24H24V0Z" fill="white" fill-opacity="0.01"/>
<path d="M3.28599 18.714C1.85264 16.8564 1 14.5278 1 12C1 5.92485 5.92485 1 12 1C18.0752 1 23 5.92485 23 12C23 14.5278 22.1474 16.8564 20.714 18.714" stroke="#333333" stroke-width="2" stroke-linecap="round" stroke-linejoin="round"/>
<path d="M6.15175 15.8483C5.4237 14.7441 5 13.4215 5 12C5 8.134 8.134 5 12 5C15.866 5 19 8.134 19 12C19 13.4215 18.5763 14.7441 17.8482 15.8483" stroke="#333333" stroke-width="2" stroke-linecap="round" stroke-linejoin="round"/>
<path fill-rule="evenodd" clip-rule="evenodd" d="M12 15L20 23H4L12 15Z" stroke="#333333" stroke-width="2" stroke-linecap="round" stroke-linejoin="round"/>
</g>
<defs>
<clipPath id="clip0_2_21444">
<rect width="24" height="24" fill="white"/>
</clipPath>
</defs>
</svg>
