<svg width="24" height="24" viewBox="0 0 24 24" fill="none" xmlns="http://www.w3.org/2000/svg">
<g clip-path="url(#clip0_2_21134)">
<path d="M24 0H0V24H24V0Z" fill="white" fill-opacity="0.01"/>
<path d="M22 5.5C22 5.5 22 18.0311 22 19C22 20.6568 17.5229 22 12 22C6.47715 22 2.00002 20.6568 2.00002 19C2.00002 18.0712 2 5.5 2 5.5" stroke="#333333" stroke-width="2" stroke-linecap="round" stroke-linejoin="round"/>
<path d="M22 14.5C22 16.1568 17.5229 17.5 12 17.5C6.47715 17.5 2 16.1568 2 14.5" stroke="#333333" stroke-width="2" stroke-linecap="round" stroke-linejoin="round"/>
<path d="M22 10C22 11.6568 17.5229 13 12 13C6.47715 13 2 11.6568 2 10" stroke="#333333" stroke-width="2" stroke-linecap="round" stroke-linejoin="round"/>
<path d="M12 8C17.5228 8 22 6.65685 22 5C22 3.34315 17.5228 2 12 2C6.47715 2 2 3.34315 2 5C2 6.65685 6.47715 8 12 8Z" stroke="#333333" stroke-width="2" stroke-linecap="round" stroke-linejoin="round"/>
</g>
<defs>
<clipPath id="clip0_2_21134">
<rect width="24" height="24" fill="white"/>
</clipPath>
</defs>
</svg>
