<svg width="24" height="24" viewBox="0 0 24 24" fill="none" xmlns="http://www.w3.org/2000/svg">
<g clip-path="url(#clip0_2_21449)">
<path d="M24 0H0V24H24V0Z" fill="white" fill-opacity="0.01"/>
<path d="M22 15.5C22 18.2614 19.7614 20.5 17 20.5C16.1046 20.5 15.2641 20.2646 14.5371 19.8523C13.2572 19.1265 12.329 17.8523 12.0718 16.3491C12.0246 16.0731 12 15.7894 12 15.5C12 14.2162 12.4839 13.0453 13.2793 12.1599C14.1946 11.1409 15.5224 10.5 17 10.5C19.7614 10.5 22 12.7386 22 15.5Z" stroke="#333333" stroke-width="2" stroke-linecap="round" stroke-linejoin="round"/>
<path d="M17 6V10V10.5C15.5224 10.5 14.1946 11.1409 13.2793 12.1599C12.4839 13.0453 12 14.2162 12 15.5C12 15.7894 12.0246 16.0731 12.0718 16.3491C12.329 17.8523 13.2572 19.1265 14.5371 19.8523C13.2058 20.2548 11.4388 20.5 9.5 20.5C5.35785 20.5 2 19.3807 2 18V14V10V6" stroke="#333333" stroke-width="2" stroke-linecap="round" stroke-linejoin="round"/>
<path d="M17 6C17 7.3807 13.6421 8.5 9.5 8.5C5.35785 8.5 2 7.3807 2 6C2 4.61929 5.35785 3.5 9.5 3.5C13.6421 3.5 17 4.61929 17 6Z" stroke="#333333" stroke-width="2" stroke-linecap="round" stroke-linejoin="round"/>
<path d="M2 14C2 15.3807 5.35785 16.5 9.5 16.5C10.4035 16.5 11.2697 16.4467 12.0718 16.3491" stroke="#333333" stroke-width="2" stroke-linecap="round" stroke-linejoin="round"/>
<path d="M2 10C2 11.3807 5.35785 12.5 9.5 12.5C10.8781 12.5 12.1695 12.3761 13.2793 12.1599" stroke="#333333" stroke-width="2" stroke-linecap="round" stroke-linejoin="round"/>
<path d="M17 20.5C17 20.5 15.25 17.5687 15.25 15.5C15.25 13.4313 17 10.5 17 10.5" stroke="#333333" stroke-width="2" stroke-linecap="round" stroke-linejoin="round"/>
<path d="M17 20.5C17 20.5 18.75 17.5687 18.75 15.5C18.75 13.4313 17 10.5 17 10.5" stroke="#333333" stroke-width="2" stroke-linecap="round" stroke-linejoin="round"/>
<path d="M22 15.5H12" stroke="#333333" stroke-width="2" stroke-linecap="round" stroke-linejoin="round"/>
</g>
<defs>
<clipPath id="clip0_2_21449">
<rect width="24" height="24" fill="white"/>
</clipPath>
</defs>
</svg>
