<svg width="24" height="24" viewBox="0 0 24 24" fill="none" xmlns="http://www.w3.org/2000/svg">
<g clip-path="url(#clip0_2_20867)">
<path d="M24 0H0V24H24V0Z" fill="white" fill-opacity="0.01"/>
<path d="M11 4V10C11 11.1046 8.9853 12 6.5 12C4.01472 12 2 11.1046 2 10V4" stroke="#333333" stroke-width="2" stroke-linecap="round" stroke-linejoin="round"/>
<path d="M11 7C11 8.10455 8.9853 9 6.5 9C4.01472 9 2 8.10455 2 7" stroke="#333333" stroke-width="2" stroke-linecap="round" stroke-linejoin="round"/>
<path d="M11 4C11 5.10455 8.9853 6 6.5 6C4.01472 6 2 5.10455 2 4C2 2.89543 4.01472 2 6.5 2C8.9853 2 11 2.89543 11 4Z" stroke="#333333" stroke-width="2" stroke-linecap="round" stroke-linejoin="round"/>
<path d="M22 14V20C22 21.1046 19.9853 22 17.5 22C15.0147 22 13 21.1046 13 20V14" stroke="#333333" stroke-width="2" stroke-linecap="round" stroke-linejoin="round"/>
<path d="M22 17C22 18.1046 19.9853 19 17.5 19C15.0147 19 13 18.1046 13 17" stroke="#333333" stroke-width="2" stroke-linecap="round" stroke-linejoin="round"/>
<path d="M22 14C22 15.1046 19.9853 16 17.5 16C15.0147 16 13 15.1046 13 14C13 12.8954 15.0147 12 17.5 12C19.9853 12 22 12.8954 22 14Z" stroke="#333333" stroke-width="2" stroke-linecap="round" stroke-linejoin="round"/>
<path d="M16 3H19C20.1046 3 21 3.89543 21 5V8" stroke="#333333" stroke-width="2" stroke-linecap="round" stroke-linejoin="round"/>
<path d="M8 21H5C3.89543 21 3 20.1046 3 19V16" stroke="#333333" stroke-width="2" stroke-linecap="round" stroke-linejoin="round"/>
</g>
<defs>
<clipPath id="clip0_2_20867">
<rect width="24" height="24" fill="white"/>
</clipPath>
</defs>
</svg>
