<svg width="24" height="24" viewBox="0 0 24 24" fill="none" xmlns="http://www.w3.org/2000/svg">
<g clip-path="url(#clip0_2_21498)">
<path d="M24 0H0V24H24V0Z" fill="white" fill-opacity="0.01"/>
<path d="M12 18V15" stroke="#333333" stroke-width="2" stroke-linecap="round" stroke-linejoin="round"/>
<path d="M10 20H3" stroke="#333333" stroke-width="2" stroke-linecap="round" stroke-linejoin="round"/>
<path d="M14 20H21" stroke="#333333" stroke-width="2" stroke-linecap="round" stroke-linejoin="round"/>
<path d="M14 20C14 21.1046 13.1046 22 12 22C10.8954 22 10 21.1046 10 20C10 18.8954 10.8954 18 12 18C13.1046 18 14 18.8954 14 20Z" stroke="#333333" stroke-width="2" stroke-linecap="round" stroke-linejoin="round"/>
<path d="M18.5 8.5H5.5M18.5 8.5C18.5 12.0898 15.5898 15 12 15C8.41015 15 5.5 12.0898 5.5 8.5H18.5ZM18.5 8.5C18.5 4.91015 15.5898 2 12 2C8.41015 2 5.5 4.91015 5.5 8.5H18.5Z" stroke="#333333" stroke-width="2" stroke-linecap="round" stroke-linejoin="round"/>
<path d="M14.5 8.5C14.5 12.0898 13.3807 15 12 15C10.6193 15 9.5 12.0898 9.5 8.5C9.5 4.91015 10.6193 2 12 2C13.3807 2 14.5 4.91015 14.5 8.5Z" stroke="#333333" stroke-width="2" stroke-linecap="round" stroke-linejoin="round"/>
<path d="M18.5 8.5H5.5" stroke="#333333" stroke-width="2" stroke-linecap="round" stroke-linejoin="round"/>
</g>
<defs>
<clipPath id="clip0_2_21498">
<rect width="24" height="24" fill="white"/>
</clipPath>
</defs>
</svg>
