<svg width="24" height="24" viewBox="0 0 24 24" fill="none" xmlns="http://www.w3.org/2000/svg">
<g clip-path="url(#clip0_2_21172)">
<path d="M24 0H0V24H24V0Z" fill="white" fill-opacity="0.01"/>
<path d="M12 18V15" stroke="#333333" stroke-width="2" stroke-linecap="round" stroke-linejoin="round"/>
<path d="M10 20H3" stroke="#333333" stroke-width="2" stroke-linecap="round" stroke-linejoin="round"/>
<path d="M14 20H21" stroke="#333333" stroke-width="2" stroke-linecap="round" stroke-linejoin="round"/>
<path d="M14 20C14 21.1046 13.1046 22 12 22C10.8954 22 10 21.1046 10 20C10 18.8954 10.8954 18 12 18C13.1046 18 14 18.8954 14 20Z" stroke="#333333" stroke-width="2" stroke-linecap="round" stroke-linejoin="round"/>
<path d="M19.5 4.5V12.5C19.5 13.8807 16.1421 15 12 15C7.85785 15 4.5 13.8807 4.5 12.5V4.5" stroke="#333333" stroke-width="2" stroke-linecap="round" stroke-linejoin="round"/>
<path d="M19.5 8.5C19.5 9.8807 16.1421 11 12 11C7.85785 11 4.5 9.8807 4.5 8.5" stroke="#333333" stroke-width="2" stroke-linecap="round" stroke-linejoin="round"/>
<path d="M19.5 4.5C19.5 5.8807 16.1421 7 12 7C7.85785 7 4.5 5.8807 4.5 4.5C4.5 3.11929 7.85785 2 12 2C16.1421 2 19.5 3.11929 19.5 4.5Z" stroke="#333333" stroke-width="2" stroke-linecap="round" stroke-linejoin="round"/>
<path d="M19.5 4.5C19.5 5.8807 16.1421 7 12 7C7.85785 7 4.5 5.8807 4.5 4.5C4.5 3.11929 7.85785 2 12 2C16.1421 2 19.5 3.11929 19.5 4.5Z" stroke="#333333" stroke-width="2" stroke-linecap="round" stroke-linejoin="round"/>
</g>
<defs>
<clipPath id="clip0_2_21172">
<rect width="24" height="24" fill="white"/>
</clipPath>
</defs>
</svg>
