<svg width="24" height="24" viewBox="0 0 24 24" fill="none" xmlns="http://www.w3.org/2000/svg">
<g clip-path="url(#clip0_2_21183)">
<path d="M24 0H0V24H24V0Z" fill="white" fill-opacity="0.01"/>
<path d="M10.5 17.4965C10.5 17.9034 10.5 18.2355 10.5 18.4928C10.5 18.9357 10.5 19.6 10.5 20.4857C10.5 20.7698 10.2886 21 10.0278 21H2.47222C2.21142 21 2 20.7698 2 20.4857V3.51429C2 3.23026 2.21142 3 2.47222 3H10.0278C10.2886 3 10.5 3.23026 10.5 3.51429C10.5 4.4 10.5 5.0643 10.5 5.50715C10.5 5.7645 10.5 6.09665 10.5 6.50355" stroke="#333333" stroke-width="2" stroke-linecap="round"/>
<path d="M13.5 6.50355C13.5 6.09665 13.5 5.7645 13.5 5.50715C13.5 5.0643 13.5 4.4 13.5 3.51429C13.5 3.23026 13.7114 3 13.9722 3H21.5278C21.7886 3 22 3.23026 22 3.51429V20.4857C22 20.7698 21.7886 21 21.5278 21H13.9722C13.7114 21 13.5 20.7698 13.5 20.4857C13.5 19.6 13.5 18.9357 13.5 18.4928C13.5 18.2355 13.5 17.9034 13.5 17.4965" stroke="#333333" stroke-width="2" stroke-linecap="round"/>
<path d="M6.25 19C6.8023 19 7.25 18.5523 7.25 18C7.25 17.4477 6.8023 17 6.25 17C5.6977 17 5.25 17.4477 5.25 18C5.25 18.5523 5.6977 19 6.25 19Z" fill="#333333"/>
<path d="M17.75 19C18.3023 19 18.75 18.5523 18.75 18C18.75 17.4477 18.3023 17 17.75 17C17.1977 17 16.75 17.4477 16.75 18C16.75 18.5523 17.1977 19 17.75 19Z" fill="#333333"/>
<path d="M8 11.75H16" stroke="#333333" stroke-width="2" stroke-linecap="round"/>
<path d="M13.6115 14.1362L14.4069 13.3408L15.9979 11.7498L14.4069 10.1588L13.6115 9.36328" stroke="#333333" stroke-width="2" stroke-linecap="round" stroke-linejoin="round"/>
</g>
<defs>
<clipPath id="clip0_2_21183">
<rect width="24" height="24" fill="white"/>
</clipPath>
</defs>
</svg>
