<svg width="24" height="24" viewBox="0 0 24 24" fill="none" xmlns="http://www.w3.org/2000/svg">
<path d="M3 20V9.5C3 8.9477 3.44771 8.5 4 8.5H7.5C8.0523 8.5 8.5 8.9477 8.5 9.5V14.5C8.5 15.0523 8.9477 15.5 9.5 15.5H14.5C15.0523 15.5 15.5 15.9477 15.5 16.5V20C15.5 20.5523 15.0523 21 14.5 21H4C3.44771 21 3 20.5523 3 20Z" stroke="#333333" stroke-width="2" stroke-linecap="round" stroke-linejoin="round"/>
<path d="M21 4V14.5C21 15.0523 20.5523 15.5 20 15.5H16.5C15.9477 15.5 15.5 15.0523 15.5 14.5V9.5C15.5 8.9477 15.0523 8.5 14.5 8.5H9.5C8.9477 8.5 8.5 8.0523 8.5 7.5V4C8.5 3.44771 8.9477 3 9.5 3H20C20.5523 3 21 3.44771 21 4Z" stroke="#333333" stroke-width="2" stroke-linecap="round" stroke-linejoin="round"/>
</svg>
