<svg width="24" height="24" viewBox="0 0 24 24" fill="none" xmlns="http://www.w3.org/2000/svg">
<g clip-path="url(#clip0_2_20811)">
<path d="M24 0H0V24H24V0Z" fill="white" fill-opacity="0.01"/>
<path d="M2 12L5 15M9 5L12 2L9 5ZM12 2L15 5L12 2ZM12 2V12V2ZM12 12V22V12ZM12 12H22H12ZM12 12H2H12ZM9 19L12 22L9 19ZM12 22L15 19L12 22ZM19 9L22 12L19 9ZM22 12L19 15L22 12ZM5 9L2 12L5 9Z" stroke="#333333" stroke-width="2" stroke-linecap="round" stroke-linejoin="round"/>
</g>
<defs>
<clipPath id="clip0_2_20811">
<rect width="24" height="24" fill="white"/>
</clipPath>
</defs>
</svg>
