<svg width="24" height="24" viewBox="0 0 24 24" fill="none" xmlns="http://www.w3.org/2000/svg">
<g clip-path="url(#clip0_2_21342)">
<path d="M24 0H0V24H24V0Z" fill="white" fill-opacity="0.01"/>
<path d="M17 6.5H3C2.44772 6.5 2 6.94772 2 7.5V16.5C2 17.0523 2.44772 17.5 3 17.5H17C17.5523 17.5 18 17.0523 18 16.5V7.5C18 6.94772 17.5523 6.5 17 6.5Z" stroke="#333333" stroke-width="2"/>
<path d="M2 6.5H7V17.5H2V6.5Z" stroke="#333333" stroke-width="2" stroke-linecap="round" stroke-linejoin="round"/>
<path d="M18 9.5H22V14.5H18" stroke="#333333" stroke-width="2" stroke-linecap="round" stroke-linejoin="round"/>
<path d="M15 11.5C15.5523 11.5 16 11.0523 16 10.5C16 9.94772 15.5523 9.5 15 9.5C14.4477 9.5 14 9.94772 14 10.5C14 11.0523 14.4477 11.5 15 11.5Z" fill="#333333"/>
<path d="M15 14.5C15.5523 14.5 16 14.0523 16 13.5C16 12.9477 15.5523 12.5 15 12.5C14.4477 12.5 14 12.9477 14 13.5C14 14.0523 14.4477 14.5 15 14.5Z" fill="#333333"/>
</g>
<defs>
<clipPath id="clip0_2_21342">
<rect width="24" height="24" fill="white"/>
</clipPath>
</defs>
</svg>
