<svg width="24" height="24" viewBox="0 0 24 24" fill="none" xmlns="http://www.w3.org/2000/svg">
<path d="M22 4H2V20H22V4Z" stroke="#333333" stroke-width="2" stroke-linecap="round" stroke-linejoin="round"/>
<path d="M2 9.49984C2 9.49984 6.5 6.49984 12 9.49984C17.5 12.4998 22 9.49984 22 9.49984" stroke="#333333" stroke-width="2" stroke-linecap="round" stroke-linejoin="round"/>
<path d="M2 14.4998C2 14.4998 6.5 11.4998 12 14.4998C17.5 17.4998 22 14.4998 22 14.4998" stroke="#333333" stroke-width="2" stroke-linecap="round" stroke-linejoin="round"/>
<path d="M15.5003 4C15.5003 4 18.5003 8 15.5003 12C12.5003 16 15.5003 20 15.5003 20" stroke="#333333" stroke-width="2" stroke-linecap="round" stroke-linejoin="round"/>
<path d="M8.50033 4C8.50033 4 11.5003 8 8.50033 12C5.50033 16 8.50033 20 8.50033 20" stroke="#333333" stroke-width="2" stroke-linecap="round" stroke-linejoin="round"/>
</svg>
