<svg width="24" height="24" viewBox="0 0 24 24" fill="none" xmlns="http://www.w3.org/2000/svg">
<path d="M2 20L3.25 20.6757C4.05 21.1081 4.95 21.1081 5.75 20.6757C6.55 20.2432 7.45 20.2432 8.25 20.6757C9.05 21.1081 9.95 21.1081 10.75 20.6757C11.55 20.2432 12.45 20.2432 13.25 20.6757C14.05 21.1081 14.95 21.1081 15.75 20.6757C16.55 20.2432 17.45 20.2432 18.25 20.6757C19.05 21.1081 19.95 21.1081 20.75 20.6757L22 20" stroke="#333333" stroke-width="2" stroke-miterlimit="2" stroke-linecap="round" stroke-linejoin="round"/>
<path d="M7 5.5V2" stroke="#333333" stroke-width="2" stroke-miterlimit="2" stroke-linecap="round" stroke-linejoin="round"/>
<path d="M15.5 5.5V2" stroke="#333333" stroke-width="2" stroke-miterlimit="2" stroke-linecap="round" stroke-linejoin="round"/>
<path d="M10.5 4V2" stroke="#333333" stroke-width="2" stroke-miterlimit="2" stroke-linecap="round" stroke-linejoin="round"/>
<path d="M19 4V2" stroke="#333333" stroke-width="2" stroke-miterlimit="2" stroke-linecap="round" stroke-linejoin="round"/>
<path d="M6 3H10" stroke="#333333" stroke-width="2" stroke-linecap="round" stroke-linejoin="round"/>
<path d="M14.5 3H18.5" stroke="#333333" stroke-width="2" stroke-linecap="round" stroke-linejoin="round"/>
<path d="M9 7.5C9 6.39543 8.10457 5.5 7 5.5C5.89543 5.5 5 6.39543 5 7.5V15.5C5 16.6046 5.89543 17.5 7 17.5C8.10457 17.5 9 16.6046 9 15.5V7.5Z" stroke="#333333" stroke-width="2" stroke-linecap="round" stroke-linejoin="round"/>
<path d="M17.5 7.5C17.5 6.39543 16.6046 5.5 15.5 5.5C14.3954 5.5 13.5 6.39543 13.5 7.5V15.5C13.5 16.6046 14.3954 17.5 15.5 17.5C16.6046 17.5 17.5 16.6046 17.5 15.5V7.5Z" stroke="#333333" stroke-width="2" stroke-linecap="round" stroke-linejoin="round"/>
<path d="M13.5 7.5C13.5 6.39545 14.3954 5.5 15.5 5.5C16.6046 5.5 17.5 6.39545 17.5 7.5V9.5H13.5V7.5Z" stroke="#333333" stroke-width="2" stroke-linecap="round" stroke-linejoin="round"/>
<path d="M5 7.5C5 6.39545 5.89545 5.5 7 5.5C8.10455 5.5 9 6.39545 9 7.5V9.5H5V7.5Z" stroke="#333333" stroke-width="2" stroke-linecap="round" stroke-linejoin="round"/>
</svg>
