<svg width="24" height="24" viewBox="0 0 24 24" fill="none" xmlns="http://www.w3.org/2000/svg">
<path d="M15.9 3H5.1C3.9402 3 3 3.89543 3 5V9H8.5C8.5 8 9.25 7 10.5 7C11.75 7 12.5 8 12.5 9H18V5C18 3.89543 17.0598 3 15.9 3Z" stroke="#333333" stroke-width="2" stroke-linecap="round" stroke-linejoin="round"/>
<path d="M8 12C8 12.7456 8.625 15 10.5 15C12.375 15 13 12.7456 13 12" stroke="#333333" stroke-width="2" stroke-linecap="round" stroke-linejoin="round"/>
<path d="M21 3V19C21 21 19.5 22 18 22C16.5 22 15 21 15 19V18" stroke="#333333" stroke-width="2" stroke-linecap="round" stroke-linejoin="round"/>
</svg>
