<svg width="24" height="24" viewBox="0 0 24 24" fill="none" xmlns="http://www.w3.org/2000/svg">
<g clip-path="url(#clip0_2_20760)">
<path d="M24 0H0V24H24V0Z" fill="white" fill-opacity="0.01"/>
<path d="M20 13.5V3C20 2.44771 19.5523 2 19 2H5C4.44771 2 4 2.44771 4 3V21C4 21.5523 4.44771 22 5 22H10.5" stroke="#333333" stroke-width="2" stroke-linecap="round" stroke-linejoin="round"/>
<path d="M8.5 6H15.5" stroke="#333333" stroke-width="2" stroke-linecap="round" stroke-linejoin="round"/>
<path d="M8.5 10H15.5" stroke="#333333" stroke-width="2" stroke-linecap="round" stroke-linejoin="round"/>
<path d="M8.5 14H11.5" stroke="#333333" stroke-width="2" stroke-linecap="round" stroke-linejoin="round"/>
<path d="M19.5 22L17.7677 20.2677L19.5 22ZM17.7677 20.2677C18.2202 19.8153 18.5 19.1903 18.5 18.5C18.5 17.1193 17.3807 16 16 16C14.6193 16 13.5 17.1193 13.5 18.5C13.5 19.8807 14.6193 21 16 21C16.6903 21 17.3153 20.7202 17.7677 20.2677Z" stroke="#333333" stroke-width="2" stroke-linecap="round" stroke-linejoin="round"/>
</g>
<defs>
<clipPath id="clip0_2_20760">
<rect width="24" height="24" fill="white"/>
</clipPath>
</defs>
</svg>
