<svg width="24" height="24" viewBox="0 0 24 24" fill="none" xmlns="http://www.w3.org/2000/svg">
<g clip-path="url(#clip0_2_21014)">
<path d="M24 0H0V24H24V0Z" fill="white" fill-opacity="0.01"/>
<path fill-rule="evenodd" clip-rule="evenodd" d="M19.0803 16.78C16.9218 16.0198 14.6047 15.6223 12.2208 15.6223C9.69125 15.6223 7.2373 16.0699 4.96976 16.9226C5.16925 17.4738 5.43015 18.0002 5.74835 18.4933L3.22766 20.1201C2.1067 18.383 1.5 16.3476 1.5 14.2245C1.5 8.30965 6.19265 3.5 12 3.5C17.8074 3.5 22.5 8.30965 22.5 14.2245C22.5 16.4413 21.8384 18.5615 20.6234 20.3447L18.1442 18.6553C18.5398 18.0748 18.8542 17.4446 19.0803 16.78ZM19.2995 12.4423C18.5176 9.03065 15.5403 6.5 12 6.5C8.4141 6.5 5.40575 9.09625 4.67134 12.5745C4.55325 13.2395 4.73317 13.818 5.2269 13.6657C7.4537 12.9791 9.8097 12.6223 12.2208 12.6223C14.5492 12.6223 16.8267 12.955 18.9869 13.5968C19.414 13.7237 19.4777 13.1885 19.3076 12.4841C19.3039 12.4686 19.3012 12.4546 19.2995 12.4423Z" fill="#333333"/>
</g>
<defs>
<clipPath id="clip0_2_21014">
<rect width="24" height="24" fill="white"/>
</clipPath>
</defs>
</svg>
