<svg width="24" height="24" viewBox="0 0 24 24" fill="none" xmlns="http://www.w3.org/2000/svg">
<g clip-path="url(#clip0_2_19948)">
<path d="M24 0H0V24H24V0Z" fill="white" fill-opacity="0.01"/>
<path d="M4 6C4 5.17155 4.67158 4.5 5.5 4.5H18.5C19.3285 4.5 20 5.17155 20 6V11.5H4V6Z" stroke="#333333" stroke-width="2" stroke-linecap="round" stroke-linejoin="round"/>
<path d="M3 17.5V19.5" stroke="#333333" stroke-width="2" stroke-linecap="round" stroke-linejoin="round"/>
<path d="M21 17.5V19.5" stroke="#333333" stroke-width="2" stroke-linecap="round" stroke-linejoin="round"/>
<path d="M10 9H7C6.17155 9 5.5 9.67155 5.5 10.5V11.5H11.5V10.5C11.5 9.67155 10.8285 9 10 9Z" stroke="#333333" stroke-width="2" stroke-linecap="round" stroke-linejoin="round"/>
<path d="M17 9H14C13.1715 9 12.5 9.67155 12.5 10.5V11.5H18.5V10.5C18.5 9.67155 17.8285 9 17 9Z" stroke="#333333" stroke-width="2" stroke-linecap="round" stroke-linejoin="round"/>
<path d="M2 13C2 12.1715 2.67158 11.5 3.5 11.5H20.5C21.3285 11.5 22 12.1715 22 13V17.5H2V13Z" stroke="#333333" stroke-width="2" stroke-linecap="round" stroke-linejoin="round"/>
</g>
<defs>
<clipPath id="clip0_2_19948">
<rect width="24" height="24" fill="white"/>
</clipPath>
</defs>
</svg>
