<svg width="24" height="24" viewBox="0 0 24 24" fill="none" xmlns="http://www.w3.org/2000/svg">
<g clip-path="url(#clip0_2_20764)">
<path d="M24 0H0V24H24V0Z" fill="white" fill-opacity="0.01"/>
<path d="M5.83885 10.1357C3.63738 10.6593 2 12.6385 2 15.0002C2 17.7616 4.23857 20.0002 7 20.0002C7.4737 20.0002 7.932 19.9344 8.36625 19.8113" stroke="#333333" stroke-width="2" stroke-linecap="round" stroke-linejoin="round"/>
<path d="M18.0274 10.1357C20.2289 10.6593 21.8662 12.6385 21.8662 15.0002C21.8662 17.7616 19.6277 20.0002 16.8662 20.0002C16.3925 20.0002 15.9342 19.9344 15.5 19.8113" stroke="#333333" stroke-width="2" stroke-linecap="round" stroke-linejoin="round"/>
<path d="M18 10C18 6.6863 15.3137 4 12 4C8.6863 4 6 6.6863 6 10" stroke="#333333" stroke-width="2" stroke-linecap="round" stroke-linejoin="round"/>
<path d="M8.53271 15.0595L12 18.5382L15.5659 15" stroke="#333333" stroke-width="2" stroke-linecap="round" stroke-linejoin="round"/>
<path d="M12 10V16.7691" stroke="#333333" stroke-width="2" stroke-linecap="round" stroke-linejoin="round"/>
</g>
<defs>
<clipPath id="clip0_2_20764">
<rect width="24" height="24" fill="white"/>
</clipPath>
</defs>
</svg>
