<svg width="24" height="24" viewBox="0 0 24 24" fill="none" xmlns="http://www.w3.org/2000/svg">
<path fill-rule="evenodd" clip-rule="evenodd" d="M9.5 5C9.5 6.10455 8.60455 7 7.5 7C6.39545 7 5.5 6.10455 5.5 5C5.5 3.89543 6.39545 3 7.5 3C8.60455 3 9.5 3.89543 9.5 5ZM7.5 14C8.60455 14 9.5 13.1046 9.5 12C9.5 10.8955 8.60455 10 7.5 10C6.39545 10 5.5 10.8955 5.5 12C5.5 13.1046 6.39545 14 7.5 14ZM7.5 21C8.60455 21 9.5 20.1045 9.5 19C9.5 17.8954 8.60455 17 7.5 17C6.39545 17 5.5 17.8954 5.5 19C5.5 20.1045 6.39545 21 7.5 21Z" fill="#333333"/>
<path fill-rule="evenodd" clip-rule="evenodd" d="M18.5 5C18.5 6.10455 17.6045 7 16.5 7C15.3954 7 14.5 6.10455 14.5 5C14.5 3.89543 15.3954 3 16.5 3C17.6045 3 18.5 3.89543 18.5 5ZM16.5 14C17.6045 14 18.5 13.1046 18.5 12C18.5 10.8955 17.6045 10 16.5 10C15.3954 10 14.5 10.8955 14.5 12C14.5 13.1046 15.3954 14 16.5 14ZM16.5 21C17.6045 21 18.5 20.1045 18.5 19C18.5 17.8954 17.6045 17 16.5 17C15.3954 17 14.5 17.8954 14.5 19C14.5 20.1045 15.3954 21 16.5 21Z" fill="#333333"/>
</svg>
