<svg width="24" height="24" viewBox="0 0 24 24" fill="none" xmlns="http://www.w3.org/2000/svg">
<path d="M18 18L14.5 14.5M6 6L9.5 9.5L6 6Z" stroke="#333333" stroke-width="2" stroke-linecap="round" stroke-linejoin="round"/>
<path d="M6 18L9.5 14.5M18 6L14.5 9.5L18 6Z" stroke="#333333" stroke-width="2" stroke-linecap="round" stroke-linejoin="round"/>
<path d="M14.5 9.5H9.5V14.5H14.5V9.5Z" stroke="#333333" stroke-width="2" stroke-linecap="round" stroke-linejoin="round"/>
<path d="M18 9.5C18.6923 9.5 19.3689 9.29475 19.9445 8.91015C20.52 8.52555 20.9687 7.97895 21.2336 7.3394C21.4985 6.69985 21.5678 5.9961 21.4328 5.3172C21.2977 4.63825 20.9643 4.01461 20.4748 3.52513C19.9854 3.03564 19.3618 2.7023 18.6828 2.56725C18.0039 2.4322 17.3002 2.50151 16.6606 2.76642C16.0211 3.03133 15.4745 3.47993 15.0899 4.0555C14.7053 4.63107 14.5 5.30775 14.5 6" stroke="#333333" stroke-width="2" stroke-linecap="round" stroke-linejoin="round"/>
<path d="M18 14.5C18.6923 14.5 19.3689 14.7053 19.9445 15.0899C20.52 15.4745 20.9687 16.0211 21.2336 16.6606C21.4985 17.3002 21.5678 18.0039 21.4328 18.6828C21.2977 19.3618 20.9643 19.9854 20.4748 20.4748C19.9854 20.9643 19.3618 21.2977 18.6828 21.4328C18.0039 21.5678 17.3002 21.4985 16.6606 21.2336C16.0211 20.9687 15.4745 20.52 15.0899 19.9445C14.7053 19.3689 14.5 18.6923 14.5 18" stroke="#333333" stroke-width="2" stroke-linecap="round" stroke-linejoin="round"/>
<path d="M6 14.5C5.30775 14.5 4.63108 14.7053 4.0555 15.0899C3.47993 15.4745 3.03133 16.0211 2.76642 16.6606C2.50151 17.3002 2.4322 18.0039 2.56725 18.6828C2.7023 19.3618 3.03564 19.9854 3.52513 20.4748C4.01461 20.9643 4.63825 21.2977 5.3172 21.4328C5.9961 21.5678 6.69985 21.4985 7.3394 21.2336C7.97895 20.9687 8.52555 20.52 8.91015 19.9445C9.29475 19.3689 9.5 18.6923 9.5 18" stroke="#333333" stroke-width="2" stroke-linecap="round" stroke-linejoin="round"/>
<path d="M6 9.5C5.30775 9.5 4.63108 9.29475 4.0555 8.91015C3.47993 8.52555 3.03133 7.97895 2.76642 7.3394C2.50151 6.69985 2.4322 5.9961 2.56725 5.3172C2.7023 4.63825 3.03564 4.01461 3.52513 3.52513C4.01461 3.03564 4.63825 2.7023 5.3172 2.56725C5.9961 2.4322 6.69985 2.50151 7.3394 2.76642C7.97895 3.03133 8.52555 3.47993 8.91015 4.0555C9.29475 4.63107 9.5 5.30775 9.5 6" stroke="#333333" stroke-width="2" stroke-linecap="round" stroke-linejoin="round"/>
</svg>
