<svg width="24" height="24" viewBox="0 0 24 24" fill="none" xmlns="http://www.w3.org/2000/svg">
<path fill-rule="evenodd" clip-rule="evenodd" d="M13.5 20C15.7092 20 17.7092 19.1046 19.1569 17.6569C20.6046 16.2092 21.5 14.2092 21.5 12C21.5 9.79085 20.6046 7.79085 19.1569 6.34315C17.7092 4.89543 15.7092 4 13.5 4C11.2908 4 9.29085 4.89543 7.84315 6.34315C6.39545 7.79085 5.5 9.79085 5.5 12C5.5 14.2092 6.39545 16.2092 7.84315 17.6569C9.29085 19.1046 11.2908 20 13.5 20Z" stroke="#333333" stroke-width="2" stroke-linecap="round"/>
<path d="M5.72185 4.22168C3.73122 6.21228 2.5 8.96228 2.5 11.9999C2.5 15.0374 3.73122 17.7874 5.72185 19.7781" stroke="#333333" stroke-width="2" stroke-linecap="round"/>
</svg>
