<svg width="24" height="24" viewBox="0 0 24 24" fill="none" xmlns="http://www.w3.org/2000/svg">
<path fill-rule="evenodd" clip-rule="evenodd" d="M12 21.5C14.2092 21.5 16.2092 20.6046 17.6569 19.1569C19.1046 17.7092 20 15.7092 20 13.5C20 11.2908 19.1046 9.29085 17.6569 7.84315C16.2092 6.39545 14.2092 5.5 12 5.5C9.79085 5.5 7.79085 6.39545 6.34315 7.84315C4.89543 9.29085 4 11.2908 4 13.5C4 15.7092 4.89543 17.7092 6.34315 19.1569C7.79085 20.6046 9.79085 21.5 12 21.5Z" stroke="#333333" stroke-width="2" stroke-linecap="round"/>
<path d="M19.7783 5.72185C17.7877 3.73122 15.0377 2.5 12.0001 2.5C8.96254 2.5 6.21254 3.73122 4.22192 5.72185" stroke="#333333" stroke-width="2" stroke-linecap="round"/>
</svg>
