<svg width="24" height="24" viewBox="0 0 24 24" fill="none" xmlns="http://www.w3.org/2000/svg">
<path d="M12 5L6 9L12 13L18 9L12 5Z" stroke="#333333" stroke-width="2" stroke-linejoin="round"/>
<path d="M12 5L18 9L20.5 5.5L15 2L12 5Z" stroke="#333333" stroke-width="2" stroke-linejoin="round"/>
<path d="M12 5L6 9L3.5 5.5L9 2L12 5Z" stroke="#333333" stroke-width="2" stroke-linejoin="round"/>
<path d="M21.5 11L18 9L12 13L15.5 15.5L21.5 11Z" stroke="#333333" stroke-width="2" stroke-linejoin="round"/>
<path d="M2.5 11L6 9L12 13L8.5 15.5L2.5 11Z" stroke="#333333" stroke-width="2" stroke-linejoin="round"/>
<path d="M18 14V18.5L12 22L6 18.5V14" stroke="#333333" stroke-width="2" stroke-linecap="round" stroke-linejoin="round"/>
</svg>
