<svg width="24" height="24" viewBox="0 0 24 24" fill="none" xmlns="http://www.w3.org/2000/svg">
<path fill-rule="evenodd" clip-rule="evenodd" d="M10.5 20C12.7092 20 14.7092 19.1046 16.1569 17.6569C17.6046 16.2092 18.5 14.2092 18.5 12C18.5 9.79085 17.6046 7.79085 16.1569 6.34315C14.7092 4.89543 12.7092 4 10.5 4C8.29085 4 6.29085 4.89543 4.84314 6.34315C3.39543 7.79085 2.5 9.79085 2.5 12C2.5 14.2092 3.39543 16.2092 4.84314 17.6569C6.29085 19.1046 8.29085 20 10.5 20Z" stroke="#333333" stroke-width="2" stroke-linecap="round"/>
<path d="M18.2782 19.7781C20.2687 17.7874 21.4999 15.0374 21.4999 11.9999C21.4999 8.96228 20.2687 6.21228 18.2782 4.22168" stroke="#333333" stroke-width="2" stroke-linecap="round"/>
</svg>
