<svg width="24" height="24" viewBox="0 0 24 24" fill="none" xmlns="http://www.w3.org/2000/svg">
<path fill-rule="evenodd" clip-rule="evenodd" d="M12 18.5C14.2092 18.5 16.2092 17.6046 17.6569 16.1569C19.1046 14.7092 20 12.7092 20 10.5C20 8.29085 19.1046 6.29085 17.6569 4.84314C16.2092 3.39543 14.2092 2.5 12 2.5C9.79085 2.5 7.79085 3.39543 6.34315 4.84314C4.89543 6.29085 4 8.29085 4 10.5C4 12.7092 4.89543 14.7092 6.34315 16.1569C7.79085 17.6046 9.79085 18.5 12 18.5Z" stroke="#333333" stroke-width="2" stroke-linecap="round"/>
<path d="M19.7782 18.2783C17.7876 20.2688 15.0376 21.5001 12 21.5001C8.9624 21.5001 6.2124 20.2688 4.2218 18.2783" stroke="#333333" stroke-width="2" stroke-linecap="round"/>
</svg>
