<svg width="24" height="24" viewBox="0 0 24 24" fill="none" xmlns="http://www.w3.org/2000/svg">
<path d="M7.07546 16.9097L6.36836 21.8594L2.12573 17.6168L7.07546 16.9097Z" stroke="#333333" stroke-width="2" stroke-linecap="round" stroke-linejoin="round"/>
<path d="M12.0249 3.4751L7.0751 8.42483C4.73196 10.768 4.73196 14.567 7.0751 16.9101C9.41825 19.2533 13.2173 19.2533 15.5604 16.9101L20.5102 11.9604" stroke="#333333" stroke-width="2" stroke-linecap="round" stroke-linejoin="round"/>
<path d="M13.7929 10.1924C16.136 12.5355 19.1436 13.327 20.5104 11.9602C21.8772 10.5933 21.0858 7.58579 18.7426 5.24264C16.3995 2.89949 13.392 2.10804 12.0251 3.47487C10.6583 4.84171 11.4497 7.84924 13.7929 10.1924Z" stroke="#333333" stroke-width="2" stroke-linecap="round" stroke-linejoin="round"/>
<path d="M14.3232 6.40599C14.7137 6.79651 15.3469 6.79651 15.7374 6.40599C16.1279 6.01546 16.1279 5.3823 15.7374 4.99177C15.3469 4.60125 14.7137 4.60125 14.3232 4.99177C13.9326 5.3823 13.9326 6.01546 14.3232 6.40599Z" fill="#333333"/>
<path d="M17.8588 9.94163C18.2493 10.3322 18.8825 10.3322 19.273 9.94163C19.6635 9.55111 19.6635 8.91794 19.273 8.52742C18.8825 8.13689 18.2493 8.13689 17.8588 8.52742C17.4683 8.91794 17.4683 9.55111 17.8588 9.94163Z" fill="#333333"/>
<path d="M15.0302 9.2346C15.4207 9.62513 16.0539 9.62513 16.4444 9.2346C16.8349 8.84408 16.8349 8.21091 16.4444 7.82039C16.0539 7.42986 15.4207 7.42986 15.0302 7.82039C14.6397 8.21091 14.6397 8.84408 15.0302 9.2346Z" fill="#333333"/>
</svg>
