<svg width="24" height="24" viewBox="0 0 24 24" fill="none" xmlns="http://www.w3.org/2000/svg">
<g clip-path="url(#clip0_2_19946)">
<path d="M24 0H0V24H24V0Z" fill="white" fill-opacity="0.01"/>
<path d="M7 6.8C7 6.08205 6.32845 5.5 5.5 5.5C4.67158 5.5 4 6.08205 4 6.8V17.2C4 17.918 4.67158 18.5 5.5 18.5C6.32845 18.5 7 17.918 7 17.2V6.8Z" stroke="#333333" stroke-width="2" stroke-linejoin="round"/>
<path d="M20 6.8C20 6.08205 19.3285 5.5 18.5 5.5C17.6715 5.5 17 6.08205 17 6.8V17.2C17 17.918 17.6715 18.5 18.5 18.5C19.3285 18.5 20 17.918 20 17.2V6.8Z" stroke="#333333" stroke-width="2" stroke-linejoin="round"/>
<path d="M4 9.33335C4 8.59695 3.32842 8 2.5 8C1.67158 8 1 8.59695 1 9.33335V14.6666C1 15.403 1.67158 16 2.5 16C3.32842 16 4 15.403 4 14.6666V9.33335Z" stroke="#333333" stroke-width="2" stroke-linejoin="round"/>
<path d="M23 9.33335C23 8.59695 22.3285 8 21.5 8C20.6715 8 20 8.59695 20 9.33335V14.6666C20 15.403 20.6715 16 21.5 16C22.3285 16 23 15.403 23 14.6666V9.33335Z" stroke="#333333" stroke-width="2" stroke-linejoin="round"/>
<path d="M17 13.5H7V10.5H17V13.5Z" stroke="#333333" stroke-width="2" stroke-linejoin="round"/>
</g>
<defs>
<clipPath id="clip0_2_19946">
<rect width="24" height="24" fill="white"/>
</clipPath>
</defs>
</svg>
