<svg width="24" height="24" viewBox="0 0 24 24" fill="none" xmlns="http://www.w3.org/2000/svg">
<path d="M16.5 20.5C13.7601 22.0013 11.5 22 8.5 21C5.4618 19.9872 3.5 16.5 3.5 14C3.5 12.6281 5.55675 11.8141 6.2643 11.5747C6.4037 11.5275 6.5 11.3983 6.5 11.2512V7.5C6.5 6.5335 7.2835 5.75 8.25 5.75C9.2165 5.75 10 6.5335 10 7.5V6.25C10 5.2835 10.7835 4.5 11.75 4.5C12.7165 4.5 13.5 5.2835 13.5 6.25V7.5C13.5 6.5335 14.2835 5.75 15.25 5.75C16.2165 5.75 17 6.5335 17 7.5V3.74999C17 2.7835 17.7835 2 18.75 2C19.7165 2 20.5 2.7835 20.5 3.74999V14.1159C20.5 15.352 20.2039 16.5801 19.481 17.5828C18.746 18.6024 17.6787 19.8541 16.5 20.5Z" stroke="#333333" stroke-width="2" stroke-linecap="round" stroke-linejoin="round"/>
</svg>
