<svg width="24" height="24" viewBox="0 0 24 24" fill="none" xmlns="http://www.w3.org/2000/svg">
<path d="M2.5 8.5H7H9" stroke="#333333" stroke-width="2" stroke-linecap="round" stroke-linejoin="round"/>
<path d="M15 8.5H19.5H21.5" stroke="#333333" stroke-width="2" stroke-linecap="round" stroke-linejoin="round"/>
<path d="M15 15.5H19.5H21.5" stroke="#333333" stroke-width="2" stroke-linecap="round" stroke-linejoin="round"/>
<path d="M2.5 15.5H7H9" stroke="#333333" stroke-width="2" stroke-linecap="round" stroke-linejoin="round"/>
<path d="M15 4.5H17H21.5V8.5V15.5V19.5H17H15" stroke="#333333" stroke-width="2" stroke-linecap="round" stroke-linejoin="round"/>
<path d="M9 4.5H7H2.5V8.5V15.5V19.5H7H9" stroke="#333333" stroke-width="2" stroke-linecap="round" stroke-linejoin="round"/>
<path d="M21.5 19.5V15.5H17V19.5H21.5Z" stroke="#333333" stroke-width="2" stroke-linecap="round" stroke-linejoin="round"/>
<path d="M7 19.5V15.5H2.5V19.5H7Z" stroke="#333333" stroke-width="2" stroke-linecap="round" stroke-linejoin="round"/>
<path d="M21.5 8.5V4.5H17V8.5H21.5Z" stroke="#333333" stroke-width="2" stroke-linecap="round" stroke-linejoin="round"/>
<path d="M2.5 4.5V8.5H7V4.5H2.5Z" stroke="#333333" stroke-width="2" stroke-linecap="round" stroke-linejoin="round"/>
<path d="M12 3.5V5.5" stroke="#333333" stroke-width="2" stroke-linecap="round"/>
<path d="M12 8.5V10.5" stroke="#333333" stroke-width="2" stroke-linecap="round"/>
<path d="M12 13.5V15.5" stroke="#333333" stroke-width="2" stroke-linecap="round"/>
<path d="M12 18.5V20.5" stroke="#333333" stroke-width="2" stroke-linecap="round"/>
</svg>
