<svg width="24" height="24" viewBox="0 0 24 24" fill="none" xmlns="http://www.w3.org/2000/svg">
<path d="M17.5 9L15.5597 15.3062C15.5199 15.4354 15.4824 15.5631 15.436 15.6901C15.162 16.4392 13.9413 19.2097 10.5003 20.5C6.50035 22 2.49971 20 2.5 16.0385C2.5003 12.0769 6.5 12.5 8.5 11C10.5 9.5 12.5 6.5 12.5 6.5" stroke="#333333" stroke-width="2"/>
<path d="M19.6272 12.2439C19.6272 12.2439 20.1858 9.58784 20.0005 8.00014C19.748 5.83639 18.7505 4.25014 17.5001 3.50015C16.2497 2.75015 13.6265 2.25014 11.5002 3.50015C9.37382 4.75017 8.48376 6.42274 8.48376 6.42274L12.5872 6.03879C12.8268 6.01639 13.0484 6.16784 13.1145 6.39929L13.8631 9.01934C13.939 9.28489 14.2157 9.43864 14.4812 9.36274L17.1222 8.60814C17.344 8.54474 17.5803 8.64134 17.6943 8.84189L19.6272 12.2439Z" stroke="#333333" stroke-width="2" stroke-linecap="round" stroke-linejoin="round"/>
<path d="M18 4L21 3" stroke="#333333" stroke-width="2" stroke-linecap="round" stroke-linejoin="round"/>
</svg>
