<svg width="24" height="24" viewBox="0 0 24 24" fill="none" xmlns="http://www.w3.org/2000/svg">
<path d="M19.5 3H4.5C3.67157 3 3 3.67157 3 4.5V19.5C3 20.3284 3.67157 21 4.5 21H19.5C20.3284 21 21 20.3284 21 19.5V4.5C21 3.67157 20.3284 3 19.5 3Z" stroke="#333333" stroke-width="2" stroke-linecap="round" stroke-linejoin="round"/>
<path d="M12 11C13.1046 11 14 10.1046 14 9C14 7.89545 13.1046 7 12 7C10.8954 7 10 7.89545 10 9C10 10.1046 10.8954 11 12 11Z" stroke="#333333" stroke-width="2"/>
<path d="M12 16.5C13.3807 16.5 14.5 15.3807 14.5 14C14.5 12.6193 13.3807 11.5 12 11.5C10.6193 11.5 9.5 12.6193 9.5 14C9.5 15.3807 10.6193 16.5 12 16.5Z" stroke="#333333" stroke-width="2"/>
</svg>
