<svg width="24" height="24" viewBox="0 0 24 24" fill="none" xmlns="http://www.w3.org/2000/svg">
<g clip-path="url(#clip0_2_21693)">
<path d="M24 0H0V24H24V0Z" fill="white" fill-opacity="0.01"/>
<path d="M2.5 9.35625C2.5 9.1595 2.6595 9 2.85625 9H9.57595C16.1614 9 21.5 14.3386 21.5 20.924C21.5 20.966 21.466 21 21.424 21H2.5V9.35625Z" stroke="#333333" stroke-width="2" stroke-linecap="round" stroke-linejoin="round"/>
<path d="M2.5 9V4H12.5" stroke="#333333" stroke-width="2" stroke-linecap="round" stroke-linejoin="round"/>
<path d="M7.5 15.5C8.60457 15.5 9.5 14.6046 9.5 13.5C9.5 12.3954 8.60457 11.5 7.5 11.5C6.39543 11.5 5.5 12.3954 5.5 13.5C5.5 14.6046 6.39543 15.5 7.5 15.5Z" stroke="#333333" stroke-width="2"/>
<path d="M2.5 18H21" stroke="#333333" stroke-width="2" stroke-linecap="round"/>
<path d="M14.5 9.99985C15.1666 8.99985 17.2 6.79985 19 7.99985C20.75 9.1665 19.25 11.9999 18.5 12.9999" stroke="#333333" stroke-width="2" stroke-linecap="round" stroke-linejoin="round"/>
</g>
<defs>
<clipPath id="clip0_2_21693">
<rect width="24" height="24" fill="white"/>
</clipPath>
</defs>
</svg>
