<svg width="24" height="24" viewBox="0 0 24 24" fill="none" xmlns="http://www.w3.org/2000/svg">
<path d="M19.7175 9.02509C20.8891 7.85352 20.8891 5.95403 19.7175 4.78245C18.5459 3.61088 16.6464 3.61088 15.4749 4.78245L6.28248 13.9748C5.11091 15.1464 5.11091 17.0459 6.28248 18.2175C7.45406 19.3891 9.35355 19.3891 10.5251 18.2175L19.7175 9.02509Z" stroke="#333333" stroke-width="2"/>
<path d="M9 11.5L13 15.5" stroke="#333333" stroke-width="2" stroke-linecap="round" stroke-linejoin="round"/>
<path d="M3 21.5L6 18.5" stroke="#333333" stroke-width="2" stroke-linecap="round" stroke-linejoin="round"/>
<path d="M17.866 8.03595C18.1421 7.55765 17.9782 6.94606 17.4999 6.66992C17.0216 6.39378 16.4101 6.55765 16.1339 7.03595C15.8578 7.51424 16.0216 8.12583 16.4999 8.40197C16.9782 8.67812 17.5898 8.51424 17.866 8.03595Z" fill="#333333"/>
</svg>
