<svg width="24" height="24" viewBox="0 0 24 24" fill="none" xmlns="http://www.w3.org/2000/svg">
<g clip-path="url(#clip0_2_20981)">
<path d="M24 0H0V24H24V0Z" fill="white" fill-opacity="0.01"/>
<path d="M15 2H4C3.44772 2 3 2.44772 3 3V21C3 21.5523 3.44772 22 4 22H15C15.5523 22 16 21.5523 16 21V3C16 2.44772 15.5523 2 15 2Z" stroke="#333333" stroke-width="2" stroke-linecap="round" stroke-linejoin="round"/>
<path d="M20 15H12C10.8954 15 10 15.8954 10 17C10 18.1046 10.8954 19 12 19H20C21.1046 19 22 18.1046 22 17C22 15.8954 21.1046 15 20 15Z" stroke="#333333" stroke-width="2" stroke-linecap="round" stroke-linejoin="round"/>
<path d="M6 7C6.55228 7 7 6.55228 7 6C7 5.44772 6.55228 5 6 5C5.44772 5 5 5.44772 5 6C5 6.55228 5.44772 7 6 7Z" fill="#333333"/>
<path d="M6 10C6.55228 10 7 9.55228 7 9C7 8.44772 6.55228 8 6 8C5.44772 8 5 8.44772 5 9C5 9.55228 5.44772 10 6 10Z" fill="#333333"/>
<path d="M6 13C6.55228 13 7 12.5523 7 12C7 11.4477 6.55228 11 6 11C5.44772 11 5 11.4477 5 12C5 12.5523 5.44772 13 6 13Z" fill="#333333"/>
<path d="M9.5 7C10.0523 7 10.5 6.55228 10.5 6C10.5 5.44772 10.0523 5 9.5 5C8.94772 5 8.5 5.44772 8.5 6C8.5 6.55228 8.94772 7 9.5 7Z" fill="#333333"/>
<path d="M9.5 10C10.0523 10 10.5 9.55228 10.5 9C10.5 8.44772 10.0523 8 9.5 8C8.94772 8 8.5 8.44772 8.5 9C8.5 9.55228 8.94772 10 9.5 10Z" fill="#333333"/>
<path d="M9.5 13C10.0523 13 10.5 12.5523 10.5 12C10.5 11.4477 10.0523 11 9.5 11C8.94772 11 8.5 11.4477 8.5 12C8.5 12.5523 8.94772 13 9.5 13Z" fill="#333333"/>
<path d="M13 7C13.5523 7 14 6.55228 14 6C14 5.44772 13.5523 5 13 5C12.4477 5 12 5.44772 12 6C12 6.55228 12.4477 7 13 7Z" fill="#333333"/>
<path d="M13 10C13.5523 10 14 9.55228 14 9C14 8.44772 13.5523 8 13 8C12.4477 8 12 8.44772 12 9C12 9.55228 12.4477 10 13 10Z" fill="#333333"/>
<path d="M13 13C13.5523 13 14 12.5523 14 12C14 11.4477 13.5523 11 13 11C12.4477 11 12 11.4477 12 12C12 12.5523 12.4477 13 13 13Z" fill="#333333"/>
</g>
<defs>
<clipPath id="clip0_2_20981">
<rect width="24" height="24" fill="white"/>
</clipPath>
</defs>
</svg>
