<svg width="24" height="24" viewBox="0 0 24 24" fill="none" xmlns="http://www.w3.org/2000/svg">
<path d="M4.71946 21H6.31177C6.72622 21 7.09772 20.7444 7.24577 20.3572L8.34592 17.4804L8.35821 14.7176C8.35846 14.6593 8.36387 14.6011 8.37427 14.5437L10.0764 5.14998C10.1876 4.53631 9.71612 3.97168 9.09242 3.97168L5.43167 3.97168C4.86852 3.97168 4.41644 4.43643 4.43202 4.99934L4.69316 14.4351L3.80778 16.0999C3.61168 16.4686 3.66539 16.9204 3.94249 17.2329L4.22341 17.5497L3.7418 19.7898C3.60793 20.4125 4.08254 21 4.71946 21Z" stroke="#333333" stroke-width="2" stroke-linecap="round" stroke-linejoin="round"/>
<path d="M8.35834 14.63L4.69287 14.4351" stroke="#333333" stroke-width="2" stroke-linecap="round" stroke-linejoin="round"/>
<path d="M19.2891 21H17.6991C17.2792 21 16.904 20.7377 16.7599 20.3434L15.7132 17.4804L15.7009 14.7176C15.7007 14.6593 15.6953 14.6011 15.6849 14.5438L13.9826 5.14998C13.8714 4.53631 14.3429 3.97168 14.9666 3.97168L18.6276 3.9717C19.1907 3.9717 19.6427 4.43646 19.6272 4.99936L19.3661 14.4351L20.2515 16.1C20.4476 16.4687 20.3939 16.9205 20.1168 17.233L19.8359 17.5498L20.2711 19.811C20.3898 20.4278 19.9172 21 19.2891 21Z" stroke="#333333" stroke-width="2" stroke-linecap="round" stroke-linejoin="round"/>
<path d="M15.7002 14.6299L19.3657 14.4351" stroke="#333333" stroke-width="2" stroke-linecap="round" stroke-linejoin="round"/>
</svg>
