<svg width="24" height="24" viewBox="0 0 24 24" fill="none" xmlns="http://www.w3.org/2000/svg">
<path d="M13.5 5L11.5 7M8 5C8 6.3807 6.8807 7.5 5.5 7.5C4.11929 7.5 3 6.3807 3 5C3 3.61929 4.11929 2.5 5.5 2.5C6.8807 2.5 8 3.61929 8 5ZM8 5H13.5H8ZM13.5 5L11.5 3L13.5 5Z" stroke="#333333" stroke-width="2" stroke-linecap="round" stroke-linejoin="round"/>
<path d="M10.5 19L12.5 21M16 19C16 20.3807 17.1193 21.5 18.5 21.5C19.8807 21.5 21 20.3807 21 19C21 17.6193 19.8807 16.5 18.5 16.5C17.1193 16.5 16 17.6193 16 19ZM16 19H10.5H16ZM10.5 19L12.5 17L10.5 19Z" stroke="#333333" stroke-width="2" stroke-linecap="round" stroke-linejoin="round"/>
<path d="M19 13.5L17 11.5M19 8C17.6193 8 16.5 6.8807 16.5 5.5C16.5 4.11929 17.6193 3 19 3C20.3807 3 21.5 4.11929 21.5 5.5C21.5 6.8807 20.3807 8 19 8ZM19 8V13.5V8ZM19 13.5L21 11.5L19 13.5Z" stroke="#333333" stroke-width="2" stroke-linecap="round" stroke-linejoin="round"/>
<path d="M5 10.5L3 12.5M5 16C3.61929 16 2.5 17.1193 2.5 18.5C2.5 19.8807 3.61929 21 5 21C6.3807 21 7.5 19.8807 7.5 18.5C7.5 17.1193 6.3807 16 5 16ZM5 16V10.5V16ZM5 10.5L7 12.5L5 10.5Z" stroke="#333333" stroke-width="2" stroke-linecap="round" stroke-linejoin="round"/>
</svg>
