<svg width="24" height="24" viewBox="0 0 24 24" fill="none" xmlns="http://www.w3.org/2000/svg">
<path d="M5.0321 12.0292C6.67575 11.4924 6.76465 9.48289 8.93045 9.05854C10.6631 8.71904 11.7038 9.91274 11.9626 11.1805C12.1792 12.2414 11.5294 15 8.06415 15C3.73261 15 2.28877 12.2414 2 11.1805C2.43315 11.6049 3.73262 12.4536 5.0321 12.0292Z" stroke="#333333" stroke-width="2" stroke-linejoin="round"/>
<path d="M18.9679 12.0292C17.3242 11.4924 17.2353 9.48289 15.0695 9.05854C13.3369 8.71904 12.2962 9.91274 12.0374 11.1805C11.8208 12.2414 12.4706 15 15.9358 15C20.2674 15 21.7112 12.2414 22 11.1805C21.5668 11.6049 20.2674 12.4536 18.9679 12.0292Z" stroke="#333333" stroke-width="2" stroke-linejoin="round"/>
</svg>
