<svg width="24" height="24" viewBox="0 0 24 24" fill="none" xmlns="http://www.w3.org/2000/svg">
<path d="M18.5 8C17.1193 8 16 6.8807 16 5.5C16 4.11929 17.1193 3 18.5 3C19.8807 3 21 4.11929 21 5.5C21 6.8807 19.8807 8 18.5 8Z" stroke="#333333" stroke-width="2" stroke-miterlimit="2"/>
<path d="M6 6C4.89543 6 4 5.10455 4 4C4 2.89543 4.89543 2 6 2C7.10455 2 8 2.89543 8 4C8 5.10455 7.10455 6 6 6Z" stroke="#333333" stroke-width="2" stroke-miterlimit="2"/>
<path d="M13 19.5L16 17V14C16 12.267 17 11 18.5 11C20 11 21 12.267 21 14V16.4186V21" stroke="#333333" stroke-width="2" stroke-linecap="round" stroke-linejoin="round"/>
<path d="M12 16.5L9 14V12C9 10.267 8 9 6.5 9C5 9 4 10.267 4 12V13.4186V21" stroke="#333333" stroke-width="2" stroke-linecap="round" stroke-linejoin="round"/>
</svg>
