<svg width="24" height="24" viewBox="0 0 24 24" fill="none" xmlns="http://www.w3.org/2000/svg">
<g clip-path="url(#clip0_2_20686)">
<path d="M24 0H0V24H24V0Z" fill="white" fill-opacity="0.01"/>
<path d="M24 0H0V24H24V0Z" fill="white" fill-opacity="0.01"/>
<path d="M8 12C10.7614 12 13 9.7614 13 7C13 4.23857 10.7614 2 8 2C5.2386 2 3 4.23857 3 7C3 9.7614 5.2386 12 8 12Z" stroke="#333333" stroke-width="2" stroke-linejoin="round"/>
<path d="M13 7.60107C13.0072 7.60822 15.3615 10.5689 20.0628 16.4829C20.2281 16.6816 20.2148 16.9735 20.032 17.1563L17.9903 19.198C17.8075 19.3808 17.5156 19.3941 17.3169 19.2288L8.91113 12.0001" stroke="#333333" stroke-width="2" stroke-linecap="round" stroke-linejoin="round"/>
<path d="M13.235 12.2349L14.6492 13.6491" stroke="#333333" stroke-width="2" stroke-linecap="round" stroke-linejoin="round"/>
<path d="M8.5 22.0431C9.4583 20.794 10.6234 20.1694 11.9953 20.1694C14.0532 20.1694 16.4815 22.7548 18.5532 22.3989C20.6248 22.0431 21.2178 19.9999 19.9426 18.8687" stroke="#333333" stroke-width="2" stroke-linecap="round" stroke-linejoin="round"/>
</g>
<defs>
<clipPath id="clip0_2_20686">
<rect width="24" height="24" fill="white"/>
</clipPath>
</defs>
</svg>
