<svg width="24" height="24" viewBox="0 0 24 24" fill="none" xmlns="http://www.w3.org/2000/svg">
<g clip-path="url(#clip0_2_21443)">
<path d="M24 0H0V24H24V0Z" fill="white" fill-opacity="0.01"/>
<path d="M19.5 3H4.5C3.67157 3 3 3.67157 3 4.5V19.5C3 20.3284 3.67157 21 4.5 21H19.5C20.3284 21 21 20.3284 21 19.5V4.5C21 3.67157 20.3284 3 19.5 3Z" stroke="#333333" stroke-width="2" stroke-linejoin="round"/>
<path fill-rule="evenodd" clip-rule="evenodd" d="M12 11.25C12.6904 11.25 13.25 10.6904 13.25 10C13.25 9.30965 12.6904 8.75 12 8.75C11.3097 8.75 10.75 9.30965 10.75 10C10.75 10.6904 11.3097 11.25 12 11.25Z" fill="#333333"/>
<path fill-rule="evenodd" clip-rule="evenodd" d="M12 15.25C12.6904 15.25 13.25 14.6904 13.25 14C13.25 13.3097 12.6904 12.75 12 12.75C11.3097 12.75 10.75 13.3097 10.75 14C10.75 14.6904 11.3097 15.25 12 15.25Z" fill="#333333"/>
<path d="M7.75 8.5V15.5" stroke="#333333" stroke-width="2" stroke-linecap="round" stroke-linejoin="round"/>
<path d="M16.25 8.5V15.5" stroke="#333333" stroke-width="2" stroke-linecap="round" stroke-linejoin="round"/>
</g>
<defs>
<clipPath id="clip0_2_21443">
<rect width="24" height="24" fill="white"/>
</clipPath>
</defs>
</svg>
