<svg width="24" height="24" viewBox="0 0 24 24" fill="none" xmlns="http://www.w3.org/2000/svg">
<path d="M4 15.5L4.00001 21C4.00001 21.5523 4.44772 22 5 22H19C19.5523 22 20 21.5523 20 21V15.5" stroke="#333333" stroke-width="2" stroke-linecap="round" stroke-linejoin="round"/>
<path d="M19 7H5C4.44771 7 4 7.4477 4 8L4.00001 11C4.00001 11.5523 4.44772 12 5 12H19C19.5523 12 20 11.5523 20 11V8C20 7.4477 19.5523 7 19 7Z" stroke="#333333" stroke-width="2" stroke-linejoin="round"/>
<path d="M8 2V4" stroke="#333333" stroke-width="2" stroke-linecap="round" stroke-linejoin="round"/>
<path d="M12 2V4" stroke="#333333" stroke-width="2" stroke-linecap="round" stroke-linejoin="round"/>
<path d="M16 2V4" stroke="#333333" stroke-width="2" stroke-linecap="round" stroke-linejoin="round"/>
<path d="M8 17H16" stroke="#333333" stroke-width="2" stroke-linecap="round" stroke-linejoin="round"/>
</svg>
