<svg width="24" height="24" viewBox="0 0 24 24" fill="none" xmlns="http://www.w3.org/2000/svg">
<path d="M19.5 3H4.5C3.67157 3 3 3.67157 3 4.5V19.5C3 20.3284 3.67157 21 4.5 21H19.5C20.3284 21 21 20.3284 21 19.5V4.5C21 3.67157 20.3284 3 19.5 3Z" stroke="#333333" stroke-width="2"/>
<path d="M17.5 6H15.2071C14.7616 6 14.5385 6.53855 14.8535 6.85355L17.1464 9.14645C17.4614 9.46145 18 9.23835 18 8.7929V6.5C18 6.22385 17.7761 6 17.5 6Z" fill="#333333"/>
<path d="M6 6.5V8.7929C6 9.23835 6.53855 9.46145 6.85355 9.14645L9.14645 6.85355C9.46145 6.53855 9.23835 6 8.7929 6H6.5C6.22385 6 6 6.22385 6 6.5Z" fill="#333333"/>
<path d="M6.5 18H8.7929C9.23835 18 9.46145 17.4614 9.14645 17.1464L6.85355 14.8535C6.53855 14.5385 6 14.7616 6 15.2071V17.5C6 17.7761 6.22385 18 6.5 18Z" fill="#333333"/>
<path d="M18 17.5V15.2071C18 14.7616 17.4614 14.5385 17.1464 14.8535L14.8535 17.1464C14.5385 17.4614 14.7616 18 15.2071 18H17.5C17.7761 18 18 17.7761 18 17.5Z" fill="#333333"/>
</svg>
