<svg width="24" height="24" viewBox="0 0 24 24" fill="none" xmlns="http://www.w3.org/2000/svg">
<g clip-path="url(#clip0_2_20973)">
<path d="M24 0H0V24H24V0Z" fill="white" fill-opacity="0.01"/>
<path fill-rule="evenodd" clip-rule="evenodd" d="M12 20.5C16.9706 20.5 21 16.339 21 13.5C21 10.661 16.9706 6.5 12 6.5C7.02945 6.5 3 10.6639 3 13.5C3 16.3361 7.02945 20.5 12 20.5Z" stroke="#333333" stroke-width="2" stroke-linejoin="round"/>
<path d="M12 16.5C13.6568 16.5 15 15.1568 15 13.5C15 11.8432 13.6568 10.5 12 10.5C10.3432 10.5 9 11.8432 9 13.5C9 15.1568 10.3432 16.5 12 16.5Z" stroke="#333333" stroke-width="2" stroke-linejoin="round"/>
<path d="M6.63184 5.63281L7.92909 7.44291" stroke="#333333" stroke-width="2" stroke-linecap="round"/>
<path d="M17.8126 5.85498L16.5153 7.66508" stroke="#333333" stroke-width="2" stroke-linecap="round"/>
<path d="M12.0044 3.5V6.50001" stroke="#333333" stroke-width="2" stroke-linecap="round"/>
</g>
<defs>
<clipPath id="clip0_2_20973">
<rect width="24" height="24" fill="white"/>
</clipPath>
</defs>
</svg>
