<svg width="24" height="24" viewBox="0 0 24 24" fill="none" xmlns="http://www.w3.org/2000/svg">
<path d="M19.5 3H4.5C3.67157 3 3 3.67157 3 4.5V19.5C3 20.3284 3.67157 21 4.5 21H19.5C20.3284 21 21 20.3284 21 19.5V4.5C21 3.67157 20.3284 3 19.5 3Z" stroke="#333333" stroke-width="2" stroke-linecap="round" stroke-linejoin="round"/>
<path d="M15 12C16.1046 12 17 11.1046 17 10C17 8.89545 16.1046 8 15 8C13.8954 8 13 8.89545 13 10C13 11.1046 13.8954 12 15 12Z" stroke="#333333" stroke-width="2"/>
<path d="M15 16.5C16.1046 16.5 17 15.6046 17 14.5C17 13.3954 16.1046 12.5 15 12.5C13.8954 12.5 13 13.3954 13 14.5C13 15.6046 13.8954 16.5 15 16.5Z" stroke="#333333" stroke-width="2"/>
<path d="M10.5 8H7V16" stroke="#333333" stroke-width="2" stroke-linecap="round" stroke-linejoin="round"/>
<path d="M7 12H10.5" stroke="#333333" stroke-width="2" stroke-linecap="round" stroke-linejoin="round"/>
</svg>
