<svg width="24" height="24" viewBox="0 0 24 24" fill="none" xmlns="http://www.w3.org/2000/svg">
<path d="M19.5 3H4.5C3.67157 3 3 3.67157 3 4.5V19.5C3 20.3284 3.67157 21 4.5 21H19.5C20.3284 21 21 20.3284 21 19.5V4.5C21 3.67157 20.3284 3 19.5 3Z" stroke="#333333" stroke-width="2" stroke-linecap="round" stroke-linejoin="round"/>
<path d="M13 8.5V16" stroke="#333333" stroke-width="2" stroke-linecap="round"/>
<path d="M13 11.5C13 10.3107 13.8 9.5 15 9.5C16.2 9.5 17 10.2636 17 11.5C17 12.3242 17 14.3535 17 16" stroke="#333333" stroke-width="2" stroke-linecap="round"/>
<path d="M10.5 8H7V16" stroke="#333333" stroke-width="2" stroke-linecap="round" stroke-linejoin="round"/>
<path d="M7 12H10.5" stroke="#333333" stroke-width="2" stroke-linecap="round" stroke-linejoin="round"/>
</svg>
