<svg width="24" height="24" viewBox="0 0 24 24" fill="none" xmlns="http://www.w3.org/2000/svg">
<path d="M3 7.5V3H7.5" stroke="#333333" stroke-width="2" stroke-linecap="round" stroke-linejoin="round"/>
<path d="M3 16.5V21H7.5" stroke="#333333" stroke-width="2" stroke-linecap="round" stroke-linejoin="round"/>
<path d="M21 16.5V21H16.5" stroke="#333333" stroke-width="2" stroke-linecap="round" stroke-linejoin="round"/>
<path d="M16.5 3H21V7.5" stroke="#333333" stroke-width="2" stroke-linecap="round" stroke-linejoin="round"/>
<path d="M12 19C15.3137 19 18 15.866 18 12C18 8.134 15.3137 5 12 5C8.6863 5 6 8.134 6 12C6 15.866 8.6863 19 12 19Z" stroke="#333333" stroke-width="2"/>
<path d="M3 12H21" stroke="#333333" stroke-width="2" stroke-linecap="round"/>
<path d="M10.0352 15.0527C10.6691 15.5213 11.3241 15.7557 12.0003 15.7557C12.6765 15.7557 13.3495 15.5213 14.0194 15.0527" stroke="#333333" stroke-width="2" stroke-linecap="round"/>
</svg>
