<svg width="24" height="24" viewBox="0 0 24 24" fill="none" xmlns="http://www.w3.org/2000/svg">
<path d="M19.5 3H4.5C3.67158 3 3 3.67158 3 4.5V19.5C3 20.3285 3.67158 21 4.5 21H19.5C20.3285 21 21 20.3285 21 19.5V4.5C21 3.67158 20.3285 3 19.5 3Z" stroke="#333333" stroke-width="2"/>
<path d="M13.5 6V8C14.8333 8.41665 18 9.5 18 13C18 16.5 15 18 12 18C9 18 6 16.5 6 13C6 9 10.8333 6.58335 13.5 6Z" stroke="#333333" stroke-width="2" stroke-linecap="round" stroke-linejoin="round"/>
<path d="M14.5 15C15.3284 15 16 14.1046 16 13C16 11.8954 15.3284 11 14.5 11C13.6716 11 13 11.8954 13 13C13 14.1046 13.6716 15 14.5 15Z" fill="#333333"/>
<path d="M9.5 15C10.3284 15 11 14.1046 11 13C11 11.8954 10.3284 11 9.5 11C8.67157 11 8 11.8954 8 13C8 14.1046 8.67157 15 9.5 15Z" fill="#333333"/>
</svg>
