<svg width="24" height="24" viewBox="0 0 24 24" fill="none" xmlns="http://www.w3.org/2000/svg">
<path d="M5 9.5C5 9.5 2.42857 10.5 2 14" stroke="#333333" stroke-width="2" stroke-linecap="round"/>
<path d="M19 9.5C19 9.5 21.5714 10.5 22 14" stroke="#333333" stroke-width="2" stroke-linecap="round"/>
<path d="M9 9.5C9 9.5 11.4 10.0833 12 13" stroke="#333333" stroke-width="2" stroke-linecap="round"/>
<path d="M15 9.5C15 9.5 12.6 10.0833 12 13" stroke="#333333" stroke-width="2" stroke-linecap="round"/>
<path d="M10 17C10 17 7.9 17.375 7 20" stroke="#333333" stroke-width="2" stroke-linecap="round"/>
<path d="M14 17C14 17 16.1 17.375 17 20" stroke="#333333" stroke-width="2" stroke-linecap="round"/>
<path d="M12 18C13.3807 18 14.5 16.8807 14.5 15.5C14.5 14.1193 13.3807 13 12 13C10.6193 13 9.5 14.1193 9.5 15.5C9.5 16.8807 10.6193 18 12 18Z" stroke="#333333" stroke-width="2" stroke-linecap="round" stroke-linejoin="round"/>
<path d="M17 10C18.6569 10 20 8.65685 20 7C20 5.34315 18.6569 4 17 4C15.3431 4 14 5.34315 14 7C14 8.65685 15.3431 10 17 10Z" stroke="#333333" stroke-width="2" stroke-linecap="round" stroke-linejoin="round"/>
<path d="M7 10C8.65685 10 10 8.65685 10 7C10 5.34315 8.65685 4 7 4C5.34315 4 4 5.34315 4 7C4 8.65685 5.34315 10 7 10Z" stroke="#333333" stroke-width="2" stroke-linecap="round" stroke-linejoin="round"/>
</svg>
