<svg width="24" height="24" viewBox="0 0 24 24" fill="none" xmlns="http://www.w3.org/2000/svg">
<g clip-path="url(#clip0_2_20627)">
<path d="M24 0H0V24H24V0Z" fill="white" fill-opacity="0.01"/>
<path d="M12 15.5V18M7.00695 13.8777L2.01392 12.2553C2.69913 10.1464 4.03437 8.30865 5.82825 7.0053C7.62215 5.702 9.78265 5 12 5C14.2174 5 16.3778 5.702 18.1717 7.0053C19.9656 8.30865 21.3009 10.1464 21.9861 12.2553L16.9931 13.8777H7.00695ZM7.00695 13.8777C7.34955 12.8233 8.0172 11.9044 8.91415 11.2527L7.00695 13.8777ZM7.00695 13.8777L12 15.5L7.00695 13.8777ZM8.91415 11.2527C9.8111 10.601 10.8913 10.25 12 10.25L8.91415 11.2527ZM8.91415 11.2527L12 15.5L8.91415 11.2527ZM12 10.25C13.1087 10.25 14.189 10.601 15.0859 11.2527L12 10.25ZM12 10.25V15.5V10.25ZM15.0859 11.2527C15.9829 11.9044 16.6505 12.8233 16.9931 13.8777L15.0859 11.2527ZM15.0859 11.2527L12 15.5L15.0859 11.2527ZM16.9931 13.8777L12 15.5L16.9931 13.8777Z" stroke="#333333" stroke-width="2" stroke-linecap="round" stroke-linejoin="round"/>
</g>
<defs>
<clipPath id="clip0_2_20627">
<rect width="24" height="24" fill="white"/>
</clipPath>
</defs>
</svg>
