<svg width="24" height="24" viewBox="0 0 24 24" fill="none" xmlns="http://www.w3.org/2000/svg">
<path d="M17.7143 2.44217C19.8232 2.44217 21.5408 4.15987 21.5408 6.2687V17.7143C21.5408 19.8232 19.8232 21.5408 17.7143 21.5408H6.2687C4.15987 21.5408 2.44217 19.8232 2.44217 17.7143V6.2687C2.44217 4.15987 4.15987 2.44217 6.2687 2.44217H17.7143ZM17.7143 2H6.2687C3.90476 2 2 3.90476 2 6.2687V17.7143C2 20.0783 3.90476 21.983 6.2687 21.983H17.7143C20.0783 21.983 21.983 20.0783 21.983 17.7143V6.2687C22 3.90476 20.0783 2 17.7143 2Z" fill="#333333"/>
<path d="M14.5508 2V6.2007L16.1664 5.2823L17.782 6.2007V2H14.5508Z" fill="#333333"/>
<path d="M12.017 9.14258C7.91835 9.14258 4.27891 10.9283 2 13.6834V17.714C2 20.078 3.90476 21.9827 6.2687 21.9827H17.7143C20.0783 21.9827 21.983 20.078 21.983 17.714V13.6324C19.7041 10.8943 16.0986 9.14258 12.017 9.14258ZM7.3061 18.8365C6.5578 18.8365 6.2007 18.5644 6.2007 18.2072C6.2007 17.8501 6.5408 17.561 7.2891 17.561C8.0374 17.561 8.9388 18.1902 8.9388 18.1902C8.9388 18.1902 8.0544 18.8365 7.3061 18.8365ZM7.91835 15.6052C7.37415 15.078 7.32315 14.6358 7.57825 14.3807C7.83335 14.1256 8.2755 14.1596 8.81975 14.7038C9.36395 15.231 9.534 16.3025 9.534 16.3025C9.534 16.3025 8.4456 16.1324 7.91835 15.6052ZM12.017 15.231C12.017 15.231 11.3708 14.3637 11.3538 13.5984C11.3538 12.8501 11.6258 12.4929 11.983 12.4929C12.3401 12.4929 12.6292 12.8331 12.6292 13.5814C12.6462 14.3467 12.017 15.231 12.017 15.231ZM15.1803 14.6868C15.7245 14.1596 16.1666 14.1256 16.4217 14.3637C16.6768 14.6188 16.6258 15.061 16.0816 15.5882C15.5374 16.1154 14.466 16.2684 14.466 16.2684C14.466 16.2684 14.6361 15.214 15.1803 14.6868ZM16.6768 18.8365C15.9285 18.8365 15.0442 18.1732 15.0442 18.1732C15.0442 18.1732 15.9285 17.544 16.6939 17.544C17.4422 17.544 17.7993 17.8501 17.7823 18.1902C17.7823 18.5644 17.4251 18.8365 16.6768 18.8365Z" fill="#333333"/>
</svg>
