<svg width="24" height="24" viewBox="0 0 24 24" fill="none" xmlns="http://www.w3.org/2000/svg">
<path d="M11.071 7.92914L5.41415 13.586C4.63311 14.367 4.63311 15.6333 5.41415 16.4144L10.3639 21.3641C11.1449 22.1452 12.4113 22.1452 13.1923 21.3641L18.1421 16.4144C18.9231 15.6333 18.9231 14.367 18.1421 13.586L12.4852 7.92914C12.0947 7.53859 11.4615 7.53859 11.071 7.92914Z" stroke="#333333" stroke-width="2" stroke-linecap="round" stroke-linejoin="round"/>
<path d="M11.5 7.4549C11.5 7.4549 14.5292 4.07459 15.2053 3.37012C15.8815 2.66565 17.7838 1.9502 18.9107 3.12432C20.0376 4.29844 19.3206 6.15915 18.6444 6.86365C17.9683 7.5681 15.3104 10.5 15.3104 10.5" stroke="#333333" stroke-width="2" stroke-linecap="round" stroke-linejoin="round"/>
<path d="M11.5 7.4549C11.5 7.4549 8.4708 4.07459 7.79465 3.37012C7.1185 2.66565 5.21625 1.9502 4.08933 3.12432C2.96242 4.29844 3.67938 6.15915 4.35553 6.86365C5.0317 7.5681 7.6896 10.5 7.6896 10.5" stroke="#333333" stroke-width="2" stroke-linecap="round" stroke-linejoin="round"/>
</svg>
