<svg width="24" height="24" viewBox="0 0 24 24" fill="none" xmlns="http://www.w3.org/2000/svg">
<g clip-path="url(#clip0_2_21208)">
<path d="M24 0H0V24H24V0Z" fill="white" fill-opacity="0.01"/>
<path fill-rule="evenodd" clip-rule="evenodd" d="M3.92675 12.0603C2.59695 10.451 1.58821 8.56204 1 6.49414C2.18448 8.09994 3.6229 9.50339 5.2558 10.6441C7.9667 8.09894 11.6012 6.54169 15.5965 6.54029C18.2163 6.54069 20.5448 7.77439 22.0474 9.69609C22.1322 9.79714 22.2107 9.90264 22.2831 10.0125C22.6189 10.5179 22.8338 11.1113 22.8865 11.7517C22.2659 11.4778 21.6296 11.2385 20.978 11.0355C19.4307 10.5527 17.7955 10.2731 16.1017 10.227C15.9233 10.222 15.7633 10.2198 15.6027 10.2198C13.7281 10.2198 11.9225 10.5051 10.2228 11.0352C9.42485 11.2839 8.6502 11.5866 7.90335 11.9392C7.81925 11.9786 7.73575 12.019 7.65215 12.0598C7.73615 12.1007 7.8209 12.1415 7.90585 12.1815C8.6516 12.5329 9.42525 12.8356 10.2222 13.0838C11.9225 13.6139 13.7292 13.8997 15.6017 13.8997C15.7627 13.8997 15.9233 13.8977 16.0835 13.8931C17.7958 13.8466 19.4312 13.567 20.9785 13.0851C21.6299 12.8816 22.2654 12.6428 22.8834 12.3699C22.8338 13.0073 22.6189 13.6002 22.2845 14.1041C22.2095 14.2176 22.128 14.3264 22.0415 14.4306C20.5398 16.3493 18.2133 17.5804 15.6017 17.581C11.6007 17.5795 7.9652 16.0217 5.25415 13.4759C3.62227 14.6162 2.18448 16.0196 1.00063 17.6249C1.58922 15.5576 2.59745 13.669 3.92675 12.0603Z" fill="#333333"/>
<path fill-rule="evenodd" clip-rule="evenodd" d="M16.2986 13.6912C17.0634 13.459 17.6274 13.0697 17.6274 12.122C17.6274 11.1738 17.0634 10.6408 16.2981 10.4081C16.2926 10.4066 16.2871 10.4049 16.2821 10.4031C16.14 10.3616 15.9913 10.3394 15.8382 10.3394C15.9957 10.3394 16.1528 10.3417 16.3095 10.3468C16.31 10.3468 16.322 10.3468 16.3279 10.3474C17.9904 10.3986 19.5704 10.716 21.1143 11.2118C21.7538 11.4376 22.2802 11.6021 22.8865 11.9048C22.8865 12.0236 22.8865 11.9878 22.8865 12.1031C22.8865 12.2192 22.8865 12.1566 22.8726 12.2736C22.2109 12.5503 21.7542 12.711 21.1148 12.9373C19.5778 13.3695 17.9908 13.701 16.3289 13.7521C16.3225 13.7528 16.316 13.7528 16.31 13.7528C16.1528 13.7579 15.9953 13.7601 15.8372 13.7601C15.9908 13.7601 16.14 13.7378 16.2826 13.6964C16.2877 13.6947 16.2931 13.693 16.2986 13.6912Z" fill="#333333"/>
</g>
<defs>
<clipPath id="clip0_2_21208">
<rect width="24" height="24" fill="white"/>
</clipPath>
</defs>
</svg>
