<svg width="24" height="24" viewBox="0 0 24 24" fill="none" xmlns="http://www.w3.org/2000/svg">
<path d="M4.5 22L12 11" stroke="#333333" stroke-width="2" stroke-linecap="round"/>
<path d="M19.5 22L12 11" stroke="#333333" stroke-width="2" stroke-linecap="round"/>
<path d="M4.56608 12.0002C4.5225 11.673 4.5 11.3392 4.5 11.0002C4.5 9.9335 4.72267 8.91885 5.12405 8.00015C5.16425 7.90815 5.20625 7.8171 5.25 7.72705" stroke="#333333" stroke-width="2"/>
<path d="M5.57837 14.8765C6.64442 16.6386 8.41527 17.9267 10.5001 18.3499" stroke="#333333" stroke-width="2"/>
<path d="M13.5 18.35C15.607 17.9223 17.3933 16.6113 18.4555 14.8203" stroke="#333333" stroke-width="2"/>
<path d="M19.4339 12.0002C19.4775 11.673 19.5 11.3392 19.5 11.0002C19.5 9.82665 19.2305 8.71615 18.75 7.72705" stroke="#333333" stroke-width="2"/>
<path d="M13.5 3.6499C14.8276 3.9194 16.0279 4.5396 17 5.40962" stroke="#333333" stroke-width="2"/>
<path d="M10.5001 3.6499C9.17242 3.9194 7.97212 4.5396 7.00007 5.40962C6.89497 5.50367 6.79252 5.60067 6.69287 5.70047" stroke="#333333" stroke-width="2"/>
<path d="M5 15C5.82843 15 6.5 14.3284 6.5 13.5C6.5 12.6716 5.82843 12 5 12C4.17157 12 3.5 12.6716 3.5 13.5C3.5 14.3284 4.17157 15 5 15Z" stroke="#333333" stroke-width="2"/>
<path d="M12 20C12.8284 20 13.5 19.3284 13.5 18.5C13.5 17.6716 12.8284 17 12 17C11.1716 17 10.5 17.6716 10.5 18.5C10.5 19.3284 11.1716 20 12 20Z" stroke="#333333" stroke-width="2"/>
<path d="M12 5C12.8284 5 13.5 4.32843 13.5 3.5C13.5 2.67157 12.8284 2 12 2C11.1716 2 10.5 2.67157 10.5 3.5C10.5 4.32843 11.1716 5 12 5Z" stroke="#333333" stroke-width="2"/>
<path d="M6 8C6.82843 8 7.5 7.32843 7.5 6.5C7.5 5.67157 6.82843 5 6 5C5.17157 5 4.5 5.67157 4.5 6.5C4.5 7.32843 5.17157 8 6 8Z" stroke="#333333" stroke-width="2"/>
<path d="M18 8C18.8284 8 19.5 7.32843 19.5 6.5C19.5 5.67157 18.8284 5 18 5C17.1716 5 16.5 5.67157 16.5 6.5C16.5 7.32843 17.1716 8 18 8Z" stroke="#333333" stroke-width="2"/>
<path d="M19 15C19.8284 15 20.5 14.3284 20.5 13.5C20.5 12.6716 19.8284 12 19 12C18.1716 12 17.5 12.6716 17.5 13.5C17.5 14.3284 18.1716 15 19 15Z" stroke="#333333" stroke-width="2"/>
<path d="M12 13C13.1046 13 14 12.1046 14 11C14 9.89543 13.1046 9 12 9C10.8954 9 10 9.89543 10 11C10 12.1046 10.8954 13 12 13Z" fill="#333333"/>
<path d="M3 22H7" stroke="#333333" stroke-width="2" stroke-linecap="round" stroke-linejoin="round"/>
<path d="M17 22H21" stroke="#333333" stroke-width="2" stroke-linecap="round" stroke-linejoin="round"/>
</svg>
