<svg width="24" height="24" viewBox="0 0 24 24" fill="none" xmlns="http://www.w3.org/2000/svg">
<path d="M19.5 3H4.5C3.67157 3 3 3.67157 3 4.5V19.5C3 20.3284 3.67157 21 4.5 21H19.5C20.3284 21 21 20.3284 21 19.5V4.5C21 3.67157 20.3284 3 19.5 3Z" stroke="#333333" stroke-width="2" stroke-linejoin="round"/>
<path d="M9 9C9 8.17155 9.67155 7.5 10.5 7.5H12V10.5H10.5C9.67155 10.5 9 9.82845 9 9Z" stroke="#333333" stroke-width="2" stroke-linejoin="round"/>
<path d="M9 12C9 11.1715 9.67155 10.5 10.5 10.5H12V13.5H10.5C9.67155 13.5 9 12.8285 9 12Z" stroke="#333333" stroke-width="2" stroke-linejoin="round"/>
<path d="M9 15C9 14.1715 9.67155 13.5 10.5 13.5H12V15C12 15.8285 11.3285 16.5 10.5 16.5C9.67155 16.5 9 15.8285 9 15Z" stroke="#333333" stroke-width="2" stroke-linejoin="round"/>
<path d="M12 7.5H13.5C14.3285 7.5 15 8.17155 15 9C15 9.82845 14.3285 10.5 13.5 10.5H12V7.5Z" stroke="#333333" stroke-width="2" stroke-linejoin="round"/>
<path d="M12 12C12 11.1715 12.6715 10.5 13.5 10.5C14.3285 10.5 15 11.1715 15 12C15 12.8285 14.3285 13.5 13.5 13.5C12.6715 13.5 12 12.8285 12 12Z" stroke="#333333" stroke-width="2" stroke-linejoin="round"/>
</svg>
