<svg width="24" height="24" viewBox="0 0 24 24" fill="none" xmlns="http://www.w3.org/2000/svg">
<g clip-path="url(#clip0_2_21121)">
<path d="M24 0H0V24H24V0Z" fill="white" fill-opacity="0.01"/>
<path d="M12 22C17.5228 22 22 17.5228 22 12C22 6.47715 17.5228 2 12 2C6.47715 2 2 6.47715 2 12C2 17.5228 6.47715 22 12 22Z" stroke="#333333" stroke-width="2" stroke-linecap="round" stroke-linejoin="round"/>
<path d="M7 20.6622C9.989 18.9332 12 15.7015 12 12.0001C12 8.29867 9.989 5.06692 7 3.33789C4.01099 5.06692 2 8.29867 2 12.0001C2 15.7015 4.01099 18.9332 7 20.6622Z" stroke="#333333" stroke-width="2" stroke-linecap="round" stroke-linejoin="round"/>
</g>
<defs>
<clipPath id="clip0_2_21121">
<rect width="24" height="24" fill="white"/>
</clipPath>
</defs>
</svg>
