<svg width="24" height="24" viewBox="0 0 24 24" fill="none" xmlns="http://www.w3.org/2000/svg">
<path d="M20 11.5V7L15.5 2H5C4.44771 2 4 2.44771 4 3V21C4 21.5523 4.44771 22 5 22H11" stroke="#333333" stroke-width="2" stroke-linecap="round" stroke-linejoin="round"/>
<path d="M16.5 20.5C18.9853 20.5 21 17.5 21 17.5C21 17.5 18.9853 14.5 16.5 14.5C14.0147 14.5 12 17.5 12 17.5C12 17.5 14.0147 20.5 16.5 20.5Z" stroke="#333333" stroke-width="2" stroke-linejoin="round"/>
<path d="M16.5 18.5C17.0523 18.5 17.5 18.0523 17.5 17.5C17.5 16.9477 17.0523 16.5 16.5 16.5C15.9477 16.5 15.5 16.9477 15.5 17.5C15.5 18.0523 15.9477 18.5 16.5 18.5Z" fill="#333333"/>
<path d="M15 2V7H20" stroke="#333333" stroke-width="2" stroke-linecap="round" stroke-linejoin="round"/>
</svg>
