<svg width="24" height="24" viewBox="0 0 24 24" fill="none" xmlns="http://www.w3.org/2000/svg">
<path d="M5 22H19C19.5523 22 20 21.5523 20 21V7L15.5 2H5C4.44771 2 4 2.44771 4 3V21C4 21.5523 4.44771 22 5 22Z" stroke="#333333" stroke-width="2" stroke-linecap="round" stroke-linejoin="round"/>
<path d="M8 11.5C8.14105 11.9572 8.35475 12.3814 8.6273 12.7583C9.39135 13.815 10.6176 14.5 12 14.5C13.3824 14.5 14.6086 13.815 15.3727 12.7583C15.6452 12.3814 15.859 11.9572 16 11.5" stroke="#333333" stroke-width="2" stroke-linecap="round" stroke-linejoin="round"/>
<path d="M10.7607 14.5342L10.243 16.466" stroke="#333333" stroke-width="2" stroke-linecap="round" stroke-linejoin="round"/>
<path d="M13.2432 14.5342L13.7608 16.466" stroke="#333333" stroke-width="2" stroke-linecap="round" stroke-linejoin="round"/>
<path d="M15.1768 13.6768L16.591 15.091" stroke="#333333" stroke-width="2" stroke-linecap="round" stroke-linejoin="round"/>
<path d="M7.5 15.005L8.91425 13.5908" stroke="#333333" stroke-width="2" stroke-linecap="round" stroke-linejoin="round"/>
<path d="M15 2V7H20" stroke="#333333" stroke-width="2" stroke-linecap="round" stroke-linejoin="round"/>
</svg>
