<svg width="24" height="24" viewBox="0 0 24 24" fill="none" xmlns="http://www.w3.org/2000/svg">
<path d="M5 22H19C19.5523 22 20 21.5523 20 21V7L15.5 2H5C4.44771 2 4 2.44771 4 3V21C4 21.5523 4.44771 22 5 22Z" stroke="#333333" stroke-width="2" stroke-linecap="round" stroke-linejoin="round"/>
<path d="M12 15.5V14C13.1046 14 14 12.9927 14 11.75C14 10.5073 13.1046 9.5 12 9.5C10.8954 9.5 10 10.5073 10 11.75" stroke="#333333" stroke-width="2" stroke-linecap="round" stroke-linejoin="round"/>
<path fill-rule="evenodd" clip-rule="evenodd" d="M12 19.5C12.6904 19.5 13.25 18.9404 13.25 18.25C13.25 17.5597 12.6904 17 12 17C11.3097 17 10.75 17.5597 10.75 18.25C10.75 18.9404 11.3097 19.5 12 19.5Z" fill="#333333"/>
<path d="M15 2V7H20" stroke="#333333" stroke-width="2" stroke-linecap="round" stroke-linejoin="round"/>
</svg>
