<svg width="24" height="24" viewBox="0 0 24 24" fill="none" xmlns="http://www.w3.org/2000/svg">
<path d="M5 19V22H19V19" stroke="#333333" stroke-width="2" stroke-linecap="round" stroke-linejoin="round"/>
<path d="M19 10V7L15 2H5V10" stroke="#333333" stroke-width="2" stroke-linecap="round" stroke-linejoin="round"/>
<path d="M14 2V7H19" stroke="#333333" stroke-width="2" stroke-linecap="round" stroke-linejoin="round"/>
<path d="M21 10H3C2.44772 10 2 10.4477 2 11V18C2 18.5523 2.44772 19 3 19H21C21.5523 19 22 18.5523 22 18V11C22 10.4477 21.5523 10 21 10Z" stroke="#333333" stroke-width="2" stroke-linejoin="round"/>
<path d="M10.5 12.5V16.5" stroke="#333333" stroke-width="2" stroke-linecap="round"/>
<path d="M5 12.5V16.5" stroke="#333333" stroke-width="2" stroke-linecap="round"/>
<path d="M16 16.5V12.5H18.5" stroke="#333333" stroke-width="2" stroke-linecap="round" stroke-linejoin="round"/>
<path d="M16 15H18.5" stroke="#333333" stroke-width="2" stroke-linecap="round" stroke-linejoin="round"/>
<path d="M5 12.5H6.75C7.44035 12.5 8 13.0597 8 13.75C8 14.4403 7.44035 15 6.75 15H5" stroke="#333333" stroke-width="2" stroke-linecap="round" stroke-linejoin="round"/>
<path d="M10.5 12.5H11.5C12.6046 12.5 13.5 13.3954 13.5 14.5C13.5 15.6046 12.6046 16.5 11.5 16.5H10.5" stroke="#333333" stroke-width="2" stroke-linecap="round" stroke-linejoin="round"/>
<path d="M8 6H10" stroke="#333333" stroke-width="2" stroke-linecap="round"/>
</svg>
