<svg width="24" height="24" viewBox="0 0 24 24" fill="none" xmlns="http://www.w3.org/2000/svg">
<path d="M5 22H19C19.5523 22 20 21.5523 20 21V7L15.5 2H5C4.44771 2 4 2.44771 4 3V21C4 21.5523 4.44771 22 5 22Z" stroke="#333333" stroke-width="2" stroke-linecap="round" stroke-linejoin="round"/>
<path d="M12 17C14.4853 17 16.5 14 16.5 14C16.5 14 14.4853 11 12 11C9.5147 11 7.5 14 7.5 14C7.5 14 9.5147 17 12 17Z" stroke="#333333" stroke-width="2" stroke-linejoin="round"/>
<path d="M12 15C12.5523 15 13 14.5523 13 14C13 13.4477 12.5523 13 12 13C11.4477 13 11 13.4477 11 14C11 14.5523 11.4477 15 12 15Z" fill="#333333"/>
<path d="M15 2V7H20" stroke="#333333" stroke-width="2" stroke-linecap="round" stroke-linejoin="round"/>
</svg>
