<svg width="24" height="24" viewBox="0 0 24 24" fill="none" xmlns="http://www.w3.org/2000/svg">
<path d="M12.5 20.5H19V17" stroke="#333333" stroke-width="2" stroke-linecap="round" stroke-linejoin="round"/>
<path d="M12.5 3.5H19V7" stroke="#333333" stroke-width="2" stroke-linecap="round" stroke-linejoin="round"/>
<path d="M12.5 17.1216V22L5 19.3093V17" stroke="#333333" stroke-width="2" stroke-linecap="round" stroke-linejoin="round"/>
<path d="M12.5 6.9865V2L5 4.69063V6.9865" stroke="#333333" stroke-width="2" stroke-linecap="round" stroke-linejoin="round"/>
<path d="M21 7H3C2.44772 7 2 7.44772 2 8V16C2 16.5523 2.44772 17 3 17H21C21.5523 17 22 16.5523 22 16V8C22 7.44772 21.5523 7 21 7Z" stroke="#333333" stroke-width="2" stroke-linecap="round" stroke-linejoin="round"/>
<path d="M5 9.5V14.5" stroke="#333333" stroke-width="2" stroke-linecap="round"/>
<path d="M10.5 9.5V14.5" stroke="#333333" stroke-width="2" stroke-linecap="round"/>
<path d="M17.5 10V14" stroke="#333333" stroke-width="2" stroke-linecap="round" stroke-linejoin="round"/>
<path d="M16 10H17.5H19" stroke="#333333" stroke-width="2" stroke-linecap="round" stroke-linejoin="round"/>
<path d="M5 9.5H6.5C7.32845 9.5 8 10.1715 8 11C8 11.8285 7.32845 12.5 6.5 12.5H5" stroke="#333333" stroke-width="2" stroke-linecap="round" stroke-linejoin="round"/>
<path d="M10.5 9.5H12C12.8285 9.5 13.5 10.1715 13.5 11C13.5 11.8285 12.8285 12.5 12 12.5H10.5" stroke="#333333" stroke-width="2" stroke-linecap="round" stroke-linejoin="round"/>
</svg>
