<svg width="24" height="24" viewBox="0 0 24 24" fill="none" xmlns="http://www.w3.org/2000/svg">
<path d="M20 10.4211V3C20 2.44771 19.5523 2 19 2H5C4.44771 2 4 2.44771 4 3V21C4 21.5523 4.44771 22 5 22H13" stroke="#333333" stroke-width="2" stroke-linecap="round" stroke-linejoin="round"/>
<path d="M7 8.5H10" stroke="#333333" stroke-width="2" stroke-linecap="round"/>
<path d="M14 8.5H17" stroke="#333333" stroke-width="2" stroke-linecap="round"/>
<path d="M7 14H10" stroke="#333333" stroke-width="2" stroke-linecap="round"/>
<path d="M7 17H10" stroke="#333333" stroke-width="2" stroke-linecap="round"/>
<path d="M8.5 10V7" stroke="#333333" stroke-width="2" stroke-linecap="round"/>
<path d="M18.864 18.8638L20.9854 20.9851" stroke="#333333" stroke-width="2" stroke-linecap="round"/>
<path d="M14.6214 18.864C15.7929 20.0355 17.6924 20.0355 18.864 18.864C20.0356 17.6924 20.0356 15.7929 18.864 14.6213C17.6924 13.4497 15.7929 13.4497 14.6214 14.6213C13.4498 15.7929 13.4498 17.6924 14.6214 18.864Z" stroke="#333333" stroke-width="2" stroke-linecap="round" stroke-linejoin="round"/>
</svg>
