<svg width="24" height="24" viewBox="0 0 24 24" fill="none" xmlns="http://www.w3.org/2000/svg">
<path d="M12.2445 4.19875C12.1229 4.17933 12.1371 4 12.2603 4H19.75C19.8881 4 20 4.11193 20 4.25V11.7397C20 11.8629 19.8207 11.8772 19.8013 11.7555L18.8178 5.59715C18.7837 5.3837 18.6163 5.21635 18.4029 5.18225L12.2445 4.19875Z" fill="#333333" stroke="#333333" stroke-width="2" stroke-linecap="round"/>
<path d="M3.24454 13.1987C3.12291 13.1793 3.13714 13 3.26031 13H10.75C10.8881 13 11 13.1119 11 13.25V20.7397C11 20.8629 10.8207 20.8772 10.8013 20.7555L9.81779 14.5971C9.78369 14.3837 9.61634 14.2164 9.40289 14.1823L3.24454 13.1987Z" fill="#333333" stroke="#333333" stroke-width="2" stroke-linecap="round"/>
<path d="M7.74455 8.69875C7.6229 8.6793 7.63715 8.5 7.7603 8.5H15.25C15.3881 8.5 15.5 8.61195 15.5 8.75V16.2397C15.5 16.3629 15.3207 16.3772 15.3013 16.2555L14.3749 10.4549C14.3067 10.028 13.972 9.6933 13.5451 9.6251L7.74455 8.69875Z" fill="#333333" stroke="#333333" stroke-width="2" stroke-linecap="round"/>
</svg>
