<svg width="24" height="24" viewBox="0 0 24 24" fill="none" xmlns="http://www.w3.org/2000/svg">
<g clip-path="url(#clip0_2_20272)">
<path d="M24 0H0V24H24V0Z" fill="white" fill-opacity="0.01"/>
<path d="M7.49993 7.19238C9.56263 8.00008 12.0041 8.00008 12.0041 8.00008C12.0041 8.00008 14.4399 8.00008 16.4999 7.19238C18.7508 9.81933 20.3281 13.2823 21.3648 16.1988C22.4142 19.1514 20.1002 22.0001 16.9666 22.0001H7.00978C3.88399 22.0001 1.57285 19.1645 2.61705 16.2183C3.64887 13.307 5.22733 9.84283 7.49993 7.19238Z" stroke="#333333" stroke-width="2" stroke-linejoin="round"/>
<path d="M9 14H15" stroke="#333333" stroke-width="2" stroke-linecap="round" stroke-linejoin="round"/>
<path d="M9 17H15" stroke="#333333" stroke-width="2" stroke-linecap="round" stroke-linejoin="round"/>
<path d="M12.0042 14V19" stroke="#333333" stroke-width="2" stroke-linecap="round" stroke-linejoin="round"/>
<path d="M15 11L12 14L9 11" stroke="#333333" stroke-width="2" stroke-linecap="round" stroke-linejoin="round"/>
<path fill-rule="evenodd" clip-rule="evenodd" d="M12 8C15.5898 8 18.5 6.65685 18.5 5C18.5 3.34315 15.5898 2 12 2C8.41015 2 5.5 3.34315 5.5 5C5.5 6.65685 8.41015 8 12 8Z" stroke="#333333" stroke-width="2" stroke-linecap="round" stroke-linejoin="round"/>
</g>
<defs>
<clipPath id="clip0_2_20272">
<rect width="24" height="24" fill="white"/>
</clipPath>
</defs>
</svg>
