<svg width="24" height="24" viewBox="0 0 24 24" fill="none" xmlns="http://www.w3.org/2000/svg">
<g clip-path="url(#clip0_2_20291)">
<path d="M24 0H0V24H24V0Z" fill="white" fill-opacity="0.01"/>
<path d="M12 22C17.5229 22 22 17.5229 22 12C22 6.47715 17.5229 2 12 2C6.47715 2 2 6.47715 2 12C2 17.5229 6.47715 22 12 22Z" stroke="#333333" stroke-width="2" stroke-linejoin="round"/>
<path d="M14.8284 11.2928L12.7071 9.17146C12.3166 8.78094 11.6834 8.78094 11.2929 9.17146L9.17157 11.2928C8.78105 11.6833 8.78105 12.3165 9.17157 12.707L11.2929 14.8283C11.6834 15.2188 12.3166 15.2188 12.7071 14.8283L14.8284 12.707C15.219 12.3165 15.219 11.6833 14.8284 11.2928Z" stroke="#333333" stroke-width="2" stroke-linejoin="round"/>
</g>
<defs>
<clipPath id="clip0_2_20291">
<rect width="24" height="24" fill="white"/>
</clipPath>
</defs>
</svg>
