<svg width="24" height="24" viewBox="0 0 24 24" fill="none" xmlns="http://www.w3.org/2000/svg">
<path d="M11.9 7C14.7166 7 17 9.2386 17 12C17 14.7614 14.7166 17 11.9 17C10.5938 17 9.4023 16.5186 8.5 15.7268" stroke="#333333" stroke-width="2" stroke-linecap="round" stroke-linejoin="round"/>
<path d="M12 2C17.5229 2 22 6.47715 22 12C22 17.5229 17.5229 22 12 22C9.2928 22 6.83685 20.9242 5.0363 19.1768C3.16367 17.3595 2 14.8156 2 12C2 9.3163 3.05717 6.8795 4.77778 5.08335" stroke="#333333" stroke-width="2" stroke-linecap="round" stroke-linejoin="round"/>
<path d="M4.77783 5.0835L12.0001 12.0001L5.03635 19.177" stroke="#333333" stroke-width="2" stroke-linecap="round" stroke-linejoin="round"/>
</svg>
