<svg width="24" height="24" viewBox="0 0 24 24" fill="none" xmlns="http://www.w3.org/2000/svg">
<path d="M22 12C22 17.5229 17.5229 22 12 22C6.47715 22 2 17.5229 2 12C2 6.47715 6.47715 2 12 2" stroke="#333333" stroke-width="2" stroke-linecap="round" stroke-linejoin="round"/>
<path d="M19 4.73584L19.1715 5.26372H19.7265L19.2775 5.58992L19.449 6.11782L19 5.79157L18.5509 6.11782L18.7225 5.58992L18.2734 5.26372H18.8285L19 4.73584Z" stroke="#333333" stroke-width="2"/>
<path d="M15 9.5C15 7.84315 13.6569 6.5 12 6.5C10.3431 6.5 9 7.84315 9 9.5V15.5C9 17.1569 10.3431 18.5 12 18.5C13.6569 18.5 15 17.1569 15 15.5V9.5Z" stroke="#333333" stroke-width="2" stroke-linecap="round" stroke-linejoin="round"/>
<path d="M9 12.5C8 12.5 6.5 13.5588 6.5 15.5C6.5 17.4412 6.5 19.4036 6.5 20.3921" stroke="#333333" stroke-width="2" stroke-linecap="round" stroke-linejoin="round"/>
<path d="M15 12.5C16 12.5 17.5 13.5588 17.5 15.5C17.5 17.4412 17.5 19.2614 17.5 20.25" stroke="#333333" stroke-width="2" stroke-linecap="round" stroke-linejoin="round"/>
</svg>
