<svg width="24" height="24" viewBox="0 0 24 24" fill="none" xmlns="http://www.w3.org/2000/svg">
<g clip-path="url(#clip0_2_21273)">
<path d="M24 0H0V24H24V0Z" fill="white" fill-opacity="0.01"/>
<path d="M9 21.5V11C9 9.34315 10.3432 8 12 8C13.6568 8 15 9.34315 15 11V21.5" stroke="#333333" stroke-width="2" stroke-linecap="round" stroke-linejoin="round"/>
<path d="M6 20V11C6 7.6863 8.6863 5 12 5C15.3137 5 18 7.6863 18 11V20" stroke="#333333" stroke-width="2" stroke-linecap="round" stroke-linejoin="round"/>
<path d="M3 17.5V11C3 6.02945 7.02945 2 12 2C16.9706 2 21 6.02945 21 11V17.5" stroke="#333333" stroke-width="2" stroke-linecap="round" stroke-linejoin="round"/>
<path d="M12 22V15.5" stroke="#333333" stroke-width="2" stroke-linecap="round" stroke-linejoin="round"/>
<path d="M12 12.3125V10.9375" stroke="#333333" stroke-width="2" stroke-linecap="round" stroke-linejoin="round"/>
</g>
<defs>
<clipPath id="clip0_2_21273">
<rect width="24" height="24" fill="white"/>
</clipPath>
</defs>
</svg>
