<svg width="24" height="24" viewBox="0 0 24 24" fill="none" xmlns="http://www.w3.org/2000/svg">
<g clip-path="url(#clip0_2_20521)">
<path d="M24 0H0V24H24V0Z" fill="white" fill-opacity="0.01"/>
<path d="M9.5 22V11C9.5 9.34315 10.8432 8 12.5 8C14.1568 8 15.5 9.34315 15.5 11V22" stroke="#333333" stroke-width="2" stroke-linecap="round" stroke-linejoin="round"/>
<path d="M6.5 22V11C6.5 7.6863 9.1863 5 12.5 5C15.8137 5 18.5 7.6863 18.5 11V22" stroke="#333333" stroke-width="2" stroke-linecap="round" stroke-linejoin="round"/>
<path d="M3.5 22V11C3.5 6.02945 7.52945 2 12.5 2C17.4706 2 21.5 6.02945 21.5 11V22" stroke="#333333" stroke-width="2" stroke-linecap="round" stroke-linejoin="round"/>
<path d="M12.5 22V11" stroke="#333333" stroke-width="2" stroke-linecap="round" stroke-linejoin="round"/>
</g>
<defs>
<clipPath id="clip0_2_20521">
<rect width="24" height="24" fill="white"/>
</clipPath>
</defs>
</svg>
