<svg width="24" height="24" viewBox="0 0 24 24" fill="none" xmlns="http://www.w3.org/2000/svg">
<g clip-path="url(#clip0_2_20514)">
<path d="M24 0H0V24H24V0Z" fill="white" fill-opacity="0.01"/>
<path d="M3 20.9998L7.33705 8.63184L15.5 17.0191L3 20.9998Z" stroke="#333333" stroke-width="2" stroke-linejoin="round"/>
<path d="M11.5 9.5L14 7C15.3333 5.66667 15.5 4.5 14.5 3.5" stroke="#333333" stroke-width="2" stroke-linecap="round" stroke-linejoin="round"/>
<path d="M14.5 12.5L17 10C18.6667 8.33333 20.3333 8.33333 22 10" stroke="#333333" stroke-width="2" stroke-linecap="round" stroke-linejoin="round"/>
<path d="M10 3.5C10.5523 3.5 11 3.05228 11 2.5C11 1.94772 10.5523 1.5 10 1.5C9.44772 1.5 9 1.94772 9 2.5C9 3.05228 9.44772 3.5 10 3.5Z" fill="#333333"/>
<path d="M21 3C21.5523 3 22 2.55228 22 2C22 1.44772 21.5523 1 21 1C20.4477 1 20 1.44772 20 2C20 2.55228 20.4477 3 21 3Z" fill="#333333"/>
<path d="M21 14.5C21.5523 14.5 22 14.0523 22 13.5C22 12.9477 21.5523 12.5 21 12.5C20.4477 12.5 20 12.9477 20 13.5C20 14.0523 20.4477 14.5 21 14.5Z" fill="#333333"/>
<path d="M19.5 19C20.0523 19 20.5 18.5523 20.5 18C20.5 17.4477 20.0523 17 19.5 17C18.9477 17 18.5 17.4477 18.5 18C18.5 18.5523 18.9477 19 19.5 19Z" fill="#333333"/>
</g>
<defs>
<clipPath id="clip0_2_20514">
<rect width="24" height="24" fill="white"/>
</clipPath>
</defs>
</svg>
