<svg width="24" height="24" viewBox="0 0 24 24" fill="none" xmlns="http://www.w3.org/2000/svg">
<path d="M8 9C8 6.79085 9.79085 5 12 5C14.2092 5 16 6.79085 16 9V21C16 21.5523 15.5523 22 15 22H9C8.4477 22 8 21.5523 8 21V9Z" stroke="#333333" stroke-width="2" stroke-linejoin="round"/>
<path d="M12 12V17" stroke="#333333" stroke-width="2" stroke-linecap="round" stroke-linejoin="round"/>
<path d="M14.5 2.5H10V4.5H14.5V2.5Z" stroke="#333333" stroke-width="2" stroke-linejoin="round"/>
<path d="M14.5 2.5L19 2V5L14.5 4.5V2.5Z" stroke="#333333" stroke-width="2" stroke-linejoin="round"/>
<path d="M10 3.4999C8.5 3.4999 6.25 3.2499 5 4.4999C3.79172 5.70822 4.00002 6.99987 4.00002 8.99987" stroke="#333333" stroke-width="2" stroke-linecap="round" stroke-linejoin="round"/>
</svg>
