<svg width="24" height="24" viewBox="0 0 24 24" fill="none" xmlns="http://www.w3.org/2000/svg">
<path d="M12.3397 10.0188C11.7825 9.86943 10.1326 9.34008 7.58504 11.0464C6.06949 12.0615 5.43209 13.6202 5.21714 14.7653C5.11494 15.3096 5.57719 15.7486 6.12714 15.6834C6.52514 15.6363 6.96684 15.5628 7.30104 15.4497C8.28624 15.1164 8.15689 14.4845 8.65949 13.7233C9.16209 12.9621 10.4259 12.7035 11.4657 13.2807C12.5055 13.858 12.8388 14.8432 12.6148 15.679C12.3909 16.5149 11.8883 17.2761 10.6245 17.5347C9.36069 17.7933 8.95274 17.0868 7.63434 16.4349C6.94729 16.0952 6.05114 16.5357 5.50984 16.8841C5.20334 17.0814 5.07634 17.454 5.20499 17.7951C5.29234 18.0267 5.41254 18.2976 5.56929 18.5692C5.97724 19.2757 7.75824 21.5447 10.0619 21.8633C12.3655 22.182 14.7638 21.0328 16.1222 19.3065C17.4807 17.5801 17.5207 15.2018 16.5755 13.1568" stroke="#333333" stroke-width="2" stroke-linecap="round" stroke-linejoin="round"/>
<path d="M16.5225 13.2097L14.1382 2.07778C14.0847 1.82813 13.8502 1.65516 13.6034 1.72038C13.0226 1.87384 12.2853 2.259 12.2506 3.155C12.2059 4.30793 12.4329 13.1744 12.7362 14.7834" stroke="#333333" stroke-width="2" stroke-linecap="round" stroke-linejoin="round"/>
</svg>
