<svg width="24" height="24" viewBox="0 0 24 24" fill="none" xmlns="http://www.w3.org/2000/svg">
<path d="M10.4936 17.2761L6 14.5H19.5C20.3285 14.5 21 15.1715 21 16C21 16.8285 20.3285 17.5 19.5 17.5H11.2819C11.0035 17.5 10.7305 17.4225 10.4936 17.2761Z" stroke="#333333" stroke-width="2" stroke-linecap="round" stroke-linejoin="round"/>
<path d="M15 5.5C15.5523 5.5 16 5.0523 16 4.5C16 3.94771 15.5523 3.5 15 3.5C14.4477 3.5 14 3.94771 14 4.5C14 5.0523 14.4477 5.5 15 5.5Z" stroke="#333333" stroke-width="2" stroke-miterlimit="2"/>
<path d="M17 16C19 14.5 18.25 11.2168 17.75 10.25C17.25 9.2832 16.2747 8 16.2747 8C16.2747 8 15.75 8 15.25 8.5C13.9107 9.8393 13 11.5 11.75 11.5C10.5 11.5 8.75 10.5 8.75 10.5" stroke="#333333" stroke-width="2" stroke-miterlimit="2" stroke-linecap="round" stroke-linejoin="round"/>
<path d="M10.0002 7.49986C8.2018 5.25191 6.80755 4.21675 4.0002 4.03087C3.44912 3.99438 3 4.44757 3 4.99986V13.9999" stroke="#333333" stroke-width="2" stroke-linecap="round" stroke-linejoin="round"/>
<path d="M3.5 21.5C5.5 21.5 4.96875 20.5 6.5 20.5C8.03125 20.5 7.5 21.5 9.25 21.5C11 21.5 10.5 20.5 12.25 20.5C14 20.5 13.7188 21.5 15.25 21.5C16.7812 21.5 16 20.5 17.75 20.5C19.5 20.5 19.0312 21.5 21 21.5" stroke="#333333" stroke-width="2" stroke-linecap="round" stroke-linejoin="round"/>
</svg>
