<svg width="24" height="24" viewBox="0 0 24 24" fill="none" xmlns="http://www.w3.org/2000/svg">
<path d="M7.69044 16.4224C4.8618 15.7151 0.26576 17.483 4.86187 19.2507C6.62979 23.8471 8.39739 19.2507 7.69044 16.4224Z" stroke="#333333" stroke-width="2" stroke-linecap="round" stroke-linejoin="round"/>
<path d="M11.2411 5.12406C8.78944 5.11751 5.62519 5.89251 5.22664 6.98801C4.93776 7.78216 6.43899 8.83866 8.35179 9.39691" stroke="#333333" stroke-width="2" stroke-linecap="round" stroke-linejoin="round"/>
<path d="M18.9888 12.8716C18.9953 15.3233 18.2203 18.4876 17.1248 18.8861C16.3307 19.175 15.2742 17.6737 14.7159 15.7609" stroke="#333333" stroke-width="2" stroke-linecap="round" stroke-linejoin="round"/>
<path d="M18.9997 12.8827C22.3313 9.85026 20.0625 4.04594 20.0625 4.04594C20.0625 4.04594 14.054 2.28011 11.2256 5.10855C8.39716 7.93695 7.69006 16.4223 7.69006 16.4223C7.69006 16.4223 15.6682 15.9151 18.9997 12.8827Z" stroke="#333333" stroke-width="2" stroke-linecap="round" stroke-linejoin="round"/>
<path d="M19.0037 12.8865C19.0037 12.8865 15.645 12.3562 13.7004 10.4117C11.7559 8.46715 11.2256 5.1084 11.2256 5.1084" stroke="#333333" stroke-width="2" stroke-linecap="round" stroke-linejoin="round"/>
<path d="M16.1757 7.93675C16.5662 8.32727 17.1994 8.32727 17.5899 7.93675C17.9804 7.54623 17.9804 6.91306 17.5899 6.52254C17.1994 6.13201 16.5662 6.13201 16.1757 6.52254C15.7852 6.91306 15.7852 7.54622 16.1757 7.93675Z" fill="#333333"/>
<path d="M20.4999 10.4727C20.2295 11.3525 19.7607 12.19 18.9996 12.8827C18.1759 13.6324 17.0681 14.2278 15.8672 14.6993" stroke="#333333" stroke-width="2" stroke-linecap="round" stroke-linejoin="round"/>
<path d="M13.5002 3.82861C12.6514 4.07267 11.8589 4.4756 11.2257 5.10877C10.6333 5.70117 10.134 6.54167 9.71472 7.50042" stroke="#333333" stroke-width="2" stroke-linecap="round" stroke-linejoin="round"/>
</svg>
