<svg width="24" height="24" viewBox="0 0 24 24" fill="none" xmlns="http://www.w3.org/2000/svg">
<path d="M17 20.5C14.0847 22.0874 10.75 21.75 9 21C7.25 20.25 3 17.75 3 13.5C3 11.3767 5.88555 10.3354 6.755 10.0698C6.89895 10.0259 7 9.8944 7 9.7439V6C7 5.0335 7.7835 4.25 8.75 4.25C9.7165 4.25 10.5 5.0335 10.5 6V4.75C10.5 3.7835 11.2835 3 12.25 3C13.2165 3 14 3.7835 14 4.75V6C14 5.0335 14.7835 4.25 15.75 4.25C16.7165 4.25 17.5 5.0335 17.5 6V8.24655C17.5019 7.28165 18.2847 6.5 19.25 6.5C20.2165 6.5 21 7.28155 21 8.24805V15C21 17 19.065 19.3757 17 20.5Z" stroke="#333333" stroke-width="2" stroke-linecap="round" stroke-linejoin="round"/>
</svg>
