<svg width="24" height="24" viewBox="0 0 24 24" fill="none" xmlns="http://www.w3.org/2000/svg">
<path d="M5.5 20.0001L3 12.7501L2.02078 7.85404C2.00696 7.78494 2 7.71464 2 7.64419V7.56374C2 6.87864 2.89119 6.61314 3.26612 7.18659C3.2938 7.22889 3.31833 7.27319 3.33952 7.31909L5.30535 11.5784C5.4151 11.8162 5.6897 11.929 5.9349 11.837L6 11.8126L5.06455 4.97226C5.0232 4.66978 5.10275 4.36317 5.2859 4.11893C5.5422 3.77718 6.02705 3.70792 6.3688 3.96423L6.43535 4.01415C6.6404 4.16796 6.7948 4.37958 6.87865 4.62182L8.9345 10.561C8.9737 10.6742 9.08035 10.7501 9.20015 10.7501C9.36255 10.7501 9.49115 10.613 9.4807 10.4509L9.03925 3.60879C9.0143 3.2219 9.15715 2.84301 9.43125 2.56887C9.75505 2.24509 10.2705 2.21655 10.628 2.50259L10.7983 2.63878C11.089 2.87134 11.2829 3.2037 11.3421 3.57123L12.4614 10.5112C12.4836 10.6489 12.6025 10.7501 12.742 10.7501C12.8883 10.7501 13.0107 10.639 13.0248 10.4933L13.6889 3.63102C13.728 3.2277 13.9285 2.85733 14.245 2.6042L14.3482 2.52161C14.7193 2.22474 15.2542 2.25436 15.5903 2.5904C15.8526 2.85275 16 3.20858 16 3.57961V13.3343C16 13.7299 16.4376 13.9688 16.7704 13.7549L19.0059 12.3178C19.3285 12.1104 19.7039 12.0001 20.0874 12.0001H21.1217C21.5093 12.0001 21.7494 12.4221 21.5515 12.7554L17.25 20.0001C17.25 20.0001 15.5 22.0001 11.5 22.0001C7.5 22.0001 5.83335 20.6668 5.5 20.0001Z" stroke="#333333" stroke-width="2" stroke-linecap="round" stroke-linejoin="round"/>
</svg>
