<svg width="24" height="24" viewBox="0 0 24 24" fill="none" xmlns="http://www.w3.org/2000/svg">
<g clip-path="url(#clip0_2_20509)">
<path d="M24 0H0V24H24V0Z" fill="white" fill-opacity="0.01"/>
<path d="M20.5 16.5C21.3284 16.5 22 14.7091 22 12.5C22 10.2909 21.3284 8.5 20.5 8.5C19.6716 8.5 19 10.2909 19 12.5C19 14.7091 19.6716 16.5 20.5 16.5Z" stroke="#333333" stroke-width="2" stroke-linecap="round" stroke-linejoin="round"/>
<path d="M3.5 16.5C4.32843 16.5 5 14.7091 5 12.5C5 10.2909 4.32843 8.5 3.5 8.5C2.67157 8.5 2 10.2909 2 12.5C2 14.7091 2.67157 16.5 3.5 16.5Z" stroke="#333333" stroke-width="2" stroke-linecap="round" stroke-linejoin="round"/>
<path d="M12 22C13.6569 22 15 17.5228 15 12C15 6.47715 13.6569 2 12 2C10.3431 2 9 6.47715 9 12C9 17.5228 10.3431 22 12 22Z" stroke="#333333" stroke-width="2" stroke-linecap="round" stroke-linejoin="round"/>
<path d="M17 20C18.1046 20 19 16.4183 19 12C19 7.58172 18.1046 4 17 4C15.8954 4 15 7.58172 15 12C15 16.4183 15.8954 20 17 20Z" stroke="#333333" stroke-width="2" stroke-linecap="round" stroke-linejoin="round"/>
<path d="M7 20C8.10457 20 9 16.4183 9 12C9 7.58172 8.10457 4 7 4C5.89543 4 5 7.58172 5 12C5 16.4183 5.89543 20 7 20Z" stroke="#333333" stroke-width="2" stroke-linecap="round" stroke-linejoin="round"/>
</g>
<defs>
<clipPath id="clip0_2_20509">
<rect width="24" height="24" fill="white"/>
</clipPath>
</defs>
</svg>
