<svg width="24" height="24" viewBox="0 0 24 24" fill="none" xmlns="http://www.w3.org/2000/svg">
<path d="M7.1113 18.7355L3.27472 13.4922C2.56579 12.5233 2.75946 11.1658 3.71104 10.4338C4.59138 9.7566 5.83745 9.8375 6.6228 10.6229L7.99995 12V3.625C7.99995 2.72754 8.7275 2 9.62495 2C10.5224 2 11.2499 2.72754 11.2499 3.625V3.125C11.2499 2.22754 11.9775 1.5 12.8749 1.5C13.7724 1.5 14.4999 2.22754 14.4999 3.125V3.625C14.4999 2.72754 15.2275 2 16.1249 2C17.0224 2 17.7499 2.72754 17.7499 3.625V5.625C17.7499 4.72754 18.4775 4 19.3749 4C20.2724 4 20.9999 4.72754 20.9999 5.625V15.1538C20.9999 16.5193 20.5808 17.8626 19.8097 18.9895C18.5278 20.8632 16.3925 22 14.1222 22H13.545C11.0026 22 8.61265 20.7874 7.1113 18.7355Z" stroke="#333333" stroke-width="2" stroke-linecap="round" stroke-linejoin="round"/>
</svg>
