<svg width="24" height="24" viewBox="0 0 24 24" fill="none" xmlns="http://www.w3.org/2000/svg">
<g clip-path="url(#clip0_2_21035)">
<path d="M24 0H0V24H24V0Z" fill="white" fill-opacity="0.01"/>
<path d="M8.5 11.0981C8.5 11.0363 8.47095 10.9782 8.42155 10.9412C5.9529 9.08965 4.5 6.1839 4.5 3.09804V2H19.5V3.09804C19.5 6.1839 18.0471 9.08965 15.5785 10.9412C15.5291 10.9782 15.5 11.0363 15.5 11.0981V22H8.5V11.0981Z" stroke="#333333" stroke-width="2" stroke-linejoin="round"/>
<path d="M19 5.5H5" stroke="#333333" stroke-width="2" stroke-linecap="round" stroke-linejoin="round"/>
<path d="M12 14.0044V16.0044" stroke="#333333" stroke-width="2" stroke-linecap="round" stroke-linejoin="round"/>
<path d="M8.5 11C5.98195 9.11145 4.5 6.14755 4.5 3V2" stroke="#333333" stroke-width="2" stroke-linecap="round" stroke-linejoin="round"/>
<path d="M19.5 2V3C19.5 6.14755 18.018 9.11145 15.5 11" stroke="#333333" stroke-width="2" stroke-linecap="round" stroke-linejoin="round"/>
</g>
<defs>
<clipPath id="clip0_2_21035">
<rect width="24" height="24" fill="white"/>
</clipPath>
</defs>
</svg>
