<svg width="24" height="24" viewBox="0 0 24 24" fill="none" xmlns="http://www.w3.org/2000/svg">
<path d="M13.0001 10.5001C12 10.2501 10.6233 9.68118 8.58526 11.0462C7.06976 12.0614 6.43236 13.62 6.21736 14.7651C6.11521 15.3094 6.57741 15.7484 7.12741 15.6832C7.52536 15.6361 7.96711 15.5626 8.30131 15.4495C9.28646 15.1162 9.15716 14.4844 9.65976 13.7231C10.1623 12.9619 11.4261 12.7033 12.466 13.2806C13.5058 13.8578 13.8391 14.843 13.6151 15.6789C13.3911 16.5147 12.8885 17.2759 11.6247 17.5345C10.361 17.7932 9.95301 17.0866 8.63456 16.4347C7.94751 16.095 7.05141 16.5355 6.51011 16.884C6.20361 17.0812 6.07661 17.4538 6.20521 17.7949C6.29256 18.0265 6.41276 18.2974 6.56956 18.569C6.97746 19.2756 8.75851 21.5445 11.0621 21.8632C13.3658 22.1818 15.764 21.0327 17.1225 19.3063C18.481 17.5799 18.521 15.2016 17.5758 13.1566" stroke="#333333" stroke-width="2" stroke-linecap="round" stroke-linejoin="round"/>
<path d="M17.5228 13.2099L16 7.00001L11.3537 2.3536C11.1584 2.15832 10.8438 2.16159 10.6864 2.38849C10.31 2.93092 9.81062 3.96546 10.5002 5C10.7438 5.36551 12.5005 7.50001 12.5005 7.50001C12.5005 7.50001 13.5486 13.7871 13.7365 14.7836" stroke="#333333" stroke-width="2" stroke-linecap="round" stroke-linejoin="round"/>
</svg>
