<svg width="24" height="24" viewBox="0 0 24 24" fill="none" xmlns="http://www.w3.org/2000/svg">
<path d="M12 20C17.5229 20 22 16.4183 22 12C22 7.5817 17.5229 4 12 4C6.47715 4 2 7.5817 2 12C2 16.4183 6.47715 20 12 20Z" stroke="#333333" stroke-width="2" stroke-linejoin="round"/>
<path d="M12 14C14.7614 14 17 12.6568 17 11C17 9.34315 14.7614 8 12 8C9.2386 8 7 9.34315 7 11C7 12.6568 9.2386 14 12 14Z" stroke="#333333" stroke-width="2" stroke-linejoin="round"/>
<path d="M12 8V4" stroke="#333333" stroke-width="2" stroke-linecap="round" stroke-linejoin="round"/>
<path d="M16 9C16 9 17.3125 7 19.5 7" stroke="#333333" stroke-width="2" stroke-linecap="round" stroke-linejoin="round"/>
<path d="M8 9C8 9 7 7 4.5 7" stroke="#333333" stroke-width="2" stroke-linecap="round" stroke-linejoin="round"/>
<path d="M9 13.5C9 13.5 6 14.5 5.5 18" stroke="#333333" stroke-width="2" stroke-linecap="round" stroke-linejoin="round"/>
<path d="M15 13.5C15 13.5 18.25 14.5 18.5 18" stroke="#333333" stroke-width="2" stroke-linecap="round" stroke-linejoin="round"/>
</svg>
