<svg width="24" height="24" viewBox="0 0 24 24" fill="none" xmlns="http://www.w3.org/2000/svg">
<g clip-path="url(#clip0_2_20480)">
<path d="M24 0H0V24H24V0Z" fill="white" fill-opacity="0.01"/>
<path d="M4.72727 15.4971C3.07121 14.2305 2 12.2139 2 9.94255C2 6.1083 5.0526 3 8.8182 3C11.9667 3 14.6168 5.1731 15.4008 8.12665C16.0177 7.80795 16.7155 7.62835 17.4545 7.62835C19.9649 7.62835 22 9.70055 22 12.2568C22 14.1547 20.8781 15.7858 19.2728 16.5" stroke="#333333" stroke-width="2" stroke-linecap="round" stroke-linejoin="round"/>
<path d="M11.1213 7.8787C10.5784 7.3358 9.82845 7 9 7C7.34315 7 6 8.34315 6 10C6 10.8285 6.3358 11.5784 6.8787 12.1213" stroke="#333333" stroke-width="2" stroke-linecap="round" stroke-linejoin="round"/>
<path d="M10 17H14" stroke="#333333" stroke-width="2" stroke-linecap="round" stroke-linejoin="round"/>
<path d="M5 21H10" stroke="#333333" stroke-width="2" stroke-linecap="round" stroke-linejoin="round"/>
<path d="M14 21H19" stroke="#333333" stroke-width="2" stroke-linecap="round" stroke-linejoin="round"/>
<path d="M13 13H17" stroke="#333333" stroke-width="2" stroke-linecap="round" stroke-linejoin="round"/>
</g>
<defs>
<clipPath id="clip0_2_20480">
<rect width="24" height="24" fill="white"/>
</clipPath>
</defs>
</svg>
