<svg width="24" height="24" viewBox="0 0 24 24" fill="none" xmlns="http://www.w3.org/2000/svg">
<path d="M21.5 11.5V7C21.5 6.4477 21.0523 6 20.5 6H12L9.5 3H3.5C2.94771 3 2.5 3.44771 2.5 4V20C2.5 20.5523 2.94771 21 3.5 21H11" stroke="#333333" stroke-width="2" stroke-linecap="round" stroke-linejoin="round"/>
<path d="M17.5 19.5C18.6046 19.5 19.5 18.6046 19.5 17.5C19.5 16.3954 18.6046 15.5 17.5 15.5C16.3954 15.5 15.5 16.3954 15.5 17.5C15.5 18.6046 16.3954 19.5 17.5 19.5Z" stroke="#333333" stroke-width="2"/>
<path d="M17.5 14V15.5" stroke="#333333" stroke-width="2" stroke-linecap="round" stroke-linejoin="round"/>
<path d="M17.5 19.5V21" stroke="#333333" stroke-width="2" stroke-linecap="round" stroke-linejoin="round"/>
<path d="M19.914 15L18.8534 16.0606" stroke="#333333" stroke-width="2" stroke-linecap="round" stroke-linejoin="round"/>
<path d="M15.914 19L14.8534 20.0606" stroke="#333333" stroke-width="2" stroke-linecap="round" stroke-linejoin="round"/>
<path d="M15 15L16.0606 16.0606" stroke="#333333" stroke-width="2" stroke-linecap="round" stroke-linejoin="round"/>
<path d="M19 19L20.0606 20.0606" stroke="#333333" stroke-width="2" stroke-linecap="round" stroke-linejoin="round"/>
<path d="M14 17.5H14.75H15.5" stroke="#333333" stroke-width="2" stroke-linecap="round" stroke-linejoin="round"/>
<path d="M19.5 17.5H20.25H21" stroke="#333333" stroke-width="2" stroke-linecap="round" stroke-linejoin="round"/>
</svg>
