<svg width="24" height="24" viewBox="0 0 24 24" fill="none" xmlns="http://www.w3.org/2000/svg">
<path d="M21.5 11.5V7C21.5 6.4477 21.0523 6 20.5 6H12L9.5 3H3.5C2.94771 3 2.5 3.44771 2.5 4V20C2.5 20.5523 2.94771 21 3.5 21H11" stroke="#333333" stroke-width="2" stroke-linecap="round" stroke-linejoin="round"/>
<path d="M20 14L18 14.4844V19.25" stroke="#333333" stroke-width="2" stroke-linecap="round" stroke-linejoin="round"/>
<path d="M16 21C17.1046 21 18 20.1046 18 19C18 17.8954 17.1046 17 16 17C14.8954 17 14 17.8954 14 19C14 20.1046 14.8954 21 16 21Z" stroke="#333333" stroke-width="2" stroke-linecap="round" stroke-linejoin="round"/>
</svg>
