<svg width="24" height="24" viewBox="0 0 24 24" fill="none" xmlns="http://www.w3.org/2000/svg">
<path d="M2.5 4C2.5 3.44771 2.94771 3 3.5 3H9.5L12 6H20.5C21.0523 6 21.5 6.4477 21.5 7V20C21.5 20.5523 21.0523 21 20.5 21H3.5C2.94771 21 2.5 20.5523 2.5 20V4Z" stroke="#333333" stroke-width="2" stroke-linejoin="round"/>
<path d="M9 11.4C9 10.9333 12 10 12 10C12 10 15 10.9333 15 11.4C15 15.1333 12 17 12 17C12 17 9 15.1333 9 11.4Z" stroke="#333333" stroke-width="2" stroke-linecap="round" stroke-linejoin="round"/>
</svg>
