<svg width="24" height="24" viewBox="0 0 24 24" fill="none" xmlns="http://www.w3.org/2000/svg">
<g clip-path="url(#clip0_2_20431)">
<path d="M24 0H0V24H24V0Z" fill="white" fill-opacity="0.01"/>
<path d="M18.5 6C19.6046 6 20.5 5.10457 20.5 4C20.5 2.89543 19.6046 2 18.5 2C17.3954 2 16.5 2.89543 16.5 4C16.5 5.10457 17.3954 6 18.5 6Z" stroke="#333333" stroke-width="2" stroke-linejoin="round"/>
<path d="M5.5 6C6.60457 6 7.5 5.10457 7.5 4C7.5 2.89543 6.60457 2 5.5 2C4.39543 2 3.5 2.89543 3.5 4C3.5 5.10457 4.39543 6 5.5 6Z" stroke="#333333" stroke-width="2" stroke-linejoin="round"/>
<path d="M12 22C13.1046 22 14 21.1046 14 20C14 18.8954 13.1046 18 12 18C10.8954 18 10 18.8954 10 20C10 21.1046 10.8954 22 12 22Z" stroke="#333333" stroke-width="2" stroke-linejoin="round"/>
<path d="M5.5 6V7.5C5.5 11 12 12.5 12 16V18V16C12 12.5 18.5 11 18.5 7.5V6" stroke="#333333" stroke-width="2" stroke-linecap="round" stroke-linejoin="round"/>
</g>
<defs>
<clipPath id="clip0_2_20431">
<rect width="24" height="24" fill="white"/>
</clipPath>
</defs>
</svg>
