<svg width="24" height="24" viewBox="0 0 24 24" fill="none" xmlns="http://www.w3.org/2000/svg">
<path d="M6.5 9.5C6.5 8.9477 6.9477 8.5 7.5 8.5H15.5C16.0523 8.5 16.5 8.9477 16.5 9.5V19C16.5 19 16.5 22 13.5 22C10.5 22 12.5 22 9.5 22C6.5 22 6.5 19 6.5 19V9.5Z" stroke="#333333" stroke-width="2" stroke-linecap="round" stroke-linejoin="round"/>
<path d="M14 6H9V8.5H14V6Z" stroke="#333333" stroke-width="2" stroke-linecap="round" stroke-linejoin="round"/>
<path d="M9 6C9 5 9.00005 6 9 4.5C8.99995 3 10.5 2 12 2C13.5 2 17.5 2 17.5 2C17.5 2 14 3 14 5C14 7 14 6 14 6" stroke="#333333" stroke-width="2" stroke-linecap="round" stroke-linejoin="round"/>
</svg>
