<svg width="24" height="24" viewBox="0 0 24 24" fill="none" xmlns="http://www.w3.org/2000/svg">
<path d="M12.8723 22H12.4248C9.8196 22 7.38985 20.6871 5.96215 18.508L4.86442 16.8326C4.08536 15.6435 4.31539 14.06 5.4006 13.1418L6.54435 12.1741C6.6748 12.0637 6.75 11.9014 6.75 11.7305V3.625C6.75 2.72754 7.47755 2 8.375 2C9.27245 2 10 2.72754 10 3.625V3.125C10 2.22754 10.7276 1.5 11.625 1.5C12.5225 1.5 13.25 2.22754 13.25 3.125V3.625C13.25 2.72754 13.9776 2 14.875 2C15.7725 2 16.5 2.72754 16.5 3.625V5.625C16.5 4.72754 17.2276 4 18.125 4C19.0225 4 19.75 4.72754 19.75 5.625V15.1538C19.75 16.5193 19.3309 17.8626 18.5598 18.9895C17.2779 20.8632 15.1426 22 12.8723 22Z" stroke="#333333" stroke-width="2" stroke-linecap="round" stroke-linejoin="round"/>
</svg>
