<svg width="24" height="24" viewBox="0 0 24 24" fill="none" xmlns="http://www.w3.org/2000/svg">
<path d="M6.5 20.0001L4 12.7501L3.02078 7.85404C3.00696 7.78494 3 7.71464 3 7.64419V7.56374C3 6.87864 3.89119 6.61314 4.26613 7.18659C4.2938 7.22889 4.31833 7.27319 4.33952 7.31909L6.30535 11.5784C6.4151 11.8162 6.6897 11.929 6.9349 11.837L7 11.8126L6.06455 4.97226C6.0232 4.66978 6.10275 4.36317 6.2859 4.11893C6.5422 3.77718 7.02705 3.70792 7.3688 3.96423L7.43535 4.01415C7.6404 4.16796 7.7948 4.37958 7.87865 4.62182L9.9345 10.561C9.9737 10.6742 10.0803 10.7501 10.2001 10.7501C10.3625 10.7501 10.4911 10.613 10.4807 10.4509L10.0393 3.60879C10.0143 3.2219 10.1571 2.84301 10.4312 2.56887C10.755 2.24509 11.2705 2.21655 11.628 2.50259L11.7983 2.63878C12.089 2.87134 12.2829 3.2037 12.3421 3.57123L13.4614 10.5112C13.4836 10.6489 13.6025 10.7501 13.742 10.7501C13.8883 10.7501 14.0107 10.639 14.0248 10.4933L14.6889 3.63102C14.728 3.2277 14.9285 2.85733 15.245 2.6042L15.3482 2.52161C15.7193 2.22474 16.2542 2.25436 16.5903 2.5904C16.8526 2.85275 17 3.20858 17 3.57961V9.95579C17 9.98529 17.0025 10.0143 17.0088 10.0431C17.0646 10.3002 17.4037 11.6347 18.5 12.0001C18.9537 12.1514 19.6819 13.4005 20.1864 14.3638C20.5565 15.0704 20.521 15.9123 20.1336 16.6096L18.25 20.0001C18.25 20.0001 16.5 22.0001 12.5 22.0001C8.5 22.0001 6.83335 20.6668 6.5 20.0001Z" stroke="#333333" stroke-width="2" stroke-linecap="round" stroke-linejoin="round"/>
</svg>
