<svg width="24" height="24" viewBox="0 0 24 24" fill="none" xmlns="http://www.w3.org/2000/svg">
<path d="M10.5 11V6C10.5 5.4477 10.0523 5 9.5 5H8C7.4477 5 7 5.4477 7 6V10.5" stroke="#333333" stroke-width="2" stroke-linecap="round" stroke-linejoin="round"/>
<path d="M17.5 10.5V7C17.5 6.4477 17.0523 6 16.5 6H15C14.4477 6 14 6.4477 14 7V11" stroke="#333333" stroke-width="2" stroke-linecap="round" stroke-linejoin="round"/>
<path d="M14 11V3C14 2.44771 13.5523 2 13 2H11.5C10.9477 2 10.5 2.44771 10.5 3V11" stroke="#333333" stroke-width="2" stroke-linecap="round" stroke-linejoin="round"/>
<path d="M3.5 9C3.5 9 7 11.5 12 11.5C17 11.5 20.5 9 20.5 9L18.091 22H5.9091L3.5 9Z" stroke="#333333" stroke-width="2" stroke-linecap="round" stroke-linejoin="round"/>
<path d="M12 18C13.6569 18 15 17.3284 15 16.5C15 15.6716 13.6569 15 12 15C10.3431 15 9 15.6716 9 16.5C9 17.3284 10.3431 18 12 18Z" stroke="#333333" stroke-width="2"/>
</svg>
