<svg width="24" height="24" viewBox="0 0 24 24" fill="none" xmlns="http://www.w3.org/2000/svg">
<g clip-path="url(#clip0_2_21620)">
<path d="M24 0H0V24H24V0Z" fill="white" fill-opacity="0.01"/>
<path d="M8 20H3C2.44771 20 2 19.5523 2 19V5C2 4.44771 2.44771 4 3 4H21C21.5523 4 22 4.44771 22 5V8" stroke="#333333" stroke-width="2" stroke-linecap="round" stroke-linejoin="round"/>
<path d="M21 12H13C12.4477 12 12 12.4477 12 13V19C12 19.5523 12.4477 20 13 20H21C21.5523 20 22 19.5523 22 19V13C22 12.4477 21.5523 12 21 12Z" stroke="#333333" stroke-width="2" stroke-linejoin="round"/>
</g>
<defs>
<clipPath id="clip0_2_21620">
<rect width="24" height="24" fill="white"/>
</clipPath>
</defs>
</svg>
