<svg width="24" height="24" viewBox="0 0 24 24" fill="none" xmlns="http://www.w3.org/2000/svg">
<g clip-path="url(#clip0_2_20393)">
<path d="M24 0H0V24H24V0Z" fill="white" fill-opacity="0.01"/>
<path d="M24 0H0V24H24V0Z" fill="white" fill-opacity="0.01"/>
<path d="M17 2.5H4C3.17158 2.5 2.5 3.17158 2.5 4V17C2.5 17.8285 3.17158 18.5 4 18.5H17C17.8285 18.5 18.5 17.8285 18.5 17V4C18.5 3.17158 17.8285 2.5 17 2.5Z" stroke="#333333" stroke-width="2" stroke-linejoin="round"/>
<path d="M21.9999 6.50098V21C21.9999 21.5523 21.5522 22 20.9999 22H6.50171" stroke="#333333" stroke-width="2" stroke-linecap="round" stroke-linejoin="round"/>
<path d="M6.5 10.2427L9.49985 13.0052L14.5 7.85938" stroke="#333333" stroke-width="2" stroke-linecap="round" stroke-linejoin="round"/>
</g>
<defs>
<clipPath id="clip0_2_20393">
<rect width="24" height="24" fill="white"/>
</clipPath>
</defs>
</svg>
