<svg width="24" height="24" viewBox="0 0 24 24" fill="none" xmlns="http://www.w3.org/2000/svg">
<g clip-path="url(#clip0_2_20389)">
<path d="M24 0H0V24H24V0Z" fill="white" fill-opacity="0.01"/>
<path d="M7 7.5C9.76142 7.5 12 6.38071 12 5C12 3.61929 9.76142 2.5 7 2.5C4.23858 2.5 2 3.61929 2 5C2 6.38071 4.23858 7.5 7 7.5Z" stroke="#333333" stroke-width="2" stroke-linecap="round" stroke-linejoin="round"/>
<path d="M2 5C2 5 2 7.1193 2 8.5C2 9.8807 4.23857 11 7 11C9.7614 11 12 9.8807 12 8.5C12 7.6822 12 5 12 5" stroke="#333333" stroke-width="2" stroke-linecap="round" stroke-linejoin="round"/>
<path d="M2 8.5C2 8.5 2 10.6193 2 12C2 13.3807 4.23857 14.5 7 14.5C9.7614 14.5 12 13.3807 12 12C12 11.1822 12 8.5 12 8.5" stroke="#333333" stroke-width="2" stroke-linecap="round" stroke-linejoin="round"/>
<path d="M2 12C2 12 2 14.1193 2 15.5C2 16.8807 4.23857 18 7 18C9.7614 18 12 16.8807 12 15.5C12 14.6822 12 12 12 12" stroke="#333333" stroke-width="2" stroke-linecap="round" stroke-linejoin="round"/>
<path d="M2 15.5C2 15.5 2 17.6193 2 19C2 20.3807 4.23857 21.5 7 21.5C9.7614 21.5 12 20.3807 12 19C12 18.1822 12 15.5 12 15.5" stroke="#333333" stroke-width="2" stroke-linecap="round" stroke-linejoin="round"/>
<path d="M17 14.5C19.7614 14.5 22 13.3807 22 12C22 10.6193 19.7614 9.5 17 9.5C14.2386 9.5 12 10.6193 12 12C12 13.3807 14.2386 14.5 17 14.5Z" stroke="#333333" stroke-width="2" stroke-linecap="round" stroke-linejoin="round"/>
<path d="M12 12C12 12 12 14.1193 12 15.5C12 16.8807 14.2386 18 17 18C19.7614 18 22 16.8807 22 15.5C22 14.6822 22 12 22 12" stroke="#333333" stroke-width="2" stroke-linecap="round" stroke-linejoin="round"/>
<path d="M12 15.5C12 15.5 12 17.6193 12 19C12 20.3807 14.2386 21.5 17 21.5C19.7614 21.5 22 20.3807 22 19C22 18.1822 22 15.5 22 15.5" stroke="#333333" stroke-width="2" stroke-linecap="round" stroke-linejoin="round"/>
</g>
<defs>
<clipPath id="clip0_2_20389">
<rect width="24" height="24" fill="white"/>
</clipPath>
</defs>
</svg>
