<svg width="24" height="24" viewBox="0 0 24 24" fill="none" xmlns="http://www.w3.org/2000/svg">
<g clip-path="url(#clip0_2_20925)">
<path d="M24 0H0V24H24V0Z" fill="white" fill-opacity="0.01"/>
<path d="M19 15H5C3.34315 15 2 16.3431 2 18C2 19.6569 3.34315 21 5 21H19C20.6569 21 22 19.6569 22 18C22 16.3431 20.6569 15 19 15Z" stroke="#333333" stroke-width="2" stroke-linecap="round" stroke-linejoin="round"/>
<path d="M18 11C20.2091 11 22 9.20914 22 7C22 4.79086 20.2091 3 18 3C15.7909 3 14 4.79086 14 7C14 9.20914 15.7909 11 18 11Z" stroke="#333333" stroke-width="2" stroke-linecap="round" stroke-linejoin="round"/>
<path d="M2 7L6.5 2.5L11 7L6.5 11.5L2 7Z" stroke="#333333" stroke-width="2" stroke-linecap="round" stroke-linejoin="round"/>
</g>
<defs>
<clipPath id="clip0_2_20925">
<rect width="24" height="24" fill="white"/>
</clipPath>
</defs>
</svg>
