<svg width="24" height="24" viewBox="0 0 24 24" fill="none" xmlns="http://www.w3.org/2000/svg">
<path d="M9.5 15V16.5C9.5 18.433 7.933 20 6 20C4.06701 20 2.5 18.433 2.5 16.5V9.5" stroke="#333333" stroke-width="2" stroke-linecap="round" stroke-linejoin="round"/>
<path d="M14.5 15V16.5C14.5 18.433 16.067 20 18 20C19.933 20 21.5 18.433 21.5 16.5V9.5" stroke="#333333" stroke-width="2" stroke-linecap="round" stroke-linejoin="round"/>
<path d="M16 4H8C4.96243 4 2.5 6.46243 2.5 9.5C2.5 12.5376 4.96243 15 8 15H16C19.0376 15 21.5 12.5376 21.5 9.5C21.5 6.46243 19.0376 4 16 4Z" stroke="#333333" stroke-width="2"/>
<path d="M10.5 9.5H6.5" stroke="#333333" stroke-width="2" stroke-linecap="round" stroke-linejoin="round"/>
<path d="M8.5 7.5V11.5" stroke="#333333" stroke-width="2" stroke-linecap="round" stroke-linejoin="round"/>
<path d="M18 8.5C18 7.94772 17.5523 7.5 17 7.5C16.4477 7.5 16 7.94772 16 8.5C16 9.05228 16.4477 9.5 17 9.5C17.5523 9.5 18 9.05228 18 8.5Z" fill="#333333"/>
<path d="M16 11C16 10.4477 15.5523 10 15 10C14.4477 10 14 10.4477 14 11C14 11.5523 14.4477 12 15 12C15.5523 12 16 11.5523 16 11Z" fill="#333333"/>
</svg>
