<svg width="24" height="24" viewBox="0 0 24 24" fill="none" xmlns="http://www.w3.org/2000/svg">
<g clip-path="url(#clip0_2_20380)">
<path d="M24 0H0V24H24V0Z" fill="white" fill-opacity="0.01"/>
<path d="M19.256 4.7681C17.4233 3.05124 14.9594 2 12.25 2C6.58908 2 2 6.58908 2 12.25C2 17.9109 6.58908 22.5 12.25 22.5C15.0574 22.5 17.6012 21.3713 19.4524 19.543L12 12L19.256 4.7681Z" stroke="#333333" stroke-width="2" stroke-linejoin="round"/>
<path d="M20 14C21.1046 14 22 13.1046 22 12C22 10.8954 21.1046 10 20 10C18.8954 10 18 10.8954 18 12C18 13.1046 18.8954 14 20 14Z" stroke="#333333" stroke-width="2" stroke-linejoin="round"/>
<path d="M8.5 6.5V10.5" stroke="#333333" stroke-width="2" stroke-linecap="round" stroke-linejoin="round"/>
<path d="M6.5 8.5H10.5" stroke="#333333" stroke-width="2" stroke-linecap="round" stroke-linejoin="round"/>
</g>
<defs>
<clipPath id="clip0_2_20380">
<rect width="24" height="24" fill="white"/>
</clipPath>
</defs>
</svg>
