<svg width="24" height="24" viewBox="0 0 24 24" fill="none" xmlns="http://www.w3.org/2000/svg">
<path d="M18 2H6C5.44772 2 5 2.44772 5 3V21C5 21.5523 5.44772 22 6 22H18C18.5523 22 19 21.5523 19 21V3C19 2.44772 18.5523 2 18 2Z" stroke="#333333" stroke-width="2"/>
<path d="M16 6H8V11H16V6Z" stroke="#333333" stroke-width="2" stroke-linecap="round" stroke-linejoin="round"/>
<path d="M8 16H12" stroke="#333333" stroke-width="2" stroke-linecap="round" stroke-linejoin="round"/>
<path d="M10 18V14" stroke="#333333" stroke-width="2" stroke-linecap="round" stroke-linejoin="round"/>
<path d="M15.5 17.5C15.5 16.9477 15.0523 16.5 14.5 16.5C13.9477 16.5 13.5 16.9477 13.5 17.5C13.5 18.0523 13.9477 18.5 14.5 18.5C15.0523 18.5 15.5 18.0523 15.5 17.5Z" fill="#333333"/>
<path d="M17 14C17 13.4477 16.5523 13 16 13C15.4477 13 15 13.4477 15 14C15 14.5523 15.4477 15 16 15C16.5523 15 17 14.5523 17 14Z" fill="#333333"/>
</svg>
