<svg width="24" height="24" viewBox="0 0 24 24" fill="none" xmlns="http://www.w3.org/2000/svg">
<g clip-path="url(#clip0_2_20921)">
<path d="M24 0H0V24H24V0Z" fill="white" fill-opacity="0.01"/>
<path d="M16 9H8C4.68629 9 2 11.6863 2 15C2 18.3137 4.68629 21 8 21H16C19.3137 21 22 18.3137 22 15C22 11.6863 19.3137 9 16 9Z" stroke="#333333" stroke-width="2" stroke-linejoin="round"/>
<path d="M8 13V17" stroke="#333333" stroke-width="2" stroke-linecap="round" stroke-linejoin="round"/>
<path d="M6 15H10" stroke="#333333" stroke-width="2" stroke-linecap="round" stroke-linejoin="round"/>
<path d="M12 8V4.85714H16V2" stroke="#333333" stroke-width="2" stroke-linecap="round" stroke-linejoin="round"/>
<path d="M16 17C17.1046 17 18 16.1046 18 15C18 13.8954 17.1046 13 16 13C14.8954 13 14 13.8954 14 15C14 16.1046 14.8954 17 16 17Z" stroke="#333333" stroke-width="2" stroke-linejoin="round"/>
</g>
<defs>
<clipPath id="clip0_2_20921">
<rect width="24" height="24" fill="white"/>
</clipPath>
</defs>
</svg>
