<svg width="24" height="24" viewBox="0 0 24 24" fill="none" xmlns="http://www.w3.org/2000/svg">
<g clip-path="url(#clip0_2_20384)">
<path d="M23.8889 0H0V23.8889H23.8889V0Z" fill="white" fill-opacity="0.01"/>
<path d="M18 2H6C5.44772 2 5 2.44772 5 3V21C5 21.5523 5.44772 22 6 22H18C18.5523 22 19 21.5523 19 21V3C19 2.44772 18.5523 2 18 2Z" stroke="#333333" stroke-width="2"/>
<path d="M8 17H12" stroke="#333333" stroke-width="2" stroke-linecap="round" stroke-linejoin="round"/>
<path d="M10 15V19" stroke="#333333" stroke-width="2" stroke-linecap="round" stroke-linejoin="round"/>
<path d="M16 5H8V9.5H16V5Z" stroke="#333333" stroke-width="2" stroke-linejoin="round"/>
<path d="M15.5 16C16.0523 16 16.5 15.5523 16.5 15C16.5 14.4477 16.0523 14 15.5 14C14.9477 14 14.5 14.4477 14.5 15C14.5 15.5523 14.9477 16 15.5 16Z" fill="#333333"/>
<path d="M15.5 20C16.0523 20 16.5 19.5523 16.5 19C16.5 18.4477 16.0523 18 15.5 18C14.9477 18 14.5 18.4477 14.5 19C14.5 19.5523 14.9477 20 15.5 20Z" fill="#333333"/>
</g>
<defs>
<clipPath id="clip0_2_20384">
<rect width="24" height="24" fill="white"/>
</clipPath>
</defs>
</svg>
