<svg width="24" height="24" viewBox="0 0 24 24" fill="none" xmlns="http://www.w3.org/2000/svg">
<path d="M13.5 10.5C13.5 14.5 15.0001 13.5 15.5 16C16.0123 18.5617 13.869 21 11.2498 21C8.6307 21 6.4997 18.6124 6.5 16C6.5 13.6953 7.74995 12.25 9 11.5C10.2501 10.75 11.5001 10 11.5001 8" stroke="#333333" stroke-width="2" stroke-linecap="round" stroke-linejoin="round"/>
<path d="M16.5 11.5C17 11.5 19.25 12.5 19.5 15C19.7262 17.2615 18.25 20.75 12 21" stroke="#333333" stroke-width="2" stroke-linecap="round"/>
<path d="M8.0005 20C4.07693 20 2.00115 17.6484 2.00049 15C2.00049 12.1474 6.0005 9.5 7.0005 9C8.0005 8.5 8.5005 7.52385 8.5005 6.5V4.5C8.5005 3.80986 8.81035 3.5 9.5005 3.5H14.0005C14.5707 3.5 15.0005 4 15.0005 4.5V6C15.0005 7.0255 15.6351 7.83635 16.5441 8.28925C16.9239 8.4788 17.3247 8.66 17.7342 8.8275C19.3894 9.50465 22.0005 10.5729 22.0005 13.5C22.0005 15.9405 20.299 18 19.0005 18" stroke="#333333" stroke-width="2" stroke-linecap="round"/>
</svg>
