<svg width="24" height="24" viewBox="0 0 24 24" fill="none" xmlns="http://www.w3.org/2000/svg">
<g clip-path="url(#clip0_2_20376)">
<path d="M24 0H0V24H24V0Z" fill="white" fill-opacity="0.01"/>
<path d="M11.5 2.5C10.9269 4.73011 10.9269 6.38636 11.5 7.46876C12.3595 9.09231 14.35 9.99021 11.7871 12.1558C9.2241 14.3214 6.6256 12.5042 5.02125 12.5042C3.41694 12.5042 2.01123 14.3107 2.01123 17C2.01123 18.7929 2.3408 20.2929 2.99993 21.5" stroke="#333333" stroke-width="2" stroke-linecap="round" stroke-linejoin="round"/>
<path d="M14.9921 2.5C14.2714 5.16451 14.4355 6.85436 15.4847 7.56961C17.0584 8.64251 17.179 6.40176 20.0705 7.73496C22.962 9.06816 22.2102 13.7156 20.547 16.1078C18.8838 18.5 15.3337 20.9173 12.0042 20.5C8.67464 20.0827 7.43664 16.0101 7.00804 16.0101C6.57949 16.0101 5.67394 16.0228 5.49714 17.7086C5.37924 18.8325 5.71434 20.0963 6.50239 21.5" stroke="#333333" stroke-width="2" stroke-linecap="round" stroke-linejoin="round"/>
<path d="M17.8224 14.145C17.5333 15.0081 17.045 15.6692 16.3574 16.15C15.6699 16.6308 14.7971 16.9141 13.7393 17.0001" stroke="#333333" stroke-width="2" stroke-linecap="round"/>
</g>
<defs>
<clipPath id="clip0_2_20376">
<rect width="24" height="24" fill="white"/>
</clipPath>
</defs>
</svg>
