<svg width="24" height="24" viewBox="0 0 24 24" fill="none" xmlns="http://www.w3.org/2000/svg">
<g clip-path="url(#clip0_2_20852)">
<path d="M24 0H0V24H24V0Z" fill="white" fill-opacity="0.01"/>
<path d="M20 4.5H4C3.44771 4.5 3 4.94771 3 5.5L3.00002 20.5C3.00002 21.0523 3.44773 21.5 4.00001 21.5H20C20.5523 21.5 21 21.0523 21 20.5V5.5C21 4.94771 20.5523 4.5 20 4.5Z" stroke="#333333" stroke-width="2" stroke-linejoin="round"/>
<path d="M7.5 2.5V4.5" stroke="#333333" stroke-width="2" stroke-linecap="round"/>
<path d="M16.5 2.5V4.5" stroke="#333333" stroke-width="2" stroke-linecap="round"/>
<path d="M3 8.5H21" stroke="#333333" stroke-width="2" stroke-linecap="round"/>
<path d="M9 15H15" stroke="#333333" stroke-width="2" stroke-linecap="round"/>
<path d="M12 12V18" stroke="#333333" stroke-width="2" stroke-linecap="round"/>
<path d="M3 5.5V11.5" stroke="#333333" stroke-width="2" stroke-linecap="round"/>
<path d="M21 5.5V11.5" stroke="#333333" stroke-width="2" stroke-linecap="round"/>
</g>
<defs>
<clipPath id="clip0_2_20852">
<rect width="24" height="24" fill="white"/>
</clipPath>
</defs>
</svg>
