<svg width="24" height="24" viewBox="0 0 24 24" fill="none" xmlns="http://www.w3.org/2000/svg">
<g clip-path="url(#clip0_2_20347)">
<path d="M23.76 0H0.23999V23.5468H23.76V0Z" fill="white" fill-opacity="0.01"/>
<path d="M14.1559 13.9158C15.8429 12.2288 14.7792 8.42978 11.78 5.43055C8.78075 2.43133 4.98176 1.36761 3.29469 3.05467C1.60763 4.74174 2.67134 8.54073 5.67057 11.54C8.6698 14.5392 12.4688 15.6029 14.1559 13.9158Z" stroke="#333333" stroke-width="1.92" stroke-linecap="round" stroke-linejoin="round"/>
<path d="M14.1559 9.63104C15.8429 11.3181 14.7792 15.1171 11.78 18.1163C8.78075 21.1156 4.98176 22.1793 3.29469 20.4922C1.60763 18.8051 2.67134 15.0061 5.67057 12.0069C8.6698 9.00769 12.4688 7.94397 14.1559 9.63104Z" stroke="#333333" stroke-width="1.92" stroke-linecap="round" stroke-linejoin="round"/>
<path d="M9.84414 13.9158C8.15708 12.2288 9.2208 8.42978 12.22 5.43055C15.2193 2.43132 19.0182 1.36761 20.7053 3.05467C22.3924 4.74174 21.3287 8.54073 18.3294 11.54C15.3302 14.5392 11.5312 15.6029 9.84414 13.9158Z" stroke="#333333" stroke-width="1.92" stroke-linecap="round" stroke-linejoin="round"/>
<path d="M9.84415 9.63104C8.15708 11.3181 9.2208 15.1171 12.22 18.1163C15.2193 21.1155 19.0182 22.1793 20.7053 20.4922C22.3924 18.8051 21.3287 15.0061 18.3294 12.0069C15.3302 9.00769 11.5312 7.94398 9.84415 9.63104Z" stroke="#333333" stroke-width="1.92" stroke-linecap="round" stroke-linejoin="round"/>
</g>
<defs>
<clipPath id="clip0_2_20347">
<rect width="24" height="24" fill="white"/>
</clipPath>
</defs>
</svg>
