<svg width="24" height="24" viewBox="0 0 24 24" fill="none" xmlns="http://www.w3.org/2000/svg">
<g clip-path="url(#clip0_2_20842)">
<path d="M24 0H0V24H24V0Z" fill="white" fill-opacity="0.01"/>
<path fill-rule="evenodd" clip-rule="evenodd" d="M12 22C12.6679 22 13.1819 20.1249 13.8131 20C14.4633 19.8714 15.2294 21.4893 15.8277 21.2413C16.4364 20.9888 16.2027 19.4333 16.7437 19.0711C17.2891 18.706 18.6087 19.5334 19.0711 19.0711C19.5334 18.6087 18.332 17.0453 18.6971 16.5C19.0593 15.9589 20.9888 16.4365 21.2412 15.8277C21.4893 15.2294 19.5895 14.0565 19.7181 13.4063C19.843 12.7751 22 12.6678 22 12C22 11.3322 20.1248 10.6796 20 10.0484C19.8714 9.39818 21.4893 8.77058 21.2412 8.17228C20.9888 7.56353 19.0593 8.04108 18.6971 7.49998C18.332 6.95468 19.5334 5.39128 19.0711 4.92893C18.6087 4.46657 17.0454 5.47443 16.5 5.10938C15.9589 4.74713 16.4364 3.01116 15.8277 2.75873C15.2294 2.51064 14.1503 3.95219 13.5 3.82355C12.8688 3.69869 12.6679 2 12 2C11.3321 2 11.06 3.69869 10.4289 3.82355C9.77855 3.95219 8.7706 2.51064 8.1723 2.75873C7.56355 3.01116 8.0411 4.5667 7.5 4.92893C6.95465 5.29398 5.3913 4.46657 4.92893 4.92893C4.46657 5.39128 5.7624 6.95468 5.39735 7.49998C5.0351 8.04108 3.01116 7.56353 2.75873 8.17228C2.51064 8.77058 4.12864 9.61963 4 10.2699C3.87514 10.9011 2 11.3322 2 12C2 12.6678 4.04861 12.9635 4.17347 13.5947C4.30211 14.245 2.51064 15.2294 2.75873 15.8277C3.01116 16.4365 4.90335 15.9589 5.2656 16.5C5.63065 17.0453 4.46657 18.6087 4.92893 19.0711C5.3913 19.5334 6.95465 18.4274 7.5 18.7924C8.0411 19.1547 7.56355 20.9888 8.1723 21.2413C8.7706 21.4893 9.77855 19.8714 10.4289 20C11.06 20.1249 11.3321 22 12 22Z" stroke="#333333" stroke-width="2" stroke-linejoin="round"/>
<path d="M14.5 14.5C15.6046 14.5 16.5 13.6046 16.5 12.5C16.5 11.3954 15.6046 10.5 14.5 10.5C13.3954 10.5 12.5 11.3954 12.5 12.5C12.5 13.6046 13.3954 14.5 14.5 14.5Z" stroke="#333333" stroke-width="2" stroke-linejoin="round"/>
<path d="M8.25 13C8.94035 13 9.5 12.4404 9.5 11.75C9.5 11.0597 8.94035 10.5 8.25 10.5C7.55965 10.5 7 11.0597 7 11.75C7 12.4404 7.55965 13 8.25 13Z" fill="#333333"/>
</g>
<defs>
<clipPath id="clip0_2_20842">
<rect width="24" height="24" fill="white"/>
</clipPath>
</defs>
</svg>
