<svg width="24" height="24" viewBox="0 0 24 24" fill="none" xmlns="http://www.w3.org/2000/svg">
<g clip-path="url(#clip0_2_20359)">
<path d="M24 0H0V24H24V0Z" fill="white" fill-opacity="0.01"/>
<path fill-rule="evenodd" clip-rule="evenodd" d="M12 2C6.47715 2 2 6.47715 2 12C2 17.5229 6.47715 22 12 22C17.5229 22 22 17.5229 22 12C22 6.47715 17.5229 2 12 2ZM0 12C0 5.3726 5.3726 0 12 0C18.6274 0 24 5.3726 24 12C24 18.6274 18.6274 24 12 24C5.3726 24 0 18.6274 0 12Z" fill="#333333"/>
<path fill-rule="evenodd" clip-rule="evenodd" d="M9.5915 22.7356C9.4948 22.6107 9.4948 21.4984 9.5915 19.3988C8.5556 19.4346 7.9011 19.3627 7.628 19.1831C7.2184 18.9138 6.8083 18.0831 6.44445 17.4977C6.0806 16.9123 5.273 16.8198 4.9469 16.6889C4.62079 16.558 4.53892 16.0246 5.8455 16.428C7.1521 16.8315 7.2158 17.9301 7.628 18.187C8.0402 18.4439 9.0256 18.3315 9.4723 18.1257C9.91895 17.9199 9.8861 17.1537 9.96575 16.8501C10.0664 16.5668 9.7115 16.5039 9.7037 16.5016C9.26765 16.5016 6.97685 16.0034 6.3476 13.7851C5.7184 11.5668 6.52895 10.1168 6.96135 9.4935C7.2496 9.07795 7.2241 8.19235 6.88485 6.8366C8.11665 6.6792 9.0672 7.0669 9.7366 7.9998C9.73725 8.00515 10.6141 7.47835 12 7.47835C13.3859 7.47835 13.8775 7.90745 14.257 7.9998C14.6364 8.09215 14.9399 6.3668 17.2833 6.8366C16.794 7.7982 16.3843 8.9998 16.697 9.4935C17.0097 9.9872 18.2371 11.5571 17.4832 13.7851C16.9805 15.2704 15.9925 16.1759 14.5191 16.5016C14.3501 16.5555 14.2656 16.6425 14.2656 16.7625C14.2656 16.9426 14.494 16.9622 14.8231 17.8056C15.0425 18.3679 15.0583 19.9738 14.8706 22.6233C14.3952 22.7443 14.0253 22.8256 13.7609 22.8671C13.2922 22.9408 12.7833 22.9821 12.2833 22.998C11.7833 23.014 11.6096 23.0122 10.9184 22.9478C10.4575 22.9049 10.0152 22.8342 9.5915 22.7356Z" fill="#333333"/>
</g>
<defs>
<clipPath id="clip0_2_20359">
<rect width="24" height="24" fill="white"/>
</clipPath>
</defs>
</svg>
