<svg width="24" height="24" viewBox="0 0 24 24" fill="none" xmlns="http://www.w3.org/2000/svg">
<path d="M7.25 15.5C9.04493 15.5 10.5 14.0449 10.5 12.25C10.5 10.4551 9.04493 9 7.25 9C5.45507 9 4 10.4551 4 12.25C4 14.0449 5.45507 15.5 7.25 15.5Z" stroke="#333333" stroke-width="2" stroke-linecap="round" stroke-linejoin="round"/>
<path d="M16.75 15.5C14.9551 15.5 13.5 14.0449 13.5 12.25C13.5 10.4551 14.9551 9 16.75 9C18.5449 9 20 10.4551 20 12.25C20 14.0449 18.5449 15.5 16.75 15.5Z" stroke="#333333" stroke-width="2" stroke-linecap="round" stroke-linejoin="round"/>
<path d="M2 12H4" stroke="#333333" stroke-width="2" stroke-linecap="round" stroke-linejoin="round"/>
<path d="M22 12H20" stroke="#333333" stroke-width="2" stroke-linecap="round" stroke-linejoin="round"/>
<path d="M10 10.5C10.25 9.5 11 8.5 12 8.5C13 8.5 13.75 9.5 14 10.5" stroke="#333333" stroke-width="2" stroke-linecap="round" stroke-linejoin="round"/>
</svg>
