<svg width="24" height="24" viewBox="0 0 24 24" fill="none" xmlns="http://www.w3.org/2000/svg">
<g clip-path="url(#clip0_2_21667)">
<path d="M24 0H0V24H24V0Z" fill="white" fill-opacity="0.01"/>
<path d="M6 21C7.933 21 9.5 19.433 9.5 17.5C9.5 15.567 7.933 14 6 14C4.067 14 2.5 15.567 2.5 17.5C2.5 19.433 4.067 21 6 21Z" stroke="#333333" stroke-width="2" stroke-linecap="round" stroke-linejoin="round"/>
<path d="M18 21C19.933 21 21.5 19.433 21.5 17.5C21.5 15.567 19.933 14 18 14C16.067 14 14.5 15.567 14.5 17.5C14.5 19.433 16.067 21 18 21Z" stroke="#333333" stroke-width="2" stroke-linecap="round" stroke-linejoin="round"/>
<path d="M2.5 17V5.4415C2.5 4.7458 2.5 4.39794 2.68876 4.13605C2.87752 3.87416 3.20752 3.76416 3.86754 3.54415L5.5 3" stroke="#333333" stroke-width="2" stroke-linecap="round" stroke-linejoin="round"/>
<path d="M21.5 17V5.4415C21.5 4.7458 21.5 4.39794 21.3113 4.13605C21.1225 3.87416 20.7925 3.76416 20.1325 3.54415L18.5 3" stroke="#333333" stroke-width="2" stroke-linecap="round" stroke-linejoin="round"/>
<path d="M14.5 17C14.5 15.6193 13.3807 14.5 12 14.5C10.6193 14.5 9.5 15.6193 9.5 17" stroke="#333333" stroke-width="2" stroke-linecap="round" stroke-linejoin="round"/>
</g>
<defs>
<clipPath id="clip0_2_21667">
<rect width="24" height="24" fill="white"/>
</clipPath>
</defs>
</svg>
