<svg width="24" height="24" viewBox="0 0 24 24" fill="none" xmlns="http://www.w3.org/2000/svg">
<g clip-path="url(#clip0_2_21487)">
<path d="M24 0H0V24H24V0Z" fill="white" fill-opacity="0.01"/>
<path d="M18.913 2C20.8138 3.79443 22 6.33765 22 9.1579C22 14.5935 17.5935 19 12.1579 19C9.33765 19 6.79445 17.8138 5 15.913" stroke="#333333" stroke-width="2" stroke-linecap="round" stroke-linejoin="round"/>
<path fill-rule="evenodd" clip-rule="evenodd" d="M12 16C15.866 16 19 12.866 19 9C19 5.134 15.866 2 12 2C8.134 2 5 5.134 5 9C5 12.866 8.134 16 12 16Z" stroke="#333333" stroke-width="2" stroke-linecap="round" stroke-linejoin="round"/>
<path d="M12 19V22" stroke="#333333" stroke-width="2" stroke-linecap="round" stroke-linejoin="round"/>
<path d="M9 22H15" stroke="#333333" stroke-width="2" stroke-linecap="round" stroke-linejoin="round"/>
</g>
<defs>
<clipPath id="clip0_2_21487">
<rect width="24" height="24" fill="white"/>
</clipPath>
</defs>
</svg>
