<svg width="24" height="24" viewBox="0 0 24 24" fill="none" xmlns="http://www.w3.org/2000/svg">
<g clip-path="url(#clip0_2_20349)">
<path d="M24 0H0V24H24V0Z" fill="white" fill-opacity="0.01"/>
<path d="M22 2H15.5L13.5 7.15005C15.7307 7.60285 17.6019 9.0457 18.635 11L22 2Z" stroke="#333333" stroke-width="2" stroke-linecap="round" stroke-linejoin="round"/>
<path d="M8.5 2H2L5.36505 11C6.3981 9.0457 8.2693 7.60285 10.5 7.15005L8.5 2Z" stroke="#333333" stroke-width="2" stroke-linecap="round" stroke-linejoin="round"/>
<path d="M19.5 14.5C19.5 18.6421 16.1421 22 12 22C7.85785 22 4.5 18.6421 4.5 14.5C4.5 13.2359 4.81273 12.0448 5.36505 11C6.3981 9.0457 8.2693 7.60285 10.5 7.15005C10.9846 7.05165 11.4863 7 12 7C12.5137 7 13.0154 7.05165 13.5 7.15005C15.7307 7.60285 17.6019 9.0457 18.635 11C19.1873 12.0448 19.5 13.2359 19.5 14.5Z" stroke="#333333" stroke-width="2" stroke-linecap="round" stroke-linejoin="round"/>
<path d="M12 17.5H10M12 17.5V11L10.5 11.5L12 17.5ZM12 17.5H14H12Z" stroke="#333333" stroke-width="2" stroke-linecap="round" stroke-linejoin="round"/>
</g>
<defs>
<clipPath id="clip0_2_20349">
<rect width="24" height="24" fill="white"/>
</clipPath>
</defs>
</svg>
