<svg width="24" height="24" viewBox="0 0 24 24" fill="none" xmlns="http://www.w3.org/2000/svg">
<path d="M4.00345 9.59865C6.22163 5.1623 11 3.50005 14.2534 2.09848C15.7322 1.46143 16.098 3.86155 15.5034 5.34835C15.0034 6.59865 14.0034 8.00005 14.0034 8.00005H18.2534C19.2199 8.00005 20.0034 8.78355 20.0034 9.75005C20.0034 10.7165 19.2199 11.5 18.2534 11.5H19.2534C20.2199 11.5 21.0034 12.2835 21.0034 13.25C21.0034 14.2165 20.2199 15 19.2534 15H17.2534C18.2199 15 19.0034 15.7835 19.0034 16.75C19.0034 17.7165 18.2199 18.5 17.2534 18.5H15.7534C16.7199 18.5 17.5034 19.2835 17.5034 20.25C17.5034 21.2165 16.7207 22 15.7542 22H9.50343C7.75343 22 5.50343 21.0986 4.00345 18.5985C2.56554 16.2018 2.50345 12.5986 4.00345 9.59865Z" stroke="#333333" stroke-width="2" stroke-linecap="round" stroke-linejoin="round"/>
</svg>
