<svg width="24" height="24" viewBox="0 0 24 24" fill="none" xmlns="http://www.w3.org/2000/svg">
<path d="M17.9557 20.7719L20.6406 11.2719C20.8209 10.6337 20.3414 10 19.6782 10H13.9374C13.5857 10 13.3255 9.6729 13.4045 9.33025L13.6543 8.24805C13.8834 7.25535 13.957 6.23315 13.8723 5.2179L13.8264 4.66635C13.7771 4.07467 13.5197 3.51963 13.0998 3.0998C12.7158 2.71576 12.1949 2.5 11.6517 2.5H11.5322C11.2037 2.5 10.9011 2.67808 10.7416 2.96521L9.4125 5.35745C8.81645 6.4304 7.92795 7.312 6.85045 7.89975L3.52115 9.71575C3.19989 9.89095 3 10.2277 3 10.5936V20.5C3 21.0523 3.44771 21.5 4 21.5H16.9935C17.441 21.5 17.834 21.2026 17.9557 20.7719Z" stroke="#333333" stroke-width="2" stroke-linecap="round" stroke-linejoin="round"/>
</svg>
