<svg width="24" height="24" viewBox="0 0 24 24" fill="none" xmlns="http://www.w3.org/2000/svg">
<path d="M20.6771 17.0764L14.7604 4.38814C14.0602 2.88652 12.2753 2.23685 10.7736 2.93707C9.27201 3.63728 8.62236 5.42224 9.32256 6.92384L15.2392 19.6121C15.9394 21.1138 17.7244 21.7634 19.226 21.0632C20.7276 20.363 21.3773 18.5781 20.6771 17.0764Z" stroke="#333333" stroke-width="2"/>
<path d="M11.7182 13.2678L8.75993 19.612C8.05973 21.1136 6.27478 21.7633 4.77314 21.0631C3.27152 20.3629 2.62186 18.5779 3.32208 17.0763L9.18648 4.5" stroke="#333333" stroke-width="2" stroke-linecap="round"/>
<path d="M4.77306 21.0631C6.27468 21.7633 8.05962 21.1137 8.75984 19.6121C9.46005 18.1104 8.81039 16.3255 7.30877 15.6253C5.80715 14.9251 4.02221 15.5747 3.32199 17.0763C2.62177 18.578 3.27144 20.3629 4.77306 21.0631Z" stroke="#333333" stroke-width="2"/>
</svg>
