<svg width="24" height="24" viewBox="0 0 24 24" fill="none" xmlns="http://www.w3.org/2000/svg">
<g clip-path="url(#clip0_2_20896)">
<path d="M24 0H0V24H24V0Z" fill="white" fill-opacity="0.01"/>
<path fill-rule="evenodd" clip-rule="evenodd" d="M12 12L17 7C17 4.23857 14.7614 2 12 2C9.2386 2 7 4.23857 7 7L12 12Z" stroke="#333333" stroke-width="2" stroke-linecap="round" stroke-linejoin="round"/>
<path fill-rule="evenodd" clip-rule="evenodd" d="M7 17L12 12L7 7C4.23857 7 2 9.2386 2 12C2 14.7614 4.23857 17 7 17Z" stroke="#333333" stroke-width="2" stroke-linecap="round" stroke-linejoin="round"/>
<path fill-rule="evenodd" clip-rule="evenodd" d="M17 17C19.7614 17 22 14.7614 22 12C22 9.2386 19.7614 7 17 7L12 12L17 17Z" stroke="#333333" stroke-width="2" stroke-linecap="round" stroke-linejoin="round"/>
<path fill-rule="evenodd" clip-rule="evenodd" d="M12 22C14.7614 22 17 19.7614 17 17L12 12L7 17C7 19.7614 9.2386 22 12 22Z" stroke="#333333" stroke-width="2" stroke-linecap="round" stroke-linejoin="round"/>
</g>
<defs>
<clipPath id="clip0_2_20896">
<rect width="24" height="24" fill="white"/>
</clipPath>
</defs>
</svg>
