<svg width="24" height="24" viewBox="0 0 24 24" fill="none" xmlns="http://www.w3.org/2000/svg">
<g clip-path="url(#clip0_2_21425)">
<path d="M24 0H0V24H24V0Z" fill="white" fill-opacity="0.01"/>
<path d="M21.1678 8C19.6247 4.46819 16.1006 2 11.9999 2C7.89929 2 4.37515 4.46819 2.83203 8" stroke="#333333" stroke-width="2" stroke-linecap="round" stroke-linejoin="round"/>
<path d="M12 7C10.1487 8.8149 9 11.344 9 14.1414C9 14.3916 9.0092 14.6397 9.02725 14.8854C10.8627 16.6983 12 19.2164 12 22C12 19.2164 13.1373 16.6983 14.9727 14.8854C14.9908 14.6397 15 14.3916 15 14.1414C15 11.344 13.8513 8.8149 12 7Z" stroke="#333333" stroke-width="2" stroke-linecap="round" stroke-linejoin="round"/>
<path d="M2 12C2 17.5229 6.47715 22 12 22C12 19.2164 10.8627 16.6983 9.02725 14.8854C7.2212 13.1013 4.7392 12 2 12Z" stroke="#333333" stroke-width="2" stroke-linecap="round" stroke-linejoin="round"/>
<path d="M22 12C22 17.5229 17.5229 22 12 22C12 19.2164 13.1373 16.6983 14.9727 14.8854C16.7788 13.1013 19.2608 12 22 12Z" stroke="#333333" stroke-width="2" stroke-linecap="round" stroke-linejoin="round"/>
</g>
<defs>
<clipPath id="clip0_2_21425">
<rect width="24" height="24" fill="white"/>
</clipPath>
</defs>
</svg>
