<svg width="24" height="24" viewBox="0 0 24 24" fill="none" xmlns="http://www.w3.org/2000/svg">
<path d="M13.5 12C14.8807 12 16 10.8807 16 9.5C16 8.1193 14.8807 7 13.5 7C12.1193 7 11 8.1193 11 9.5C11 10.8807 12.1193 12 13.5 12Z" stroke="#333333" stroke-width="2" stroke-miterlimit="2"/>
<path d="M11.5 14.5L10.5 18L6 16.5L4 22" stroke="#333333" stroke-width="2" stroke-miterlimit="2" stroke-linecap="round" stroke-linejoin="round"/>
<path d="M10.5 18L11.245 21.24C11.355 21.685 11.755 22 12.215 22H17.505" stroke="#333333" stroke-width="2" stroke-miterlimit="2" stroke-linecap="round" stroke-linejoin="round"/>
<path d="M3.5 11.5L11.5 14.5L7 10L6.5 5.5" stroke="#333333" stroke-width="2" stroke-miterlimit="2" stroke-linecap="round" stroke-linejoin="round"/>
<path d="M6 2C7 2 7.345 2 8.5 2C14.5 2 22 2.725 22 16" stroke="#333333" stroke-width="2" stroke-miterlimit="2" stroke-linecap="round" stroke-linejoin="round"/>
</svg>
