<svg width="24" height="24" viewBox="0 0 24 24" fill="none" xmlns="http://www.w3.org/2000/svg">
<path d="M9.09827 15.7122C10.6604 17.2743 14.4593 16.0079 17.5835 12.8837C20.7077 9.75952 21.9741 5.96052 20.412 4.39844" stroke="#333333" stroke-width="2" stroke-linecap="round" stroke-linejoin="round"/>
<path d="M13.6946 3.33789L14.4017 4.045" stroke="#333333" stroke-width="2" stroke-linecap="round" stroke-linejoin="round"/>
<path d="M11.2196 5.81299L11.9267 6.52009" stroke="#333333" stroke-width="2" stroke-linecap="round" stroke-linejoin="round"/>
<path d="M9.09839 8.64111L9.80549 9.34821" stroke="#333333" stroke-width="2" stroke-linecap="round" stroke-linejoin="round"/>
<path d="M8.39124 12.1768L9.09834 12.8839" stroke="#333333" stroke-width="2" stroke-linecap="round" stroke-linejoin="round"/>
<path d="M17.5836 2.27734L18.2907 2.98445" stroke="#333333" stroke-width="2" stroke-linecap="round" stroke-linejoin="round"/>
<path d="M16.8765 6.52002L18.2907 7.93422" stroke="#333333" stroke-width="2" stroke-linecap="round" stroke-linejoin="round"/>
<path d="M14.4016 8.99463L15.8158 10.4089" stroke="#333333" stroke-width="2" stroke-linecap="round" stroke-linejoin="round"/>
<path d="M11.5732 11.1162L12.9874 12.5305" stroke="#333333" stroke-width="2" stroke-linecap="round" stroke-linejoin="round"/>
<path d="M9.09838 17.8338C9.68417 17.248 9.68417 16.2983 9.09838 15.7125C8.51259 15.1267 7.56285 15.1267 6.97706 15.7125L4.14863 18.5409C3.56285 19.1267 3.56285 20.0765 4.14863 20.6623C4.73442 21.248 5.68417 21.248 6.26995 20.6623L9.09838 17.8338Z" stroke="#333333" stroke-width="2" stroke-linecap="round" stroke-linejoin="round"/>
</svg>
