<svg width="24" height="24" viewBox="0 0 24 24" fill="none" xmlns="http://www.w3.org/2000/svg">
<path d="M19.4237 2.66943C15.9418 3.28337 12.132 6.10919 10.6569 9.95939C9.04445 14.168 8.60815 14.6287 6.64185 15.6935C4.75074 16.7175 2.29968 17.5361 2.29968 17.5361" stroke="#333333" stroke-width="2" stroke-linecap="round" stroke-linejoin="round"/>
<path d="M4.81897 16.5535C6.92865 15.2839 9.6729 16.5951 10.9016 17.4555C12.1303 18.3158 13.3797 18.275 14.0966 17.2511C14.8136 16.2272 14.4247 15.0392 13.1959 14.1789C12.3768 13.6053 9.63255 12.2941 10.6569 9.95947" stroke="#333333" stroke-width="2" stroke-linecap="round" stroke-linejoin="round"/>
<path d="M21.5944 4.7998C16.433 6.06888 14.3847 7.68658 12.3767 13.6052" stroke="#333333" stroke-width="2" stroke-linecap="round" stroke-linejoin="round"/>
<path d="M10.4921 17.1685C10.1028 18.015 9.34478 20.0275 9.42653 21.3055" stroke="#333333" stroke-width="2" stroke-linecap="round" stroke-linejoin="round"/>
</svg>
