<svg width="24" height="24" viewBox="0 0 24 24" fill="none" xmlns="http://www.w3.org/2000/svg">
<path d="M5.5 6.06915C5.5 6.0296 5.52935 5.9962 5.56855 5.99115L16.0411 4.63986C18.6707 4.30056 21 6.34865 21 9C21 11.6514 18.6706 13.6995 16.0411 13.3602L5.56855 12.0089C5.52935 12.0038 5.5 11.9704 5.5 11.9309V6.06915Z" stroke="#333333" stroke-width="2"/>
<path d="M5.5 6L2 4V14L5.5 12" stroke="#333333" stroke-width="2" stroke-linecap="round" stroke-linejoin="round"/>
<path d="M19.0001 12.5L15.6531 20.4491C15.2574 21.3889 14.337 22 13.3172 22C11.5046 22 10.2779 20.1526 10.9813 18.482L13.5001 12.5" stroke="#333333" stroke-width="2"/>
<path d="M17.5 13.5C19.9853 13.5 22 11.4853 22 9C22 6.51472 19.9853 4.5 17.5 4.5C15.0147 4.5 13 6.51472 13 9C13 11.4853 15.0147 13.5 17.5 13.5Z" stroke="#333333" stroke-width="2"/>
</svg>
