<svg width="24" height="24" viewBox="0 0 24 24" fill="none" xmlns="http://www.w3.org/2000/svg">
<g clip-path="url(#clip0_2_20305)">
<path d="M24 0H0V24H24V0Z" fill="white" fill-opacity="0.01"/>
<path d="M24 0H0V24H24V0Z" fill="white" fill-opacity="0.01"/>
<path d="M12 14C13.1046 14 14 13.1046 14 12C14 10.8954 13.1046 10 12 10C10.8954 10 10 10.8954 10 12C10 13.1046 10.8954 14 12 14Z" stroke="#333333" stroke-width="2" stroke-linecap="round" stroke-linejoin="round"/>
<path d="M8.68222 7C8.34612 7.22345 8.03382 7.4799 7.75002 7.76475C7.45207 8.0637 7.18547 8.3939 6.95557 8.75" stroke="#333333" stroke-width="2" stroke-linecap="round" stroke-linejoin="round"/>
<path d="M6.09875 13.0901C6.0339 12.7366 6 12.3723 6 12.0001C6 11.6279 6.0339 11.2636 6.09875 10.9102" stroke="#333333" stroke-width="2" stroke-linecap="round" stroke-linejoin="round"/>
<path d="M8.68222 17C8.34612 16.7765 8.03382 16.5201 7.75002 16.2353C7.45207 15.9363 7.18547 15.6061 6.95557 15.25" stroke="#333333" stroke-width="2" stroke-linecap="round" stroke-linejoin="round"/>
<path d="M13.1799 17.8843C12.7984 17.9603 12.4039 18.0002 12 18.0002C11.5961 18.0002 11.2016 17.9603 10.8201 17.8843" stroke="#333333" stroke-width="2" stroke-linecap="round" stroke-linejoin="round"/>
<path d="M15.3177 17C15.6538 16.7765 15.9661 16.5201 16.2499 16.2353C16.5479 15.9363 16.8145 15.6061 17.0444 15.25" stroke="#333333" stroke-width="2" stroke-linecap="round" stroke-linejoin="round"/>
<path d="M17.9012 13.0901C17.9661 12.7366 18 12.3723 18 12.0001C18 11.6279 17.9661 11.2636 17.9012 10.9102" stroke="#333333" stroke-width="2" stroke-linecap="round" stroke-linejoin="round"/>
<path d="M15.3177 7C15.6538 7.22345 15.9661 7.4799 16.2499 7.76475C16.5479 8.0637 16.8145 8.3939 17.0444 8.75" stroke="#333333" stroke-width="2" stroke-linecap="round" stroke-linejoin="round"/>
<path d="M10.8201 6.116C11.2016 6.0399 11.5961 6 12 6C12.4039 6 12.7984 6.0399 13.1799 6.116" stroke="#333333" stroke-width="2" stroke-linecap="round" stroke-linejoin="round"/>
<path d="M20.8763 16.6101C21.0216 16.3309 21.1541 16.0439 21.2731 15.75C21.3822 15.4803 21.48 15.2049 21.5657 14.9242M22 12C22 11.6625 21.9833 11.3289 21.9506 11C21.917 10.6614 21.8665 10.3278 21.7999 10L22 12ZM2 12C2 11.6625 2.01672 11.3289 2.04938 11C2.08299 10.6614 2.1335 10.3278 2.20004 10L2 12ZM19.323 18.8099C19.0983 19.0514 18.8619 19.2817 18.6145 19.5C18.3932 19.6954 18.1631 19.8812 17.9249 20.0566L19.323 18.8099ZM4.67701 18.8099C4.90166 19.0514 5.1381 19.2817 5.38545 19.5C5.6068 19.6954 5.83695 19.8812 6.0751 20.0566L4.67701 18.8099ZM7.8562 2.89628C7.52845 3.04571 7.21015 3.21232 6.9025 3.39497C6.61725 3.56431 6.34115 3.74743 6.0751 3.94341L7.8562 2.89628ZM16.1438 2.89628C16.4716 3.04571 16.7898 3.21232 17.0975 3.39497C17.3827 3.56431 17.6589 3.74743 17.9249 3.94341L16.1438 2.89628ZM13.1233 2.06239C12.7546 2.02117 12.3798 2 12 2C11.6202 2 11.2454 2.02117 10.8767 2.06239H13.1233ZM13.1233 21.9376C13.4995 21.8955 13.8695 21.8326 14.2319 21.75C14.5785 21.671 14.9182 21.574 15.25 21.46L13.1233 21.9376ZM10.8767 21.9376C10.5005 21.8955 10.1305 21.8326 9.7681 21.75C9.42155 21.671 9.0818 21.574 8.75 21.46L10.8767 21.9376ZM4.07748 5.89725C3.88813 6.1427 3.70994 6.3972 3.54366 6.65995C3.39381 6.89675 3.25364 7.14025 3.1237 7.38995L4.07748 5.89725ZM19.9226 5.89725C20.1119 6.1427 20.2901 6.3972 20.4564 6.65995C20.6062 6.89675 20.7464 7.14025 20.8763 7.38995L19.9226 5.89725ZM3.1237 16.6101C2.97838 16.3309 2.84586 16.0439 2.7269 15.75C2.61775 15.4803 2.52002 15.2049 2.43431 14.9242L3.1237 16.6101Z" stroke="#333333" stroke-width="2" stroke-linecap="round" stroke-linejoin="round"/>
</g>
<defs>
<clipPath id="clip0_2_20305">
<rect width="24" height="24" fill="white"/>
</clipPath>
</defs>
</svg>
