<svg width="24" height="24" viewBox="0 0 24 24" fill="none" xmlns="http://www.w3.org/2000/svg">
<path d="M20 11V10.5C20 6.0817 16.4183 2.5 12 2.5C7.5817 2.5 4 6.0817 4 10.5V11" stroke="#333333" stroke-width="2" stroke-linecap="round" stroke-linejoin="round"/>
<path d="M4 17C4 17 3 19.5 5 20.5C7 21.5 17 21.5 19 20.5C21 19.5 20 17 20 17" stroke="#333333" stroke-width="2" stroke-linecap="round" stroke-linejoin="round"/>
<path d="M18 10.5H6C4.067 10.5 2.5 12.067 2.5 14C2.5 15.933 4.067 17.5 6 17.5H18C19.933 17.5 21.5 15.933 21.5 14C21.5 12.067 19.933 10.5 18 10.5Z" stroke="#333333" stroke-width="2" stroke-linecap="round" stroke-linejoin="round"/>
<path d="M5.5 14.5002L6.29585 14.1023C7.06175 13.7193 7.9549 13.6821 8.75 14.0002L8.96195 14.0849C9.6222 14.3491 10.364 14.3182 11 14.0002C11.636 13.6821 12.3778 13.6513 13.038 13.9154L13.5176 14.1072C14.1425 14.3572 14.8444 14.328 15.4464 14.027C16.1097 13.6954 16.8903 13.6954 17.5536 14.027L18.5 14.5002" stroke="#333333" stroke-width="2" stroke-linecap="round" stroke-linejoin="round"/>
<path d="M8.5 8.7749C9.19036 8.7749 9.75 8.21526 9.75 7.5249C9.75 6.83455 9.19036 6.2749 8.5 6.2749C7.80964 6.2749 7.25 6.83455 7.25 7.5249C7.25 8.21526 7.80964 8.7749 8.5 8.7749Z" fill="#333333"/>
<path d="M11.875 7.3999C12.5654 7.3999 13.125 6.84026 13.125 6.1499C13.125 5.45955 12.5654 4.8999 11.875 4.8999C11.1846 4.8999 10.625 5.45955 10.625 6.1499C10.625 6.84026 11.1846 7.3999 11.875 7.3999Z" fill="#333333"/>
</svg>
