<svg width="24" height="24" viewBox="0 0 24 24" fill="none" xmlns="http://www.w3.org/2000/svg">
<path d="M12 2V5.5" stroke="#333333" stroke-width="2" stroke-linecap="round" stroke-linejoin="round"/>
<path d="M14.5 8.5V5.5H9.5V8.5" stroke="#333333" stroke-width="2" stroke-linecap="round" stroke-linejoin="round"/>
<path d="M15.5 2H9.9C8.57095 2 7.5 2.6 7.5 4" stroke="#333333" stroke-width="2" stroke-linecap="round" stroke-linejoin="round"/>
<path d="M19 13.4888V13C19 10.5147 16.9853 8.5 14.5 8.5H9.5C7.0147 8.5 5 10.5147 5 13V17.5C5 19.9853 7.0147 22 9.5 22H12" stroke="#333333" stroke-width="2" stroke-linecap="round" stroke-linejoin="round"/>
<path d="M20 19.8846C20 21.0529 18.9927 22 17.75 22C16.5073 22 15.5 21.0529 15.5 19.8846C15.5 18.7163 16.9699 16.5 17.75 16.5C18.5301 16.5 20 18.7163 20 19.8846Z" stroke="#333333" stroke-width="2"/>
</svg>
