<svg width="24" height="24" viewBox="0 0 24 24" fill="none" xmlns="http://www.w3.org/2000/svg">
<g clip-path="url(#clip0_2_21513)">
<path d="M24 0H0V24H24V0Z" fill="white" fill-opacity="0.01"/>
<path d="M5.0133 20.4868V9.48682H2.01331V20.4868H5.0133Z" stroke="#333333" stroke-width="2" stroke-linejoin="round"/>
<path fill-rule="evenodd" clip-rule="evenodd" d="M5.01331 9.48663C8.57476 6.22713 10.6387 4.35684 11.2052 3.87572C12.0549 3.15402 13.0153 3.45707 13.0153 5.26313C13.0153 7.06923 10.3726 8.11083 10.3726 9.48663C10.3709 9.49483 13.7505 9.49538 20.5113 9.48828C21.34 9.48743 22.0125 10.1585 22.0133 10.9871V10.9887C22.0133 11.8183 21.3408 12.4908 20.5112 12.4908H16.5065C15.9021 16.4772 15.5687 18.6445 15.5061 18.9926C15.4124 19.5149 14.9138 20.4866 13.4793 20.4866C12.523 20.4866 10.0343 20.4866 5.01331 20.4866V9.48663Z" stroke="#333333" stroke-width="2" stroke-linejoin="round"/>
</g>
<defs>
<clipPath id="clip0_2_21513">
<rect width="24" height="24" fill="white"/>
</clipPath>
</defs>
</svg>
