<svg width="24" height="24" viewBox="0 0 24 24" fill="none" xmlns="http://www.w3.org/2000/svg">
<g clip-path="url(#clip0_2_20516)">
<path d="M24 0H0V24H24V0Z" fill="white" fill-opacity="0.01"/>
<path d="M12 11C14.4853 11 16.5 8.98528 16.5 6.5C16.5 4.01472 14.4853 2 12 2C9.51472 2 7.5 4.01472 7.5 6.5C7.5 8.98528 9.51472 11 12 11Z" stroke="#333333" stroke-width="2" stroke-linejoin="round"/>
<path d="M2.25 21.9995C2.25 18.9998 5.75 13.9995 12 13.9995C12 13.9995 13.3794 13.9995 14.8911 14.5451C16.3719 15.0796 18.25 15.5738 18.25 13.9995V3.87452C18.25 2.83898 19.0895 1.99951 20.125 1.99951C21.1605 1.99951 22 2.83898 22 3.87451V21.9995" stroke="#333333" stroke-width="2"/>
<path d="M1 22H23" stroke="#333333" stroke-width="2" stroke-linecap="round" stroke-linejoin="round"/>
</g>
<defs>
<clipPath id="clip0_2_20516">
<rect width="24" height="24" fill="white"/>
</clipPath>
</defs>
</svg>
