<svg width="24" height="24" viewBox="0 0 24 24" fill="none" xmlns="http://www.w3.org/2000/svg">
<g clip-path="url(#clip0_2_20535)">
<path d="M24 0H0V24H24V0Z" fill="white" fill-opacity="0.01"/>
<path d="M3.52661 4.99999H14.5266V2H3.52661V4.99999Z" stroke="#333333" stroke-width="2" stroke-linejoin="round"/>
<path fill-rule="evenodd" clip-rule="evenodd" d="M14.5265 5C17.786 8.56145 19.6563 10.6254 20.1374 11.1919C20.8591 12.0416 20.556 13.002 18.75 13.002C16.9439 13.002 15.9023 10.3593 14.5265 10.3593C14.5183 10.3576 14.5177 13.7371 14.5248 20.498C14.5257 21.3266 13.8546 21.9991 13.026 22H13.0244C12.1948 22 11.5223 21.3275 11.5223 20.4979V16.4932C7.53595 15.8888 5.36865 15.5553 5.0205 15.4928C4.49823 15.399 3.52649 14.9005 3.52649 13.466C3.52649 12.5096 3.52649 10.021 3.52649 5H14.5265Z" stroke="#333333" stroke-width="2" stroke-linejoin="round"/>
</g>
<defs>
<clipPath id="clip0_2_20535">
<rect width="24" height="24" fill="white"/>
</clipPath>
</defs>
</svg>
