<svg width="24" height="24" viewBox="0 0 24 24" fill="none" xmlns="http://www.w3.org/2000/svg">
<path d="M7 7C7 5.34315 8.34315 4 10 4H14.5C16.1568 4 17.5 5.34315 17.5 7V8H7V7Z" stroke="#333333" stroke-width="2" stroke-linecap="round" stroke-linejoin="round"/>
<path d="M2 12.5L11.7575 14.9394C11.9167 14.9792 12.0833 14.9792 12.2425 14.9394L22 12.5V19C22 19.5523 21.5523 20 21 20H3C2.44771 20 2 19.5523 2 19V12.5Z" stroke="#333333" stroke-width="2" stroke-linecap="round" stroke-linejoin="round"/>
<path d="M22 13.5V9C22 8.4477 21.5523 8 21 8H3C2.44771 8 2 8.4477 2 9V13.5" stroke="#333333" stroke-width="2" stroke-linecap="round" stroke-linejoin="round"/>
<path d="M13.25 11.5C13.25 12.1904 12.6904 12.75 12 12.75C11.3097 12.75 10.75 12.1904 10.75 11.5C10.75 10.8097 11.3097 10.25 12 10.25C12.6904 10.25 13.25 10.8097 13.25 11.5Z" fill="#333333"/>
</svg>
