<svg width="24" height="24" viewBox="0 0 24 24" fill="none" xmlns="http://www.w3.org/2000/svg">
<path d="M5.5 12H2V22H5.5V12Z" stroke="#333333" stroke-width="2" stroke-linecap="round" stroke-linejoin="round"/>
<path d="M16.0002 8C15.2503 6.25 18.0002 3 18.0002 3C18.0002 3 20.7501 6.25 20.0002 8C19.2503 9.75 16.75 9.75 16.0002 8Z" stroke="#333333" stroke-width="2" stroke-linecap="round" stroke-linejoin="round"/>
<path d="M15.5 21.2498C11 21.2498 7.5 19.9998 5.5 19.9998V14.9998C9 14.9998 8.75 13.7498 11 12.9998C13.25 12.2498 15 12.9998 14.75 14.4998C14.5 15.9998 12 17.4998 12 17.4998C16 17.4998 16 16.4998 18 14.9998C20 13.4998 22 13.9998 22 15.4998C22 16.9998 20 21.2498 15.5 21.2498Z" stroke="#333333" stroke-width="2" stroke-linecap="round" stroke-linejoin="round"/>
</svg>
