<svg width="24" height="24" viewBox="0 0 24 24" fill="none" xmlns="http://www.w3.org/2000/svg">
<g clip-path="url(#clip0_2_20522)">
<path d="M24 0H0V24H24V0Z" fill="white" fill-opacity="0.01"/>
<path d="M20.5 19H9.5V22H20.5V19Z" stroke="#333333" stroke-width="2" stroke-linejoin="round"/>
<path fill-rule="evenodd" clip-rule="evenodd" d="M9.50005 19C6.2406 15.4385 4.37027 13.3746 3.88914 12.8081C3.16745 11.9584 3.4705 10.998 5.2766 10.998C7.08265 10.998 8.12425 13.6407 9.50005 13.6407C9.50825 13.6424 9.5088 10.2628 9.5017 3.50202C9.50085 2.67334 10.1719 2.00087 11.0006 2H11.0021C11.8317 2 12.5042 2.6725 12.5042 3.50208V7.50678C16.4906 8.11123 18.6579 8.44468 19.0061 8.50718C19.5283 8.60098 20.5 9.09948 20.5 10.534C20.5 11.4904 20.5 13.979 20.5 19H9.50005Z" stroke="#333333" stroke-width="2" stroke-linejoin="round"/>
</g>
<defs>
<clipPath id="clip0_2_20522">
<rect width="24" height="24" fill="white"/>
</clipPath>
</defs>
</svg>
