<svg width="24" height="24" viewBox="0 0 24 24" fill="none" xmlns="http://www.w3.org/2000/svg">
<g clip-path="url(#clip0_2_20301)">
<path d="M24 0H0V24H24V0Z" fill="white" fill-opacity="0.01"/>
<path d="M4.79151 13.5914C3.93359 14.1773 3.50464 15.147 3.50464 16.5003C3.50464 18.5304 6.00005 22.0003 8.2503 22.0003C10.5005 22.0003 11.8055 22.0003 14.008 22.0003C16.2105 22.0003 17.5482 20.075 17.5482 18.5304C17.5482 16.4537 17.5482 14.377 17.5482 12.3004C17.5482 11.4038 16.8228 10.6763 15.9262 10.6738C15.0329 10.6713 14.3067 11.3935 14.3042 12.2868C14.3042 12.2883 14.3042 12.2898 14.3042 12.2913V12.342" stroke="#333333" stroke-width="2" stroke-linecap="round"/>
<path d="M5.4906 14.7226V3.83123C5.4906 2.94284 6.2108 2.22266 7.09915 2.22266C7.98755 2.22266 8.70775 2.94284 8.70775 3.83123V11.8239" stroke="#333333" stroke-width="2" stroke-linecap="round"/>
<path d="M8.70776 12.0003V9.90405C8.70776 9.12965 9.33551 8.50195 10.1099 8.50195C10.8842 8.50195 11.512 9.12965 11.512 9.90405V12.2138" stroke="#333333" stroke-width="2" stroke-linecap="round" stroke-linejoin="round"/>
<path d="M11.5 12.3294V10.9041C11.5 10.1297 12.1277 9.50195 12.9021 9.50195C13.6764 9.50195 14.3042 10.1297 14.3042 10.9041V12.502" stroke="#333333" stroke-width="2" stroke-linecap="round" stroke-linejoin="round"/>
<path d="M5.5 4H20.5" stroke="#333333" stroke-width="2" stroke-linecap="round"/>
<path d="M18 6.24998L18.8333 5.49998L20.5 4L18.8333 2.5L18 1.75" stroke="#333333" stroke-width="2" stroke-linecap="round" stroke-linejoin="round"/>
</g>
<defs>
<clipPath id="clip0_2_20301">
<rect width="24" height="24" fill="white"/>
</clipPath>
</defs>
</svg>
