<svg width="24" height="24" viewBox="0 0 24 24" fill="none" xmlns="http://www.w3.org/2000/svg">
<g clip-path="url(#clip0_2_21320)">
<path d="M24 0H0V24H24V0Z" fill="white" fill-opacity="0.01"/>
<path d="M18.5 16H20.4549C21.3083 16 22 15.3082 22 14.4549C22 13.8697 21.6694 13.3347 21.1459 13.073L12 8.5L2.8541 13.073C2.33065 13.3347 2 13.8697 2 14.4549C2 15.3082 2.69176 16 3.54508 16H5.5" stroke="#333333" stroke-width="2" stroke-linecap="round" stroke-linejoin="round"/>
<path d="M5.5 15H18.5V16V22H5.5V16V15Z" stroke="#333333" stroke-width="2" stroke-linecap="round" stroke-linejoin="round"/>
<path d="M12 8.5C12 8.5 14 5.10455 14 4C14 2.89543 13.1046 2 12 2C10.8954 2 10 2.89543 10 4" stroke="#333333" stroke-width="2" stroke-linecap="round" stroke-linejoin="round"/>
</g>
<defs>
<clipPath id="clip0_2_21320">
<rect width="24" height="24" fill="white"/>
</clipPath>
</defs>
</svg>
