<svg width="24" height="24" viewBox="0 0 24 24" fill="none" xmlns="http://www.w3.org/2000/svg">
<g clip-path="url(#clip0_2_20276)">
<path d="M24 0H0V24H24V0Z" fill="white" fill-opacity="0.01"/>
<path fill-rule="evenodd" clip-rule="evenodd" d="M10.3651 13.5628C11.3593 12.9166 12.6407 12.9166 13.6349 13.5628L21.4101 18.6166C21.778 18.8558 22 19.2648 22 19.7036C22 20.4196 21.4196 21.0001 20.7036 21.0001H3.29644C2.58043 21.0001 2 20.4196 2 19.7036C2 19.2648 2.22197 18.8558 2.5899 18.6166L10.3651 13.5628Z" stroke="#333333" stroke-width="2" stroke-linecap="round" stroke-linejoin="round"/>
<path d="M12 12.5C12 12.5 15 8.15685 15 6.5C15 4.84315 13.6568 3.5 12 3.5C10.3432 3.5 9 4.84315 9 6.5" stroke="#333333" stroke-width="2" stroke-linecap="round" stroke-linejoin="round"/>
</g>
<defs>
<clipPath id="clip0_2_20276">
<rect width="24" height="24" fill="white"/>
</clipPath>
</defs>
</svg>
