<svg width="24" height="24" viewBox="0 0 24 24" fill="none" xmlns="http://www.w3.org/2000/svg">
<path d="M18.5 2H5.5C4.94772 2 4.5 2.44772 4.5 3V21C4.5 21.5523 4.94772 22 5.5 22H18.5C19.0523 22 19.5 21.5523 19.5 21V3C19.5 2.44772 19.0523 2 18.5 2Z" stroke="#333333" stroke-width="2" stroke-linecap="round" stroke-linejoin="round"/>
<path d="M16 6C16.5523 6 17 5.55228 17 5C17 4.44772 16.5523 4 16 4C15.4477 4 15 4.44772 15 5C15 5.55228 15.4477 6 16 6Z" fill="#333333"/>
<path d="M8 6C8.55228 6 9 5.55228 9 5C9 4.44772 8.55228 4 8 4C7.44772 4 7 4.44772 7 5C7 5.55228 7.44772 6 8 6Z" fill="#333333"/>
<path d="M16 20C16.5523 20 17 19.5523 17 19C17 18.4477 16.5523 18 16 18C15.4477 18 15 18.4477 15 19C15 19.5523 15.4477 20 16 20Z" fill="#333333"/>
<path d="M8 20C8.55228 20 9 19.5523 9 19C9 18.4477 8.55228 18 8 18C7.44772 18 7 18.4477 7 19C7 19.5523 7.44772 20 8 20Z" fill="#333333"/>
<path d="M12 15C14.2092 15 16 13.2092 16 11C16 8.79085 14.2092 7 12 7C9.79085 7 8 8.79085 8 11" stroke="#333333" stroke-width="2" stroke-linecap="round" stroke-linejoin="round"/>
<path d="M12 11L9 14" stroke="#333333" stroke-width="2" stroke-linecap="round" stroke-linejoin="round"/>
</svg>
