<svg width="24" height="24" viewBox="0 0 24 24" fill="none" xmlns="http://www.w3.org/2000/svg">
<path d="M10.5 8H7.5V12.5C7.5 13.3285 8.17155 14 9 14C9.82845 14 10.5 13.3285 10.5 12.5V8Z" stroke="#333333" stroke-width="2" stroke-linecap="round" stroke-linejoin="round"/>
<path d="M9 14V19H6" stroke="#333333" stroke-width="2" stroke-linecap="round" stroke-linejoin="round"/>
<path d="M10.5 8V2H5.25C4 2 2.5 3 2.5 5C2.5 7 4.25 8 5.5 8H10.5Z" stroke="#333333" stroke-width="2" stroke-linecap="round" stroke-linejoin="round"/>
<path d="M13.5 11V5H18.75C20 5 21.5 6 21.5 8C21.5 10 19.75 11 18.5 11H13.5Z" stroke="#333333" stroke-width="2" stroke-linecap="round" stroke-linejoin="round"/>
<path d="M16.5 11H13.5V15.5C13.5 16.3285 14.1715 17 15 17C15.8285 17 16.5 16.3285 16.5 15.5V11Z" stroke="#333333" stroke-width="2" stroke-linecap="round" stroke-linejoin="round"/>
<path d="M15 17V22H18" stroke="#333333" stroke-width="2" stroke-linecap="round" stroke-linejoin="round"/>
</svg>
