<svg width="24" height="24" viewBox="0 0 24 24" fill="none" xmlns="http://www.w3.org/2000/svg">
<g clip-path="url(#clip0_2_20483)">
<path d="M24 0H0V24H24V0Z" fill="white" fill-opacity="0.01"/>
<path d="M18 16C20.2092 16 22 14.2092 22 12C22 9.79085 20.2092 8 18 8" stroke="#333333" stroke-width="2" stroke-linejoin="round"/>
<path d="M6 8C3.79086 8 2 9.79085 2 12C2 14.2092 3.79086 16 6 16" stroke="#333333" stroke-width="2" stroke-linejoin="round"/>
<path d="M6 16V15.75V14.5V12V8C6 4.68629 8.6863 2 12 2C15.3137 2 18 4.68629 18 8V16C18 19.3137 15.3137 22 12 22" stroke="#333333" stroke-width="2" stroke-linecap="round" stroke-linejoin="round"/>
</g>
<defs>
<clipPath id="clip0_2_20483">
<rect width="24" height="24" fill="white"/>
</clipPath>
</defs>
</svg>
