<svg width="24" height="24" viewBox="0 0 24 24" fill="none" xmlns="http://www.w3.org/2000/svg">
<g clip-path="url(#clip0_2_20264)">
<path d="M24 0H0V24H24V0Z" fill="white" fill-opacity="0.01"/>
<path d="M21 15V12.2308C21 7.13275 16.9706 3 12 3C7.02945 3 3 7.13275 3 12.2308V15" stroke="#333333" stroke-width="2" stroke-linecap="round" stroke-linejoin="round"/>
<path d="M17 16C17 14.8954 17.8954 14 19 14H21V21H19C17.8954 21 17 20.1046 17 19V16Z" stroke="#333333" stroke-width="2" stroke-linejoin="round"/>
<path d="M21 16H22C22.5523 16 23 16.4477 23 17V18C23 18.5523 22.5523 19 22 19H21V16Z" fill="#333333"/>
<path d="M3 16H2C1.44771 16 1 16.4477 1 17V18C1 18.5523 1.44771 19 2 19H3V16Z" fill="#333333"/>
<path d="M3 14H5C6.10455 14 7 14.8954 7 16V19C7 20.1046 6.10455 21 5 21H3V14Z" stroke="#333333" stroke-width="2" stroke-linejoin="round"/>
</g>
<defs>
<clipPath id="clip0_2_20264">
<rect width="24" height="24" fill="white"/>
</clipPath>
</defs>
</svg>
