<svg width="24" height="24" viewBox="0 0 24 24" fill="none" xmlns="http://www.w3.org/2000/svg">
<path d="M5 18V12V18ZM5 13H3C2.44771 13 2 13.4477 2 14V18C2 18.5523 2.44771 19 3 19H5V13Z" stroke="#333333" stroke-width="2" stroke-linecap="round" stroke-linejoin="round"/>
<path d="M19 12V18V12ZM19 13H21C21.5523 13 22 13.4477 22 14V18C22 18.5523 21.5523 19 21 19H19V13Z" stroke="#333333" stroke-width="2" stroke-linecap="round" stroke-linejoin="round"/>
<path d="M19 13V19M5 18V12C5 8.134 8.134 5 12 5C15.866 5 19 8.134 19 12V18H5ZM5 13V19V13Z" stroke="#333333" stroke-width="2" stroke-linecap="round" stroke-linejoin="round"/>
<path d="M8 16H10L11 13L13 19L14 16H16" stroke="#333333" stroke-width="2" stroke-linecap="round" stroke-linejoin="round"/>
</svg>
