<svg width="24" height="24" viewBox="0 0 24 24" fill="none" xmlns="http://www.w3.org/2000/svg">
<path d="M3 16.5V19.5C3 20.3285 3.67158 21 4.5 21H7.5" stroke="#333333" stroke-width="2" stroke-linecap="round" stroke-linejoin="round"/>
<path d="M16.5 21H19.5C20.3285 21 21 20.3285 21 19.5V16.5" stroke="#333333" stroke-width="2" stroke-linecap="round" stroke-linejoin="round"/>
<path d="M21 7.5V4.5C21 3.67158 20.3285 3 19.5 3H16.5" stroke="#333333" stroke-width="2" stroke-linecap="round" stroke-linejoin="round"/>
<path d="M3 7.5V4.5C3 3.67158 3.67158 3 4.5 3H7.5" stroke="#333333" stroke-width="2" stroke-linecap="round" stroke-linejoin="round"/>
<path d="M17 11.9998L12 16.9998C12 16.9998 7.50009 12.4998 6.99999 11.9998C6.49989 11.4998 6.24999 10.4998 6.99999 9.49981C7.74999 8.49981 9.24999 8.49981 9.99999 8.99981C10.75 9.49981 11 9.99981 12 9.99981C13 9.99981 13.25 9.49981 14 8.99981C14.75 8.49981 16.2501 8.49981 17.0001 9.49981C17.7501 10.4998 17.5 11.4998 17 11.9998Z" stroke="#333333" stroke-width="2" stroke-linecap="round" stroke-linejoin="round"/>
</svg>
