<svg width="24" height="24" viewBox="0 0 24 24" fill="none" xmlns="http://www.w3.org/2000/svg">
<g clip-path="url(#clip0_2_20260)">
<path d="M24 0H0V24H24V0Z" fill="white" fill-opacity="0.01"/>
<path d="M7.26985 10.0095C6.4261 8.97189 5.63375 8.74914 4.89282 9.34124C3.78145 10.2293 3.46226 13.325 4.35662 16.0545C5.251 18.784 6.99005 22.501 10.5008 22.501C14.0115 22.501 14.842 18.7613 16.2743 16.5002C17.7065 14.2392 18.4642 12.0578 17.0604 9.34124" stroke="#333333" stroke-width="2" stroke-linecap="round" stroke-linejoin="round"/>
<path d="M5.5 9.01858C4.64853 7.72158 3.98187 6.71548 3.49998 6.00028C2.77715 4.9275 4.62553 3.541 5.5 4.48421C6.08295 5.11303 6.8574 6.03918 7.8233 7.26263" stroke="#333333" stroke-width="2" stroke-linecap="round"/>
<path d="M7.5118 12.8197C7.26955 9.78786 7.46665 7.81371 8.1031 6.89726C9.05775 5.52266 10.8316 5.00146 12.5018 5.00146C13.4962 5.00146 14.4044 5.42501 15.2263 6.27211" stroke="#333333" stroke-width="2" stroke-linecap="round" stroke-linejoin="round"/>
<path fill-rule="evenodd" clip-rule="evenodd" d="M20.5001 6.30631C20.7929 7.32451 20.3147 8.25476 18.8422 8.46541C17.3696 8.67606 16.2656 9.41651 15.4694 10.0394C14.6731 10.6623 13.2491 12.5522 12.968 13.5011C12.6869 14.4499 11.0801 13.5773 10.6485 13.1985C10.217 12.8196 9.79275 11.9902 10.6485 11.1228C11.5043 10.2553 11.3191 10.0822 11.3191 9.20251C11.3191 8.32286 16.0001 5.41306 18.6364 5.14696C19.2224 5.11276 20.2073 5.28806 20.5001 6.30631Z" stroke="#333333" stroke-width="2"/>
<path d="M11.5039 2V4.63134" stroke="#333333" stroke-width="2" stroke-linecap="round"/>
<path d="M10.1533 5.35908C8.64442 3.46285 7.42777 2.40452 6.50342 2.18408" stroke="#333333" stroke-width="2" stroke-linecap="round"/>
<path d="M8.50195 3.51465L8.9972 1.48096" stroke="#333333" stroke-width="2" stroke-linecap="round"/>
<path d="M17.8064 5.35889C17.6453 5.91114 17.6453 6.42894 17.8064 6.91224C17.9675 7.39559 18.3128 7.91339 18.8421 8.46559" stroke="#333333" stroke-width="2" stroke-linecap="round"/>
</g>
<defs>
<clipPath id="clip0_2_20260">
<rect width="24" height="24" fill="white"/>
</clipPath>
</defs>
</svg>
