<svg width="24" height="24" viewBox="0 0 24 24" fill="none" xmlns="http://www.w3.org/2000/svg">
<path d="M8.66665 2C6.66665 2 6 3.57821 6 5.525C6 9.05 9.9 12.2545 12 13C14.1 12.2545 18 9.05 18 5.525C18 3.57821 17.1559 2 15.3334 2C14.2173 2 12.5972 3.53855 12 4.44445C11.4028 3.53855 9.78275 2 8.66665 2Z" stroke="#333333" stroke-width="2" stroke-linecap="round" stroke-linejoin="round"/>
<path d="M12 13C11 13.5454 9.5 14.75 9.5 16.5C9.5 18.25 14.5 17.75 14.5 19.5C14.5 21.25 9 22 9 22" stroke="#333333" stroke-width="2" stroke-linecap="round" stroke-linejoin="round"/>
</svg>
