<svg width="24" height="24" viewBox="0 0 24 24" fill="none" xmlns="http://www.w3.org/2000/svg">
<path d="M14.1211 5.63622L5.63582 14.1215C5.24529 14.512 5.24529 15.1452 5.63582 15.5357L8.46425 18.3641C8.85477 18.7547 9.48793 18.7547 9.87846 18.3641L18.3637 9.87887C18.7543 9.48834 18.7543 8.85518 18.3637 8.46465L15.5353 5.63622C15.1448 5.2457 14.5116 5.2457 14.1211 5.63622Z" stroke="#333333" stroke-width="2" stroke-linejoin="round"/>
<path d="M3.51465 20.4853L7.0502 16.9497" stroke="#333333" stroke-width="2" stroke-linecap="round" stroke-linejoin="round"/>
<path d="M16.9502 7.05019L20.4857 3.51465" stroke="#333333" stroke-width="2" stroke-linecap="round" stroke-linejoin="round"/>
<path d="M7.4043 12.3535L11.6469 16.5962" stroke="#333333" stroke-width="2" stroke-linecap="round" stroke-linejoin="round"/>
<path d="M9.87891 9.87891L14.1216 14.1215" stroke="#333333" stroke-width="2" stroke-linecap="round" stroke-linejoin="round"/>
<path d="M12.3535 7.40381L16.5962 11.6465" stroke="#333333" stroke-width="2" stroke-linecap="round" stroke-linejoin="round"/>
<path d="M6.34375 13.4143L13.4148 6.34326" stroke="#333333" stroke-width="2" stroke-linecap="round" stroke-linejoin="round"/>
<path d="M10.5859 17.657L17.657 10.5859" stroke="#333333" stroke-width="2" stroke-linecap="round" stroke-linejoin="round"/>
</svg>
