<svg width="24" height="24" viewBox="0 0 24 24" fill="none" xmlns="http://www.w3.org/2000/svg">
<g clip-path="url(#clip0_2_20258)">
<path d="M24 0H0V24H24V0Z" fill="white" fill-opacity="0.01"/>
<path fill-rule="evenodd" clip-rule="evenodd" d="M11.1093 3.68945L16.9434 8.31104L18.0889 12.0001L12.6312 13.0428L6.29443 7.26584L7.64048 4.50098L11.1093 3.68945Z" stroke="#333333" stroke-width="2" stroke-linejoin="round"/>
<path d="M7.64038 4.50049L13.2431 9.30056" stroke="#333333" stroke-width="2" stroke-linecap="round"/>
<path d="M12.6312 13.0428L13.2432 9.06644L16.9433 8.31104" stroke="#333333" stroke-width="2" stroke-linecap="round" stroke-linejoin="round"/>
<path d="M12.4965 15.5114L13.6396 19.0516L7.8005 20.1893L2 14.507L3.28526 11.3127L6.01425 10.6768" stroke="#333333" stroke-width="2" stroke-linecap="round" stroke-linejoin="round"/>
<path d="M3.28528 11.3125L8.642 16.3789" stroke="#333333" stroke-width="2" stroke-linecap="round"/>
<path d="M7.80054 19.9326L8.74324 16.0664L12.4954 15.522" stroke="#333333" stroke-width="2" stroke-linecap="round" stroke-linejoin="round"/>
<path fill-rule="evenodd" clip-rule="evenodd" d="M17.4434 14.8039L17 18.4L21.618 17.4993L20.6406 14.0938L17.4434 14.8039Z" stroke="#333333" stroke-width="2" stroke-linejoin="round"/>
</g>
<defs>
<clipPath id="clip0_2_20258">
<rect width="24" height="24" fill="white"/>
</clipPath>
</defs>
</svg>
