<svg width="24" height="24" viewBox="0 0 24 24" fill="none" xmlns="http://www.w3.org/2000/svg">
<path d="M2 9.94255C2 6.1083 5.0526 3 8.8182 3C11.9667 3 14.6168 5.1731 15.4008 8.12665C16.0177 7.80795 16.7155 7.62835 17.4545 7.62835C19.9649 7.62835 22 9.70055 22 12.2568C22 14.0781 20.9669 15.6537 19.4647 16.4091C19.3396 16.472 19.2004 16.5 19.0603 16.5H7.5" stroke="#333333" stroke-width="2" stroke-linecap="round" stroke-linejoin="round"/>
<path d="M7.5 16.5H6C4.89543 16.5 4 17.3954 4 18.5C4 19.6046 4.89543 20.5 6 20.5H7.5" stroke="#333333" stroke-width="2" stroke-linecap="round" stroke-linejoin="round"/>
<path d="M11 9H9.5C8.39545 9 7.5 9.89545 7.5 11C7.5 12.1046 8.39545 13 9.5 13H11" stroke="#333333" stroke-width="2" stroke-linecap="round" stroke-linejoin="round"/>
<path d="M9.5 13H16" stroke="#333333" stroke-width="2" stroke-linecap="round" stroke-linejoin="round"/>
</svg>
