<svg width="24" height="24" viewBox="0 0 24 24" fill="none" xmlns="http://www.w3.org/2000/svg">
<path d="M19.5 3H4.5C3.67158 3 3 3.67158 3 4.5V19.5C3 20.3285 3.67158 21 4.5 21H19.5C20.3285 21 21 20.3285 21 19.5V4.5C21 3.67158 20.3285 3 19.5 3Z" stroke="#333333" stroke-width="2" stroke-linejoin="round"/>
<path d="M12 14.3125V12.3125C13.6568 12.3125 15 10.9694 15 9.3125C15 7.65565 13.6568 6.3125 12 6.3125C10.3432 6.3125 9 7.65565 9 9.3125" stroke="#333333" stroke-width="2" stroke-linecap="round" stroke-linejoin="round"/>
<path fill-rule="evenodd" clip-rule="evenodd" d="M12 18.8125C12.6904 18.8125 13.25 18.2529 13.25 17.5625C13.25 16.8722 12.6904 16.3125 12 16.3125C11.3097 16.3125 10.75 16.8722 10.75 17.5625C10.75 18.2529 11.3097 18.8125 12 18.8125Z" fill="#333333"/>
</svg>
