<svg width="24" height="24" viewBox="0 0 24 24" fill="none" xmlns="http://www.w3.org/2000/svg">
<path d="M18 2L15.115 15.705C15.015 16.17 14.61 16.5 14.135 16.5H4.5C3.67 16.5 3 17.17 3 18V18.775C3 20.515 4.475 21.89 6.215 21.765L14.745 21.155C16.08 21.06 17.19 20.09 17.465 18.78L21 2H18Z" stroke="#333333" stroke-width="2" stroke-miterlimit="2" stroke-linecap="round" stroke-linejoin="round"/>
<path d="M7.5 8C9.70915 8 11.5 7.32845 11.5 6.5C11.5 5.67155 9.70915 5 7.5 5C5.29085 5 3.5 5.67155 3.5 6.5C3.5 7.32845 5.29085 8 7.5 8Z" stroke="#333333" stroke-width="2" stroke-miterlimit="2" stroke-linecap="round" stroke-linejoin="round"/>
<path d="M11.5 6.5V9.5C11.5 10.33 9.71 11 7.5 11C5.29 11 3.5 10.33 3.5 9.5V6.5" stroke="#333333" stroke-width="2" stroke-miterlimit="2" stroke-linecap="round" stroke-linejoin="round"/>
</svg>
