<svg width="24" height="24" viewBox="0 0 24 24" fill="none" xmlns="http://www.w3.org/2000/svg">
<path d="M2.23047 6.42017L11.1177 4.53113C11.3771 4.47599 11.6478 4.52616 11.8703 4.67061L15.9197 7.30037C16.1421 7.44482 16.4128 7.49497 16.6723 7.43982L18.7125 7.00617C19.2527 6.89137 19.7837 7.23622 19.8985 7.77642L20.2104 9.24362C20.3252 9.78387 19.9804 10.3149 19.4402 10.4297L15.9327 11.1752C15.6733 11.2304 15.4026 11.1802 15.1802 11.0358L11.1307 8.40602C10.9083 8.26157 10.6376 8.21137 10.3782 8.26652L8.82703 8.59622" stroke="#333333" stroke-width="2" stroke-linecap="round"/>
<path d="M21.7696 16.5796L12.8823 18.4687C12.6229 18.5238 12.3522 18.4736 12.1298 18.3292L8.08032 15.6994C7.85787 15.555 7.58717 15.5048 7.32777 15.56L5.28757 15.9936C4.74735 16.1085 4.21633 15.7636 4.10151 15.2234L3.78964 13.7562C3.67481 13.216 4.01966 12.6849 4.55988 12.5701L8.06732 11.8246C8.32672 11.7694 8.59742 11.8196 8.81987 11.9641L12.8693 14.5938C13.0917 14.7383 13.3624 14.7884 13.6219 14.7333L15.173 14.4036" stroke="#333333" stroke-width="2" stroke-linecap="round"/>
</svg>
