<svg width="24" height="24" viewBox="0 0 24 24" fill="none" xmlns="http://www.w3.org/2000/svg">
<g clip-path="url(#clip0_2_20234)">
<path d="M24 0H0V24H24V0Z" fill="white" fill-opacity="0.01"/>
<path d="M7.30655 2.42113L4.96191 4.76575C4.31446 5.41319 4.31446 6.46294 4.96191 7.11039C5.60935 7.75784 6.6591 7.75784 7.30655 7.11039L9.65115 4.76575C10.2986 4.1183 10.2986 3.06858 9.65115 2.42113C9.0037 1.77368 7.95395 1.77369 7.30655 2.42113Z" stroke="#333333" stroke-width="2"/>
<path d="M12.3864 6.71996L9.26025 9.84611C8.6128 10.4936 8.6128 11.5433 9.26025 12.1907C9.9077 12.8382 10.9574 12.8382 11.6049 12.1907L14.731 9.06456C15.3785 8.41711 15.3785 7.36741 14.731 6.71996C14.0836 6.07251 13.0339 6.07251 12.3864 6.71996Z" stroke="#333333" stroke-width="2"/>
<path d="M14.3403 9.45508L21.2253 16.34C21.7392 16.8539 21.6309 17.7953 20.9834 18.4427C20.336 19.0902 19.3945 19.1985 18.8807 18.6847L11.9957 11.7997" stroke="#333333" stroke-width="2"/>
<path d="M11.2142 3.20287L5.7434 8.67367C5.09595 9.32112 5.09595 10.3708 5.7434 11.0183C6.39085 11.6657 7.4406 11.6657 8.08805 11.0183L13.5588 5.54747C14.2062 4.90004 14.2062 3.85032 13.5588 3.20287C12.9113 2.55542 11.8616 2.55542 11.2142 3.20287Z" stroke="#333333" stroke-width="2"/>
<path d="M6.9272 11.5713C7.639 13.7896 7.52045 15.4286 6.57165 16.4882C5.1484 18.0776 5.36975 22.0713 8.5852 22.0713C11.8006 22.0713 12.7451 18.0776 10.0212 16.6766" stroke="#333333" stroke-width="2" stroke-linecap="round"/>
</g>
<defs>
<clipPath id="clip0_2_20234">
<rect width="24" height="24" fill="white"/>
</clipPath>
</defs>
</svg>
