<svg width="24" height="24" viewBox="0 0 24 24" fill="none" xmlns="http://www.w3.org/2000/svg">
<path d="M5.5888 3.37344L3.15858 5.89218C2.7751 6.28962 2.78643 6.92269 3.18387 7.30616L3.54369 7.65334C3.94114 8.03682 4.5742 8.02549 4.95768 7.62805L7.3879 5.10931C7.77138 4.71186 7.76005 4.0788 7.36261 3.69532L7.00279 3.34815C6.60534 2.96467 5.97228 2.97599 5.5888 3.37344Z" stroke="#333333" stroke-width="2"/>
<path d="M12.7852 10.3168L10.355 12.8355C9.97151 13.233 9.98284 13.866 10.3803 14.2495L10.7401 14.5967C11.1375 14.9802 11.7706 14.9689 12.1541 14.5714L14.5843 12.0527C14.9678 11.6552 14.9565 11.0222 14.559 10.6387L14.1992 10.2915C13.8018 9.90803 13.1687 9.91935 12.7852 10.3168Z" stroke="#333333" stroke-width="2"/>
<path d="M8.42941 4.02995L3.91615 8.70761C3.53267 9.10505 3.544 9.73812 3.94144 10.1216L4.30126 10.4688C4.69871 10.8522 5.33177 10.8409 5.71525 10.4435L10.2285 5.76582C10.612 5.36838 10.6007 4.73531 10.2032 4.35184L9.8434 4.00466C9.44596 3.62118 8.81289 3.63251 8.42941 4.02995Z" stroke="#333333" stroke-width="2"/>
<path d="M12.0277 7.50163L7.51442 12.1793C7.13094 12.5767 7.14226 13.2098 7.53971 13.5933L7.89953 13.9404C8.29697 14.3239 8.93004 14.3126 9.31351 13.9152L13.8268 9.2375C14.2103 8.84006 14.1989 8.20699 13.8015 7.82352L13.4417 7.47634C13.0442 7.09286 12.4112 7.10419 12.0277 7.50163Z" stroke="#333333" stroke-width="2"/>
<path d="M11.6172 4.32669L4.32655 11.8829C3.94307 12.2803 3.9544 12.9134 4.35184 13.2969L4.71166 13.6441C5.10911 14.0275 5.74217 14.0162 6.12565 13.6188L13.4163 6.06256C13.7998 5.66511 13.7885 5.03205 13.391 4.64857L13.0312 4.3014C12.6337 3.91792 12.0007 3.92924 11.6172 4.32669Z" stroke="#333333" stroke-width="2"/>
<path d="M12.5012 14.2117L14.5843 12.0527L21.7876 19.0029L19.7045 21.1618L12.5012 14.2117Z" stroke="#333333" stroke-width="2" stroke-linecap="round" stroke-linejoin="round"/>
<path d="M10.5 20.125C10.5 21.1605 9.60455 22 8.5 22C7.39545 22 6.5 21.1605 6.5 20.125C6.5 19.0895 8.5 17 8.5 17C8.5 17 10.5 19.0895 10.5 20.125Z" stroke="#333333" stroke-width="2" stroke-linejoin="round"/>
</svg>
