<svg width="24" height="24" viewBox="0 0 24 24" fill="none" xmlns="http://www.w3.org/2000/svg">
<path d="M19.5 9.17575C19.5 13.9272 15.5 18 12 18C8.5 18 4.5 13.9272 4.5 9.17575C4.5 5.32685 7.44645 2 12 2C16.5535 2 19.5 5.32685 19.5 9.17575Z" stroke="#333333" stroke-width="2" stroke-linecap="round" stroke-linejoin="round"/>
<path d="M12.5 2C14.35 3.90927 16 7.05985 16 10C16 12.9034 14.31 16.096 12.5 18" stroke="#333333" stroke-width="2" stroke-miterlimit="2" stroke-linecap="round" stroke-linejoin="round"/>
<path d="M11.5 2C9.34165 4.04363 8 6.8529 8 10C8 13.1077 9.38835 15.962 11.5 18" stroke="#333333" stroke-width="2" stroke-miterlimit="2" stroke-linecap="round" stroke-linejoin="round"/>
<path d="M10.9998 8.00885C10.9998 8.00885 13.5328 8.5177 15.5001 8.00885C17.4674 7.5 18.9998 6.5 18.9998 6.5" stroke="#333333" stroke-width="2" stroke-linecap="round" stroke-linejoin="round"/>
<path d="M4.50024 10C4.50024 10 7.00021 11.25 9.00001 11.75C10.9998 12.25 12.9998 12 12.9998 12" stroke="#333333" stroke-width="2" stroke-linecap="round" stroke-linejoin="round"/>
<path d="M15 17.5L14.9971 17.5149L15 17.5ZM14.9971 17.5149L14.3 21.0476C14.3 21.0476 12.9375 22 12 22C11.0625 22 9.7 21.0476 9.7 21.0476L9 17.5L12 18L14.9971 17.5149Z" stroke="#333333" stroke-width="2" stroke-linecap="round" stroke-linejoin="round"/>
</svg>
