<svg width="24" height="24" viewBox="0 0 24 24" fill="none" xmlns="http://www.w3.org/2000/svg">
<path d="M17.6963 8.01973C16.0545 7.67148 14.9102 6.22868 14.8853 4.56201H12.348V14.7859C12.2983 15.955 11.3281 16.8754 10.159 16.8506C8.98984 16.8257 8.06944 15.8555 8.06944 14.6864C8.09434 13.5172 9.03959 12.572 10.2087 12.572C10.4326 12.572 10.6316 12.5968 10.8306 12.6715V10.0595C10.6316 10.0346 10.4077 10.0346 10.2087 10.0346H10.1092C7.52219 10.1093 5.48239 12.2237 5.53214 14.8108C5.58189 17.3978 7.69629 19.4376 10.2834 19.4128C12.8704 19.3879 14.9351 17.2735 14.9351 14.7113V9.51228C15.9799 10.2585 17.1988 10.6565 18.4923 10.6565V8.09433C18.1938 8.09433 17.9451 8.06948 17.6963 8.01973Z" fill="#333333"/>
<path d="M16.9751 22H7.0249C4.23881 22 2 19.7363 2 16.9751V7.0249C2 4.23881 4.23881 2 7.0249 2H16.9751C19.7363 2 22 4.23881 22 7.0249V16.9751C22 19.7363 19.7363 22 16.9751 22ZM7.04975 2.22388C4.38806 2.22388 2.22388 4.38806 2.22388 7.04975V16.9254C2.22388 19.587 4.38806 21.7512 7.04975 21.7512H16.9254C19.587 21.7512 21.7512 19.587 21.7512 16.9254V7.04975C21.7512 4.38806 19.587 2.22388 16.9254 2.22388H7.04975Z" fill="#333333"/>
<path d="M18.0693 17.8708C18.0693 17.8211 18.0693 17.7216 18.0693 17.6469C18.0693 17.6221 18.0942 17.6221 18.0942 17.6221C18.1191 17.6221 18.3927 17.8708 18.3927 17.8708" fill="#333333"/>
<path d="M10.2094 16.6021C11.2293 16.6021 12.0502 15.8061 12.0999 14.7862V13.9902C11.6273 13.7912 11.1547 13.617 10.6572 13.4927C10.6074 13.4678 10.5577 13.4678 10.5079 13.4678C10.5079 13.5175 10.5079 13.5673 10.5079 13.617C10.5079 14.7364 10.1845 15.6568 9.66211 16.5026C9.81136 16.5524 9.98551 16.5772 10.1596 16.5772C10.1596 16.6021 10.1845 16.6021 10.2094 16.6021Z" fill="#333333"/>
<path d="M18.2692 17.7709C18.2443 17.7461 18.1697 17.7212 18.1448 17.7461C18.095 17.7709 18.0702 17.7958 18.0702 17.8456C18.0453 18.6416 17.8463 19.4127 17.5478 20.1093C17.5726 20.0346 17.4234 19.7361 17.3986 19.6615C17.3488 19.5122 17.299 19.363 17.2244 19.2137C17.1 18.9152 16.9757 18.6416 16.8264 18.3431C16.5279 17.7958 16.1796 17.2486 15.8065 16.7759C15.5578 16.4525 15.2841 16.1789 14.9856 15.9053C14.4384 18.0197 12.5478 19.6117 10.2592 19.6366H10.2094C9.21445 19.6366 8.29405 19.3381 7.5229 18.8406C7.3488 18.9898 7.14975 19.1391 6.97565 19.2884C6.55275 18.8406 6.2045 18.3431 5.906 17.7958C5.8811 17.7461 5.85625 17.6963 5.85625 17.6466C5.8065 17.6963 5.75675 17.7212 5.707 17.7709C4.81146 18.567 4.04032 19.4625 3.39355 20.4078C3.4433 20.4575 3.51793 20.5321 3.56768 20.5819C3.59256 20.557 3.61743 20.5073 3.64231 20.4824L4.2642 21.0296L4.66221 21.2038C4.61246 21.2287 4.58758 21.2784 4.53783 21.3033C4.61246 21.353 4.68708 21.3779 4.76171 21.4277C4.81146 21.3779 4.86121 21.353 4.91096 21.3033L5.83135 21.7262L8.09505 21.8754H15.5826C15.5826 21.9003 15.5826 21.9252 15.5577 21.95H16.5777C16.6025 21.9252 16.6274 21.9003 16.6523 21.8754C16.6523 21.8505 16.6772 21.8505 16.6772 21.8257L18.0453 21.7013L19.4135 21.1292L20.3339 20.4326C20.3588 20.4824 20.3836 20.5073 20.4085 20.557C20.4583 20.5073 20.5329 20.4326 20.5826 20.3829C19.9359 19.4625 19.1647 18.567 18.2692 17.7709Z" fill="#333333"/>
<path d="M10.259 19.3883C12.4729 19.3635 14.3386 17.7963 14.7863 15.7067C14.2142 15.2092 13.5923 14.7615 12.9207 14.3883C12.7217 14.2888 12.5226 14.1893 12.3236 14.0898V14.7615C12.2739 15.9057 11.3286 16.8261 10.1843 16.8261C10.1595 16.8261 10.1595 16.8261 10.1346 16.8261C9.91073 16.8261 9.71173 16.7764 9.51268 16.7018C9.04008 17.3983 8.41818 18.045 7.72168 18.6421C8.44303 19.0898 9.28883 19.3635 10.2092 19.3635C10.2092 19.3883 10.2341 19.3883 10.259 19.3883ZM9.16443 17.5973C9.13958 17.5973 9.16443 17.5973 9.16443 17.5973V17.5973Z" fill="#333333"/>
</svg>
