<svg width="24" height="24" viewBox="0 0 24 24" fill="none" xmlns="http://www.w3.org/2000/svg">
<path d="M7.6698 11.25L10.5 18.5L12 21.5L13.5 18.5L16.3301 11.25" stroke="#333333" stroke-width="2" stroke-linecap="round" stroke-linejoin="round"/>
<path d="M9.5 16H14.5" stroke="#333333" stroke-width="2" stroke-linecap="round"/>
<path d="M12 1.5C9 1.5 8 4.5 8 4.5C8 4.5 5 5.5 5 8C5 10.5 7.5 11.5 7.5 11.5C7.5 11.5 9.25 10.5 12 10.5C14.75 10.5 16.5 11.5 16.5 11.5C16.5 11.5 19 10.5 19 8C19 5.5 16 4.5 16 4.5C16 4.5 15 1.5 12 1.5Z" stroke="#333333" stroke-width="2" stroke-linecap="round" stroke-linejoin="round"/>
</svg>
