<svg width="24" height="24" viewBox="0 0 24 24" fill="none" xmlns="http://www.w3.org/2000/svg">
<path d="M9.4214 6.86133L16.1389 13.5788L5.83965 20.2501L2.81677 17.2273L9.4214 6.86133Z" stroke="#333333" stroke-width="2" stroke-linecap="round" stroke-linejoin="round"/>
<path d="M19.3864 9.75519C18.8561 10.2855 18.5066 10.2896 17.9804 10.4705C17.9641 11.8684 17.9835 13.2751 16.2096 13.6225L9.30164 6.71454C9.30164 6.71454 9.29699 6.02974 9.99969 5.67174C10.2471 5.55579 10.7489 5.61064 11.0479 5.65929C11.751 4.14685 12.8157 3.89154 13.9994 4.38052C14.5671 3.52168 15.9691 3.15593 17.0135 3.49318C18.0578 3.83042 18.0497 4.52934 18.7445 4.87067C19.4394 5.21199 20.1465 4.50488 20.1506 4.15541C20.1547 3.80593 20.0934 3.13742 20.5645 3.25864C20.8521 3.33626 21.0835 3.61614 21.3623 4.78066C21.5179 5.43434 21.4274 6.40134 20.8689 6.99499C20.5261 7.35929 19.7605 7.54974 19.4109 7.65834C19.4442 7.75359 19.9168 9.22489 19.3864 9.75519Z" stroke="#333333" stroke-width="2" stroke-linecap="round" stroke-linejoin="round"/>
<path d="M19.4108 7.6582C18.0047 8.37345 16.9604 8.0362 15.9242 7" stroke="#333333" stroke-width="2" stroke-linecap="round" stroke-linejoin="round"/>
</svg>
