<svg width="24" height="24" viewBox="0 0 24 24" fill="none" xmlns="http://www.w3.org/2000/svg">
<path d="M7 7C7 4.23857 9.2386 2 12 2C14.7614 2 17 4.23857 17 7V15.8654C17 15.9398 16.9398 16 16.8654 16H7.1346C7.06025 16 7 15.9398 7 15.8654V7Z" stroke="#333333" stroke-width="2"/>
<path d="M10.5 16V20.5C10.5 21.3285 11.1715 22 12 22C12.8285 22 13.5 21.3285 13.5 20.5V16" stroke="#333333" stroke-width="2" stroke-linecap="round" stroke-linejoin="round"/>
<path d="M7 8.00037C8.3807 9.38107 10.6193 9.38107 12 8.00037C13.3807 6.61967 15.6193 6.61967 17 8.00037" stroke="#333333" stroke-width="2" stroke-linecap="round" stroke-linejoin="round"/>
</svg>
