<svg width="24" height="24" viewBox="0 0 24 24" fill="none" xmlns="http://www.w3.org/2000/svg">
<g clip-path="url(#clip0_2_20195)">
<path d="M24 0H0V24H24V0Z" fill="white" fill-opacity="0.01"/>
<path d="M12 4.5C12 3.11929 10.8807 2 9.5 2C8.1193 2 7 3.11929 7 4.5V9.5C7 10.8807 8.1193 12 9.5 12C10.8807 12 12 10.8807 12 9.5V4.5Z" stroke="#333333" stroke-width="2"/>
<path d="M21 4.5C21 3.11929 19.8807 2 18.5 2C17.1193 2 16 3.11929 16 4.5V9.5C16 10.8807 17.1193 12 18.5 12C19.8807 12 21 10.8807 21 9.5V4.5Z" stroke="#333333" stroke-width="2"/>
<path d="M18 16L21 19L18 22" stroke="#333333" stroke-width="2" stroke-linecap="round" stroke-linejoin="round"/>
<path d="M3 12H3.5" stroke="#333333" stroke-width="2" stroke-linecap="round"/>
<path d="M21 19H9.5" stroke="#333333" stroke-width="2" stroke-linecap="round" stroke-linejoin="round"/>
</g>
<defs>
<clipPath id="clip0_2_20195">
<rect width="24" height="24" fill="white"/>
</clipPath>
</defs>
</svg>
