<svg width="24" height="24" viewBox="0 0 24 24" fill="none" xmlns="http://www.w3.org/2000/svg">
<g clip-path="url(#clip0_2_21618)">
<path d="M24 0H0V24H24V0Z" fill="white" fill-opacity="0.01"/>
<path d="M6.2829 13.0915C5.42765 13.6774 5 14.647 5 16.0003C5 18.0304 7.48765 21.5003 9.7309 21.5003C11.9741 21.5003 13.2751 21.5003 15.4707 21.5003C17.6664 21.5003 19 19.575 19 18.0304C19 15.8552 19 13.68 19 11.5049C19 10.6765 18.3285 10.0049 17.5 10.0049H17.4954C16.6695 10.0049 16 10.6744 16 11.5003" stroke="#333333" stroke-width="2" stroke-linecap="round"/>
<path d="M6.9906 14.2223V4.00269C6.9906 3.17493 7.66165 2.50391 8.4894 2.50391C8.49075 2.50391 8.49215 2.50391 8.49355 2.50391C9.32425 2.50621 9.99645 3.18028 9.99645 4.011V11.7957" stroke="#333333" stroke-width="2" stroke-linecap="round"/>
<path d="M9.99646 11.5042V9.50775C9.99646 8.67505 10.6715 8 11.5042 8C12.3369 8 13.012 8.67505 13.012 9.50775V11.5042" stroke="#333333" stroke-width="2" stroke-linecap="round" stroke-linejoin="round"/>
<path d="M13 11.3581V10.002C13 9.1735 13.6715 8.50195 14.5 8.50195C15.3285 8.50195 16 9.1735 16 10.002V11.502" stroke="#333333" stroke-width="2" stroke-linecap="round" stroke-linejoin="round"/>
</g>
<defs>
<clipPath id="clip0_2_21618">
<rect width="24" height="24" fill="white"/>
</clipPath>
</defs>
</svg>
