<svg width="24" height="24" viewBox="0 0 24 24" fill="none" xmlns="http://www.w3.org/2000/svg">
<path fill-rule="evenodd" clip-rule="evenodd" d="M12 22C14.7615 22 17.2615 20.8807 19.0711 19.0711C20.8807 17.2615 22 14.7615 22 12C22 9.2386 20.8807 6.7386 19.0711 4.92894C17.2615 3.11929 14.7615 2 12 2C9.2386 2 6.7386 3.11929 4.92894 4.92894C3.11929 6.7386 2 9.2386 2 12C2 14.7615 3.11929 17.2615 4.92894 19.0711C6.7386 20.8807 9.2386 22 12 22Z" stroke="#333333" stroke-width="2" stroke-linecap="round"/>
<path d="M19 12C19 10.067 18.2165 8.317 16.9498 7.05025C15.683 5.7835 13.933 5 12 5" stroke="#333333" stroke-width="2" stroke-linecap="round"/>
</svg>
