<svg width="24" height="24" viewBox="0 0 24 24" fill="none" xmlns="http://www.w3.org/2000/svg">
<g clip-path="url(#clip0_2_21221)">
<path d="M24 0H0V24H24V0Z" fill="white" fill-opacity="0.01"/>
<path d="M12 22C17.5229 22 22 17.5228 22 12C22 6.47713 17.5229 2 12 2C6.47715 2 2 6.47713 2 12C2 17.5228 6.47715 22 12 22Z" stroke="#333333" stroke-width="2"/>
<path d="M3 15.4924C4.31596 16.0201 5.2633 16.0201 5.84195 15.4924C6.70995 14.7009 5.96095 12.2985 7.1766 11.636C8.3922 10.9734 10.2443 13.9103 11.9754 12.944C13.7064 11.9776 11.8123 9.40078 13.0136 8.35613C14.2149 7.31148 15.777 8.48963 16.0501 6.74288C16.3231 4.99615 14.7761 5.75373 14.4792 4.1031C14.2813 3.00269 14.2813 2.42405 14.4792 2.36719" stroke="#333333" stroke-width="2" stroke-linecap="round"/>
<path d="M14.5105 21.6756C13.5734 20.7166 13.2361 19.8252 13.4985 19.0013C13.8921 17.7655 14.5413 17.8386 14.8244 17.0745C15.1075 16.3103 14.3078 15.222 16.0822 14.2917C17.2651 13.6714 18.8915 14.3901 20.9614 16.4476" stroke="#333333" stroke-width="2" stroke-linecap="round"/>
</g>
<defs>
<clipPath id="clip0_2_21221">
<rect width="24" height="24" fill="white"/>
</clipPath>
</defs>
</svg>
