<svg width="24" height="24" viewBox="0 0 24 24" fill="none" xmlns="http://www.w3.org/2000/svg">
<path d="M4 22V2H15.5L20 7.25V22H4Z" stroke="#333333" stroke-width="2" stroke-linecap="round" stroke-linejoin="round"/>
<path d="M17 12.5C17 15.2614 14.7614 17.5 12 17.5C9.2386 17.5 7 15.2614 7 12.5C7 9.7386 9.2386 7.5 12 7.5C13.3291 7.5 14.5371 8.0186 15.4326 8.8645C16.3977 9.77605 17 11.0677 17 12.5Z" stroke="#333333" stroke-width="2" stroke-linecap="round" stroke-linejoin="round"/>
<path d="M8.5 9L15.5 16" stroke="#333333" stroke-width="2" stroke-linecap="round" stroke-linejoin="round"/>
<path d="M17 12.5C17 15.2614 14.7614 17.5 12 17.5" stroke="#333333" stroke-width="2" stroke-linecap="round" stroke-linejoin="round"/>
<path d="M7 12.5C7 9.7386 9.2386 7.5 12 7.5" stroke="#333333" stroke-width="2" stroke-linecap="round" stroke-linejoin="round"/>
</svg>
