<svg width="24" height="24" viewBox="0 0 24 24" fill="none" xmlns="http://www.w3.org/2000/svg">
<path d="M2 9.1565V3.5H22V9.1565C20.9408 9.534 20.1818 10.5526 20.1818 11.75C20.1818 12.9474 20.9408 13.966 22 14.3435V20H2V14.3435C3.05927 13.966 3.81818 12.9474 3.81818 11.75C3.81818 10.5526 3.05927 9.534 2 9.1565Z" stroke="#333333" stroke-width="2" stroke-linejoin="round"/>
<path d="M6.5 9V14.5" stroke="#333333" stroke-width="2" stroke-linecap="round" stroke-linejoin="round"/>
<path d="M9 9V14.5" stroke="#333333" stroke-width="2" stroke-linecap="round" stroke-linejoin="round"/>
<path d="M9 9H10.5C11.3285 9 12 9.67155 12 10.5C12 11.3285 11.3285 12 10.5 12H9V9Z" stroke="#333333" stroke-width="2" stroke-linejoin="round"/>
<path d="M16 14.5C16.8284 14.5 17.5 13.3807 17.5 12C17.5 10.6193 16.8284 9.5 16 9.5C15.1716 9.5 14.5 10.6193 14.5 12C14.5 13.3807 15.1716 14.5 16 14.5Z" stroke="#333333" stroke-width="2" stroke-linejoin="round"/>
</svg>
