<svg width="24" height="24" viewBox="0 0 24 24" fill="none" xmlns="http://www.w3.org/2000/svg">
<path d="M12 22C17.5228 22 22 17.5228 22 12C22 6.47715 17.5228 2 12 2C6.47715 2 2 6.47715 2 12C2 17.5228 6.47715 22 12 22Z" stroke="#333333" stroke-width="2"/>
<path d="M10 12C10 8.8182 11.3138 7.67675 12 7.5C12.61 7.5884 14 8.60605 14 12C14 15.3939 12.61 16.5 12 16.5C11.3138 16.4116 10 15.1818 10 12Z" stroke="#333333" stroke-width="2"/>
<path d="M9.99974 11.4999C9.22319 10.7312 6.80894 10.9199 6.00009 10.9999C5.75744 11.8808 6.17604 13.7461 7.14669 14.7071C8.35999 15.9083 9.33044 16.4999 11.9997 16.4999" stroke="#333333" stroke-width="2"/>
<path d="M14 11.5002C14.7179 10.7337 16.7522 10.9204 17.5 11.0002C17.6496 11.7987 17.5701 13.5942 16.3138 14.9356C15.0575 16.2771 12.75 16.5002 12 16.5002" stroke="#333333" stroke-width="2"/>
</svg>
