<svg width="24" height="24" viewBox="0 0 24 24" fill="none" xmlns="http://www.w3.org/2000/svg">
<path d="M18.4415 22H5.55635C3.596 22 2 20.404 2 18.4415V5.55635C2 3.596 3.596 2 5.55635 2H18.4415C20.4018 2 21.9979 3.596 21.9979 5.55635V18.4415C22 20.404 20.404 22 18.4415 22ZM5.55635 2.15129C3.6791 2.15129 2.15129 3.6791 2.15129 5.55635V18.4415C2.15129 20.3209 3.67909 21.8487 5.5585 21.8487H18.4436C20.323 21.8487 21.8508 20.3209 21.8508 18.4415V5.55635C21.8508 3.67697 20.323 2.14916 18.4436 2.14916H5.55635V2.15129Z" fill="#333333"/>
<path d="M22 17.3977L2 18.4439V6.60289L22 5.55664V17.3977Z" fill="#333333"/>
<path d="M9.58545 7.95996L8.35595 8.02391C8.32395 10.4701 8.2899 11.8466 7.8488 12.8332C7.4013 13.8326 6.4467 14.6615 4.54387 16.3107C4.46503 16.3789 4.38406 16.4492 4.29883 16.5217L6.23575 16.4194C9.3915 13.6365 9.51725 13.0314 9.58545 7.95996Z" fill="#333333"/>
<path d="M7.45085 9.94383V8.73353L4.71484 8.48633V9.69453L7.45085 9.94383Z" fill="#333333"/>
<path d="M4.71484 10.5322V11.7425L7.45085 11.9919V10.7815L4.71484 10.5322Z" fill="#333333"/>
<path d="M11.7231 13.6901L4.00098 14.0928V13.0103L11.7231 12.6055V13.6901Z" fill="#333333"/>
<path d="M19.9909 13.2575L12.2666 13.6623V12.5777L19.9909 12.1729V13.2575Z" fill="#333333"/>
<path d="M19.5626 8.79358L13.9414 9.08763V8.00303L19.5626 7.70898V8.79358Z" fill="#333333"/>
<path d="M10.5301 14.2949L9.04492 14.3717L10.2382 16.2127L11.7234 16.136L10.5301 14.2949Z" fill="#333333"/>
<path d="M18.8063 13.8623L17.3232 13.939L18.5165 15.7801L19.9995 15.7033L18.8063 13.8623Z" fill="#333333"/>
<path d="M14.949 14.0625L13.4638 14.1413L12.2705 16.1059L13.7557 16.0292L14.949 14.0625Z" fill="#333333"/>
<path d="M16.7506 15.872L15.4912 15.9381V11.7915L16.7506 11.7275V15.872Z" fill="#333333"/>
<path d="M18.429 7.76863V8.52933C17.713 9.14303 16.2662 10.185 12.2666 11.065V12.2221C17.1249 11.178 18.7827 9.70768 19.5605 8.97043V7.70898L18.429 7.76863Z" fill="#333333"/>
<path d="M13.6811 8.69722C13.6278 8.66097 13.5767 8.62477 13.5277 8.59277L12.4814 9.27677C12.4814 9.27677 12.9481 9.61557 12.9992 9.64967C13.8537 10.2378 15.4156 11.3117 19.9905 11.8189V10.6618C15.8353 10.1803 14.4482 9.22352 13.6811 8.69722Z" fill="#333333"/>
<path d="M12.4814 9.27711L13.5404 9.91421L14.8125 7.95811L13.6491 7.47656L12.4814 9.27711Z" fill="#333333"/>
</svg>
