<svg width="24" height="24" viewBox="0 0 24 24" fill="none" xmlns="http://www.w3.org/2000/svg">
<g clip-path="url(#clip0_2_20151)">
<path d="M24 0H0V24H24V0Z" fill="white" fill-opacity="0.01"/>
<path d="M24 0H0V24H24V0Z" fill="white" fill-opacity="0.01"/>
<path d="M11.4341 12.1494C12.7052 13.397 13.2069 15.2265 12.7485 16.9434C12.2902 18.6603 10.9422 20.0012 9.21625 20.4571C7.4903 20.913 5.6511 20.414 4.39687 19.1496C2.51104 17.2073 2.53801 14.12 4.45749 12.2106C6.377 10.3012 9.48065 10.2744 11.4332 12.1503L11.4341 12.1494Z" stroke="#333333" stroke-width="2" stroke-linejoin="round"/>
<path d="M11.5 12L20 3.5" stroke="#333333" stroke-width="2" stroke-linecap="round" stroke-linejoin="round"/>
<path d="M15.1527 8.4498L17.867 11.1498L21.0337 7.9998L18.3194 5.2998L15.1527 8.4498Z" stroke="#333333" stroke-width="2" stroke-linejoin="round"/>
</g>
<defs>
<clipPath id="clip0_2_20151">
<rect width="24" height="24" fill="white"/>
</clipPath>
</defs>
</svg>
