<svg width="24" height="24" viewBox="0 0 24 24" fill="none" xmlns="http://www.w3.org/2000/svg">
<g clip-path="url(#clip0_2_21447)">
<path d="M24 0H0V24H24V0Z" fill="white" fill-opacity="0.01"/>
<path d="M24 0H0V24H24V0Z" fill="white" fill-opacity="0.01"/>
<path d="M12 22C17.5229 22 22 17.5229 22 12C22 6.47715 17.5229 2 12 2C6.47715 2 2 6.47715 2 12C2 17.5229 6.47715 22 12 22Z" stroke="#333333" stroke-width="2" stroke-linejoin="round"/>
<path fill-rule="evenodd" clip-rule="evenodd" d="M7.5 9.5C8.19035 9.5 8.75 8.94035 8.75 8.25C8.75 7.55965 8.19035 7 7.5 7C6.80965 7 6.25 7.55965 6.25 8.25C6.25 8.94035 6.80965 9.5 7.5 9.5Z" fill="#333333"/>
<path fill-rule="evenodd" clip-rule="evenodd" d="M7.5 13.5C8.19035 13.5 8.75 12.9404 8.75 12.25C8.75 11.5597 8.19035 11 7.5 11C6.80965 11 6.25 11.5597 6.25 12.25C6.25 12.9404 6.80965 13.5 7.5 13.5Z" fill="#333333"/>
<path fill-rule="evenodd" clip-rule="evenodd" d="M12 9.5C12.6904 9.5 13.25 8.94035 13.25 8.25C13.25 7.55965 12.6904 7 12 7C11.3097 7 10.75 7.55965 10.75 8.25C10.75 8.94035 11.3097 9.5 12 9.5Z" fill="#333333"/>
<path fill-rule="evenodd" clip-rule="evenodd" d="M12 13.5C12.6904 13.5 13.25 12.9404 13.25 12.25C13.25 11.5597 12.6904 11 12 11C11.3097 11 10.75 11.5597 10.75 12.25C10.75 12.9404 11.3097 13.5 12 13.5Z" fill="#333333"/>
<path fill-rule="evenodd" clip-rule="evenodd" d="M16.5 9.5C17.1904 9.5 17.75 8.94035 17.75 8.25C17.75 7.55965 17.1904 7 16.5 7C15.8097 7 15.25 7.55965 15.25 8.25C15.25 8.94035 15.8097 9.5 16.5 9.5Z" fill="#333333"/>
<path fill-rule="evenodd" clip-rule="evenodd" d="M16.5 13.5C17.1904 13.5 17.75 12.9404 17.75 12.25C17.75 11.5597 17.1904 11 16.5 11C15.8097 11 15.25 11.5597 15.25 12.25C15.25 12.9404 15.8097 13.5 16.5 13.5Z" fill="#333333"/>
<path d="M8.5 16.5H15.5" stroke="#333333" stroke-width="2" stroke-linecap="round" stroke-linejoin="round"/>
</g>
<defs>
<clipPath id="clip0_2_21447">
<rect width="24" height="24" fill="white"/>
</clipPath>
</defs>
</svg>
