<svg width="24" height="24" viewBox="0 0 24 24" fill="none" xmlns="http://www.w3.org/2000/svg">
<g clip-path="url(#clip0_2_21764)">
<path d="M24 0H0V24H24V0Z" fill="white" fill-opacity="0.01"/>
<path fill-rule="evenodd" clip-rule="evenodd" d="M12 22C17.5229 22 22 17.5229 22 12C22 6.47715 17.5229 2 12 2C6.47715 2 2 6.47715 2 12C2 17.5229 6.47715 22 12 22Z" stroke="#333333" stroke-width="2" stroke-linecap="round" stroke-linejoin="round"/>
<path d="M12 7.5C10.6193 7.5 9.5 8.6193 9.5 10C9.5 10.8179 9.8928 11.5441 10.5 12.0002L10 16H14L13.5002 12C14.1073 11.5439 14.5 10.8178 14.5 10C14.5 8.6193 13.3807 7.5 12 7.5Z" stroke="#333333" stroke-width="2" stroke-linecap="round" stroke-linejoin="round"/>
</g>
<defs>
<clipPath id="clip0_2_21764">
<rect width="24" height="24" fill="white"/>
</clipPath>
</defs>
</svg>
