<svg width="24" height="24" viewBox="0 0 24 24" fill="none" xmlns="http://www.w3.org/2000/svg">
<path d="M7 15C7 15 7 17 7 20C7 23 11 23 11 20C11 17 11 15 11 15" stroke="#333333" stroke-width="2" stroke-linecap="round" stroke-linejoin="round"/>
<path d="M11 18.5H7" stroke="#333333" stroke-width="2" stroke-linecap="round" stroke-linejoin="round"/>
<path d="M7 3C7 2.44771 7.4477 2 8 2H16.3174C16.4768 2 16.6336 2.03743 16.7614 2.13273C17.2709 2.5127 18.5989 3.79085 19 7C19.3864 10.0911 18.3156 13.1822 17.8091 14.4274C17.6647 14.7823 17.3167 15 16.9336 15H7V3Z" stroke="#333333" stroke-width="2"/>
<path d="M11 6C11.5523 6 12 5.55228 12 5C12 4.44772 11.5523 4 11 4C10.4477 4 10 4.44772 10 5C10 5.55228 10.4477 6 11 6Z" fill="#333333"/>
</svg>
