<svg width="24" height="24" viewBox="0 0 24 24" fill="none" xmlns="http://www.w3.org/2000/svg">
<path d="M7 4.75C7 3.7835 7.7835 3 8.75 3C9.7165 3 10.5 3.7835 10.5 4.75V10.5H7V4.75Z" stroke="#333333" stroke-width="2"/>
<path d="M13.5 4.75C13.5 3.7835 14.2835 3 15.25 3C16.2165 3 17 3.7835 17 4.75V10.5H13.5V4.75Z" stroke="#333333" stroke-width="2"/>
<path d="M15 17H9V21H15V17Z" stroke="#333333" stroke-width="2" stroke-linecap="round" stroke-linejoin="round"/>
<path d="M5 11C5 10.7239 5.22385 10.5 5.5 10.5H18.5C18.7761 10.5 19 10.7239 19 11V13C19 15.2092 17.2092 17 15 17H9C6.79085 17 5 15.2092 5 13V11Z" stroke="#333333" stroke-width="2"/>
</svg>
