<svg width="24" height="24" viewBox="0 0 24 24" fill="none" xmlns="http://www.w3.org/2000/svg">
<path d="M7 14C8.5 14 13.25 14.75 13.25 16.5C13.25 18.25 10.697 17.8693 9.5 18C8.4637 18 6 18 6 19.5C6 21.5 16.2723 22 18.25 22" stroke="#333333" stroke-width="2" stroke-linecap="round" stroke-linejoin="round"/>
<path d="M15.5 7.5C15.5 5.36665 13.3649 2 10.4025 2C7.4402 2 5.1665 6 4.27256 9.73335C3.3786 13.4666 3.50631 18 3.50631 18" stroke="#333333" stroke-width="2" stroke-linecap="round" stroke-linejoin="round"/>
<path d="M13 12C13 10.75 13.7 8.5 16 8.5C18 8.5 19.1 10.5212 19.5 12.25C19.9 13.9788 20 16.5 20 16.5" stroke="#333333" stroke-width="2" stroke-linecap="round" stroke-linejoin="round"/>
</svg>
