<svg width="24" height="24" viewBox="0 0 24 24" fill="none" xmlns="http://www.w3.org/2000/svg">
<g clip-path="url(#clip0_2_20816)">
<path d="M24 0H0V24H24V0Z" fill="white" fill-opacity="0.01"/>
<path fill-rule="evenodd" clip-rule="evenodd" d="M20.5361 2.99707L1.65564 8.25938L6.19309 12.9063L10.4002 12.9797L15.2416 8.25938C15.1136 7.99718 15.0495 7.77763 15.0495 7.60068C15.0495 7.20373 15.2054 6.88933 15.4476 6.66653C15.8623 6.28503 16.3613 6.22793 16.9447 6.49528L20.5361 2.99707Z" fill="#333333"/>
<path fill-rule="evenodd" clip-rule="evenodd" d="M21.0514 3.36426L15.7891 22.2447L11.1422 17.7073L11.0687 13.5002L15.7561 8.74086C16.0101 8.92276 16.2875 9.00531 16.5883 8.98846C17.0395 8.96321 17.331 8.69071 17.4678 8.53016C17.6045 8.36966 17.765 8.10261 17.7516 7.70571C17.7427 7.44111 17.6558 7.19706 17.491 6.97366L21.0514 3.36426Z" fill="#333333"/>
</g>
<defs>
<clipPath id="clip0_2_20816">
<rect width="24" height="24" fill="white"/>
</clipPath>
</defs>
</svg>
