<svg width="24" height="24" viewBox="0 0 24 24" fill="none" xmlns="http://www.w3.org/2000/svg">
<path d="M5 7V10M7 5C7 6.10455 6.10455 7 5 7L7 5ZM7 5C7 3.89543 6.10455 3 5 3C3.89543 3 3 3.89543 3 5C3 6.10455 3.89543 7 5 7L7 5ZM7 5H10H7Z" stroke="#333333" stroke-width="2" stroke-linecap="round" stroke-linejoin="round"/>
<path d="M5 17V14M7 19C7 17.8954 6.10455 17 5 17L7 19ZM7 19C7 20.1046 6.10455 21 5 21C3.89543 21 3 20.1046 3 19C3 17.8954 3.89543 17 5 17L7 19ZM7 19H10H7Z" stroke="#333333" stroke-width="2" stroke-linecap="round" stroke-linejoin="round"/>
<path d="M19 17V14M17 19C17 17.8954 17.8954 17 19 17L17 19ZM17 19C17 20.1046 17.8954 21 19 21C20.1046 21 21 20.1046 21 19C21 17.8954 20.1046 17 19 17L17 19ZM17 19H14H17Z" stroke="#333333" stroke-width="2" stroke-linecap="round" stroke-linejoin="round"/>
<path d="M19 7V10M17 5C17 6.10455 17.8954 7 19 7L17 5ZM17 5C17 3.89543 17.8954 3 19 3C20.1046 3 21 3.89543 21 5C21 6.10455 20.1046 7 19 7L17 5ZM17 5H14H17Z" stroke="#333333" stroke-width="2" stroke-linecap="round" stroke-linejoin="round"/>
<path d="M8.5 12H15.5" stroke="#333333" stroke-width="2" stroke-linecap="round" stroke-linejoin="round"/>
<path d="M12 15.5V8.5" stroke="#333333" stroke-width="2" stroke-linecap="round" stroke-linejoin="round"/>
</svg>
