<svg width="24" height="24" viewBox="0 0 24 24" fill="none" xmlns="http://www.w3.org/2000/svg">
<path d="M3 4V20" stroke="#333333" stroke-width="2" stroke-linecap="round" stroke-linejoin="round"/>
<path d="M12 4V20" stroke="#333333" stroke-width="2" stroke-linecap="round" stroke-linejoin="round"/>
<path d="M3.5 12H11.5" stroke="#333333" stroke-width="2" stroke-linecap="round" stroke-linejoin="round"/>
<path d="M18.5 14.5C19.6046 14.5 20.5 13.6046 20.5 12.5C20.5 11.3954 19.6046 10.5 18.5 10.5C17.3954 10.5 16.5 11.3954 16.5 12.5C16.5 13.6046 17.3954 14.5 18.5 14.5Z" stroke="#333333" stroke-width="2"/>
<path d="M18.5 20C19.8807 20 21 18.8807 21 17.5C21 16.1193 19.8807 15 18.5 15C17.1193 15 16 16.1193 16 17.5C16 18.8807 17.1193 20 18.5 20Z" stroke="#333333" stroke-width="2"/>
</svg>
