<svg width="24" height="24" viewBox="0 0 24 24" fill="none" xmlns="http://www.w3.org/2000/svg">
<g clip-path="url(#clip0_2_21387)">
<path d="M24 0H0V24H24V0Z" fill="white" fill-opacity="0.01"/>
<path fill-rule="evenodd" clip-rule="evenodd" d="M19.0711 19.0711C22.9763 15.1658 22.9763 8.8342 19.0711 4.92893C15.1658 1.02369 8.8342 1.02369 4.92893 4.92893C1.02369 8.8342 1.02369 15.1658 4.92893 19.0711C8.8342 22.9763 15.1658 22.9763 19.0711 19.0711ZM16.2426 7.75735C18.5858 10.1005 18.5858 13.8995 16.2426 16.2426C13.8995 18.5858 10.1005 18.5858 7.75735 16.2426C5.4142 13.8995 5.4142 10.1005 7.75735 7.75735C10.1005 5.4142 13.8995 5.4142 16.2426 7.75735Z" stroke="#333333" stroke-width="2" stroke-linecap="round" stroke-linejoin="round"/>
<path d="M19.071 19.0706L16.2426 16.2422" stroke="#333333" stroke-width="2" stroke-linecap="round" stroke-linejoin="round"/>
<path d="M4.92896 19.0706L7.7574 16.2422" stroke="#333333" stroke-width="2" stroke-linecap="round" stroke-linejoin="round"/>
<path d="M4.92896 4.92871L7.7574 7.75716" stroke="#333333" stroke-width="2" stroke-linecap="round" stroke-linejoin="round"/>
<path d="M19.071 4.92871L16.2426 7.75716" stroke="#333333" stroke-width="2" stroke-linecap="round" stroke-linejoin="round"/>
<path d="M16.2427 16.2427C18.5858 13.8995 18.5858 10.1005 16.2427 7.75736C13.8995 5.41421 10.1005 5.41421 7.75736 7.75736C5.41421 10.1005 5.41421 13.8995 7.75736 16.2427C10.1005 18.5858 13.8995 18.5858 16.2427 16.2427Z" stroke="#333333" stroke-width="2" stroke-linecap="round" stroke-linejoin="round"/>
</g>
<defs>
<clipPath id="clip0_2_21387">
<rect width="24" height="24" fill="white"/>
</clipPath>
</defs>
</svg>
