<svg width="24" height="24" viewBox="0 0 24 24" fill="none" xmlns="http://www.w3.org/2000/svg">
<path d="M15.095 2H8.905C8.39125 2 7.96105 2.3893 7.90995 2.9005L7.00995 11.9005C7.00335 11.9667 7.00335 12.0333 7.00995 12.0995L7.90995 21.0995C7.96105 21.6107 8.39125 22 8.905 22H15.095C15.6088 22 16.039 21.6107 16.0901 21.0995L16.9901 12.0995C16.9967 12.0333 16.9967 11.9667 16.9901 11.9005L16.0901 2.9005C16.039 2.3893 15.6088 2 15.095 2Z" stroke="#333333" stroke-width="2"/>
<path d="M7 12H17" stroke="#333333" stroke-width="2" stroke-linecap="round"/>
<path d="M12 2V22" stroke="#333333" stroke-width="2" stroke-linecap="round"/>
<path d="M10 2H14" stroke="#333333" stroke-width="2" stroke-linecap="round"/>
<path d="M10 22H14" stroke="#333333" stroke-width="2" stroke-linecap="round"/>
<path d="M7.5 7L7.00995 11.9005C7.00335 11.9667 7.00335 12.0333 7.00995 12.0995L7.5 17" stroke="#333333" stroke-width="2" stroke-linecap="round"/>
<path d="M16.5 7L16.99 11.9005C16.9966 11.9667 16.9966 12.0333 16.99 12.0995L16.5 17" stroke="#333333" stroke-width="2" stroke-linecap="round"/>
</svg>
