<svg width="24" height="24" viewBox="0 0 24 24" fill="none" xmlns="http://www.w3.org/2000/svg">
<g clip-path="url(#clip0_2_20518)">
<path d="M24 0H0V24H24V0Z" fill="white" fill-opacity="0.01"/>
<path d="M15 9.5H10C7.79085 9.5 6 11.2908 6 13.5C6 15.7092 7.79085 17.5 10 17.5H18C20.2092 17.5 22 15.7092 22 13.5C22 12.4856 21.6223 11.5593 21 10.8542" stroke="#333333" stroke-width="2" stroke-linecap="round" stroke-linejoin="round"/>
<path d="M3 12.1458C2.37764 11.4407 2 10.5144 2 9.5C2 7.29085 3.79086 5.5 6 5.5H14C16.2092 5.5 18 7.29085 18 9.5C18 11.7092 16.2092 13.5 14 13.5H9" stroke="#333333" stroke-width="2" stroke-linecap="round" stroke-linejoin="round"/>
</g>
<defs>
<clipPath id="clip0_2_20518">
<rect width="24" height="24" fill="white"/>
</clipPath>
</defs>
</svg>
