<svg width="24" height="24" viewBox="0 0 24 24" fill="none" xmlns="http://www.w3.org/2000/svg">
<path d="M21.5464 5.98971L18.0108 2.45418C17.6203 2.06365 16.9871 2.06365 16.5966 2.45418L11.6469 7.40392C11.2563 7.79445 11.2563 8.42761 11.6469 8.81814L15.1824 12.3537C15.5729 12.7442 16.2061 12.7442 16.5966 12.3537L21.5464 7.40392C21.9369 7.0134 21.9369 6.38024 21.5464 5.98971Z" stroke="#333333" stroke-width="2" stroke-linejoin="round"/>
<path d="M12.354 15.1821L8.81843 11.6466C8.42791 11.256 7.79475 11.256 7.40422 11.6466L2.45447 16.5963C2.06395 16.9868 2.06395 17.62 2.45447 18.0105L5.99001 21.5461C6.38053 21.9366 7.0137 21.9366 7.40422 21.5461L12.354 16.5963C12.7445 16.2058 12.7445 15.5726 12.354 15.1821Z" stroke="#333333" stroke-width="2" stroke-linejoin="round"/>
<path d="M15.5362 8.46484L8.46509 15.5359" stroke="#333333" stroke-width="2" stroke-linecap="round" stroke-linejoin="round"/>
</svg>
