<svg width="24" height="24" viewBox="0 0 24 24" fill="none" xmlns="http://www.w3.org/2000/svg">
<path d="M9 3H17V6H9V3Z" stroke="#333333" stroke-width="2" stroke-linecap="round" stroke-linejoin="round"/>
<path d="M9 10.5H19V13.5H9V10.5Z" stroke="#333333" stroke-width="2" stroke-linecap="round" stroke-linejoin="round"/>
<path d="M9 18H22V21H9V18Z" stroke="#333333" stroke-width="2" stroke-linecap="round" stroke-linejoin="round"/>
<path d="M4 5.5C4.55228 5.5 5 5.05228 5 4.5C5 3.94772 4.55228 3.5 4 3.5C3.44772 3.5 3 3.94772 3 4.5C3 5.05228 3.44772 5.5 4 5.5Z" stroke="#333333" stroke-width="2"/>
<path d="M4 13C4.55228 13 5 12.5523 5 12C5 11.4477 4.55228 11 4 11C3.44772 11 3 11.4477 3 12C3 12.5523 3.44772 13 4 13Z" stroke="#333333" stroke-width="2"/>
<path d="M4 20.5C4.55228 20.5 5 20.0523 5 19.5C5 18.9477 4.55228 18.5 4 18.5C3.44772 18.5 3 18.9477 3 19.5C3 20.0523 3.44772 20.5 4 20.5Z" stroke="#333333" stroke-width="2"/>
</svg>
