<svg width="24" height="24" viewBox="0 0 24 24" fill="none" xmlns="http://www.w3.org/2000/svg">
<path d="M4.5 21C5.60455 21 6.5 20.1046 6.5 19C6.5 17.8954 5.60455 17 4.5 17C3.39543 17 2.5 17.8954 2.5 19C2.5 20.1046 3.39543 21 4.5 21Z" stroke="#333333" stroke-width="2" stroke-linejoin="round"/>
<path d="M4.5 7C5.60455 7 6.5 6.1046 6.5 5C6.5 3.89543 5.60455 3 4.5 3C3.39543 3 2.5 3.89543 2.5 5C2.5 6.1046 3.39543 7 4.5 7Z" stroke="#333333" stroke-width="2" stroke-linejoin="round"/>
<path d="M4.5 14C5.60455 14 6.5 13.1046 6.5 12C6.5 10.8954 5.60455 10 4.5 10C3.39543 10 2.5 10.8954 2.5 12C2.5 13.1046 3.39543 14 4.5 14Z" stroke="#333333" stroke-width="2" stroke-linejoin="round"/>
<path d="M10.5 12H21.5" stroke="#333333" stroke-width="2" stroke-linecap="round" stroke-linejoin="round"/>
<path d="M10.5 19H21.5" stroke="#333333" stroke-width="2" stroke-linecap="round" stroke-linejoin="round"/>
<path d="M10.5 5H21.5" stroke="#333333" stroke-width="2" stroke-linecap="round" stroke-linejoin="round"/>
</svg>
