<svg width="24" height="24" viewBox="0 0 24 24" fill="none" xmlns="http://www.w3.org/2000/svg">
<g clip-path="url(#clip0_2_20530)">
<path d="M24 0H0V24H24V0Z" fill="white" fill-opacity="0.01"/>
<path d="M4.92893 16.3789C3.11929 16.9218 2 17.6718 2 18.5002C2 20.1571 6.47715 21.5002 12 21.5002C17.5229 21.5002 22 20.1571 22 18.5002C22 17.6718 20.8807 16.9218 19.0711 16.3789" stroke="#333333" stroke-width="2" stroke-linecap="round" stroke-linejoin="round"/>
<path d="M12 17.5C12 17.5 18.5 13.252 18.5 8.3409C18.5 4.83892 15.5898 2 12 2C8.41015 2 5.5 4.83892 5.5 8.3409C5.5 13.252 12 17.5 12 17.5Z" stroke="#333333" stroke-width="2" stroke-linejoin="round"/>
<path d="M12 11C13.3807 11 14.5 9.8807 14.5 8.5C14.5 7.1193 13.3807 6 12 6C10.6193 6 9.5 7.1193 9.5 8.5C9.5 9.8807 10.6193 11 12 11Z" stroke="#333333" stroke-width="2" stroke-linejoin="round"/>
</g>
<defs>
<clipPath id="clip0_2_20530">
<rect width="24" height="24" fill="white"/>
</clipPath>
</defs>
</svg>
