<svg width="24" height="24" viewBox="0 0 24 24" fill="none" xmlns="http://www.w3.org/2000/svg">
<path d="M18.1072 17.1559C16.6694 18.3514 14.8683 19 13.0001 19C12.8834 19 12.7666 18.9979 12.6542 18.9892C10.6498 18.9027 8.76435 18.0747 7.3438 16.6544C6.58055 15.8913 5.9881 15.0006 5.58595 14.0083C5.19675 13.0506 5 12.0366 5 10.9989C5 9.9612 5.19675 8.9473 5.58595 7.9896C5.9881 6.9973 6.58055 6.1066 7.3438 5.34345C8.10705 4.58033 8.9979 3.98798 9.99035 3.58587C10.9482 3.19673 11.9623 3 13.0001 3C14.038 3 15.052 3.19673 16.0098 3.58587C17.0023 3.98798 17.8932 4.58033 18.6564 5.34345C19.5472 6.232 20.1981 7.28485 20.5916 8.46955C20.9678 9.6002 21.0867 10.8238 20.9375 12.0085C20.8704 12.5295 20.7537 13.0462 20.5872 13.5435C20.0748 15.0535 19.4057 16.0763 18.1072 17.1559Z" stroke="#333333" stroke-width="2" stroke-linecap="round" stroke-linejoin="round"/>
<path d="M11.0525 9.74445C11.1193 8.79235 11.9489 8.0699 12.9039 8.13675C13.4577 8.1743 13.9613 8.42485 14.325 8.84455C14.6886 9.26425 14.8683 9.79665 14.8286 10.35C14.7826 11.0161 14.4796 11.6216 13.976 12.06C13.4723 12.4964 12.8287 12.7115 12.1621 12.6655C10.4966 12.5486 9.23435 11.0995 9.3514 9.43335C9.4935 7.40385 11.2614 5.8671 13.2927 6.0091C14.4964 6.0926 15.5977 6.64175 16.3897 7.5521C17.1838 8.46245 17.5724 9.62755 17.4888 10.8323C17.3843 12.3127 16.7094 13.6635 15.5893 14.6365C14.5695 15.5239 13.2905 16 11.951 16C11.8194 16 11.6877 15.9958 11.5519 15.9874C10.158 15.8914 8.83875 15.6186 7.75 14.75C6.6863 13.9023 5.91375 12.7904 5.5 11.5" stroke="#333333" stroke-width="2" stroke-linecap="round" stroke-linejoin="round"/>
<path d="M6.99997 17L2.99951 21.2426" stroke="#333333" stroke-width="2" stroke-linecap="round" stroke-linejoin="round"/>
</svg>
