<svg width="24" height="24" viewBox="0 0 24 24" fill="none" xmlns="http://www.w3.org/2000/svg">
<path d="M15.5 18.5H8.5V22H15.5V18.5Z" stroke="#333333" stroke-width="2" stroke-linecap="round" stroke-linejoin="round"/>
<path d="M18 2H6C6 2 6 6 6.5 10.5C7 15 8.5 18.5 8.5 18.5H15.5C15.5 18.5 17 15 17.5 10.5C18 6 18 2 18 2Z" stroke="#333333" stroke-width="2" stroke-linecap="round" stroke-linejoin="round"/>
<path d="M10.3215 10.9443C11.0371 10.004 11.5888 8.70515 11.887 8C12.4088 8.70515 13.542 10.4742 13.8998 11.4144C14.3471 12.5897 13.2289 14 11.887 14C10.5451 14 9.4269 12.1195 10.3215 10.9443Z" stroke="#333333" stroke-width="2" stroke-linecap="round" stroke-linejoin="round"/>
<path d="M6.5 5H17.5" stroke="#333333" stroke-width="2" stroke-linecap="round" stroke-linejoin="round"/>
</svg>
