<svg width="24" height="24" viewBox="0 0 24 24" fill="none" xmlns="http://www.w3.org/2000/svg">
<path d="M12 21.5C17.2467 21.5 21.5 17.4706 21.5 12.5H17.5L16 14L14.5 12.5H2.5C2.5 17.4706 6.7533 21.5 12 21.5Z" stroke="#333333" stroke-width="2" stroke-linecap="round" stroke-linejoin="round"/>
<path d="M20.4725 12.5C20.5343 12.0924 20.4725 11.675 20.4725 11.25C20.4725 6.69365 16.7909 2.5 12.2493 2.5C10.3379 2.5 8.08035 3.15427 6.6839 4.25176C6.8953 4.61908 7.01625 5.04535 7.01625 5.5C7.01625 6.8807 5.9006 8 4.52437 8C4.34952 8 4.17888 7.98195 4.0142 7.94755C3.69927 8.8225 3.5276 10.2661 3.5276 11.25C3.5276 11.675 3.46564 12.0924 3.5274 12.5" stroke="#333333" stroke-width="2" stroke-linecap="round" stroke-linejoin="round"/>
<path d="M3 15.5H8" stroke="#333333" stroke-width="2" stroke-linecap="round" stroke-linejoin="round"/>
</svg>
