<svg width="24" height="24" viewBox="0 0 24 24" fill="none" xmlns="http://www.w3.org/2000/svg">
<path d="M22 12C22 17.5229 17.5229 22 12 22C6.47715 22 2 17.5229 2 12C2 6.47715 6.47715 2 12 2" stroke="#333333" stroke-width="2" stroke-linecap="round" stroke-linejoin="round"/>
<path d="M18.8049 4.73633L18.9326 5.12936H19.3459L19.0115 5.37226L19.1392 5.76531L18.8049 5.52241L18.4706 5.76531L18.5983 5.37226L18.2639 5.12936H18.6772L18.8049 4.73633Z" stroke="#333333" stroke-width="2"/>
<path d="M8 15.5C8 15.5 9 17.5 12 17.5C15 17.5 16 15.5 16 15.5" stroke="#333333" stroke-width="2" stroke-linecap="round" stroke-linejoin="round"/>
<path d="M8.5 12.5C9.32843 12.5 10 11.8284 10 11C10 10.1716 9.32843 9.5 8.5 9.5C7.67157 9.5 7 10.1716 7 11C7 11.8284 7.67157 12.5 8.5 12.5Z" stroke="#333333" stroke-width="2"/>
<path d="M15.5 12.5C16.3284 12.5 17 11.8284 17 11C17 10.1716 16.3284 9.5 15.5 9.5C14.6716 9.5 14 10.1716 14 11C14 11.8284 14.6716 12.5 15.5 12.5Z" stroke="#333333" stroke-width="2"/>
</svg>
