<svg width="24" height="24" viewBox="0 0 24 24" fill="none" xmlns="http://www.w3.org/2000/svg">
<path d="M19.65 3H4.35C3.60441 3 3 3.60441 3 4.35V19.65C3 20.3956 3.60441 21 4.35 21H19.65C20.3956 21 21 20.3956 21 19.65V4.35C21 3.60441 20.3956 3 19.65 3Z" stroke="#333333" stroke-width="2" stroke-linejoin="round"/>
<path d="M18 13.5L14.5 15" stroke="#333333" stroke-width="2" stroke-linecap="round" stroke-linejoin="round"/>
<path d="M10.5 16.5L7 18" stroke="#333333" stroke-width="2" stroke-linecap="round" stroke-linejoin="round"/>
<path d="M8 14.5C9 13.0523 9.5 12.0523 9.5 11.5C9.5 10.6715 8.82845 10 8 10C7.17155 10 6.5 10.6715 6.5 11.5C6.5 12.0523 7 13.0523 8 14.5Z" stroke="#333333" stroke-width="2" stroke-linejoin="round"/>
<path d="M16 11C17 9.5523 17.5 8.5523 17.5 8C17.5 7.17155 16.8285 6.5 16 6.5C15.1715 6.5 14.5 7.17155 14.5 8C14.5 8.5523 15 9.5523 16 11Z" stroke="#333333" stroke-width="2" stroke-linejoin="round"/>
</svg>
