<svg width="24" height="24" viewBox="0 0 24 24" fill="none" xmlns="http://www.w3.org/2000/svg">
<g clip-path="url(#clip0_2_20079)">
<path d="M24 0H0V24H24V0Z" fill="white" fill-opacity="0.01"/>
<path d="M21 2H3C2.44772 2 2 2.44772 2 3V21C2 21.5523 2.44772 22 3 22H21C21.5523 22 22 21.5523 22 21V3C22 2.44772 21.5523 2 21 2Z" stroke="#333333" stroke-width="2" stroke-linecap="round" stroke-linejoin="round"/>
<path d="M5 11L19 6" stroke="#333333" stroke-width="2" stroke-linecap="round" stroke-linejoin="round"/>
<path d="M5 14.5L19 9.5" stroke="#333333" stroke-width="2" stroke-linecap="round" stroke-linejoin="round" stroke-dasharray="1 3"/>
<path d="M5 18L19 13" stroke="#333333" stroke-width="2" stroke-linecap="round" stroke-linejoin="round"/>
<path d="M8 9.5L6.5 5.5" stroke="#333333" stroke-width="2" stroke-linecap="round" stroke-linejoin="round"/>
<path d="M18.5 18L17 14" stroke="#333333" stroke-width="2" stroke-linecap="round" stroke-linejoin="round"/>
</g>
<defs>
<clipPath id="clip0_2_20079">
<rect width="24" height="24" fill="white"/>
</clipPath>
</defs>
</svg>
