<svg width="24" height="24" viewBox="0 0 24 24" fill="none" xmlns="http://www.w3.org/2000/svg">
<g clip-path="url(#clip0_2_20072)">
<path d="M24 0H0V24H24V0Z" fill="white" fill-opacity="0.01"/>
<path fill-rule="evenodd" clip-rule="evenodd" d="M7 7H17C19.7614 7 22 9.2386 22 12V13.5C22 17.0898 19.0898 20 15.5 20H12H8.5C4.91015 20 2 17.0898 2 13.5V12C2 9.2386 4.23857 7 7 7Z" stroke="#333333" stroke-width="2"/>
<path d="M9 13.5H15" stroke="#333333" stroke-width="2" stroke-linecap="round"/>
<path d="M12 10.5V16.5" stroke="#333333" stroke-width="2" stroke-linecap="round"/>
<path d="M2 12.5208V6.00701C2.00001 4.85596 2.93312 3.92285 4.08417 3.92285C4.62034 3.92285 5.1359 4.12949 5.5236 4.4998C6.32315 5.26341 6.89375 6.09676 7.23535 6.99986" stroke="#333333" stroke-width="2" stroke-linecap="round" stroke-linejoin="round"/>
<path d="M22 12.5208V6.38256C22 5.14601 20.9976 4.14355 19.761 4.14355C19.0737 4.14355 18.4245 4.45925 18 4.99986C17.4776 5.66516 16.9776 6.33181 16.5 6.99986" stroke="#333333" stroke-width="2" stroke-linecap="round" stroke-linejoin="round"/>
</g>
<defs>
<clipPath id="clip0_2_20072">
<rect width="24" height="24" fill="white"/>
</clipPath>
</defs>
</svg>
