<svg width="24" height="24" viewBox="0 0 24 24" fill="none" xmlns="http://www.w3.org/2000/svg">
<path d="M9 11.5C9.82845 11.5 10.5 10.8284 10.5 10C10.5 9.17155 9.82845 8.5 9 8.5C8.17155 8.5 7.5 9.17155 7.5 10C7.5 10.8284 8.17155 11.5 9 11.5Z" stroke="#333333" stroke-width="2"/>
<path d="M15 11.5C15.8285 11.5 16.5 10.8284 16.5 10C16.5 9.17155 15.8285 8.5 15 8.5C14.1715 8.5 13.5 9.17155 13.5 10C13.5 10.8284 14.1715 11.5 15 11.5Z" stroke="#333333" stroke-width="2"/>
<path d="M12 17.5C13.3807 17.5 14.5 16.8284 14.5 16C14.5 15.1715 13.3807 14.5 12 14.5C10.6193 14.5 9.5 15.1715 9.5 16C9.5 16.8284 10.6193 17.5 12 17.5Z" stroke="#333333" stroke-width="2"/>
<path d="M5.63574 19.0713C6.46474 19.9924 7.45469 20.7346 8.55474 21.2415C9.61589 21.7304 10.7794 22.0002 11.9997 22.0002C13.2199 22.0002 14.3835 21.7304 15.4446 21.2415C16.5447 20.7346 17.5346 19.9924 18.3636 19.0713" stroke="#333333" stroke-width="2" stroke-linecap="round"/>
<path d="M20.3174 15.8273C20.7574 14.6483 21.0002 13.3555 21.0002 11.9996C21.0002 10.6438 20.7574 9.35092 20.3174 8.17188" stroke="#333333" stroke-width="2" stroke-linecap="round"/>
<path d="M3.68286 8.17188C3.24285 9.35092 3 10.6438 3 11.9996C3 13.3555 3.24285 14.6483 3.68286 15.8273" stroke="#333333" stroke-width="2" stroke-linecap="round"/>
<path d="M18.3636 4.92894C17.5346 4.00782 16.5447 3.26557 15.4446 2.75874C14.3835 2.26984 13.2199 2 11.9997 2C9.51439 2 7.26439 3.11929 5.63574 4.92894" stroke="#333333" stroke-width="2" stroke-linecap="round"/>
</svg>
