<svg width="24" height="24" viewBox="0 0 24 24" fill="none" xmlns="http://www.w3.org/2000/svg">
<path d="M20 2.5H4C3.17157 2.5 2.5 3.17157 2.5 4V20C2.5 20.8284 3.17157 21.5 4 21.5H20C20.8284 21.5 21.5 20.8284 21.5 20V4C21.5 3.17157 20.8284 2.5 20 2.5Z" stroke="#333333" stroke-width="2" stroke-linecap="round" stroke-linejoin="round"/>
<path d="M9 12V7.8261C9 7.2174 9.6 6 12 6C14.4 6 15 7.2174 15 7.8261V12" stroke="#333333" stroke-width="2" stroke-linecap="round" stroke-linejoin="round"/>
<path d="M8 12V15H16V12" stroke="#333333" stroke-width="2" stroke-linecap="round" stroke-linejoin="round"/>
<path d="M6 10V12H18V10" stroke="#333333" stroke-width="2" stroke-linecap="round" stroke-linejoin="round"/>
<path d="M9 18H15" stroke="#333333" stroke-width="2" stroke-linecap="round" stroke-linejoin="round"/>
<path d="M12 15V18" stroke="#333333" stroke-width="2" stroke-linecap="round" stroke-linejoin="round"/>
</svg>
