<svg width="24" height="24" viewBox="0 0 24 24" fill="none" xmlns="http://www.w3.org/2000/svg">
<path d="M19 19V3C19 2.44771 18.5523 2 18 2H6C5.4477 2 5 2.44771 5 3V19" stroke="#333333" stroke-width="2" stroke-linecap="round" stroke-linejoin="round"/>
<path d="M16 16H8C6.34315 16 5 17.3431 5 19C5 20.6569 6.34315 22 8 22H16C17.6569 22 19 20.6569 19 19C19 17.3431 17.6569 16 16 16Z" stroke="#333333" stroke-width="2" stroke-linecap="round" stroke-linejoin="round"/>
<path d="M10 8L12 6L14 8L16 6L14.5 11.5H9.5L8 6L10 8Z" stroke="#333333" stroke-width="2" stroke-linejoin="round"/>
<path d="M16 20C16.5523 20 17 19.5523 17 19C17 18.4477 16.5523 18 16 18C15.4477 18 15 18.4477 15 19C15 19.5523 15.4477 20 16 20Z" fill="#333333"/>
</svg>
