<svg width="24" height="24" viewBox="0 0 24 24" fill="none" xmlns="http://www.w3.org/2000/svg">
<g clip-path="url(#clip0_2_20067)">
<path d="M24 0H0V24H24V0Z" fill="white" fill-opacity="0.01"/>
<path d="M24 0H0V24H24V0Z" fill="white" fill-opacity="0.01"/>
<path d="M4.5 7.5V4.78195C4.5 4.33619 4.54351 4.17454 4.62522 4.01158C4.70692 3.84862 4.82683 3.72072 4.97961 3.63356C5.1324 3.54641 5.2839 3.5 5.7018 3.5H18.2982C18.7161 3.5 18.8676 3.54641 19.0204 3.63356C19.1731 3.72072 19.2931 3.84862 19.3748 4.01158C19.4565 4.17454 19.5 4.33619 19.5 4.78195V7.5" stroke="#333333" stroke-width="2" stroke-linecap="round" stroke-linejoin="round"/>
<path d="M2.5 7.5H21.5V20.5H2.5V7.5Z" stroke="#333333" stroke-width="2" stroke-linejoin="round"/>
<path fill-rule="evenodd" clip-rule="evenodd" d="M6.5 13C7.32845 13 8 12.3284 8 11.5C8 10.6715 7.32845 10 6.5 10C5.67155 10 5 10.6715 5 11.5C5 12.3284 5.67155 13 6.5 13Z" fill="#333333"/>
<path d="M2.78442 20.195L7.49995 15L9.99995 17L12.9999 13.5L21.1968 20.195" stroke="#333333" stroke-width="2" stroke-linecap="round" stroke-linejoin="round"/>
</g>
<defs>
<clipPath id="clip0_2_20067">
<rect width="24" height="24" fill="white"/>
</clipPath>
</defs>
</svg>
