<svg width="24" height="24" viewBox="0 0 24 24" fill="none" xmlns="http://www.w3.org/2000/svg">
<g clip-path="url(#clip0_2_20166)">
<path d="M24 0H0V24H24V0Z" fill="white" fill-opacity="0.01"/>
<path d="M12.9773 12L12.9972 3.49999C12.9992 2.67351 12.3308 2.00195 11.5043 2.00001C11.5032 2 11.502 2 11.5008 2C10.6724 2 10.008 2.67157 10.008 3.49999V11.52M10.4976 18L9.54685 15.9954L12.1016 15.7864C13.1456 15.7864 13.992 14.9397 13.992 13.8953C13.992 12.8508 13.1456 12.0042 12.1016 12.0042C10.2282 12.0042 8.86055 12.0042 7.9986 12.0042C6.30435 12.0042 4.5 13.792 4.5 15.521C4.5 17.2501 4.89371 18.2404 5.32335 19.1694C5.753 20.0983 6.8984 22 10.008 22C11.993 22 11.7136 22 14.4773 22C17.1015 22 19 19.5727 18.9935 16.5C18.9894 14.5848 18.9907 11.7514 18.9972 7.99998C18.9987 7.17408 18.3303 6.50343 17.5044 6.50198H17.5018C16.6761 6.50198 16.0067 7.17138 16.0067 7.99708C16.0067 7.99813 16.0067 7.99913 16.0067 8.00013C16.0119 10.5705 16.0145 12.0789 16.0145 12.5255C16.0145 13.9724 15.3443 14.4711 14.0037 14.0215L10.4976 18Z" stroke="#333333" stroke-width="2" stroke-linecap="round" stroke-linejoin="round"/>
<path d="M7.00305 11.9999V4.99989C7.00305 4.17259 7.6737 3.50195 8.50095 3.50195C8.50165 3.50195 8.50235 3.50195 8.50305 3.50195C9.3318 3.50311 10.0031 4.17528 10.0031 5.00404V11.9999" stroke="#333333" stroke-width="2" stroke-linecap="round" stroke-linejoin="round"/>
<path d="M13.0037 10.0098V9.50977C13.0037 8.68132 13.6753 8.00977 14.5037 8.00977C15.3321 8.00977 16.0037 8.68132 16.0037 9.50977V10.0098" stroke="#333333" stroke-width="2" stroke-linecap="round" stroke-linejoin="round"/>
</g>
<defs>
<clipPath id="clip0_2_20166">
<rect width="24" height="24" fill="white"/>
</clipPath>
</defs>
</svg>
