<svg width="24" height="24" viewBox="0 0 24 24" fill="none" xmlns="http://www.w3.org/2000/svg">
<g clip-path="url(#clip0_2_20062)">
<path d="M24 0H0V24H24V0Z" fill="white" fill-opacity="0.01"/>
<path d="M11.5 21H9.5H7.5H4.5C3.94771 21 3.5 20.5523 3.5 20V4C3.5 3.44771 3.94771 3 4.5 3H18.5C19.0523 3 19.5 3.44771 19.5 4V7.5V9.75" stroke="#333333" stroke-width="2" stroke-linecap="round" stroke-linejoin="round"/>
<path d="M18.3182 13.5C19.5231 13.5 20.5 14.4402 20.5 15.6C20.5 17.1098 19.0454 18.4 18.3182 19.1C17.8333 19.5667 17.2272 20.0333 16.5 20.5C15.7728 20.0333 15.1666 19.5667 14.6818 19.1C13.9545 18.4 12.5 17.1098 12.5 15.6C12.5 14.4402 13.4768 13.5 14.6818 13.5C15.4407 13.5 16.1091 13.873 16.5 14.4388C16.8909 13.873 17.5593 13.5 18.3182 13.5Z" stroke="#333333" stroke-width="2" stroke-linejoin="round"/>
<path d="M7.5 7H15.5" stroke="#333333" stroke-width="2" stroke-linecap="round"/>
</g>
<defs>
<clipPath id="clip0_2_20062">
<rect width="24" height="24" fill="white"/>
</clipPath>
</defs>
</svg>
