<svg width="24" height="24" viewBox="0 0 24 24" fill="none" xmlns="http://www.w3.org/2000/svg">
<path d="M21.5 14H2.5V21H21.5V14Z" stroke="#333333" stroke-width="2" stroke-linecap="round" stroke-linejoin="round"/>
<path d="M21.5 3H2.5V10H21.5V3Z" stroke="#333333" stroke-width="2" stroke-linecap="round" stroke-linejoin="round"/>
<path d="M7.5 6.5C7.5 5.94772 7.05228 5.5 6.5 5.5C5.94772 5.5 5.5 5.94772 5.5 6.5C5.5 7.05228 5.94772 7.5 6.5 7.5C7.05228 7.5 7.5 7.05228 7.5 6.5Z" fill="#333333"/>
<path d="M7.5 17.5C7.5 16.9477 7.05228 16.5 6.5 16.5C5.94772 16.5 5.5 16.9477 5.5 17.5C5.5 18.0523 5.94772 18.5 6.5 18.5C7.05228 18.5 7.5 18.0523 7.5 17.5Z" fill="#333333"/>
<path d="M11.5 6.5C11.5 5.94772 11.0523 5.5 10.5 5.5C9.94772 5.5 9.5 5.94772 9.5 6.5C9.5 7.05228 9.94772 7.5 10.5 7.5C11.0523 7.5 11.5 7.05228 11.5 6.5Z" fill="#333333"/>
<path d="M11.5 17.5C11.5 16.9477 11.0523 16.5 10.5 16.5C9.94772 16.5 9.5 16.9477 9.5 17.5C9.5 18.0523 9.94772 18.5 10.5 18.5C11.0523 18.5 11.5 18.0523 11.5 17.5Z" fill="#333333"/>
<path d="M15.5 6.5H17.5" stroke="#333333" stroke-width="2" stroke-linecap="round" stroke-linejoin="round"/>
<path d="M15.5 17.5H17.5" stroke="#333333" stroke-width="2" stroke-linecap="round" stroke-linejoin="round"/>
</svg>
