<svg width="24" height="24" viewBox="0 0 24 24" fill="none" xmlns="http://www.w3.org/2000/svg">
<path d="M8.36396 5.63604L2.70711 11.2929C2.31658 11.6834 2.31658 12.3166 2.70711 12.7071L9.07107 19.0711C9.46159 19.4616 10.0948 19.4616 10.4853 19.0711L16.1421 13.4142C16.5327 13.0237 16.5327 12.3905 16.1421 12L9.77817 5.63604C9.38765 5.24551 8.75449 5.24551 8.36396 5.63604Z" stroke="#333333" stroke-width="2" stroke-linecap="round" stroke-linejoin="round"/>
<path d="M14.364 5.63604L8.70711 11.2929C8.31658 11.6834 8.31658 12.3166 8.70711 12.7071L14.364 18.364C14.7545 18.7545 15.3877 18.7545 15.7782 18.364L21.435 12.7071C21.8256 12.3166 21.8256 11.6834 21.435 11.2929L15.7782 5.63604C15.3877 5.24551 14.7545 5.24551 14.364 5.63604Z" stroke="#333333" stroke-width="2" stroke-linecap="round" stroke-linejoin="round"/>
</svg>
