<svg width="24" height="24" viewBox="0 0 24 24" fill="none" xmlns="http://www.w3.org/2000/svg">
<path d="M19.5 3H4.5C3.67158 3 3 3.67158 3 4.5V19.5C3 20.3285 3.67158 21 4.5 21H19.5C20.3285 21 21 20.3285 21 19.5V4.5C21 3.67158 20.3285 3 19.5 3Z" stroke="#333333" stroke-width="2"/>
<path d="M17 11.5C17 13.4312 15.6484 15.0782 13.75 15.7167C13.2053 15.8998 12.6156 16 12 16C10 16 7.5 17 7.5 17L8.06615 15.7772C8.3476 15.1692 8.168 14.4624 7.7808 13.9157C7.28645 13.2178 7 12.389 7 11.5C7 9.0147 9.2386 7 12 7C14.7614 7 17 9.0147 17 11.5Z" stroke="#333333" stroke-width="2" stroke-linejoin="round"/>
</svg>
