<svg width="24" height="24" viewBox="0 0 24 24" fill="none" xmlns="http://www.w3.org/2000/svg">
<g clip-path="url(#clip0_2_20044)">
<path d="M24 0H0V24H24V0Z" fill="white" fill-opacity="0.01"/>
<path d="M13 22C15.1731 20.4959 16.3313 18.9757 16.4746 17.4391C16.6179 15.9025 16.154 14.7562 15.0829 14" stroke="#333333" stroke-width="2" stroke-linecap="round"/>
<path fill-rule="evenodd" clip-rule="evenodd" d="M13.8276 14.1113C15.0703 14.1113 16.0776 13.1039 16.0776 11.8613C16.0776 10.6187 15.0703 9.61133 13.8276 9.61133C12.585 9.61133 11.5776 10.6187 11.5776 11.8613C11.5776 13.1039 12.585 14.1113 13.8276 14.1113Z" stroke="#333333" stroke-width="2"/>
<path d="M12.1441 13.5L9.38915 16.2886L4.79297 11.6924L13.9853 2.5L18.5815 7.0962L15.4882 10.1896" stroke="#333333" stroke-width="2" stroke-linecap="round" stroke-linejoin="round"/>
<path d="M3.27881 14.0674L7.20975 17.9066" stroke="#333333" stroke-width="2" stroke-linecap="round"/>
<path d="M3 22H21" stroke="#333333" stroke-width="2" stroke-linecap="round"/>
</g>
<defs>
<clipPath id="clip0_2_20044">
<rect width="24" height="24" fill="white"/>
</clipPath>
</defs>
</svg>
