<svg width="24" height="24" viewBox="0 0 24 24" fill="none" xmlns="http://www.w3.org/2000/svg">
<path d="M2.5 6L2.5 16C2.5 16.5523 2.94772 17 3.5 17H20.5C21.0523 17 21.5 16.5523 21.5 16V6C21.5 5.44771 21.0523 5 20.5 5L3.5 5C2.94772 5 2.5 5.44771 2.5 6Z" stroke="#333333" stroke-width="2"/>
<path d="M10 9.5H12" stroke="#333333" stroke-width="2" stroke-linecap="round" stroke-linejoin="round"/>
<path d="M6.5 12.5H17.5" stroke="#333333" stroke-width="2" stroke-linecap="round" stroke-linejoin="round"/>
<path d="M6 17V19" stroke="#333333" stroke-width="2" stroke-linecap="round" stroke-linejoin="round"/>
<path d="M10 17V19" stroke="#333333" stroke-width="2" stroke-linecap="round" stroke-linejoin="round"/>
<path d="M14 17V19" stroke="#333333" stroke-width="2" stroke-linecap="round" stroke-linejoin="round"/>
<path d="M18 17V19" stroke="#333333" stroke-width="2" stroke-linecap="round" stroke-linejoin="round"/>
<path d="M7.5 9.5C7.5 10.0523 7.0523 10.5 6.5 10.5C5.9477 10.5 5.5 10.0523 5.5 9.5C5.5 8.9477 5.9477 8.5 6.5 8.5C7.0523 8.5 7.5 8.9477 7.5 9.5Z" fill="#333333"/>
</svg>
