<svg width="24" height="24" viewBox="0 0 24 24" fill="none" xmlns="http://www.w3.org/2000/svg">
<path d="M7.5 13.1568C7.5 13.1568 9.7981 12.9801 11.3891 11.3891C12.9801 9.7981 13.1568 7.5 13.1568 7.5L17.0329 13.5908C17.6603 14.5767 17.5187 15.8661 16.6924 16.6924C15.8661 17.5187 14.5767 17.6603 13.5908 17.0329L7.5 13.1568Z" stroke="#333333" stroke-width="2"/>
<path d="M7.5 13C10.5376 13 13 10.5376 13 7.5C13 4.46243 10.5376 2 7.5 2C4.46243 2 2 4.46243 2 7.5C2 10.5376 4.46243 13 7.5 13Z" stroke="#333333" stroke-width="2"/>
<path d="M2.82837 12.7276L12.7278 2.82812" stroke="#333333" stroke-width="2" stroke-linecap="round" stroke-linejoin="round"/>
<path d="M17 16.5L21 20.5H16.5" stroke="#333333" stroke-width="2" stroke-linecap="round" stroke-linejoin="round"/>
</svg>
