<svg width="24" height="24" viewBox="0 0 24 24" fill="none" xmlns="http://www.w3.org/2000/svg">
<g clip-path="url(#clip0_2_20043)">
<path d="M24 0H0V24H24V0Z" fill="white" fill-opacity="0.01"/>
<path d="M21 3H3C2.44772 3 2 3.44772 2 4V17C2 17.5523 2.44772 18 3 18H21C21.5523 18 22 17.5523 22 17V4C22 3.44772 21.5523 3 21 3Z" stroke="#333333" stroke-width="2"/>
<path d="M19.0001 7.5H17.0001" stroke="#333333" stroke-width="2" stroke-linecap="round" stroke-linejoin="round"/>
<path d="M19 10.5H17" stroke="#333333" stroke-width="2" stroke-linecap="round" stroke-linejoin="round"/>
<path d="M13.5 7.5H5V13.5H13.5V7.5Z" stroke="#333333" stroke-width="2" stroke-linecap="round" stroke-linejoin="round"/>
<path d="M18 14.5C18.5523 14.5 19 14.0523 19 13.5C19 12.9477 18.5523 12.5 18 12.5C17.4477 12.5 17 12.9477 17 13.5C17 14.0523 17.4477 14.5 18 14.5Z" fill="#333333"/>
<path d="M6 18V21" stroke="#333333" stroke-width="2" stroke-linecap="round" stroke-linejoin="round"/>
<path d="M18 18V21" stroke="#333333" stroke-width="2" stroke-linecap="round" stroke-linejoin="round"/>
</g>
<defs>
<clipPath id="clip0_2_20043">
<rect width="24" height="24" fill="white"/>
</clipPath>
</defs>
</svg>
