<svg width="24" height="24" viewBox="0 0 24 24" fill="none" xmlns="http://www.w3.org/2000/svg">
<g clip-path="url(#clip0_2_20041)">
<path d="M24 0H0V24H24V0Z" fill="white" fill-opacity="0.01"/>
<path d="M7.4859 13.4875C5.82555 13.7834 4.99536 14.7876 4.99536 16.5003C4.99536 19.0694 7.5719 22.0003 9.89525 22.0003C12.2186 22.0003 13.5661 22.0003 15.8401 22.0003C18.1142 22.0003 19.4954 20.075 19.4954 18.5304C19.4954 16.3552 19.4954 14.18 19.4954 12.0049C19.4954 11.1765 18.8238 10.5049 17.9954 10.5049H17.9908C17.1649 10.5049 16.4954 11.1744 16.4954 12.0003" stroke="#333333" stroke-width="2" stroke-linecap="round"/>
<path d="M7.48596 15.0198V10.5063C7.48596 9.67708 8.15816 9.00488 8.98736 9.00488C8.98786 9.00488 8.98836 9.00488 8.98891 9.00488C9.81921 9.00573 10.4918 9.67908 10.4918 10.5094V12.5112" stroke="#333333" stroke-width="2" stroke-linecap="round"/>
<path d="M10.4918 12.0042V3.50774C10.4918 2.67504 11.1669 2 11.9996 2C12.8323 2 13.5073 2.67504 13.5073 3.50774V12.0042" stroke="#333333" stroke-width="2" stroke-linecap="round" stroke-linejoin="round"/>
<path d="M13.4954 11.8581V10.502C13.4954 9.6735 14.167 9.00195 14.9954 9.00195C15.8238 9.00195 16.4954 9.6735 16.4954 10.502V12.002" stroke="#333333" stroke-width="2" stroke-linecap="round" stroke-linejoin="round"/>
</g>
<defs>
<clipPath id="clip0_2_20041">
<rect width="24" height="24" fill="white"/>
</clipPath>
</defs>
</svg>
