<svg width="24" height="24" viewBox="0 0 24 24" fill="none" xmlns="http://www.w3.org/2000/svg">
<path d="M4 14C5.10455 14 6 13.1046 6 12C6 10.8954 5.10455 10 4 10C2.89543 10 2 10.8954 2 12C2 13.1046 2.89543 14 4 14Z" stroke="#333333" stroke-width="2" stroke-linejoin="round"/>
<path d="M21 4C21.5523 4 22 3.55229 22 3C22 2.44771 21.5523 2 21 2C20.4477 2 20 2.44771 20 3C20 3.55229 20.4477 4 21 4Z" stroke="#333333" stroke-width="2" stroke-linejoin="round"/>
<path d="M21 13C21.5523 13 22 12.5523 22 12C22 11.4477 21.5523 11 21 11C20.4477 11 20 11.4477 20 12C20 12.5523 20.4477 13 21 13Z" stroke="#333333" stroke-width="2" stroke-linejoin="round"/>
<path d="M21 22C21.5523 22 22 21.5523 22 21C22 20.4477 21.5523 20 21 20C20.4477 20 20 20.4477 20 21C20 21.5523 20.4477 22 21 22Z" stroke="#333333" stroke-width="2" stroke-linejoin="round"/>
<path d="M16 3H10V21H16" stroke="#333333" stroke-width="2" stroke-linecap="round" stroke-linejoin="round"/>
<path d="M6 12H16" stroke="#333333" stroke-width="2" stroke-linecap="round" stroke-linejoin="round"/>
</svg>
