<svg width="24" height="24" viewBox="0 0 24 24" fill="none" xmlns="http://www.w3.org/2000/svg">
<g clip-path="url(#clip0_2_20333)">
<path d="M24 0H0V24H24V0Z" fill="white" fill-opacity="0.01"/>
<path d="M10 15C6.6863 15 4 12.3137 4 9C4 5.6863 6.6863 3 10 3" stroke="#333333" stroke-width="2" stroke-linecap="round" stroke-linejoin="round"/>
<path d="M10 11C8.89545 11 8 10.1046 8 9C8 7.89545 8.89545 7 10 7" stroke="#333333" stroke-width="2" stroke-linecap="round" stroke-linejoin="round"/>
<path d="M14 17C15.1046 17 16 16.1046 16 15C16 13.8954 15.1046 13 14 13" stroke="#333333" stroke-width="2" stroke-linecap="round" stroke-linejoin="round"/>
<path d="M14 21C17.3137 21 20 18.3137 20 15C20 11.6863 17.3137 9 14 9" stroke="#333333" stroke-width="2" stroke-linecap="round" stroke-linejoin="round"/>
</g>
<defs>
<clipPath id="clip0_2_20333">
<rect width="24" height="24" fill="white"/>
</clipPath>
</defs>
</svg>
