<svg width="24" height="24" viewBox="0 0 24 24" fill="none" xmlns="http://www.w3.org/2000/svg">
<path d="M2.5 4C2.5 3.44771 2.94771 3 3.5 3H20.5C21.0523 3 21.5 3.44771 21.5 4V16C21.5 16.5523 21.0523 17 20.5 17H3.5C2.94771 17 2.5 16.5523 2.5 16V4Z" stroke="#333333" stroke-width="2" stroke-linecap="round" stroke-linejoin="round"/>
<path d="M2.5 13C2.5 12.4477 2.94771 12 3.5 12H20.5C21.0523 12 21.5 12.4477 21.5 13V16C21.5 16.5523 21.0523 17 20.5 17H3.5C2.94771 17 2.5 16.5523 2.5 16V13Z" stroke="#333333" stroke-width="2" stroke-linecap="round" stroke-linejoin="round"/>
<path d="M11 6L9 8.5" stroke="#333333" stroke-width="2" stroke-linecap="round" stroke-linejoin="round"/>
<path d="M14 7L12.5 9" stroke="#333333" stroke-width="2" stroke-linecap="round" stroke-linejoin="round"/>
<path d="M12 15.5C12.5523 15.5 13 15.0523 13 14.5C13 13.9477 12.5523 13.5 12 13.5C11.4477 13.5 11 13.9477 11 14.5C11 15.0523 11.4477 15.5 12 15.5Z" fill="#333333"/>
<path d="M8.5 17L7 21H17L15.5 17" stroke="#333333" stroke-width="2" stroke-linecap="round" stroke-linejoin="round"/>
</svg>
