<svg width="24" height="24" viewBox="0 0 24 24" fill="none" xmlns="http://www.w3.org/2000/svg">
<g clip-path="url(#clip0_2_20023)">
<path d="M24 0H0V24H24V0Z" fill="white" fill-opacity="0.01"/>
<path d="M14.0264 2.20543C11.2914 2.91848 9.27275 5.4053 9.27275 8.36365C9.27275 11.8782 12.1218 14.7273 15.6363 14.7273C18.5947 14.7273 21.0815 12.7086 21.7945 9.97365C21.9292 10.628 22 11.3058 22 12C22 17.5229 17.5229 22 12 22C6.47715 22 2 17.5229 2 12C2 6.47715 6.47715 2 12 2C12.6942 2 13.372 2.07075 14.0264 2.20543Z" stroke="#333333" stroke-width="2" stroke-linejoin="round"/>
</g>
<defs>
<clipPath id="clip0_2_20023">
<rect width="24" height="24" fill="white"/>
</clipPath>
</defs>
</svg>
