<svg width="24" height="24" viewBox="0 0 24 24" fill="none" xmlns="http://www.w3.org/2000/svg">
<g clip-path="url(#clip0_2_20022)">
<path d="M24 0H0V24H24V0Z" fill="white" fill-opacity="0.01"/>
<path d="M9 2H3C2.44772 2 2 2.44772 2 3V9C2 9.55228 2.44772 10 3 10H9C9.55228 10 10 9.55228 10 9V3C10 2.44772 9.55228 2 9 2Z" stroke="#333333" stroke-width="2" stroke-linejoin="round"/>
<path d="M9 14H3C2.44772 14 2 14.4477 2 15V21C2 21.5523 2.44772 22 3 22H9C9.55228 22 10 21.5523 10 21V15C10 14.4477 9.55228 14 9 14Z" stroke="#333333" stroke-width="2" stroke-linejoin="round"/>
<path d="M21 2H15C14.4477 2 14 2.44772 14 3V9C14 9.55228 14.4477 10 15 10H21C21.5523 10 22 9.55228 22 9V3C22 2.44772 21.5523 2 21 2Z" stroke="#333333" stroke-width="2" stroke-linejoin="round"/>
<path d="M14 14H22" stroke="#333333" stroke-width="2" stroke-linecap="round" stroke-linejoin="round"/>
<path d="M18 18H22" stroke="#333333" stroke-width="2" stroke-linecap="round" stroke-linejoin="round"/>
<path d="M14 22H22" stroke="#333333" stroke-width="2" stroke-linecap="round" stroke-linejoin="round"/>
</g>
<defs>
<clipPath id="clip0_2_20022">
<rect width="24" height="24" fill="white"/>
</clipPath>
</defs>
</svg>
