<svg width="24" height="24" viewBox="0 0 24 24" fill="none" xmlns="http://www.w3.org/2000/svg">
<g clip-path="url(#clip0_2_20019)">
<path d="M24 0H0V24H24V0Z" fill="white" fill-opacity="0.01"/>
<path d="M12 22C17.5229 22 22 17.5229 22 12C22 6.47715 17.5229 2 12 2C6.47715 2 2 6.47715 2 12C2 17.5229 6.47715 22 12 22Z" stroke="#333333" stroke-width="2" stroke-linejoin="round"/>
<path fill-rule="evenodd" clip-rule="evenodd" d="M10.75 7C10.75 7.69035 11.3097 8.25 12 8.25C12.6904 8.25 13.25 7.69035 13.25 7C13.25 6.30965 12.6904 5.75 12 5.75C11.3097 5.75 10.75 6.30965 10.75 7ZM10.75 12C10.75 12.6904 11.3097 13.25 12 13.25C12.6904 13.25 13.25 12.6904 13.25 12C13.25 11.3096 12.6904 10.75 12 10.75C11.3097 10.75 10.75 11.3096 10.75 12ZM12 18.25C11.3097 18.25 10.75 17.6903 10.75 17C10.75 16.3097 11.3097 15.75 12 15.75C12.6904 15.75 13.25 16.3097 13.25 17C13.25 17.6903 12.6904 18.25 12 18.25Z" fill="#333333"/>
</g>
<defs>
<clipPath id="clip0_2_20019">
<rect width="24" height="24" fill="white"/>
</clipPath>
</defs>
</svg>
