<svg width="24" height="24" viewBox="0 0 24 24" fill="none" xmlns="http://www.w3.org/2000/svg">
<g clip-path="url(#clip0_2_21187)">
<path d="M24 0H0V24H24V0Z" fill="white" fill-opacity="0.01"/>
<path d="M22 18H18V22H22V18Z" fill="#333333"/>
<path d="M14 18H10V22H14V18Z" fill="#333333"/>
<path d="M6 18H2V22H6V18Z" fill="#333333"/>
<path d="M22 10H18V14H22V10Z" fill="#333333"/>
<path d="M14 10H10V14H14V10Z" fill="#333333"/>
<path d="M6 10H2V14H6V10Z" fill="#333333"/>
<path d="M22 2H18V6H22V2Z" fill="#333333"/>
<path d="M14 2H10V6H14V2Z" fill="#333333"/>
<path d="M6 2H2V6H6V2Z" fill="#333333"/>
<path d="M10 6H6V10H10V6Z" fill="#333333"/>
<path d="M10 14H6V18H10V14Z" fill="#333333"/>
<path d="M18 6H14V10H18V6Z" fill="#333333"/>
<path d="M18 14H14V18H18V14Z" fill="#333333"/>
</g>
<defs>
<clipPath id="clip0_2_21187">
<rect width="24" height="24" fill="white"/>
</clipPath>
</defs>
</svg>
