<svg width="24" height="24" viewBox="0 0 24 24" fill="none" xmlns="http://www.w3.org/2000/svg">
<g clip-path="url(#clip0_2_20014)">
<path d="M24 0H0V24H24V0Z" fill="white" fill-opacity="0.01"/>
<path d="M18 12C18 8.68629 15.3137 6 12 6C8.68629 6 6 8.68629 6 12V16C6 19.3137 8.68629 22 12 22C15.3137 22 18 19.3137 18 16V12Z" stroke="#333333" stroke-width="2"/>
<path d="M6 12C6 8.6863 8.6863 6 12 6C15.3137 6 18 8.6863 18 12V12.5H6V12Z" stroke="#333333" stroke-width="2"/>
<path d="M12 12.5C12 12.5 12 8 12 6C12 4 12.75 2 15.5 2C18.5 2 19.5 4.5 19.5 6.5" stroke="#333333" stroke-width="2" stroke-linecap="round" stroke-linejoin="round"/>
</g>
<defs>
<clipPath id="clip0_2_20014">
<rect width="24" height="24" fill="white"/>
</clipPath>
</defs>
</svg>
