<svg width="24" height="24" viewBox="0 0 24 24" fill="none" xmlns="http://www.w3.org/2000/svg">
<path d="M11 21.5C8.63709 20.6163 6.66624 17.5925 5.67984 15.8214C5.25394 15.0567 5.47829 14.1173 6.16179 13.5705C6.92364 12.9611 8.02189 13.0219 8.71179 13.7118L9.49999 14.5V8.75C9.49999 8.05965 10.0596 7.5 10.75 7.5C11.4403 7.5 12 8.05965 12 8.75V11.75C12 11.0597 12.5596 10.5 13.25 10.5C13.9403 10.5 14.5 11.0597 14.5 11.75V12.75C14.5 12.0597 15.0596 11.5 15.75 11.5C16.4403 11.5 17 12.0597 17 12.75V13.75C17 13.0597 17.5596 12.5 18.25 12.5C18.9403 12.5 19.5 13.0597 19.5 13.75V17.684C19.5 18.2192 19.3677 18.748 19.0592 19.1854C18.5474 19.911 17.6275 21.0168 16.5 21.5C14.75 22.25 13.185 22.3171 11 21.5Z" stroke="#333333" stroke-width="2" stroke-linecap="round" stroke-linejoin="round"/>
<path d="M5 4H16" stroke="#333333" stroke-width="2" stroke-linecap="round" stroke-linejoin="round"/>
<path d="M7.00015 6L5 4L7 2" stroke="#333333" stroke-width="2" stroke-linecap="round" stroke-linejoin="round"/>
<path d="M14 2L16 4L14 6" stroke="#333333" stroke-width="2" stroke-linecap="round" stroke-linejoin="round"/>
</svg>
