<svg width="24" height="24" viewBox="0 0 24 24" fill="none" xmlns="http://www.w3.org/2000/svg">
<g clip-path="url(#clip0_2_20007)">
<path d="M24 0H0V24H24V0Z" fill="white" fill-opacity="0.01"/>
<path d="M15 5C15 3.34315 13.6568 2 12 2C10.3432 2 9 3.34315 9 5V12C9 13.6568 10.3432 15 12 15C13.6568 15 15 13.6568 15 12V5Z" stroke="#333333" stroke-width="2" stroke-linecap="round" stroke-linejoin="round"/>
<path d="M19.0711 9.17111C20.2427 7.99956 20.2427 6.10006 19.0711 4.92849C17.8995 3.75691 16 3.75691 14.8284 4.92849L9.8787 9.87826C8.7071 11.0498 8.7071 12.9493 9.8787 14.1209C11.0503 15.2925 12.9497 15.2925 14.1213 14.1209L19.0711 9.17111Z" stroke="#333333" stroke-width="2" stroke-linecap="round" stroke-linejoin="round"/>
<path d="M19 15C20.6568 15 22 13.6568 22 12C22 10.3432 20.6568 9 19 9H12C10.3432 9 9 10.3432 9 12C9 13.6568 10.3432 15 12 15H19Z" stroke="#333333" stroke-width="2" stroke-linecap="round" stroke-linejoin="round"/>
<path d="M14.8284 19.0711C16 20.2427 17.8995 20.2427 19.0711 19.0711C20.2427 17.8995 20.2427 16 19.0711 14.8284L14.1213 9.8787C12.9498 8.7071 11.0503 8.7071 9.87866 9.8787C8.70711 11.0503 8.70711 12.9497 9.87866 14.1213L14.8284 19.0711Z" stroke="#333333" stroke-width="2" stroke-linecap="round" stroke-linejoin="round"/>
<path d="M9 19C9 20.6568 10.3432 22 12 22C13.6568 22 15 20.6568 15 19V12C15 10.3432 13.6568 9 12 9C10.3432 9 9 10.3432 9 12V19Z" stroke="#333333" stroke-width="2" stroke-linecap="round" stroke-linejoin="round"/>
<path d="M4.92897 14.8284C3.7574 16 3.7574 17.8995 4.92897 19.0711C6.10055 20.2427 8.00005 20.2427 9.1716 19.0711L14.1213 14.1213C15.2929 12.9497 15.2929 11.0503 14.1213 9.8787C12.9498 8.7071 11.0503 8.7071 9.8787 9.8787L4.92897 14.8284Z" stroke="#333333" stroke-width="2" stroke-linecap="round" stroke-linejoin="round"/>
<path d="M5 9C3.34315 9 2 10.3432 2 12C2 13.6568 3.34315 15 5 15H12C13.6568 15 15 13.6568 15 12C15 10.3432 13.6568 9 12 9H5Z" stroke="#333333" stroke-width="2" stroke-linecap="round" stroke-linejoin="round"/>
<path d="M9.17164 4.92849C8.00004 3.75691 6.10053 3.75691 4.92897 4.92849C3.7574 6.10005 3.7574 7.99955 4.92897 9.17115L9.87874 14.1209C11.0503 15.2925 12.9498 15.2925 14.1213 14.1209C15.2929 12.9493 15.2929 11.0498 14.1214 9.87825L9.17164 4.92849Z" stroke="#333333" stroke-width="2" stroke-linecap="round" stroke-linejoin="round"/>
</g>
<defs>
<clipPath id="clip0_2_20007">
<rect width="24" height="24" fill="white"/>
</clipPath>
</defs>
</svg>
