<svg width="24" height="24" viewBox="0 0 24 24" fill="none" xmlns="http://www.w3.org/2000/svg">
<g clip-path="url(#clip0_2_20575)">
<path d="M24 0H0V24H24V0Z" fill="white" fill-opacity="0.01"/>
<path d="M15 17.25C15 16.2835 15.7835 15.5 16.75 15.5H20.5V17.2C20.5 18.1941 19.6941 19 18.7 19H16.75C15.7835 19 15 18.2165 15 17.25Z" stroke="#333333" stroke-width="2" stroke-linejoin="round"/>
<path d="M3 19.25C3 18.2835 3.7835 17.5 4.75 17.5H8V19.2C8 20.1941 7.1941 21 6.2 21H4.75C3.7835 21 3 20.2165 3 19.25Z" stroke="#333333" stroke-width="2" stroke-linejoin="round"/>
<path d="M8 9.022L20.5 6.0625" stroke="#333333" stroke-width="2" stroke-linecap="round" stroke-linejoin="round"/>
<path d="M8 19V5L20.5 2V16.8462" stroke="#333333" stroke-width="2" stroke-linecap="round" stroke-linejoin="round"/>
</g>
<defs>
<clipPath id="clip0_2_20575">
<rect width="24" height="24" fill="white"/>
</clipPath>
</defs>
</svg>
