<svg width="24" height="24" viewBox="0 0 24 24" fill="none" xmlns="http://www.w3.org/2000/svg">
<g clip-path="url(#clip0_2_19993)">
<path d="M24 0H0V24H24V0Z" fill="white" fill-opacity="0.01"/>
<path d="M8.49375 2C8.554 5.12501 8.3923 7.29321 8.0086 8.50456C7.4331 10.3217 3.04102 15.3814 3.04102 18.051C3.04102 20.7206 6.19325 22.1946 7.8954 21.1893" stroke="#333333" stroke-width="2" stroke-linecap="round"/>
<path d="M16.0011 2C15.8887 5.12501 16.0244 7.29321 16.408 8.50456C16.9835 10.3217 21.4796 14.7248 21.4796 17.6462C21.4796 20.5676 18.2234 22.1946 16.5212 21.1893" stroke="#333333" stroke-width="2" stroke-linecap="round"/>
<path d="M6.50293 17.4173C7.35763 16.9312 8.10093 16.9312 8.73283 17.4173C9.68068 18.1465 9.97808 20.0005 12.0042 20.0005C14.0303 20.0005 15.0236 17.9218 16 17.4173C16.651 17.081 17.3177 17.081 18 17.4173" stroke="#333333" stroke-width="2" stroke-linecap="round"/>
<path d="M10.1426 11.0732C9.74571 11.5005 9.32571 11.977 9.01906 12.8074C8.78661 13.4368 8.74016 13.8018 8.70801 14.2124" stroke="#333333" stroke-width="2" stroke-linecap="round"/>
</g>
<defs>
<clipPath id="clip0_2_19993">
<rect width="24" height="24" fill="white"/>
</clipPath>
</defs>
</svg>
