<svg width="24" height="24" viewBox="0 0 24 24" fill="none" xmlns="http://www.w3.org/2000/svg">
<path d="M12.0002 13.5C9.17155 13.5 7.0325 11.3287 7.0325 8.5L7 3.5L9.50025 5.5L12.0002 2.5L14.5002 5.5L17.0002 3.5V8.5C17.0002 11.3287 14.829 13.5 12.0002 13.5Z" stroke="#333333" stroke-width="2" stroke-miterlimit="10" stroke-linecap="round" stroke-linejoin="round"/>
<path d="M11.7431 21.6569C12.5242 20.8759 11.5744 18.6598 9.62181 16.7072C7.66916 14.7546 5.45311 13.8048 4.67205 14.5858C3.891 15.3669 4.84074 17.583 6.79336 19.5356C8.74601 21.4882 10.9621 22.438 11.7431 21.6569Z" stroke="#333333" stroke-width="2" stroke-miterlimit="10" stroke-linecap="round" stroke-linejoin="round"/>
<path d="M12.4145 21.485C13.1955 22.2661 15.4116 21.3163 17.3642 19.3637C19.3168 17.4111 20.2666 15.195 19.4855 14.414C18.7045 13.6329 16.4884 14.5826 14.5358 16.5353C12.5831 18.4879 11.6334 20.704 12.4145 21.485Z" stroke="#333333" stroke-width="2" stroke-miterlimit="10" stroke-linecap="round" stroke-linejoin="round"/>
</svg>
