<svg width="24" height="24" viewBox="0 0 24 24" fill="none" xmlns="http://www.w3.org/2000/svg">
<g clip-path="url(#clip0_2_19990)">
<path d="M24 0H0V24H24V0Z" fill="white" fill-opacity="0.01"/>
<path d="M2.49951 16.1567L10.017 2.97135C10.479 1.99045 11.3134 1.5 12.5201 1.5C14.3302 1.5 15.5086 3.99313 15.5086 3.99313C15.5086 3.99313 16.1723 4.09201 17.4995 4.28976C15.4944 4.32257 14.335 4.72599 14.0212 5.5C13.5506 6.66105 15.2492 7.8654 15.5086 9.50195C15.7681 11.1384 14.7332 13.9025 12.2441 15.2835C10.5847 16.2041 8.5131 16.443 6.02915 16L2.97922 21.5" stroke="#333333" stroke-width="2" stroke-linecap="round" stroke-linejoin="round"/>
<path fill-rule="evenodd" clip-rule="evenodd" d="M7.47119 13.4895C8.76064 11.1647 9.60844 9.67199 10.0146 9.01129C10.6239 8.02019 13.1372 8.31899 12.2342 10.7926C11.6322 12.4417 10.0445 13.3406 7.47119 13.4895Z" stroke="#333333" stroke-width="2" stroke-linejoin="round"/>
<path fill-rule="evenodd" clip-rule="evenodd" d="M16.4839 16.4918C17.0549 15.1236 17.8887 14.2944 18.9853 14.0044C20.0818 13.7143 21.0819 13.8909 21.9855 14.5341C21.4227 15.8321 20.5886 16.6642 19.483 17.0304C18.3774 17.3967 17.3777 17.2172 16.4839 16.4918Z" stroke="#333333" stroke-width="2" stroke-linejoin="round"/>
<path fill-rule="evenodd" clip-rule="evenodd" d="M13.4927 17.5568C13.8711 18.9177 14.8734 19.8279 16.4996 20.2873C18.1259 20.7468 19.4648 20.4843 20.5162 19.4999C19.2158 17.9847 18.044 17.1529 17.0007 17.0047C15.9575 16.8565 14.7881 17.0405 13.4927 17.5568Z" stroke="#333333" stroke-width="2" stroke-linejoin="round"/>
</g>
<defs>
<clipPath id="clip0_2_19990">
<rect width="24" height="24" fill="white"/>
</clipPath>
</defs>
</svg>
