<svg width="24" height="24" viewBox="0 0 24 24" fill="none" xmlns="http://www.w3.org/2000/svg">
<g clip-path="url(#clip0_2_20090)">
<path d="M24 0H0V24H24V0Z" fill="white" fill-opacity="0.01"/>
<path fill-rule="evenodd" clip-rule="evenodd" d="M10.25 16.5C11.233 16.5 11.6452 14.731 12.5 14.3765C13.3862 14.0091 14.7087 15.0443 15.3765 14.3765C16.0444 13.7087 15.2237 12.2256 15.5912 11.3394C15.9456 10.4846 17.5 10.233 17.5 9.24998C17.5 8.26703 15.731 8.02953 15.3765 7.17473C15.0091 6.28863 16.0444 4.79128 15.3765 4.12348C14.7087 3.45567 13.1328 4.49093 12.2466 4.12348C11.3918 3.76902 11.233 2 10.25 2C9.267 2 9.00205 3.98231 8.14725 4.33676C7.2611 4.70421 5.7913 3.45567 5.1235 4.12348C4.45567 4.79128 5.49095 6.11383 5.1235 6.99998C4.76902 7.85478 3 8.26703 3 9.24998C3 10.233 4.76902 10.4846 5.1235 11.3394C5.49095 12.2256 4.45567 13.7087 5.1235 14.3765C5.7913 15.0443 7.2611 14.0091 8.14725 14.3765C9.00205 14.731 9.267 16.5 10.25 16.5Z" stroke="#333333" stroke-width="2" stroke-linejoin="round"/>
<path d="M10 11C11.1046 11 12 10.1046 12 9C12 7.89545 11.1046 7 10 7C8.89545 7 8 7.89545 8 9C8 10.1046 8.89545 11 10 11Z" stroke="#333333" stroke-width="2" stroke-linejoin="round"/>
<path d="M8.28459 15C7.68054 18.3995 8.03809 20.5272 9.35719 21.383C11.3359 22.6669 12.7241 21.6635 13.4484 20.9276C14.1727 20.1918 16.5247 16.972 18.5381 16.972C20.5515 16.972 21.1575 18.9121 20.9667 19.972C20.8395 20.6785 20.511 21.2012 19.9812 21.5399" stroke="#333333" stroke-width="2" stroke-linecap="round"/>
</g>
<defs>
<clipPath id="clip0_2_20090">
<rect width="24" height="24" fill="white"/>
</clipPath>
</defs>
</svg>
