<svg width="24" height="24" viewBox="0 0 24 24" fill="none" xmlns="http://www.w3.org/2000/svg">
<g clip-path="url(#clip0_2_20095)">
<path d="M24 0H0V24H24V0Z" fill="white" fill-opacity="0.01"/>
<path d="M3 9C3 6.17155 3 4.75736 3.87868 3.87868C4.75736 3 6.17155 3 9 3H10V21H9C6.17155 21 4.75736 21 3.87868 20.1213C3 19.2426 3 17.8284 3 15V9Z" stroke="#333333" stroke-width="2" stroke-linecap="round" stroke-linejoin="round"/>
<path d="M21 9C21 6.17155 21 4.75736 20.1213 3.87868C19.2426 3 17.8284 3 15 3H14V21H15C17.8284 21 19.2426 21 20.1213 20.1213C21 19.2426 21 17.8284 21 15V9Z" stroke="#333333" stroke-width="2" stroke-linecap="round" stroke-linejoin="round"/>
<path d="M17.5 6.5V7.5" stroke="#333333" stroke-width="2" stroke-linecap="round" stroke-linejoin="round"/>
<path d="M6.5 16.5V17.5" stroke="#333333" stroke-width="2" stroke-linecap="round" stroke-linejoin="round"/>
</g>
<defs>
<clipPath id="clip0_2_20095">
<rect width="24" height="24" fill="white"/>
</clipPath>
</defs>
</svg>
