<svg width="24" height="24" viewBox="0 0 24 24" fill="none" xmlns="http://www.w3.org/2000/svg">
<g clip-path="url(#clip0_2_20513)">
<path d="M24 0H0V24H24V0Z" fill="white" fill-opacity="0.01"/>
<path d="M12 22C17.5229 22 22 17.5229 22 12C22 6.47715 17.5229 2 12 2C6.47715 2 2 6.47715 2 12C2 17.5229 6.47715 22 12 22Z" stroke="#333333" stroke-width="2"/>
<path d="M16.2426 7.75735C15.1568 6.67155 13.6568 6 12 6C10.3431 6 8.84312 6.67155 7.75732 7.75735" stroke="#333333" stroke-width="2" stroke-linecap="round"/>
<path d="M17 12H7V16H17V12Z" stroke="#333333" stroke-width="2" stroke-linejoin="round"/>
<path d="M8.5227 16L8.5 21.3573" stroke="#333333" stroke-width="2" stroke-linecap="round"/>
<path d="M15.5227 16L15.5 21.3573" stroke="#333333" stroke-width="2" stroke-linecap="round"/>
</g>
<defs>
<clipPath id="clip0_2_20513">
<rect width="24" height="24" fill="white"/>
</clipPath>
</defs>
</svg>
