<svg width="24" height="24" viewBox="0 0 24 24" fill="none" xmlns="http://www.w3.org/2000/svg">
<path d="M7.5 6L9 3H15L16.5 6H7.5Z" stroke="#333333" stroke-width="2" stroke-linejoin="round"/>
<path d="M20.5 6H3.5C2.67158 6 2 6.6268 2 7.4V19.6C2 20.3732 2.67158 21 3.5 21H20.5C21.3285 21 22 20.3732 22 19.6V7.4C22 6.6268 21.3285 6 20.5 6Z" stroke="#333333" stroke-width="2" stroke-linejoin="round"/>
<path d="M14 10L10 17" stroke="#333333" stroke-width="2" stroke-linecap="round" stroke-linejoin="round"/>
<path d="M12 17.5C14.2091 17.5 16 15.7091 16 13.5C16 11.2909 14.2091 9.5 12 9.5C9.79086 9.5 8 11.2909 8 13.5C8 15.7091 9.79086 17.5 12 17.5Z" stroke="#333333" stroke-width="2" stroke-linecap="round"/>
</svg>
