<svg width="24" height="24" viewBox="0 0 24 24" fill="none" xmlns="http://www.w3.org/2000/svg">
<g clip-path="url(#clip0_2_20270)">
<path d="M24 0H0V24H24V0Z" fill="white" fill-opacity="0.01"/>
<path d="M9 4H5.5C5.22385 4 5 4.22386 5 4.5V21.5C5 21.7761 5.22385 22 5.5 22H19.5C19.7761 22 20 21.7761 20 21.5V4.5C20 4.22386 19.7761 4 19.5 4H16" stroke="#333333" stroke-width="2"/>
<path d="M9 6.5V4H10.9753C10.9889 4 11 3.98892 11 3.97525V3C11 2.17158 11.6715 1.5 12.5 1.5C13.3285 1.5 14 2.17158 14 3V3.97525C14 3.98892 14.0111 4 14.0247 4H16V6.5C16 6.77615 15.7761 7 15.5 7H9.5C9.22385 7 9 6.77615 9 6.5Z" stroke="#333333" stroke-width="2"/>
</g>
<defs>
<clipPath id="clip0_2_20270">
<rect width="24" height="24" fill="white"/>
</clipPath>
</defs>
</svg>
