<svg width="24" height="24" viewBox="0 0 24 24" fill="none" xmlns="http://www.w3.org/2000/svg">
<path d="M2 22H22" stroke="#333333" stroke-width="2" stroke-linecap="round" stroke-linejoin="round"/>
<path d="M6 7H18" stroke="#333333" stroke-width="2" stroke-linecap="round" stroke-linejoin="round"/>
<path d="M7 7H12H17L17.4386 10.5087C17.4795 10.8354 17.5524 11.1573 17.6565 11.4697L19.3237 16.4711C19.4408 16.8226 19.5186 17.1861 19.5555 17.5548L20 22H4L4.44452 17.5548C4.48139 17.1861 4.55913 16.8226 4.67629 16.4711L6.34345 11.4697C6.44755 11.1573 6.52055 10.8354 6.5614 10.5087L7 7Z" stroke="#333333" stroke-width="2" stroke-linejoin="round"/>
<path d="M12 4L12.4142 3.58578C12.7893 3.21071 13.298 3 13.8285 3H14.1715C14.702 3 15.2107 2.78929 15.5858 2.41422L16 2" stroke="#333333" stroke-width="2" stroke-linecap="round" stroke-linejoin="round"/>
<path d="M8.5 15.5C8.5 16.4364 8.8677 17.2869 9.46665 17.915C9.79455 18.2589 10.1918 18.5361 10.6359 18.7242" stroke="#333333" stroke-width="2" stroke-linecap="round"/>
<path d="M15.5 15.5C15.5 16.4364 15.1322 17.2869 14.5333 17.915C14.2054 18.2589 13.8082 18.5361 13.364 18.7242" stroke="#333333" stroke-width="2" stroke-linecap="round"/>
<path d="M9.46655 13.085C10.104 12.4166 11.0033 12 11.9999 12C12.9965 12 13.8959 12.4166 14.5333 13.085" stroke="#333333" stroke-width="2" stroke-linecap="round"/>
<path d="M12 16.5C12.5523 16.5 13 16.0523 13 15.5C13 14.9477 12.5523 14.5 12 14.5C11.4477 14.5 11 14.9477 11 15.5C11 16.0523 11.4477 16.5 12 16.5Z" fill="#333333"/>
</svg>
