<svg width="24" height="24" viewBox="0 0 24 24" fill="none" xmlns="http://www.w3.org/2000/svg">
<path d="M18.8494 3C18.586 3.26722 17.6197 4.33614 17.0048 4.87059C16.917 5.1378 18.0589 6.2067 18.3224 6.47395C18.5859 6.7412 21.7479 4.87059 21.4844 4.60336C21.2736 4.38958 19.6399 3.44538 18.8494 3Z" stroke="#333333" stroke-width="2" stroke-linecap="round" stroke-linejoin="round"/>
<path d="M5.68595 8.36109C5.68 8.31724 5.6751 8.27334 5.6712 8.22949C4.72795 9.14489 4.00824 10.1955 3.52135 11.3003C4.31792 11.4672 4.91611 12.1737 4.91611 13.0199C4.91611 13.9902 4.1295 14.7768 3.15917 14.7768C3.02479 14.7768 2.89394 14.7617 2.7682 14.7331C2.75788 16.5062 3.34263 18.2106 4.55827 19.5338C6.31055 21.4411 8.96285 22.1092 11.5735 21.5659C13.1799 21.2316 14.7705 20.4386 16.1259 19.1934C16.7977 18.5762 17.3637 17.8921 17.8208 17.1676C16.7086 17.5026 15.4834 16.9616 15.0204 15.8689C14.7893 15.3234 14.3099 14.9225 13.7322 14.7914L12.8909 14.6005C11.9254 14.3814 11.1313 13.698 10.7707 12.776L10.7254 12.6602C10.3294 11.6479 9.3818 10.9575 8.29685 10.8908C6.9667 10.8091 5.87985 9.79849 5.7017 8.47779L5.68595 8.36109Z" stroke="#333333" stroke-width="2" stroke-linecap="round" stroke-linejoin="round"/>
<path d="M6.57717 5.8287L6.45132 5.96325C5.84927 6.6069 5.56832 7.48705 5.68617 8.36045L5.70192 8.4772C5.88007 9.7979 6.96692 10.8085 8.29707 10.8902C9.38202 10.9569 10.3296 11.6473 10.7255 12.6596L10.7708 12.7754C11.1315 13.6974 11.9256 14.3808 12.8911 14.5999L13.7324 14.7908C14.3101 14.9219 14.7895 15.3228 15.0206 15.8683C15.5186 17.0435 16.8979 17.5804 18.0704 17.0761C19.2547 16.5666 20.1124 15.4767 20.3117 14.203L20.4157 13.5384C20.4717 13.1802 20.4884 12.8171 20.4654 12.4553L20.4117 11.6101C20.3035 9.9079 19.6938 8.27585 18.6594 6.91965L18.5334 6.75455C17.6579 5.60655 16.4842 4.72065 15.1403 4.19319C13.9785 3.73726 12.7253 3.56323 11.4833 3.68536L10.7807 3.75445C9.17412 3.91243 7.67997 4.64973 6.57717 5.8287Z" stroke="#333333" stroke-width="2" stroke-linecap="round" stroke-linejoin="round"/>
</svg>
