<svg width="24" height="24" viewBox="0 0 24 24" fill="none" xmlns="http://www.w3.org/2000/svg">
<g clip-path="url(#clip0_2_19980)">
<path d="M24 0H0V24H24V0Z" fill="white" fill-opacity="0.01"/>
<path fill-rule="evenodd" clip-rule="evenodd" d="M12 21C12.4326 21 13.4251 21 14.9775 21C15.019 19.6315 15.2196 18.8791 15.5793 18.7426C19.3342 17.3178 22 13.7169 22 9.5H2C2 13.6257 4.55159 17.1617 8.1784 18.647C8.55755 18.8023 8.84075 19.5867 9.028 21C10.5428 21 11.5335 21 12 21Z" stroke="#333333" stroke-width="2" stroke-linejoin="round"/>
<path d="M7.22168 13.0107C7.40148 13.6047 7.63928 14.095 7.93508 14.4818C8.22418 14.86 8.58093 15.2107 9.00518 15.5339" stroke="#333333" stroke-width="2" stroke-linecap="round"/>
<path d="M20.25 9.49826C19.9148 8.09231 19.2361 6.82151 18.3086 5.78126M16.1005 4.0088C15.4705 3.65709 14.7914 3.38392 14.0764 3.20237L16.1005 4.0088ZM11.0253 3C7.46365 3.4113 4.5721 6.04886 3.75 9.50001L11.0253 3Z" stroke="#333333" stroke-width="2" stroke-linecap="round"/>
</g>
<defs>
<clipPath id="clip0_2_19980">
<rect width="24" height="24" fill="white"/>
</clipPath>
</defs>
</svg>
