<svg width="24" height="24" viewBox="0 0 24 24" fill="none" xmlns="http://www.w3.org/2000/svg">
<g clip-path="url(#clip0_2_21753)">
<path d="M24 0H0V24H24V0Z" fill="white" fill-opacity="0.01"/>
<path d="M10.7412 4.2373L11.9401 8.31359H2.37878L3.60766 4.2373H10.7412Z" fill="#333333"/>
<path d="M4.56675 9.0625L8.67305 10.0516L3.90737 18.3241L1 15.2369L4.56675 9.0625Z" fill="#333333"/>
<path d="M5.64575 16.8255L8.5531 13.7383L13.3488 22.0108L9.2125 22.9999L5.64575 16.8255Z" fill="#333333"/>
<path d="M20.0328 19.7328H12.8993L11.7003 15.6865H21.2617" fill="#333333"/>
<path d="M22.6403 8.73303L19.0735 14.9374L14.9673 13.9483L19.7329 5.67578" fill="#333333"/>
<path d="M17.9945 7.1744L15.0872 10.2616L10.2915 1.95913L14.4278 1L17.9945 7.1744Z" fill="#333333"/>
</g>
<defs>
<clipPath id="clip0_2_21753">
<rect width="24" height="24" fill="white"/>
</clipPath>
</defs>
</svg>
