<svg width="24" height="24" viewBox="0 0 24 24" fill="none" xmlns="http://www.w3.org/2000/svg">
<path d="M7.7051 21.1943L2.78038 16.0906C2.60052 15.9041 2.5 15.6553 2.5 15.3962V8.6038C2.5 8.34475 2.60052 8.09585 2.78038 7.9094L7.7051 2.80563C7.89355 2.61032 8.1533 2.5 8.4247 2.5H15.5753C15.8467 2.5 16.1065 2.61032 16.2949 2.80563L21.2196 7.9094C21.3995 8.09585 21.5 8.34475 21.5 8.6038V15.3962C21.5 15.6553 21.3995 15.9041 21.2196 16.0906L16.2949 21.1943C16.1065 21.3897 15.8467 21.5 15.5753 21.5H8.4247C8.1533 21.5 7.89355 21.3897 7.7051 21.1943Z" stroke="#333333" stroke-width="2"/>
</svg>
