<svg width="24" height="24" viewBox="0 0 24 24" fill="none" xmlns="http://www.w3.org/2000/svg">
<path d="M7.5569 12.4736C6.35575 13.8464 6.14345 15.5169 6.2322 16.6786C6.27435 17.2308 6.83445 17.5352 7.34885 17.3299C7.72105 17.1814 8.1287 16.996 8.42225 16.8003C9.2876 16.2234 8.99915 15.6465 9.2876 14.7812C9.57605 13.9159 10.8462 13.2119 12 13.5004C13.1538 13.7888 13.6143 14.7812 13.6143 15.6465C13.6143 16.5119 13.25 17.5004 12.1721 17.9541C10.9831 18.4546 10.4414 17.9541 8.99915 17.6657C8.24755 17.5154 7.496 18.1728 7.06335 18.6495C6.81835 18.9194 6.7921 19.3122 7.0046 19.6083C7.14895 19.8094 7.33515 20.04 7.5569 20.2617C8.1338 20.8386 10.4414 22.5693 12.749 22.2809C15.0565 21.9924 17.0757 20.2617 17.941 18.2426C18.8064 16.2234 18.2295 13.9159 16.7872 12.1852C15.345 10.4545 12.749 10.166 12.1721 10.166C11.5952 10.166 9.57605 10.166 7.5569 12.4736Z" stroke="#333333" stroke-width="2" stroke-linecap="round" stroke-linejoin="round"/>
<path d="M15.7811 11.3196L6.32164 4.08581C6.12254 3.93358 5.83804 3.9503 5.68959 4.15221C5.33314 4.63706 4.99644 5.40579 5.53774 6.12749C6.22999 7.05054 8.90294 9.39659 10.1528 10.4542" stroke="#333333" stroke-width="2" stroke-linecap="round" stroke-linejoin="round"/>
<path d="M17.5 13.0001L11.5705 2.09929C11.4508 1.87926 11.1843 1.77853 10.9665 1.90218C10.4431 2.19927 9.8218 2.76368 10.0214 3.6436C10.2766 4.76881 11.2906 6.77441 12 8.25011" stroke="#333333" stroke-width="2" stroke-linecap="round" stroke-linejoin="round"/>
<path d="M18 13.9999L17.5252 3.84604C17.5135 3.59601 17.3179 3.3892 17.0681 3.40516C16.4675 3.44354 15.6616 3.6795 15.4565 4.55836C15.1943 5.68198 15.0069 7.36258 15 8.99993" stroke="#333333" stroke-width="2" stroke-linecap="round" stroke-linejoin="round"/>
</svg>
