<svg width="24" height="24" viewBox="0 0 24 24" fill="none" xmlns="http://www.w3.org/2000/svg">
<path d="M5.50002 20.0003L3.46977 15.6014C2.92251 14.4157 3.3801 13.0085 4.52012 12.3714L10.1486 9.2261C10.6663 8.9368 11.3059 8.9797 11.7803 9.3355L12.2935 9.72045C12.6045 9.95365 13.0509 9.7585 13.0909 9.3719L13.6854 3.62495C13.7267 3.22532 13.9267 2.85898 14.2404 2.608L14.3482 2.52176C14.7193 2.22489 15.2542 2.25452 15.5903 2.59055C15.8526 2.85291 16 3.20874 16 3.57976V14.71C16 15.1292 16.4848 15.3625 16.8122 15.1006L18.5 13.7503C19.3265 13.0891 20.4375 13.5208 21.1275 13.9728C21.3468 14.1164 21.3794 14.4135 21.2235 14.6244L17.25 20.0003C17.25 20.0003 15.5 22.0003 11.5 22.0003C7.50002 22.0003 5.83337 20.6669 5.50002 20.0003Z" stroke="#333333" stroke-width="2"/>
</svg>
