<svg width="24" height="24" viewBox="0 0 24 24" fill="none" xmlns="http://www.w3.org/2000/svg">
<path d="M3.5 10.5L2 5.5C2.91667 4.83333 6.5 2.5 12 2.5C17.5 2.5 21 4.83333 22 5.5L20.5 10.5H17V18.5C17 20.5 15.5 22 13.5 22H10.5C8.5 22 7 20.5 7 18.5V10.5H3.5Z" stroke="#333333" stroke-width="2" stroke-linecap="round" stroke-linejoin="round"/>
<path d="M17 17C17 17 12.5 17 12.5 22" stroke="#333333" stroke-width="2" stroke-linecap="round" stroke-linejoin="round"/>
<path d="M7 17C7 17 11.5 17 11.5 22" stroke="#333333" stroke-width="2" stroke-linecap="round" stroke-linejoin="round"/>
<path d="M14.9055 2.75C14.9672 2.98971 15 3.24103 15 3.5C15 5.15685 13.6568 6.5 12 6.5C10.3432 6.5 9 5.15685 9 3.5C9 3.24103 9.0328 2.98971 9.0945 2.75" stroke="#333333" stroke-width="2" stroke-linecap="round" stroke-linejoin="round"/>
<path d="M18 3.49498C16.4057 2.94134 14.392 2.5 12 2.5C9.60802 2.5 7.57852 2.94134 5.97327 3.49498" stroke="#333333" stroke-width="2" stroke-linecap="round" stroke-linejoin="round"/>
<path d="M7 15.5C7 15.5 7 17.9375 7 18.5" stroke="#333333" stroke-width="2" stroke-linecap="round" stroke-linejoin="round"/>
<path d="M17 15.5C17 15.5 17 17.9375 17 18.5" stroke="#333333" stroke-width="2" stroke-linecap="round" stroke-linejoin="round"/>
<path d="M10.5 22C12.5 22 12 22 13.5 22" stroke="#333333" stroke-width="2" stroke-linecap="round" stroke-linejoin="round"/>
</svg>
