<svg width="24" height="24" viewBox="0 0 24 24" fill="none" xmlns="http://www.w3.org/2000/svg">
<path d="M13.9732 8.41394L20.3783 3.86844C20.8364 3.54331 21.4766 3.70335 21.7278 4.20584C21.8927 4.53551 21.8439 4.93187 21.604 5.21174L20.4999 6.49989L17.8619 10.0171C17.6393 10.314 17.5993 10.7098 17.7582 11.0452L21.3234 18.5718C21.6377 19.2352 21.1538 19.9999 20.4197 19.9999H16.318C15.8421 19.9999 15.4321 19.6644 15.3379 19.1979L13.7597 11.3868L13.5568 9.32754C13.5216 8.97034 13.6805 8.62169 13.9732 8.41394Z" stroke="#333333" stroke-width="2" stroke-linecap="round" stroke-linejoin="round"/>
<path d="M14 11.5L17.5 10.5" stroke="#333333" stroke-width="2" stroke-linecap="round" stroke-linejoin="round"/>
<path d="M9.96785 8.55104L3.6042 4.09751C3.15302 3.78176 2.52683 3.93821 2.27718 4.42906C2.10963 4.75848 2.15896 5.15664 2.40185 5.43519L3.4999 6.69454L6.11605 10.0127C6.3512 10.311 6.39705 10.7167 6.2345 11.06L2.67636 18.5715C2.3621 19.235 2.84598 19.9996 3.5801 19.9996H7.6609C8.14615 19.9996 8.56135 19.6513 8.6457 19.1734L9.9999 11.4996L10.3762 9.56084C10.4514 9.17314 10.2914 8.77749 9.96785 8.55104Z" stroke="#333333" stroke-width="2" stroke-linecap="round" stroke-linejoin="round"/>
<path d="M6.5 10.5L10 11.5" stroke="#333333" stroke-width="2" stroke-linecap="round" stroke-linejoin="round"/>
</svg>
