<svg width="24" height="24" viewBox="0 0 24 24" fill="none" xmlns="http://www.w3.org/2000/svg">
<g clip-path="url(#clip0_2_21430)">
<path d="M24 0H0V24H24V0Z" fill="white" fill-opacity="0.01"/>
<path fill-rule="evenodd" clip-rule="evenodd" d="M8.52986 4.80757C11.5543 5.44191 12.1368 6.51951 12.1377 6.52086C11.0193 0.0575233 7.59511 1.63975 6.86616 2.01441C6.77536 2.06114 6.71306 2.14802 6.70021 2.24939C6.63586 2.75645 6.56221 4.39496 8.52986 4.80757Z" fill="#333333"/>
<path fill-rule="evenodd" clip-rule="evenodd" d="M7.32665 11.3461C7.0395 12.1433 6.95335 13.0372 7.1081 13.9595C7.49615 16.2717 9.40815 17.9474 11.6428 18.1301L12.4078 18.4023C12.7082 18.4994 13.1015 18.5953 13.5632 18.6625C14.2463 18.762 14.9469 18.7768 15.6403 18.6784C17.3235 18.4396 18.742 17.573 19.7295 15.9277L19.9518 15.5394C19.3459 18.8777 16.9684 21.9479 13.169 22.6593C10.5242 23.1545 8.02375 22.4722 6.15555 20.9857L6.1773 21.0283C4.94292 18.6323 4.72204 16.472 5.2873 14.5458C5.5579 13.6236 6.02655 12.7992 6.64045 12.068C6.85605 11.8112 7.0813 11.5757 7.3133 11.3587L7.32665 11.3461ZM8.6943 7.16786C9.94905 6.96981 11.997 6.98116 13.146 8.26436C13.1623 8.28251 13.1462 8.31141 13.1222 8.30651C12.5087 8.18131 11.6764 8.17881 11.0374 8.28611C9.6904 8.51211 8.60515 9.23011 7.90585 10.2274L7.65995 10.4135C7.54725 10.5005 7.4272 10.5948 7.3453 10.6633C6.96685 10.9797 6.601 11.3374 6.2575 11.7465C5.60155 12.5278 5.0989 13.412 4.80753 14.405C4.29944 16.1364 4.38745 18.0402 5.2052 20.1013C4.49105 19.3239 3.91603 18.4037 3.52232 17.3727C2.60415 14.968 2.88393 11.8384 4.46131 9.81856C5.5864 8.37786 7.24365 7.39681 8.6943 7.16786ZM15.8402 3.51958C18.1414 0.438576 20.9011 2.69051 21.2639 3.00924C21.2906 3.03278 21.3072 3.0646 21.3108 3.09991C21.36 3.57714 21.489 7.02196 14.8605 6.90561C16.6648 7.34791 18.5777 8.85166 19.3783 10.5025C19.6465 11.0559 19.8533 11.6319 19.9629 12.2369C20.0694 12.8248 20.1157 13.4261 20.1036 14.0288C20.0772 14.168 19.9862 14.3964 19.8448 14.6816L19.7874 14.7952L19.6675 15.0217L19.3914 15.5147C18.4809 17.1271 17.1618 17.9576 15.5701 18.1834C14.9275 18.2745 14.2739 18.2607 13.6352 18.1677C13.4112 18.1351 13.2048 18.0954 13.0196 18.0523C14.4166 17.7792 15.569 16.9468 16.2833 15.8287C16.4483 15.6087 16.5887 15.3663 16.6986 15.0961C17.2015 13.8582 17.2681 12.6248 16.8783 11.2416C16.2542 9.02766 14.5826 7.40731 12.4734 6.68076C12.4551 6.67441 12.4547 6.64906 12.4734 6.64366C12.7504 6.56336 13.9201 6.09026 15.8402 3.51958Z" fill="#333333"/>
</g>
<defs>
<clipPath id="clip0_2_21430">
<rect width="24" height="24" fill="white"/>
</clipPath>
</defs>
</svg>
