<svg width="24" height="24" viewBox="0 0 24 24" fill="none" xmlns="http://www.w3.org/2000/svg">
<path d="M20.5 13C20.5 17.9705 17.5 22 12 22C6.5 22 3.5 17.9705 3.5 13C3.5 11.1599 4.05223 9.44872 5 8.02327C6.6124 5.59822 8.86955 6.49997 12 6.49997C15.1305 6.49997 17.3876 5.59822 19 8.02327C19.9477 9.44872 20.5 11.1599 20.5 13Z" stroke="#333333" stroke-width="2" stroke-linecap="round" stroke-linejoin="round"/>
<path d="M13 6.5L14.5 4.5H13L12 3.5L11 4.5H9.5L11 6.5" stroke="#333333" stroke-width="2" stroke-linecap="round" stroke-linejoin="round"/>
<path d="M9 11C9.55228 11 10 10.5523 10 10C10 9.44772 9.55228 9 9 9C8.44772 9 8 9.44772 8 10C8 10.5523 8.44772 11 9 11Z" fill="#333333"/>
<path d="M7.5 14.5C8.05228 14.5 8.5 14.0523 8.5 13.5C8.5 12.9477 8.05228 12.5 7.5 12.5C6.94772 12.5 6.5 12.9477 6.5 13.5C6.5 14.0523 6.94772 14.5 7.5 14.5Z" fill="#333333"/>
<path d="M10.5 13.5C11.0523 13.5 11.5 13.0523 11.5 12.5C11.5 11.9477 11.0523 11.5 10.5 11.5C9.94772 11.5 9.5 11.9477 9.5 12.5C9.5 13.0523 9.94772 13.5 10.5 13.5Z" fill="#333333"/>
<path d="M9 17C9.55228 17 10 16.5523 10 16C10 15.4477 9.55228 15 9 15C8.44772 15 8 15.4477 8 16C8 16.5523 8.44772 17 9 17Z" fill="#333333"/>
</svg>
