<svg width="24" height="24" viewBox="0 0 24 24" fill="none" xmlns="http://www.w3.org/2000/svg">
<g clip-path="url(#clip0_2_20772)">
<path d="M24 0H0V24H24V0Z" fill="white" fill-opacity="0.01"/>
<path fill-rule="evenodd" clip-rule="evenodd" d="M11.5141 18.0002L17.0013 21.4996V12.0002C20.8385 9.39504 22.248 6.98939 21.2299 4.78321C19.7027 1.47397 17.2302 1.69215 15.5034 2.50111C14.3522 3.04042 13.5177 4.54691 12.9999 7.02059C11.4808 3.78758 9.34755 2.17107 6.6001 2.17107C2.47894 2.17107 2.147 7.03264 2.7375 8.22324C3.328 9.41389 3.88639 10.0563 6.50035 12.0002C6.46275 17.7818 6.70305 20.8911 7.2213 21.3281C8.17175 22.0644 9.6027 20.9551 11.5141 18.0002Z" stroke="#333333" stroke-width="2" stroke-linejoin="round"/>
<path d="M13.5 12.5V15.5" stroke="#333333" stroke-width="2" stroke-linecap="round"/>
</g>
<defs>
<clipPath id="clip0_2_20772">
<rect width="24" height="24" fill="white"/>
</clipPath>
</defs>
</svg>
