<svg width="24" height="24" viewBox="0 0 24 24" fill="none" xmlns="http://www.w3.org/2000/svg">
<path d="M3.5 4.5V12C3.5 13.6568 4.84315 15 6.5 15H17.5C19.1568 15 20.5 13.6568 20.5 12V4.5" stroke="#333333" stroke-width="2" stroke-linecap="round" stroke-linejoin="round"/>
<path d="M3.5 5C3.5 3.34315 4.84315 2 6.5 2H17.5C19.1568 2 20.5 3.34315 20.5 5C20.5 6.65685 19.1568 8 17.5 8H6.5C4.84315 8 3.5 6.65685 3.5 5Z" stroke="#333333" stroke-width="2" stroke-linecap="round" stroke-linejoin="round"/>
<path d="M7.5 6C8.05228 6 8.5 5.55228 8.5 5C8.5 4.44772 8.05228 4 7.5 4C6.94772 4 6.5 4.44772 6.5 5C6.5 5.55228 6.94772 6 7.5 6Z" fill="#333333"/>
<path d="M10.5 6C11.0523 6 11.5 5.55228 11.5 5C11.5 4.44772 11.0523 4 10.5 4C9.94772 4 9.5 4.44772 9.5 5C9.5 5.55228 9.94772 6 10.5 6Z" fill="#333333"/>
<path d="M13.5 6C14.0523 6 14.5 5.55228 14.5 5C14.5 4.44772 14.0523 4 13.5 4C12.9477 4 12.5 4.44772 12.5 5C12.5 5.55228 12.9477 6 13.5 6Z" fill="#333333"/>
<path d="M16.5 6C17.0523 6 17.5 5.55228 17.5 5C17.5 4.44772 17.0523 4 16.5 4C15.9477 4 15.5 4.44772 15.5 5C15.5 5.55228 15.9477 6 16.5 6Z" fill="#333333"/>
<path d="M9.5 15V22" stroke="#333333" stroke-width="2" stroke-linecap="round" stroke-linejoin="round"/>
<path d="M14.5 15V22" stroke="#333333" stroke-width="2" stroke-linecap="round" stroke-linejoin="round"/>
</svg>
