<svg width="24" height="24" viewBox="0 0 24 24" fill="none" xmlns="http://www.w3.org/2000/svg">
<path d="M20 12H12" stroke="#333333" stroke-width="2" stroke-linecap="round" stroke-linejoin="round"/>
<path d="M17 9L20 12L17 15" stroke="#333333" stroke-width="2" stroke-linecap="round" stroke-linejoin="round"/>
<path d="M10 14C11.1046 14 12 13.1046 12 12C12 10.8954 11.1046 10 10 10C8.89543 10 8 10.8954 8 12C8 13.1046 8.89543 14 10 14Z" stroke="#333333" stroke-width="2"/>
<path d="M20.353 6.5C19.9607 5.90545 19.5066 5.35525 19 4.85856C17.1962 3.09032 14.7255 2 12 2C6.47715 2 2 6.47715 2 12C2 17.5229 6.47715 22 12 22C14.7255 22 17.1962 20.9097 19 19.1415C19.5066 18.6448 19.9607 18.0946 20.353 17.5" stroke="#333333" stroke-width="2" stroke-linecap="round"/>
</svg>
