<svg width="24" height="24" viewBox="0 0 24 24" fill="none" xmlns="http://www.w3.org/2000/svg">
<g clip-path="url(#clip0_2_19951)">
<path d="M24 0H0V24H24V0Z" fill="white" fill-opacity="0.01"/>
<path d="M9 17.5C9 16.3954 8.10455 15.5 7 15.5C5.89545 15.5 5 16.3954 5 17.5C5 18.6046 5.89545 19.5 7 19.5C8.10455 19.5 9 18.6046 9 17.5Z" stroke="#333333" stroke-width="2" stroke-linejoin="round"/>
<path d="M18.5 17.5C18.5 16.3954 17.6046 15.5 16.5 15.5C15.3954 15.5 14.5 16.3954 14.5 17.5C14.5 18.6046 15.3954 19.5 16.5 19.5C17.6046 19.5 18.5 18.6046 18.5 17.5Z" stroke="#333333" stroke-width="2" stroke-linejoin="round"/>
<path d="M2 17.5H5" stroke="#333333" stroke-width="2" stroke-linecap="round"/>
<path d="M9 17.5H14.5" stroke="#333333" stroke-width="2" stroke-linecap="round"/>
<path d="M18.5 17.5H22" stroke="#333333" stroke-width="2" stroke-linecap="round"/>
<path d="M19 9.5L22 6.5L19 3.5" stroke="#333333" stroke-width="2" stroke-linecap="round" stroke-linejoin="round"/>
<path d="M2 6.5H22" stroke="#333333" stroke-width="2" stroke-linecap="round" stroke-linejoin="round"/>
</g>
<defs>
<clipPath id="clip0_2_19951">
<rect width="24" height="24" fill="white"/>
</clipPath>
</defs>
</svg>
