<svg width="24" height="24" viewBox="0 0 24 24" fill="none" xmlns="http://www.w3.org/2000/svg">
<g clip-path="url(#clip0_2_19949)">
<path d="M24 0H0V24H24V0Z" fill="white" fill-opacity="0.01"/>
<path d="M24 0H0V24H24V0Z" fill="white" fill-opacity="0.01"/>
<path d="M11.8919 5.18646C9.33695 2.90668 6.3224 2.07398 4.12905 3.3403C1.02014 5.13521 0.738455 10.4676 3.49988 15.2506C5.3154 18.3951 7.99425 20.5193 10.5 21.0955" stroke="#333333" stroke-width="2" stroke-linecap="round" stroke-linejoin="round"/>
<path d="M9.12903 8.75056C6.36763 13.5335 6.64928 18.8659 9.75818 20.6608C12.8671 22.4557 17.6259 20.0335 20.3874 15.2506C23.1488 10.4676 22.8671 5.13521 19.7582 3.3403C16.6493 1.54537 11.8904 3.96763 9.12903 8.75056Z" stroke="#333333" stroke-width="2" stroke-linecap="round" stroke-linejoin="round"/>
</g>
<defs>
<clipPath id="clip0_2_19949">
<rect width="24" height="24" fill="white"/>
</clipPath>
</defs>
</svg>
