<svg width="24" height="24" viewBox="0 0 24 24" fill="none" xmlns="http://www.w3.org/2000/svg">
<g clip-path="url(#clip0_2_21105)">
<path d="M24 0H0V24H24V0Z" fill="white" fill-opacity="0.01"/>
<path d="M24 0H0V24H24V0Z" fill="white" fill-opacity="0.01"/>
<path d="M14.7582 8.75056C17.5196 13.5335 17.238 18.8659 14.1291 20.6608C11.0202 22.4557 6.2613 20.0335 3.49988 15.2506C0.738455 10.4676 1.02014 5.13521 4.12905 3.3403C7.23795 1.54537 11.9968 3.96763 14.7582 8.75056Z" stroke="#333333" stroke-width="2" stroke-linecap="round" stroke-linejoin="round"/>
<path d="M9.12903 8.75056C6.36763 13.5335 6.64928 18.8659 9.75818 20.6608C12.8671 22.4557 17.6259 20.0335 20.3874 15.2506C23.1488 10.4676 22.8671 5.13521 19.7582 3.3403C16.6493 1.54537 11.8904 3.96763 9.12903 8.75056Z" stroke="#333333" stroke-width="2" stroke-linecap="round" stroke-linejoin="round"/>
<path d="M11.8763 5.17188C12.9488 6.12572 13.9409 7.33437 14.7581 8.74977C17.5195 13.5327 17.2378 18.8651 14.1289 20.66C13.4799 21.0348 12.7589 21.2257 11.9992 21.2497" stroke="#333333" stroke-width="2" stroke-linecap="round" stroke-linejoin="round"/>
</g>
<defs>
<clipPath id="clip0_2_21105">
<rect width="24" height="24" fill="white"/>
</clipPath>
</defs>
</svg>
