<svg width="24" height="24" viewBox="0 0 24 24" fill="none" xmlns="http://www.w3.org/2000/svg">
<path d="M21 4H3C2.44772 4 2 4.44772 2 5V17C2 17.5523 2.44772 18 3 18H21C21.5523 18 22 17.5523 22 17V5C22 4.44772 21.5523 4 21 4Z" stroke="#333333" stroke-width="2" stroke-linecap="round" stroke-linejoin="round"/>
<path d="M13.5 8H6.5C6.22386 8 6 8.22386 6 8.5V13.5C6 13.7761 6.22386 14 6.5 14H13.5C13.7761 14 14 13.7761 14 13.5V8.5C14 8.22386 13.7761 8 13.5 8Z" stroke="#333333" stroke-width="2" stroke-linecap="round" stroke-linejoin="round"/>
<path d="M18.5 8.5C19.0523 8.5 19.5 8.05228 19.5 7.5C19.5 6.94772 19.0523 6.5 18.5 6.5C17.9477 6.5 17.5 6.94772 17.5 7.5C17.5 8.05228 17.9477 8.5 18.5 8.5Z" fill="#333333"/>
<path d="M18 11H19" stroke="#333333" stroke-width="2" stroke-linecap="round" stroke-linejoin="round"/>
<path d="M18 14.5H19" stroke="#333333" stroke-width="2" stroke-linecap="round" stroke-linejoin="round"/>
<path d="M6 18V21" stroke="#333333" stroke-width="2" stroke-linecap="round" stroke-linejoin="round"/>
<path d="M18 18V21" stroke="#333333" stroke-width="2" stroke-linecap="round" stroke-linejoin="round"/>
</svg>
