<svg width="24" height="24" viewBox="0 0 24 24" fill="none" xmlns="http://www.w3.org/2000/svg">
<path d="M15.3284 10.7925L17.3799 8.74094C18.3808 9.00824 19.4929 8.74929 20.2781 7.96409C21.4497 6.79254 21.4497 4.89303 20.2781 3.72145C19.1065 2.54988 17.207 2.54988 16.0355 3.72145C15.2503 4.50664 14.9913 5.61879 15.2586 6.61964L13.207 8.67119" stroke="#333333" stroke-width="2" stroke-linecap="round" stroke-linejoin="round"/>
<path d="M20.6317 16.0961L7.90378 3.36816L5.95923 5.31271L9.84833 10.9696L8.43413 13.0909L10.7322 15.389L12.8535 13.9748L18.6872 18.0406L20.6317 16.0961Z" stroke="#333333" stroke-width="2" stroke-linecap="round" stroke-linejoin="round"/>
<path d="M9.66016 10.942C7.96451 10.4481 6.05876 10.8697 4.72179 12.2067C2.76917 14.1593 2.76917 17.3251 4.72179 19.2777C6.67441 21.2303 9.84026 21.2303 11.7929 19.2777C13.1298 17.9407 13.5514 16.035 13.0575 14.3394" stroke="#333333" stroke-width="2" stroke-linecap="round" stroke-linejoin="round"/>
</svg>
