<svg width="24" height="24" viewBox="0 0 24 24" fill="none" xmlns="http://www.w3.org/2000/svg">
<g clip-path="url(#clip0_2_21284)">
<path d="M24 0H0V24H24V0Z" fill="white" fill-opacity="0.01"/>
<path d="M24 0H0V24H24V0Z" fill="white" fill-opacity="0.01"/>
<path d="M21 2H3V15.5H21V2Z" stroke="#333333" stroke-width="2" stroke-linejoin="round"/>
<path d="M21 15.5V22H3V15.5" stroke="#333333" stroke-width="2" stroke-linecap="round" stroke-linejoin="round"/>
<path d="M8 4.5H6.5C6.22385 4.5 6 4.72386 6 5V6.5C6 6.77615 6.22385 7 6.5 7H8C8.27615 7 8.5 6.77615 8.5 6.5V5C8.5 4.72386 8.27615 4.5 8 4.5Z" fill="#333333"/>
<path d="M8 8H6.5C6.22385 8 6 8.22385 6 8.5V10C6 10.2761 6.22385 10.5 6.5 10.5H8C8.27615 10.5 8.5 10.2761 8.5 10V8.5C8.5 8.22385 8.27615 8 8 8Z" fill="#333333"/>
<path d="M12.75 4.5H11.25C10.9739 4.5 10.75 4.72386 10.75 5V6.5C10.75 6.77615 10.9739 7 11.25 7H12.75C13.0261 7 13.25 6.77615 13.25 6.5V5C13.25 4.72386 13.0261 4.5 12.75 4.5Z" fill="#333333"/>
<path d="M12.75 8H11.25C10.9739 8 10.75 8.22385 10.75 8.5V10C10.75 10.2761 10.9739 10.5 11.25 10.5H12.75C13.0261 10.5 13.25 10.2761 13.25 10V8.5C13.25 8.22385 13.0261 8 12.75 8Z" fill="#333333"/>
<path d="M13.25 18.75C13.25 18.0597 12.6904 17.5 12 17.5C11.3097 17.5 10.75 18.0597 10.75 18.75C10.75 19.4404 11.3097 20 12 20C12.6904 20 13.25 19.4404 13.25 18.75Z" fill="#333333"/>
<path d="M17.5 4.5H16C15.7239 4.5 15.5 4.72386 15.5 5V6.5C15.5 6.77615 15.7239 7 16 7H17.5C17.7761 7 18 6.77615 18 6.5V5C18 4.72386 17.7761 4.5 17.5 4.5Z" fill="#333333"/>
</g>
<defs>
<clipPath id="clip0_2_21284">
<rect width="24" height="24" fill="white"/>
</clipPath>
</defs>
</svg>
