<svg width="24" height="24" viewBox="0 0 24 24" fill="none" xmlns="http://www.w3.org/2000/svg">
<path d="M9 8H15C15 8 16.212 9.33625 17.25 9.7143C17.9007 9.95125 19 10 19 10C19 10 18.379 10.3874 17.95 10.5715C17.4074 10.8043 16.5 11 16.5 11H12H7.5C7.5 11 6.59265 10.8043 6.05 10.5715C5.621 10.3874 5 10 5 10C5 10 6.09935 9.95125 6.75 9.7143C7.78795 9.33625 9 8 9 8Z" stroke="#333333" stroke-width="2" stroke-linejoin="round"/>
<path d="M8.5 14H15.5C15.5 14 16.8138 15.3363 18 15.7143C18.7436 15.9513 20 16 20 16C20 16 19.2903 16.3873 18.8 16.5714C18.1798 16.8042 17 17 17 17H12H7C7 17 5.82015 16.8042 5.2 16.5714C4.70968 16.3873 4 16 4 16C4 16 5.2564 15.9513 6 15.7143C7.18625 15.3363 8.5 14 8.5 14Z" stroke="#333333" stroke-width="2" stroke-linejoin="round"/>
<path d="M9 3.71428C10.2253 3.14904 12 2 12 2C12 2 13.7747 3.14904 15 3.71428C15.3858 3.89226 16 4.14286 16 4.14286C16 4.14286 15.6368 4.42088 15.4 4.57143C15.0912 4.76772 14.5 5 14.5 5H12H9.5C9.5 5 8.90875 4.76772 8.6 4.57143C8.3632 4.42088 8 4.14286 8 4.14286C8 4.14286 8.6142 3.89226 9 3.71428Z" stroke="#333333" stroke-width="2" stroke-linejoin="round"/>
<path d="M10.5 5V8" stroke="#333333" stroke-width="2" stroke-linecap="round" stroke-linejoin="round"/>
<path d="M13.5 5V8" stroke="#333333" stroke-width="2" stroke-linecap="round" stroke-linejoin="round"/>
<path d="M9.5 11V14" stroke="#333333" stroke-width="2" stroke-linecap="round" stroke-linejoin="round"/>
<path d="M14.5 11V14" stroke="#333333" stroke-width="2" stroke-linecap="round" stroke-linejoin="round"/>
<path d="M8 17V22H16V17" stroke="#333333" stroke-width="2" stroke-linecap="round" stroke-linejoin="round"/>
</svg>
