<svg width="24" height="24" viewBox="0 0 24 24" fill="none" xmlns="http://www.w3.org/2000/svg">
<path d="M20 5H4C3.17157 5 2.5 5.67157 2.5 6.5V17.5C2.5 18.3284 3.17157 19 4 19H20C20.8284 19 21.5 18.3284 21.5 17.5V6.5C21.5 5.67157 20.8284 5 20 5Z" stroke="#333333" stroke-width="2"/>
<path d="M6.5 12V8.5" stroke="#333333" stroke-width="2" stroke-linecap="round" stroke-linejoin="round"/>
<path d="M6.5 16.5C7.05228 16.5 7.5 16.0523 7.5 15.5C7.5 14.9477 7.05228 14.5 6.5 14.5C5.94772 14.5 5.5 14.9477 5.5 15.5C5.5 16.0523 5.94772 16.5 6.5 16.5Z" fill="#333333"/>
</svg>
