<svg width="24" height="24" viewBox="0 0 24 24" fill="none" xmlns="http://www.w3.org/2000/svg">
<g clip-path="url(#clip0_2_21548)">
<path d="M24 0H0V24H24V0Z" fill="white" fill-opacity="0.01"/>
<path fill-rule="evenodd" clip-rule="evenodd" d="M12 22C17.1262 22 20 18.5228 20 13C20 7.47718 15.5658 2 12 2C8.4342 2 4 7.47718 4 13C4 18.5228 6.8738 22 12 22Z" stroke="#333333" stroke-width="2"/>
<path d="M10.5 19C11.3284 19 12 18.3285 12 17.5C12 16.6716 11.3284 16 10.5 16C9.67155 16 9 16.6716 9 17.5C9 18.3285 9.67155 19 10.5 19Z" fill="#333333"/>
<path fill-rule="evenodd" clip-rule="evenodd" d="M8 14.834C8.5523 14.834 9 14.3863 9 13.834C9 13.2817 8.5523 12.834 8 12.834C7.4477 12.834 7 13.2817 7 13.834C7 14.3863 7.4477 14.834 8 14.834Z" fill="#333333"/>
</g>
<defs>
<clipPath id="clip0_2_21548">
<rect width="24" height="24" fill="white"/>
</clipPath>
</defs>
</svg>
