<svg width="24" height="24" viewBox="0 0 24 24" fill="none" xmlns="http://www.w3.org/2000/svg">
<path d="M9.16661 17.9066L4.30963 12.4668C3.59369 11.6649 3.6848 10.4293 4.51061 9.74115C5.32831 9.05975 6.54621 9.18275 7.21116 10.014L8.00001 11V4.49695C8.00001 3.66972 8.66971 2.99864 9.49696 2.99695C10.3266 2.99527 11 3.66733 11 4.49695V3.5C11 2.67158 11.6716 2 12.5 2C13.3285 2 14 2.67158 14 3.5V4.41464C14 3.58621 14.6716 2.91463 15.5 2.91463C16.3285 2.91463 17 3.58621 17 4.41464V6.07315C17 5.24475 17.6716 4.57317 18.5 4.57317C19.3285 4.57317 20 5.24475 20 6.07315V12.9139C20 13.9844 19.661 15.0273 19.0316 15.8932L17.615 17.8418C17.5428 17.9412 17.4273 18 17.3045 18H9.37521C9.29556 18 9.21966 17.9661 9.16661 17.9066Z" stroke="#333333" stroke-width="2" stroke-linecap="round" stroke-linejoin="round"/>
<path d="M17 18H10C9.72386 18 9.5 18.2239 9.5 18.5V21.5C9.5 21.7761 9.72386 22 10 22H17C17.2761 22 17.5 21.7761 17.5 21.5V18.5C17.5 18.2239 17.2761 18 17 18Z" stroke="#333333" stroke-width="2" stroke-linecap="round" stroke-linejoin="round"/>
</svg>
