<svg width="24" height="24" viewBox="0 0 24 24" fill="none" xmlns="http://www.w3.org/2000/svg">
<path d="M19.2254 11.5081L16.5971 10.0044C16.5402 9.97283 16.4707 10.0107 16.4707 10.0802V13.8205C16.4707 13.89 16.5086 13.9469 16.5655 13.9848L19.1938 15.4885C19.2507 15.5201 19.3202 15.4822 19.3202 15.4127V11.6724C19.3202 11.6029 19.2822 11.546 19.2254 11.5081Z" fill="#333333"/>
<path d="M15.5554 9.43782L12.9271 7.93412C12.8703 7.90252 12.8008 7.94042 12.8008 8.00992V13.8288C12.8008 13.8794 12.8387 13.9173 12.8892 13.9173H15.5681C15.6186 13.9173 15.6565 13.8794 15.6565 13.8288V9.60207C15.6502 9.53257 15.6123 9.46942 15.5554 9.43782Z" fill="#333333"/>
<path d="M9.33924 15.4712L11.9675 13.9675C12.0244 13.9359 12.0623 13.8727 12.0623 13.8032V7.58626C12.0623 7.52311 11.9928 7.47886 11.9359 7.51046L9.30764 9.01416C9.25079 9.04576 9.21289 9.10891 9.21289 9.17841V15.3954C9.21289 15.4649 9.28239 15.5028 9.33924 15.4712Z" fill="#333333"/>
<path d="M20.0527 12.1333V13.8392C20.0527 13.8898 20.0906 13.9277 20.1412 13.9277H23.1233C23.2117 13.9277 23.2433 13.8076 23.1675 13.7697L20.1854 12.0638C20.1222 12.0259 20.0527 12.0702 20.0527 12.1333Z" fill="#333333"/>
<path d="M8.34635 9.564L1.04269 13.7529C0.966879 13.7971 0.998469 13.9108 1.08692 13.9108H8.39055C8.4411 13.9108 8.47905 13.8729 8.47905 13.8224V9.6398C8.4727 9.5703 8.4032 9.5324 8.34635 9.564Z" fill="#333333"/>
</svg>
