<svg width="24" height="24" viewBox="0 0 24 24" fill="none" xmlns="http://www.w3.org/2000/svg">
<path d="M22 7.5C20.5 6 19.5 3 19.5 3C19.5 3 17 4.75 12 4.75C7 4.75 4.5 3 4.5 3C4.5 3 4 5.5 2 7.5C2.00008 13.5 10.5 21 10.5 21H13.5C13.5 21 22 13.5 22 7.5Z" stroke="#333333" stroke-width="2" stroke-linecap="round" stroke-linejoin="round"/>
<path d="M22 7.5C22 7.5 17.5002 8 15.5001 11.5C13.5 15 13.5 21 13.5 21" stroke="#333333" stroke-width="2" stroke-linecap="round"/>
<path d="M2 7.5C2 7.5 6.4998 8 8.4999 11.5C10.5 15 10.5 21 10.5 21" stroke="#333333" stroke-width="2" stroke-linecap="round"/>
</svg>
