<svg width="24" height="24" viewBox="0 0 24 24" fill="none" xmlns="http://www.w3.org/2000/svg">
<path d="M13.061 18.7178C13.061 18.7178 18.7178 13.061 20.132 11.6468C21.5462 10.2325 22.2533 6.69705 19.7785 4.22215C17.3036 1.74728 13.7681 2.45439 12.3538 3.8686C10.9396 5.2828 3.51499 12.7074 2.80788 13.4145C2.10078 14.1216 1.04012 16.5965 3.16144 18.7178C5.28275 20.8391 7.75765 19.7785 8.46475 19.0714C9.17185 18.3643 16.95 10.5861 17.6571 9.879C18.3643 9.1719 18.7178 7.40415 17.6571 6.3435C16.5965 5.2828 14.8287 5.63635 14.1216 6.3435C13.4145 7.0506 7.4041 13.061 7.4041 13.061" stroke="#333333" stroke-width="2" stroke-linecap="round" stroke-linejoin="round"/>
</svg>
