<svg width="24" height="24" viewBox="0 0 24 24" fill="none" xmlns="http://www.w3.org/2000/svg">
<g clip-path="url(#clip0_2_19927)">
<path d="M24 0H0V24H24V0Z" fill="white" fill-opacity="0.01"/>
<path d="M3 4.5H21" stroke="#333333" stroke-width="2" stroke-linecap="round" stroke-linejoin="round"/>
<path d="M3 9.5H21" stroke="#333333" stroke-width="2" stroke-linecap="round" stroke-linejoin="round"/>
<path d="M3 14.5H12" stroke="#333333" stroke-width="2" stroke-linecap="round" stroke-linejoin="round"/>
<path d="M3 19.5H8" stroke="#333333" stroke-width="2" stroke-linecap="round" stroke-linejoin="round"/>
<path d="M12 19.5L14 21.5M12 19.5C12 19.5 17.1193 19.5 18.5 19.5C19.8807 19.5 21 18.3807 21 17C21 15.6193 19.8807 14.5 18.5 14.5C17.8558 14.5 16 14.5 16 14.5L12 19.5ZM12 19.5L14 17.5L12 19.5Z" stroke="#333333" stroke-width="2" stroke-linecap="round" stroke-linejoin="round"/>
</g>
<defs>
<clipPath id="clip0_2_19927">
<rect width="24" height="24" fill="white"/>
</clipPath>
</defs>
</svg>
