<svg width="24" height="24" viewBox="0 0 24 24" fill="none" xmlns="http://www.w3.org/2000/svg">
<path d="M19 15.5V22C19 22 8.6875 22 6.8125 22C4.9375 22 4 21 4 18.5C4 16 4 2 4 2H10" stroke="#333333" stroke-width="2" stroke-linecap="round" stroke-linejoin="round"/>
<path d="M16.5 13C18.9853 13 21 10.9853 21 8.5C21 6.01472 18.9853 4 16.5 4C14.0147 4 12 6.01472 12 8.5C12 10.9853 14.0147 13 16.5 13Z" stroke="#333333" stroke-width="2"/>
<path d="M11 9V8" stroke="#333333" stroke-width="2" stroke-linecap="round" stroke-linejoin="round"/>
<path d="M22 9V8" stroke="#333333" stroke-width="2" stroke-linecap="round" stroke-linejoin="round"/>
<path d="M16.5 4C16.4166 3.5 15.9 2.4 14.5 2" stroke="#333333" stroke-width="2" stroke-linecap="round" stroke-linejoin="round"/>
<path d="M16.5 4C16.5417 3.5 16.8 2.4 17.5 2" stroke="#333333" stroke-width="2" stroke-linecap="round" stroke-linejoin="round"/>
<path d="M18 9C18.5523 9 19 8.55228 19 8C19 7.44772 18.5523 7 18 7C17.4477 7 17 7.44772 17 8C17 8.55228 17.4477 9 18 9Z" fill="#333333"/>
<path d="M15 9C15.5523 9 16 8.55228 16 8C16 7.44772 15.5523 7 15 7C14.4477 7 14 7.44772 14 8C14 8.55228 14.4477 9 15 9Z" fill="#333333"/>
<path d="M4 18H19" stroke="#333333" stroke-width="2" stroke-linecap="round" stroke-linejoin="round"/>
</svg>
