<svg width="24" height="24" viewBox="0 0 24 24" fill="none" xmlns="http://www.w3.org/2000/svg">
<path d="M5.0386 6.71527C7.52355 3.93454 11.8434 5.15692 13.5 5.99957C14.3283 5.68357 16.5986 5.32087 18.0896 6.33202C19.9533 7.59602 22.3014 10.9516 20.1271 15.6914C18.3877 19.4833 13.8445 21.0783 12.1879 21.4996C10.9455 20.9729 8.21515 19.9155 5.3033 17.2755C2.66287 14.8815 1.93249 10.1911 5.0386 6.71527Z" stroke="#333333" stroke-width="2" stroke-linejoin="round"/>
<path d="M13.5 6C12.538 6.375 10.6141 7.125 9.56475 9.375C8.43705 11.793 9.3024 13.875 9.56475 15" stroke="#333333" stroke-width="2" stroke-linecap="round" stroke-linejoin="round"/>
<path d="M10.5 2C10.6666 2.08333 11.75 2.25 12 3.25C12.2186 4.12448 11.8334 4.66667 11.75 5.25" stroke="#333333" stroke-width="2" stroke-linecap="round"/>
<path d="M14.2393 5.66392C13.7625 5.64742 13.4332 5.22717 13.5312 4.76022C13.6664 4.1165 13.9726 3.23807 14.6646 2.69583C15.3566 2.15359 16.2828 2.06641 16.9401 2.08915C17.417 2.10565 17.7463 2.52591 17.6483 2.99287C17.5131 3.63659 17.2069 4.51502 16.5149 5.05727C15.8229 5.59947 14.8967 5.68667 14.2393 5.66392Z" stroke="#333333" stroke-width="2"/>
</svg>
