<svg width="24" height="24" viewBox="0 0 24 24" fill="none" xmlns="http://www.w3.org/2000/svg">
<path d="M12 19.5C13.6569 19.5 15 18.1569 15 16.5C15 14.8431 13.6569 13.5 12 13.5C10.3431 13.5 9 14.8431 9 16.5C9 18.1569 10.3431 19.5 12 19.5Z" stroke="#333333" stroke-width="2"/>
<path d="M12 8C12.8284 8 13.5 7.32843 13.5 6.5C13.5 5.67157 12.8284 5 12 5C11.1716 5 10.5 5.67157 10.5 6.5C10.5 7.32843 11.1716 8 12 8Z" stroke="#333333" stroke-width="2"/>
<path d="M12 20V22" stroke="#333333" stroke-width="2" stroke-linecap="round"/>
<path d="M11 8L10 14" stroke="#333333" stroke-width="2" stroke-linecap="round"/>
<path d="M13 8L14 14" stroke="#333333" stroke-width="2" stroke-linecap="round"/>
<path d="M9.5 18.5L8 22" stroke="#333333" stroke-width="2" stroke-linecap="round"/>
<path d="M14.5 18.5L16 22" stroke="#333333" stroke-width="2" stroke-linecap="round"/>
<path d="M12 2V5" stroke="#333333" stroke-width="2" stroke-linecap="round"/>
</svg>
