<svg width="24" height="24" viewBox="0 0 24 24" fill="none" xmlns="http://www.w3.org/2000/svg">
<path d="M13.5 6C13.5 6 16.9997 9.5 16.9998 14C16.9998 18.5 14.7777 22.1114 12.9998 22C11.2219 21.8886 9.49996 18.5 10 14C10.5 9.5 13.5 6 13.5 6Z" stroke="#333333" stroke-width="2" stroke-linecap="round" stroke-linejoin="round"/>
<path d="M13.4999 6.00027C13.4999 6.00027 14.0005 3.9379 15.5001 2.96908C16.9997 2.00026 19.945 4.50027 19.5 6.00027C19.0549 7.50027 17.4998 7.50027 16.9998 6.00027C16.4999 4.50028 19 2.75027 20.5 2.96908C22 3.18788 22.1284 5.59017 22 7.00027C21.7495 9.75027 21 12.0003 21 12.0003" stroke="#333333" stroke-width="2" stroke-linecap="round" stroke-linejoin="round"/>
<path d="M13.5 6.00028C13.5 6.00028 13.5 10.0003 10 14.0003C6.50007 18.0003 3.16275 18.8501 2.00021 17.5003C0.837678 16.1505 2.00021 12.5003 5.50007 9.00028C8.99987 5.50028 13.5 6.00028 13.5 6.00028Z" stroke="#333333" stroke-width="2" stroke-linecap="round" stroke-linejoin="round"/>
<path d="M13.6216 14.9541C14.3119 14.9541 14.8716 14.3945 14.8716 13.7041C14.8716 13.0137 14.3119 12.4541 13.6216 12.4541C12.9312 12.4541 12.3716 13.0137 12.3716 13.7041C12.3716 14.3945 12.9312 14.9541 13.6216 14.9541Z" fill="#333333"/>
<path d="M13.1216 18.4541C13.8119 18.4541 14.3716 17.8945 14.3716 17.2041C14.3716 16.5137 13.8119 15.9541 13.1216 15.9541C12.4312 15.9541 11.8716 16.5137 11.8716 17.2041C11.8716 17.8945 12.4312 18.4541 13.1216 18.4541Z" fill="#333333"/>
</svg>
