<svg width="24" height="24" viewBox="0 0 24 24" fill="none" xmlns="http://www.w3.org/2000/svg">
<g clip-path="url(#clip0_2_19897)">
<path d="M24 0H0V24H24V0Z" fill="white" fill-opacity="0.01"/>
<path d="M9.5 10C11.433 10 13 8.433 13 6.5C13 4.56701 11.433 3 9.5 3C7.567 3 6 4.56701 6 6.5C6 8.433 7.567 10 9.5 10Z" stroke="#333333" stroke-width="2" stroke-linejoin="round"/>
<path d="M18.5 20V15" stroke="#333333" stroke-width="2" stroke-linecap="round" stroke-linejoin="round"/>
<path d="M16.5 18L18.5 20L20.5 18" stroke="#333333" stroke-width="2" stroke-linecap="round" stroke-linejoin="round"/>
<path d="M13.5 14H9.4C7.1598 14 6.0397 14 5.18405 14.436C4.43139 14.8195 3.81947 15.4314 3.43598 16.184C3 17.0397 3 18.1598 3 20.4V21H13.5" stroke="#333333" stroke-width="2" stroke-linecap="round" stroke-linejoin="round"/>
</g>
<defs>
<clipPath id="clip0_2_19897">
<rect width="24" height="24" fill="white"/>
</clipPath>
</defs>
</svg>
