<svg width="24" height="24" viewBox="0 0 24 24" fill="none" xmlns="http://www.w3.org/2000/svg">
<g clip-path="url(#clip0_2_19881)">
<path d="M24 0H0V24H24V0Z" fill="white" fill-opacity="0.01"/>
<path d="M5.5 8C6.88071 8 8 6.88071 8 5.5C8 4.11929 6.88071 3 5.5 3C4.11929 3 3 4.11929 3 5.5C3 6.88071 4.11929 8 5.5 8Z" stroke="#333333" stroke-width="2" stroke-linecap="round" stroke-linejoin="round"/>
<path d="M18.5 21C19.8807 21 21 19.8807 21 18.5C21 17.1193 19.8807 16 18.5 16C17.1193 16 16 17.1193 16 18.5C16 19.8807 17.1193 21 18.5 21Z" stroke="#333333" stroke-width="2" stroke-linecap="round" stroke-linejoin="round"/>
<path d="M21 3L3 21" stroke="#333333" stroke-width="2" stroke-linecap="round" stroke-linejoin="round"/>
</g>
<defs>
<clipPath id="clip0_2_19881">
<rect width="24" height="24" fill="white"/>
</clipPath>
</defs>
</svg>
