<svg width="24" height="24" viewBox="0 0 24 24" fill="none" xmlns="http://www.w3.org/2000/svg">
<g clip-path="url(#clip0_2_19875)">
<path d="M24 0H0V24H24V0Z" fill="white" fill-opacity="0.01"/>
<path d="M3.99978 2C6.0011 3.6683 7.0017 5.33575 7.0017 7.0023C7.0017 9.50215 4.99978 10.6218 3.99978 12C2.99978 13.3782 2.50244 14.9655 2.50244 17.0016C2.50244 18.359 3.00156 20.0251 3.99978 22" stroke="#333333" stroke-width="2" stroke-linecap="round"/>
<path d="M20.0017 2C18.0004 3.6683 16.9998 5.33575 16.9998 7.0023C16.9998 9.50215 19.0017 10.6218 20.0017 12C21.0017 13.3782 21.499 14.9655 21.499 17.0016C21.499 18.359 20.9999 20.0251 20.0017 22" stroke="#333333" stroke-width="2" stroke-linecap="round"/>
<path d="M7.00195 14.591C8.26275 14.4702 9.3096 14.6504 10.1427 15.1317C11.3922 15.8535 11.9959 16.6796 12 17.4784C12.0028 18.0109 12.0028 19.5181 12 21.9998" stroke="#333333" stroke-width="2" stroke-linecap="round"/>
<path d="M17.002 14.591C15.7412 14.4702 14.6943 14.6504 13.8613 15.1317C12.6118 15.8535 12.0081 16.6796 12.0039 17.4784" stroke="#333333" stroke-width="2" stroke-linecap="round"/>
</g>
<defs>
<clipPath id="clip0_2_19875">
<rect width="24" height="24" fill="white"/>
</clipPath>
</defs>
</svg>
