<svg width="24" height="24" viewBox="0 0 24 24" fill="none" xmlns="http://www.w3.org/2000/svg">
<path d="M12 9C13.933 9 15.5 7.433 15.5 5.5C15.5 3.567 13.933 2 12 2C10.067 2 8.5 3.567 8.5 5.5C8.5 7.433 10.067 9 12 9Z" stroke="#333333" stroke-width="2" stroke-linecap="round" stroke-linejoin="round"/>
<path d="M2 20.5C2 16.0817 6.02945 12.5 11 12.5" stroke="#333333" stroke-width="2" stroke-linecap="round" stroke-linejoin="round"/>
<path d="M15.925 14C14.8619 14 14 15.0043 14 16.2432C14 18.4864 16.275 20.5256 17.5 21C18.725 20.5256 21 18.4864 21 16.2432C21 15.0043 20.1382 14 19.075 14C18.424 14 17.8483 14.3767 17.5 14.9531C17.1517 14.3767 16.5761 14 15.925 14Z" stroke="#333333" stroke-width="2" stroke-linecap="round" stroke-linejoin="round"/>
</svg>
