<svg width="24" height="24" viewBox="0 0 24 24" fill="none" xmlns="http://www.w3.org/2000/svg">
<g clip-path="url(#clip0_2_19872)">
<path d="M24 0H0V24H24V0Z" fill="white" fill-opacity="0.01"/>
<path d="M8.5 3.3V20.7M22 14V18L15.5 19.3L22 14ZM22 14L2 16L22 14ZM22 14V10V14ZM2 16V22L8.5 20.7L2 16ZM2 16V8V16ZM22 10V6L15.5 4.7L22 10ZM22 10L2 8L22 10ZM2 8V2L8.5 3.3L2 8ZM15.5 4.7V19.3V4.7ZM15.5 4.7L8.5 3.3L15.5 4.7ZM15.5 19.3L8.5 20.7L15.5 19.3Z" stroke="#333333" stroke-width="2" stroke-linecap="round" stroke-linejoin="round"/>
</g>
<defs>
<clipPath id="clip0_2_19872">
<rect width="24" height="24" fill="white"/>
</clipPath>
</defs>
</svg>
