<svg width="24" height="24" viewBox="0 0 24 24" fill="none" xmlns="http://www.w3.org/2000/svg">
<g clip-path="url(#clip0_2_19863)">
<path d="M23.76 0H0.719971V23.04H23.76V0Z" fill="white" fill-opacity="0.01"/>
<path d="M8.39817 4.16895C8.74689 4.16895 9.0682 4.35807 9.2375 4.66299L10.4118 6.77826C10.5655 7.05522 10.5728 7.39021 10.4311 7.67355L9.29981 9.93613C9.29981 9.93613 9.62764 11.6216 10.9997 12.9936C12.3718 14.3657 14.0516 14.6878 14.0516 14.6878L16.3138 13.5568C16.5973 13.415 16.9325 13.4223 17.2096 13.5764L19.3308 14.7557C19.6355 14.9251 19.8244 15.2462 19.8244 15.5948V18.03C19.8244 19.2702 18.6724 20.1659 17.4974 19.7694C15.0839 18.9551 11.3377 17.4046 8.96323 15.0301C6.58876 12.6556 5.03824 8.90936 4.2239 6.49597C3.82741 5.32088 4.72313 4.16895 5.96328 4.16895H8.39817Z" stroke="#333333" stroke-width="1.92" stroke-linejoin="round"/>
<path d="M19.3128 4.45703L15.2399 8.52998" stroke="#333333" stroke-width="1.92" stroke-linecap="round" stroke-linejoin="round"/>
<path d="M15.2399 4.45703L19.3128 8.52995" stroke="#333333" stroke-width="1.92" stroke-linecap="round" stroke-linejoin="round"/>
</g>
<defs>
<clipPath id="clip0_2_19863">
<rect width="24" height="24" fill="white"/>
</clipPath>
</defs>
</svg>
