<svg width="24" height="24" viewBox="0 0 24 24" fill="none" xmlns="http://www.w3.org/2000/svg">
<g clip-path="url(#clip0_2_19866)">
<path d="M24 0.230469H1.84619V22.3843H24V0.230469Z" fill="white" fill-opacity="0.01"/>
<path d="M24 0.230469H1.84619V22.3843H24V0.230469Z" fill="white" fill-opacity="0.01"/>
<path d="M8.01947 4.75098C8.35482 4.75098 8.66377 4.93285 8.82651 5.22602L9.95566 7.25993C10.1035 7.52624 10.1104 7.84835 9.97422 8.12079L8.88647 10.2963C8.88647 10.2963 9.20165 11.917 10.521 13.2363C11.8402 14.5555 13.4555 14.8653 13.4555 14.8653L15.6307 13.7777C15.9033 13.6414 16.2256 13.6485 16.492 13.7966L18.5317 14.9306C18.8246 15.0934 19.0063 15.4022 19.0063 15.7373V18.0789C19.0063 19.2714 17.8986 20.1327 16.7687 19.7514C14.4481 18.9684 10.846 17.4776 8.56279 15.1944C6.27965 12.9112 4.78879 9.30907 4.00576 6.9885C3.62452 5.85861 4.4858 4.75098 5.67827 4.75098H8.01947Z" stroke="#333333" stroke-width="1.84615" stroke-linejoin="round"/>
<path d="M17.6495 3L13.9572 6.69231L17.6495 10.3846" stroke="#333333" stroke-width="1.84615" stroke-linecap="round" stroke-linejoin="round"/>
<path d="M21.3418 6.69629H13.9572" stroke="#333333" stroke-width="1.84615" stroke-linecap="round" stroke-linejoin="round"/>
</g>
<defs>
<clipPath id="clip0_2_19866">
<rect width="24" height="24" fill="white"/>
</clipPath>
</defs>
</svg>
