<svg width="24" height="24" viewBox="0 0 24 24" fill="none" xmlns="http://www.w3.org/2000/svg">
<path d="M19.5 3H4.5C3.67158 3 3 3.67158 3 4.5V19.5C3 20.3285 3.67158 21 4.5 21H19.5C20.3285 21 21 20.3285 21 19.5V4.5C21 3.67158 20.3285 3 19.5 3Z" stroke="#333333" stroke-width="2"/>
<path d="M9.72006 7C9.94226 7 10.147 7.1205 10.2548 7.31475L11.003 8.66245C11.101 8.8389 11.1056 9.05235 11.0153 9.2329L10.5 10.5C10.5 10.5 10.6259 11.6259 11.5 12.5C12.3742 13.3741 13.5 13.5 13.5 13.5L14.7633 12.9812C14.944 12.8909 15.1575 12.8956 15.3341 12.9937L16.6856 13.7451C16.8797 13.8531 17 14.0577 17 14.2797V15.8313C17 16.6214 16.2661 17.1921 15.5174 16.9394C13.9798 16.4206 11.5929 15.4328 10.0801 13.9199C8.56726 12.4071 7.57936 10.0203 7.06051 8.4826C6.80791 7.73395 7.37861 7 8.16876 7H9.72006Z" stroke="#333333" stroke-width="2" stroke-linejoin="round"/>
</svg>
