<svg width="24" height="24" viewBox="0 0 24 24" fill="none" xmlns="http://www.w3.org/2000/svg">
<g clip-path="url(#clip0_2_19861)">
<path d="M23.7551 0H0.244873V23.5102H23.7551V0Z" fill="white" fill-opacity="0.01"/>
<path d="M8.56965 3.76465C8.92549 3.76465 9.25336 3.95764 9.42611 4.26878L10.6243 6.42721C10.7812 6.70983 10.7886 7.05165 10.644 7.34078L9.48968 9.64953C9.48968 9.64953 9.82421 11.3694 11.2242 12.7694C12.6243 14.1695 14.3384 14.4982 14.3384 14.4982L16.6468 13.3441C16.9361 13.1994 17.2782 13.2069 17.5609 13.364L19.7254 14.5675C20.0363 14.7403 20.229 15.068 20.229 15.4236V17.9086C20.229 19.1741 19.0536 20.0881 17.8546 19.6835C15.3919 18.8526 11.5692 17.2704 9.14624 14.8474C6.72332 12.4245 5.14114 8.60181 4.31019 6.13916C3.9056 4.94009 4.81961 3.76465 6.08506 3.76465H8.56965Z" stroke="#333333" stroke-width="1.95918" stroke-linejoin="round"/>
</g>
<defs>
<clipPath id="clip0_2_19861">
<rect width="24" height="24" fill="white"/>
</clipPath>
</defs>
</svg>
