<svg width="24" height="24" viewBox="0 0 24 24" fill="none" xmlns="http://www.w3.org/2000/svg">
<path d="M19.5 3H4.5C3.67157 3 3 3.67157 3 4.5V19.5C3 20.3284 3.67157 21 4.5 21H19.5C20.3284 21 21 20.3284 21 19.5V4.5C21 3.67157 20.3284 3 19.5 3Z" stroke="#333333" stroke-width="2"/>
<path d="M12 18C15.0376 18 17.5 15.5376 17.5 12.5C17.5 9.46243 15.0376 7 12 7C8.96243 7 6.5 9.46243 6.5 12.5C6.5 15.5376 8.96243 18 12 18Z" stroke="#333333" stroke-width="2"/>
<path d="M13 12.5C13 11.9477 12.5523 11.5 12 11.5C11.4477 11.5 11 11.9477 11 12.5C11 13.0523 11.4477 13.5 12 13.5C12.5523 13.5 13 13.0523 13 12.5Z" fill="#333333"/>
<path d="M19 18C19 17.4477 18.5523 17 18 17C17.4477 17 17 17.4477 17 18C17 18.5523 17.4477 19 18 19C18.5523 19 19 18.5523 19 18Z" fill="#333333"/>
<path d="M14 10L18 6" stroke="#333333" stroke-width="2" stroke-linecap="round" stroke-linejoin="round"/>
</svg>
