<svg width="24" height="24" viewBox="0 0 24 24" fill="none" xmlns="http://www.w3.org/2000/svg">
<g clip-path="url(#clip0_2_19859)">
<path d="M24 0H1.41174V22.5882H24V0Z" fill="white" fill-opacity="0.01"/>
<path d="M8.17675 4.60938C8.51868 4.60938 8.83369 4.79479 8.99962 5.09375L10.1509 7.16754C10.3016 7.43907 10.3087 7.76749 10.1698 8.04528L9.0607 10.2634C9.0607 10.2634 9.38212 11.9159 10.7273 13.261C12.0724 14.6062 13.7193 14.922 13.7193 14.922L15.9372 13.8131C16.2152 13.6741 16.5438 13.6813 16.8154 13.8323L18.8951 14.9886C19.1937 15.1546 19.3789 15.4695 19.3789 15.8112V18.1987C19.3789 19.4146 18.2496 20.2927 17.0976 19.904C14.7314 19.1056 11.0587 17.5855 8.73073 15.2576C6.40282 12.9297 4.88273 9.25686 4.08434 6.89079C3.69562 5.73874 4.57378 4.60938 5.7896 4.60938H8.17675Z" stroke="#333333" stroke-width="1.88235" stroke-linejoin="round"/>
<path d="M19.7647 7.05842H14.1177V2.35254H19.7647V3.7643L22.1177 2.82313V6.58783L19.7647 5.64666V7.05842Z" stroke="#333333" stroke-width="1.88235" stroke-linecap="round" stroke-linejoin="round"/>
</g>
<defs>
<clipPath id="clip0_2_19859">
<rect width="24" height="24" fill="white"/>
</clipPath>
</defs>
</svg>
