<svg width="24" height="24" viewBox="0 0 24 24" fill="none" xmlns="http://www.w3.org/2000/svg">
<g clip-path="url(#clip0_2_19862)">
<path d="M24 0H0V24H24V0Z" fill="white" fill-opacity="0.01"/>
<path d="M13.3385 14.4557C13.952 14.7165 14.387 14.8 14.387 14.8L16.7435 13.6217C17.0388 13.4741 17.388 13.4817 17.6766 13.6422L19.8863 14.8707C20.2036 15.0471 20.4004 15.3816 20.4004 15.7447V18.2814C20.4004 19.5732 19.1986 20.5057 17.9746 20.0927C16.101 19.4604 13.457 18.4023 11.208 16.8808M9.72184 10.7499C9.50844 10.2162 9.43729 9.85023 9.43729 9.85023L10.6157 7.49338C10.7632 7.19828 10.7557 6.84933 10.5956 6.56083L9.37234 4.3574C9.19604 4.03978 8.86134 3.84277 8.49804 3.84277H5.96174C4.66991 3.84277 3.73721 5.04388 4.15026 6.26788C4.75599 8.06288 5.75254 10.5652 7.17319 12.7499L9.72184 10.7499Z" stroke="#333333" stroke-width="2" stroke-linecap="round" stroke-linejoin="round"/>
<path d="M20 4L4 20" stroke="#333333" stroke-width="2" stroke-linecap="round" stroke-linejoin="round"/>
</g>
<defs>
<clipPath id="clip0_2_19862">
<rect width="24" height="24" fill="white"/>
</clipPath>
</defs>
</svg>
