<svg width="24" height="24" viewBox="0 0 24 24" fill="none" xmlns="http://www.w3.org/2000/svg">
<path d="M23.5385 0.692383H1.38464V22.8462H23.5385V0.692383Z" fill="white" fill-opacity="0.01"/>
<path d="M23.5385 0.692383H1.38464V22.8462H23.5385V0.692383Z" fill="white" fill-opacity="0.01"/>
<path d="M20.6675 10.2028C20.7841 9.42014 20.7459 8.61887 20.5527 7.84842C20.2975 6.83064 19.7719 5.86676 18.976 5.07084C18.1801 4.27492 17.2162 3.74936 16.1984 3.49415C15.428 3.30096 14.6267 3.2627 13.844 3.37937" stroke="#333333" stroke-width="1.84615" stroke-linecap="round" stroke-linejoin="round"/>
<path d="M17.1645 9.83206C17.2895 8.99363 17.0293 8.10886 16.3839 7.46345C15.7384 6.81803 14.8537 6.55777 14.0153 6.68276" stroke="#333333" stroke-width="1.84615" stroke-linecap="round" stroke-linejoin="round"/>
<path d="M8.01949 4.75098C8.3548 4.75098 8.66376 4.93285 8.82654 5.22602L9.95565 7.25993C10.1035 7.52624 10.1104 7.84835 9.9742 8.12079L8.88645 10.2963C8.88645 10.2963 9.20168 11.917 10.5209 13.2363C11.8402 14.5555 13.4554 14.8653 13.4554 14.8653L15.6306 13.7777C15.9033 13.6414 16.2256 13.6485 16.492 13.7966L18.5317 14.9306C18.8246 15.0934 19.0062 15.4022 19.0062 15.7373V18.0789C19.0062 19.2714 17.8986 20.1327 16.7687 19.7514C14.4481 18.9684 10.846 17.4776 8.56282 15.1944C6.27963 12.9112 4.78877 9.30907 4.00577 6.9885C3.62452 5.85861 4.48579 4.75098 5.67825 4.75098H8.01949Z" stroke="#333333" stroke-width="1.84615" stroke-linejoin="round"/>
</svg>
