<svg width="24" height="24" viewBox="0 0 24 24" fill="none" xmlns="http://www.w3.org/2000/svg">
<g clip-path="url(#clip0_2_19865)">
<path d="M23.5294 0H0.941162V22.5882H23.5294V0Z" fill="white" fill-opacity="0.01"/>
<path d="M24 0H1.41174V22.5882H24V0Z" fill="white" fill-opacity="0.01"/>
<path d="M8.17677 4.60938C8.51865 4.60938 8.83366 4.79482 8.99964 5.09374L10.1509 7.16753C10.3016 7.43905 10.3087 7.76748 10.1698 8.04527L9.06072 10.2635C9.06072 10.2635 9.38214 11.9159 10.7273 13.261C12.0724 14.6062 13.7193 14.922 13.7193 14.922L15.9371 13.8131C16.2151 13.6741 16.5438 13.6813 16.8154 13.8323L18.8951 14.9886C19.1938 15.1546 19.3789 15.4695 19.3789 15.8111V18.1987C19.3789 19.4145 18.2496 20.2927 17.0976 19.9039C14.7315 19.1056 11.0587 17.5855 8.73075 15.2575C6.40279 12.9296 4.8827 9.25684 4.08434 6.89077C3.69562 5.73873 4.57378 4.60938 5.78962 4.60938H8.17677Z" stroke="#333333" stroke-width="1.88235" stroke-linejoin="round"/>
<path d="M14.5883 9.41165L20.7059 3.5293" stroke="#333333" stroke-width="1.88235" stroke-linecap="round" stroke-linejoin="round"/>
<path d="M20.7059 9.41159H14.5883V3.29395" stroke="#333333" stroke-width="1.88235" stroke-linecap="round" stroke-linejoin="round"/>
</g>
<defs>
<clipPath id="clip0_2_19865">
<rect width="24" height="24" fill="white"/>
</clipPath>
</defs>
</svg>
