<svg width="24" height="24" viewBox="0 0 24 24" fill="none" xmlns="http://www.w3.org/2000/svg">
<path d="M23.5384 0.230469H1.38452V22.3843H23.5384V0.230469Z" fill="white" fill-opacity="0.01"/>
<path d="M24 0.230469H1.84619V22.3843H24V0.230469Z" fill="white" fill-opacity="0.01"/>
<path d="M8.01959 4.75098C8.35494 4.75098 8.6639 4.93285 8.82663 5.22602L9.95579 7.25993C10.1036 7.52624 10.1105 7.84835 9.97434 8.12079L8.88659 10.2963C8.88659 10.2963 9.20177 11.917 10.5211 13.2363C11.8403 14.5555 13.4556 14.8653 13.4556 14.8653L15.6308 13.7777C15.9034 13.6414 16.2257 13.6485 16.4921 13.7966L18.5318 14.9306C18.8247 15.0934 19.0064 15.4022 19.0064 15.7373V18.0789C19.0064 19.2714 17.8987 20.1327 16.7688 19.7514C14.4483 18.9684 10.8461 17.4776 8.56291 15.1944C6.27977 12.9112 4.78891 9.30907 4.00589 6.9885C3.62465 5.85861 4.48592 4.75098 5.67839 4.75098H8.01959Z" stroke="#333333" stroke-width="1.84615" stroke-linejoin="round"/>
<path d="M17.5386 3L21.2309 6.69231L17.5386 10.3846" stroke="#333333" stroke-width="1.84615" stroke-linecap="round" stroke-linejoin="round"/>
<path d="M13.8462 6.69629H21.2308" stroke="#333333" stroke-width="1.84615" stroke-linecap="round" stroke-linejoin="round"/>
</svg>
