<svg width="24" height="24" viewBox="0 0 24 24" fill="none" xmlns="http://www.w3.org/2000/svg">
<g clip-path="url(#clip0_2_20649)">
<path d="M24 0H0V24H24V0Z" fill="white" fill-opacity="0.01"/>
<path d="M20 2.5H4C3.17157 2.5 2.5 3.17157 2.5 4V20C2.5 20.8284 3.17157 21.5 4 21.5H20C20.8284 21.5 21.5 20.8284 21.5 20V4C21.5 3.17157 20.8284 2.5 20 2.5Z" stroke="#333333" stroke-width="2"/>
<path d="M9.5 6H5.5V18H9.5V6Z" stroke="#333333" stroke-width="2" stroke-linecap="round" stroke-linejoin="round"/>
<path d="M18.5 6H12.5V9H18.5V6Z" stroke="#333333" stroke-width="2" stroke-linecap="round" stroke-linejoin="round"/>
<path d="M12.5 13C13.0523 13 13.5 12.5523 13.5 12C13.5 11.4477 13.0523 11 12.5 11C11.9477 11 11.5 11.4477 11.5 12C11.5 12.5523 11.9477 13 12.5 13Z" fill="#333333"/>
<path d="M12.5 16C13.0523 16 13.5 15.5523 13.5 15C13.5 14.4477 13.0523 14 12.5 14C11.9477 14 11.5 14.4477 11.5 15C11.5 15.5523 11.9477 16 12.5 16Z" fill="#333333"/>
<path d="M12.5 19C13.0523 19 13.5 18.5523 13.5 18C13.5 17.4477 13.0523 17 12.5 17C11.9477 17 11.5 17.4477 11.5 18C11.5 18.5523 11.9477 19 12.5 19Z" fill="#333333"/>
<path d="M15.5 13C16.0523 13 16.5 12.5523 16.5 12C16.5 11.4477 16.0523 11 15.5 11C14.9477 11 14.5 11.4477 14.5 12C14.5 12.5523 14.9477 13 15.5 13Z" fill="#333333"/>
<path d="M15.5 16C16.0523 16 16.5 15.5523 16.5 15C16.5 14.4477 16.0523 14 15.5 14C14.9477 14 14.5 14.4477 14.5 15C14.5 15.5523 14.9477 16 15.5 16Z" fill="#333333"/>
<path d="M15.5 19C16.0523 19 16.5 18.5523 16.5 18C16.5 17.4477 16.0523 17 15.5 17C14.9477 17 14.5 17.4477 14.5 18C14.5 18.5523 14.9477 19 15.5 19Z" fill="#333333"/>
<path d="M18.5 13C19.0523 13 19.5 12.5523 19.5 12C19.5 11.4477 19.0523 11 18.5 11C17.9477 11 17.5 11.4477 17.5 12C17.5 12.5523 17.9477 13 18.5 13Z" fill="#333333"/>
<path d="M18.5 16C19.0523 16 19.5 15.5523 19.5 15C19.5 14.4477 19.0523 14 18.5 14C17.9477 14 17.5 14.4477 17.5 15C17.5 15.5523 17.9477 16 18.5 16Z" fill="#333333"/>
<path d="M18.5 19C19.0523 19 19.5 18.5523 19.5 18C19.5 17.4477 19.0523 17 18.5 17C17.9477 17 17.5 17.4477 17.5 18C17.5 18.5523 17.9477 19 18.5 19Z" fill="#333333"/>
</g>
<defs>
<clipPath id="clip0_2_20649">
<rect width="24" height="24" fill="white"/>
</clipPath>
</defs>
</svg>
