<svg width="24" height="24" viewBox="0 0 24 24" fill="none" xmlns="http://www.w3.org/2000/svg">
<path d="M17 6.5V3C17 2.44771 16.5523 2 16 2H4C3.44771 2 3 2.44771 3 3V17C3 17.5523 3.44771 18 4 18H11.5" stroke="#333333" stroke-width="2" stroke-linecap="round" stroke-linejoin="round"/>
<path d="M14.0002 20.9996C10.5 18.9996 12.1659 16.1125 11.4886 15.4996C10.6623 14.7519 10.1937 14.0557 9.99979 12.9996C9.80589 11.9435 10.535 10.7364 11.4887 11.4996C12.4423 12.2627 14 15.4996 14 15.4996L15 14.4996L15.5 8.99957C15.5 8.99957 15 6.99957 15 5.99957C15 4.99957 17 6.49957 18 7.99957C18 13.2205 18.7497 17.9996 20.9996 21.9996" stroke="#333333" stroke-width="2" stroke-linecap="round" stroke-linejoin="round"/>
<path d="M12.5 8.7L10.5 5.5L6.5 13.5H10" stroke="#333333" stroke-width="2" stroke-linecap="round" stroke-linejoin="round"/>
<path d="M3 11L6 5.5L8.5 9" stroke="#333333" stroke-width="2" stroke-linecap="round" stroke-linejoin="round"/>
</svg>
