<svg width="24" height="24" viewBox="0 0 24 24" fill="none" xmlns="http://www.w3.org/2000/svg">
<g clip-path="url(#clip0_2_20638)">
<path d="M24 0H0V24H24V0Z" fill="white" fill-opacity="0.01"/>
<path fill-rule="evenodd" clip-rule="evenodd" d="M3.5 4H20.5C21.0523 4 21.5 4.44772 21.5 5V19C21.5 19.5523 21.0523 20 20.5 20H3.5C2.94772 20 2.5 19.5523 2.5 19V5C2.5 4.44772 2.94772 4 3.5 4Z" stroke="#333333" stroke-width="2" stroke-linecap="round" stroke-linejoin="round"/>
<path d="M7.25 9C7.66421 9 8 8.66421 8 8.25C8 7.83579 7.66421 7.5 7.25 7.5C6.83579 7.5 6.5 7.83579 6.5 8.25C6.5 8.66421 6.83579 9 7.25 9Z" stroke="#333333" stroke-width="2" stroke-linecap="round" stroke-linejoin="round"/>
<path d="M7.5 12L10 14L13 10.5L21.5 17V19C21.5 19.5523 21.0523 20 20.5 20H3.5C2.94772 20 2.5 19.5523 2.5 19V17L7.5 12Z" stroke="#333333" stroke-width="2" stroke-linejoin="round"/>
</g>
<defs>
<clipPath id="clip0_2_20638">
<rect width="24" height="24" fill="white"/>
</clipPath>
</defs>
</svg>
