<svg width="24" height="24" viewBox="0 0 24 24" fill="none" xmlns="http://www.w3.org/2000/svg">
<path d="M19.5 3H4.5C3.67158 3 3 3.67158 3 4.5V19.5C3 20.3285 3.67158 21 4.5 21H19.5C20.3285 21 21 20.3285 21 19.5V4.5C21 3.67158 20.3285 3 19.5 3Z" stroke="#333333" stroke-width="2" stroke-linecap="round" stroke-linejoin="round"/>
<path d="M9 11.5C10.3807 11.5 11.5 10.3807 11.5 9C11.5 7.6193 10.3807 6.5 9 6.5C7.6193 6.5 6.5 7.6193 6.5 9C6.5 10.3807 7.6193 11.5 9 11.5Z" stroke="#333333" stroke-width="2" stroke-linecap="round" stroke-linejoin="round"/>
<path d="M13.8951 13.1095C14.3032 12.5632 15.1264 12.5767 15.5164 13.136L19.9039 19.4278C20.3661 20.0908 19.8917 20.9998 19.0835 20.9998H8L13.8951 13.1095Z" stroke="#333333" stroke-width="2" stroke-linecap="round" stroke-linejoin="round"/>
</svg>
