<svg width="24" height="24" viewBox="0 0 24 24" fill="none" xmlns="http://www.w3.org/2000/svg">
<g clip-path="url(#clip0_2_21538)">
<path d="M24 0H0V24H24V0Z" fill="white" fill-opacity="0.01"/>
<path d="M12 22C17.5228 22 22 17.5228 22 12C22 6.47715 17.5228 2 12 2C6.47715 2 2 6.47715 2 12C2 17.5228 6.47715 22 12 22Z" stroke="#333333" stroke-width="2" stroke-linecap="round" stroke-linejoin="round"/>
<path d="M12 2C13.3132 2 14.6136 2.25866 15.8268 2.7612C17.0401 3.26375 18.1425 4.00035 19.0711 4.92894C19.9997 5.8575 20.7363 6.9599 21.2388 8.17315C21.7414 9.3864 22 10.6868 22 12C22 13.3132 21.7414 14.6136 21.2388 15.8268C20.7363 17.0401 19.9997 18.1425 19.0711 19.0711C18.1425 19.9997 17.0401 20.7363 15.8268 21.2388C14.6135 21.7414 13.3132 22 12 22V12V2Z" stroke="#333333" stroke-width="2" stroke-linecap="round" stroke-linejoin="round"/>
</g>
<defs>
<clipPath id="clip0_2_21538">
<rect width="24" height="24" fill="white"/>
</clipPath>
</defs>
</svg>
