<svg width="24" height="24" viewBox="0 0 24 24" fill="none" xmlns="http://www.w3.org/2000/svg">
<g clip-path="url(#clip0_2_19844)">
<path d="M24 0H0V24H24V0Z" fill="white" fill-opacity="0.01"/>
<path d="M12 22C17.5228 22 22 17.5228 22 12C22 6.47715 17.5228 2 12 2C6.47715 2 2 6.47715 2 12C2 17.5228 6.47715 22 12 22Z" stroke="#333333" stroke-width="2" stroke-linecap="round" stroke-linejoin="round"/>
<path d="M12 2C13.9778 2 15.9112 2.58649 17.5557 3.68531C19.2002 4.78412 20.4819 6.3459 21.2388 8.17315C21.9957 10.0005 22.1937 12.0111 21.8078 13.9509C21.422 15.8907 20.4696 17.6726 19.0711 19.0711C17.6726 20.4696 15.8907 21.422 13.9509 21.8078C12.0111 22.1937 10.0005 21.9957 8.17315 21.2388C6.3459 20.4819 4.78412 19.2002 3.68531 17.5557C2.58649 15.9112 2 13.9778 2 12H12V2Z" stroke="#333333" stroke-width="2" stroke-linecap="round" stroke-linejoin="round"/>
</g>
<defs>
<clipPath id="clip0_2_19844">
<rect width="24" height="24" fill="white"/>
</clipPath>
</defs>
</svg>
