<svg width="24" height="24" viewBox="0 0 24 24" fill="none" xmlns="http://www.w3.org/2000/svg">
<g clip-path="url(#clip0_2_20830)">
<path d="M24 0H0V24H24V0Z" fill="white" fill-opacity="0.01"/>
<path d="M12 22C17.5228 22 22 17.5228 22 12C22 6.47715 17.5228 2 12 2C6.47715 2 2 6.47715 2 12C2 17.5228 6.47715 22 12 22Z" stroke="#333333" stroke-width="2" stroke-linecap="round" stroke-linejoin="round"/>
<path d="M12 2C13.9511 2 15.8595 2.57075 17.4902 3.64193C19.1209 4.71311 20.4027 6.2379 21.1775 8.0285C21.9524 9.8191 22.1866 11.7973 21.8511 13.7193C21.5157 15.6413 20.6253 17.4232 19.2897 18.8454L12 12V2Z" stroke="#333333" stroke-width="2" stroke-linecap="round" stroke-linejoin="round"/>
</g>
<defs>
<clipPath id="clip0_2_20830">
<rect width="24" height="24" fill="white"/>
</clipPath>
</defs>
</svg>
