<svg width="24" height="24" viewBox="0 0 24 24" fill="none" xmlns="http://www.w3.org/2000/svg">
<g clip-path="url(#clip0_2_19845)">
<path d="M24 0H0V24H24V0Z" fill="white" fill-opacity="0.01"/>
<path d="M12 22C17.5228 22 22 17.5228 22 12C22 6.47715 17.5228 2 12 2C6.47715 2 2 6.47715 2 12C2 17.5228 6.47715 22 12 22Z" stroke="#333333" stroke-width="2" stroke-linecap="round" stroke-linejoin="round"/>
<path d="M12 2C13.6312 2 15.2377 2.39904 16.6793 3.16234C18.1209 3.92564 19.3539 5.03 20.2708 6.37915C21.1877 7.7283 21.7606 9.2813 21.9396 10.9026C22.1186 12.524 21.8982 14.1645 21.2977 15.6812C20.6972 17.1979 19.7348 18.5446 18.4945 19.604C17.2541 20.6634 15.7733 21.4033 14.1814 21.7591C12.5895 22.115 10.9347 22.076 9.36124 21.6455C7.78784 21.2151 6.34364 20.4063 5.15454 19.2897L12 12V2Z" stroke="#333333" stroke-width="2" stroke-linecap="round" stroke-linejoin="round"/>
</g>
<defs>
<clipPath id="clip0_2_19845">
<rect width="24" height="24" fill="white"/>
</clipPath>
</defs>
</svg>
