<svg width="24" height="24" viewBox="0 0 24 24" fill="none" xmlns="http://www.w3.org/2000/svg">
<path d="M10.25 7.25C10 7 10 6.5746 10 5.5C10 3.56701 12 2 12 2C12 2 13.5 3.56701 13.5 5.5C13.5 6.4612 13.5 7 13.25 7.25" stroke="#333333" stroke-width="2" stroke-linecap="round" stroke-linejoin="round"/>
<path d="M8.5 8.49984C7.89455 7.04074 6.43115 5.21609 5.5 4.49984C8.2055 3.99256 10.3868 5.65014 11.5 6.99984" stroke="#333333" stroke-width="2" stroke-linecap="round" stroke-linejoin="round"/>
<path d="M15 8.00023C15.726 6.65173 17.1519 5.15263 18 4.50023C15.1783 3.97117 13.0643 5.63083 12 7.00023" stroke="#333333" stroke-width="2" stroke-linecap="round" stroke-linejoin="round"/>
<path d="M8.36267 8.68701C8.08772 8.93026 7.79992 9.20021 7.50022 9.49991C5.40492 11.5952 5.05112 15.4319 5.00137 17.1401C4.98466 17.7148 4.98866 18.3011 5.20587 18.8334C5.43932 19.4054 5.93742 20.2027 7.00037 20.9999C9.00027 22.4999 15.0003 22.4999 17.0001 20.9999C18.0583 20.2063 18.5566 19.4126 18.7912 18.8411C19.0117 18.3041 19.0155 17.7118 18.9984 17.1315C18.9479 15.419 18.592 11.5916 16.5003 9.49991C16.2005 9.20021 15.9127 8.93016 15.6377 8.68691C13.5084 6.80351 10.492 6.80361 8.36267 8.68701Z" stroke="#333333" stroke-width="2" stroke-linecap="round" stroke-linejoin="round"/>
<path d="M16 9L5.5 14.5" stroke="#333333" stroke-width="2" stroke-linecap="round" stroke-linejoin="round"/>
<path d="M8 9L18.5 14.5" stroke="#333333" stroke-width="2" stroke-linecap="round" stroke-linejoin="round"/>
<path d="M17.5 20.5L5.5 13.5" stroke="#333333" stroke-width="2" stroke-linecap="round" stroke-linejoin="round"/>
<path d="M18.5 13.5L6.5 20.5" stroke="#333333" stroke-width="2" stroke-linecap="round" stroke-linejoin="round"/>
</svg>
