<svg width="24" height="24" viewBox="0 0 24 24" fill="none" xmlns="http://www.w3.org/2000/svg">
<g clip-path="url(#clip0_2_19836)">
<path d="M24 0H0V24H24V0Z" fill="white" fill-opacity="0.01"/>
<path d="M12 20C16.4183 20 20 16.4183 20 12C20 7.5817 16.4183 4 12 4C7.5817 4 4 7.5817 4 12C4 16.4183 7.5817 20 12 20Z" stroke="#333333" stroke-width="2" stroke-linejoin="round"/>
<path d="M18.782 7.75488C20.8916 7.93898 22.3393 8.58618 22.6252 9.65298C23.1969 11.7868 18.9034 14.7913 13.0352 16.3637C7.16715 17.936 1.94658 17.4808 1.37481 15.347C1.07525 14.229 2.11122 12.872 4.00947 11.6072" stroke="#333333" stroke-width="2" stroke-linecap="round" stroke-linejoin="round"/>
</g>
<defs>
<clipPath id="clip0_2_19836">
<rect width="24" height="24" fill="white"/>
</clipPath>
</defs>
</svg>
