<svg width="24" height="24" viewBox="0 0 24 24" fill="none" xmlns="http://www.w3.org/2000/svg">
<g clip-path="url(#clip0_2_19834)">
<path d="M24 0H0V24H24V0Z" fill="white" fill-opacity="0.01"/>
<path d="M9.518 22C9.02805 20.4022 8.2889 19.211 7.30055 18.4265C5.818 17.2498 3.46242 17.9811 2.59229 16.7673C1.72217 15.5536 3.20191 13.3214 3.72117 12.0044C4.24043 10.6874 1.7309 10.2217 2.02388 9.84785C2.21921 9.59855 3.48736 8.8793 5.82835 7.69C6.4935 3.89666 8.9504 2 13.1991 2C19.5721 2 22 7.40295 22 10.8394C22 14.2759 19.0601 17.9781 14.8721 18.7764C14.4976 19.3217 15.0377 20.3963 16.4924 22" stroke="#333333" stroke-width="2" stroke-linecap="round" stroke-linejoin="round"/>
<path d="M10.5109 2.29492C9.91694 4.90922 9.91694 6.94335 10.5109 8.3974C11.4019 10.5784 15.3404 10.2433 15.3404 12.2782C15.3404 14.313 13.0455 14.7042 13.3517 16.116C13.5559 17.0571 14.01 18.2778 14.7139 19.7779" stroke="#333333" stroke-width="2" stroke-linecap="round"/>
<path d="M8.5 15.2754C8.6177 15.2754 9.7002 15.2062 10.4795 14.3996C10.999 13.8619 11.2586 13.2286 11.2586 12.5" stroke="#333333" stroke-width="2" stroke-linecap="round"/>
</g>
<defs>
<clipPath id="clip0_2_19834">
<rect width="24" height="24" fill="white"/>
</clipPath>
</defs>
</svg>
