<svg width="24" height="24" viewBox="0 0 24 24" fill="none" xmlns="http://www.w3.org/2000/svg">
<path d="M14.5 7C15.8807 7 17 5.8807 17 4.5C17 3.11929 15.8807 2 14.5 2C13.1193 2 12 3.11929 12 4.5C12 5.8807 13.1193 7 14.5 7Z" stroke="#333333" stroke-width="2" stroke-miterlimit="2"/>
<path d="M20.5 12C21.3284 12 22 11.3284 22 10.5C22 9.67155 21.3284 9 20.5 9C19.6715 9 19 9.67155 19 10.5C19 11.3284 19.6715 12 20.5 12Z" fill="#333333"/>
<path d="M8 12L6.865 17.63C6.76 18.285 6.06 18.655 5.46 18.38L2 17" stroke="#333333" stroke-width="2" stroke-miterlimit="2" stroke-linecap="round" stroke-linejoin="round"/>
<path d="M19 14.9996L11.88 9.53464C11.495 9.24964 10.965 9.27964 10.61 9.59964L8.19005 11.8146C7.95505 12.0296 7.97505 12.3996 8.23505 12.5896L13 16.0746C13.36 16.3396 13.505 16.8146 13.345 17.2346L11.56 21.9996" stroke="#333333" stroke-width="2" stroke-miterlimit="2" stroke-linecap="round" stroke-linejoin="round"/>
</svg>
