<svg width="24" height="24" viewBox="0 0 24 24" fill="none" xmlns="http://www.w3.org/2000/svg">
<path d="M18.5 22H8.73798C8.69363 22 8.65243 21.977 8.62903 21.9394L3.93004 14.3637C3.39556 13.502 3.57236 12.3788 4.34572 11.723C5.31528 10.9008 6.79198 11.1518 7.43548 12.2481L8.66663 14.3457V3.97101C8.66663 2.88245 9.54908 2 10.6377 2C11.7262 2 12.6087 2.88245 12.6087 3.97101V8.63545C12.6087 8.9282 12.8408 9.16825 13.1334 9.178L18.9441 9.37215C19.5329 9.3918 20 9.8748 20 10.4639V20.5C20 21.3285 19.3284 22 18.5 22Z" stroke="#333333" stroke-width="2" stroke-linecap="round" stroke-linejoin="round"/>
</svg>
