<svg width="24" height="24" viewBox="0 0 24 24" fill="none" xmlns="http://www.w3.org/2000/svg">
<path d="M9.5 20.5C6.75 19.125 4.00064 15 2.50031 12.5C0.999979 10 4.1566 7.65625 6.0002 9.5C7.8438 11.3438 8.0002 11.5 8.0002 11.5V3.75001C8.0002 2.78351 8.7837 2 9.7502 2C10.7167 2 11.5002 2.78351 11.5002 3.75001V8C11.5002 7.0335 12.2837 6.25 13.2502 6.25C14.2167 6.25 15.0002 7.0335 15.0002 8V8.75C15.0002 7.7835 15.7837 7 16.7502 7C17.7167 7 18.5002 7.78275 18.5002 8.74925V11.2501C18.5002 10.2836 19.2837 9.5 20.2502 9.5C21.2167 9.5 22.0002 10.2835 22.0002 11.25V15.622C22.0002 16.1994 21.8688 16.772 21.5434 17.2491C20.9589 18.1061 19.8011 19.5175 18 20.5C15.2499 22 12.25 21.875 9.5 20.5Z" stroke="#333333" stroke-width="2" stroke-linecap="round" stroke-linejoin="round"/>
</svg>
