<svg width="24" height="24" viewBox="0 0 24 24" fill="none" xmlns="http://www.w3.org/2000/svg">
<path d="M3.5 8H20.5L17 22H7L3.5 8Z" stroke="#333333" stroke-width="2" stroke-linecap="round" stroke-linejoin="round"/>
<path d="M10 8V22" stroke="#333333" stroke-width="2" stroke-linecap="round" stroke-linejoin="round"/>
<path d="M14 8V22" stroke="#333333" stroke-width="2" stroke-linecap="round" stroke-linejoin="round"/>
<path d="M16.5 4.5C15.3954 4.5 14.5 5.39545 14.5 6.5C14.5 7.09735 14.7619 7.63355 15.1771 8H17.8229C18.2381 7.63355 18.5 7.09735 18.5 6.5C18.5 5.39545 17.6046 4.5 16.5 4.5Z" stroke="#333333" stroke-width="2" stroke-linecap="round" stroke-linejoin="round"/>
<path d="M12 4.5C10.8954 4.5 10 5.39545 10 6.5C10 7.09735 10.2619 7.63355 10.6771 8H13.3229C13.7381 7.63355 14 7.09735 14 6.5C14 5.39545 13.1046 4.5 12 4.5Z" stroke="#333333" stroke-width="2" stroke-linecap="round" stroke-linejoin="round"/>
<path d="M7.5 4.5C6.39545 4.5 5.5 5.39545 5.5 6.5C5.5 7.09735 5.7619 7.63355 6.1771 8H8.8229C9.2381 7.63355 9.5 7.09735 9.5 6.5C9.5 5.39545 8.60455 4.5 7.5 4.5Z" stroke="#333333" stroke-width="2" stroke-linecap="round" stroke-linejoin="round"/>
<path d="M11.437 4.5C11.4781 4.34019 11.5 4.17265 11.5 4C11.5 2.89543 10.6046 2 9.5 2C8.39545 2 7.5 2.89543 7.5 4C7.5 4.17265 7.5219 4.34019 7.563 4.5" stroke="#333333" stroke-width="2" stroke-linecap="round" stroke-linejoin="round"/>
<path d="M16.437 4.5C16.4781 4.34019 16.5 4.17265 16.5 4C16.5 2.89543 15.6046 2 14.5 2C13.3954 2 12.5 2.89543 12.5 4C12.5 4.17265 12.5219 4.34019 12.563 4.5" stroke="#333333" stroke-width="2" stroke-linecap="round" stroke-linejoin="round"/>
<path d="M8 8H16" stroke="#333333" stroke-width="2" stroke-linecap="round" stroke-linejoin="round"/>
<path d="M8 22H16" stroke="#333333" stroke-width="2" stroke-linecap="round" stroke-linejoin="round"/>
</svg>
