<svg width="24" height="24" viewBox="0 0 24 24" fill="none" xmlns="http://www.w3.org/2000/svg">
<g clip-path="url(#clip0_2_19814)">
<path d="M24 0H0V24H24V0Z" fill="white" fill-opacity="0.01"/>
<path d="M16.848 20.4338L19.5 8.5H3.5L6.15195 20.4338C6.3188 21.1847 6.40225 21.5601 6.67645 21.7801C6.95065 22 7.3352 22 8.10435 22H14.8956C15.6648 22 16.0493 22 16.3235 21.7801C16.5977 21.5601 16.6812 21.1847 16.848 20.4338Z" stroke="#333333" stroke-width="2" stroke-linecap="round" stroke-linejoin="round"/>
<path d="M13.5 22L14 8.5" stroke="#333333" stroke-width="2" stroke-linecap="round" stroke-linejoin="round"/>
<path d="M9.5 22L9 8.5" stroke="#333333" stroke-width="2" stroke-linecap="round" stroke-linejoin="round"/>
<path d="M15.5 22H7.5" stroke="#333333" stroke-width="2" stroke-linecap="round" stroke-linejoin="round"/>
<path d="M15.5 8.5H7.5" stroke="#333333" stroke-width="2" stroke-linecap="round" stroke-linejoin="round"/>
<path d="M5.49994 8.49974C5.49994 8.49974 4.99993 6.99974 5.74994 6.24974C6.49994 5.49974 7.99994 5.74974 7.99994 5.74974C7.99994 5.74974 7.99994 4.24972 8.99994 3.74972C9.99994 3.24972 11.4999 3.99971 11.4999 3.99971C11.4999 3.99971 12.4999 2.32113 13.9999 2.74973C15.4999 3.17833 15.4999 4.99974 15.4999 4.99974C15.4999 4.99974 16.7499 4.99974 17.4999 5.99974C18.2499 6.99974 17.4999 8.49974 17.4999 8.49974" stroke="#333333" stroke-width="2" stroke-linecap="round" stroke-linejoin="round"/>
</g>
<defs>
<clipPath id="clip0_2_19814">
<rect width="24" height="24" fill="white"/>
</clipPath>
</defs>
</svg>
