<svg width="24" height="24" viewBox="0 0 24 24" fill="none" xmlns="http://www.w3.org/2000/svg">
<path d="M22 20V10C22 9.17155 21.3285 8.5 20.5 8.5H17.8575C17.0869 8.5 16.4113 9.1214 15.8955 9.694C15.3163 10.3371 14.1885 11 12 11C9.81155 11 8.6837 10.3371 8.10445 9.694C7.5887 9.1214 6.91315 8.5 6.1425 8.5H3.5C2.67158 8.5 2 9.17155 2 10V20C2 20.8285 2.67158 21.5 3.5 21.5H20.5C21.3285 21.5 22 20.8285 22 20Z" stroke="#333333" stroke-width="2" stroke-linejoin="round"/>
<path d="M16.5 8.5C16.5 9.8807 14.4853 11 12 11C9.5147 11 7.5 9.8807 7.5 8.5" stroke="#333333" stroke-width="2" stroke-linecap="round" stroke-linejoin="round"/>
<path d="M12 7.5C14.4853 7.5 16.5 6.38071 16.5 5C16.5 3.61929 14.4853 2.5 12 2.5C9.51472 2.5 7.5 3.61929 7.5 5C7.5 6.38071 9.51472 7.5 12 7.5Z" stroke="#333333" stroke-width="2" stroke-linecap="round" stroke-linejoin="round"/>
<path d="M16.5 8.5V5" stroke="#333333" stroke-width="2" stroke-linecap="round" stroke-linejoin="round"/>
<path d="M7.5 8.5V5" stroke="#333333" stroke-width="2" stroke-linecap="round" stroke-linejoin="round"/>
<path d="M13.5 5.5C14.0523 5.5 14.5 5.27614 14.5 5C14.5 4.72386 14.0523 4.5 13.5 4.5C12.9477 4.5 12.5 4.72386 12.5 5C12.5 5.27614 12.9477 5.5 13.5 5.5Z" fill="#333333"/>
<path d="M10.5 5.5C11.0523 5.5 11.5 5.27614 11.5 5C11.5 4.72386 11.0523 4.5 10.5 4.5C9.94772 4.5 9.5 4.72386 9.5 5C9.5 5.27614 9.94772 5.5 10.5 5.5Z" fill="#333333"/>
</svg>
