<svg width="24" height="24" viewBox="0 0 24 24" fill="none" xmlns="http://www.w3.org/2000/svg">
<g clip-path="url(#clip0_2_20810)">
<path d="M24 0H0V24H24V0Z" fill="white" fill-opacity="0.01"/>
<path d="M10.0159 6.25C10.6572 6.0908 11.3207 6 12 6C17.5229 6 22 12 22 12C22 12 20.8807 13.5 19.0711 15M4.92893 9C3.11929 10.5 2 12 2 12C2 12 6.47715 18 12 18C12.6849 18 13.3538 17.9077 14 17.746L4.92893 9Z" stroke="#333333" stroke-width="2" stroke-linecap="round" stroke-linejoin="round"/>
<path d="M10.1571 10.3105C9.74905 10.7555 9.5 11.3486 9.5 11.9999C9.5 13.3806 10.6193 14.4999 12 14.4999C12.6813 14.4999 13.2991 14.2273 13.75 13.7852" stroke="#333333" stroke-width="2" stroke-linecap="round" stroke-linejoin="round"/>
<path d="M21 21L3 3" stroke="#333333" stroke-width="2" stroke-linecap="round" stroke-linejoin="round"/>
</g>
<defs>
<clipPath id="clip0_2_20810">
<rect width="24" height="24" fill="white"/>
</clipPath>
</defs>
</svg>
