<svg width="24" height="24" viewBox="0 0 24 24" fill="none" xmlns="http://www.w3.org/2000/svg">
<g clip-path="url(#clip0_2_20797)">
<path d="M24 0H0V24H24V0Z" fill="white" fill-opacity="0.01"/>
<path d="M21 19V16H18V19H21Z" stroke="#333333" stroke-width="2" stroke-linecap="round" stroke-linejoin="round"/>
<path d="M3 19V16H6V19H3Z" stroke="#333333" stroke-width="2" stroke-linecap="round" stroke-linejoin="round"/>
<path d="M12 8H2V16H3H6H18H21H22V8H19" stroke="#333333" stroke-width="2" stroke-linecap="round" stroke-linejoin="round"/>
<path d="M5 12H9" stroke="#333333" stroke-width="2" stroke-linecap="round" stroke-linejoin="round"/>
<path d="M15.5 11.5C17.433 11.5 19 9.933 19 8C19 6.067 17.433 4.5 15.5 4.5C13.567 4.5 12 6.067 12 8C12 9.933 13.567 11.5 15.5 11.5Z" stroke="#333333" stroke-width="2" stroke-linecap="round" stroke-linejoin="round"/>
<path d="M15.5 9.5C16.3284 9.5 17 8.82845 17 8C17 7.17155 16.3284 6.5 15.5 6.5C14.6715 6.5 14 7.17155 14 8C14 8.82845 14.6715 9.5 15.5 9.5Z" fill="#333333"/>
</g>
<defs>
<clipPath id="clip0_2_20797">
<rect width="24" height="24" fill="white"/>
</clipPath>
</defs>
</svg>
