<svg width="24" height="24" viewBox="0 0 24 24" fill="none" xmlns="http://www.w3.org/2000/svg">
<path d="M2 6C2 5.4477 2.44771 5 3 5H21C21.5523 5 22 5.4477 22 6V16C22 16.5523 21.5523 17 21 17H3C2.44771 17 2 16.5523 2 16V6Z" stroke="#333333" stroke-width="2"/>
<path d="M6 9.5H9" stroke="#333333" stroke-width="2" stroke-linecap="round" stroke-linejoin="round"/>
<path d="M6 12.5H8" stroke="#333333" stroke-width="2" stroke-linecap="round" stroke-linejoin="round"/>
<path d="M7 20V17" stroke="#333333" stroke-width="2" stroke-linecap="round" stroke-linejoin="round"/>
<path d="M17 20V17" stroke="#333333" stroke-width="2" stroke-linecap="round" stroke-linejoin="round"/>
<path d="M15.5 13.5C16.8807 13.5 18 12.3807 18 11C18 9.61929 16.8807 8.5 15.5 8.5C14.1193 8.5 13 9.61929 13 11C13 12.3807 14.1193 13.5 15.5 13.5Z" stroke="#333333" stroke-width="2"/>
</svg>
