<svg width="24" height="24" viewBox="0 0 24 24" fill="none" xmlns="http://www.w3.org/2000/svg">
<g clip-path="url(#clip0_2_21044)">
<path d="M24 0H0V24H24V0Z" fill="white" fill-opacity="0.01"/>
<path d="M7.5 7C8.60457 7 9.5 6.10457 9.5 5C9.5 3.89543 8.60457 3 7.5 3C6.39543 3 5.5 3.89543 5.5 5C5.5 6.10457 6.39543 7 7.5 7Z" stroke="#333333" stroke-width="2" stroke-linecap="round" stroke-linejoin="round"/>
<path d="M16.5 7C17.6046 7 18.5 6.10457 18.5 5C18.5 3.89543 17.6046 3 16.5 3C15.3954 3 14.5 3.89543 14.5 5C14.5 6.10457 15.3954 7 16.5 7Z" stroke="#333333" stroke-width="2" stroke-linecap="round" stroke-linejoin="round"/>
<path d="M5 10H10L9 21H6L5 10Z" stroke="#333333" stroke-width="2" stroke-linecap="round" stroke-linejoin="round"/>
<path d="M14 10H19L20 15.5H18.5L18 21H15L14.5 15.5H13L14 10Z" stroke="#333333" stroke-width="2" stroke-linecap="round" stroke-linejoin="round"/>
</g>
<defs>
<clipPath id="clip0_2_21044">
<rect width="24" height="24" fill="white"/>
</clipPath>
</defs>
</svg>
