<svg width="24" height="24" viewBox="0 0 24 24" fill="none" xmlns="http://www.w3.org/2000/svg">
<g clip-path="url(#clip0_2_20581)">
<path d="M24 0H0V24H24V0Z" fill="white" fill-opacity="0.01"/>
<path d="M5.5 20.5C7.5837 19.6046 9.5461 19.1215 11.3873 19.0507C13.2285 18.9799 15.5994 19.2963 18.5 20" stroke="#333333" stroke-width="2" stroke-linecap="round"/>
<path d="M11.5226 22C11.1392 17.28 11.2982 13.6133 11.9999 11" stroke="#333333" stroke-width="2" stroke-linecap="round"/>
<path fill-rule="evenodd" clip-rule="evenodd" d="M12 11.5877C12.795 8.5788 14.1949 6.78435 16.1996 6.2045C18.2043 5.6246 20.1378 5.89035 21.9999 7.00175C22.0093 9.4477 20.9476 11.2395 18.8148 12.3772C16.682 13.515 14.4104 13.2518 12 11.5877Z" stroke="#333333" stroke-width="2" stroke-linejoin="round"/>
<path fill-rule="evenodd" clip-rule="evenodd" d="M11.896 11.0566C12.3127 7.46316 11.4777 4.93228 9.3911 3.46384C7.30445 1.9954 4.88819 1.66751 2.14224 2.48018C1.66268 5.79486 2.39577 8.30131 4.3415 9.99951C6.28725 11.6977 8.8054 12.0501 11.896 11.0566Z" stroke="#333333" stroke-width="2" stroke-linejoin="round"/>
</g>
<defs>
<clipPath id="clip0_2_20581">
<rect width="24" height="24" fill="white"/>
</clipPath>
</defs>
</svg>
