<svg width="24" height="24" viewBox="0 0 24 24" fill="none" xmlns="http://www.w3.org/2000/svg">
<g clip-path="url(#clip0_2_19788)">
<path d="M24 0H0V24H24V0Z" fill="white" fill-opacity="0.01"/>
<path d="M0.693276 13.6405C1.67444 18.3399 6.25545 21.3763 10.9729 20.4897L10.9699 20.4924C16.4661 19.5947 19.0396 16.2738 21.1315 14.6117C22.2437 13.7281 22.8264 13.2116 23.3965 12.9139C23.3965 12.9137 23.3965 12.9137 23.3965 12.9137C23.0231 12.9768 22.7832 12.8632 22.4611 12.7497C22.1054 12.6243 21.6494 12.4988 20.804 12.6109C19.1924 12.8246 17.7823 14.4355 17.7823 14.4355L16.9228 15.1997C15.8926 15.9973 14.6689 16.5791 13.3053 16.8613C11.7387 17.1854 10.1827 17.0746 8.7642 16.6115C8.18935 16.4238 7.63755 16.1778 7.1162 15.8798C5.0028 14.6723 3.39804 12.6053 2.86312 10.0434C2.54774 8.53355 2.64253 7.0337 3.07099 5.6582C1.05675 7.68255 0.0670503 10.6417 0.693276 13.6405Z" fill="#333333"/>
<path fill-rule="evenodd" clip-rule="evenodd" d="M10.9729 20.4897L10.9699 20.4924C16.4661 19.5947 19.0396 16.2738 21.1315 14.6117C22.2437 13.7281 22.8264 13.2116 23.3965 12.9139C23.0231 12.9768 22.7832 12.8632 22.4611 12.7497C22.1054 12.6243 21.6494 12.4988 20.804 12.6109C19.1924 12.8246 17.7823 14.4355 17.7823 14.4355L16.9228 15.1997C15.8926 15.9973 14.6689 16.5791 13.3053 16.8613C11.7387 17.1854 10.1827 17.0746 8.7642 16.6115C8.18935 16.4238 7.63755 16.1778 7.1162 15.8798C5.0028 14.6723 3.39804 12.6053 2.86312 10.0434C2.54774 8.53355 2.64253 7.0337 3.07099 5.6582C1.05675 7.68255 0.0670503 10.6417 0.693276 13.6405C1.67444 18.3399 6.25545 21.3763 10.9729 20.4897Z" fill="#333333"/>
<path fill-rule="evenodd" clip-rule="evenodd" d="M17.8745 14.293C16.5372 18.966 11.6483 21.6753 6.95435 20.3439C2.86176 19.1835 0.268865 15.3341 0.557934 11.2694C0.897879 14.4911 3.15623 17.3381 6.4771 18.2799C10.8384 19.5171 15.3811 16.9997 16.6236 12.6574C16.9827 11.4021 17.0267 10.1318 16.8023 8.93009C16.5278 7.45954 15.8515 6.09179 14.859 4.98047C16.1429 5.99214 17.1115 7.33684 17.6702 8.84589C18.2956 10.5347 18.4078 12.4292 17.8745 14.293Z" fill="#333333"/>
<path d="M13.7296 16.2342L13.9934 16.6935L14.4214 16.5173L14.8165 16.3411C15.613 15.9438 15.5754 16.0039 16.5337 15.3694C17.4919 14.735 17.9977 14.3494 18.7341 13.4624L18.3245 13.1377C17.8402 13.7486 17.3058 14.2068 16.3899 14.8132C15.8126 15.1955 14.9248 15.67 13.7296 16.2342Z" fill="#333333"/>
<path fill-rule="evenodd" clip-rule="evenodd" d="M9.34805 3.05859C10.5226 3.05859 11.6627 3.2933 12.7116 3.72594C8.37615 4.94965 5.6367 9.26406 6.4356 13.721C6.4361 13.7231 6.43645 13.7256 6.43665 13.7276C6.44885 13.7949 6.46175 13.8622 6.4755 13.9292C6.47635 13.9338 6.47725 13.9385 6.4783 13.9428C6.4802 13.9521 6.48175 13.9613 6.4837 13.9705C6.4957 14.028 6.5086 14.085 6.52165 14.1418C6.5243 14.1528 6.5269 14.1636 6.5295 14.1748C6.5349 14.1983 6.5403 14.2218 6.5471 14.2469C6.6358 14.6107 6.7472 14.9656 6.87995 15.3101C5.4047 14.2596 4.44063 12.9766 3.82002 11.6404C2.99485 9.86371 2.87505 7.81656 3.51623 5.24061C4.62511 4.27024 5.99315 3.56413 7.541 3.24381C7.66295 3.21837 7.78495 3.19642 7.9069 3.17656C8.3904 3.0971 8.87205 3.05859 9.34805 3.05859ZM2.69265 8.70816L2.69998 8.88361C2.66015 8.34016 2.67176 7.80191 2.73117 7.27431C2.69028 7.76631 2.67698 8.24466 2.69265 8.70816Z" fill="#333333"/>
</g>
<defs>
<clipPath id="clip0_2_19788">
<rect width="24" height="24" fill="white"/>
</clipPath>
</defs>
</svg>
