<svg width="24" height="24" viewBox="0 0 24 24" fill="none" xmlns="http://www.w3.org/2000/svg">
<path fill-rule="evenodd" clip-rule="evenodd" d="M9.42665 4.55769C5.66135 6.97584 3.56957 9.79029 3.15128 13.0011C2.50011 17.9997 6.9702 20.4463 9.23515 18.248C11.5001 16.0498 10.1424 13.2595 8.50235 12.4968C6.8623 11.734 5.85935 11.9997 6.0343 10.9805C6.20925 9.96124 8.54255 7.13534 10.5925 5.81929C10.7285 5.70364 10.7802 5.47924 10.6493 5.30904C10.5631 5.19704 10.3942 4.97748 10.1424 4.65026C9.92225 4.36413 9.71135 4.37484 9.42665 4.55769Z" fill="#333333"/>
<path fill-rule="evenodd" clip-rule="evenodd" d="M19.3395 4.55769C15.5742 6.97584 13.4824 9.79029 13.0641 13.0011C12.413 17.9997 16.8831 20.4463 19.148 18.248C21.413 16.0498 20.0553 13.2595 18.4152 12.4968C16.7752 11.734 15.7722 11.9997 15.9472 10.9805C16.1221 9.96124 18.4554 7.13534 20.5053 5.81929C20.6413 5.70364 20.6931 5.47924 20.5621 5.30904C20.476 5.19704 20.307 4.97748 20.0553 4.65026C19.8351 4.36413 19.6242 4.37484 19.3395 4.55769Z" fill="#333333"/>
</svg>
