<svg width="24" height="24" viewBox="0 0 24 24" fill="none" xmlns="http://www.w3.org/2000/svg">
<g clip-path="url(#clip0_2_21431)">
<path d="M24 0H0V24H24V0Z" fill="white" fill-opacity="0.01"/>
<path d="M11.9999 1.5L22.937 9.4463L19 22.5H5L1.06274 9.4463L11.9999 1.5Z" stroke="#333333" stroke-width="2" stroke-linejoin="round"/>
<path d="M19 22.5L15.5 18.5" stroke="#333333" stroke-width="2" stroke-linecap="round" stroke-linejoin="round"/>
<path d="M5 22.5L8.5 18.5" stroke="#333333" stroke-width="2" stroke-linecap="round" stroke-linejoin="round"/>
<path d="M1 9.5L6 11" stroke="#333333" stroke-width="2" stroke-linecap="round" stroke-linejoin="round"/>
<path d="M23 9.5L18 11" stroke="#333333" stroke-width="2" stroke-linecap="round" stroke-linejoin="round"/>
<path d="M12 1.5V6.5" stroke="#333333" stroke-width="2" stroke-linecap="round" stroke-linejoin="round"/>
<path d="M12 6.5L15.0036 8.7853L18 11L15.5 18.5H8.5L6 11L8.99635 8.7853L12 6.5Z" stroke="#333333" stroke-width="2" stroke-linejoin="round"/>
<path d="M3.79703 7.45996L1.06274 9.44656L2.04706 12.71" stroke="#333333" stroke-width="2" stroke-linejoin="round"/>
<path d="M4.01562 19.2363L4.99994 22.4998H8.49995" stroke="#333333" stroke-width="2" stroke-linejoin="round"/>
<path d="M15.5 22.4998H19L19.9842 19.2363" stroke="#333333" stroke-width="2" stroke-linejoin="round"/>
<path d="M20.2026 7.45996L22.9369 9.44656L21.9526 12.71" stroke="#333333" stroke-width="2" stroke-linejoin="round"/>
<path d="M14.7342 3.48657L11.9999 1.5L9.26562 3.48657" stroke="#333333" stroke-width="2" stroke-linejoin="round"/>
</g>
<defs>
<clipPath id="clip0_2_21431">
<rect width="24" height="24" fill="white"/>
</clipPath>
</defs>
</svg>
