<svg width="24" height="24" viewBox="0 0 24 24" fill="none" xmlns="http://www.w3.org/2000/svg">
<g clip-path="url(#clip0_2_20756)">
<path d="M24 0H0V24H24V0Z" fill="white" fill-opacity="0.01"/>
<path d="M12.0018 13.5C12.8303 13.5 13.5018 12.8284 13.5018 12C13.5018 11.1716 12.8303 10.5 12.0018 10.5C11.1734 10.5 10.5018 11.1716 10.5018 12C10.5018 12.8284 11.1734 13.5 12.0018 13.5Z" fill="#333333"/>
<path d="M9.52027 15.738C10.2313 16.2097 11.0837 16.4844 12 16.4844C12.9163 16.4844 13.7687 16.2097 14.4797 15.738L17.5105 20.3413C15.9305 21.3896 14.0363 22 12 22C9.96367 22 8.0695 21.3896 6.4895 20.3413L9.52027 15.738ZM7.50794 12.242L2.01765 12.5725C2.00594 12.3737 2 12.1734 2 11.9716C2 8.04556 4.24972 4.64644 7.52689 3L9.9871 7.93439C8.51237 8.67529 7.5 10.2049 7.5 11.9716C7.5 12.0624 7.50267 12.1526 7.50794 12.242ZM14.0129 7.93439L16.4731 3C19.7503 4.64644 22 8.04556 22 11.9716C22 12.1734 21.9941 12.3737 21.9823 12.5725L16.4921 12.242C16.4973 12.1526 16.5 12.0624 16.5 11.9716C16.5 10.2049 15.4876 8.67529 14.0129 7.93439Z" stroke="#333333" stroke-width="2" stroke-linejoin="round"/>
</g>
<defs>
<clipPath id="clip0_2_20756">
<rect width="24" height="24" fill="white"/>
</clipPath>
</defs>
</svg>
