<svg width="24" height="24" viewBox="0 0 24 24" fill="none" xmlns="http://www.w3.org/2000/svg">
<path d="M18 21.0006V10.8438C18 7.65625 15.5454 5 12 5C8.45455 5 6 7.65625 6 10.8438V21.0006C6 21.5529 6.4477 22 7 22H17C17.5523 22 18 21.5529 18 21.0006Z" stroke="#333333" stroke-width="2" stroke-linecap="round"/>
<path d="M12 13.5C13.1046 13.5 14 12.6046 14 11.5C14 10.3954 13.1046 9.5 12 9.5C10.8954 9.5 10 10.3954 10 11.5C10 12.6046 10.8954 13.5 12 13.5Z" stroke="#333333" stroke-width="2" stroke-linecap="round"/>
<path d="M9 17H10" stroke="#333333" stroke-width="2" stroke-linecap="round"/>
<path d="M13 19H15" stroke="#333333" stroke-width="2" stroke-linecap="round"/>
<path d="M6 10V2" stroke="#333333" stroke-width="2" stroke-linecap="round"/>
</svg>
