<svg width="24" height="24" viewBox="0 0 24 24" fill="none" xmlns="http://www.w3.org/2000/svg">
<path d="M19.5 7.5C20.5915 7.77745 21.5 8.25 21.5 9.5C21.5 10.75 20 11 19 11" stroke="#333333" stroke-width="2" stroke-linecap="round" stroke-linejoin="round"/>
<path d="M13 5C13 3.5 13.8743 2.5 15 2.5C16 2.5 16.524 2.80998 17 4" stroke="#333333" stroke-width="2" stroke-linecap="round" stroke-linejoin="round"/>
<path d="M15.5 6.0002C15.5 6.0002 15.9755 4.93435 16.5613 4.54509C17.4963 3.92386 18.75 3.85937 19.4357 4.54509C20.2316 5.341 20.2316 6.62355 19.4357 7.41945C18.6398 8.21535 17.9986 8.5002 17.9986 8.5002" stroke="#333333" stroke-width="2" stroke-linecap="round" stroke-linejoin="round"/>
<path d="M5.00045 6.99993C2.45812 9.54228 1.79151 13.4567 3.29464 16.5517C3.29464 16.5517 2.50048 20.4999 3.00048 20.9999C3.50048 21.4999 7.4311 20.704 7.4311 20.704C8.53625 21.2339 9.7074 21.4999 10.9013 21.4999C13.0681 21.4999 15.3859 20.5736 17.0005 18.9999C18.5923 17.4081 19.3037 15.351 19.3037 13.1179C19.3037 10.8643 18.5003 8.99993 16.8274 7.26228C15.1545 5.52463 13.2003 4.65625 10.9445 4.65625C8.6909 4.65625 6.5923 5.40813 5.00045 6.99993Z" stroke="#333333" stroke-width="2" stroke-linecap="round" stroke-linejoin="round"/>
<path d="M2.5 13.9999C2.5 13.9999 5 13.4999 6 15.4999" stroke="#333333" stroke-width="2" stroke-linecap="round" stroke-linejoin="round"/>
<path d="M9 21C9 21 9.5 19 8.5 18" stroke="#333333" stroke-width="2" stroke-linecap="round" stroke-linejoin="round"/>
<path d="M10.9013 21.5C9.70745 21.5 8.53635 21.234 7.43115 20.7041" stroke="#333333" stroke-width="2" stroke-linecap="round" stroke-linejoin="round"/>
<path d="M3.29464 16.5518C1.79151 13.4568 2.45812 9.54235 5.00045 7" stroke="#333333" stroke-width="2" stroke-linecap="round" stroke-linejoin="round"/>
</svg>
