<svg width="24" height="24" viewBox="0 0 24 24" fill="none" xmlns="http://www.w3.org/2000/svg">
<path d="M18.5 11.6C18.5 16 12 22 12 22C12 22 5.5 16 5.5 11.6C5.5 7.9549 8.41015 5 12 5C15.5898 5 18.5 7.9549 18.5 11.6Z" stroke="#333333" stroke-width="2" stroke-linecap="round" stroke-linejoin="round"/>
<path d="M12 2V5" stroke="#333333" stroke-width="2" stroke-miterlimit="2" stroke-linecap="round" stroke-linejoin="round"/>
<path d="M9 2.5L11 5" stroke="#333333" stroke-width="2" stroke-miterlimit="2" stroke-linecap="round" stroke-linejoin="round"/>
<path d="M15 2.5L13 5" stroke="#333333" stroke-width="2" stroke-miterlimit="2" stroke-linecap="round" stroke-linejoin="round"/>
<path d="M6 10H10" stroke="#333333" stroke-width="2" stroke-miterlimit="2" stroke-linecap="round" stroke-linejoin="round"/>
<path d="M14.5 13.5H18" stroke="#333333" stroke-width="2" stroke-miterlimit="2" stroke-linecap="round" stroke-linejoin="round"/>
<path d="M8 17H11" stroke="#333333" stroke-width="2" stroke-miterlimit="2" stroke-linecap="round" stroke-linejoin="round"/>
<path d="M6.906 7.5C6.02575 8.62605 5.5 10.0507 5.5 11.6C5.5 14.3774 8.08985 17.7922 10 19.9331" stroke="#333333" stroke-width="2" stroke-linecap="round" stroke-linejoin="round"/>
<path d="M18.5 11.5996C18.5 12.9867 17.8541 14.5327 16.9695 15.9996" stroke="#333333" stroke-width="2" stroke-linecap="round"/>
</svg>
