<svg width="24" height="24" viewBox="0 0 24 24" fill="none" xmlns="http://www.w3.org/2000/svg">
<path d="M6 3C6 2.44771 6.4477 2 7 2H17C17.5523 2 18 2.44771 18 3V15C18 15.5523 17.5523 16 17 16H7C6.4477 16 6 15.5523 6 15V3Z" stroke="#333333" stroke-width="2" stroke-linejoin="round"/>
<path d="M9 14C9.55228 14 10 13.5523 10 13C10 12.4477 9.55228 12 9 12C8.44772 12 8 12.4477 8 13C8 13.5523 8.44772 14 9 14Z" fill="#333333"/>
<path d="M15 14C15.5523 14 16 13.5523 16 13C16 12.4477 15.5523 12 15 12C14.4477 12 14 12.4477 14 13C14 13.5523 14.4477 14 15 14Z" fill="#333333"/>
<path d="M6 10H18" stroke="#333333" stroke-width="2" stroke-linecap="round" stroke-linejoin="round"/>
<path d="M10.5 19H13.5" stroke="#333333" stroke-width="2" stroke-linecap="round" stroke-linejoin="round"/>
<path d="M9 22H15" stroke="#333333" stroke-width="2" stroke-linecap="round" stroke-linejoin="round"/>
<path d="M8.5 16L5.5 22" stroke="#333333" stroke-width="2" stroke-linecap="round"/>
<path d="M15.5 16L18.5 22" stroke="#333333" stroke-width="2" stroke-linecap="round"/>
<path d="M18 7.5V12.5" stroke="#333333" stroke-width="2" stroke-linecap="round" stroke-linejoin="round"/>
<path d="M6 7.5V12.5" stroke="#333333" stroke-width="2" stroke-linecap="round" stroke-linejoin="round"/>
</svg>
