<svg width="24" height="24" viewBox="0 0 24 24" fill="none" xmlns="http://www.w3.org/2000/svg">
<path d="M11.1963 12.7079C13.5232 14.6604 16.9924 14.3569 18.9449 12.03C20.8974 9.70309 20.5939 6.23394 18.267 4.28143C15.94 2.32892 12.4709 2.63243 10.5184 4.95934C8.56587 7.28625 8.86938 10.7554 11.1963 12.7079Z" stroke="#333333" stroke-width="2" stroke-linecap="round" stroke-linejoin="round"/>
<path d="M19.2663 11.6468C19.2663 11.6468 16.4487 11.8934 13.7675 9.64361C11.0864 7.39381 10.8398 4.57617 10.8398 4.57617" stroke="#333333" stroke-width="2" stroke-linecap="round" stroke-linejoin="round"/>
<path d="M13.4329 13.9317C11.7027 14.438 10.8992 15.3955 10.0957 16.3531C9.29223 17.3106 9.25478 18.911 8.29058 20.0601C7.32638 21.2091 5.91758 21.3324 4.76851 20.3682C3.61944 19.404 3.49618 17.9952 4.46037 16.8461C5.42453 15.6971 6.99408 15.3823 7.79758 14.4247C8.60103 13.4672 9.40453 12.5096 9.60268 10.7178" stroke="#333333" stroke-width="2" stroke-linecap="round" stroke-linejoin="round"/>
<path d="M19.4161 5.24547C19.9486 4.61086 19.8658 3.66472 19.2312 3.13222C18.5966 2.59972 17.6504 2.68249 17.1179 3.31711" stroke="#333333" stroke-width="2" stroke-linecap="round" stroke-linejoin="round"/>
</svg>
