<svg width="24" height="24" viewBox="0 0 24 24" fill="none" xmlns="http://www.w3.org/2000/svg">
<path d="M11.502 11.994C13.8289 13.9466 17.298 13.643 19.2505 11.3161C21.203 8.98922 20.8995 5.52007 18.5726 3.56756C16.2457 1.61505 12.7766 1.91856 10.824 4.24547C8.87153 6.57238 9.17504 10.0415 11.502 11.994Z" stroke="#333333" stroke-width="2" stroke-linecap="round" stroke-linejoin="round"/>
<path d="M10.8242 4.24587C8.51941 4.27006 7.66091 2.57064 6.53601 3.91122C5.51966 5.12244 6.78251 6.72889 5.81836 7.87794" stroke="#333333" stroke-width="2" stroke-linecap="round" stroke-linejoin="round"/>
<path d="M12.6511 12.9586C12.6511 12.9586 10.562 15.4483 9.75856 16.4058C8.95506 17.3634 8.91761 18.9637 7.95341 20.1128C6.98926 21.2619 5.58041 21.3851 4.43135 20.421C3.28228 19.4568 3.15903 18.0479 4.12321 16.8989C5.08741 15.7498 6.65691 15.435 7.46041 14.4775C8.26391 13.5199 10.0418 11.5307 10.353 11.0303" stroke="#333333" stroke-width="2" stroke-linecap="round" stroke-linejoin="round"/>
<path d="M4.65601 10.819C5.29062 11.3515 6.23675 11.2687 6.76925 10.6341C7.30176 9.99946 7.21898 9.05332 6.58437 8.52082C5.94976 7.98832 5.00362 8.0711 4.47112 8.70571C3.93862 9.34032 4.02139 10.2865 4.65601 10.819Z" stroke="#333333" stroke-width="2" stroke-linecap="round" stroke-linejoin="round"/>
<path d="M13.2673 20.0025C13.9019 20.5351 14.8481 20.4523 15.3806 19.8177C15.9131 19.1831 15.8303 18.2369 15.1957 17.7044C14.5611 17.1719 13.615 17.2547 13.0824 17.8893C12.5499 18.5239 12.6327 19.47 13.2673 20.0025Z" stroke="#333333" stroke-width="2" stroke-linecap="round" stroke-linejoin="round"/>
<path d="M18.6079 12.082C18.9226 13.6516 20.0343 16.2161 19.0393 17.013C18.0443 17.8098 15.777 16.2337 15.1958 17.7041" stroke="#333333" stroke-width="2" stroke-linecap="round" stroke-linejoin="round"/>
</svg>
