<svg width="24" height="24" viewBox="0 0 24 24" fill="none" xmlns="http://www.w3.org/2000/svg">
<g clip-path="url(#clip0_2_20958)">
<path d="M24 0H0V24H24V0Z" fill="white" fill-opacity="0.01"/>
<path d="M4.92893 19.0709C8.8342 22.9761 15.1658 22.9761 19.0711 19.0709L4.92893 4.92871C1.02369 8.83396 1.02369 15.1656 4.92893 19.0709Z" stroke="#333333" stroke-width="2" stroke-linecap="round" stroke-linejoin="round"/>
<path d="M16.9497 16.9499L19.5849 5.95703" stroke="#333333" stroke-width="2" stroke-linecap="round" stroke-linejoin="round"/>
<path d="M12 11.9998L18.5858 5.41406" stroke="#333333" stroke-width="2" stroke-linecap="round" stroke-linejoin="round"/>
<path d="M7.05029 7.05025L18.0431 4.41504" stroke="#333333" stroke-width="2" stroke-linecap="round" stroke-linejoin="round"/>
<path d="M22 4C22 5.10455 21.1046 6 20 6C19.8577 6 19.7188 5.98515 19.5849 5.95685C19.1992 5.87545 18.8545 5.6829 18.5858 5.4142C18.3171 5.14555 18.1245 4.8008 18.0431 4.41506C18.0148 4.28116 18 4.14232 18 4C18 2.89543 18.8954 2 20 2C21.1046 2 22 2.89543 22 4Z" stroke="#333333" stroke-width="2" stroke-linecap="round" stroke-linejoin="round"/>
</g>
<defs>
<clipPath id="clip0_2_20958">
<rect width="24" height="24" fill="white"/>
</clipPath>
</defs>
</svg>
