<svg width="24" height="24" viewBox="0 0 24 24" fill="none" xmlns="http://www.w3.org/2000/svg">
<path d="M20.5 9H3.5C2.94772 9 2.5 9.44772 2.5 10V20C2.5 20.5523 2.94772 21 3.5 21H20.5C21.0523 21 21.5 20.5523 21.5 20V10C21.5 9.44772 21.0523 9 20.5 9Z" stroke="#333333" stroke-width="2" stroke-linecap="round" stroke-linejoin="round"/>
<path d="M4 6H20" stroke="#333333" stroke-width="2" stroke-linecap="round" stroke-linejoin="round"/>
<path d="M7.5 3H16.5" stroke="#333333" stroke-width="2" stroke-linecap="round" stroke-linejoin="round"/>
<path d="M13 12V15" stroke="#333333" stroke-width="2" stroke-linecap="round" stroke-linejoin="round"/>
<path d="M9 16.3745C9 15.6154 9.6447 15 10.44 15H13V16.6255C13 17.3846 12.3553 18 11.56 18H10.44C9.6447 18 9 17.3846 9 16.6255V16.3745Z" stroke="#333333" stroke-width="2" stroke-linejoin="round"/>
<path d="M15.5 12.5L13 12" stroke="#333333" stroke-width="2" stroke-linecap="round" stroke-linejoin="round"/>
</svg>
