<svg width="24" height="24" viewBox="0 0 24 24" fill="none" xmlns="http://www.w3.org/2000/svg">
<g clip-path="url(#clip0_2_19770)">
<path d="M24 0H0V24H24V0Z" fill="white" fill-opacity="0.01"/>
<path d="M3 4V20C3 20.5523 3.44771 21 4 21H20C20.5523 21 21 20.5523 21 20V4C21 3.44771 20.5523 3 20 3H4C3.44771 3 3 3.44771 3 4Z" stroke="#333333" stroke-width="2" stroke-linecap="round" stroke-linejoin="round"/>
<path d="M13.5 3L10.5 6L13.5 9L10.5 12L13.5 15L10.5 18L13.5 21" stroke="#333333" stroke-width="2" stroke-linecap="round" stroke-linejoin="round"/>
<path d="M9 3H17" stroke="#333333" stroke-width="2" stroke-linecap="round" stroke-linejoin="round"/>
<path d="M9 21H17" stroke="#333333" stroke-width="2" stroke-linecap="round" stroke-linejoin="round"/>
</g>
<defs>
<clipPath id="clip0_2_19770">
<rect width="24" height="24" fill="white"/>
</clipPath>
</defs>
</svg>
