<svg width="24" height="24" viewBox="0 0 24 24" fill="none" xmlns="http://www.w3.org/2000/svg">
<g clip-path="url(#clip0_2_19766)">
<path d="M24 0H0V24H24V0Z" fill="white" fill-opacity="0.01"/>
<path d="M16.7632 9.75002L12.8965 3.05274C12.505 2.37461 11.5212 2.38919 11.15 3.07863L8.5 8.00002" stroke="#333333" stroke-width="2" stroke-linecap="round" stroke-linejoin="round"/>
<path d="M12.5 20H20.7104C21.4927 20 21.9721 19.1422 21.5621 18.4759L18.5 13.5" stroke="#333333" stroke-width="2" stroke-linecap="round" stroke-linejoin="round"/>
<path d="M6.50005 11.5L2.38653 18.493C1.99439 19.1596 2.47505 20 3.24847 20H8.50005" stroke="#333333" stroke-width="2" stroke-linecap="round" stroke-linejoin="round"/>
<path d="M14.5 18L12.5 20L14.5 22" stroke="#333333" stroke-width="2" stroke-linecap="round" stroke-linejoin="round"/>
<path d="M14 9.10059L16.732 9.83269L17.4641 7.10059" stroke="#333333" stroke-width="2" stroke-linecap="round" stroke-linejoin="round"/>
<path d="M3.75 12.232L6.48205 11.5L7.2141 14.232" stroke="#333333" stroke-width="2" stroke-linecap="round" stroke-linejoin="round"/>
</g>
<defs>
<clipPath id="clip0_2_19766">
<rect width="24" height="24" fill="white"/>
</clipPath>
</defs>
</svg>
