<svg width="24" height="24" viewBox="0 0 24 24" fill="none" xmlns="http://www.w3.org/2000/svg">
<g clip-path="url(#clip0_2_21740)">
<path d="M24 0H0V24H24V0Z" fill="white" fill-opacity="0.01"/>
<path d="M20 2H4V22H20V2Z" stroke="#333333" stroke-width="2" stroke-linecap="round" stroke-linejoin="round"/>
<path d="M20 5C18 7.88125 16.1595 9.66034 14.1595 10.4458M9.86844 10.3888C7.86844 9.60334 6 7.88125 4 5L9.86844 10.3888Z" stroke="#333333" stroke-width="2" stroke-linecap="round" stroke-linejoin="round"/>
<path d="M12 13.5C13.2426 13.5 14.25 12.4926 14.25 11.25C14.25 10.0074 13.2426 9 12 9C10.7574 9 9.75 10.0074 9.75 11.25C9.75 12.4926 10.7574 13.5 12 13.5Z" stroke="#333333" stroke-width="2" stroke-linejoin="round"/>
</g>
<defs>
<clipPath id="clip0_2_21740">
<rect width="24" height="24" fill="white"/>
</clipPath>
</defs>
</svg>
