<svg width="24" height="24" viewBox="0 0 24 24" fill="none" xmlns="http://www.w3.org/2000/svg">
<path d="M19.5 3H4.5C3.67157 3 3 3.67157 3 4.5V19.5C3 20.3284 3.67157 21 4.5 21H19.5C20.3284 21 21 20.3284 21 19.5V4.5C21 3.67157 20.3284 3 19.5 3Z" stroke="#333333" stroke-width="2"/>
<path d="M8.49996 15H6.20706C5.76161 15 5.53851 15.5385 5.85351 15.8535L8.14641 18.1465C8.46141 18.4615 8.99996 18.2384 8.99996 17.7929V15.5C8.99996 15.2239 8.77611 15 8.49996 15Z" fill="#333333"/>
<path d="M15 15.5V17.7929C15 18.2384 15.5385 18.4615 15.8535 18.1465L18.1465 15.8535C18.4615 15.5385 18.2384 15 17.7929 15H15.5C15.2239 15 15 15.2239 15 15.5Z" fill="#333333"/>
<path d="M15.5 8.99996H17.7929C18.2384 8.99996 18.4615 8.46141 18.1465 8.14641L15.8535 5.85351C15.5385 5.53851 15 5.76161 15 6.20706V8.49996C15 8.77611 15.2239 8.99996 15.5 8.99996Z" fill="#333333"/>
<path d="M8.99996 8.49996V6.20706C8.99996 5.76161 8.46141 5.53851 8.14641 5.85351L5.85351 8.14641C5.53851 8.46141 5.76161 8.99996 6.20706 8.99996H8.49996C8.77611 8.99996 8.99996 8.77611 8.99996 8.49996Z" fill="#333333"/>
</svg>
