<svg width="24" height="24" viewBox="0 0 24 24" fill="none" xmlns="http://www.w3.org/2000/svg">
<path d="M11.3284 9.20673L9.20711 11.328C8.81658 11.7186 8.81658 12.3517 9.20711 12.7423L11.3284 14.8636C11.719 15.2541 12.3521 15.2541 12.7426 14.8636L14.864 12.7423C15.2545 12.3517 15.2545 11.7186 14.864 11.328L12.7426 9.20673C12.3521 8.8162 11.719 8.8162 11.3284 9.20673Z" stroke="#333333" stroke-width="2" stroke-linecap="round" stroke-linejoin="round"/>
<path d="M20.06 8C18.5873 5.03655 15.5293 3 11.9956 3C8.46185 3 5.4727 5.03655 4 8" stroke="#333333" stroke-width="2" stroke-linecap="round"/>
<path d="M4 4V8" stroke="#333333" stroke-width="2" stroke-linecap="round"/>
<path d="M7.39021 8H4.00012" stroke="#333333" stroke-width="2" stroke-linecap="round"/>
<path d="M4 16C5.4727 18.9634 8.53075 21 12.0645 21C15.5982 21 18.5873 18.9634 20.06 16" stroke="#333333" stroke-width="2" stroke-linecap="round"/>
<path d="M20.0601 20V16" stroke="#333333" stroke-width="2" stroke-linecap="round"/>
<path d="M16.6699 16H20.06" stroke="#333333" stroke-width="2" stroke-linecap="round"/>
</svg>
