<svg width="24" height="24" viewBox="0 0 24 24" fill="none" xmlns="http://www.w3.org/2000/svg">
<g clip-path="url(#clip0_2_19753)">
<path d="M24 0H0V24H24V0Z" fill="white" fill-opacity="0.01"/>
<path d="M17.5 2H6.5C5.94772 2 5.5 2.44772 5.5 3V21C5.5 21.5523 5.94772 22 6.5 22H17.5C18.0523 22 18.5 21.5523 18.5 21V3C18.5 2.44772 18.0523 2 17.5 2Z" stroke="#333333" stroke-width="2"/>
<path d="M12 19C13.1046 19 14 18.1046 14 17C14 15.8954 13.1046 15 12 15C10.8954 15 10 15.8954 10 17C10 18.1046 10.8954 19 12 19Z" stroke="#333333" stroke-width="2"/>
<path d="M15 5H9V9H15V5Z" stroke="#333333" stroke-width="2" stroke-linecap="round" stroke-linejoin="round"/>
<path d="M11.5 12H12.5" stroke="#333333" stroke-width="2" stroke-linecap="round" stroke-linejoin="round"/>
</g>
<defs>
<clipPath id="clip0_2_19753">
<rect width="24" height="24" fill="white"/>
</clipPath>
</defs>
</svg>
