<svg width="24" height="24" viewBox="0 0 24 24" fill="none" xmlns="http://www.w3.org/2000/svg">
<g clip-path="url(#clip0_2_19752)">
<path d="M24 0H0V24H24V0Z" fill="white" fill-opacity="0.01"/>
<path d="M8.0002 21.9997C7.26915 19.8253 7.03325 17.992 7.29245 16.4997C7.55165 15.0074 8.3577 14.0321 9.71055 13.5736C8.7039 16.627 9.1164 18.8579 10.9481 20.2662C13.6956 22.3786 20.3168 21.4071 20.6756 14.2613C21.0343 7.11546 17.5974 1.95605 12.5151 1.95605C7.4328 1.95605 6.6731 7.45661 10.2525 9.32331C7.08555 10.0136 5.0759 11.4303 4.22353 13.5736C3.37115 15.7169 3.30479 18.5256 4.02446 21.9997" stroke="#333333" stroke-width="2" stroke-linecap="round" stroke-linejoin="round"/>
<path d="M15.2999 7.5C13.8512 8.36365 13.3261 9.15465 13.7247 9.873C14.1233 10.5914 15.0274 10.5914 16.4369 9.873" stroke="#333333" stroke-width="2" stroke-linecap="round" stroke-linejoin="round"/>
<path d="M16.6233 13.12C14.7531 12.7389 13.6285 12.8769 13.2495 13.5338C12.6811 14.5192 15.1848 15.9469 16.0924 16.1253" stroke="#333333" stroke-width="2" stroke-linecap="round" stroke-linejoin="round"/>
</g>
<defs>
<clipPath id="clip0_2_19752">
<rect width="24" height="24" fill="white"/>
</clipPath>
</defs>
</svg>
