<svg width="24" height="24" viewBox="0 0 24 24" fill="none" xmlns="http://www.w3.org/2000/svg">
<path d="M5.63605 18.364C7.2647 19.9927 9.5147 21 12 21C16.9706 21 21 16.9706 21 12C21 7.02945 16.9706 3 12 3C9.5147 3 7.2647 4.00736 5.63605 5.63605C4.80705 6.46505 3 8.5 3 8.5" stroke="#333333" stroke-width="2" stroke-linecap="round" stroke-linejoin="round"/>
<path d="M3 4.5V8.5H7" stroke="#333333" stroke-width="2" stroke-linecap="round" stroke-linejoin="round"/>
<path d="M14 9H10.5V11.8549C10.9922 11.5317 11.2344 11.5 12 11.5C13.5 11.5 14 12.4943 14 14C14 15.5057 13 16 12 16C11.25 16 10.5 15.5 10.5 15" stroke="#333333" stroke-width="2" stroke-linecap="round" stroke-linejoin="round"/>
</svg>
