<svg width="24" height="24" viewBox="0 0 24 24" fill="none" xmlns="http://www.w3.org/2000/svg">
<path d="M16.5 11C16.5 14.5 12 17.5 12 17.5C12 17.5 7.5 14.5 7.5 11C7.5 9.80655 7.9741 8.66195 8.818 7.818C9.66195 6.9741 10.8066 6.5 12 6.5C13.1934 6.5 14.3381 6.9741 15.182 7.818C16.0259 8.66195 16.5 9.80655 16.5 11Z" stroke="#333333" stroke-width="2" stroke-linecap="round" stroke-linejoin="round"/>
<path d="M12 12.5C12.8285 12.5 13.5 11.8285 13.5 11C13.5 10.1715 12.8285 9.5 12 9.5C11.1715 9.5 10.5 10.1715 10.5 11C10.5 11.8285 11.1715 12.5 12 12.5Z" stroke="#333333" stroke-width="2" stroke-linecap="round" stroke-linejoin="round"/>
<path d="M4.5 6.9997C4.5 6.9997 8.25 1.24968 14.75 3.49969C21.25 5.7497 21 12.2497 21 12.2497" stroke="#333333" stroke-width="2" stroke-linecap="round" stroke-linejoin="round"/>
<path d="M21 4V12" stroke="#333333" stroke-width="2" stroke-linecap="round" stroke-linejoin="round"/>
<path d="M19.5 17C19.5 17 16.5 22.5 9.75 20.75C3 19 3 12 3 12" stroke="#333333" stroke-width="2" stroke-linecap="round" stroke-linejoin="round"/>
<path d="M3 12V20" stroke="#333333" stroke-width="2" stroke-linecap="round" stroke-linejoin="round"/>
</svg>
