<svg width="24" height="24" viewBox="0 0 24 24" fill="none" xmlns="http://www.w3.org/2000/svg">
<path d="M4.92888 15.5353C4.53836 15.1447 4.53836 14.5116 4.92888 14.121L6.40375 12.6462C6.5913 12.4586 6.84565 12.3533 7.11085 12.3533H8.40375C8.669 12.3533 8.92335 12.2479 9.1109 12.0604L12.0606 9.11061C12.2481 8.92311 12.3535 8.66871 12.3535 8.40351V7.11061C12.3535 6.84541 12.4588 6.59106 12.6464 6.40351L14.1212 4.92864C14.5118 4.53811 15.1449 4.53811 15.5355 4.92864L19.071 8.46416C19.4615 8.85471 19.4615 9.48786 19.071 9.87836L17.5961 11.3533C17.4086 11.5408 17.1542 11.6462 16.889 11.6462H15.5961C15.3309 11.6462 15.0766 11.7515 14.889 11.9391L11.9393 14.8888C11.7517 15.0764 11.6464 15.3307 11.6464 15.5959V16.8888C11.6464 17.154 11.541 17.4084 11.3535 17.5959L9.87864 19.0708C9.48809 19.4613 8.85495 19.4613 8.4644 19.0708L4.92888 15.5353Z" stroke="#333333" stroke-width="2" stroke-linejoin="round"/>
<path d="M3.51465 20.4857L6.69665 17.3037" stroke="#333333" stroke-width="2" stroke-linecap="round" stroke-linejoin="round"/>
<path d="M17.3037 6.69662L20.4857 3.51465" stroke="#333333" stroke-width="2" stroke-linecap="round" stroke-linejoin="round"/>
</svg>
