<svg width="24" height="24" viewBox="0 0 24 24" fill="none" xmlns="http://www.w3.org/2000/svg">
<path d="M17.5 7C17.5 4.23857 15.0375 2 12 2C8.96245 2 6.5 4.23857 6.5 7" stroke="#333333" stroke-width="2" stroke-linecap="round" stroke-linejoin="round"/>
<path d="M3.5 8C3.5 7.4477 3.94771 7 4.5 7H19.5C20.0523 7 20.5 7.4477 20.5 8V14C20.5 14.5523 20.0523 15 19.5 15H15C14.4477 15 14 14.5523 14 14C14 13.4477 13.5523 13 13 13H11C10.4477 13 10 13.4477 10 14C10 14.5523 9.5523 15 9 15H4.5C3.94771 15 3.5 14.5523 3.5 14V8Z" stroke="#333333" stroke-width="2" stroke-linecap="round" stroke-linejoin="round"/>
<path d="M5 15V22H19V15" stroke="#333333" stroke-width="2" stroke-linecap="round" stroke-linejoin="round"/>
<path d="M14 13H10V16H14V13Z" stroke="#333333" stroke-width="2" stroke-linecap="round" stroke-linejoin="round"/>
</svg>
