<svg width="24" height="24" viewBox="0 0 24 24" fill="none" xmlns="http://www.w3.org/2000/svg">
<path d="M7.5 6L9 3H15L16.5 6H7.5Z" stroke="#333333" stroke-width="2" stroke-linejoin="round"/>
<path d="M20.5 6H3.5C2.67158 6 2 6.6268 2 7.4V19.6C2 20.3732 2.67158 21 3.5 21H20.5C21.3285 21 22 20.3732 22 19.6V7.4C22 6.6268 21.3285 6 20.5 6Z" stroke="#333333" stroke-width="2" stroke-linejoin="round"/>
<path d="M16 9.5V13.5" stroke="#333333" stroke-width="2" stroke-linecap="round" stroke-linejoin="round"/>
<path d="M8 13.5V17.5" stroke="#333333" stroke-width="2" stroke-linecap="round" stroke-linejoin="round"/>
<path d="M8 13.5C8 15.7092 9.79085 17.5 12 17.5C12.5304 17.5 13.0368 17.3967 13.5 17.2092" stroke="#333333" stroke-width="2" stroke-linecap="round"/>
<path d="M16 13.5C16 11.2908 14.2092 9.5 12 9.5C11.4696 9.5 10.9632 9.60325 10.5 9.79075" stroke="#333333" stroke-width="2" stroke-linecap="round"/>
</svg>
