<svg width="24" height="24" viewBox="0 0 24 24" fill="none" xmlns="http://www.w3.org/2000/svg">
<path d="M16.5 7C17.8807 7 19 5.8807 19 4.5C19 3.11929 17.8807 2 16.5 2C15.1193 2 14 3.11929 14 4.5C14 5.8807 15.1193 7 16.5 7Z" stroke="#333333" stroke-width="2" stroke-miterlimit="2"/>
<path d="M20.0001 11.4999H16.1851C15.9051 11.4999 15.6351 11.3799 15.4451 11.1749L12.7751 8.28491C12.4501 7.92991 11.9201 7.85491 11.5101 8.10491L7.78508 10.3949C7.47008 10.5899 7.47008 11.0499 7.78508 11.2449L11.5151 13.5299C11.8101 13.7099 11.9951 14.0349 11.9951 14.3849L12.0001 18.9999" stroke="#333333" stroke-width="2" stroke-miterlimit="2" stroke-linecap="round" stroke-linejoin="round"/>
<path d="M18.25 22C20.3211 22 22 20.3211 22 18.25C22 16.1789 20.3211 14.5 18.25 14.5C16.1789 14.5 14.5 16.1789 14.5 18.25C14.5 20.3211 16.1789 22 18.25 22Z" stroke="#333333" stroke-width="2"/>
<path d="M5.75 22C7.82107 22 9.5 20.3211 9.5 18.25C9.5 16.1789 7.82107 14.5 5.75 14.5C3.67893 14.5 2 16.1789 2 18.25C2 20.3211 3.67893 22 5.75 22Z" stroke="#333333" stroke-width="2"/>
</svg>
