<svg width="24" height="24" viewBox="0 0 24 24" fill="none" xmlns="http://www.w3.org/2000/svg">
<path d="M6.2902 13.757L2 14.1597V11.3403L8.1289 8.7222V5C8.1289 5 10.989 5.7014 11.3976 6.30555C11.8062 6.9097 11.3976 8.31945 11.3976 8.31945C13.4406 9.05785 15.3921 11.3403 15.3921 13.1528C15.3921 14.9653 14.5 17.25 14.5 17.25C13.5097 17.25 13.1449 19.3959 13.7578 20" stroke="#333333" stroke-width="2" stroke-linecap="round" stroke-linejoin="round"/>
<path d="M11 13C11 14.3807 10.1046 15 9 15C7.89545 15 7 14.3807 7 13" stroke="#333333" stroke-width="2" stroke-linecap="round"/>
<path d="M8.69025 15C8.9093 15 9.1283 16.6 8.9093 17.4C8.69025 18.2 8.47125 18.6 6.5 20" stroke="#333333" stroke-width="2" stroke-linecap="round"/>
<path d="M18.5 8C19.0523 8 19.5 7.5523 19.5 7C19.5 6.4477 19.0523 6 18.5 6C17.9477 6 17.5 6.4477 17.5 7C17.5 7.5523 17.9477 8 18.5 8Z" stroke="#333333" stroke-width="2" stroke-miterlimit="2"/>
<path d="M13.4998 15C14.7173 15.0419 16.5549 14.1134 17.4998 13.4668C18.6359 12.6866 17.5672 11.4615 18.8621 11.1892L19.7744 10.5C19.7744 10.5 20.4997 11.5332 20.9997 12.5C21.4998 13.4668 21.7998 16.45 20.9998 18.25H16.9998L18.4998 19.75" stroke="#333333" stroke-width="2" stroke-miterlimit="2" stroke-linecap="round" stroke-linejoin="round"/>
</svg>
