<svg width="24" height="24" viewBox="0 0 24 24" fill="none" xmlns="http://www.w3.org/2000/svg">
<path d="M6.5 21.5C8.71 21.5 10.5 19.71 10.5 17.5C10.5 15.29 8.71 13.5 6.5 13.5C4.29 13.5 2.5 15.29 2.5 17.5C2.5 19.71 4.29 21.5 6.5 21.5Z" stroke="#333333" stroke-width="2" stroke-miterlimit="2" stroke-linecap="round" stroke-linejoin="round"/>
<path d="M17.5 21.5C19.71 21.5 21.5 19.71 21.5 17.5C21.5 15.29 19.71 13.5 17.5 13.5C15.29 13.5 13.5 15.29 13.5 17.5C13.5 19.71 15.29 21.5 17.5 21.5Z" stroke="#333333" stroke-width="2" stroke-miterlimit="2" stroke-linecap="round" stroke-linejoin="round"/>
<path d="M3 2.5H21" stroke="#333333" stroke-width="2" stroke-miterlimit="2" stroke-linecap="round" stroke-linejoin="round"/>
<path d="M6.5 13.5V2.5" stroke="#333333" stroke-width="2" stroke-miterlimit="2" stroke-linecap="round" stroke-linejoin="round"/>
<path d="M17.5 13.5V2.5" stroke="#333333" stroke-width="2" stroke-miterlimit="2" stroke-linecap="round" stroke-linejoin="round"/>
<path d="M4.5 9.5H8.5" stroke="#333333" stroke-width="2" stroke-miterlimit="2" stroke-linecap="round" stroke-linejoin="round"/>
<path d="M15.5 9.5H19.5" stroke="#333333" stroke-width="2" stroke-miterlimit="2" stroke-linecap="round" stroke-linejoin="round"/>
</svg>
