<svg width="24" height="24" viewBox="0 0 24 24" fill="none" xmlns="http://www.w3.org/2000/svg">
<g clip-path="url(#clip0_2_19728)">
<path d="M24 0H0V24H24V0Z" fill="white" fill-opacity="0.01"/>
<path d="M2 18C2 18 4.5 16.5 7 16.5C10.6488 16.5 13.3512 19.5 17 19.5C19.5 19.5 22 18 22 18" stroke="#333333" stroke-width="2" stroke-linecap="round" stroke-linejoin="round"/>
<path d="M2 12C2 12 4.5 10.5 7 10.5C10.6488 10.5 13.3512 13.5 17 13.5C19.5 13.5 22 12 22 12" stroke="#333333" stroke-width="2" stroke-linecap="round" stroke-linejoin="round"/>
<path d="M2 6C2 6 4.5 4.5 7 4.5C10.6488 4.5 13.3512 7.5 17 7.5C19.5 7.5 22 6 22 6" stroke="#333333" stroke-width="2" stroke-linecap="round" stroke-linejoin="round"/>
</g>
<defs>
<clipPath id="clip0_2_19728">
<rect width="24" height="24" fill="white"/>
</clipPath>
</defs>
</svg>
