<svg width="24" height="24" viewBox="0 0 24 24" fill="none" xmlns="http://www.w3.org/2000/svg">
<g clip-path="url(#clip0_2_19868)">
<path d="M24 0H0V24H24V0Z" fill="white" fill-opacity="0.01"/>
<path d="M18.5 21L17.75 18.3L16 12L14.75 7.5L14.125 5.25L13.5 3H10.5L9.875 5.25L9.25 7.5L8 12L6.75 16.5L6.125 18.75L5.5 21M18.5 21H5.5H18.5ZM18.5 21H3H5.5H18.5ZM18.5 21H21H18.5Z" stroke="#333333" stroke-width="2" stroke-linecap="round" stroke-linejoin="round"/>
<path d="M6.75 16.5H17.25" stroke="#333333" stroke-width="2" stroke-linecap="round" stroke-linejoin="round"/>
<path d="M16 12H8" stroke="#333333" stroke-width="2" stroke-linecap="round" stroke-linejoin="round"/>
<path d="M14.75 7.5H9.25" stroke="#333333" stroke-width="2" stroke-linecap="round" stroke-linejoin="round"/>
<path d="M14.125 5.25L17.75 18.3" stroke="#333333" stroke-width="2" stroke-linecap="round" stroke-linejoin="round"/>
<path d="M6.125 18.75L9.875 5.25" stroke="#333333" stroke-width="2" stroke-linecap="round" stroke-linejoin="round"/>
</g>
<defs>
<clipPath id="clip0_2_19868">
<rect width="24" height="24" fill="white"/>
</clipPath>
</defs>
</svg>
