<svg width="24" height="24" viewBox="0 0 24 24" fill="none" xmlns="http://www.w3.org/2000/svg">
<path d="M2.5 17.5C2.5 16.9477 2.94771 16.5 3.5 16.5H20.5C21.0523 16.5 21.5 16.9477 21.5 17.5V21H2.5V17.5Z" stroke="#333333" stroke-width="2" stroke-linecap="round" stroke-linejoin="round"/>
<path d="M21 9H17L14 6L17 3H21" stroke="#333333" stroke-width="2" stroke-linecap="round" stroke-linejoin="round"/>
<path d="M4 8C5.10457 8 6 7.10457 6 6C6 4.89543 5.10457 4 4 4C2.89543 4 2 4.89543 2 6C2 7.10457 2.89543 8 4 8Z" stroke="#333333" stroke-width="2"/>
<path d="M6 6H14" stroke="#333333" stroke-width="2" stroke-linecap="round" stroke-linejoin="round"/>
<path d="M5 8L9 16.5" stroke="#333333" stroke-width="2" stroke-linecap="round" stroke-linejoin="round"/>
</svg>
