<svg width="24" height="24" viewBox="0 0 24 24" fill="none" xmlns="http://www.w3.org/2000/svg">
<g clip-path="url(#clip0_2_19724)">
<path d="M24 0H0V24H24V0Z" fill="white" fill-opacity="0.01"/>
<path d="M18.5 8.5H5.5C4.94772 8.5 4.5 8.94772 4.5 9.5V20.5C4.5 21.0523 4.94772 21.5 5.5 21.5H18.5C19.0523 21.5 19.5 21.0523 19.5 20.5V9.5C19.5 8.94772 19.0523 8.5 18.5 8.5Z" stroke="#333333" stroke-width="2" stroke-linecap="round" stroke-linejoin="round"/>
<path d="M16.5 4.5L14 8.5" stroke="#333333" stroke-width="2" stroke-linecap="round" stroke-linejoin="round"/>
<path d="M7.5 4.5L10 8.5" stroke="#333333" stroke-width="2" stroke-linecap="round" stroke-linejoin="round"/>
<path d="M17 4.5C17.5523 4.5 18 4.05228 18 3.5C18 2.94772 17.5523 2.5 17 2.5C16.4477 2.5 16 2.94772 16 3.5C16 4.05228 16.4477 4.5 17 4.5Z" stroke="#333333" stroke-width="2"/>
<path d="M7 4.5C7.55228 4.5 8 4.05228 8 3.5C8 2.94772 7.55228 2.5 7 2.5C6.44772 2.5 6 2.94772 6 3.5C6 4.05228 6.44772 4.5 7 4.5Z" stroke="#333333" stroke-width="2"/>
<path d="M14 12H10C8.89543 12 8 12.8954 8 14C8 15.1046 8.89543 16 10 16H14C15.1046 16 16 15.1046 16 14C16 12.8954 15.1046 12 14 12Z" stroke="#333333" stroke-width="2"/>
<path d="M4.5 12H2V17H4.5" stroke="#333333" stroke-width="2" stroke-linecap="round" stroke-linejoin="round"/>
<path d="M19.5 12H22V17H19.5" stroke="#333333" stroke-width="2" stroke-linecap="round" stroke-linejoin="round"/>
</g>
<defs>
<clipPath id="clip0_2_19724">
<rect width="24" height="24" fill="white"/>
</clipPath>
</defs>
</svg>
