<svg width="24" height="24" viewBox="0 0 24 24" fill="none" xmlns="http://www.w3.org/2000/svg">
<path d="M11.75 10.2504C11.1731 10.2504 9.57605 10.166 7.5569 12.4736C6.35575 13.8464 6.14345 15.5169 6.2322 16.6786C6.27435 17.2309 6.83445 17.5353 7.34885 17.33C7.72105 17.1814 8.1287 16.9961 8.42225 16.8004C9.2876 16.2235 8.99915 15.6466 9.2876 14.7812C9.57605 13.9159 10.7298 13.339 11.8836 13.6274C13.0374 13.9159 13.4785 14.792 13.6143 15.6466C13.75 16.5004 13.25 17.5004 12.1721 17.9542C10.9831 18.4547 10.4414 17.9542 8.99915 17.6657C8.24755 17.5154 7.496 18.1729 7.06335 18.6495C6.81835 18.9194 6.7921 19.3122 7.0046 19.6083C7.14895 19.8094 7.33515 20.04 7.5569 20.2618C8.1338 20.8387 10.4414 22.5694 12.749 22.2809C15.0565 21.9925 17.0757 20.2618 17.941 18.2426C18.8064 16.2235 18.5 13.5004 16.5 12.0004" stroke="#333333" stroke-width="2" stroke-linecap="round" stroke-linejoin="round"/>
<path d="M16.5 12.0003L11.5639 2.12047C11.449 1.89046 11.176 1.78192 10.953 1.91002C10.4326 2.20911 9.8235 2.77136 10.0214 3.64376C10.2766 4.76897 12.7904 13.5246 13.4998 15.0003" stroke="#333333" stroke-width="2" stroke-linecap="round" stroke-linejoin="round"/>
<path d="M18 13.5L17.5261 3.84503C17.5139 3.59547 17.3185 3.38931 17.0692 3.40515C16.4684 3.44333 15.6618 3.67905 15.4565 4.55842C15.1943 5.68204 15.0069 7.36264 15 8.99999" stroke="#333333" stroke-width="2" stroke-linecap="round" stroke-linejoin="round"/>
</svg>
