<svg width="24" height="24" viewBox="0 0 24 24" fill="none" xmlns="http://www.w3.org/2000/svg">
<g clip-path="url(#clip0_2_19723)">
<path d="M24 0H0V24H24V0Z" fill="white" fill-opacity="0.01"/>
<path d="M12 12.5C12 12.5 12 4.25 12 3.75C12 3.10938 12.25 2 13.5 2C14.75 2 15 3.10938 15 3.75C15 4 15 15 15 15C15 15 17.8515 12.1485 18.5 11.5C19.1484 10.8515 20.039 10.539 20.75 11.25C21.4609 11.961 21.5469 12.7031 20.75 13.5C19.9531 14.2969 17.5 16.75 17.5 16.75C17.5 16.75 14.5469 22 13 22C11.4531 22 6.5 22 6.5 22C6.5 22 5 22 4.00001 21C3.00001 20 3.00001 18.75 3.00001 18.75C3.00001 18.75 2.99999 6.75 3.00001 6.3906C3.00002 6.03125 3.25001 5 4.50001 5C5.75 5 6 6 6 6.3906C6 6.75 6 12.5 6 12.5" stroke="#333333" stroke-width="2" stroke-linecap="round" stroke-linejoin="round"/>
<path d="M9 11C9 10.1716 8.32843 9.5 7.5 9.5C6.67157 9.5 6 10.1716 6 11V14C6 14.8284 6.67157 15.5 7.5 15.5C8.32843 15.5 9 14.8284 9 14V11Z" stroke="#333333" stroke-width="2" stroke-linejoin="round"/>
<path d="M12 11C12 10.1716 11.3284 9.5 10.5 9.5C9.67157 9.5 9 10.1716 9 11V14C9 14.8284 9.67157 15.5 10.5 15.5C11.3284 15.5 12 14.8284 12 14V11Z" stroke="#333333" stroke-width="2" stroke-linejoin="round"/>
</g>
<defs>
<clipPath id="clip0_2_19723">
<rect width="24" height="24" fill="white"/>
</clipPath>
</defs>
</svg>
