<svg width="24" height="24" viewBox="0 0 24 24" fill="none" xmlns="http://www.w3.org/2000/svg">
<path d="M3.28627 9.78735L2.20379 6.1791C2.08175 5.7723 2.22731 5.33095 2.58601 5.10355C4.02874 4.18896 7.32071 2.5 12.0001 2.5C16.6714 2.5 19.9 4.18319 21.3795 5.09885C21.7534 5.33025 21.9138 5.7877 21.7874 6.20885L20.7139 9.78735C20.587 10.2103 20.1977 10.5 19.756 10.5H18.0001C17.4478 10.5 17.0001 10.9456 17.0001 11.4979V16.5009C17.0001 17.0532 16.5475 17.5066 16.0137 17.6483C15.3642 17.8208 14.5377 18.1937 14.0001 19C13.0001 20.5 13.0001 22 13.0001 22H11.0001C11.0001 22 11.0001 20.5 10.0001 19C9.46246 18.1937 8.63591 17.8208 7.98641 17.6483C7.45261 17.5066 7.00006 17.0532 7.00006 16.5009V11.4979C7.00006 10.9456 6.55236 10.5 6.00006 10.5H4.24409C3.80248 10.5 3.41316 10.2103 3.28627 9.78735Z" stroke="#333333" stroke-width="2" stroke-linecap="round" stroke-linejoin="round"/>
<path d="M14.9055 2.75C14.9672 2.98971 15 3.24103 15 3.5C15 5.15685 13.6568 6.5 12 6.5C10.3432 6.5 9 5.15685 9 3.5C9 3.24103 9.0328 2.98971 9.0945 2.75" stroke="#333333" stroke-width="2" stroke-linecap="round" stroke-linejoin="round"/>
<path d="M6.75 3.24688C8.2163 2.81514 9.97875 2.5 12 2.5C14.0213 2.5 15.7724 2.81514 17.2286 3.24688" stroke="#333333" stroke-width="2" stroke-linecap="round" stroke-linejoin="round"/>
</svg>
