<svg width="24" height="24" viewBox="0 0 24 24" fill="none" xmlns="http://www.w3.org/2000/svg">
<g clip-path="url(#clip0_2_20636)">
<path d="M24 0H0V24H24V0Z" fill="white" fill-opacity="0.01"/>
<path d="M5 16C5 16 5 7.433 5 5.5C5 3.56701 6.567 2 8.5 2C10.433 2 12 3.56701 12 5.5C12 5.5 12 16.567 12 18.5C12 20.433 13.567 22 15.5 22C17.433 22 19 20.433 19 18.5V8" stroke="#333333" stroke-width="2" stroke-linecap="round" stroke-linejoin="round"/>
<path d="M20.5 8H17.5M16 8H17.5H16ZM22 8H20.5H22ZM20.5 8V2H17.5V8H20.5Z" stroke="#333333" stroke-width="2" stroke-linecap="round" stroke-linejoin="round"/>
<path d="M3.5 16H6.5M8 16H6.5H8ZM2 16H3.5H2ZM3.5 16V22H6.5V16H3.5Z" stroke="#333333" stroke-width="2" stroke-linecap="round" stroke-linejoin="round"/>
</g>
<defs>
<clipPath id="clip0_2_20636">
<rect width="24" height="24" fill="white"/>
</clipPath>
</defs>
</svg>
