<svg width="24" height="24" viewBox="0 0 24 24" fill="none" xmlns="http://www.w3.org/2000/svg">
<g clip-path="url(#clip0_2_20626)">
<path d="M24 0H0V24H24V0Z" fill="white" fill-opacity="0.01"/>
<path d="M12 22C17.5228 22 22 17.5228 22 12C22 6.47715 17.5228 2 12 2C6.47715 2 2 6.47715 2 12C2 17.5228 6.47715 22 12 22Z" stroke="#333333" stroke-width="2" stroke-linecap="round" stroke-linejoin="round"/>
<path d="M12 14C13.1046 14 14 13.1046 14 12C14 10.8954 13.1046 10 12 10C10.8954 10 10 10.8954 10 12C10 13.1046 10.8954 14 12 14Z" stroke="#333333" stroke-width="2" stroke-linecap="round" stroke-linejoin="round"/>
<path d="M22 12C22 13.6844 21.5746 15.3415 20.7631 16.8176C19.9516 18.2936 18.7805 19.5408 17.3583 20.4433L15.215 17.066C16.0683 16.5245 16.771 15.7762 17.2579 14.8905C17.7447 14.0049 18 13.0107 18 12H22Z" stroke="#333333" stroke-width="2" stroke-linecap="round" stroke-linejoin="round"/>
<path d="M6.71168 20.4875C5.28208 19.5968 4.10068 18.3593 3.27705 16.89C2.45343 15.4207 2.01428 13.7672 2.00037 12.0829L6.00023 12.0498C6.00858 13.0604 6.27208 14.0526 6.76623 14.9341C7.26043 15.8157 7.96928 16.5582 8.82703 17.0926L6.71168 20.4875Z" stroke="#333333" stroke-width="2" stroke-linecap="round" stroke-linejoin="round"/>
<path d="M7.22107 3.21581C8.70067 2.41085 10.3596 1.99268 12.044 2.0001C13.7284 2.00752 15.3836 2.44028 16.856 3.25823L14.9136 6.75495C14.0301 6.26415 13.037 6.0045 12.0264 6.00005C11.0158 5.9956 10.0204 6.2465 9.13262 6.7295L7.22107 3.21581Z" stroke="#333333" stroke-width="2" stroke-linecap="round" stroke-linejoin="round"/>
</g>
<defs>
<clipPath id="clip0_2_20626">
<rect width="24" height="24" fill="white"/>
</clipPath>
</defs>
</svg>
