<svg width="24" height="24" viewBox="0 0 24 24" fill="none" xmlns="http://www.w3.org/2000/svg">
<g clip-path="url(#clip0_2_19717)">
<path d="M24 0H0V24H24V0Z" fill="white" fill-opacity="0.01"/>
<path d="M24 0H0V24H24V0Z" fill="white" fill-opacity="0.01"/>
<path d="M12 22C17.5228 22 22 17.5228 22 12C22 6.47715 17.5228 2 12 2C6.47715 2 2 6.47715 2 12C2 17.5228 6.47715 22 12 22Z" stroke="#333333" stroke-width="2" stroke-linejoin="round"/>
<path d="M12 22C9.2386 22 7 19.7614 7 17C7 14.2386 9.2386 12 12 12C14.7614 12 17 9.7614 17 7C17 4.23857 14.7614 2 12 2" stroke="#333333" stroke-width="2" stroke-linecap="round" stroke-linejoin="round"/>
<path d="M22 12C22 14.7614 19.7614 17 17 17C14.2386 17 12 14.7614 12 12C12 9.2386 9.7614 7 7 7C4.23857 7 2 9.2386 2 12" stroke="#333333" stroke-width="2" stroke-linecap="round" stroke-linejoin="round"/>
</g>
<defs>
<clipPath id="clip0_2_19717">
<rect width="24" height="24" fill="white"/>
</clipPath>
</defs>
</svg>
