<svg width="24" height="24" viewBox="0 0 24 24" fill="none" xmlns="http://www.w3.org/2000/svg">
<path d="M21 14H3C2.44772 14 2 14.4477 2 15V20C2 20.5523 2.44772 21 3 21H21C21.5523 21 22 20.5523 22 20V15C22 14.4477 21.5523 14 21 14Z" stroke="#333333" stroke-width="2" stroke-linecap="round" stroke-linejoin="round"/>
<path d="M7 17.5H11" stroke="#333333" stroke-width="2" stroke-linecap="round" stroke-linejoin="round"/>
<path d="M17 17.5C17 16.9477 16.5523 16.5 16 16.5C15.4477 16.5 15 16.9477 15 17.5C15 18.0523 15.4477 18.5 16 18.5C16.5523 18.5 17 18.0523 17 17.5Z" fill="#333333"/>
<path d="M6 14V4" stroke="#333333" stroke-width="2" stroke-linecap="round" stroke-linejoin="round"/>
<path d="M18 14V4" stroke="#333333" stroke-width="2" stroke-linecap="round" stroke-linejoin="round"/>
</svg>
