<svg width="24" height="24" viewBox="0 0 24 24" fill="none" xmlns="http://www.w3.org/2000/svg">
<g clip-path="url(#clip0_2_20923)">
<path d="M24 0H0V24H24V0Z" fill="white" fill-opacity="0.01"/>
<path d="M16.9497 16.9503C21.636 12.2641 23.2189 6.24899 20.4853 3.51532C17.7516 0.781648 11.7365 2.36456 7.05022 7.05085C2.36393 11.7371 0.781019 17.7522 3.51469 20.4859C6.24836 23.2196 12.2634 21.6366 16.9497 16.9503Z" stroke="#333333" stroke-width="2" stroke-linecap="round" stroke-linejoin="round"/>
<path d="M10.5858 10.5866L13.4142 13.415" stroke="#333333" stroke-width="2" stroke-linecap="round" stroke-linejoin="round"/>
<path d="M12.7071 8.46552L15.5355 11.2939" stroke="#333333" stroke-width="2" stroke-linecap="round" stroke-linejoin="round"/>
<path d="M8.46442 12.7077L11.2928 15.5361" stroke="#333333" stroke-width="2" stroke-linecap="round" stroke-linejoin="round"/>
<path d="M6.34607 17.6602L17.6598 6.34645" stroke="#333333" stroke-width="2" stroke-linecap="round" stroke-linejoin="round"/>
<path d="M2.80759 14.1223L9.87866 21.1934" stroke="#333333" stroke-width="2" stroke-linecap="round" stroke-linejoin="round"/>
<path d="M14.1213 2.80784L21.1924 9.87891" stroke="#333333" stroke-width="2" stroke-linecap="round" stroke-linejoin="round"/>
</g>
<defs>
<clipPath id="clip0_2_20923">
<rect width="24" height="24" fill="white"/>
</clipPath>
</defs>
</svg>
