<svg width="24" height="24" viewBox="0 0 24 24" fill="none" xmlns="http://www.w3.org/2000/svg">
<path d="M12 8.5V6.5C12 4.5 13.5 3 15.5 3C17.5 3 19 4.49999 19 6.5V16" stroke="#333333" stroke-width="2" stroke-linecap="round" stroke-linejoin="round"/>
<path d="M5 3V17.5C5 19.5 6.5 21 8.5 21C10.5 21 12 19.5 12 17.5V8.5" stroke="#333333" stroke-width="2" stroke-linecap="round" stroke-linejoin="round"/>
<path d="M7.5 5.49999L5 3L2.5 5.49999" stroke="#333333" stroke-width="2" stroke-linecap="round" stroke-linejoin="round"/>
<path d="M19 21C20.3807 21 21.5 19.8807 21.5 18.5C21.5 17.1193 20.3807 16 19 16C17.6193 16 16.5 17.1193 16.5 18.5C16.5 19.8807 17.6193 21 19 21Z" stroke="#333333" stroke-width="2"/>
</svg>
