<svg width="24" height="24" viewBox="0 0 24 24" fill="none" xmlns="http://www.w3.org/2000/svg">
<path d="M15 12H6.5C4.5 12 3 10.5 3 8.50001C3 6.50001 4.5 5 6.5 5.00001L16 5" stroke="#333333" stroke-width="2" stroke-linecap="round" stroke-linejoin="round"/>
<path d="M4 19H17.5C19.5 19 21 17.5 21 15.5C21 13.5 19.5 12 17.5 12H15" stroke="#333333" stroke-width="2" stroke-linecap="round" stroke-linejoin="round"/>
<path d="M6.5 21.5L4 19L6.5 16.5" stroke="#333333" stroke-width="2" stroke-linecap="round" stroke-linejoin="round"/>
<path d="M18.5879 2.5C17.2072 2.5 16.0879 3.61929 16.0879 5C16.0879 6.38071 17.2072 7.5 18.5879 7.5C19.9686 7.5 21.0879 6.38071 21.0879 5C21.0879 3.61929 19.9686 2.5 18.5879 2.5Z" stroke="#333333" stroke-width="2"/>
</svg>
