<svg width="24" height="24" viewBox="0 0 24 24" fill="none" xmlns="http://www.w3.org/2000/svg">
<path d="M4 14L3 12H21L20 14" stroke="#333333" stroke-width="2" stroke-miterlimit="2" stroke-linecap="round" stroke-linejoin="round"/>
<path d="M14 2L5 12H14V2Z" stroke="#333333" stroke-width="2" stroke-miterlimit="2" stroke-linecap="round" stroke-linejoin="round"/>
<path d="M14 5.5L19 12H14V5.5Z" stroke="#333333" stroke-width="2" stroke-miterlimit="2" stroke-linecap="round" stroke-linejoin="round"/>
<path d="M2 17L3.25 17.6757C4.05 18.1081 4.95 18.1081 5.75 17.6757C6.55 17.2432 7.45 17.2432 8.25 17.6757C9.05 18.1081 9.95 18.1081 10.75 17.6757C11.55 17.2432 12.45 17.2432 13.25 17.6757C14.05 18.1081 14.95 18.1081 15.75 17.6757C16.55 17.2432 17.45 17.2432 18.25 17.6757C19.05 18.1081 19.95 18.1081 20.75 17.6757L22 17" stroke="#333333" stroke-width="2" stroke-miterlimit="2" stroke-linecap="round" stroke-linejoin="round"/>
<path d="M2 20L3.25 20.6757C4.05 21.1081 4.95 21.1081 5.75 20.6757C6.55 20.2432 7.45 20.2432 8.25 20.6757C9.05 21.1081 9.95 21.1081 10.75 20.6757C11.55 20.2432 12.45 20.2432 13.25 20.6757C14.05 21.1081 14.95 21.1081 15.75 20.6757C16.55 20.2432 17.45 20.2432 18.25 20.6757C19.05 21.1081 19.95 21.1081 20.75 20.6757L22 20" stroke="#333333" stroke-width="2" stroke-miterlimit="2" stroke-linecap="round" stroke-linejoin="round"/>
</svg>
