<svg width="24" height="24" viewBox="0 0 24 24" fill="none" xmlns="http://www.w3.org/2000/svg">
<path d="M8.89929 20.0705C8.89929 20.0705 10.979 22.1503 13.2251 21.5679C15.4712 20.9856 21.1281 15.3288 21.7104 13.0827C22.2927 10.8366 20.213 8.75684 20.213 8.75684" stroke="#333333" stroke-width="2" stroke-linecap="round" stroke-linejoin="round"/>
<path d="M3.94964 15.121C3.94964 15.121 1.86992 13.0413 2.45224 10.7952C3.03457 8.5491 8.69144 2.89224 10.9375 2.30991C13.1836 1.72759 15.2633 3.80732 15.2633 3.80732" stroke="#333333" stroke-width="2" stroke-linecap="round" stroke-linejoin="round"/>
<path d="M14.2029 4.86789L5.01052 14.0603C3.64368 15.4271 3.64368 17.6432 5.01052 19.01C6.37735 20.3769 8.59343 20.3769 9.96027 19.01L19.1527 9.81764C20.5195 8.45081 20.5195 6.23473 19.1527 4.86789C17.7858 3.50106 15.5697 3.50106 14.2029 4.86789Z" stroke="#333333" stroke-width="2" stroke-linecap="round" stroke-linejoin="round"/>
<path d="M7.83887 16.8887L8.12022 16.0445C8.39102 15.2321 8.99632 14.5743 9.78342 14.237L9.99322 14.1471C10.6469 13.867 11.1495 13.3207 11.3744 12.646C11.5993 11.9714 12.1019 11.4251 12.7556 11.1449L13.2303 10.9415C13.8489 10.6764 14.3246 10.1594 14.5374 9.52099C14.7719 8.81744 15.324 8.26539 16.0275 8.03084L17.0313 7.69629" stroke="#333333" stroke-width="2" stroke-linecap="round" stroke-linejoin="round"/>
</svg>
