<svg width="24" height="24" viewBox="0 0 24 24" fill="none" xmlns="http://www.w3.org/2000/svg">
<path d="M5.60036 3.42725L5.24616 3.53942C3.5023 4.09165 2.47802 5.89452 2.79724 7.69567C3.16186 9.75297 3.44274 11.7153 3.84463 13.5261C4.23713 15.2947 4.068 16.8704 3.96963 18.5418C3.87352 20.1749 5.17376 21.4635 6.80566 21.5769C9.11716 21.7376 10.8966 19.5363 10.454 17.2619C10.1118 15.5041 9.85281 13.6033 9.96956 12.2501C10.0949 10.7978 10.1082 8.60547 10.0846 6.62442C10.0571 4.3166 7.80071 2.73048 5.60036 3.42725Z" stroke="#333333" stroke-width="2" stroke-linecap="round" stroke-linejoin="round"/>
<path d="M17.4049 2.86115L17.0204 2.93324C15.2925 3.25722 14.0738 4.81371 14.057 6.57162C14.0354 8.85027 13.9155 11.0742 14 12.9996C14.078 14.7761 13.7815 16.0758 13.4914 17.5261C13.1783 19.091 14.2128 20.5481 15.7615 20.9335C18.0039 21.4916 20.1177 19.5844 20.0501 17.2746C20.0037 15.6869 20.0655 14.0186 20.3906 12.7994C20.7853 11.3193 21.1642 8.84797 21.455 6.64257C21.7605 4.32678 19.7007 2.43067 17.4049 2.86115Z" stroke="#333333" stroke-width="2" stroke-linecap="round" stroke-linejoin="round"/>
<path d="M4 14.5C4.5 10 7 7.5 7 7.5C7.8182 8.5 9.00005 11.5 10 14.5" stroke="#333333" stroke-width="2" stroke-miterlimit="2" stroke-linecap="round" stroke-linejoin="round"/>
<path d="M20 15C20.25 11 17.4999 7 17.4999 7C16.6817 8 14.0002 9.6389 14.0002 12.75" stroke="#333333" stroke-width="2" stroke-miterlimit="2" stroke-linecap="round" stroke-linejoin="round"/>
</svg>
