<svg width="24" height="24" viewBox="0 0 24 24" fill="none" xmlns="http://www.w3.org/2000/svg">
<g clip-path="url(#clip0_2_20342)">
<path d="M24 0H0V24H24V0Z" fill="white" fill-opacity="0.01"/>
<path d="M3 4.5C3 3.67158 3.67158 3 4.5 3H17.1407L21 6.60325V19.5C21 20.3285 20.3285 21 19.5 21H4.5C3.67158 21 3 20.3285 3 19.5V4.5Z" stroke="#333333" stroke-width="2" stroke-linejoin="round"/>
<path d="M12.0042 3L12 6.6923C12 6.86225 11.7761 7 11.5 7H7.5C7.22385 7 7 6.86225 7 6.6923V3H12.0042Z" stroke="#333333" stroke-width="2" stroke-linejoin="round"/>
<path d="M4.5 3H17.1407" stroke="#333333" stroke-width="2" stroke-linecap="round" stroke-linejoin="round"/>
<path d="M7 13H17" stroke="#333333" stroke-width="2" stroke-linecap="round" stroke-linejoin="round"/>
<path d="M7 17H12.0042" stroke="#333333" stroke-width="2" stroke-linecap="round" stroke-linejoin="round"/>
</g>
<defs>
<clipPath id="clip0_2_20342">
<rect width="24" height="24" fill="white"/>
</clipPath>
</defs>
</svg>
