<svg width="24" height="24" viewBox="0 0 24 24" fill="none" xmlns="http://www.w3.org/2000/svg">
<path d="M10.0001 12C10.0001 12 11.2499 9.75 11.4999 7.5C11.7499 5.25 10.9999 3.50001 10.9999 3.50001L13.5001 2C13.5001 2 13.9997 5 13.9997 6.5" stroke="#333333" stroke-width="2" stroke-linecap="round" stroke-linejoin="round"/>
<path d="M3 21.5C1.99978 20.75 2.00064 18.0447 4.00026 16.5C5.99988 14.9553 6.09293 15.3586 8.50003 13.5C10.9071 11.6414 17 2 17 2L19.2501 3.75001L13.1552 11.8701C11.6629 13.8583 11.2758 16.5265 10.0254 18.6751C9.05058 20.3502 7.99998 21 6.99998 21.5C5.99998 22 4.00021 22.25 3 21.5Z" stroke="#333333" stroke-width="2" stroke-linecap="round" stroke-linejoin="round"/>
<path d="M11.5001 15C11.5001 15 13 14 15 13C17 12 21.5001 12 21.5001 12L20.0001 8.5C20.0001 8.5 15.9999 8.5 14.5001 10" stroke="#333333" stroke-width="2" stroke-linecap="round" stroke-linejoin="round"/>
</svg>
