<svg width="24" height="24" viewBox="0 0 24 24" fill="none" xmlns="http://www.w3.org/2000/svg">
<path d="M3.5 12H20.5" stroke="#333333" stroke-width="2" stroke-linecap="round" stroke-linejoin="round"/>
<path d="M12 3.5V20.5" stroke="#333333" stroke-width="2" stroke-linecap="round" stroke-linejoin="round"/>
<path d="M4.5 2.5H2.5V4.5H4.5V2.5Z" fill="#333333"/>
<path d="M9 2.5H7V4.5H9V2.5Z" fill="#333333"/>
<path d="M17 2.5H15V4.5H17V2.5Z" fill="#333333"/>
<path d="M21.5 2.5H19.5V4.5H21.5V2.5Z" fill="#333333"/>
<path d="M21.5 7H19.5V9H21.5V7Z" fill="#333333"/>
<path d="M4.5 7H2.5V9H4.5V7Z" fill="#333333"/>
<path d="M4.5 19.5H2.5V21.5H4.5V19.5Z" fill="#333333"/>
<path d="M9 19.5H7V21.5H9V19.5Z" fill="#333333"/>
<path d="M17 19.5H15V21.5H17V19.5Z" fill="#333333"/>
<path d="M21.5 19.5H19.5V21.5H21.5V19.5Z" fill="#333333"/>
<path d="M21.5 15H19.5V17H21.5V15Z" fill="#333333"/>
<path d="M4.5 15H2.5V17H4.5V15Z" fill="#333333"/>
</svg>
