<svg width="24" height="24" viewBox="0 0 24 24" fill="none" xmlns="http://www.w3.org/2000/svg">
<path d="M2 16.5C2 15.9477 2.44771 15.5 3 15.5H6V12L12 8L18 12V15.5H21C21.5523 15.5 22 15.9477 22 16.5V21C22 21.5523 21.5523 22 21 22H2V16.5Z" stroke="#333333" stroke-width="2" stroke-linejoin="round"/>
<path d="M12 3V8" stroke="#333333" stroke-width="2" stroke-linecap="round"/>
<path d="M18 5.99967V2.99967C18 2.99967 17.25 4.49967 15 2.99967C12.75 1.49967 12 2.99967 12 2.99967V5.99967C12 5.99967 12.75 4.49967 15 5.99967C17.25 7.49967 18 5.99967 18 5.99967Z" stroke="#333333" stroke-width="2" stroke-linecap="round" stroke-linejoin="round"/>
<path d="M14 22V15.5H10V22" stroke="#333333" stroke-width="2" stroke-linecap="round" stroke-linejoin="round"/>
<path d="M9 22H15" stroke="#333333" stroke-width="2" stroke-linecap="round" stroke-linejoin="round"/>
</svg>
