<svg width="24" height="24" viewBox="0 0 24 24" fill="none" xmlns="http://www.w3.org/2000/svg">
<path d="M20.5 6H3.5C2.67157 6 2 6.67157 2 7.5V18.5C2 19.3284 2.67157 20 3.5 20H20.5C21.3284 20 22 19.3284 22 18.5V7.5C22 6.67157 21.3284 6 20.5 6Z" stroke="#333333" stroke-width="2" stroke-linejoin="round"/>
<path d="M7 3V6" stroke="#333333" stroke-width="2" stroke-linecap="round" stroke-linejoin="round"/>
<path d="M17 3V6" stroke="#333333" stroke-width="2" stroke-linecap="round" stroke-linejoin="round"/>
<path d="M5.11328 11.9995L7.50028 9.50781V16.4995" stroke="#333333" stroke-width="2" stroke-linecap="round" stroke-linejoin="round"/>
<path d="M12 6V20" stroke="#333333" stroke-width="2" stroke-linecap="round" stroke-linejoin="round"/>
<path d="M17 16.5C17.8284 16.5 18.5 14.933 18.5 13C18.5 11.067 17.8284 9.5 17 9.5C16.1716 9.5 15.5 11.067 15.5 13C15.5 14.933 16.1716 16.5 17 16.5Z" stroke="#333333" stroke-width="2" stroke-linejoin="round"/>
<path d="M10.5 6H13.5" stroke="#333333" stroke-width="2" stroke-linecap="round" stroke-linejoin="round"/>
<path d="M10.5 20H13.5" stroke="#333333" stroke-width="2" stroke-linecap="round" stroke-linejoin="round"/>
</svg>
