<svg width="24" height="24" viewBox="0 0 24 24" fill="none" xmlns="http://www.w3.org/2000/svg">
<g clip-path="url(#clip0_2_21057)">
<path d="M24 0H0V24H24V0Z" fill="white" fill-opacity="0.01"/>
<path d="M5 21C6.65685 21 8 19.6569 8 18C8 16.3431 6.65685 15 5 15C3.34315 15 2 16.3431 2 18C2 19.6569 3.34315 21 5 21Z" stroke="#333333" stroke-width="2" stroke-linejoin="round"/>
<path d="M20.0307 4C12 14.2166 7.90235 19.3403 7.1213 20.1213C5.94973 21.2929 4.05024 21.2929 2.87866 20.1213" stroke="#333333" stroke-width="2" stroke-linecap="round" stroke-linejoin="round"/>
<path d="M19 21C20.6569 21 22 19.6569 22 18C22 16.3431 20.6569 15 19 15C17.3431 15 16 16.3431 16 18C16 19.6569 17.3431 21 19 21Z" stroke="#333333" stroke-width="2" stroke-linejoin="round"/>
<path d="M21.1213 20.1213C19.9498 21.2929 18.0503 21.2929 16.8787 20.1213C16.0976 19.3403 12 14.223 4.00037 4" stroke="#333333" stroke-width="2" stroke-linecap="round" stroke-linejoin="round"/>
</g>
<defs>
<clipPath id="clip0_2_21057">
<rect width="24" height="24" fill="white"/>
</clipPath>
</defs>
</svg>
