<svg width="24" height="24" viewBox="0 0 24 24" fill="none" xmlns="http://www.w3.org/2000/svg">
<path d="M8 3H4C3.44771 3 3 3.44771 3 4V8" stroke="#333333" stroke-width="2" stroke-linecap="round" stroke-linejoin="round"/>
<path d="M8 21H4C3.44771 21 3 20.5523 3 20V16" stroke="#333333" stroke-width="2" stroke-linecap="round" stroke-linejoin="round"/>
<path d="M16 21H20C20.5523 21 21 20.5523 21 20V16" stroke="#333333" stroke-width="2" stroke-linecap="round" stroke-linejoin="round"/>
<path d="M16 3H20C20.5523 3 21 3.44771 21 4V8" stroke="#333333" stroke-width="2" stroke-linecap="round" stroke-linejoin="round"/>
<path d="M16 7H8C7.44772 7 7 7.44772 7 8V16C7 16.5523 7.44772 17 8 17H16C16.5523 17 17 16.5523 17 16V8C17 7.44772 16.5523 7 16 7Z" stroke="#333333" stroke-width="2"/>
</svg>
