<svg width="24" height="24" viewBox="0 0 24 24" fill="none" xmlns="http://www.w3.org/2000/svg">
<g clip-path="url(#clip0_2_19686)">
<path d="M24 0H0V24H24V0Z" fill="white" fill-opacity="0.01"/>
<path d="M2 12V2H22V12" stroke="#333333" stroke-width="2" stroke-linecap="round" stroke-linejoin="round"/>
<path fill-rule="evenodd" clip-rule="evenodd" d="M5 22C6.65685 22 8 20.6568 8 19C8 17.3432 6.65685 16 5 16C3.34315 16 2 17.3432 2 19C2 20.6568 3.34315 22 5 22Z" stroke="#333333" stroke-width="2" stroke-linecap="round" stroke-linejoin="round"/>
<path d="M18 6C10.1953 16.6332 7.90235 20.3402 7.1213 21.1213C5.94975 22.2929 4.05024 22.2929 2.87866 21.1213" stroke="#333333" stroke-width="2" stroke-linecap="round" stroke-linejoin="round"/>
<path fill-rule="evenodd" clip-rule="evenodd" d="M19 22C20.6568 22 22 20.6568 22 19C22 17.3432 20.6568 16 19 16C17.3432 16 16 17.3432 16 19C16 20.6568 17.3432 22 19 22Z" stroke="#333333" stroke-width="2" stroke-linecap="round" stroke-linejoin="round"/>
<path d="M21.1213 21.1213C19.9497 22.2929 18.0503 22.2929 16.8787 21.1213C16.0977 20.3402 13.8047 16.6332 6 6" stroke="#333333" stroke-width="2" stroke-linecap="round" stroke-linejoin="round"/>
</g>
<defs>
<clipPath id="clip0_2_19686">
<rect width="24" height="24" fill="white"/>
</clipPath>
</defs>
</svg>
