<svg width="24" height="24" viewBox="0 0 24 24" fill="none" xmlns="http://www.w3.org/2000/svg">
<g clip-path="url(#clip0_2_21048)">
<path d="M24 0H0V24H24V0Z" fill="white" fill-opacity="0.01"/>
<path d="M2.5 18.5C2.5 17.9477 2.94771 17.5 3.5 17.5H20.5C21.0523 17.5 21.5 17.9477 21.5 18.5V21C21.5 21.5523 21.0523 22 20.5 22H3.5C2.94771 22 2.5 21.5523 2.5 21V18.5Z" stroke="#333333" stroke-width="2"/>
<path d="M2.5 15.5C2.5 14.9477 2.94771 14.5 3.5 14.5H20.5C21.0523 14.5 21.5 14.9477 21.5 15.5V21C21.5 21.5523 21.0523 22 20.5 22H3.5C2.94771 22 2.5 21.5523 2.5 21V15.5Z" stroke="#333333" stroke-width="2"/>
<path d="M9.3815 7.83185C9.45255 7.63285 9.64105 7.5 9.85235 7.5H14.1476C14.3589 7.5 14.5474 7.63285 14.6185 7.83185L17 14.5H7L9.3815 7.83185Z" stroke="#333333" stroke-width="2" stroke-linecap="round" stroke-linejoin="round"/>
<path d="M13.8 2H10.2C8.70883 2 7.5 3.20883 7.5 4.7C7.5 6.19117 8.70883 7.4 10.2 7.4H13.8C15.2912 7.4 16.5 6.19117 16.5 4.7C16.5 3.20883 15.2912 2 13.8 2Z" stroke="#333333" stroke-width="2"/>
</g>
<defs>
<clipPath id="clip0_2_21048">
<rect width="24" height="24" fill="white"/>
</clipPath>
</defs>
</svg>
