<svg width="24" height="24" viewBox="0 0 24 24" fill="none" xmlns="http://www.w3.org/2000/svg">
<path d="M14.6168 3.48903C16.4739 2.70554 20.255 2.25458 21.514 6.43519C22.7729 10.6158 17.3603 13.7408 17.5008 10.4842C17.6414 7.22764 21.4984 9.90824 21.4159 12.2653C21.3333 14.6223 18.8848 14.8813 18.8848 14.8813" stroke="#333333" stroke-width="2" stroke-linecap="round" stroke-linejoin="round"/>
<path d="M12.5129 1.88867L2.98663 7.38867C2.50834 7.66481 2.34446 8.2764 2.62061 8.7547L4.62061 12.2188C4.89675 12.6971 5.50834 12.861 5.98663 12.5848L15.5129 7.08482C15.9912 6.80868 16.1551 6.19709 15.8789 5.7188L13.8789 2.2547C13.6028 1.7764 12.9912 1.61253 12.5129 1.88867Z" stroke="#333333" stroke-width="2" stroke-linejoin="round"/>
<path d="M10.75 9.83496L14.5 16.3302" stroke="#333333" stroke-width="2" stroke-linecap="round" stroke-linejoin="round"/>
<path d="M16.5488 16.8791C16.1345 16.1617 15.2172 15.9159 14.4997 16.3301C13.7823 16.7443 13.5365 17.6617 13.9507 18.3791L14.9507 20.1112C15.3649 20.8286 16.2823 21.0744 16.9997 20.6602C17.7172 20.246 17.963 19.3286 17.5488 18.6112L16.5488 16.8791Z" stroke="#333333" stroke-width="2" stroke-linejoin="round"/>
<path d="M5.70068 4.08984L8.29873 2.58984" stroke="#333333" stroke-width="2" stroke-linecap="round" stroke-linejoin="round"/>
<path d="M10.9507 13.1826L13.5487 11.6826" stroke="#333333" stroke-width="2" stroke-linecap="round" stroke-linejoin="round"/>
</svg>
