<svg width="24" height="24" viewBox="0 0 24 24" fill="none" xmlns="http://www.w3.org/2000/svg">
<g clip-path="url(#clip0_2_20545)">
<path d="M24 0H0V24H24V0Z" fill="white" fill-opacity="0.01"/>
<path d="M24 0H0V24H24V0Z" fill="white" fill-opacity="0.01"/>
<path d="M15 9H20.5C20.7761 9 21 9.22385 21 9.5V20.5C21 20.7761 20.7761 21 20.5 21H9.5C9.22385 21 9 20.7761 9 20.5V15" stroke="#333333" stroke-width="2" stroke-linecap="round" stroke-linejoin="round"/>
<path d="M4.98453 3H3V5.0168" stroke="#333333" stroke-width="2" stroke-linecap="round" stroke-linejoin="round"/>
<path d="M4.99853 14.9999H3V13.0059" stroke="#333333" stroke-width="2" stroke-linecap="round" stroke-linejoin="round"/>
<path d="M13 14.9999H14.9986V13.0059" stroke="#333333" stroke-width="2" stroke-linecap="round" stroke-linejoin="round"/>
<path d="M13.0011 3H14.9999V4.99893" stroke="#333333" stroke-width="2" stroke-linecap="round" stroke-linejoin="round"/>
<path d="M8.01416 3H10.0042" stroke="#333333" stroke-width="2" stroke-linecap="round"/>
<path d="M3 8V10.0074" stroke="#333333" stroke-width="2" stroke-linecap="round" stroke-linejoin="round"/>
<path d="M15 8V10.0074" stroke="#333333" stroke-width="2" stroke-linecap="round" stroke-linejoin="round"/>
<path d="M7.99634 15H10" stroke="#333333" stroke-width="2" stroke-linecap="round" stroke-linejoin="round"/>
</g>
<defs>
<clipPath id="clip0_2_20545">
<rect width="24" height="24" fill="white"/>
</clipPath>
</defs>
</svg>
