<svg width="24" height="24" viewBox="0 0 24 24" fill="none" xmlns="http://www.w3.org/2000/svg">
<g clip-path="url(#clip0_2_19674)">
<path d="M24 0H0V24H24V0Z" fill="white" fill-opacity="0.01"/>
<path d="M24 0H0V24H24V0Z" fill="white" fill-opacity="0.01"/>
<path d="M22 2H2V10H22V2Z" stroke="#333333" stroke-width="2" stroke-linejoin="round"/>
<path d="M22 14H2V22H22V14Z" stroke="#333333" stroke-width="2" stroke-linejoin="round"/>
<path d="M6.5 5H5.5C5.22385 5 5 5.22385 5 5.5V6.5C5 6.77615 5.22385 7 5.5 7H6.5C6.77615 7 7 6.77615 7 6.5V5.5C7 5.22385 6.77615 5 6.5 5Z" fill="#333333"/>
<path d="M6.5 17H5.5C5.22385 17 5 17.2239 5 17.5V18.5C5 18.7761 5.22385 19 5.5 19H6.5C6.77615 19 7 18.7761 7 18.5V17.5C7 17.2239 6.77615 17 6.5 17Z" fill="#333333"/>
<path d="M10.5 5H9.5C9.22385 5 9 5.22385 9 5.5V6.5C9 6.77615 9.22385 7 9.5 7H10.5C10.7761 7 11 6.77615 11 6.5V5.5C11 5.22385 10.7761 5 10.5 5Z" fill="#333333"/>
<path d="M10.5 17H9.5C9.22385 17 9 17.2239 9 17.5V18.5C9 18.7761 9.22385 19 9.5 19H10.5C10.7761 19 11 18.7761 11 18.5V17.5C11 17.2239 10.7761 17 10.5 17Z" fill="#333333"/>
</g>
<defs>
<clipPath id="clip0_2_19674">
<rect width="24" height="24" fill="white"/>
</clipPath>
</defs>
</svg>
