<svg width="24" height="24" viewBox="0 0 24 24" fill="none" xmlns="http://www.w3.org/2000/svg">
<path d="M14.5 7C15.8807 7 17 5.8807 17 4.5C17 3.11929 15.8807 2 14.5 2C13.1193 2 12 3.11929 12 4.5C12 5.8807 13.1193 7 14.5 7Z" stroke="#333333" stroke-width="2" stroke-miterlimit="2"/>
<path d="M12 9.5L9.85498 13.5L13.655 16.51C13.81 16.63 13.92 16.795 13.985 16.98L15.655 22" stroke="#333333" stroke-width="2" stroke-miterlimit="2" stroke-linecap="round" stroke-linejoin="round"/>
<path d="M9.855 13.5L7.255 17.32C6.4866 18.4441 5.25 19.75 4.75 20.5" stroke="#333333" stroke-width="2" stroke-miterlimit="2" stroke-linecap="round" stroke-linejoin="round"/>
<path d="M21 12.0002L17.53 12.0502C17.35 12.0502 17.17 12.0052 17.01 11.9152L15.375 10.9602C13.37 9.78516 11.175 8.98016 8.89 8.57016L7.28 8.28516L6 10.5002" stroke="#333333" stroke-width="2" stroke-miterlimit="2" stroke-linecap="round" stroke-linejoin="round"/>
<path d="M7.5126 11.3914L4.32617 9.55176L2.07617 13.4489L5.2626 15.2886L7.5126 11.3914Z" stroke="#333333" stroke-width="2" stroke-linejoin="round"/>
</svg>
