<svg width="24" height="24" viewBox="0 0 24 24" fill="none" xmlns="http://www.w3.org/2000/svg">
<g clip-path="url(#clip0_2_21070)">
<path d="M24 0H0V24H24V0Z" fill="white" fill-opacity="0.01"/>
<path d="M5.1827 20.8161C3.22451 18.9906 2 16.3883 2 13.5C2 7.97715 6.47715 3.5 12 3.5C17.5229 3.5 22 7.97715 22 13.5C22 16.3883 20.7755 18.9906 18.8173 20.8161" stroke="#333333" stroke-width="2" stroke-linecap="round" stroke-linejoin="round"/>
<path d="M7.56875 18.2554C6.29595 17.0689 5.5 15.3774 5.5 13.5C5.5 9.91015 8.41015 7 12 7C15.5898 7 18.5 9.91015 18.5 13.5C18.5 15.3774 17.704 17.0689 16.4312 18.2554" stroke="#333333" stroke-width="2" stroke-linecap="round" stroke-linejoin="round"/>
<path d="M9.9548 15.6948C9.36735 15.1472 9 14.3665 9 13.5C9 11.8432 10.3432 10.5 12 10.5C13.6568 10.5 15 11.8432 15 13.5C15 14.3665 14.6327 15.1472 14.0452 15.6948" stroke="#333333" stroke-width="2" stroke-linecap="round" stroke-linejoin="round"/>
</g>
<defs>
<clipPath id="clip0_2_21070">
<rect width="24" height="24" fill="white"/>
</clipPath>
</defs>
</svg>
