<svg width="24" height="24" viewBox="0 0 24 24" fill="none" xmlns="http://www.w3.org/2000/svg">
<g clip-path="url(#clip0_2_19669)">
<path d="M24 0H0V24H24V0Z" fill="white" fill-opacity="0.01"/>
<path d="M17.5 8C18.8807 8 20 6.8807 20 5.5C20 4.11929 18.8807 3 17.5 3C16.1193 3 15 4.11929 15 5.5C15 6.8807 16.1193 8 17.5 8Z" stroke="#333333" stroke-width="2" stroke-linejoin="round"/>
<path d="M6.5 14.5C7.8807 14.5 9 13.3807 9 12C9 10.6193 7.8807 9.5 6.5 9.5C5.1193 9.5 4 10.6193 4 12C4 13.3807 5.1193 14.5 6.5 14.5Z" stroke="#333333" stroke-width="2" stroke-linejoin="round"/>
<path d="M15 6.78711L8.66943 10.6226" stroke="#333333" stroke-width="2" stroke-linecap="round" stroke-linejoin="round"/>
<path d="M8.66943 13.2822L15.3396 17.2237" stroke="#333333" stroke-width="2" stroke-linecap="round" stroke-linejoin="round"/>
<path d="M17.5 16C18.8807 16 20 17.1193 20 18.5C20 19.8807 18.8807 21 17.5 21C16.1193 21 15 19.8807 15 18.5C15 17.1193 16.1193 16 17.5 16Z" stroke="#333333" stroke-width="2" stroke-linejoin="round"/>
</g>
<defs>
<clipPath id="clip0_2_19669">
<rect width="24" height="24" fill="white"/>
</clipPath>
</defs>
</svg>
