<svg width="24" height="24" viewBox="0 0 24 24" fill="none" xmlns="http://www.w3.org/2000/svg">
<path d="M10.3923 9.36503C10.5326 9.22468 10.7602 9.22468 10.9005 9.36503L14.6349 13.0994C14.7753 13.2398 14.7753 13.4673 14.6349 13.6077L8.87867 19.364C7.70707 20.5355 5.80757 20.5355 4.63601 19.364C3.46443 18.1924 3.46443 16.2929 4.63601 15.1213L10.3923 9.36503Z" stroke="#333333" stroke-width="2"/>
<path d="M21.2907 11.1943C21.4652 11.0198 21.4652 10.7369 21.2907 10.5624L13.4373 2.70899C13.2628 2.5345 12.9799 2.5345 12.8054 2.70899L12.4142 3.10016C10.0711 5.44332 10.0711 9.24227 12.4142 11.5854C14.7574 13.9286 18.5564 13.9286 20.8995 11.5854L21.2907 11.1943Z" stroke="#333333" stroke-width="2"/>
<path d="M9.9394 14.0605L9.2323 14.7676" stroke="#333333" stroke-width="2" stroke-linecap="round" stroke-linejoin="round"/>
<path d="M13.8285 8.75684L15.2427 10.1711" stroke="#333333" stroke-width="2" stroke-linecap="round" stroke-linejoin="round"/>
</svg>
