<svg width="24" height="24" viewBox="0 0 24 24" fill="none" xmlns="http://www.w3.org/2000/svg">
<path d="M2.5 8.5H21.5L19.4 21.5H4.6L2.5 8.5Z" stroke="#333333" stroke-width="2" stroke-linecap="round" stroke-linejoin="round"/>
<path d="M17.5 8.5C17.5 5.1863 15.0375 2.5 12 2.5C8.96245 2.5 6.5 5.1863 6.5 8.5" stroke="#333333" stroke-width="2" stroke-linecap="round" stroke-linejoin="round"/>
<path d="M8.5 14C9.05228 14 9.5 13.5523 9.5 13C9.5 12.4477 9.05228 12 8.5 12C7.94772 12 7.5 12.4477 7.5 13C7.5 13.5523 7.94772 14 8.5 14Z" fill="#333333"/>
<path d="M9 16.5C9 16.5 10 18 12 18C14 18 15 16.5 15 16.5" stroke="#333333" stroke-width="2" stroke-linecap="round" stroke-linejoin="round"/>
<path d="M15.5 14C16.0523 14 16.5 13.5523 16.5 13C16.5 12.4477 16.0523 12 15.5 12C14.9477 12 14.5 12.4477 14.5 13C14.5 13.5523 14.9477 14 15.5 14Z" fill="#333333"/>
</svg>
