<svg width="24" height="24" viewBox="0 0 24 24" fill="none" xmlns="http://www.w3.org/2000/svg">
<path d="M10.3117 5.5H19.4998C19.4998 5.5 19.4998 8 17.9998 9.5C16.4998 11 15 11.5 14.5 11.5C14 11.5 9.25 12 8 13C6.75 14 6.00055 15.75 8 17.5C9.99945 19.25 13.5 20 16 19C18.5 18 20 15 20 15L22 20C22 20 18 21.5 14.4999 22C10.9997 22.5 7.50005 22 4.49986 19C1.49968 16 0.999516 12.25 3.49966 9C5.5828 6.2921 8.70695 5.66685 9.69115 5.53365C9.89735 5.5057 10.1036 5.5 10.3117 5.5Z" stroke="#333333" stroke-width="2" stroke-linecap="round" stroke-linejoin="round"/>
<path d="M13 11.5L10 5.5" stroke="#333333" stroke-width="2"/>
<path d="M9 2H16C17.933 2 19.5 3.56701 19.5 5.5" stroke="#333333" stroke-width="2" stroke-linecap="round" stroke-linejoin="round"/>
<path d="M15 9C15.5523 9 16 8.55228 16 8C16 7.44772 15.5523 7 15 7C14.4477 7 14 7.44772 14 8C14 8.55228 14.4477 9 15 9Z" fill="#333333"/>
</svg>
