<svg width="24" height="24" viewBox="0 0 24 24" fill="none" xmlns="http://www.w3.org/2000/svg">
<g clip-path="url(#clip0_2_21367)">
<path d="M24 0H0V24H24V0Z" fill="white" fill-opacity="0.01"/>
<path d="M5 22H19C19.5523 22 20 21.5523 20 21V7.44235C20 7.1606 19.8811 6.89195 19.6726 6.70245L14.786 2.26006C14.602 2.09272 14.3622 2 14.1134 2H5C4.44771 2 4 2.44771 4 3V21C4 21.5523 4.44771 22 5 22Z" stroke="#333333" stroke-width="2"/>
<path d="M8.5 8.5C9.32843 8.5 10 7.82843 10 7C10 6.17157 9.32843 5.5 8.5 5.5C7.67157 5.5 7 6.17157 7 7C7 7.82843 7.67157 8.5 8.5 8.5Z" fill="#333333"/>
<path d="M16 11.5H8V18.5H16V11.5Z" stroke="#333333" stroke-width="2" stroke-linecap="round" stroke-linejoin="round"/>
</g>
<defs>
<clipPath id="clip0_2_21367">
<rect width="24" height="24" fill="white"/>
</clipPath>
</defs>
</svg>
