<svg width="24" height="24" viewBox="0 0 24 24" fill="none" xmlns="http://www.w3.org/2000/svg">
<path d="M19.5 3H4.5C3.67157 3 3 3.67157 3 4.5V19.5C3 20.3284 3.67157 21 4.5 21H19.5C20.3284 21 21 20.3284 21 19.5V4.5C21 3.67157 20.3284 3 19.5 3Z" stroke="#333333" stroke-width="2" stroke-linecap="round" stroke-linejoin="round"/>
<path d="M12.25 16.5C13.7688 16.5 15 15.2688 15 13.75C15 12.2312 13.7688 11 12.25 11C10.7312 11 9.5 12.2312 9.5 13.75C9.5 15.2688 10.7312 16.5 12.25 16.5Z" stroke="#333333" stroke-width="2"/>
<path d="M14.7981 8.8696C14.3889 7.77305 13.4022 7 12.25 7C10.7312 7 9.5 8.34315 9.5 10V13.5" stroke="#333333" stroke-width="2" stroke-linecap="round" stroke-linejoin="round"/>
</svg>
