<svg width="24" height="24" viewBox="0 0 24 24" fill="none" xmlns="http://www.w3.org/2000/svg">
<g clip-path="url(#clip0_2_21805)">
<path d="M24 0H0V24H24V0Z" fill="white" fill-opacity="0.01"/>
<path d="M12 12V6M12 12L6.75 15.031L12 12ZM12 12L17.2499 15.031L12 12Z" stroke="#333333" stroke-width="2" stroke-linecap="round" stroke-linejoin="round"/>
<path d="M7 8C7 9.10455 6.10455 10 5 10C3.89543 10 3 9.10455 3 8C3 6.89545 3.89543 6 5 6C6.10455 6 7 6.89545 7 8Z" stroke="#333333" stroke-width="2" stroke-linecap="round" stroke-linejoin="round"/>
<path d="M7 16C7 17.1046 6.10455 18 5 18C3.89543 18 3 17.1046 3 16C3 14.8954 3.89543 14 5 14C6.10455 14 7 14.8954 7 16Z" stroke="#333333" stroke-width="2" stroke-linecap="round" stroke-linejoin="round"/>
<path d="M14 20C14 21.1046 13.1046 22 12 22C10.8954 22 10 21.1046 10 20C10 18.8954 10.8954 18 12 18C13.1046 18 14 18.8954 14 20Z" stroke="#333333" stroke-width="2" stroke-linecap="round" stroke-linejoin="round"/>
<path d="M21 16C21 17.1046 20.1046 18 19 18C17.8954 18 17 17.1046 17 16C17 14.8954 17.8954 14 19 14C20.1046 14 21 14.8954 21 16Z" stroke="#333333" stroke-width="2" stroke-linecap="round" stroke-linejoin="round"/>
<path d="M21 8C21 9.10455 20.1046 10 19 10C17.8954 10 17 9.10455 17 8C17 6.89545 17.8954 6 19 6C20.1046 6 21 6.89545 21 8Z" stroke="#333333" stroke-width="2" stroke-linecap="round" stroke-linejoin="round"/>
<path d="M14 4C14 5.10455 13.1046 6 12 6C10.8954 6 10 5.10455 10 4C10 2.89543 10.8954 2 12 2C13.1046 2 14 2.89543 14 4Z" stroke="#333333" stroke-width="2" stroke-linecap="round" stroke-linejoin="round"/>
</g>
<defs>
<clipPath id="clip0_2_21805">
<rect width="24" height="24" fill="white"/>
</clipPath>
</defs>
</svg>
