<svg width="24" height="24" viewBox="0 0 24 24" fill="none" xmlns="http://www.w3.org/2000/svg">
<path d="M22 19.9102H2L18.27 10.9102H22V19.9102Z" stroke="#333333" stroke-width="2" stroke-miterlimit="2" stroke-linecap="round" stroke-linejoin="round"/>
<path d="M1.92883 9.60061L3.54486 10.3996L12.2051 5.39961L12.3211 3.60059" stroke="#333333" stroke-width="2" stroke-miterlimit="2" stroke-linecap="round" stroke-linejoin="round"/>
<path d="M6.16506 12.4404C6.99346 12.4404 7.66506 11.7689 7.66506 10.9404C7.66506 10.112 6.99346 9.44043 6.16506 9.44043C5.33661 9.44043 4.66504 10.112 4.66504 10.9404C4.66504 11.7689 5.33661 12.4404 6.16506 12.4404Z" fill="#333333"/>
<path d="M11.725 9.44043C12.5534 9.44043 13.225 8.76888 13.225 7.94043C13.225 7.11203 12.5534 6.44043 11.725 6.44043C10.8965 6.44043 10.225 7.11203 10.225 7.94043C10.225 8.76888 10.8965 9.44043 11.725 9.44043Z" fill="#333333"/>
</svg>
