<svg width="24" height="24" viewBox="0 0 24 24" fill="none" xmlns="http://www.w3.org/2000/svg">
<g clip-path="url(#clip0_2_19643)">
<path d="M24 0H0V24H24V0Z" fill="white" fill-opacity="0.01"/>
<path d="M5.6316 22L7.31355 17.8426C5.0155 16.2967 3.5 13.6463 3.5 10.6363C3.5 5.86665 7.3056 2 12 2C16.6944 2 20.5 5.86665 20.5 10.6363C20.5 13.6463 18.9845 16.2967 16.6864 17.8426L18.3684 22H5.6316Z" stroke="#333333" stroke-width="2" stroke-linejoin="round"/>
<path d="M10 19V22" stroke="#333333" stroke-width="2" stroke-linecap="round" stroke-linejoin="round"/>
<path d="M14 19V22" stroke="#333333" stroke-width="2" stroke-linecap="round" stroke-linejoin="round"/>
<path d="M8.5 11.5C9.32845 11.5 10 10.8285 10 10C10 9.17155 9.32845 8.5 8.5 8.5C7.67155 8.5 7 9.17155 7 10C7 10.8285 7.67155 11.5 8.5 11.5Z" stroke="#333333" stroke-width="2" stroke-linejoin="round"/>
<path d="M15.5 11.5C16.3285 11.5 17 10.8285 17 10C17 9.17155 16.3285 8.5 15.5 8.5C14.6715 8.5 14 9.17155 14 10C14 10.8285 14.6715 11.5 15.5 11.5Z" stroke="#333333" stroke-width="2" stroke-linejoin="round"/>
<path d="M16 22H12" stroke="#333333" stroke-width="2" stroke-linecap="round" stroke-linejoin="round"/>
<path d="M12 22H8" stroke="#333333" stroke-width="2" stroke-linecap="round" stroke-linejoin="round"/>
</g>
<defs>
<clipPath id="clip0_2_19643">
<rect width="24" height="24" fill="white"/>
</clipPath>
</defs>
</svg>
