<svg width="24" height="24" viewBox="0 0 24 24" fill="none" xmlns="http://www.w3.org/2000/svg">
<path d="M5 19V3C5 2.44771 5.4477 2 6 2H18C18.5523 2 19 2.44771 19 3V3.5M19 19V15.25V19Z" stroke="#333333" stroke-width="2" stroke-linecap="round" stroke-linejoin="round"/>
<path d="M12.5 6.5H12C10.3432 6.5 9 7.84315 9 9.5C9 11.1568 10.3432 12.5 12 12.5H12.5" stroke="#333333" stroke-width="2" stroke-linecap="round" stroke-linejoin="round"/>
<path d="M16.5 6.5H17C18.6568 6.5 20 7.84315 20 9.5C20 11.1568 18.6568 12.5 17 12.5H16.5" stroke="#333333" stroke-width="2" stroke-linecap="round" stroke-linejoin="round"/>
<path d="M12.5 9.5H16.5" stroke="#333333" stroke-width="2" stroke-linecap="round" stroke-linejoin="round"/>
<path d="M5 19C5 17.3432 6.34315 16 8 16H16C17.6568 16 19 17.3432 19 19C19 20.6568 17.6568 22 16 22H8C6.34315 22 5 20.6568 5 19Z" stroke="#333333" stroke-width="2" stroke-linecap="round" stroke-linejoin="round"/>
<path d="M16 20C16.5523 20 17 19.5523 17 19C17 18.4477 16.5523 18 16 18C15.4477 18 15 18.4477 15 19C15 19.5523 15.4477 20 16 20Z" fill="#333333"/>
</svg>
