<svg width="24" height="24" viewBox="0 0 24 24" fill="none" xmlns="http://www.w3.org/2000/svg">
<path d="M11 22C15.4183 22 19 18.866 19 15C19 11.134 15.4183 8 11 8C6.58172 8 3 11.134 3 15C3 18.866 6.58172 22 11 22Z" stroke="#333333" stroke-width="2" stroke-linecap="round" stroke-linejoin="round"/>
<path d="M13 12C13.6666 12.0834 15 12.5 15.5 14.5" stroke="#333333" stroke-width="2" stroke-linecap="round"/>
<path d="M4 6C5.10457 6 6 5.10457 6 4C6 2.89543 5.10457 2 4 2C2.89543 2 2 2.89543 2 4C2 5.10457 2.89543 6 4 6Z" stroke="#333333" stroke-width="2" stroke-linecap="round" stroke-linejoin="round"/>
<path d="M20.5 8C21.3284 8 22 7.32843 22 6.5C22 5.67157 21.3284 5 20.5 5C19.6716 5 19 5.67157 19 6.5C19 7.32843 19.6716 8 20.5 8Z" stroke="#333333" stroke-width="2" stroke-linecap="round" stroke-linejoin="round"/>
</svg>
