<svg width="24" height="24" viewBox="0 0 24 24" fill="none" xmlns="http://www.w3.org/2000/svg">
<g clip-path="url(#clip0_2_19627)">
<path d="M24 0H0V24H24V0Z" fill="white" fill-opacity="0.01"/>
<path d="M22 19V9H18V15.5H6V9H2V19H22Z" stroke="#333333" stroke-width="2" stroke-linecap="round" stroke-linejoin="round"/>
<path d="M18 3H6V15.5H18V3Z" stroke="#333333" stroke-width="2" stroke-linecap="round" stroke-linejoin="round"/>
<path fill-rule="evenodd" clip-rule="evenodd" d="M5 22C6.10455 22 7 21.1046 7 20C6.4514 20.0022 3.35015 20 3 20C3 21.1046 3.89543 22 5 22Z" fill="#333333"/>
<path fill-rule="evenodd" clip-rule="evenodd" d="M19 21.9995C20.1045 21.9995 21 21.1041 21 19.9995C20.0477 19.9962 17.4313 19.9995 17 19.9995C17 21.1041 17.8954 21.9995 19 21.9995Z" fill="#333333"/>
</g>
<defs>
<clipPath id="clip0_2_19627">
<rect width="24" height="24" fill="white"/>
</clipPath>
</defs>
</svg>
