<svg width="24" height="24" viewBox="0 0 24 24" fill="none" xmlns="http://www.w3.org/2000/svg">
<path d="M5 15H8C9.65685 15 11 16.3432 11 18C11 19.6568 9.65685 21 8 21H5V15Z" stroke="#333333" stroke-width="2" stroke-linejoin="round"/>
<path d="M5 14V22" stroke="#333333" stroke-width="2" stroke-linecap="round" stroke-linejoin="round"/>
<path d="M2 16H5" stroke="#333333" stroke-width="2" stroke-linecap="round" stroke-linejoin="round"/>
<path d="M2 19H5" stroke="#333333" stroke-width="2" stroke-linecap="round" stroke-linejoin="round"/>
<path d="M11 18H15C15.5523 18 16 17.5523 16 17V11.5" stroke="#333333" stroke-width="2" stroke-linecap="round" stroke-linejoin="round"/>
<path d="M16 2V5.5" stroke="#333333" stroke-width="2" stroke-linecap="round" stroke-linejoin="round"/>
<path d="M11.4395 3.93945L13.5608 6.06077" stroke="#333333" stroke-width="2" stroke-linecap="round" stroke-linejoin="round"/>
<path d="M11.4395 12.5608L13.5608 10.4395" stroke="#333333" stroke-width="2" stroke-linecap="round" stroke-linejoin="round"/>
<path d="M20.5605 3.93945L18.4392 6.06077" stroke="#333333" stroke-width="2" stroke-linecap="round" stroke-linejoin="round"/>
<path d="M20.5605 12.5608L18.4392 10.4395" stroke="#333333" stroke-width="2" stroke-linecap="round" stroke-linejoin="round"/>
<path d="M16 11.5C17.6569 11.5 19 10.1569 19 8.5C19 6.84315 17.6569 5.5 16 5.5C14.3431 5.5 13 6.84315 13 8.5C13 10.1569 14.3431 11.5 16 11.5Z" stroke="#333333" stroke-width="2"/>
<path d="M10 8.5H13" stroke="#333333" stroke-width="2" stroke-linecap="round" stroke-linejoin="round"/>
<path d="M19 8.5H22" stroke="#333333" stroke-width="2" stroke-linecap="round" stroke-linejoin="round"/>
</svg>
