<svg width="24" height="24" viewBox="0 0 24 24" fill="none" xmlns="http://www.w3.org/2000/svg">
<path d="M4.5 3.5C4.5 2.67158 5.17155 2 6 2H18C18.8285 2 19.5 2.67158 19.5 3.5V20.5C19.5 21.3285 18.8285 22 18 22H6C5.17155 22 4.5 21.3285 4.5 20.5V3.5Z" stroke="#333333" stroke-width="2"/>
<path d="M12 14.5C13.933 14.5 15.5 12.933 15.5 11C15.5 9.067 13.933 7.5 12 7.5C10.067 7.5 8.5 9.067 8.5 11C8.5 12.933 10.067 14.5 12 14.5Z" stroke="#333333" stroke-width="2" stroke-linejoin="round"/>
<path d="M17 5C17 4.44772 16.5523 4 16 4C15.4477 4 15 4.44772 15 5C15 5.55228 15.4477 6 16 6C16.5523 6 17 5.55228 17 5Z" fill="#333333"/>
<path d="M13.5 18H14.5" stroke="#333333" stroke-width="2" stroke-linecap="round" stroke-linejoin="round"/>
<path d="M9.5 18H10.5" stroke="#333333" stroke-width="2" stroke-linecap="round" stroke-linejoin="round"/>
</svg>
