<svg width="24" height="24" viewBox="0 0 24 24" fill="none" xmlns="http://www.w3.org/2000/svg">
<g clip-path="url(#clip0_2_20732)">
<path d="M24 0H0V24H24V0Z" fill="white" fill-opacity="0.01"/>
<path d="M24 0H0V24H24V0Z" fill="white" fill-opacity="0.01"/>
<path d="M19 1H5C4.44771 1 4 1.44771 4 2V22C4 22.5523 4.44771 23 5 23H19C19.5523 23 20 22.5523 20 22V2C20 1.44771 19.5523 1 19 1Z" stroke="#333333" stroke-width="2" stroke-linejoin="round"/>
<path d="M12 19C13.6568 19 15 17.6568 15 16C15 14.3432 13.6568 13 12 13C10.3432 13 9 14.3432 9 16C9 17.6568 10.3432 19 12 19Z" stroke="#333333" stroke-width="2" stroke-linejoin="round"/>
<path d="M12 9C13.1046 9 14 8.10455 14 7C14 5.89545 13.1046 5 12 5C10.8954 5 10 5.89545 10 7C10 8.10455 10.8954 9 12 9Z" stroke="#333333" stroke-width="2" stroke-linejoin="round"/>
</g>
<defs>
<clipPath id="clip0_2_20732">
<rect width="24" height="24" fill="white"/>
</clipPath>
</defs>
</svg>
