<svg width="24" height="24" viewBox="0 0 24 24" fill="none" xmlns="http://www.w3.org/2000/svg">
<g clip-path="url(#clip0_2_19617)">
<path d="M21.931 0H2.06897V19.8621H21.931V0Z" fill="white" fill-opacity="0.01"/>
<path d="M21.931 0H2.06897V24H21.931V0Z" fill="white" fill-opacity="0.01"/>
<path d="M16.1476 2.76805C14.9281 2.06043 13.5114 1.65527 12 1.65527C7.42935 1.65527 3.72412 5.3605 3.72412 9.93114C3.72412 14.5018 7.42935 18.207 12 18.207C16.5706 18.207 20.2758 14.5018 20.2758 9.93114C20.2758 8.43018 19.8763 7.02254 19.1777 5.8088" stroke="#333333" stroke-width="1.65517" stroke-linecap="round" stroke-linejoin="round"/>
<path d="M15.2896 6.6416C15.2896 6.6416 13.8878 10.3842 13.2415 11.0305C12.5951 11.6769 11.5471 11.6769 10.9007 11.0305C10.2543 10.3842 10.2543 9.33614 10.9007 8.68975C11.5471 8.04337 15.2896 6.6416 15.2896 6.6416Z" stroke="#333333" stroke-width="1.65517" stroke-linejoin="round"/>
</g>
<defs>
<clipPath id="clip0_2_19617">
<rect width="24" height="24" fill="white"/>
</clipPath>
</defs>
</svg>
