<svg width="24" height="24" viewBox="0 0 24 24" fill="none" xmlns="http://www.w3.org/2000/svg">
<path d="M16.5 11.9995C18.25 13.4995 18.8064 16.2226 17.941 18.2417C17.0757 20.2609 15.0565 21.9916 12.749 22.28C10.4414 22.5685 8.1338 20.8378 7.5569 20.2609C7.33515 20.0392 7.14895 19.8085 7.0046 19.6074C6.7921 19.3113 6.81835 18.9185 7.06335 18.6486C7.496 18.172 8.24755 17.5145 8.99915 17.6648C10.4414 17.9533 10.9831 18.4538 12.1721 17.9533C13.25 17.4995 13.6143 16.511 13.6143 15.6457C13.6143 14.7803 13.0374 13.915 11.8836 13.6265C10.7298 13.3381 9.57605 13.915 9.2876 14.7803C8.99915 15.6457 9.2876 16.2226 8.42225 16.7995C8.1287 16.9952 7.72105 17.1805 7.34885 17.3291C6.83445 17.5344 6.27435 17.23 6.2322 16.6777C6.14345 15.516 6.35575 13.8455 7.5569 12.4728C8.1798 11.7608 8.76255 11.2766 9.2876 10.9473" stroke="#333333" stroke-width="2" stroke-linecap="round" stroke-linejoin="round"/>
<path d="M16.5 12.0003L11.5639 2.12047C11.449 1.89046 11.176 1.78192 10.953 1.91002C10.4326 2.20911 9.8235 2.77136 10.0214 3.64376C10.2766 4.76897 11.7901 10.0246 12.4995 11.5003" stroke="#333333" stroke-width="2" stroke-linecap="round" stroke-linejoin="round"/>
<path d="M11.2495 8.50012L7.81495 5.24017C7.63445 5.06887 7.35225 5.05397 7.1824 5.23587C6.7715 5.67602 6.34535 6.40227 6.8007 7.18342C7.3818 8.18022 8.8806 10.3052 10 11.5001" stroke="#333333" stroke-width="2" stroke-linecap="round" stroke-linejoin="round"/>
</svg>
