<svg width="24" height="24" viewBox="0 0 24 24" fill="none" xmlns="http://www.w3.org/2000/svg">
<g clip-path="url(#clip0_2_19782)">
<path d="M24 0H0V24H24V0Z" fill="white" fill-opacity="0.01"/>
<path d="M18 7.5C19.3807 7.5 20.5 6.3807 20.5 5C20.5 3.61929 19.3807 2.5 18 2.5C16.6193 2.5 15.5 3.61929 15.5 5C15.5 6.3807 16.6193 7.5 18 7.5Z" stroke="#333333" stroke-width="2"/>
<path d="M6 8.38457L10.0015 6.99902L15.5 9.62332L10.0015 13.7221L15.5 17.3417L12.0042 21.999" stroke="#333333" stroke-width="2" stroke-linecap="round" stroke-linejoin="round"/>
<path d="M17.6599 10.8212L19.0008 11.5504L21.9999 8.73242" stroke="#333333" stroke-width="2" stroke-linecap="round" stroke-linejoin="round"/>
<path d="M8.4245 15.7725L6.93965 17.7284L2.00195 20.498" stroke="#333333" stroke-width="2" stroke-linecap="round" stroke-linejoin="round"/>
</g>
<defs>
<clipPath id="clip0_2_19782">
<rect width="24" height="24" fill="white"/>
</clipPath>
</defs>
</svg>
