<svg width="24" height="24" viewBox="0 0 24 24" fill="none" xmlns="http://www.w3.org/2000/svg">
<path d="M2.5 4.4L4.4 2.5L6.3 3.925L8.2 2.5L10.1 3.925L12 2.5L13.9 3.925L15.8 2.5L17.7 3.925L19.6 2.5L21.5 4.4L20.075 6.3L21.5 8.2L20.075 10.1L21.5 12L20.075 13.9L21.5 15.8L20.075 17.7L21.5 19.6L19.6 21.5L17.7 20.075L15.8 21.5L13.9 20.075L12 21.5L10.1 20.075L8.2 21.5L6.3 20.075L4.4 21.5L2.5 19.6L3.925 17.7L2.5 15.8L3.925 13.9L2.5 12L3.925 10.1L2.5 8.2L3.925 6.3L2.5 4.4Z" stroke="#333333" stroke-width="2" stroke-linecap="round" stroke-linejoin="round"/>
<path d="M12 16.5C14.4853 16.5 16.5 14.4853 16.5 12C16.5 9.51472 14.4853 7.5 12 7.5C9.51472 7.5 7.5 9.51472 7.5 12C7.5 14.4853 9.51472 16.5 12 16.5Z" stroke="#333333" stroke-width="2" stroke-linecap="round" stroke-linejoin="round"/>
</svg>
