<svg width="24" height="24" viewBox="0 0 24 24" fill="none" xmlns="http://www.w3.org/2000/svg">
<path d="M21 17.5V21.5H3V17.5H15.5" stroke="#333333" stroke-width="2" stroke-linecap="round" stroke-linejoin="round"/>
<path d="M19.192 10.903L4.1569 5.43066L2.78882 9.18941L14.8767 13.5891" stroke="#333333" stroke-width="2" stroke-linecap="round" stroke-linejoin="round"/>
<path d="M4.18481 5.38947L11.441 8.07952C11.449 8.08247 11.4578 8.07842 11.4608 8.07047C11.9681 6.70207 11.27 5.18152 9.90165 4.67425L5.1507 2.91296C5.1275 2.90436 5.1017 2.9162 5.0931 2.93941L4.18481 5.38947Z" stroke="#333333" stroke-width="2" stroke-linecap="round" stroke-linejoin="round"/>
<path d="M8.37726 11.3604L7.69326 13.2398C7.59881 13.4992 7.31186 13.633 7.05236 13.5386L3.76345 12.3415C3.50396 12.2471 3.37017 11.9602 3.46462 11.7007L4.14866 9.82129" stroke="#333333" stroke-width="2" stroke-linecap="round" stroke-linejoin="round"/>
<path d="M18 18.5C19.933 18.5 21.5 16.933 21.5 15C21.5 13.067 19.933 11.5 18 11.5C16.067 11.5 14.5 13.067 14.5 15C14.5 16.933 16.067 18.5 18 18.5Z" stroke="#333333" stroke-width="2"/>
</svg>
