<svg width="24" height="24" viewBox="0 0 24 24" fill="none" xmlns="http://www.w3.org/2000/svg">
<g clip-path="url(#clip0_2_20912)">
<path d="M24 0H0V24H24V0Z" fill="white" fill-opacity="0.01"/>
<path fill-rule="evenodd" clip-rule="evenodd" d="M8.4356 16.5218L7.9988 22.3518C7.9681 22.7614 8.3323 23.0436 8.65805 22.861C10.9644 21.5691 18.1891 16.8239 21.8508 6.39491C22.0188 5.91651 21.5676 5.48481 21.1823 5.75466C19.0194 7.26946 14.2923 10.4003 11.3711 10.9967C11.3711 10.9967 13.2418 9.69726 14.3616 7.70261C14.4713 7.50711 14.4622 7.25676 14.3398 7.08026L10.2564 1.19459C10.0144 0.845697 9.5177 0.990247 9.4303 1.43497L8.15905 7.90361L2.19219 13.1113C1.89301 13.3723 1.95404 13.8998 2.29945 14.0395L8.4356 16.5218Z" fill="#333333"/>
<path fill-rule="evenodd" clip-rule="evenodd" d="M18.9873 14.2245C18.6094 14.7517 17.7954 15.8363 17.0438 16.4992C16.8936 16.6317 16.9138 16.8539 17.0862 16.9622L21.0573 19.455C21.2963 19.605 21.6192 19.4269 21.5788 19.1666C21.3941 17.9753 20.8619 15.4914 19.5164 14.1875C19.3661 14.042 19.1071 14.0573 18.9873 14.2245Z" fill="#333333"/>
</g>
<defs>
<clipPath id="clip0_2_20912">
<rect width="24" height="24" fill="white"/>
</clipPath>
</defs>
</svg>
