<svg width="24" height="24" viewBox="0 0 24 24" fill="none" xmlns="http://www.w3.org/2000/svg">
<path d="M18.5 2.5H5.5C4.94772 2.5 4.5 2.94772 4.5 3.5V20.5C4.5 21.0523 4.94772 21.5 5.5 21.5H18.5C19.0523 21.5 19.5 21.0523 19.5 20.5V3.5C19.5 2.94772 19.0523 2.5 18.5 2.5Z" stroke="#333333" stroke-width="2"/>
<path d="M4.5 9H19.5" stroke="#333333" stroke-width="2" stroke-linecap="round" stroke-linejoin="round"/>
<path d="M12 18C13.6569 18 15 16.6569 15 15C15 13.3431 13.6569 12 12 12C10.3431 12 9 13.3431 9 15C9 16.6569 10.3431 18 12 18Z" stroke="#333333" stroke-width="2"/>
</svg>
