<svg width="24" height="24" viewBox="0 0 24 24" fill="none" xmlns="http://www.w3.org/2000/svg">
<g clip-path="url(#clip0_2_19604)">
<path d="M24 0H0V24H24V0Z" fill="white" fill-opacity="0.01"/>
<path d="M10.9737 2V5M5.0263 3.5H2C2 3.5 2 8 2 10.5C2 13 4 16 8 16C12 16 14 13 14 10.5C14 8 14 3.5 14 3.5H10.9737H5.0263ZM5.0263 2V5V2Z" stroke="#333333" stroke-width="2" stroke-linecap="round" stroke-linejoin="round"/>
<path d="M20 11.5C21.1046 11.5 22 10.6046 22 9.5C22 8.39543 21.1046 7.5 20 7.5C18.8954 7.5 18 8.39543 18 9.5C18 10.6046 18.8954 11.5 20 11.5Z" stroke="#333333" stroke-width="2" stroke-linecap="round" stroke-linejoin="round"/>
<path d="M8 16C8 19.3137 10.6863 22 14 22C17.3137 22 20 19.3137 20 16V11.5" stroke="#333333" stroke-width="2" stroke-linecap="round" stroke-linejoin="round"/>
</g>
<defs>
<clipPath id="clip0_2_19604">
<rect width="24" height="24" fill="white"/>
</clipPath>
</defs>
</svg>
