<svg width="24" height="24" viewBox="0 0 24 24" fill="none" xmlns="http://www.w3.org/2000/svg">
<path d="M17 11C17 8.2386 14.7614 6 12 6C9.2386 6 7 8.2386 7 11" stroke="#333333" stroke-width="2"/>
<path d="M7 11.5C4.01099 12.1022 2 13.2279 2 14.517C2 16.4406 6.47715 18 12 18C17.5229 18 22 16.4406 22 14.517C22 13.2279 19.989 12.1022 17 11.5" stroke="#333333" stroke-width="2"/>
<path d="M7 11C7.5 11.4166 9 13 12 13C15 13 16.5 11.5 17 11" stroke="#333333" stroke-width="2" stroke-linecap="round" stroke-linejoin="round"/>
<path d="M9.5 12.5L10.5 10" stroke="#333333" stroke-width="2" stroke-linecap="round" stroke-linejoin="round"/>
</svg>
