<svg width="24" height="24" viewBox="0 0 24 24" fill="none" xmlns="http://www.w3.org/2000/svg">
<path d="M19.5311 15.1409L2.78937 18.093C2.24548 18.1889 1.88231 18.7075 1.97821 19.2514L2.15186 20.2362C2.24777 20.7801 2.76642 21.1433 3.31032 21.0474L20.052 18.0954C20.5959 17.9995 20.9591 17.4808 20.8632 16.9369L20.6896 15.9521C20.5937 15.4082 20.075 15.045 19.5311 15.1409Z" stroke="#333333" stroke-width="2" stroke-linecap="round" stroke-linejoin="round"/>
<path d="M22 20L20 18" stroke="#333333" stroke-width="2" stroke-linecap="round" stroke-linejoin="round"/>
<path d="M3.99996 2L13.1924 11.1924L11.071 13.3137C11.071 13.3137 6.12126 8.36395 4.70706 6.94975C3.29285 5.5355 3.29284 4.82841 3.29285 4.12131C3.29286 3.41422 3.99996 2 3.99996 2Z" stroke="#333333" stroke-width="2" stroke-linecap="round" stroke-linejoin="round"/>
<path d="M4 2L13 11L17.5 15.5" stroke="#333333" stroke-width="2" stroke-linecap="round" stroke-linejoin="round"/>
</svg>
