<svg width="24" height="24" viewBox="0 0 24 24" fill="none" xmlns="http://www.w3.org/2000/svg">
<path d="M16 8H20.5C21.0523 8 21.5 8.4477 21.5 9V20.5C21.5 21.0523 21.0523 21.5 20.5 21.5H9C8.4477 21.5 8 21.0523 8 20.5V16" stroke="#333333" stroke-width="2" stroke-linecap="round" stroke-linejoin="round"/>
<path d="M15 2.5H3.5C2.94772 2.5 2.5 2.94772 2.5 3.5V15C2.5 15.5523 2.94772 16 3.5 16H15C15.5523 16 16 15.5523 16 15V3.5C16 2.94772 15.5523 2.5 15 2.5Z" stroke="#333333" stroke-width="2" stroke-linecap="round" stroke-linejoin="round"/>
<path d="M9 2.5L2.5 9.5" stroke="#333333" stroke-width="2" stroke-linecap="round" stroke-linejoin="round"/>
<path d="M13.5 2.5L2.5 14.5" stroke="#333333" stroke-width="2" stroke-linecap="round" stroke-linejoin="round"/>
<path d="M16 5L6 16" stroke="#333333" stroke-width="2" stroke-linecap="round" stroke-linejoin="round"/>
<path d="M16 10.5L11 16" stroke="#333333" stroke-width="2" stroke-linecap="round" stroke-linejoin="round"/>
</svg>
