<svg width="24" height="24" viewBox="0 0 24 24" fill="none" xmlns="http://www.w3.org/2000/svg">
<path d="M20.5 8H9C8.44772 8 8 8.44772 8 9V20.5C8 21.0523 8.44772 21.5 9 21.5H20.5C21.0523 21.5 21.5 21.0523 21.5 20.5V9C21.5 8.44772 21.0523 8 20.5 8Z" stroke="#333333" stroke-width="2" stroke-linecap="round" stroke-linejoin="round"/>
<path d="M8 16H3.5C2.94771 16 2.5 15.5523 2.5 15V3.5C2.5 2.94771 2.94771 2.5 3.5 2.5H15C15.5523 2.5 16 2.94771 16 3.5V8" stroke="#333333" stroke-width="2" stroke-linecap="round" stroke-linejoin="round"/>
<path d="M14.5 8L8 15" stroke="#333333" stroke-width="2" stroke-linecap="round" stroke-linejoin="round"/>
<path d="M19 8L8 20" stroke="#333333" stroke-width="2" stroke-linecap="round" stroke-linejoin="round"/>
<path d="M21.5 10.5L11.5 21.5" stroke="#333333" stroke-width="2" stroke-linecap="round" stroke-linejoin="round"/>
<path d="M21.5 16L16.5 21.5" stroke="#333333" stroke-width="2" stroke-linecap="round" stroke-linejoin="round"/>
</svg>
