<svg width="24" height="24" viewBox="0 0 24 24" fill="none" xmlns="http://www.w3.org/2000/svg">
<g clip-path="url(#clip0_2_19593)">
<path d="M24 0H0V24H24V0Z" fill="white" fill-opacity="0.01"/>
<path d="M12 1.5V3.075" stroke="#333333" stroke-width="2" stroke-linecap="round" stroke-linejoin="round"/>
<path fill-rule="evenodd" clip-rule="evenodd" d="M19.4246 4.5752L18.3109 5.68887L19.4246 4.5752Z" fill="#333333"/>
<path d="M19.4246 4.5752L18.3109 5.68887" stroke="#333333" stroke-width="2" stroke-linecap="round" stroke-linejoin="round"/>
<path d="M22.5 12H20.925" stroke="#333333" stroke-width="2" stroke-linecap="round" stroke-linejoin="round"/>
<path fill-rule="evenodd" clip-rule="evenodd" d="M19.4246 19.4242L18.3109 18.3105L19.4246 19.4242Z" fill="#333333"/>
<path d="M19.4246 19.4242L18.3109 18.3105" stroke="#333333" stroke-width="2" stroke-linecap="round" stroke-linejoin="round"/>
<path d="M12 22.4998V20.9248" stroke="#333333" stroke-width="2" stroke-linecap="round" stroke-linejoin="round"/>
<path fill-rule="evenodd" clip-rule="evenodd" d="M4.57544 19.4242L5.68911 18.3105L4.57544 19.4242Z" fill="#333333"/>
<path d="M4.57544 19.4242L5.68911 18.3105" stroke="#333333" stroke-width="2" stroke-linecap="round" stroke-linejoin="round"/>
<path d="M1.5 12H3.075" stroke="#333333" stroke-width="2" stroke-linecap="round" stroke-linejoin="round"/>
<path fill-rule="evenodd" clip-rule="evenodd" d="M4.57544 4.5752L5.68911 5.68887L4.57544 4.5752Z" fill="#333333"/>
<path d="M4.57544 4.5752L5.68911 5.68887" stroke="#333333" stroke-width="2" stroke-linecap="round" stroke-linejoin="round"/>
<path d="M12 18C15.3137 18 18 15.3137 18 12C18 8.6863 15.3137 6 12 6C8.6863 6 6 8.6863 6 12C6 15.3137 8.6863 18 12 18Z" stroke="#333333" stroke-width="2" stroke-linejoin="round"/>
</g>
<defs>
<clipPath id="clip0_2_19593">
<rect width="24" height="24" fill="white"/>
</clipPath>
</defs>
</svg>
