<svg width="24" height="24" viewBox="0 0 24 24" fill="none" xmlns="http://www.w3.org/2000/svg">
<g clip-path="url(#clip0_2_19592)">
<path d="M24 0H0V24H24V0Z" fill="white" fill-opacity="0.01"/>
<path d="M15.3913 12.2826C17.2643 12.2826 18.7826 10.7643 18.7826 8.8913C18.7826 7.01835 17.2643 5.5 15.3913 5.5C13.7169 5.5 12.3259 6.7135 12.0498 8.309" stroke="#333333" stroke-width="2" stroke-linecap="round" stroke-linejoin="round"/>
<path d="M16.5 3.5C17.0523 3.5 17.5 3.05228 17.5 2.5C17.5 1.94771 17.0523 1.5 16.5 1.5C15.9477 1.5 15.5 1.94771 15.5 2.5C15.5 3.05228 15.9477 3.5 16.5 3.5Z" fill="#333333"/>
<path d="M21 6C21.5523 6 22 5.5523 22 5C22 4.44771 21.5523 4 21 4C20.4477 4 20 4.44771 20 5C20 5.5523 20.4477 6 21 6Z" fill="#333333"/>
<path d="M22 10.5C22.5523 10.5 23 10.0523 23 9.5C23 8.9477 22.5523 8.5 22 8.5C21.4477 8.5 21 8.9477 21 9.5C21 10.0523 21.4477 10.5 22 10.5Z" fill="#333333"/>
<path d="M11 5C11.5523 5 12 4.55228 12 4C12 3.44771 11.5523 3 11 3C10.4477 3 10 3.44771 10 4C10 4.55228 10.4477 5 11 5Z" fill="#333333"/>
<path d="M4.72727 19.9971C3.07121 18.7305 2 16.7139 2 14.4425C2 10.6083 5.0526 7.5 8.8182 7.5C11.9667 7.5 14.6168 9.6731 15.4008 12.6266C16.0177 12.3079 16.7155 12.1284 17.4545 12.1284C19.9649 12.1284 22 14.2006 22 16.7568C22 18.6547 20.8781 20.2858 19.2728 21" stroke="#333333" stroke-width="2" stroke-linecap="round" stroke-linejoin="round"/>
<path d="M11.1213 12.3787C10.5784 11.8358 9.82845 11.5 9 11.5C7.34315 11.5 6 12.8432 6 14.5C6 15.3285 6.3358 16.0784 6.8787 16.6213" stroke="#333333" stroke-width="2" stroke-linecap="round" stroke-linejoin="round"/>
</g>
<defs>
<clipPath id="clip0_2_19592">
<rect width="24" height="24" fill="white"/>
</clipPath>
</defs>
</svg>
