<svg width="24" height="24" viewBox="0 0 24 24" fill="none" xmlns="http://www.w3.org/2000/svg">
<path d="M2 12H3.5" stroke="#333333" stroke-width="2" stroke-linecap="round" stroke-linejoin="round"/>
<path d="M5 5L6 6" stroke="#333333" stroke-width="2" stroke-linecap="round" stroke-linejoin="round"/>
<path d="M12 2V3.5" stroke="#333333" stroke-width="2" stroke-linecap="round" stroke-linejoin="round"/>
<path d="M7 12C7 9.2388 9.2388 7 12 7C14.7612 7 17 9.2388 17 12C17 13.6837 16.1678 15.1729 14.8925 16.0789" stroke="#333333" stroke-width="2" stroke-linecap="round" stroke-linejoin="round"/>
<path d="M19 5L18 6" stroke="#333333" stroke-width="2" stroke-linecap="round" stroke-linejoin="round"/>
<path d="M22 12H20.5" stroke="#333333" stroke-width="2" stroke-linecap="round" stroke-linejoin="round"/>
<path d="M18.9907 18.9907L18.1807 18.1807" stroke="#333333" stroke-width="2" stroke-linecap="round" stroke-linejoin="round"/>
<path d="M11.75 14C10.25 14 7.00003 14.1 7.00003 15.5C7.00003 16.9 9.30293 16.8954 10.4999 17C11.5 17.0874 13.2312 17.844 13 19C12.4999 21.5 4.49994 21 2.5 21" stroke="#333333" stroke-width="2" stroke-linecap="round" stroke-linejoin="round"/>
</svg>
