<svg width="24" height="24" viewBox="0 0 24 24" fill="none" xmlns="http://www.w3.org/2000/svg">
<path d="M20.0515 12.909C19.6033 14.0503 15.2153 14.4132 10.6808 13.1982C6.1464 11.9831 3.29135 9.77659 3.6308 8.50904C4.39766 5.64709 8.48715 1.23157 14.3355 3.34478C20.1839 5.45799 20.8184 10.047 20.0515 12.909Z" stroke="#333333" stroke-width="2" stroke-linecap="round" stroke-linejoin="round"/>
<path d="M13.9998 3.5C13.9998 3.5 11.9997 6.75 10.4998 12C8.99988 17.25 8.99988 21 8.99988 21" stroke="#333333" stroke-width="2" stroke-linecap="round" stroke-linejoin="round"/>
<path d="M14.0001 3.5C14.0001 3.5 8.89705 4.42176 7.5 8.5" stroke="#333333" stroke-width="2" stroke-linecap="round" stroke-linejoin="round"/>
<path d="M14.0001 3.5C14.0001 3.5 17 6.5 15.4999 11" stroke="#333333" stroke-width="2" stroke-linecap="round" stroke-linejoin="round"/>
<path d="M5 21.5C5 21.5 9.5 20.75 13 20.75C16.5 20.75 19.5 21 19.5 21" stroke="#333333" stroke-width="2" stroke-linecap="round" stroke-linejoin="round"/>
<path d="M14 3.50007C14.5001 3.50007 15.5001 3.00007 15.9073 2.20996" stroke="#333333" stroke-width="2" stroke-linecap="round" stroke-linejoin="round"/>
<path d="M17 20.5C17 19.6715 16.5 18.5 15 18.5C13.5 18.5 13 19.6715 13 20.5" stroke="#333333" stroke-width="2" stroke-linecap="round" stroke-linejoin="round"/>
</svg>
