<svg width="24" height="24" viewBox="0 0 24 24" fill="none" xmlns="http://www.w3.org/2000/svg">
<g clip-path="url(#clip0_2_19587)">
<path d="M23.7551 0.490234H0.244873V24.0004H23.7551V0.490234Z" fill="white" fill-opacity="0.01"/>
<path d="M3.18359 13.2246V21.0613" stroke="#333333" stroke-width="1.95918" stroke-linecap="round" stroke-linejoin="round"/>
<path d="M3.18359 16.6526H6.61217L8.57135 13.7139" stroke="#333333" stroke-width="1.95918" stroke-linecap="round" stroke-linejoin="round"/>
<path d="M3.67358 10.2861L16.6402 18.9305C16.7977 19.0355 17.0016 19.0404 17.1638 18.943L21.796 16.1637" stroke="#333333" stroke-width="1.95918" stroke-linecap="round" stroke-linejoin="round"/>
<path d="M3.71177 6.71924C3.44476 6.54125 3.41821 6.15882 3.65806 5.94561L7.31171 2.69794C7.47706 2.55095 7.72044 2.53307 7.90554 2.65432L21.1615 11.3393C21.459 11.5342 21.4561 11.9713 21.1561 12.1622L16.6774 15.0123C16.5138 15.1164 16.3042 15.1141 16.1428 15.0066L3.71177 6.71924Z" stroke="#333333" stroke-width="1.95918"/>
</g>
<defs>
<clipPath id="clip0_2_19587">
<rect width="24" height="24" fill="white"/>
</clipPath>
</defs>
</svg>
