<svg width="24" height="24" viewBox="0 0 24 24" fill="none" xmlns="http://www.w3.org/2000/svg">
<g clip-path="url(#clip0_2_20006)">
<path d="M24 0H0V24H24V0Z" fill="white" fill-opacity="0.01"/>
<path d="M4.49951 16.6567L12.017 3.47134C12.479 2.49045 13.3134 2 14.5201 2C16.3302 2 17.5086 4.49313 17.5086 4.49313C17.5086 4.49313 18.1723 4.592 19.4995 4.78976C17.4944 4.82257 16.335 5.226 16.0212 6C15.5506 7.16105 17.2492 8.3654 17.5086 10.002C17.7681 11.6385 16.7332 14.4025 14.2441 15.7835C12.5847 16.7041 10.5131 16.943 8.02915 16.5L4.97922 22" stroke="#333333" stroke-width="2" stroke-linecap="round" stroke-linejoin="round"/>
<path fill-rule="evenodd" clip-rule="evenodd" d="M9.47119 13.9885C10.7606 11.6637 11.6084 10.171 12.0146 9.51028C12.6239 8.51923 15.1372 8.81803 14.2342 11.2917C13.6322 12.9407 12.0445 13.8397 9.47119 13.9885Z" stroke="#333333" stroke-width="2" stroke-linejoin="round"/>
</g>
<defs>
<clipPath id="clip0_2_20006">
<rect width="24" height="24" fill="white"/>
</clipPath>
</defs>
</svg>
