<svg width="24" height="24" viewBox="0 0 24 24" fill="none" xmlns="http://www.w3.org/2000/svg">
<path d="M14 16.584C15.1535 16.08 16.08 15.1535 16.584 14" stroke="#333333" stroke-width="2" stroke-linecap="round"/>
<path d="M7.41602 14C7.92002 15.1535 8.84657 16.08 9.99997 16.584" stroke="#333333" stroke-width="2" stroke-linecap="round"/>
<path d="M9.99997 7.41602C8.84657 7.91997 7.92002 8.84652 7.41602 9.99997" stroke="#333333" stroke-width="2" stroke-linecap="round"/>
<path d="M14 7.41602C15.1535 7.91997 16.08 8.84652 16.584 9.99997" stroke="#333333" stroke-width="2" stroke-linecap="round"/>
<path d="M15 20.4879C17.5573 19.584 19.584 17.5573 20.4879 15" stroke="#333333" stroke-width="2" stroke-linecap="round"/>
<path d="M3.51208 15C4.41594 17.5573 6.44274 19.584 8.99999 20.4879" stroke="#333333" stroke-width="2" stroke-linecap="round"/>
<path d="M8.99999 3.51172C6.44274 4.41557 4.41594 6.44235 3.51208 8.9996" stroke="#333333" stroke-width="2" stroke-linecap="round"/>
<path d="M15 3.51172C17.5573 4.41557 19.584 6.44235 20.4879 8.9996" stroke="#333333" stroke-width="2" stroke-linecap="round"/>
<path d="M13.5 8.5H10.5L9 3.5L10 2H14L15 3.5L13.5 8.5Z" stroke="#333333" stroke-width="2" stroke-miterlimit="2" stroke-linejoin="round"/>
<path d="M8.5 10.5V13.5L3.5 15L2 14V10L3.5 9L8.5 10.5Z" stroke="#333333" stroke-width="2" stroke-miterlimit="2" stroke-linejoin="round"/>
<path d="M10.5 15.5H13.5L15 20.5L14 22H10L9 20.5L10.5 15.5Z" stroke="#333333" stroke-width="2" stroke-miterlimit="2" stroke-linejoin="round"/>
<path d="M15.5 13.5V10.5L20.5 9C21.04 9.4 21.46 9.6 22 10V14C21.46 14.4 21.04 14.6 20.5 15L15.5 13.5Z" stroke="#333333" stroke-width="2" stroke-miterlimit="2" stroke-linejoin="round"/>
</svg>
