<svg width="24" height="24" viewBox="0 0 24 24" fill="none" xmlns="http://www.w3.org/2000/svg">
<path d="M7 2V5.5" stroke="#333333" stroke-width="2" stroke-linecap="round" stroke-linejoin="round"/>
<path d="M17 2V5.5" stroke="#333333" stroke-width="2" stroke-linecap="round" stroke-linejoin="round"/>
<path d="M6 15.5H18V18C16.5 18 13 19.5 13 22H10.5C10.5 19.5 7.5 18 6 18V15.5Z" stroke="#333333" stroke-width="2" stroke-linecap="round" stroke-linejoin="round"/>
<path d="M7 12.5C8.933 12.5 10.5 10.933 10.5 9C10.5 7.067 8.933 5.5 7 5.5C5.067 5.5 3.5 7.067 3.5 9C3.5 10.933 5.067 12.5 7 12.5Z" stroke="#333333" stroke-width="2" stroke-linecap="round" stroke-linejoin="round"/>
<path d="M17 12.5C18.933 12.5 20.5 10.933 20.5 9C20.5 7.067 18.933 5.5 17 5.5C15.067 5.5 13.5 7.067 13.5 9C13.5 10.933 15.067 12.5 17 12.5Z" stroke="#333333" stroke-width="2" stroke-linecap="round" stroke-linejoin="round"/>
<path d="M10.5 9H13.5" stroke="#333333" stroke-width="2" stroke-linecap="round" stroke-linejoin="round"/>
</svg>
