<svg width="24" height="24" viewBox="0 0 24 24" fill="none" xmlns="http://www.w3.org/2000/svg">
<path d="M5.00017 17.9999C4.00066 16.2499 3.99976 12.9999 4.00014 8.4999C4.00027 6.9999 6.00002 6.4999 6.99992 7.9999C7.55382 8.8309 7.90822 11.132 7.90822 11.132L11.1557 5.50725C11.5037 4.90452 12.2744 4.698 12.8772 5.046C13.4799 5.394 13.6864 6.16475 13.3384 6.7675L13.5323 6.43165C13.8803 5.8289 14.651 5.6224 15.2538 5.9704C15.8565 6.3184 16.0631 7.08915 15.7151 7.6919L15.5212 8.0277C15.8692 7.42495 16.6399 7.2184 17.2427 7.5664C17.8454 7.9144 18.0519 8.68515 17.7039 9.2879L16.9277 10.6323C17.2761 10.0289 18.0477 9.82215 18.6511 10.1705C19.2536 10.5184 19.4607 11.2882 19.1142 11.8915L14.5297 19.8725C14.4809 19.9574 14.431 20.0407 14.3693 20.1168C14.0836 20.4697 13.072 21.4999 11.0002 21.4999C8.67067 21.4999 6.23937 20.1695 5.00017 17.9999Z" stroke="#333333" stroke-width="2" stroke-linecap="round" stroke-linejoin="round"/>
<path d="M18.5 2.5C19.1894 2.86667 20.2527 3.37914 21 4.5C21.5 5.25 21.75 6.25 21.8954 7.5" stroke="#333333" stroke-width="2" stroke-linecap="round" stroke-linejoin="round"/>
</svg>
