<svg width="24" height="24" viewBox="0 0 24 24" fill="none" xmlns="http://www.w3.org/2000/svg">
<g clip-path="url(#clip0_2_21497)">
<path d="M24 0H0V24H24V0Z" fill="white" fill-opacity="0.01"/>
<path d="M15 5H20C20.9428 5 21.4142 5 21.7071 5.2929C22 5.5858 22 6.0572 22 7V17C22 17.9428 22 18.4142 21.7071 18.7071C21.4142 19 20.9428 19 20 19H15" stroke="#333333" stroke-width="2" stroke-linecap="round" stroke-linejoin="round"/>
<path d="M9 5H4C3.05719 5 2.58579 5 2.2929 5.2929C2 5.5858 2 6.0572 2 7V17C2 17.9428 2 18.4142 2.2929 18.7071C2.58579 19 3.05719 19 4 19H9" stroke="#333333" stroke-width="2" stroke-linecap="round" stroke-linejoin="round"/>
<path d="M12 3V21" stroke="#333333" stroke-width="2" stroke-linecap="round" stroke-linejoin="round"/>
</g>
<defs>
<clipPath id="clip0_2_21497">
<rect width="24" height="24" fill="white"/>
</clipPath>
</defs>
</svg>
