<svg width="24" height="24" viewBox="0 0 24 24" fill="none" xmlns="http://www.w3.org/2000/svg">
<path d="M12 21.5C17.2467 21.5 21.5 17.2467 21.5 12C21.5 6.75329 17.2467 2.5 12 2.5C6.75329 2.5 2.5 6.75329 2.5 12C2.5 17.2467 6.75329 21.5 12 21.5Z" stroke="#333333" stroke-width="2"/>
<path d="M18.0032 12.2967V12.2967C18.0032 10.8444 16.8258 9.66699 15.3735 9.66699H8.62664C7.17429 9.66699 5.99692 10.8444 5.99692 12.2967V12.2967C5.99692 13.7491 7.17429 14.9264 8.62664 14.9264H15.3735C16.8258 14.9264 18.0032 13.7491 18.0032 12.2967Z" stroke="#333333" stroke-width="2"/>
<path d="M13.0032 12.4258C13.0032 13.8065 14.1225 14.9258 15.5032 14.9258C16.8839 14.9258 18.0032 13.8065 18.0032 12.4258C18.0032 11.0451 16.8839 9.92578 15.5032 9.92578C14.1225 9.92578 13.0032 11.0451 13.0032 12.4258Z" stroke="#333333" stroke-width="2"/>
</svg>
