<svg width="24" height="24" viewBox="0 0 24 24" fill="none" xmlns="http://www.w3.org/2000/svg">
<g clip-path="url(#clip0_2_19569)">
<path d="M24 0H0V24H24V0Z" fill="white" fill-opacity="0.01"/>
<path d="M9 3H4C3.44772 3 3 3.44772 3 4V9C3 9.55228 3.44772 10 4 10H9C9.55228 10 10 9.55228 10 9V4C10 3.44772 9.55228 3 9 3Z" stroke="#333333" stroke-width="2" stroke-linejoin="round"/>
<path d="M9 14H4C3.44772 14 3 14.4477 3 15V20C3 20.5523 3.44772 21 4 21H9C9.55228 21 10 20.5523 10 20V15C10 14.4477 9.55228 14 9 14Z" stroke="#333333" stroke-width="2" stroke-linejoin="round"/>
<path d="M17.5 10C19.433 10 21 8.433 21 6.5C21 4.56701 19.433 3 17.5 3C15.567 3 14 4.56701 14 6.5C14 8.433 15.567 10 17.5 10Z" stroke="#333333" stroke-width="2" stroke-linejoin="round"/>
<path d="M20 14H15C14.4477 14 14 14.4477 14 15V20C14 20.5523 14.4477 21 15 21H20C20.5523 21 21 20.5523 21 20V15C21 14.4477 20.5523 14 20 14Z" stroke="#333333" stroke-width="2" stroke-linejoin="round"/>
</g>
<defs>
<clipPath id="clip0_2_19569">
<rect width="24" height="24" fill="white"/>
</clipPath>
</defs>
</svg>
