<svg width="24" height="24" viewBox="0 0 24 24" fill="none" xmlns="http://www.w3.org/2000/svg">
<path d="M15.725 8.48047C17.1057 8.48047 18.225 7.36117 18.225 5.98047C18.225 4.59976 17.1057 3.48047 15.725 3.48047C14.3442 3.48047 13.225 4.59976 13.225 5.98047C13.225 7.36117 14.3442 8.48047 15.725 8.48047Z" stroke="#333333" stroke-width="2" stroke-miterlimit="2"/>
<path d="M18 17L17 11.5L11.5 14L5 12.5" stroke="#333333" stroke-width="2" stroke-miterlimit="2" stroke-linecap="round" stroke-linejoin="round"/>
<path d="M2 20.5146H22" stroke="#333333" stroke-width="2" stroke-miterlimit="2" stroke-linecap="round" stroke-linejoin="round"/>
<path d="M4.5 15C5.88071 15 7 13.8807 7 12.5C7 11.1193 5.88071 10 4.5 10C3.11929 10 2 11.1193 2 12.5C2 13.8807 3.11929 15 4.5 15Z" fill="#333333"/>
<path d="M3 9.5C3.55228 9.5 4 9.05228 4 8.5C4 7.94772 3.55228 7.5 3 7.5C2.44772 7.5 2 7.94772 2 8.5C2 9.05228 2.44772 9.5 3 9.5Z" fill="#333333"/>
<path d="M17 11.5L22 14.5L14.5 17" stroke="#333333" stroke-width="2" stroke-miterlimit="2" stroke-linecap="round" stroke-linejoin="round"/>
</svg>
