<svg width="24" height="24" viewBox="0 0 24 24" fill="none" xmlns="http://www.w3.org/2000/svg">
<g clip-path="url(#clip0_2_19568)">
<path d="M24 0H0V24H24V0Z" fill="white" fill-opacity="0.01"/>
<path d="M2.5 3.5C2.5 2.67158 3.17158 2 4 2H16C16.8285 2 17.5 2.67158 17.5 3.5V22H4C3.17158 22 2.5 21.3285 2.5 20.5V3.5Z" stroke="#333333" stroke-width="2" stroke-linejoin="round"/>
<path d="M17.5 12C17.5 11.4477 17.9477 11 18.5 11H20.5C21.0523 11 21.5 11.4477 21.5 12V20.5C21.5 21.3285 20.8285 22 20 22H17.5V12Z" stroke="#333333" stroke-width="2" stroke-linejoin="round"/>
<path d="M5.5 6H9.5" stroke="#333333" stroke-width="2" stroke-linecap="round" stroke-linejoin="round"/>
<path d="M5.5 9.5H11.5" stroke="#333333" stroke-width="2" stroke-linecap="round" stroke-linejoin="round"/>
</g>
<defs>
<clipPath id="clip0_2_19568">
<rect width="24" height="24" fill="white"/>
</clipPath>
</defs>
</svg>
