<svg width="24" height="24" viewBox="0 0 24 24" fill="none" xmlns="http://www.w3.org/2000/svg">
<g clip-path="url(#clip0_2_19736)">
<path d="M24 0H0V24H24V0Z" fill="white" fill-opacity="0.01"/>
<path d="M12 0C18.6274 0 24 5.3726 24 12C24 18.6274 18.6274 24 12 24C5.3726 24 0 18.6274 0 12C0 5.3726 5.3726 0 12 0ZM12 2.18182C6.57755 2.18182 2.18182 6.57755 2.18182 12C2.18182 17.4225 6.57755 21.8182 12 21.8182C17.4225 21.8182 21.8182 17.4225 21.8182 12C21.8182 6.57755 17.4225 2.18182 12 2.18182ZM9.56365 5.80885L11.3813 6.1813C11.3317 6.5311 11.2136 6.92705 11.0272 7.36915C11.6216 7.155 12.1903 6.99735 12.733 6.89585C13.9265 6.6727 14.8541 6.54545 15.7736 6.54545C16.6931 6.54545 17.4007 6.55475 18.2981 7.26305C18.8564 7.7038 19.1999 8.28355 19.3286 9.00225L19.3529 9.1584V15.4949C19.3529 15.9179 19.2402 16.3547 19.0146 16.805C18.8032 17.2273 18.3964 17.466 17.7943 17.5212L17.6712 17.5298H13.9012C13.6601 16.8252 13.6601 16.4092 13.9012 16.2819C14.2628 16.0908 15.6526 16.6032 16.263 16.2819C16.6428 16.0819 16.8361 15.7097 16.8429 15.1653L16.8416 15.0461V9.0662C16.8416 8.1397 16.2748 7.4993 14.5289 7.5945C13.5812 7.6462 12.4748 7.8815 11.2096 8.3005L11.6206 8.4255L12.1164 8.5943V8.75715C12.1164 9.0331 12.3214 9.26185 12.5886 9.29775L12.6512 9.3025L16.3002 9.37285V10.3771H13.5724V11.6267H16.3002V12.4031H13.5427L13.5724 14.8399C13.8295 14.8594 14.0831 14.8071 14.333 14.6829C14.5006 14.5997 14.6318 14.479 14.7263 14.3208L14.5444 13.9612C14.5442 13.9608 14.5441 13.9604 14.5438 13.96C14.418 13.7102 14.5024 13.4096 14.7305 13.2594L14.7857 13.2275L15.4123 12.912C15.4373 12.8995 15.463 12.8888 15.4895 12.8802C15.7557 12.794 16.0399 12.9233 16.1535 13.1716L16.1766 13.231L16.5482 14.3779C16.6218 14.6051 16.5387 14.851 16.3491 14.988L16.2947 15.0225L15.8445 15.2733C15.8382 15.2768 15.832 15.2802 15.8256 15.2833C15.576 15.4097 15.2752 15.3261 15.1245 15.0983L15.0925 15.0433L15.0857 15.0315C14.8097 15.3309 14.5484 15.5603 14.3017 15.7199C13.8933 15.984 13.4529 16.1992 12.945 16.2332L12.8048 16.2379H10.1777C9.9646 16.2379 9.57835 16.0997 9.18165 15.7199C8.93925 15.4878 8.79175 15.1258 8.73925 14.634L8.72725 14.4966V13.1258H10.8054C10.8222 13.7186 10.8776 14.1755 10.9719 14.4966C11.0598 14.7963 11.2929 14.9159 11.6711 14.8555L11.7544 14.8399V12.4031H8.72725V11.6267H11.7544V10.3771H11.1755L10.2578 11.5249L9.2587 10.8931C9.87315 10.2003 10.249 9.7518 10.3862 9.54735C10.5234 9.3429 10.5234 8.99065 10.3862 8.4907L10.4094 8.58165L10.3889 8.59005C10.035 9.12495 9.5663 9.64345 8.98285 10.1454L8.79135 10.3062L7.53825 9.06825C8.1088 8.6252 8.5265 8.21315 8.79135 7.8321C9.0562 7.45105 9.31365 6.77665 9.56365 5.80885ZM5.7159 8.894L7.50425 10.575C8.15285 11.1846 8.3634 12.1238 8.0465 12.9476L8.00215 13.0543L6.14725 17.2085L4.10346 15.7883L6.7045 13.0338C6.73925 12.997 6.7714 12.9579 6.8007 12.9166C7.13215 12.45 7.04465 11.812 6.61395 11.4502L6.5431 11.3955L4.68598 10.0764L5.7159 8.894ZM6.8182 5.45455C7.5713 5.45455 8.1818 6.06505 8.1818 6.8182C8.1818 7.5713 7.5713 8.1818 6.8182 8.1818C6.06505 8.1818 5.45455 7.5713 5.45455 6.8182C5.45455 6.06505 6.06505 5.45455 6.8182 5.45455Z" fill="#333333"/>
</g>
<defs>
<clipPath id="clip0_2_19736">
<rect width="24" height="24" fill="white"/>
</clipPath>
</defs>
</svg>
