<svg width="24" height="24" viewBox="0 0 24 24" fill="none" xmlns="http://www.w3.org/2000/svg">
<g clip-path="url(#clip0_2_20670)">
<path d="M24 0H0V24H24V0Z" fill="white" fill-opacity="0.01"/>
<path d="M10.7086 9.29102C9.6981 9.77367 9 10.8051 9 11.9996C9 13.6564 10.3432 14.9996 12 14.9996C13.1945 14.9996 14.226 14.3015 14.7086 13.291" stroke="#333333" stroke-width="2" stroke-linecap="round" stroke-linejoin="round"/>
<path d="M14.1397 5.86035C13.4696 5.6269 12.7496 5.5 12 5.5C8.41015 5.5 5.5 8.41015 5.5 12C5.5 15.5898 8.41015 18.5 12 18.5C15.5898 18.5 18.5 15.5898 18.5 12C18.5 11.2504 18.3731 10.5304 18.1397 9.86035" stroke="#333333" stroke-width="2" stroke-linecap="round" stroke-linejoin="round"/>
<path d="M16.7838 3.21627C15.3628 2.44075 13.7328 2 12 2C6.47715 2 2 6.47715 2 12C2 17.5229 6.47715 22 12 22C17.5229 22 22 17.5229 22 12C22 10.2672 21.5593 8.63725 20.7838 7.21625" stroke="#333333" stroke-width="2" stroke-linecap="round" stroke-linejoin="round"/>
<path d="M22 2L12 12" stroke="#333333" stroke-width="2" stroke-linecap="round" stroke-linejoin="round"/>
</g>
<defs>
<clipPath id="clip0_2_20670">
<rect width="24" height="24" fill="white"/>
</clipPath>
</defs>
</svg>
