<svg width="24" height="24" viewBox="0 0 24 24" fill="none" xmlns="http://www.w3.org/2000/svg">
<path d="M11.9444 19.9443C16.3644 19.9443 19.9444 16.3643 19.9444 11.9443C19.9444 7.52433 16.3644 3.94434 11.9444 3.94434C7.52435 3.94434 3.94434 7.52433 3.94434 11.9443C3.94434 16.3643 7.52435 19.9443 11.9444 19.9443Z" stroke="#333333" stroke-width="2" stroke-miterlimit="2" stroke-linejoin="round"/>
<path d="M11.9443 15.9443C14.1543 15.9443 15.9443 14.1543 15.9443 11.9443C15.9443 9.73434 14.1543 7.94434 11.9443 7.94434C9.73434 7.94434 7.94434 9.73434 7.94434 11.9443C7.94434 14.1543 9.73434 15.9443 11.9443 15.9443Z" stroke="#333333" stroke-width="2" stroke-miterlimit="2" stroke-linejoin="round"/>
<path d="M11.9443 12.9443C12.4943 12.9443 12.9443 12.4943 12.9443 11.9443C12.9443 11.3943 12.4943 10.9443 11.9443 10.9443C11.3943 10.9443 10.9443 11.3943 10.9443 11.9443C10.9443 12.4943 11.3943 12.9443 11.9443 12.9443Z" fill="#333333"/>
<path d="M11.9443 3.94434V1.94434" stroke="#333333" stroke-width="2" stroke-miterlimit="2" stroke-linecap="round" stroke-linejoin="round"/>
<path d="M18.9443 21.9443L16.9443 18.4443" stroke="#333333" stroke-width="2" stroke-miterlimit="2" stroke-linecap="round" stroke-linejoin="round"/>
<path d="M6.94435 18.4443L4.94434 21.9443" stroke="#333333" stroke-width="2" stroke-miterlimit="2" stroke-linecap="round" stroke-linejoin="round"/>
</svg>
