<svg width="24" height="24" viewBox="0 0 24 24" fill="none" xmlns="http://www.w3.org/2000/svg">
<g clip-path="url(#clip0_2_19876)">
<path d="M2 17.5V13.8548C2 12.7181 2.64243 11.6791 3.6593 11.1711L4.00026 11.0007L5.15523 7.04597C5.36628 6.14058 6.17336 5.5 7.10301 5.5H16.9472C17.8838 5.5 18.6949 6.14999 18.8991 7.06408L20.0016 11.0007L20.3417 11.1708C21.358 11.679 22 12.7178 22 13.8541V17.5C22 18.3284 21.3284 19 20.5 19H19.5016V19.5C19.5016 20.6046 18.6061 21.5 17.5016 21.5C16.3954 21.5 15.5 20.6046 15.5 19.5V19H8.5V19.5001C8.5 20.6046 7.60463 21.5 6.50013 21.5C5.39563 21.5 4.50026 20.6046 4.50026 19.5001V19H3.5C2.67157 19 2 18.3284 2 17.5Z" stroke="#333333" stroke-width="2" stroke-linejoin="round"/>
<path d="M6.75 16.5C7.44036 16.5 8 15.9404 8 15.25C8 14.5596 7.44036 14 6.75 14C6.05964 14 5.5 14.5596 5.5 15.25C5.5 15.9404 6.05964 16.5 6.75 16.5Z" fill="#333333"/>
<path d="M17.25 16.5C17.9404 16.5 18.5 15.9404 18.5 15.25C18.5 14.5596 17.9404 14 17.25 14C16.5596 14 16 14.5596 16 15.25C16 15.9404 16.5596 16.5 17.25 16.5Z" fill="#333333"/>
<path d="M24 0H0V24H24V0Z" fill="white" fill-opacity="0.01"/>
<path fill-rule="evenodd" clip-rule="evenodd" d="M9 5.5H15L14.5044 3.02205C14.4434 2.71702 14.1999 2.5 13.9187 2.5H10.0813C9.80008 2.5 9.5566 2.71702 9.49559 3.02205L9 5.5Z" stroke="#333333" stroke-width="2" stroke-linecap="round" stroke-linejoin="round"/>
<path d="M7.5 11.5H16.5" stroke="#333333" stroke-width="2" stroke-linecap="round" stroke-linejoin="round"/>
</g>
<defs>
<clipPath id="clip0_2_19876">
<rect width="24" height="24" fill="white"/>
</clipPath>
</defs>
</svg>
