<svg width="24" height="24" viewBox="0 0 24 24" fill="none" xmlns="http://www.w3.org/2000/svg">
<g clip-path="url(#clip0_2_20834)">
<path d="M24 0H0V24H24V0Z" fill="white" fill-opacity="0.01"/>
<path fill-rule="evenodd" clip-rule="evenodd" d="M6.5586 2.5H7.0013C9.33435 2.84495 9.96705 4.16913 12.0002 4.16913C14.0332 4.16913 14.6657 2.84503 16.9989 2.5H17.2502C19.8735 2.5 22.0002 4.62665 22.0002 7.25V7.56295C22.0002 9.01435 20.4546 10.6717 20.0002 12.2415C19.5175 13.9087 19.1869 15.2712 19.0898 16.6971C18.8624 20.0375 17.7235 21.5 16.5002 21.5C14.6733 21.5 13.0509 14.0126 12.0314 14.0126C11.0119 14.0126 8.9888 21.5 7.50015 21.5C6.5916 21.5 5.41465 20.9627 4.97277 16.6971C4.79696 15 4.50061 13.9704 4.00014 12.2415C3.56025 10.7219 2.076 8.90555 2.00014 7.27555C1.88299 4.75796 3.82891 2.6221 6.3465 2.50494C6.41715 2.50166 6.48785 2.50001 6.5586 2.5Z" stroke="#333333" stroke-width="2"/>
<path d="M7.74121 6.23145L16.0003 8.8941" stroke="#333333" stroke-width="2" stroke-linecap="round"/>
<path d="M7.74121 8.89415L16.0003 6.23145" stroke="#333333" stroke-width="2" stroke-linecap="round"/>
</g>
<defs>
<clipPath id="clip0_2_20834">
<rect width="24" height="24" fill="white"/>
</clipPath>
</defs>
</svg>
