<svg width="24" height="24" viewBox="0 0 24 24" fill="none" xmlns="http://www.w3.org/2000/svg">
<path d="M9 5.5C9 3.84315 7.65685 2.5 6 2.5C4.34315 2.5 3 3.84315 3 5.5V18.5C3 20.1569 4.34315 21.5 6 21.5C7.65685 21.5 9 20.1569 9 18.5V5.5Z" stroke="#333333" stroke-width="2" stroke-linejoin="round"/>
<path d="M21 5.5C21 3.84315 19.6569 2.5 18 2.5C16.3431 2.5 15 3.84315 15 5.5V18.5C15 20.1569 16.3431 21.5 18 21.5C19.6569 21.5 21 20.1569 21 18.5V5.5Z" stroke="#333333" stroke-width="2" stroke-linejoin="round"/>
<path d="M6 21.5C7.65685 21.5 9 20.1568 9 18.5C9 16.8432 7.65685 15.5 6 15.5C4.34315 15.5 3 16.8432 3 18.5C3 20.1568 4.34315 21.5 6 21.5Z" stroke="#333333" stroke-width="2" stroke-linejoin="round"/>
<path d="M18 21.5C19.6568 21.5 21 20.1568 21 18.5C21 16.8432 19.6568 15.5 18 15.5C16.3432 15.5 15 16.8432 15 18.5C15 20.1568 16.3432 21.5 18 21.5Z" stroke="#333333" stroke-width="2" stroke-linejoin="round"/>
<path d="M15 10.5C15 8.84315 13.6568 7.5 12 7.5C10.3432 7.5 9 8.84315 9 10.5" stroke="#333333" stroke-width="2" stroke-linecap="round" stroke-linejoin="round"/>
<path d="M15 15.5C15 13.8432 13.6568 12.5 12 12.5C10.3432 12.5 9 13.8432 9 15.5" stroke="#333333" stroke-width="2" stroke-linecap="round" stroke-linejoin="round"/>
</svg>
