<svg width="24" height="24" viewBox="0 0 24 24" fill="none" xmlns="http://www.w3.org/2000/svg">
<path d="M11.8968 22.259C10.0677 22.259 8.3886 21.6468 7.3076 20.7324C6.75855 20.8965 6.05625 21.1603 5.61315 21.4877C5.2337 21.7676 5.28115 22.0531 5.34945 22.1682C5.6495 22.6747 10.4973 22.4916 11.8968 22.334V22.259ZM11.8968 22.259C13.7262 22.259 15.4052 21.6468 16.4864 20.7324C17.0351 20.8965 17.7375 21.1603 18.1808 21.4877C18.5599 21.7676 18.5127 22.0531 18.4442 22.1682C18.1442 22.6747 13.2964 22.4916 11.8968 22.334V22.259Z" fill="#333333"/>
<path d="M11.9072 11.2957C14.928 11.2753 17.3489 10.6904 18.1693 10.4663C18.3648 10.4128 18.4693 10.3168 18.4693 10.3168C18.4701 10.2892 18.4817 9.825 18.4817 9.58565C18.4817 5.5526 16.578 1.50014 11.8961 1.5C7.2142 1.50014 5.31035 5.55275 5.31035 9.5855C5.31035 9.82515 5.322 10.2893 5.3229 10.3167C5.3229 10.3167 5.408 10.4065 5.5637 10.45C6.32115 10.6607 8.78765 11.2746 11.8849 11.2957H11.9072ZM20.1159 14.6553C19.9286 14.0527 19.6731 13.35 19.4142 12.6752C19.4142 12.6752 19.2653 12.6568 19.1899 12.6785C16.8674 13.3532 14.0523 13.7833 11.9072 13.7573H11.8849C9.75175 13.7829 6.95575 13.3579 4.64103 12.6897C4.55259 12.6642 4.37804 12.6752 4.37804 12.6752C4.11913 13.35 3.86358 14.0529 3.67634 14.6553C2.7833 17.529 3.07271 18.7182 3.29294 18.7447C3.76565 18.8019 5.13275 16.5817 5.13275 16.5817C5.13275 18.8378 7.1697 22.302 11.8342 22.3339H11.958C16.6224 22.302 18.6593 18.8378 18.6593 16.5817C18.6593 16.5817 20.0266 18.802 20.4993 18.7449C20.7194 18.7182 21.0088 17.5289 20.1159 14.6553Z" fill="#333333"/>
<path d="M10.2303 7.45764C9.59512 7.48639 9.05247 6.76294 9.01832 5.84304C8.98392 4.92287 9.47047 4.15359 10.1056 4.12484C10.7401 4.09638 11.2825 4.81954 11.317 5.73974C11.3517 6.66004 10.865 7.42934 10.2303 7.45764ZM14.774 5.84304C14.74 6.76279 14.1974 7.48639 13.5622 7.45764C12.9273 7.42919 12.4408 6.66004 12.4755 5.73989C12.5099 4.81968 13.0523 4.09653 13.6868 4.12484C14.322 4.15359 14.8086 4.92287 14.774 5.84304Z" fill="#333333"/>
<path d="M15.9025 8.75759C15.7329 8.38179 14.0235 7.96289 11.9074 7.96289H11.8846C9.7684 7.96289 8.0591 8.38179 7.88935 8.75774C7.88135 8.77444 7.8771 8.79274 7.87695 8.81129C7.87725 8.83724 7.8854 8.86244 7.9003 8.88369C8.04335 9.09194 9.94135 10.1223 11.8846 10.1223H11.9074C13.8505 10.1223 15.7485 9.09224 15.8916 8.88369C15.9066 8.86239 15.9147 8.83704 15.9149 8.81099C15.9148 8.79254 15.9105 8.77434 15.9025 8.75774" fill="#333333"/>
<path d="M11.0109 5.85711C11.0399 6.22051 10.8406 6.54336 10.5663 6.57851C10.2915 6.61386 10.0456 6.34791 10.0164 5.98451C9.98768 5.62081 10.1867 5.29801 10.4605 5.26296C10.7358 5.22736 10.9821 5.49356 11.0109 5.85696V5.85711ZM12.7558 5.97856C12.812 5.87796 13.1942 5.34921 13.9857 5.54171C14.1937 5.59236 14.2898 5.66681 14.3101 5.69601C14.34 5.73921 14.3484 5.80076 14.3179 5.88366C14.2577 6.04801 14.1335 6.04351 14.0648 6.01136C14.0203 5.99066 13.469 5.62316 12.9611 6.17146C12.9261 6.20901 12.8637 6.22196 12.8045 6.17731C12.7451 6.13236 12.7208 6.04161 12.7558 5.97856Z" fill="#333333"/>
<path d="M11.9069 13.6249H11.8845C10.4257 13.6424 8.65681 13.4492 6.94371 13.1115C6.79716 13.9606 6.70871 15.028 6.78461 16.3008C6.97666 19.5179 8.88726 21.5403 11.8364 21.5695H11.9561C14.9053 21.5403 16.8157 19.5179 17.0081 16.3008C17.084 15.0278 16.9954 13.9606 16.8487 13.1113C15.1355 13.4492 13.3662 13.6426 11.907 13.6248" fill="#333333"/>
<path d="M7.75195 13.3555V16.5215C7.75195 16.5215 9.2022 16.8139 10.6553 16.6114V13.6911C9.73475 13.639 8.74205 13.523 7.75195 13.3555Z" fill="#333333"/>
<path d="M18.4692 10.3164C18.4692 10.3164 15.6481 11.207 11.9071 11.2322H11.8847C8.1499 11.2071 5.3324 10.3193 5.3228 10.3164L4.37793 12.6746C6.7412 13.3871 9.67005 13.8462 11.8847 13.8195H11.9071C14.1218 13.8462 17.0505 13.3871 19.4141 12.6746L18.4692 10.3164Z" fill="#333333"/>
</svg>
