<svg width="24" height="24" viewBox="0 0 24 24" fill="none" xmlns="http://www.w3.org/2000/svg">
<path d="M20 8.19885V3C20 2.44771 19.5523 2 19 2H5C4.44771 2 4 2.44771 4 3V21C4 21.5523 4.44771 22 5 22H10" stroke="#333333" stroke-width="2" stroke-linecap="round" stroke-linejoin="round"/>
<path d="M8 7H14.5" stroke="#333333" stroke-width="2" stroke-linecap="round"/>
<path d="M8 10.5H10.5" stroke="#333333" stroke-width="2" stroke-linecap="round"/>
<path d="M17 22C14.2386 22 12 19.7614 12 17C12 14.2386 14.2386 12 17 12C19.7614 12 22 14.2386 22 17C22 19.7614 19.7614 22 17 22Z" stroke="#333333" stroke-width="2" stroke-linecap="round" stroke-linejoin="round"/>
<path d="M13.5 13.5L20.5 20.5" stroke="#333333" stroke-width="2" stroke-linecap="round"/>
<path d="M12 17C12 14.2386 14.2386 12 17 12" stroke="#333333" stroke-width="2" stroke-linecap="round" stroke-linejoin="round"/>
<path d="M17 22C19.7614 22 22 19.7614 22 17" stroke="#333333" stroke-width="2" stroke-linecap="round" stroke-linejoin="round"/>
</svg>
