<svg width="24" height="24" viewBox="0 0 24 24" fill="none" xmlns="http://www.w3.org/2000/svg">
<g clip-path="url(#clip0_2_19544)">
<path d="M24 0H0V24H24V0Z" fill="white" fill-opacity="0.01"/>
<path d="M19 10.5L21.5 15L19 15.5V18.5H17.5L14.5 18L14 21.5H6.5L5.5 16.3095C3.96038 14.8514 3 12.7878 3 10.5C3 6.0817 6.5817 2.5 11 2.5C15.4183 2.5 19 6.0817 19 10.5Z" stroke="#333333" stroke-width="2" stroke-linecap="round" stroke-linejoin="round"/>
<path d="M8.5 9.5C8.5 8.1193 9.6193 7 11 7C12.3807 7 13.5 8.1193 13.5 9.5C13.5 10.8807 12.3807 12 11 12V13.5" stroke="#333333" stroke-width="2" stroke-linecap="round" stroke-linejoin="round"/>
<path d="M11 16.5V17" stroke="#333333" stroke-width="2" stroke-linecap="round" stroke-linejoin="round"/>
</g>
<defs>
<clipPath id="clip0_2_19544">
<rect width="24" height="24" fill="white"/>
</clipPath>
</defs>
</svg>
