<svg width="24" height="24" viewBox="0 0 24 24" fill="none" xmlns="http://www.w3.org/2000/svg">
<path d="M16.5 12.5H7.5C6.705 12.5 5.615 12.385 5 12C3.175 10.845 2.83002 8.315 4.00002 6.5L7.00005 2C8.96505 6.215 15.02 6.21 17 2L20 6.5C21.17 8.315 20.82 10.845 19 12C18.385 12.39 17.295 12.5 16.5 12.5Z" stroke="#333333" stroke-width="2" stroke-miterlimit="2" stroke-linecap="round" stroke-linejoin="round"/>
<path d="M6 12.5L7.26 17.275C7.695 18.965 7.23 20.76 6 22" stroke="#333333" stroke-width="2" stroke-miterlimit="2" stroke-linecap="round" stroke-linejoin="round"/>
<path d="M18 12.5L16.7401 17.29C16.3051 18.98 16.77 20.76 18 22" stroke="#333333" stroke-width="2" stroke-miterlimit="2" stroke-linecap="round" stroke-linejoin="round"/>
<path d="M12 21V20" stroke="#333333" stroke-width="2" stroke-miterlimit="2" stroke-linecap="round" stroke-linejoin="round"/>
</svg>
