<svg width="24" height="24" viewBox="0 0 24 24" fill="none" xmlns="http://www.w3.org/2000/svg">
<path d="M5.50003 20.0001L3.39615 15.4417C2.88023 14.3239 3.25493 12.9969 4.27929 12.3139L5.23143 11.6792C5.39493 11.5702 5.60713 11.5671 5.77378 11.6712L6.00003 11.8126L5.06458 4.97226C5.02323 4.66978 5.10278 4.36317 5.28593 4.11893C5.54223 3.77718 6.02708 3.70792 6.36883 3.96423L6.43538 4.01415C6.64043 4.16796 6.79483 4.37958 6.87868 4.62182L8.93453 10.561C8.97373 10.6742 9.08038 10.7501 9.20018 10.7501C9.36258 10.7501 9.49118 10.613 9.48073 10.4509L9.03928 3.60879C9.01433 3.2219 9.15718 2.84301 9.43128 2.56887C9.75508 2.24509 10.2705 2.21655 10.6281 2.50259L10.7983 2.63878C11.089 2.87134 11.2829 3.2037 11.3421 3.57123L12.4615 10.5112C12.4837 10.6489 12.6026 10.7501 12.742 10.7501C12.8884 10.7501 13.0108 10.639 13.0249 10.4933L13.689 3.63102C13.728 3.2277 13.9285 2.85733 14.245 2.6042L14.3482 2.52161C14.7193 2.22474 15.2542 2.25436 15.5903 2.5904C15.8526 2.85275 16 3.20858 16 3.57961V9.95579C16 9.98529 16.0025 10.0143 16.0088 10.0431C16.0646 10.3002 16.4037 11.6347 17.5 12.0001C17.9537 12.1514 18.6819 13.4005 19.1865 14.3638C19.5565 15.0704 19.521 15.9123 19.1337 16.6096L17.25 20.0001C17.25 20.0001 15.5 22.0001 11.5 22.0001C7.50003 22.0001 5.83338 20.6668 5.50003 20.0001Z" stroke="#333333" stroke-width="2" stroke-linecap="round" stroke-linejoin="round"/>
</svg>
