<svg width="24" height="24" viewBox="0 0 24 24" fill="none" xmlns="http://www.w3.org/2000/svg">
<g clip-path="url(#clip0_2_21394)">
<path d="M24 0H0V24H24V0Z" fill="white" fill-opacity="0.01"/>
<path d="M9.80005 17.25H14.2" stroke="#333333" stroke-width="2" stroke-linecap="round"/>
<path d="M1.15149 13.6954L4.97904 4.7809L7.47466 3.5" stroke="#333333" stroke-width="2" stroke-linecap="round" stroke-linejoin="round"/>
<path d="M22.9024 13.8167L19.0251 4.7809L16.5294 3.5" stroke="#333333" stroke-width="2" stroke-linecap="round" stroke-linejoin="round"/>
<path fill-rule="evenodd" clip-rule="evenodd" d="M1.70031 13.3994H9.35848C9.71583 13.3994 10.0055 13.6891 10.0055 14.0465C10.0055 14.0635 10.0049 14.0806 10.0035 14.0976L9.53983 19.9534C9.51318 20.2899 9.23233 20.5494 8.89478 20.5494H2.16401C1.82646 20.5494 1.54562 20.2899 1.51897 19.9534L1.05527 14.0976C1.02706 13.7413 1.29299 13.4297 1.64923 13.4014C1.66623 13.4001 1.68327 13.3994 1.70031 13.3994Z" stroke="#333333" stroke-width="2"/>
<path fill-rule="evenodd" clip-rule="evenodd" d="M14.6415 13.3994H22.2997C22.657 13.3994 22.9467 13.6891 22.9467 14.0465C22.9467 14.0635 22.946 14.0806 22.9447 14.0976L22.481 19.9534C22.4544 20.2899 22.1735 20.5494 21.836 20.5494H15.1052C14.7676 20.5494 14.4868 20.2899 14.4601 19.9534L13.9964 14.0976C13.9682 13.7413 14.2342 13.4297 14.5904 13.4014C14.6074 13.4001 14.6244 13.3994 14.6415 13.3994Z" stroke="#333333" stroke-width="2"/>
</g>
<defs>
<clipPath id="clip0_2_21394">
<rect width="24" height="24" fill="white"/>
</clipPath>
</defs>
</svg>
