<svg width="24" height="24" viewBox="0 0 24 24" fill="none" xmlns="http://www.w3.org/2000/svg">
<path d="M12.8723 22H12.4248C9.8196 22 7.38985 20.6871 5.96215 18.508L4.86442 16.8326C4.08536 15.6435 4.31539 14.06 5.4006 13.1418L6.54435 12.1741C6.6748 12.0637 6.75 11.9014 6.75 11.7305V3.625C6.75 2.72754 7.47755 2 8.375 2C9.27245 2 10 2.72754 10 3.625V3.125C10 2.22754 10.7276 1.5 11.625 1.5C12.5225 1.5 13.25 2.22754 13.25 3.125V3.625C13.25 2.72754 13.9776 2 14.875 2C15.7725 2 16.5 2.72754 16.5 3.625V10.875C16.5 9.97755 17.2276 9.25 18.125 9.25C19.0225 9.25 19.75 9.97755 19.75 10.875V15.9844C19.75 16.8088 19.5009 17.6141 19.0354 18.2945L18.5485 19.006C17.2666 20.8797 15.1426 22 12.8723 22Z" stroke="#333333" stroke-width="2" stroke-linecap="round" stroke-linejoin="round"/>
</svg>
