<svg width="24" height="24" viewBox="0 0 24 24" fill="none" xmlns="http://www.w3.org/2000/svg">
<g clip-path="url(#clip0_2_20820)">
<path d="M24 0H0V24H24V0Z" fill="white" fill-opacity="0.01"/>
<path d="M24 0H0V24H24V0Z" fill="white" fill-opacity="0.01"/>
<path d="M13.8 9.3V5.7C13.8 4.20883 12.5912 3 11.1 3L7.5 11.1V21H17.958C18.8556 21.0102 19.6234 20.3574 19.758 19.47L21 11.37C21.0793 10.8478 20.9252 10.3173 20.5786 9.91875C20.2321 9.52025 19.7281 9.294 19.2 9.3H13.8Z" stroke="#333333" stroke-width="2" stroke-linejoin="round"/>
<path d="M7.5 11.0003H5.097C4.04266 10.9816 3.14135 11.855 3 12.9V19.2C3.14135 20.245 4.04266 21.0186 5.097 21H7.5V11.0003Z" stroke="#333333" stroke-width="2" stroke-linejoin="round"/>
</g>
<defs>
<clipPath id="clip0_2_20820">
<rect width="24" height="24" fill="white"/>
</clipPath>
</defs>
</svg>
