<svg width="24" height="24" viewBox="0 0 24 24" fill="none" xmlns="http://www.w3.org/2000/svg">
<path d="M2 13C2 12.4477 2.44771 12 3 12H21C21.5523 12 22 12.4477 22 13V15.6802C22 16.1569 21.6584 16.5706 21.2401 16.7992C20.6466 17.1236 19.8781 17.7702 19.6033 19.0068C19.4835 19.5459 19.0523 20 18.5 20H5.5C4.94771 20 4.51654 19.5459 4.39674 19.0068C4.12197 17.7702 3.35339 17.1236 2.75992 16.7992C2.34163 16.5706 2 16.1569 2 15.6802V13Z" stroke="#333333" stroke-width="2" stroke-linecap="round" stroke-linejoin="round"/>
<path d="M7 15.5H17" stroke="#333333" stroke-width="2" stroke-linecap="round" stroke-linejoin="round"/>
<path d="M12.5 2L9.5 5.5H14.5L11.5 9" stroke="#333333" stroke-width="2" stroke-linecap="round" stroke-linejoin="round"/>
</svg>
