<svg width="24" height="24" viewBox="0 0 24 24" fill="none" xmlns="http://www.w3.org/2000/svg">
<path d="M2.5 9L2.5 20C2.5 20.5523 2.94772 21 3.5 21H20.5C21.0523 21 21.5 20.5523 21.5 20V9C21.5 8.44771 21.0523 8 20.5 8L3.5 8C2.94772 8 2.5 8.44771 2.5 9Z" stroke="#333333" stroke-width="2" stroke-linejoin="round"/>
<path d="M4.5 8L16 2.5L18.5 8" stroke="#333333" stroke-width="2" stroke-linecap="round" stroke-linejoin="round"/>
<path d="M6.5 12.5C7.05228 12.5 7.5 12.0523 7.5 11.5C7.5 10.9477 7.05228 10.5 6.5 10.5C5.94772 10.5 5.5 10.9477 5.5 11.5C5.5 12.0523 5.94772 12.5 6.5 12.5Z" fill="#333333"/>
<path d="M6.5 15.5C7.05228 15.5 7.5 15.0523 7.5 14.5C7.5 13.9477 7.05228 13.5 6.5 13.5C5.94772 13.5 5.5 13.9477 5.5 14.5C5.5 15.0523 5.94772 15.5 6.5 15.5Z" fill="#333333"/>
<path d="M6.5 18.5C7.05228 18.5 7.5 18.0523 7.5 17.5C7.5 16.9477 7.05228 16.5 6.5 16.5C5.94772 16.5 5.5 16.9477 5.5 17.5C5.5 18.0523 5.94772 18.5 6.5 18.5Z" fill="#333333"/>
<path d="M10.5 17.5H12.5L18 11.5" stroke="#333333" stroke-width="2" stroke-linecap="round" stroke-linejoin="round"/>
<path d="M12 14.5H15" stroke="#333333" stroke-width="2" stroke-linecap="round" stroke-linejoin="round"/>
</svg>
