<svg width="24" height="24" viewBox="0 0 24 24" fill="none" xmlns="http://www.w3.org/2000/svg">
<g clip-path="url(#clip0_2_19535)">
<path d="M24 0H0V24H24V0Z" fill="white" fill-opacity="0.01"/>
<path d="M10.6791 9.57034C7.7348 9.42829 5.6882 10.478 4.53931 12.7196C2.81597 16.0819 4.24025 21.5836 9.98955 21.5836C15.7388 21.5836 15.9052 16.0281 15.9052 15.4461C15.9052 15.058 15.9052 12.8886 15.9052 8.93764C17.1349 9.71654 18.1716 10.1854 19.0155 10.3442C19.8594 10.503 20.3959 10.5734 20.625 10.5554V7.31749C19.8444 7.22339 19.1694 7.04404 18.6 6.77944C17.7458 6.38249 16.052 5.28094 16.052 3.66641C16.0532 3.6743 16.0532 3.25783 16.052 2.41699H12.493C12.4824 10.325 12.4824 14.668 12.493 15.4461C12.5089 16.6131 11.6035 18.2456 9.7679 18.2456C7.93225 18.2456 7.0269 16.6144 7.0269 15.5623C7.0269 14.9182 7.2481 13.9846 8.16265 13.2932C8.705 12.8833 9.45775 12.7196 10.6791 12.7196C10.6791 12.3418 10.6791 11.292 10.6791 9.57034Z" stroke="#333333" stroke-width="2" stroke-linejoin="round"/>
</g>
<defs>
<clipPath id="clip0_2_19535">
<rect width="24" height="24" fill="white"/>
</clipPath>
</defs>
</svg>
