<svg width="24" height="24" viewBox="0 0 24 24" fill="none" xmlns="http://www.w3.org/2000/svg">
<g clip-path="url(#clip0_2_19945)">
<path d="M24 0H0V24H24V0Z" fill="white" fill-opacity="0.01"/>
<path d="M24 0H0V24H24V0Z" fill="white" fill-opacity="0.01"/>
<path d="M6.5 6C6.5 7.10455 7.39545 8 8.5 8C9.60455 8 10.5 7.10455 10.5 6C10.5 4.89543 9.60455 4 8.5 4C7.39545 4 6.5 4.89543 6.5 6Z" stroke="#333333" stroke-width="2" stroke-linejoin="round"/>
<path d="M15.5 12C15.5 13.1046 16.3954 14 17.5 14C18.6046 14 19.5 13.1046 19.5 12C19.5 10.8954 18.6046 10 17.5 10C16.3954 10 15.5 10.8954 15.5 12Z" stroke="#333333" stroke-width="2" stroke-linejoin="round"/>
<path d="M6.5 18C6.5 19.1046 7.39545 20 8.5 20C9.60455 20 10.5 19.1046 10.5 18C10.5 16.8954 9.60455 16 8.5 16C7.39545 16 6.5 16.8954 6.5 18Z" stroke="#333333" stroke-width="2" stroke-linejoin="round"/>
<path d="M2 18H6.5" stroke="#333333" stroke-width="2" stroke-linecap="round"/>
<path d="M10.5 18H22" stroke="#333333" stroke-width="2" stroke-linecap="round"/>
<path d="M2 6H6.5" stroke="#333333" stroke-width="2" stroke-linecap="round"/>
<path d="M10.5 6H22" stroke="#333333" stroke-width="2" stroke-linecap="round"/>
<path d="M2 2V22" stroke="#333333" stroke-width="2" stroke-linecap="round" stroke-linejoin="round"/>
<path d="M2 12H15.5" stroke="#333333" stroke-width="2" stroke-linecap="round"/>
<path d="M19.5 12H22" stroke="#333333" stroke-width="2" stroke-linecap="round"/>
</g>
<defs>
<clipPath id="clip0_2_19945">
<rect width="24" height="24" fill="white"/>
</clipPath>
</defs>
</svg>
