<svg width="24" height="24" viewBox="0 0 24 24" fill="none" xmlns="http://www.w3.org/2000/svg">
<path d="M2 2C2 2 5 5 12 5C19 5 22 2 22 2" stroke="#333333" stroke-width="2" stroke-linecap="round" stroke-linejoin="round"/>
<path d="M12 5V8" stroke="#333333" stroke-width="2" stroke-linecap="round" stroke-linejoin="round"/>
<path d="M15 22C17.2091 22 19 18.866 19 15C19 11.134 17.2091 8 15 8C12.7909 8 11 11.134 11 15C11 18.866 12.7909 22 15 22Z" stroke="#333333" stroke-width="2" stroke-linecap="round" stroke-linejoin="round"/>
<path d="M15 18C15.8284 18 16.5 16.6569 16.5 15C16.5 13.3431 15.8284 12 15 12C14.1716 12 13.5 13.3431 13.5 15C13.5 16.6569 14.1716 18 15 18Z" stroke="#333333" stroke-width="2" stroke-linecap="round" stroke-linejoin="round"/>
<path d="M9 22C6.79085 22 5 18.866 5 15C5 11.134 6.79085 8 9 8" stroke="#333333" stroke-width="2" stroke-linecap="round" stroke-linejoin="round"/>
<path d="M15 8H9" stroke="#333333" stroke-width="2" stroke-linecap="round" stroke-linejoin="round"/>
<path d="M15 22H9" stroke="#333333" stroke-width="2" stroke-linecap="round" stroke-linejoin="round"/>
<path d="M11 14.5H5" stroke="#333333" stroke-width="2" stroke-linecap="round" stroke-linejoin="round"/>
<path d="M11.5 11H6" stroke="#333333" stroke-width="2" stroke-linecap="round" stroke-linejoin="round"/>
<path d="M11.5 18.5H6" stroke="#333333" stroke-width="2" stroke-linecap="round" stroke-linejoin="round"/>
</svg>
