<svg width="24" height="24" viewBox="0 0 24 24" fill="none" xmlns="http://www.w3.org/2000/svg">
<g clip-path="url(#clip0_2_21084)">
<path d="M24 0H0V24H24V0Z" fill="white" fill-opacity="0.01"/>
<path d="M9.99939 5H13.9994V11H9.99939V5Z" stroke="#333333" stroke-width="2" stroke-linecap="round" stroke-linejoin="round"/>
<path d="M8.49994 17.5L5.99994 22H5.99939H17.9994L15.4999 17.5" stroke="#333333" stroke-width="2" stroke-linecap="round" stroke-linejoin="round"/>
<path d="M16.9994 11V2.5C16.9994 2.22386 16.7755 2 16.4994 2H7.49939C7.22324 2 6.99939 2.22386 6.99939 2.5V11" stroke="#333333" stroke-width="2" stroke-linecap="round" stroke-linejoin="round"/>
<path d="M3.03988 11.182C3.01912 11.0886 3.0902 11 3.18588 11H20.8129C20.9086 11 20.9797 11.0886 20.959 11.182C20.347 13.9361 18.6417 16.4079 15.9592 17.282C14.7173 17.6867 13.3274 18 12 18C10.6724 18 9.28203 17.6867 8.03973 17.2819C5.35733 16.4077 3.65189 13.9361 3.03988 11.182Z" stroke="#333333" stroke-width="2"/>
</g>
<defs>
<clipPath id="clip0_2_21084">
<rect width="24" height="24" fill="white"/>
</clipPath>
</defs>
</svg>
