<svg width="24" height="24" viewBox="0 0 24 24" fill="none" xmlns="http://www.w3.org/2000/svg">
<path d="M12 22.0001C17.5229 22.0001 22 18.3064 22 13.7501C22 10.5291 19.7626 7.85079 16.5 6.49219L14.75 7.25009L15 10.0001L11.75 9.00009L8.5 10.0001V7.25009L7 6.49219C4.01099 7.91864 2 10.6964 2 13.7501C2 18.3064 6.47715 22.0001 12 22.0001Z" stroke="#333333" stroke-width="2" stroke-linecap="round" stroke-linejoin="round"/>
<path d="M11.75 2L13.6544 4.55836L18 4.95492L14.8314 7.24165L15.75 10.5L11.75 9L7.75 10.5L8.66855 7.24165L5.5 4.95492L9.84555 4.55836L11.75 2Z" stroke="#333333" stroke-width="2" stroke-linecap="round" stroke-linejoin="round"/>
</svg>
