<svg width="24" height="24" viewBox="0 0 24 24" fill="none" xmlns="http://www.w3.org/2000/svg">
<g clip-path="url(#clip0_2_21328)">
<path d="M24 0H0V24H24V0Z" fill="white" fill-opacity="0.01"/>
<path d="M22 8C22 11.3137 19.3137 14 16 14C14.9866 14 14.032 13.7487 13.1948 13.3052L4.5 22L2 19.5L10.6948 10.8052C10.2513 9.96805 10 9.01335 10 8C10 4.68629 12.6863 2 16 2C17.0134 2 17.9681 2.25122 18.8052 2.69479L15 6.5L17.5 9L21.3052 5.1948C21.7488 6.03195 22 6.98665 22 8Z" stroke="#333333" stroke-width="2" stroke-linecap="round" stroke-linejoin="round"/>
</g>
<defs>
<clipPath id="clip0_2_21328">
<rect width="24" height="24" fill="white"/>
</clipPath>
</defs>
</svg>
