<svg width="24" height="24" viewBox="0 0 24 24" fill="none" xmlns="http://www.w3.org/2000/svg">
<g clip-path="url(#clip0_2_19525)">
<path d="M24 0H0V24H24V0Z" fill="white" fill-opacity="0.01"/>
<path d="M9.45235 9.08401L5.16245 8.17216C4.88364 8.11291 4.70566 7.83881 4.76492 7.56001L5.7307 3.01635C5.78995 2.73753 6.06405 2.55954 6.34285 2.61881L20.9835 5.73076C21.2624 5.79006 21.4404 6.06411 21.3811 6.34291L20.4153 10.8866C20.356 11.1654 20.082 11.3434 19.8031 11.2841L15.55 10.3801C15.3563 10.3389 15.2415 10.403 15.2055 10.5724C14.7644 12.6475 14.1028 15.7602 13.2206 19.9105C13.1614 20.1893 12.8873 20.3673 12.6085 20.3081L8.0648 19.3423C7.78595 19.283 7.60795 19.0089 7.66725 18.7301C8.54965 14.5787 9.21145 11.4651 9.65265 9.38941C9.6883 9.22176 9.62155 9.11996 9.45235 9.08401Z" stroke="#333333" stroke-width="2" stroke-linejoin="round"/>
</g>
<defs>
<clipPath id="clip0_2_19525">
<rect width="24" height="24" fill="white"/>
</clipPath>
</defs>
</svg>
