<svg width="24" height="24" viewBox="0 0 24 24" fill="none" xmlns="http://www.w3.org/2000/svg">
<g clip-path="url(#clip0_2_19523)">
<path d="M24 0H0V24H24V0Z" fill="white" fill-opacity="0.01"/>
<path d="M12 22C17.5229 22 22 17.5229 22 12C22 6.47715 17.5229 2 12 2C6.47715 2 2 6.47715 2 12C2 13.3558 2.26983 14.6487 2.75873 15.8277C3.01116 16.4364 3.32198 17.0149 3.68422 17.556C3.80579 17.7376 3.57771 18.8856 3 21C5.11445 20.4223 6.26245 20.1942 6.44405 20.3158C6.98515 20.678 7.56355 20.9888 8.1723 21.2412C9.3513 21.7301 10.6442 22 12 22Z" stroke="#333333" stroke-width="2" stroke-linejoin="round"/>
<path d="M8.30212 9.91016H16.6918" stroke="#333333" stroke-width="2" stroke-linecap="round" stroke-linejoin="round"/>
<path d="M10.9233 7.86914L9.46643 16.1313" stroke="#333333" stroke-width="2" stroke-linecap="round" stroke-linejoin="round"/>
<path d="M14.4233 7.86914L12.9664 16.1313" stroke="#333333" stroke-width="2" stroke-linecap="round" stroke-linejoin="round"/>
<path d="M7.30212 14H15.6918" stroke="#333333" stroke-width="2" stroke-linecap="round" stroke-linejoin="round"/>
</g>
<defs>
<clipPath id="clip0_2_19523">
<rect width="24" height="24" fill="white"/>
</clipPath>
</defs>
</svg>
