<svg width="24" height="24" viewBox="0 0 24 24" fill="none" xmlns="http://www.w3.org/2000/svg">
<path d="M4.5 11.5H19.5V17C19.5 17.5523 19.0523 18 18.5 18H5.5C4.94771 18 4.5 17.5523 4.5 17V11.5Z" stroke="#333333" stroke-width="2" stroke-linejoin="round"/>
<path d="M4.5 4C4.5 3.44771 4.94771 3 5.5 3H18.5C19.0523 3 19.5 3.44771 19.5 4V11.5H4.5V4Z" stroke="#333333" stroke-width="2" stroke-linejoin="round"/>
<path d="M7.5 21C6.67155 21 6 20.3285 6 19.5V18H9V19.5C9 20.3285 8.32845 21 7.5 21Z" stroke="#333333" stroke-width="2" stroke-linecap="round" stroke-linejoin="round"/>
<path d="M16.5 21C15.6715 21 15 20.3285 15 19.5V18H18V19.5C18 20.3285 17.3285 21 16.5 21Z" stroke="#333333" stroke-width="2" stroke-linecap="round" stroke-linejoin="round"/>
<path d="M3 6V8" stroke="#333333" stroke-width="2" stroke-linecap="round"/>
<path d="M21 6V8" stroke="#333333" stroke-width="2" stroke-linecap="round"/>
<path d="M7.5 16C8.05228 16 8.5 15.5523 8.5 15C8.5 14.4477 8.05228 14 7.5 14C6.94772 14 6.5 14.4477 6.5 15C6.5 15.5523 6.94772 16 7.5 16Z" fill="#333333"/>
<path d="M16.5 16C17.0523 16 17.5 15.5523 17.5 15C17.5 14.4477 17.0523 14 16.5 14C15.9477 14 15.5 14.4477 15.5 15C15.5 15.5523 15.9477 16 16.5 16Z" fill="#333333"/>
<path d="M15.5 3L11 8" stroke="#333333" stroke-width="2" stroke-linecap="round"/>
<path d="M19 3.5L16.5 6.5" stroke="#333333" stroke-width="2" stroke-linecap="round"/>
</svg>
