<svg width="24" height="24" viewBox="0 0 24 24" fill="none" xmlns="http://www.w3.org/2000/svg">
<path d="M2 22H22" stroke="#333333" stroke-width="2" stroke-linecap="round" stroke-linejoin="round"/>
<path d="M10.6247 3.7373L18.3521 5.80783L14 22H5.5L10.6247 3.7373Z" stroke="#333333" stroke-width="2" stroke-linejoin="round"/>
<path d="M9.65869 3.47852L19.3179 6.06672" stroke="#333333" stroke-width="2" stroke-linecap="round" stroke-linejoin="round"/>
<path d="M8.10571 9.27344L17.765 11.8616" stroke="#333333" stroke-width="2" stroke-linecap="round" stroke-linejoin="round"/>
<path d="M12.7412 10.466L13.2589 8.53418" stroke="#333333" stroke-width="2" stroke-linecap="round"/>
<path d="M6.55298 15.0693L16.2122 17.6575" stroke="#333333" stroke-width="2" stroke-linecap="round" stroke-linejoin="round"/>
<path d="M11.2412 15.966L11.7589 14.0342" stroke="#333333" stroke-width="2" stroke-linecap="round"/>
<path d="M16.938 3.35804L13.0743 2.32277C12.8075 2.2513 12.5334 2.40959 12.4619 2.67632L12.2031 3.64225C12.1316 3.90898 12.2899 4.18315 12.5566 4.25462L16.4203 5.2899C16.6871 5.36137 16.9612 5.20308 17.0327 4.93634L17.2915 3.97042C17.363 3.70368 17.2047 3.42952 16.938 3.35804Z" stroke="#333333" stroke-width="2" stroke-linecap="round" stroke-linejoin="round"/>
<path d="M9.74121 21.466L10.2589 19.5342" stroke="#333333" stroke-width="2" stroke-linecap="round"/>
</svg>
