<svg width="24" height="24" viewBox="0 0 24 24" fill="none" xmlns="http://www.w3.org/2000/svg">
<g clip-path="url(#clip0_2_21581)">
<path d="M24 0H0V24H24V0Z" fill="white" fill-opacity="0.01"/>
<path fill-rule="evenodd" clip-rule="evenodd" d="M16.979 22C16.979 22 16.9912 20.2646 16.979 19.88C17.2537 19.7328 17.5204 19.5725 17.7782 19.4C18.2963 19.0532 18.7783 18.6567 19.2175 18.2175C20.9367 16.4983 22 14.1233 22 11.5C22 6.25329 17.7467 2 12.5 2C7.2533 2 3 6.25329 3 11.5C3 14.1233 4.06332 16.4983 5.7825 18.2175C6.2217 18.6567 6.70375 19.0532 7.22185 19.4C7.4796 19.5725 7.72735 19.7328 8.00215 19.88C8.00215 20.0041 8.00215 20.7107 8.00215 22C13.9866 22 16.979 22 16.979 22Z" stroke="#333333" stroke-width="2" stroke-linejoin="round"/>
<path d="M9 13.5C10.1046 13.5 11 12.6046 11 11.5L9 9.5C7.89545 9.5 7 10.3954 7 11.5C7 12.6046 7.89545 13.5 9 13.5Z" stroke="#333333" stroke-width="2" stroke-linejoin="round"/>
<path d="M16 13.5C14.8954 13.5 14 12.6046 14 11.5L16 9.5C17.1046 9.5 18 10.3954 18 11.5C18 12.6046 17.1046 13.5 16 13.5Z" stroke="#333333" stroke-width="2" stroke-linejoin="round"/>
<path d="M11 17L12.469 15.5L14 16.9482" stroke="#333333" stroke-width="2" stroke-linecap="round" stroke-linejoin="round"/>
</g>
<defs>
<clipPath id="clip0_2_21581">
<rect width="24" height="24" fill="white"/>
</clipPath>
</defs>
</svg>
