<svg width="24" height="24" viewBox="0 0 24 24" fill="none" xmlns="http://www.w3.org/2000/svg">
<g clip-path="url(#clip0_2_21340)">
<path d="M24 0H0V24H24V0Z" fill="white" fill-opacity="0.01"/>
<path d="M12 3C7.02945 3 3 7.02945 3 12C3 16.9706 7.02945 21 12 21C16.9706 21 21 16.9706 21 12" stroke="#333333" stroke-width="2" stroke-linecap="round" stroke-linejoin="round"/>
<path d="M12 7.5C9.5147 7.5 7.5 9.5147 7.5 12C7.5 14.4853 9.5147 16.5 12 16.5C14.4853 16.5 16.5 14.4853 16.5 12" stroke="#333333" stroke-width="2" stroke-linecap="round" stroke-linejoin="round"/>
<path d="M12 11.9996L15.15 8.84668" stroke="#333333" stroke-width="2" stroke-linecap="round" stroke-linejoin="round"/>
<path d="M15.15 5.7132V8.85H18.3126L21.0001 6.1501H17.8517V3L15.15 5.7132Z" stroke="#333333" stroke-width="2" stroke-linejoin="round"/>
</g>
<defs>
<clipPath id="clip0_2_21340">
<rect width="24" height="24" fill="white"/>
</clipPath>
</defs>
</svg>
