<svg width="24" height="24" viewBox="0 0 24 24" fill="none" xmlns="http://www.w3.org/2000/svg">
<g clip-path="url(#clip0_2_21047)">
<path d="M24 0H0V24H24V0Z" fill="white" fill-opacity="0.01"/>
<path d="M9.59375 13.5H14.4062M8.5 16L9.59375 13.5L8.5 16ZM15.5 16L14.4062 13.5L15.5 16ZM9.59375 13.5L12 8L14.4062 13.5H9.59375Z" stroke="#333333" stroke-width="2" stroke-linecap="round" stroke-linejoin="round"/>
<path d="M21.6 10C20.6734 5.4355 16.6379 2 11.7999 2C6.96205 2 2.92654 5.4355 2 10L5 9" stroke="#333333" stroke-width="2" stroke-linecap="round" stroke-linejoin="round"/>
<path d="M2 14C2.92654 18.5645 6.96205 22 11.7999 22C16.6379 22 20.6734 18.5645 21.6 14L19 15" stroke="#333333" stroke-width="2" stroke-linecap="round" stroke-linejoin="round"/>
</g>
<defs>
<clipPath id="clip0_2_21047">
<rect width="24" height="24" fill="white"/>
</clipPath>
</defs>
</svg>
