<svg width="24" height="24" viewBox="0 0 24 24" fill="none" xmlns="http://www.w3.org/2000/svg">
<path d="M6.85728 10.2859C8.75083 10.2859 10.2859 8.75083 10.2859 6.85728C10.2859 4.96373 8.75083 3.42871 6.85728 3.42871C4.96373 3.42871 3.42871 4.96373 3.42871 6.85728C3.42871 8.75083 4.96373 10.2859 6.85728 10.2859Z" stroke="#333333" stroke-width="2" stroke-linecap="round" stroke-linejoin="round"/>
<path d="M17.1429 20.571C19.0365 20.571 20.5715 19.036 20.5715 17.1424C20.5715 15.2489 19.0365 13.7139 17.1429 13.7139C15.2494 13.7139 13.7144 15.2489 13.7144 17.1424C13.7144 19.036 15.2494 20.571 17.1429 20.571Z" stroke="#333333" stroke-width="2" stroke-linecap="round" stroke-linejoin="round"/>
<path d="M12.0005 22C6.47765 22 2.00049 17.5229 2.00049 12L5.3338 13.6666" stroke="#333333" stroke-width="2" stroke-linecap="round" stroke-linejoin="round"/>
<path d="M12.0005 2C17.5233 2 22.0005 6.47715 22.0005 12L18.6671 10.3333" stroke="#333333" stroke-width="2" stroke-linecap="round" stroke-linejoin="round"/>
</svg>
