<svg width="24" height="24" viewBox="0 0 24 24" fill="none" xmlns="http://www.w3.org/2000/svg">
<path d="M18.5 14.1961V17.7033C18.5 19.524 17.0442 21 15.2485 21C13.4527 21 11.997 19.524 11.997 17.7033L12.003 6.57145C12.003 4.59899 10.5473 3 8.7515 3C6.95575 3 5.5 4.59899 5.5 6.57145V14.1961" stroke="#333333" stroke-width="2" stroke-linecap="round" stroke-linejoin="round"/>
<path d="M21.5 15.5L18.5 12.5L15.5 15.5" stroke="#333333" stroke-width="2" stroke-linecap="round" stroke-linejoin="round"/>
<path d="M21.5 5.36365C21.5 7.5909 18.5 9.5 18.5 9.5C18.5 9.5 15.5 7.5909 15.5 5.36365C15.5 4.60415 15.8161 3.87578 16.3787 3.33874C16.9413 2.80171 17.7043 2.5 18.5 2.5C19.2957 2.5 20.0587 2.80171 20.6213 3.33874C21.1839 3.87578 21.5 4.60415 21.5 5.36365Z" stroke="#333333" stroke-width="2" stroke-linecap="round" stroke-linejoin="round"/>
<path d="M8.5 17.3636C8.5 19.5909 5.5 21.5 5.5 21.5C5.5 21.5 2.5 19.5909 2.5 17.3636C2.5 16.6041 2.81607 15.8758 3.37868 15.3387C3.94129 14.8017 4.70435 14.5 5.5 14.5C6.29565 14.5 7.0587 14.8017 7.6213 15.3387C8.18395 15.8758 8.5 16.6041 8.5 17.3636Z" stroke="#333333" stroke-width="2" stroke-linecap="round" stroke-linejoin="round"/>
<path d="M18.5 6.5C19.0523 6.5 19.5 6.05228 19.5 5.5C19.5 4.94772 19.0523 4.5 18.5 4.5C17.9477 4.5 17.5 4.94772 17.5 5.5C17.5 6.05228 17.9477 6.5 18.5 6.5Z" fill="#333333"/>
<path d="M5.5 18.5C6.05228 18.5 6.5 18.0523 6.5 17.5C6.5 16.9477 6.05228 16.5 5.5 16.5C4.94772 16.5 4.5 16.9477 4.5 17.5C4.5 18.0523 4.94772 18.5 5.5 18.5Z" fill="#333333"/>
</svg>
