<svg width="24" height="24" viewBox="0 0 24 24" fill="none" xmlns="http://www.w3.org/2000/svg">
<g clip-path="url(#clip0_2_20490)">
<path d="M24 0H0V24H24V0Z" fill="white" fill-opacity="0.01"/>
<path d="M6.5224 7C6.77505 4.19675 9.131 2 12 2C14.869 2 17.225 4.19675 17.4776 7H17.5C19.9853 7 22 9.0147 22 11.5C22 13.9853 19.9853 16 17.5 16H6.5C4.01472 16 2 13.9853 2 11.5C2 9.0147 4.01472 7 6.5 7H6.5224Z" stroke="#333333" stroke-width="2" stroke-linecap="round" stroke-linejoin="round"/>
<path d="M12 14L14.5 11.5" stroke="#333333" stroke-width="2" stroke-linecap="round" stroke-linejoin="round"/>
<path d="M12 12.5L9 9.5" stroke="#333333" stroke-width="2" stroke-linecap="round" stroke-linejoin="round"/>
<path d="M12 22V9" stroke="#333333" stroke-width="2" stroke-linecap="round" stroke-linejoin="round"/>
</g>
<defs>
<clipPath id="clip0_2_20490">
<rect width="24" height="24" fill="white"/>
</clipPath>
</defs>
</svg>
