<svg width="24" height="24" viewBox="0 0 24 24" fill="none" xmlns="http://www.w3.org/2000/svg">
<path d="M16 14H19V19.5C19 20.3285 18.3285 21 17.5 21C16.6715 21 16 20.3285 16 19.5V14Z" stroke="#333333" stroke-width="2"/>
<path d="M14.5 6H19.5C20.3285 6 21 6.67155 21 7.5V12.5C21 13.3285 20.3285 14 19.5 14H14" stroke="#333333" stroke-width="2" stroke-linecap="round"/>
<path d="M7 7H6C4.34315 7 3 8.34315 3 10C3 11.6568 4.34315 13 6 13H7" stroke="#333333" stroke-width="2" stroke-linejoin="round"/>
<path d="M7.0992 16.5C7.0444 16.5 7 16.4556 7 16.4008V3.09922C7 3.04443 7.0444 3 7.0992 3H8.75C12.4779 3 15.5 6.0221 15.5 9.75C15.5 13.4779 12.4779 16.5 8.75 16.5H7.0992Z" stroke="#333333" stroke-width="2"/>
</svg>
