<svg width="24" height="24" viewBox="0 0 24 24" fill="none" xmlns="http://www.w3.org/2000/svg">
<path d="M12 7C13.3807 7 14.5 5.8807 14.5 4.5C14.5 3.11929 13.3807 2 12 2C10.6193 2 9.5 3.11929 9.5 4.5C9.5 5.8807 10.6193 7 12 7Z" stroke="#333333" stroke-width="2" stroke-linecap="round" stroke-linejoin="round"/>
<path d="M13.5 10H10.5C10.0357 10 9.8035 10 9.60795 10.0192C7.7088 10.2063 6.2063 11.7088 6.01925 13.608C6 13.8035 6 14.0357 6 14.5H18C18 14.0357 18 13.8035 17.9807 13.608C17.7937 11.7088 16.2912 10.2063 14.392 10.0192C14.1965 10 13.9643 10 13.5 10Z" stroke="#333333" stroke-width="2" stroke-linecap="round" stroke-linejoin="round"/>
<path d="M20.5 13.3916C21.4509 14.0037 22 14.7261 22 15.4998C22 17.7089 17.5229 19.4998 12 19.4998C6.47715 19.4998 2 17.7089 2 15.4998C2 14.7261 2.54914 14.0037 3.5 13.3916" stroke="#333333" stroke-width="2" stroke-linecap="round" stroke-linejoin="round"/>
<path d="M9.5 17L12 19.5L9.5 22" stroke="#333333" stroke-width="2" stroke-linecap="round" stroke-linejoin="round"/>
</svg>
