<svg width="24" height="24" viewBox="0 0 24 24" fill="none" xmlns="http://www.w3.org/2000/svg">
<path d="M10.5 21.5C8.13708 20.6163 6.16623 17.5925 5.17983 15.8214C4.75395 15.0567 4.9783 14.1173 5.66178 13.5705C6.42363 12.9611 7.52188 13.0219 8.21178 13.7118L8.99998 14.5V8.75C8.99998 8.05965 9.55963 7.5 10.25 7.5C10.9403 7.5 11.5 8.05965 11.5 8.75V11.75C11.5 11.0597 12.0596 10.5 12.75 10.5C13.4403 10.5 14 11.0597 14 11.75V12.75C14 12.0597 14.5596 11.5 15.25 11.5C15.9403 11.5 16.5 12.0597 16.5 12.75V13.75C16.5 13.0597 17.0596 12.5 17.75 12.5C18.4403 12.5 19 13.0597 19 13.75V17.684C19 18.2192 18.8677 18.748 18.5592 19.1854C18.0474 19.911 17.1275 21.0168 16 21.5C14.25 22.25 12.685 22.3171 10.5 21.5Z" stroke="#333333" stroke-width="2" stroke-linecap="round" stroke-linejoin="round"/>
<path d="M6 4.5L7.5 6" stroke="#333333" stroke-width="2" stroke-linecap="round" stroke-linejoin="round"/>
<path d="M9.5 2L10 5" stroke="#333333" stroke-width="2" stroke-linecap="round" stroke-linejoin="round"/>
<path d="M13.5 4L12.5 5.5" stroke="#333333" stroke-width="2" stroke-linecap="round" stroke-linejoin="round"/>
</svg>
