<svg width="24" height="24" viewBox="0 0 24 24" fill="none" xmlns="http://www.w3.org/2000/svg">
<path d="M20.5 7H3.5C2.94772 7 2.5 7.44772 2.5 8V20C2.5 20.5523 2.94772 21 3.5 21H20.5C21.0523 21 21.5 20.5523 21.5 20V8C21.5 7.44772 21.0523 7 20.5 7Z" stroke="#333333" stroke-width="2"/>
<path d="M12 7L19 3" stroke="#333333" stroke-width="2" stroke-linecap="round" stroke-linejoin="round"/>
<path d="M11.5 7L5 3" stroke="#333333" stroke-width="2" stroke-linecap="round" stroke-linejoin="round"/>
<path d="M17.5 10V13" stroke="#333333" stroke-width="2" stroke-linecap="round" stroke-linejoin="round"/>
<path d="M18.5 17C18.5 16.4477 18.0523 16 17.5 16C16.9477 16 16.5 16.4477 16.5 17C16.5 17.5523 16.9477 18 17.5 18C18.0523 18 18.5 17.5523 18.5 17Z" fill="#333333"/>
</svg>
