<svg width="24" height="24" viewBox="0 0 24 24" fill="none" xmlns="http://www.w3.org/2000/svg">
<g clip-path="url(#clip0_2_20515)">
<path d="M24 0H0V24H24V0Z" fill="white" fill-opacity="0.01"/>
<path d="M20.2895 3.67431C22.1718 5.55661 19.9783 10.802 15.3901 15.3902C10.802 19.9783 5.55665 22.1718 3.67431 20.2895C1.79199 18.4072 3.9855 13.1618 8.57365 8.57366C13.1618 3.9855 18.4071 1.79199 20.2895 3.67431Z" stroke="#333333" stroke-width="2" stroke-linecap="round" stroke-linejoin="round"/>
<path d="M3.74267 3.67431C1.86035 5.55661 4.05386 10.802 8.64201 15.3902C13.2302 19.9783 18.4755 22.1718 20.3579 20.2895C22.2402 18.4072 20.0467 13.1618 15.4585 8.57366C10.8704 3.9855 5.62501 1.79199 3.74267 3.67431Z" stroke="#333333" stroke-width="2" stroke-linecap="round" stroke-linejoin="round"/>
</g>
<defs>
<clipPath id="clip0_2_20515">
<rect width="24" height="24" fill="white"/>
</clipPath>
</defs>
</svg>
