<svg width="24" height="24" viewBox="0 0 24 24" fill="none" xmlns="http://www.w3.org/2000/svg">
<path d="M13.3723 22H12.9248C10.3196 22 7.88986 20.6871 6.46216 18.508L5.36441 16.8326C4.58537 15.6435 4.81539 14.06 5.90061 13.1418L7.04436 12.1741C7.17481 12.0637 7.25001 11.9014 7.25001 11.7305V3.625C7.25001 2.72754 7.97756 2 8.87501 2C9.77246 2 10.5 2.72754 10.5 3.625V3.125C10.5 2.22754 11.2276 1.5 12.125 1.5C13.0225 1.5 13.75 2.22754 13.75 3.125V8.875C13.75 7.97755 14.4776 7.25 15.375 7.25C16.2725 7.25 17 7.97755 17 8.875V10.875C17 9.97755 17.7276 9.25 18.625 9.25C19.5225 9.25 20.25 9.97755 20.25 10.875V15.9844C20.25 16.8088 20.0009 17.6141 19.5354 18.2945L19.0485 19.006C17.7666 20.8797 15.6426 22 13.3723 22Z" stroke="#333333" stroke-width="2" stroke-linecap="round" stroke-linejoin="round"/>
</svg>
