<svg width="24" height="24" viewBox="0 0 24 24" fill="none" xmlns="http://www.w3.org/2000/svg">
<path d="M5.49998 20.0004L3.44653 15.5513C2.90896 14.3865 3.3402 13.0039 4.44461 12.3513L7.21503 10.7143C7.69728 10.4293 8.29813 10.4368 8.77313 10.7336L9.11668 10.9484C9.47243 11.1707 9.92728 10.8826 9.87828 10.466L9.07403 3.62989C9.02728 3.23236 9.16513 2.8353 9.44813 2.55226C9.76233 2.2381 10.2624 2.2104 10.6094 2.48795L10.7983 2.63906C11.089 2.87162 11.2828 3.20398 11.3421 3.57152L12.4614 10.5115C12.4836 10.6492 12.6025 10.7504 12.742 10.7504C12.8883 10.7504 13.0107 10.6393 13.0248 10.4936L13.6889 3.6313C13.728 3.22798 13.9285 2.85761 14.2449 2.60448L14.3481 2.52189C14.7192 2.22502 15.2542 2.25465 15.5902 2.59068C15.8526 2.85304 16 3.20887 16 3.57989V14.7101C16 15.1294 16.4847 15.3626 16.8121 15.1007L18.5 13.7504C19.3264 13.0893 20.4374 13.5209 21.1275 13.9729C21.3468 14.1166 21.3793 14.4137 21.2235 14.6245L17.25 20.0004C17.25 20.0004 15.5 22.0004 11.5 22.0004C7.49998 22.0004 5.83333 20.6671 5.49998 20.0004Z" stroke="#333333" stroke-width="2" stroke-linecap="round" stroke-linejoin="round"/>
</svg>
