<svg width="24" height="24" viewBox="0 0 24 24" fill="none" xmlns="http://www.w3.org/2000/svg">
<path d="M2 6C2 5.4477 2.44771 5 3 5H21C21.5523 5 22 5.4477 22 6V18C22 18.5523 21.5523 19 21 19H3C2.44771 19 2 18.5523 2 18V6Z" stroke="#333333" stroke-width="2" stroke-linecap="round" stroke-linejoin="round"/>
<path d="M7.7071 16.2929C7.89465 16.1054 8.149 16 8.4142 16H15.1301C15.3688 16 15.5996 16.0854 15.7809 16.2407L19 19H5L7.7071 16.2929Z" stroke="#333333" stroke-width="2" stroke-linecap="round" stroke-linejoin="round"/>
<path d="M19.5 19H4.5" stroke="#333333" stroke-width="2" stroke-linecap="round" stroke-linejoin="round"/>
<path d="M7.5 12.5C8.60457 12.5 9.5 11.6046 9.5 10.5C9.5 9.39543 8.60457 8.5 7.5 8.5C6.39543 8.5 5.5 9.39543 5.5 10.5C5.5 11.6046 6.39543 12.5 7.5 12.5Z" stroke="#333333" stroke-width="2" stroke-linecap="round" stroke-linejoin="round"/>
<path d="M16.5 12.5C17.6046 12.5 18.5 11.6046 18.5 10.5C18.5 9.39543 17.6046 8.5 16.5 8.5C15.3954 8.5 14.5 9.39543 14.5 10.5C14.5 11.6046 15.3954 12.5 16.5 12.5Z" stroke="#333333" stroke-width="2" stroke-linecap="round" stroke-linejoin="round"/>
<path d="M7.5 12.5H16.5" stroke="#333333" stroke-width="2" stroke-linecap="round" stroke-linejoin="round"/>
<path d="M7.5 8.5H16.5" stroke="#333333" stroke-width="2" stroke-linecap="round" stroke-linejoin="round"/>
</svg>
