<svg width="24" height="24" viewBox="0 0 24 24" fill="none" xmlns="http://www.w3.org/2000/svg">
<g clip-path="url(#clip0_2_19492)">
<path d="M24 0H0V24H24V0Z" fill="white" fill-opacity="0.01"/>
<path d="M5.63635 2H2V5.63635H5.63635V2Z" stroke="#333333" stroke-width="2" stroke-linejoin="round"/>
<path d="M21.9999 18.3633H18.3635V21.9996H21.9999V18.3633Z" stroke="#333333" stroke-width="2" stroke-linejoin="round"/>
<path d="M5.63635 12H2V15.6363H5.63635V12Z" stroke="#333333" stroke-width="2" stroke-linejoin="round"/>
<path d="M11.9999 18.3633H8.36353V21.9996H11.9999V18.3633Z" stroke="#333333" stroke-width="2" stroke-linejoin="round"/>
<path d="M15.6363 2H12V5.63635H15.6363V2Z" stroke="#333333" stroke-width="2" stroke-linejoin="round"/>
<path d="M21.9999 8.36328H18.3635V11.9996H21.9999V8.36328Z" stroke="#333333" stroke-width="2" stroke-linejoin="round"/>
<path d="M5.63647 3.81836H12.0001" stroke="#333333" stroke-width="2" stroke-linecap="round" stroke-linejoin="round"/>
<path d="M12 20.1816H18.3636" stroke="#333333" stroke-width="2" stroke-linecap="round" stroke-linejoin="round"/>
<path d="M5.63647 13.8186H13.8183V5.63672" stroke="#333333" stroke-width="2" stroke-linecap="round" stroke-linejoin="round"/>
<path d="M14.414 10.1816H18.3637H14.414ZM10.1819 18.3635V13.8141V18.3635Z" stroke="#333333" stroke-width="2" stroke-linecap="round" stroke-linejoin="round"/>
<path d="M3.81812 5.63672V12.0004" stroke="#333333" stroke-width="2" stroke-linecap="round" stroke-linejoin="round"/>
<path d="M20.1819 12V18.3636" stroke="#333333" stroke-width="2" stroke-linecap="round" stroke-linejoin="round"/>
</g>
<defs>
<clipPath id="clip0_2_19492">
<rect width="24" height="24" fill="white"/>
</clipPath>
</defs>
</svg>
