<svg width="24" height="24" viewBox="0 0 24 24" fill="none" xmlns="http://www.w3.org/2000/svg">
<path d="M12 19C15.866 19 19 15.866 19 12C19 8.134 15.866 5 12 5C8.134 5 5 8.134 5 12C5 15.866 8.134 19 12 19Z" stroke="#333333" stroke-width="2"/>
<path d="M5.5 14.5C6.25445 14.8122 7.5 15 8.1293 14.2659C8.75855 13.5317 8.1975 12.3761 8.89445 11.9841C9.6585 11.5543 10.2102 13.016 11.6456 12.758C13.081 12.5 14 10.5 14 9.5C14 8.5 13.1427 8.5 13.081 7.5271C13 6.25 14 5.5 14 5.5" stroke="#333333" stroke-width="2" stroke-linecap="round"/>
<path d="M13.9997 18.5002C13.4568 18.0457 12.9997 17.7502 13 17.0002C13.0003 16.2502 13.4997 16.5002 13.9997 16.0002C14.4998 15.5002 14.2497 14.5002 14.7499 14.2502C15.2502 14.0002 16.8037 14.5281 17.9999 15.5002" stroke="#333333" stroke-width="2" stroke-linecap="round"/>
<path d="M12 3C12.5523 3 13 2.55228 13 2C13 1.44772 12.5523 1 12 1C11.4477 1 11 1.44772 11 2C11 2.55228 11.4477 3 12 3Z" fill="#333333"/>
<path d="M12 23C12.5523 23 13 22.5523 13 22C13 21.4477 12.5523 21 12 21C11.4477 21 11 21.4477 11 22C11 22.5523 11.4477 23 12 23Z" fill="#333333"/>
<path d="M22 13C22.5523 13 23 12.5523 23 12C23 11.4477 22.5523 11 22 11C21.4477 11 21 11.4477 21 12C21 12.5523 21.4477 13 22 13Z" fill="#333333"/>
<path d="M19 6C19.5523 6 20 5.55228 20 5C20 4.44772 19.5523 4 19 4C18.4477 4 18 4.44772 18 5C18 5.55228 18.4477 6 19 6Z" fill="#333333"/>
<path d="M5 20C5.55228 20 6 19.5523 6 19C6 18.4477 5.55228 18 5 18C4.44772 18 4 18.4477 4 19C4 19.5523 4.44772 20 5 20Z" fill="#333333"/>
<path d="M2 13C2.55228 13 3 12.5523 3 12C3 11.4477 2.55228 11 2 11C1.44772 11 1 11.4477 1 12C1 12.5523 1.44772 13 2 13Z" fill="#333333"/>
<path d="M5 6C5.55228 6 6 5.55228 6 5C6 4.44772 5.55228 4 5 4C4.44772 4 4 4.44772 4 5C4 5.55228 4.44772 6 5 6Z" fill="#333333"/>
<path d="M19 20C19.5523 20 20 19.5523 20 19C20 18.4477 19.5523 18 19 18C18.4477 18 18 18.4477 18 19C18 19.5523 18.4477 20 19 20Z" fill="#333333"/>
<path d="M5 12C5 13.9073 5.7628 15.6365 7 16.899" stroke="#333333" stroke-width="2" stroke-linecap="round" stroke-linejoin="round"/>
<path d="M12 19C15.866 19 19 15.866 19 12" stroke="#333333" stroke-width="2" stroke-linecap="round" stroke-linejoin="round"/>
<path d="M12 5C13.9073 5 15.6365 5.7628 16.899 7" stroke="#333333" stroke-width="2" stroke-linecap="round" stroke-linejoin="round"/>
</svg>
