<svg width="24" height="24" viewBox="0 0 24 24" fill="none" xmlns="http://www.w3.org/2000/svg">
<g clip-path="url(#clip0_2_19478)">
<path d="M0 24L24 24L24 0L0 0L0 24Z" fill="white" fill-opacity="0.01"/>
<path d="M12 2C6.47715 2 2 6.47715 2 12C2 17.5229 6.47715 22 12 22C17.5229 22 22 17.5229 22 12C22 6.47715 17.5229 2 12 2Z" stroke="#333333" stroke-width="2" stroke-linejoin="round"/>
<path d="M8.5 15V14.5" stroke="#333333" stroke-width="2" stroke-linecap="round" stroke-linejoin="round"/>
<path d="M15.5 15V14.5" stroke="#333333" stroke-width="2" stroke-linecap="round" stroke-linejoin="round"/>
<path d="M8.5 8.5C8.5 8.5 9.5 6.5 12 6.5C14.5 6.5 15.5 8.5 15.5 8.5" stroke="#333333" stroke-width="2" stroke-linecap="round" stroke-linejoin="round"/>
</g>
<defs>
<clipPath id="clip0_2_19478">
<rect width="24" height="24" fill="white"/>
</clipPath>
</defs>
</svg>
