<svg width="24" height="24" viewBox="0 0 24 24" fill="none" xmlns="http://www.w3.org/2000/svg">
<path d="M2 9C2 8.17155 2.67158 7.5 3.5 7.5H20.5C21.3285 7.5 22 8.17155 22 9V12.0698C22 12.351 21.921 12.6264 21.772 12.8648L19.9407 15.795C19.6665 16.2336 19.1858 16.5 18.6686 16.5H5.33135C4.81418 16.5 4.33348 16.2336 4.05937 15.795L2.228 12.8648C2.079 12.6264 2 12.351 2 12.0698V9Z" stroke="#333333" stroke-width="2" stroke-linecap="round" stroke-linejoin="round"/>
<path d="M5.5 7.5H18.5V11.5H5.5V7.5Z" stroke="#333333" stroke-width="2" stroke-linecap="round" stroke-linejoin="round"/>
<path d="M10.5 11.5V10.5" stroke="#333333" stroke-width="2" stroke-linecap="round" stroke-linejoin="round"/>
<path d="M13.5 11.5V10.5" stroke="#333333" stroke-width="2" stroke-linecap="round" stroke-linejoin="round"/>
<path d="M16 11.5V10.5" stroke="#333333" stroke-width="2" stroke-linecap="round" stroke-linejoin="round"/>
<path d="M8 11.5V10.5" stroke="#333333" stroke-width="2" stroke-linecap="round" stroke-linejoin="round"/>
<path d="M4 7.5H20" stroke="#333333" stroke-width="2" stroke-linecap="round" stroke-linejoin="round"/>
</svg>
