<svg width="24" height="24" viewBox="0 0 24 24" fill="none" xmlns="http://www.w3.org/2000/svg">
<path d="M15.9996 9C15.5381 12 14.4996 14.75 12.2496 14.75C9.99963 14.75 9.24963 12.25 8.49963 9C7.74963 5.75 8.49963 3 12.2496 3C15.9996 3 16.4611 6 15.9996 9Z" stroke="#333333" stroke-width="2"/>
<path d="M10 13.5V21.5" stroke="#333333" stroke-width="2" stroke-linecap="round" stroke-linejoin="round"/>
<path d="M14.5 13.5V21.5" stroke="#333333" stroke-width="2" stroke-linecap="round" stroke-linejoin="round"/>
<path d="M8.25 6.00023C7.36545 5.22823 6.32015 5.16528 5.04345 5.25263C3.12838 5.38363 2 6.84643 2 9.00063L8.25 6.00023ZM2 9.00063C2 11.1548 3.44826 13.0917 4.94415 12.6485C6.44005 12.2053 6.2309 10.4553 5.53125 9.63478C4.83161 8.81428 2.91066 8.50188 2 9.00063Z" stroke="#333333" stroke-width="2" stroke-linecap="round"/>
<path d="M16.25 6.24989C17.125 5.43399 18.0164 5.16469 19.4202 5.25204C21.526 5.38309 22 6.82389 22 8.97809L16.25 6.24989ZM22 8.97809C22 11.1323 21.1742 13.0911 19.5294 12.6479C17.8846 12.2047 18.1146 10.4547 18.8839 9.63419C19.6532 8.81369 20.9986 8.47934 22 8.97809Z" stroke="#333333" stroke-width="2" stroke-linecap="round"/>
</svg>
