<svg width="24" height="24" viewBox="0 0 24 24" fill="none" xmlns="http://www.w3.org/2000/svg">
<g clip-path="url(#clip0_2_19471)">
<path d="M24 0H0V24H24V0Z" fill="white" fill-opacity="0.01"/>
<path d="M13 11.25C13 11.25 13 6.5 13 5C13 3.5 14 2 16 2C18 2 19 3.5 19 5C19 6.5 19 17 19 17" stroke="#333333" stroke-width="2"/>
<path d="M16.375 17H21.625L22 20H16L16.375 17Z" stroke="#333333" stroke-width="2" stroke-linecap="round" stroke-linejoin="round"/>
<path d="M5 20H12.9432C12.9746 20 13 19.9745 13 19.9432V11.6273C13 7.96715 10.0329 5 6.3727 5C4.78614 5 3.5 6.28615 3.5 7.8727V14.5" stroke="#333333" stroke-width="2" stroke-linecap="round" stroke-linejoin="round"/>
<path d="M5 20C6.65685 20 8 18.6569 8 17C8 15.3431 6.65685 14 5 14C3.34315 14 2 15.3431 2 17C2 18.6569 3.34315 20 5 20Z" stroke="#333333" stroke-width="2"/>
<path d="M7 5V14.5" stroke="#333333" stroke-width="2" stroke-linecap="round" stroke-linejoin="round"/>
</g>
<defs>
<clipPath id="clip0_2_19471">
<rect width="24" height="24" fill="white"/>
</clipPath>
</defs>
</svg>
