<svg width="24" height="24" viewBox="0 0 24 24" fill="none" xmlns="http://www.w3.org/2000/svg">
<path d="M5.00001 7H3.68892C2.79029 7 2.09331 7.78475 2.19941 8.6771L3.55973 20.118C3.61954 20.6211 4.04612 21 4.55273 21H19.7367C20.2517 21 20.6824 20.6089 20.7321 20.0963L21.8408 8.64455C21.9261 7.7631 21.2333 7 20.3478 7H19" stroke="#333333" stroke-width="2" stroke-linecap="round" stroke-linejoin="round"/>
<path d="M2.5 11H21.5" stroke="#333333" stroke-width="2" stroke-linecap="round" stroke-linejoin="round"/>
<path d="M7.5 14.5H16.5" stroke="#333333" stroke-width="2" stroke-linecap="round" stroke-linejoin="round"/>
<path d="M8.5 18H15.5" stroke="#333333" stroke-width="2" stroke-linecap="round" stroke-linejoin="round"/>
<path d="M12 3C9.79085 3 8 6.46235 8 10.7333C8 10.8226 8.0008 10.9115 8.00235 11H15.9977C15.9992 10.9115 16 10.8226 16 10.7333C16 6.46235 14.2092 3 12 3Z" stroke="#333333" stroke-width="2" stroke-linecap="round" stroke-linejoin="round"/>
</svg>
