<svg width="24" height="24" viewBox="0 0 24 24" fill="none" xmlns="http://www.w3.org/2000/svg">
<path d="M16 3.95125C16.75 3.75 17.6646 3.80553 18.2197 3.95125C19.4707 4.28014 20.3825 4.84496 20.9279 5.63075C21.5593 6.53975 21.6685 7.69955 21.254 9.07795C20.4047 11.8979 16.954 13.648 16.75 13.75" stroke="#333333" stroke-width="2" stroke-linecap="round" stroke-linejoin="round"/>
<path d="M13.6235 20.6351C13.8809 20.684 14.1425 20.7097 14.4045 20.7108C15.1393 20.7108 15.7721 20.5029 16.2831 20.0935C16.8393 19.6512 17.25 19 17.4162 18.1392C17.5825 17.2784 17.3399 16.4715 17.0762 15.6843C16.8899 15.1251 16.7673 14.2818 16.75 13.75" stroke="#333333" stroke-width="2" stroke-linecap="round" stroke-linejoin="round"/>
<path d="M6.5 13.2498C6.5 13.2498 3.59506 11.8966 2.74645 9.07776C2.33152 7.69971 2.4408 6.54062 3.07223 5.63057C3.61831 4.84511 4.52902 4.2803 5.78005 3.95106C6.3355 3.80534 6.86705 3.73145 7.36105 3.73145" stroke="#333333" stroke-width="2" stroke-linecap="round" stroke-linejoin="round"/>
<path d="M6.75001 13.5C7.00001 14 6.78376 14.8982 6.52011 15.6861C6.25641 16.474 5.98441 17.2872 6.17976 18.1406C6.37506 18.9941 6.75636 19.6523 7.31181 20.0949C7.82426 20.504 8.26501 20.75 9.00016 20.75C9.26176 20.749 10.0002 20.5 10.0002 20.5" stroke="#333333" stroke-width="2" stroke-linecap="round" stroke-linejoin="round"/>
<path d="M11.75 2C14.3733 2 16.5 3.32156 16.5 7.1875C16.5 11.0538 11.75 16 11.75 16C11.75 16 7 11.0535 7 7.1875C7 3.3212 9.1264 2 11.75 2Z" stroke="#333333" stroke-width="2" stroke-linecap="round" stroke-linejoin="round"/>
<path d="M11.9995 21.115C10.9946 21.1151 10.1403 20.7841 9.56543 20.2803C8.90138 19.6967 8.56348 18.8672 8.56348 17.8139C8.56348 16.9358 9.03808 16.2034 9.49708 15.4943C9.82283 14.9905 10.2742 13.9993 10.2742 13.9993C10.2742 13.9993 10.5114 13.1808 10.4723 12.6494C10.4 11.6671 9.44643 10.9276 9.29168 10.4207C9.10398 9.79032 9.14978 9.40657 9.43393 9.21437C9.52133 9.15437 9.85648 9.13422 9.85648 9.13422C9.85648 9.13422 9.79333 8.21137 9.83288 7.90712C9.88043 7.54217 10.071 7.02127 10.5188 6.98287C10.8288 6.95632 11.0739 7.00267 11.2328 7.33642C11.2841 7.44432 11.3195 7.57512 11.3691 7.75587C11.5197 8.32172 11.7605 8.98367 11.9974 9.52177C12.2347 8.98507 12.4759 8.32312 12.6275 7.75622C12.6771 7.57547 12.7128 7.44467 12.7642 7.33642C12.9231 7.00267 13.1685 6.95672 13.4785 6.98357C13.8566 7.01627 14.1165 7.54282 14.1641 7.90712C14.2036 8.21137 14.196 8.61662 14.1405 9.13422H14.1641C14.2716 9.13422 14.477 9.15367 14.5648 9.21402C14.8493 9.40622 14.8659 9.97352 14.7067 10.4203C14.5 11.0005 13.6019 11.5669 13.5 12.5005C13.4357 13.089 13.5474 13.4351 13.7255 13.9997C13.9234 14.6269 14.1755 14.9909 14.5023 15.494C14.9613 16.2031 15.4359 16.9365 15.4359 17.8139C15.4359 18.8669 15.0987 19.6968 14.434 20.2796C13.8577 20.7834 13.0047 21.115 11.9995 21.115Z" stroke="#333333" stroke-width="2" stroke-linecap="round" stroke-linejoin="round"/>
</svg>
