<svg width="24" height="24" viewBox="0 0 24 24" fill="none" xmlns="http://www.w3.org/2000/svg">
<path d="M2 15.5004C2.00013 12.2504 4.00026 11.0191 5.50011 10.5097C6.99991 10.0004 8.00021 10.0004 9.50001 8.50042C10.9998 7.00042 11.0003 4.00041 14.0001 3.00041C16.9998 2.00041 20.5456 3.50043 21.4999 7.00042C22.4543 10.5004 19.7504 15.0004 18.5004 16.5004C17.2504 18.0004 14.7494 20.5004 10.4999 21.0004C6.25036 21.5004 1.99987 18.7504 2 15.5004Z" stroke="#333333" stroke-width="2" stroke-linejoin="round"/>
<path d="M6 10.5218C9.5 15 14.5 10.5217 11 6" stroke="#333333" stroke-width="2" stroke-linecap="round" stroke-linejoin="round"/>
<path d="M5.50024 10.5093C7.00009 10 8.00039 10 9.50019 8.50001C11 7.00001 11.0004 4 14.0002 3" stroke="#333333" stroke-width="2" stroke-linecap="round" stroke-linejoin="round"/>
</svg>
