<svg width="24" height="24" viewBox="0 0 24 24" fill="none" xmlns="http://www.w3.org/2000/svg">
<g clip-path="url(#clip0_2_20691)">
<path d="M24 0H0V24H24V0Z" fill="white" fill-opacity="0.01"/>
<path d="M16.5 10.5H3C2.44772 10.5 2 10.9477 2 11.5V19.5C2 20.0523 2.44772 20.5 3 20.5H16.5C17.0523 20.5 17.5 20.0523 17.5 19.5V11.5C17.5 10.9477 17.0523 10.5 16.5 10.5Z" stroke="#333333" stroke-width="2"/>
<path d="M14.5 13.5H10V17.5H14.5V13.5Z" stroke="#333333" stroke-width="2" stroke-linecap="round" stroke-linejoin="round"/>
<path d="M13.5 9C14.8807 9 16 7.88071 16 6.5C16 5.11929 14.8807 4 13.5 4C12.1193 4 11 5.11929 11 6.5C11 7.88071 12.1193 9 13.5 9Z" stroke="#333333" stroke-width="2" stroke-linecap="round" stroke-linejoin="round"/>
<path d="M6.5 9C7.88071 9 9 7.88071 9 6.5C9 5.11929 7.88071 4 6.5 4C5.11929 4 4 5.11929 4 6.5C4 7.88071 5.11929 9 6.5 9Z" stroke="#333333" stroke-width="2" stroke-linecap="round" stroke-linejoin="round"/>
<path d="M17.5 17.5L22 19.5V11.5L17.5 13.5" stroke="#333333" stroke-width="2" stroke-linecap="round" stroke-linejoin="round"/>
</g>
<defs>
<clipPath id="clip0_2_20691">
<rect width="24" height="24" fill="white"/>
</clipPath>
</defs>
</svg>
