<svg width="24" height="24" viewBox="0 0 24 24" fill="none" xmlns="http://www.w3.org/2000/svg">
<path d="M2 5C2 4.44771 2.44771 4 3 4H17C17.5523 4 18 4.44771 18 5V9.5L22 6.5V18L18 15V19C18 19.5523 17.5523 20 17 20H3C2.44771 20 2 19.5523 2 19V5Z" stroke="#333333" stroke-width="2" stroke-linecap="round" stroke-linejoin="round"/>
<path d="M8.5 13C9.88071 13 11 11.8807 11 10.5C11 9.11929 9.88071 8 8.5 8C7.11929 8 6 9.11929 6 10.5C6 11.8807 7.11929 13 8.5 13Z" stroke="#333333" stroke-width="2" stroke-linecap="round" stroke-linejoin="round"/>
</svg>
