<svg width="24" height="24" viewBox="0 0 24 24" fill="none" xmlns="http://www.w3.org/2000/svg">
<g clip-path="url(#clip0_2_19462)">
<path d="M24 0H0V24H24V0Z" fill="white" fill-opacity="0.01"/>
<path d="M17 5.5H3C2.44772 5.5 2 5.94772 2 6.5V17.5C2 18.0523 2.44772 18.5 3 18.5H17C17.5523 18.5 18 18.0523 18 17.5V6.5C18 5.94772 17.5523 5.5 17 5.5Z" stroke="#333333" stroke-width="2"/>
<path d="M10 15C11.6569 15 13 13.6569 13 12C13 10.3431 11.6569 9 10 9C8.34315 9 7 10.3431 7 12C7 13.6569 8.34315 15 10 15Z" stroke="#333333" stroke-width="2" stroke-linecap="round" stroke-linejoin="round"/>
<path d="M18 14.5L22 16.5V7.5L18 9.5" stroke="#333333" stroke-width="2" stroke-linecap="round" stroke-linejoin="round"/>
</g>
<defs>
<clipPath id="clip0_2_19462">
<rect width="24" height="24" fill="white"/>
</clipPath>
</defs>
</svg>
