<svg width="24" height="24" viewBox="0 0 24 24" fill="none" xmlns="http://www.w3.org/2000/svg">
<path d="M8 3H4C3.44771 3 3 3.44771 3 4V8" stroke="#333333" stroke-width="2" stroke-linecap="round" stroke-linejoin="round"/>
<path d="M8 21H4C3.44771 21 3 20.5523 3 20V16" stroke="#333333" stroke-width="2" stroke-linecap="round" stroke-linejoin="round"/>
<path d="M16 21H20C20.5523 21 21 20.5523 21 20V16" stroke="#333333" stroke-width="2" stroke-linecap="round" stroke-linejoin="round"/>
<path d="M16 3H20C20.5523 3 21 3.44771 21 4V8" stroke="#333333" stroke-width="2" stroke-linecap="round" stroke-linejoin="round"/>
<path d="M6.5 16.5V9H9.5L10.5 7.5H13.5L14.5 9H17.5V16.5H6.5Z" stroke="#333333" stroke-width="2" stroke-linecap="round" stroke-linejoin="round"/>
<path d="M12 14C12.8285 14 13.5 13.3285 13.5 12.5C13.5 11.6715 12.8285 11 12 11C11.1715 11 10.5 11.6715 10.5 12.5C10.5 13.3285 11.1715 14 12 14Z" stroke="#333333" stroke-width="2" stroke-miterlimit="10"/>
</svg>
