<svg width="24" height="24" viewBox="0 0 24 24" fill="none" xmlns="http://www.w3.org/2000/svg">
<g clip-path="url(#clip0_2_19457)">
<path d="M24 0H0V24H24V0Z" fill="white" fill-opacity="0.01"/>
<path d="M12 22.0625C16.7635 22.0625 20.625 18.2547 20.625 13.5576C20.625 12.4045 20.4674 11.3071 20.1301 10.2619C19.9354 9.65845 19.7779 9.3703 19.5465 8.81485C19.3151 8.2594 19.0073 7.7904 18.6567 7.31865C18.3062 6.84695 17.6232 5.91945 17.1504 5.7332C17.1504 6.46425 15.7142 9.01735 15.1629 9.14565C14.6115 9.27395 15.5704 6.4612 14.349 4.53723C13.1275 2.61324 11.1526 1.35025 11.1526 2.21481C11.1526 3.07937 10.6061 4.53105 10.0556 5.25075C9.5052 5.9704 8.61255 6.5887 7.99085 6.8791C7.36915 7.1695 7.59425 5.42515 7.12755 5.7332C6.6572 6.0437 5.98865 6.90865 5.6371 7.4515C4.40641 9.35205 3.375 11.209 3.375 13.5576C3.375 18.2547 7.23655 22.0625 12 22.0625Z" stroke="#333333" stroke-width="2" stroke-linejoin="round"/>
<path d="M9.64771 11.8658V16.2344C9.64771 16.7529 10.0681 17.1733 10.5866 17.1733C10.7606 17.1733 10.9312 17.125 11.0793 17.0337L15.272 14.4497C15.4927 14.3137 15.5614 14.0245 15.4253 13.8038C15.3869 13.7414 15.3344 13.6889 15.272 13.6504L11.0793 11.0665C10.6378 10.7944 10.0594 10.9317 9.7873 11.3732C9.69605 11.5213 9.64771 11.6918 9.64771 11.8658Z" stroke="#333333" stroke-width="2" stroke-linejoin="round"/>
</g>
<defs>
<clipPath id="clip0_2_19457">
<rect width="24" height="24" fill="white"/>
</clipPath>
</defs>
</svg>
