<svg width="24" height="24" viewBox="0 0 24 24" fill="none" xmlns="http://www.w3.org/2000/svg">
<g clip-path="url(#clip0_2_19456)">
<path d="M24 0H0V24H24V0Z" fill="white" fill-opacity="0.01"/>
<path d="M2.5 8H21.5C21.7761 8 22 8.22385 22 8.5V19.5C22 19.7761 21.7761 20 21.5 20H15L12.0042 17.0007L9 20H2.5C2.22386 20 2 19.7761 2 19.5V8.5C2 8.22385 2.22386 8 2.5 8Z" stroke="#333333" stroke-width="2" stroke-linejoin="round"/>
<path d="M7 16C8.10455 16 9 15.1046 9 14C9 12.8954 8.10455 12 7 12C5.89545 12 5 12.8954 5 14C5 15.1046 5.89545 16 7 16Z" stroke="#333333" stroke-width="2" stroke-linecap="round" stroke-linejoin="round"/>
<path d="M17 16C18.1046 16 19 15.1046 19 14C19 12.8954 18.1046 12 17 12C15.8954 12 15 12.8954 15 14C15 15.1046 15.8954 16 17 16Z" stroke="#333333" stroke-width="2" stroke-linecap="round" stroke-linejoin="round"/>
<path d="M3 5H21" stroke="#333333" stroke-width="2" stroke-linecap="round" stroke-linejoin="round"/>
</g>
<defs>
<clipPath id="clip0_2_19456">
<rect width="24" height="24" fill="white"/>
</clipPath>
</defs>
</svg>
