<svg width="24" height="24" viewBox="0 0 24 24" fill="none" xmlns="http://www.w3.org/2000/svg">
<g clip-path="url(#clip0_2_19455)">
<path d="M24 0H0V24H24V0Z" fill="white" fill-opacity="0.01"/>
<path d="M2 15C2 18.3137 4.68629 21 8 21C11.3137 21 13 19 13.5 17.5L14.2692 15L17.5 4.5L22 21" stroke="#333333" stroke-width="2" stroke-linecap="round" stroke-linejoin="round"/>
<path d="M20.3637 15H14.2693" stroke="#333333" stroke-width="2" stroke-linecap="round" stroke-linejoin="round"/>
<path d="M11 7.5C11 5.84315 9.65685 4.5 8 4.5C6.34315 4.5 5 5.84315 5 7.5V15C5 16.6569 6.34315 18 8 18C9.65685 18 11 16.6569 11 15V7.5Z" stroke="#333333" stroke-width="2" stroke-linecap="round" stroke-linejoin="round"/>
</g>
<defs>
<clipPath id="clip0_2_19455">
<rect width="24" height="24" fill="white"/>
</clipPath>
</defs>
</svg>
