<svg width="24" height="24" viewBox="0 0 24 24" fill="none" xmlns="http://www.w3.org/2000/svg">
<g clip-path="url(#clip0_2_20356)">
<path d="M24 0H0V24H24V0Z" fill="white" fill-opacity="0.01"/>
<path d="M12 22C17.5228 22 22 17.5228 22 12C22 6.47715 17.5228 2 12 2C6.47715 2 2 6.47715 2 12C2 17.5228 6.47715 22 12 22Z" stroke="#333333" stroke-width="2" stroke-linejoin="round"/>
<path d="M8.5 12.9502C9.05228 12.9502 9.5 12.5025 9.5 11.9502C9.5 11.3979 9.05228 10.9502 8.5 10.9502C7.94772 10.9502 7.5 11.3979 7.5 11.9502C7.5 12.5025 7.94772 12.9502 8.5 12.9502Z" fill="#333333"/>
<path d="M10.9749 14.4244C11.6082 13.791 12 12.916 12 11.9495C12 10.983 11.6082 10.108 10.9749 9.47461" stroke="#333333" stroke-width="2" stroke-linecap="round" stroke-linejoin="round"/>
<path d="M13.4497 16.8995C14.7165 15.6327 15.5 13.8827 15.5 11.9497C15.5 10.0168 14.7165 8.26675 13.4497 7" stroke="#333333" stroke-width="2" stroke-linecap="round" stroke-linejoin="round"/>
</g>
<defs>
<clipPath id="clip0_2_20356">
<rect width="24" height="24" fill="white"/>
</clipPath>
</defs>
</svg>
