<svg width="24" height="24" viewBox="0 0 24 24" fill="none" xmlns="http://www.w3.org/2000/svg">
<g clip-path="url(#clip0_2_19713)">
<path d="M24 0H0V24H24V0Z" fill="white" fill-opacity="0.01"/>
<path d="M5.5 15.5C7.433 15.5 9 13.933 9 12C9 10.067 7.433 8.5 5.5 8.5C3.56701 8.5 2 10.067 2 12C2 13.933 3.56701 15.5 5.5 15.5Z" stroke="#333333" stroke-width="2" stroke-linejoin="round"/>
<path d="M18.5 15.5C20.433 15.5 22 13.933 22 12C22 10.067 20.433 8.5 18.5 8.5C16.567 8.5 15 10.067 15 12C15 13.933 16.567 15.5 18.5 15.5Z" stroke="#333333" stroke-width="2" stroke-linejoin="round"/>
<path d="M6 15.5H18" stroke="#333333" stroke-width="2" stroke-linecap="round" stroke-linejoin="round"/>
</g>
<defs>
<clipPath id="clip0_2_19713">
<rect width="24" height="24" fill="white"/>
</clipPath>
</defs>
</svg>
