<svg width="24" height="24" viewBox="0 0 24 24" fill="none" xmlns="http://www.w3.org/2000/svg">
<path d="M12 22C17.5229 22 22 17.5229 22 12C22 6.47715 17.5229 2 12 2C6.47715 2 2 6.47715 2 12C2 17.5229 6.47715 22 12 22Z" stroke="#333333" stroke-width="2"/>
<path d="M3.5 7L8 18.5L11 13H13L16 18.5L20.5 7" stroke="#333333" stroke-width="2" stroke-linecap="round" stroke-linejoin="round"/>
<path d="M8 3L11 9.5H13L16 3" stroke="#333333" stroke-width="2" stroke-linecap="round" stroke-linejoin="round"/>
<path d="M22 12C22 9.01325 20.6906 6.33235 18.6145 4.5C16.8517 2.94409 14.5361 2 12 2C9.4639 2 7.14825 2.94409 5.38545 4.5C3.30938 6.33235 2 9.01325 2 12" stroke="#333333" stroke-width="2" stroke-linecap="round"/>
</svg>
