<svg width="24" height="24" viewBox="0 0 24 24" fill="none" xmlns="http://www.w3.org/2000/svg">
<path d="M15.905 21.2027C20.9891 19.0432 23.3586 13.1747 21.2041 8.096C19.0495 3.01725 13.1755 0.637845 8.0964 2.7973C3.01732 4.95677 0.637751 10.8253 2.79736 15.904C4.95697 20.9828 10.8259 23.3621 15.905 21.2027Z" stroke="#333333" stroke-width="2" stroke-miterlimit="2" stroke-linejoin="round"/>
<path d="M7.99995 3C7.25305 6.50515 8.9685 10.0983 11.9999 12" stroke="#333333" stroke-width="2" stroke-miterlimit="2" stroke-linecap="round" stroke-linejoin="round"/>
<path d="M6 20C9.485 18.87 11.87 15.66 12 12" stroke="#333333" stroke-width="2" stroke-miterlimit="2" stroke-linecap="round" stroke-linejoin="round"/>
<path d="M22 12.5006C19.275 10.1644 14.75 10.2023 12 12.0006" stroke="#333333" stroke-width="2" stroke-miterlimit="2" stroke-linecap="round" stroke-linejoin="round"/>
<path d="M8.5 7.99926C8.5 7.99926 14.28 3.75426 20.5 6.99926" stroke="#333333" stroke-width="2" stroke-miterlimit="2" stroke-linejoin="round"/>
<path d="M10 16.5C10 16.5 3.795 14.01 3.5 7" stroke="#333333" stroke-width="2" stroke-miterlimit="2" stroke-linejoin="round"/>
<path d="M17 11C17 11 17.78 18.25 11.86 22.015" stroke="#333333" stroke-width="2" stroke-miterlimit="2" stroke-linejoin="round"/>
</svg>
