<svg width="24" height="24" viewBox="0 0 24 24" fill="none" xmlns="http://www.w3.org/2000/svg">
<g clip-path="url(#clip0_2_21606)">
<path d="M24 0H0V24H24V0Z" fill="white" fill-opacity="0.01"/>
<path d="M12 3V21C8.5 21 5.89925 16.4195 5.89925 16.4195H3C2.44771 16.4195 2 15.9718 2 15.4195V8.5054C2 7.9531 2.44771 7.5054 3 7.5054H5.89925C5.89925 7.5054 8.5 3 12 3Z" stroke="#333333" stroke-width="2" stroke-linejoin="round"/>
<path d="M16 7.5C16.3116 7.77825 16.5941 8.08985 16.8421 8.4294C17.5694 9.4252 18 10.6611 18 12C18 13.3273 17.5768 14.5534 16.8609 15.5447C16.6084 15.8943 16.3196 16.2147 16 16.5" stroke="#333333" stroke-width="2" stroke-linecap="round" stroke-linejoin="round"/>
<path d="M17.1179 20.5936C20.0418 18.8484 22 15.6532 22 12.0007C22 8.40495 20.1021 5.25245 17.2535 3.49023" stroke="#333333" stroke-width="2" stroke-linecap="round"/>
</g>
<defs>
<clipPath id="clip0_2_21606">
<rect width="24" height="24" fill="white"/>
</clipPath>
</defs>
</svg>
