<svg width="24" height="24" viewBox="0 0 24 24" fill="none" xmlns="http://www.w3.org/2000/svg">
<g clip-path="url(#clip0_2_19447)">
<path d="M24 0H0V24H24V0Z" fill="white" fill-opacity="0.01"/>
<path fill-rule="evenodd" clip-rule="evenodd" d="M1 6H23V18H15L12 15L9 18H1V6Z" stroke="#333333" stroke-width="2" stroke-linecap="round" stroke-linejoin="round"/>
<path fill-rule="evenodd" clip-rule="evenodd" d="M6.5 14C7.60455 14 8.5 13.1046 8.5 12C8.5 10.8954 7.60455 10 6.5 10C5.39545 10 4.5 10.8954 4.5 12C4.5 13.1046 5.39545 14 6.5 14Z" stroke="#333333" stroke-width="2" stroke-linecap="round" stroke-linejoin="round"/>
<path fill-rule="evenodd" clip-rule="evenodd" d="M17.5 14C18.6046 14 19.5 13.1046 19.5 12C19.5 10.8954 18.6046 10 17.5 10C16.3954 10 15.5 10.8954 15.5 12C15.5 13.1046 16.3954 14 17.5 14Z" stroke="#333333" stroke-width="2" stroke-linecap="round" stroke-linejoin="round"/>
</g>
<defs>
<clipPath id="clip0_2_19447">
<rect width="24" height="24" fill="white"/>
</clipPath>
</defs>
</svg>
