<svg width="24" height="24" viewBox="0 0 24 24" fill="none" xmlns="http://www.w3.org/2000/svg">
<path d="M17 12H9" stroke="#333333" stroke-width="2" stroke-linecap="round" stroke-linejoin="round"/>
<path d="M12 9L9 12L12 15" stroke="#333333" stroke-width="2" stroke-linecap="round" stroke-linejoin="round"/>
<path d="M19 14C20.1046 14 21 13.1046 21 12C21 10.8954 20.1046 10 19 10C17.8954 10 17 10.8954 17 12C17 13.1046 17.8954 14 19 14Z" stroke="#333333" stroke-width="2"/>
<path d="M20.353 6.5C19.9607 5.90545 19.5066 5.35525 19 4.85856C17.1962 3.09032 14.7255 2 12 2C6.47715 2 2 6.47715 2 12C2 17.5229 6.47715 22 12 22C14.7255 22 17.1962 20.9097 19 19.1415C19.5066 18.6448 19.9607 18.0946 20.353 17.5" stroke="#333333" stroke-width="2" stroke-linecap="round"/>
</svg>
