<svg width="24" height="24" viewBox="0 0 24 24" fill="none" xmlns="http://www.w3.org/2000/svg">
<g clip-path="url(#clip0_2_20552)">
<path d="M24 0H0V24H24V0Z" fill="white" fill-opacity="0.01"/>
<path d="M19 2H5C4.44772 2 4 2.44772 4 3V21C4 21.5523 4.44772 22 5 22H19C19.5523 22 20 21.5523 20 21V3C20 2.44772 19.5523 2 19 2Z" stroke="#333333" stroke-width="2"/>
<path d="M4 7.75H20" stroke="#333333" stroke-width="2" stroke-linecap="round" stroke-linejoin="round"/>
<path d="M14 6C14.5523 6 15 5.55228 15 5C15 4.44772 14.5523 4 14 4C13.4477 4 13 4.44772 13 5C13 5.55228 13.4477 6 14 6Z" fill="#333333"/>
<path d="M17 6C17.5523 6 18 5.55228 18 5C18 4.44772 17.5523 4 17 4C16.4477 4 16 4.44772 16 5C16 5.55228 16.4477 6 17 6Z" fill="#333333"/>
<path d="M12 18.5C13.933 18.5 15.5 16.933 15.5 15C15.5 13.067 13.933 11.5 12 11.5C10.067 11.5 8.5 13.067 8.5 15C8.5 16.933 10.067 18.5 12 18.5Z" stroke="#333333" stroke-width="2"/>
</g>
<defs>
<clipPath id="clip0_2_20552">
<rect width="24" height="24" fill="white"/>
</clipPath>
</defs>
</svg>
