<svg width="24" height="24" viewBox="0 0 24 24" fill="none" xmlns="http://www.w3.org/2000/svg">
<path d="M17.4781 15.5L15.4999 22H8.49988L6.52173 15.5" stroke="#333333" stroke-width="2" stroke-linecap="round" stroke-linejoin="round"/>
<path d="M6.52173 8.5L8.49988 2H15.4999L17.4781 8.5" stroke="#333333" stroke-width="2" stroke-linecap="round" stroke-linejoin="round"/>
<path d="M18.5 12C18.5 13.2887 18.125 14.4897 17.4782 15.5C16.3231 17.3041 14.3012 18.5 12 18.5C9.6988 18.5 7.6769 17.3041 6.5218 15.5C5.875 14.4897 5.5 13.2887 5.5 12C5.5 10.7113 5.875 9.5103 6.5218 8.5C7.6769 6.69585 9.6988 5.5 12 5.5C14.3012 5.5 16.3231 6.69585 17.4782 8.5C18.125 9.5103 18.5 10.7113 18.5 12Z" stroke="#333333" stroke-width="2" stroke-linecap="round" stroke-linejoin="round"/>
<path d="M12 8.5V12L14 14" stroke="#333333" stroke-width="2" stroke-linecap="round" stroke-linejoin="round"/>
</svg>
