<svg width="24" height="24" viewBox="0 0 24 24" fill="none" xmlns="http://www.w3.org/2000/svg">
<path d="M9.5 7V3C9.5 2.44771 9.9477 2 10.5 2H13.5C14.0523 2 14.5 2.44771 14.5 3V7" stroke="#333333" stroke-width="2" stroke-linecap="round"/>
<path d="M14.5 17V21C14.5 21.5523 14.0523 22 13.5 22H10.5C9.9477 22 9.5 21.5523 9.5 21V17" stroke="#333333" stroke-width="2" stroke-linecap="round"/>
<path d="M12 17.5C15.0376 17.5 17.5 15.0376 17.5 12C17.5 8.96243 15.0376 6.5 12 6.5C8.96243 6.5 6.5 8.96243 6.5 12C6.5 15.0376 8.96243 17.5 12 17.5Z" stroke="#333333" stroke-width="2"/>
<path d="M10.5 12.5H12.5" stroke="#333333" stroke-width="2" stroke-linecap="round" stroke-linejoin="round"/>
<path d="M12.5 10.5V12.5" stroke="#333333" stroke-width="2" stroke-linecap="round" stroke-linejoin="round"/>
</svg>
