<svg width="24" height="24" viewBox="0 0 24 24" fill="none" xmlns="http://www.w3.org/2000/svg">
<g clip-path="url(#clip0_2_19441)">
<path d="M24 0H0V24H24V0Z" fill="white" fill-opacity="0.01"/>
<path fill-rule="evenodd" clip-rule="evenodd" d="M12 22C16.1421 22 19.5 18.6421 19.5 14.5C19.5 7.5 12 2 12 2C12 2 4.5 7.5 4.5 14.5C4.5 18.6421 7.85785 22 12 22Z" stroke="#333333" stroke-width="2" stroke-linecap="round" stroke-linejoin="round"/>
<path d="M4.5 14.5007C4.5 18.6428 7.85785 22.0007 12 22.0007C16.1421 22.0007 19.5 18.6428 19.5 14.5007C19.5 14.5007 15 16.0007 12 14.5007C9 13.0007 4.5 14.5007 4.5 14.5007Z" stroke="#333333" stroke-width="2" stroke-linejoin="round"/>
</g>
<defs>
<clipPath id="clip0_2_19441">
<rect width="24" height="24" fill="white"/>
</clipPath>
</defs>
</svg>
