<svg width="24" height="24" viewBox="0 0 24 24" fill="none" xmlns="http://www.w3.org/2000/svg">
<path d="M2 17.5L3.25 18.1757C4.05 18.6081 4.95 18.6081 5.75 18.1757C6.55 17.7432 7.45 17.7432 8.25 18.1757C9.05 18.6081 9.95 18.6081 10.75 18.1757C11.55 17.7432 12.45 17.7432 13.25 18.1757C14.05 18.6081 14.95 18.6081 15.75 18.1757C16.55 17.7432 17.45 17.7432 18.25 18.1757C19.05 18.6081 19.95 18.6081 20.75 18.1757L22 17.5" stroke="#333333" stroke-width="2" stroke-miterlimit="2" stroke-linecap="round" stroke-linejoin="round"/>
<path d="M2 20.5L3.25 21.1757C4.05 21.6081 4.95 21.6081 5.75 21.1757C6.55 20.7432 7.45 20.7432 8.25 21.1757C9.05 21.6081 9.95 21.6081 10.75 21.1757C11.55 20.7432 12.45 20.7432 13.25 21.1757C14.05 21.6081 14.95 21.6081 15.75 21.1757C16.55 20.7432 17.45 20.7432 18.25 21.1757C19.05 21.6081 19.95 21.6081 20.75 21.1757L22 20.5" stroke="#333333" stroke-width="2" stroke-miterlimit="2" stroke-linecap="round" stroke-linejoin="round"/>
<path d="M12.5 9C13.8807 9 15 7.8807 15 6.5C15 5.1193 13.8807 4 12.5 4C11.1193 4 10 5.1193 10 6.5C10 7.8807 11.1193 9 12.5 9Z" stroke="#333333" stroke-width="2" stroke-miterlimit="2"/>
<path d="M12.5 14.5L12 12.5" stroke="#333333" stroke-width="2" stroke-miterlimit="2" stroke-linecap="round" stroke-linejoin="round"/>
<path d="M2 5.5L5.5 11L12 12.465H21" stroke="#333333" stroke-width="2" stroke-miterlimit="2" stroke-linecap="round" stroke-linejoin="round"/>
<path d="M5.5 5C6.32845 5 7 4.32842 7 3.5C7 2.67158 6.32845 2 5.5 2C4.67158 2 4 2.67158 4 3.5C4 4.32842 4.67158 5 5.5 5Z" fill="#333333"/>
</svg>
