<svg width="24" height="24" viewBox="0 0 24 24" fill="none" xmlns="http://www.w3.org/2000/svg">
<g clip-path="url(#clip0_2_19439)">
<path d="M24 0H0V24H24V0Z" fill="white" fill-opacity="0.01"/>
<path d="M4.5 14.5C5.8807 14.5 7 13.3807 7 12C7 13.3807 8.1193 14.5 9.5 14.5C10.8807 14.5 12 13.3807 12 12C12 13.3807 13.1193 14.5 14.5 14.5C15.8807 14.5 17 13.3807 17 12C17 13.3807 18.1193 14.5 19.5 14.5C20.8807 14.5 22 13.3807 22 12C22 17.5229 17.5229 22 12 22C6.47715 22 2 17.5229 2 12C2 13.3807 3.11929 14.5 4.5 14.5Z" stroke="#333333" stroke-width="2" stroke-linecap="round" stroke-linejoin="round"/>
<path d="M9.5 2.5L14.5 7.5" stroke="#333333" stroke-width="2" stroke-linecap="round" stroke-linejoin="round"/>
<path d="M14.5 2.5L9.5 7.5" stroke="#333333" stroke-width="2" stroke-linecap="round" stroke-linejoin="round"/>
</g>
<defs>
<clipPath id="clip0_2_19439">
<rect width="24" height="24" fill="white"/>
</clipPath>
</defs>
</svg>
