<svg width="24" height="24" viewBox="0 0 24 24" fill="none" xmlns="http://www.w3.org/2000/svg">
<path d="M12 2L20.5 16.96C20.5 16.96 18.0229 19 12 19C5.97715 19 3.5 16.96 3.5 16.96L12 2Z" stroke="#333333" stroke-width="2" stroke-linecap="round" stroke-linejoin="round"/>
<path d="M12 9.5C12.5523 9.5 13 9.05228 13 8.5C13 7.94772 12.5523 7.5 12 7.5C11.4477 7.5 11 7.94772 11 8.5C11 9.05228 11.4477 9.5 12 9.5Z" fill="#333333"/>
<path d="M13.5 12.5C14.0523 12.5 14.5 12.0523 14.5 11.5C14.5 10.9477 14.0523 10.5 13.5 10.5C12.9477 10.5 12.5 10.9477 12.5 11.5C12.5 12.0523 12.9477 12.5 13.5 12.5Z" fill="#333333"/>
<path d="M10.5 12.5C11.0523 12.5 11.5 12.0523 11.5 11.5C11.5 10.9477 11.0523 10.5 10.5 10.5C9.94772 10.5 9.5 10.9477 9.5 11.5C9.5 12.0523 9.94772 12.5 10.5 12.5Z" fill="#333333"/>
<path d="M20.5 19.9609C20.5 19.9609 18.0229 22.0009 12 22.0009C5.97715 22.0009 3.5 19.9609 3.5 19.9609" stroke="#333333" stroke-width="2" stroke-linecap="round"/>
</svg>
