<svg width="24" height="24" viewBox="0 0 24 24" fill="none" xmlns="http://www.w3.org/2000/svg">
<g clip-path="url(#clip0_2_19443)">
<path d="M24 0H0V24H24V0Z" fill="white" fill-opacity="0.01"/>
<path d="M24 0H0V24H24V0Z" fill="white" fill-opacity="0.01"/>
<path d="M3.91253 14.8828C5.73085 17.3783 8.676 19.0001 12 19.0001C15.324 19.0001 18.2692 17.3783 20.0875 14.8828C21.8956 16.7539 23 19.2539 23 22.0001H1C1 19.2539 2.10447 16.7539 3.91253 14.8828Z" stroke="#333333" stroke-width="2" stroke-linejoin="round"/>
<path d="M12 15C15.5898 15 18.5 12.0898 18.5 8.5C18.5 4.91015 15.5898 2 12 2C8.41015 2 5.5 4.91015 5.5 8.5C5.5 12.0898 8.41015 15 12 15Z" stroke="#333333" stroke-width="2" stroke-linejoin="round"/>
<path d="M12 11C13.3807 11 14.5 9.8807 14.5 8.5C14.5 7.1193 13.3807 6 12 6C10.6193 6 9.5 7.1193 9.5 8.5C9.5 9.8807 10.6193 11 12 11Z" stroke="#333333" stroke-width="2" stroke-linejoin="round"/>
</g>
<defs>
<clipPath id="clip0_2_19443">
<rect width="24" height="24" fill="white"/>
</clipPath>
</defs>
</svg>
