<svg width="24" height="24" viewBox="0 0 24 24" fill="none" xmlns="http://www.w3.org/2000/svg">
<g clip-path="url(#clip0_2_19432)">
<path d="M24 0H0V24H24V0Z" fill="white" fill-opacity="0.01"/>
<path d="M18.4987 10.8556C18.4217 6.50395 14.87 3 10.5 3C6.0817 3 2.5 6.5817 2.5 11C2.5 13.0851 3.29765 14.9838 4.60446 16.4077L4.00522 20.0128L7.5625 18.4849C9.12985 19.0061 10.609 19.1364 12 18.8758" stroke="#333333" stroke-width="2" stroke-linecap="round" stroke-linejoin="round"/>
<path d="M7.5625 10.2335C8.1838 10.2335 8.6875 9.7261 8.6875 9.10015C8.6875 8.47425 8.1838 7.9668 7.5625 7.9668C6.9412 7.9668 6.4375 8.47425 6.4375 9.10015C6.4375 9.7261 6.9412 10.2335 7.5625 10.2335Z" fill="#333333"/>
<path d="M12.0625 10.2335C12.6838 10.2335 13.1875 9.7261 13.1875 9.10015C13.1875 8.47425 12.6838 7.9668 12.0625 7.9668C11.4412 7.9668 10.9375 8.47425 10.9375 9.10015C10.9375 9.7261 11.4412 10.2335 12.0625 10.2335Z" fill="#333333"/>
<path d="M19.3809 19.9646C18.5067 20.6151 17.4233 21 16.25 21C13.3505 21 11 18.6495 11 15.75C11 12.8505 13.3505 10.5 16.25 10.5C19.1495 10.5 21.5 12.8505 21.5 15.75C21.5 16.5498 21.3211 17.308 21.0012 17.9864" stroke="#333333" stroke-width="2" stroke-linecap="round" stroke-linejoin="round"/>
<path d="M21.0012 17.9863L21.5 20.9999L19.3809 19.9646" stroke="#333333" stroke-width="2" stroke-linecap="round" stroke-linejoin="round"/>
<path d="M17.8438 15.3992C17.3778 15.3992 17 15.0187 17 14.5492C17 14.0798 17.3778 13.6992 17.8438 13.6992C18.3097 13.6992 18.6875 14.0798 18.6875 14.5492C18.6875 15.0187 18.3097 15.3992 17.8438 15.3992Z" fill="#333333"/>
<path d="M14.4688 15.3992C14.0028 15.3992 13.625 15.0187 13.625 14.5492C13.625 14.0798 14.0028 13.6992 14.4688 13.6992C14.9347 13.6992 15.3125 14.0798 15.3125 14.5492C15.3125 15.0187 14.9347 15.3992 14.4688 15.3992Z" fill="#333333"/>
</g>
<defs>
<clipPath id="clip0_2_19432">
<rect width="24" height="24" fill="white"/>
</clipPath>
</defs>
</svg>
