<svg width="24" height="24" viewBox="0 0 24 24" fill="none" xmlns="http://www.w3.org/2000/svg">
<g clip-path="url(#clip0_2_19431)">
<path d="M24 0H0V24H24V0Z" fill="white" fill-opacity="0.01"/>
<path d="M6.2809 8.20605C4.60881 9.831 1.08162 14.5736 3.68126 17.9664C6.2809 21.3593 13.641 20.0505 16.6795 17.6602C19.7179 15.27 19.418 13.793 18.7592 13.1422C18.1004 12.4915 16.1778 13.1491 15.6396 12.2636C15.1015 11.3781 16.5978 9.16611 15.3226 8.46616C14.0474 7.76621 11.8453 10.2911 10.8507 9.63505C9.8561 8.979 11.9453 6.83701 10.8507 6.21981C9.75615 5.60256 7.953 6.5811 6.2809 8.20605Z" stroke="#333333" stroke-width="2" stroke-linejoin="round"/>
<path d="M21.6893 8.25759C21.5717 6.69204 20.8995 5.28124 19.8686 4.22102C18.8623 3.18619 17.5143 2.48539 16.0068 2.30078" stroke="#333333" stroke-width="2" stroke-linecap="round"/>
<path d="M18.646 8.4653C18.5814 7.64545 18.2124 6.9066 17.6464 6.35135C17.094 5.8094 16.354 5.4424 15.5264 5.3457" stroke="#333333" stroke-width="2" stroke-linecap="round"/>
<path d="M12.5 15C12.5 16.1045 11.1568 17 9.5 17C7.84315 17 6.5 16.1045 6.5 15C6.5 13.8954 7.84315 13 9.5 13C11.1568 13 12.5 13.8954 12.5 15Z" fill="#333333"/>
</g>
<defs>
<clipPath id="clip0_2_19431">
<rect width="24" height="24" fill="white"/>
</clipPath>
</defs>
</svg>
