<svg width="24" height="24" viewBox="0 0 24 24" fill="none" xmlns="http://www.w3.org/2000/svg">
<g clip-path="url(#clip0_2_20853)">
<path d="M24 0H0V24H24V0Z" fill="white" fill-opacity="0.01"/>
<path d="M12 2L15.6 5.7646L20.6602 7L19.2 12L20.6602 17L15.6 18.2354L12 22L8.39998 18.2354L3.33972 17L4.79998 12L3.33972 7L8.39998 5.7646L12 2Z" stroke="#333333" stroke-width="2" stroke-linecap="round" stroke-linejoin="round"/>
<path d="M15.4886 5.95703L15.6859 9.87148L18.9772 11.9995L15.6859 14.1276L15.4886 18.042L12 16.2556L8.51136 18.042L8.31406 14.1276L5.02271 11.9995L8.31406 9.87148L8.51136 5.95703L12 7.74338L15.4886 5.95703Z" stroke="#333333" stroke-width="2" stroke-linecap="round" stroke-linejoin="round"/>
</g>
<defs>
<clipPath id="clip0_2_20853">
<rect width="24" height="24" fill="white"/>
</clipPath>
</defs>
</svg>
