<svg width="24" height="24" viewBox="0 0 24 24" fill="none" xmlns="http://www.w3.org/2000/svg">
<g clip-path="url(#clip0_2_20547)">
<path d="M24 0H0V24H24V0Z" fill="white" fill-opacity="0.01"/>
<path d="M12 22C17.5228 22 22 17.5228 22 12C22 6.47715 17.5228 2 12 2C6.47715 2 2 6.47715 2 12C2 17.5228 6.47715 22 12 22Z" stroke="#333333" stroke-width="2" stroke-linecap="round" stroke-linejoin="round"/>
<path d="M14.5 12C14.9945 12 15.4778 11.8534 15.889 11.5787C16.3001 11.304 16.6205 10.9135 16.8097 10.4567C16.9989 9.9999 17.0485 9.49725 16.952 9.0123C16.8555 8.5273 16.6174 8.08185 16.2678 7.73225C15.9182 7.3826 15.4727 7.1445 14.9878 7.04805C14.5028 6.95155 14.0001 7.0011 13.5433 7.1903C13.0865 7.3795 12.6961 7.69995 12.4214 8.1111C12.1466 8.5222 12 9.00555 12 9.5V14.5C12 14.9945 11.8534 15.4778 11.5787 15.889C11.304 16.3001 10.9136 16.6205 10.4567 16.8097C9.9999 16.9989 9.49725 17.0485 9.0123 16.952C8.5273 16.8555 8.08185 16.6174 7.73225 16.2678C7.3826 15.9182 7.1445 15.4727 7.04805 14.9878C6.95155 14.5028 7.0011 14.0001 7.1903 13.5433C7.3795 13.0865 7.69995 12.6961 8.1111 12.4214C8.5222 12.1466 9.00555 12 9.5 12" stroke="#333333" stroke-width="2" stroke-linecap="round" stroke-linejoin="round"/>
</g>
<defs>
<clipPath id="clip0_2_20547">
<rect width="24" height="24" fill="white"/>
</clipPath>
</defs>
</svg>
