<svg width="24" height="24" viewBox="0 0 24 24" fill="none" xmlns="http://www.w3.org/2000/svg">
<g clip-path="url(#clip0_2_19429)">
<path d="M24 0H0V24H24V0Z" fill="white" fill-opacity="0.01"/>
<path d="M18.5 15H6L7 17.5H13L14.0442 20.6325C14.3164 21.4492 15.0806 22 15.9415 22H19C20.1046 22 21 21.1046 21 20V15L21.5 11.5L19.6768 11.8646C19.2694 11.9461 18.9549 12.271 18.8866 12.6808L18.5 15Z" stroke="#333333" stroke-width="2" stroke-linecap="round" stroke-linejoin="round"/>
<path d="M5.5 9H18L17 6.5H11L9.95585 3.36754C9.6836 2.55086 8.91935 2 8.0585 2H5C3.89543 2 3 2.89543 3 4V9L2.5 12.5L4.32319 12.1354C4.73059 12.0539 5.04515 11.729 5.11345 11.3192L5.5 9Z" stroke="#333333" stroke-width="2" stroke-linecap="round" stroke-linejoin="round"/>
</g>
<defs>
<clipPath id="clip0_2_19429">
<rect width="24" height="24" fill="white"/>
</clipPath>
</defs>
</svg>
