<svg width="24" height="24" viewBox="0 0 24 24" fill="none" xmlns="http://www.w3.org/2000/svg">
<g clip-path="url(#clip0_2_19699)">
<path d="M24 0H0V24H24V0Z" fill="white" fill-opacity="0.01"/>
<path d="M14.811 17.5009C14.1449 20.0887 11.7957 22.0009 9 22.0009C5.6863 22.0009 3 19.3146 3 16.0009C3 13.5794 4.43447 11.4929 6.5 10.5449" stroke="#333333" stroke-width="2" stroke-linecap="round" stroke-linejoin="round"/>
<path d="M9 6L10 15L17.5 14.5L19 20H20.5" stroke="#333333" stroke-width="2" stroke-linecap="round" stroke-linejoin="round"/>
<path d="M11 4C11 5.10455 10.1046 6 9 6C7.89545 6 7 5.10455 7 4C7 2.89543 7.89545 2 9 2C10.1046 2 11 2.89543 11 4Z" stroke="#333333" stroke-width="2" stroke-linecap="round" stroke-linejoin="round"/>
<path d="M12.5 10H16.5" stroke="#333333" stroke-width="2" stroke-linecap="round" stroke-linejoin="round"/>
</g>
<defs>
<clipPath id="clip0_2_19699">
<rect width="24" height="24" fill="white"/>
</clipPath>
</defs>
</svg>
