<svg width="24" height="24" viewBox="0 0 24 24" fill="none" xmlns="http://www.w3.org/2000/svg">
<g clip-path="url(#clip0_2_19435)">
<path d="M24 0H0V24H24V0Z" fill="white" fill-opacity="0.01"/>
<path d="M12 14.5C13.3807 14.5 14.5 13.3807 14.5 12C14.5 10.6193 13.3807 9.5 12 9.5C10.6193 9.5 9.5 10.6193 9.5 12C9.5 13.3807 10.6193 14.5 12 14.5Z" stroke="#333333" stroke-width="2" stroke-linecap="round" stroke-linejoin="round"/>
<path d="M11.75 22C8.2982 22 5.5 19.2018 5.5 15.75C5.5 12.2982 8.2982 9.5 11.75 9.5" stroke="#333333" stroke-width="2" stroke-linecap="round" stroke-linejoin="round"/>
<path d="M22 11.75C22 15.2018 19.2018 18 15.75 18C12.2982 18 9.5 15.2018 9.5 11.75" stroke="#333333" stroke-width="2" stroke-linecap="round" stroke-linejoin="round"/>
<path d="M11.75 14.5C15.2018 14.5 18 11.7018 18 8.25C18 4.79822 15.2018 2 11.75 2" stroke="#333333" stroke-width="2" stroke-linecap="round" stroke-linejoin="round"/>
<path d="M14.5 11.75C14.5 8.2982 11.7018 5.5 8.25 5.5C4.79822 5.5 2 8.2982 2 11.75" stroke="#333333" stroke-width="2" stroke-linecap="round" stroke-linejoin="round"/>
</g>
<defs>
<clipPath id="clip0_2_19435">
<rect width="24" height="24" fill="white"/>
</clipPath>
</defs>
</svg>
