<svg width="24" height="24" viewBox="0 0 24 24" fill="none" xmlns="http://www.w3.org/2000/svg">
<g clip-path="url(#clip0_2_21454)">
<path d="M24 0H0V24H24V0Z" fill="white" fill-opacity="0.01"/>
<path d="M2 9.48265C2.2944 9.20365 2.59761 8.9393 2.9087 8.6896C8.51855 4.18711 16.691 4.45146 22 9.48265" stroke="#333333" stroke-width="2" stroke-linecap="round" stroke-linejoin="round"/>
<path d="M19 12.8995C15.134 9.0335 8.866 9.0335 5 12.8995" stroke="#333333" stroke-width="2" stroke-linecap="round" stroke-linejoin="round"/>
<path d="M16 16.1569C13.7908 13.9477 10.2092 13.9477 8 16.1569" stroke="#333333" stroke-width="2" stroke-linecap="round" stroke-linejoin="round"/>
<path fill-rule="evenodd" clip-rule="evenodd" d="M12 20C12.6904 20 13.25 19.4404 13.25 18.75C13.25 18.0597 12.6904 17.5 12 17.5C11.3097 17.5 10.75 18.0597 10.75 18.75C10.75 19.4404 11.3097 20 12 20Z" fill="#333333"/>
</g>
<defs>
<clipPath id="clip0_2_21454">
<rect width="24" height="24" fill="white"/>
</clipPath>
</defs>
</svg>
