<svg width="24" height="24" viewBox="0 0 24 24" fill="none" xmlns="http://www.w3.org/2000/svg">
<path d="M5.3182 14.7509L6.7859 6.67864M17.2588 6.92409L17 5.50094L13.5653 3.78357C12.5799 3.29089 11.4201 3.29089 10.4347 3.78357L8.69065 4.65563L17.2588 6.92409ZM17.8458 10.1532L18.5 13.7509L19.5455 19.5009L17.8458 10.1532ZM18 22.0009H4L4.478 19.3719L18 22.0009Z" stroke="#333333" stroke-width="2" stroke-linecap="round" stroke-linejoin="round"/>
<path d="M19.6465 4.35348C19.8417 4.15822 20.1583 4.15822 20.3536 4.35348L21.6465 5.64637C21.8417 5.84162 21.8417 6.15822 21.6465 6.35347L17.3536 10.6464C17.1583 10.8416 16.8417 10.8416 16.6465 10.6464L15.3536 9.35347C15.1583 9.15822 15.1583 8.84162 15.3536 8.64637L19.6465 4.35348Z" stroke="#333333" stroke-width="2" stroke-linejoin="round"/>
<path d="M13.5 10.5L15.5 8.5" stroke="#333333" stroke-width="2" stroke-linecap="round" stroke-linejoin="round"/>
<path d="M19.6465 19.6464C19.8417 19.8416 19.8417 20.1582 19.6465 20.3535L18.3536 21.6464C18.1583 21.8416 17.8417 21.8416 17.6465 21.6464L13.3536 17.3535C13.1583 17.1582 13.1583 16.8416 13.3536 16.6464L14.6465 15.3535C14.8417 15.1582 15.1583 15.1582 15.3536 15.3535L19.6465 19.6464Z" stroke="#333333" stroke-width="2" stroke-linejoin="round"/>
<path d="M13.5 13.5L15.5 15.5" stroke="#333333" stroke-width="2" stroke-linecap="round" stroke-linejoin="round"/>
<path d="M4.3536 19.6464C4.15834 19.8416 3.84176 19.8416 3.64649 19.6464L2.3536 18.3535C2.15834 18.1582 2.15834 17.8416 2.3536 17.6464L6.6465 13.3535C6.84175 13.1582 7.15835 13.1582 7.3536 13.3535L8.6465 14.6464C8.84175 14.8416 8.84175 15.1582 8.6465 15.3535L4.3536 19.6464Z" stroke="#333333" stroke-width="2" stroke-linejoin="round"/>
<path d="M10.5 13.5L8.5 15.5" stroke="#333333" stroke-width="2" stroke-linecap="round" stroke-linejoin="round"/>
<path d="M4.3536 4.35348C4.15834 4.15822 4.15834 3.84164 4.3536 3.64637L5.6465 2.35348C5.84175 2.15822 6.15835 2.15822 6.3536 2.35348L10.6465 6.64638C10.8417 6.84163 10.8417 7.15823 10.6465 7.35348L9.3536 8.64638C9.15835 8.84163 8.84175 8.84163 8.6465 8.64638L4.3536 4.35348Z" stroke="#333333" stroke-width="2" stroke-linejoin="round"/>
<path d="M10.5 10.5L8.5 8.5" stroke="#333333" stroke-width="2" stroke-linecap="round" stroke-linejoin="round"/>
<path d="M12 14C13.1046 14 14 13.1046 14 12C14 10.8954 13.1046 10 12 10C10.8954 10 10 10.8954 10 12C10 13.1046 10.8954 14 12 14Z" stroke="#333333" stroke-width="2"/>
</svg>
