<svg width="24" height="24" viewBox="0 0 24 24" fill="none" xmlns="http://www.w3.org/2000/svg">
<g clip-path="url(#clip0_2_20296)">
<path d="M24 0H0V24H24V0Z" fill="white" fill-opacity="0.01"/>
<path d="M12 12C14.7614 12 17 9.7614 17 7C17 4.23857 14.7614 2 12 2V12Z" stroke="#333333" stroke-width="2" stroke-linejoin="round"/>
<path d="M12 12C12 14.7614 14.2386 17 17 17C19.7614 17 22 14.7614 22 12H12Z" stroke="#333333" stroke-width="2" stroke-linejoin="round"/>
<path d="M12 12C12 9.2386 9.7614 7 7 7C4.23857 7 2 9.2386 2 12H12Z" stroke="#333333" stroke-width="2" stroke-linejoin="round"/>
<path d="M12 12C9.2386 12 7 14.2386 7 17C7 19.7614 9.2386 22 12 22V12Z" stroke="#333333" stroke-width="2" stroke-linejoin="round"/>
</g>
<defs>
<clipPath id="clip0_2_20296">
<rect width="24" height="24" fill="white"/>
</clipPath>
</defs>
</svg>
