<svg width="24" height="24" viewBox="0 0 24 24" fill="none" xmlns="http://www.w3.org/2000/svg">
<path d="M12 15V22" stroke="#333333" stroke-width="2" stroke-linecap="round" stroke-linejoin="round"/>
<path d="M14.5 11.5C20 14 22.5 18.5 22.5 18.5C22.5 18.5 16.5 18.5 12 14.5C7.5 18.5 1.5 18.5 1.5 18.5C1.5 18.5 4 13.5 9.5 11.5C9.5 5 12 2 12 2C12 2 14.5 5 14.5 11.5Z" stroke="#333333" stroke-width="2" stroke-linecap="round" stroke-linejoin="round"/>
<path d="M12 13C12.5523 13 13 12.5523 13 12C13 11.4477 12.5523 11 12 11C11.4477 11 11 11.4477 11 12C11 12.5523 11.4477 13 12 13Z" fill="#333333"/>
</svg>
