<svg width="24" height="24" viewBox="0 0 24 24" fill="none" xmlns="http://www.w3.org/2000/svg">
<g clip-path="url(#clip0_2_19422)">
<path d="M24 0H0V24H24V0Z" fill="white" fill-opacity="0.01"/>
<path d="M12 22C17.5229 22 22 17.5229 22 12C22 6.47715 17.5229 2 12 2C6.47715 2 2 6.47715 2 12C2 17.5229 6.47715 22 12 22Z" stroke="#333333" stroke-width="2" stroke-linejoin="round"/>
<path d="M16.5 8L14.5 10L16.5 12" stroke="#333333" stroke-width="2" stroke-linecap="round" stroke-linejoin="round"/>
<path d="M15.5 15.5C15.5 15.5 14.5 17.5 12 17.5C9.5 17.5 8.5 15.5 8.5 15.5" stroke="#333333" stroke-width="2" stroke-linecap="round" stroke-linejoin="round"/>
<path d="M8.5 12C9.60457 12 10.5 11.1046 10.5 10C10.5 8.89543 9.60457 8 8.5 8C7.39543 8 6.5 8.89543 6.5 10C6.5 11.1046 7.39543 12 8.5 12Z" stroke="#333333" stroke-width="2" stroke-linecap="round" stroke-linejoin="round"/>
</g>
<defs>
<clipPath id="clip0_2_19422">
<rect width="24" height="24" fill="white"/>
</clipPath>
</defs>
</svg>
