<svg width="24" height="24" viewBox="0 0 24 24" fill="none" xmlns="http://www.w3.org/2000/svg">
<path d="M21 17H3C2.44772 17 2 17.4477 2 18V21C2 21.5523 2.44772 22 3 22H21C21.5523 22 22 21.5523 22 21V18C22 17.4477 21.5523 17 21 17Z" stroke="#333333" stroke-width="2" stroke-linecap="round" stroke-linejoin="round"/>
<path d="M7.5 13V17" stroke="#333333" stroke-width="2" stroke-linecap="round" stroke-linejoin="round"/>
<path d="M12 13V17" stroke="#333333" stroke-width="2" stroke-linecap="round" stroke-linejoin="round"/>
<path d="M16.5 13V17" stroke="#333333" stroke-width="2" stroke-linecap="round" stroke-linejoin="round"/>
<path d="M12 6C13.1046 6 14 5.10457 14 4C14 2.89543 13.1046 2 12 2C10.8954 2 10 2.89543 10 4C10 5.10457 10.8954 6 12 6Z" stroke="#333333" stroke-width="2"/>
<path d="M4 17C4 12.875 4.5 6 12 6C19.5 6 20 12.875 20 17" stroke="#333333" stroke-width="2"/>
</svg>
