<svg width="24" height="24" viewBox="0 0 24 24" fill="none" xmlns="http://www.w3.org/2000/svg">
<g clip-path="url(#clip0_2_21067)">
<path d="M24 0H0V24H24V0Z" fill="white" fill-opacity="0.01"/>
<path d="M12 22C17.5229 22 22 17.5229 22 12C22 6.47715 17.5229 2 12 2C6.47715 2 2 6.47715 2 12C2 17.5229 6.47715 22 12 22Z" stroke="#333333" stroke-width="2"/>
<path d="M2 10.42C3.50742 9.70816 4.62233 9.60901 5.3447 10.1225C6.4283 10.8927 6.56415 14.0318 9.02875 12.5315C11.4934 11.0313 7.97335 10.42 8.7375 8.24671C9.50165 6.07346 12.0041 7.76161 12.2529 5.38111C12.4187 3.79407 10.5204 3.18682 6.5578 3.55936" stroke="#333333" stroke-width="2"/>
<path d="M18 4C15.1428 6.4943 14.1449 8.00055 15.0063 8.51865C16.2984 9.29585 16.8466 8.20165 18.4233 8.51865C20 8.8357 19.6586 10.9728 18.8293 10.9728C18 10.9728 13.705 10.4259 13.9213 12.9325C14.1376 15.439 16.7211 15.8102 16.7211 17.2106C16.7211 18.1442 16.1495 19.573 15.0063 21.4971" stroke="#333333" stroke-width="2" stroke-linecap="round"/>
<path d="M3.05225 16.4635C3.50799 16.2647 3.85058 16.119 4.08 16.0263C6.00354 15.2492 7.43084 15.066 8.36179 15.4768C10.008 16.2032 9.37514 17.6703 9.89079 18.2108C10.4064 18.7513 11.694 18.5941 11.694 19.6223C11.694 20.3078 11.4637 21.0821 11.0032 21.9453" stroke="#333333" stroke-width="2" stroke-linecap="round"/>
</g>
<defs>
<clipPath id="clip0_2_21067">
<rect width="24" height="24" fill="white"/>
</clipPath>
</defs>
</svg>
