<svg width="24" height="24" viewBox="0 0 24 24" fill="none" xmlns="http://www.w3.org/2000/svg">
<g clip-path="url(#clip0_2_20323)">
<path d="M24 0H0V24H24V0Z" fill="white" fill-opacity="0.01"/>
<path d="M2 10L12 3L22 10V21H2V10Z" stroke="#333333" stroke-width="2" stroke-linecap="round" stroke-linejoin="round"/>
<path d="M6.34326 13.3432C7.08611 12.6003 7.96801 12.011 8.93866 11.6089C9.90926 11.2069 10.9495 11 12.0001 11C13.0507 11 14.091 11.2069 15.0616 11.6089C16.0322 12.011 16.9141 12.6003 17.657 13.3432" stroke="#333333" stroke-width="2" stroke-linecap="round" stroke-linejoin="round"/>
<path d="M9.17163 16.1716C9.54308 15.8002 9.98403 15.5055 10.4693 15.3045C10.9546 15.1034 11.4748 15 12.0001 15C12.5254 15 13.0455 15.1034 13.5308 15.3045C14.0161 15.5055 14.4571 15.8002 14.8285 16.1716" stroke="#333333" stroke-width="2" stroke-linecap="round" stroke-linejoin="round"/>
</g>
<defs>
<clipPath id="clip0_2_20323">
<rect width="24" height="24" fill="white"/>
</clipPath>
</defs>
</svg>
