<svg width="24" height="24" viewBox="0 0 24 24" fill="none" xmlns="http://www.w3.org/2000/svg">
<g clip-path="url(#clip0_2_19415)">
<path d="M24 0H0V24H24V0Z" fill="white" fill-opacity="0.01"/>
<path d="M2.07158 10.5402C2.2491 8.64695 2.33786 7.7003 3.32798 6.68755C4.3181 5.6748 5.4076 5.54775 7.5867 5.29365C9.00185 5.12865 10.5653 5 12 5C13.4347 5 14.9981 5.12865 16.4133 5.29365C18.5924 5.54775 19.6819 5.6748 20.6721 6.68755C21.6622 7.7003 21.7509 8.64695 21.9284 10.5402C21.9732 11.018 22 11.5091 22 12C22 12.4909 21.9732 12.982 21.9284 13.4598C21.7509 15.3531 21.6622 16.2997 20.6721 17.3125C19.6819 18.3252 18.5924 18.4523 16.4133 18.7064C14.9981 18.8714 13.4347 19 12 19C10.5653 19 9.00185 18.8714 7.5867 18.7064C5.4076 18.4523 4.3181 18.3252 3.32798 17.3125C2.33786 16.2997 2.2491 15.3531 2.07158 13.4598C2.02678 12.982 2 12.4909 2 12C2 11.5091 2.02678 11.018 2.07158 10.5402Z" stroke="#333333" stroke-width="2" stroke-linecap="round" stroke-linejoin="round"/>
<path d="M8 9.5V14.5" stroke="#333333" stroke-width="2" stroke-linecap="round" stroke-linejoin="round"/>
<path d="M16.5 9.5L14 12L16.5 14.5" stroke="#333333" stroke-width="2" stroke-linecap="round" stroke-linejoin="round"/>
</g>
<defs>
<clipPath id="clip0_2_19415">
<rect width="24" height="24" fill="white"/>
</clipPath>
</defs>
</svg>
