<svg width="24" height="24" viewBox="0 0 24 24" fill="none" xmlns="http://www.w3.org/2000/svg">
<g clip-path="url(#clip0_2_19413)">
<path d="M24 0H0V24H24V0Z" fill="white" fill-opacity="0.01"/>
<path d="M7.7781 19.5004L4.08899 5.50905C4.07306 5.45105 4.08058 5.3891 4.10994 5.3366C4.1393 5.2841 4.18814 5.24525 4.2459 5.22845C4.27704 5.2171 4.31059 5.21395 4.3433 5.2194C4.37601 5.2248 4.40677 5.2386 4.43258 5.2594L21.2369 19.0949C21.2794 19.1339 21.3061 19.1872 21.312 19.2446C21.3179 19.302 21.3026 19.3596 21.2689 19.4065C21.2543 19.4352 21.232 19.4592 21.2045 19.4757C21.177 19.4923 21.1453 19.5009 21.1131 19.5004H7.7781Z" fill="#333333"/>
<path d="M22.4896 4.79048C22.5056 4.73263 22.4982 4.67081 22.4691 4.61834C22.4399 4.56586 22.3914 4.52692 22.3338 4.50987C22.3023 4.49984 22.2689 4.49741 22.2362 4.50278C22.2036 4.50816 22.1726 4.52118 22.146 4.5408L13.0876 10.7862L19.5851 16.1258L22.4896 4.79048Z" fill="#333333"/>
<path d="M1.09391 19.0941C1.04771 19.1297 1.01599 19.181 1.00462 19.2382C0.99326 19.2955 1.003 19.3549 1.03206 19.4056C1.05302 19.4354 1.08104 19.4596 1.11361 19.476C1.14618 19.4924 1.1823 19.5005 1.21875 19.4995H6.52965L5.6237 15.9707L1.09391 19.0941Z" fill="#333333"/>
</g>
<defs>
<clipPath id="clip0_2_19413">
<rect width="24" height="24" fill="white"/>
</clipPath>
</defs>
</svg>
