<svg width="24" height="24" viewBox="0 0 24 24" fill="none" xmlns="http://www.w3.org/2000/svg">
<path d="M16 21C13.6319 22.3532 10.5 22.25 8 21C5.5 19.75 3.5 17 3.5 14.75C3.5 13.4384 5.6781 12.4848 6.5978 12.1406C6.82805 12.0545 6.9731 11.8205 6.9366 11.5774L5.7932 3.95464C5.63885 2.92552 6.43585 2 7.4765 2C8.34385 2 9.07245 2.65215 9.16825 3.51417L10 11L10.415 3.11463C10.4626 2.20948 11.2105 1.5 12.1169 1.5C13.1251 1.5 13.913 2.37054 13.8126 3.37378L13.2933 8.56705C13.3543 7.96125 13.8643 7.5 14.4733 7.5C15.5926 7.5 16.5 8.4074 16.5 9.5267V10.75C16.5 9.7835 17.2835 9 18.25 9C19.2165 9 20 9.7835 20 10.75V16.0744C20 16.3574 19.9736 16.6403 19.8736 16.9051C19.5757 17.6935 18.6436 19.4894 16 21Z" stroke="#333333" stroke-width="2" stroke-linecap="round" stroke-linejoin="round"/>
</svg>
