<svg width="24" height="24" viewBox="0 0 24 24" fill="none" xmlns="http://www.w3.org/2000/svg">
<path d="M22 16.3839V7.61605C22 6.95365 21.5649 6.3714 20.9224 6.2102C19.1843 5.7742 15.5921 5 12 5C8.40785 5 4.81567 5.7742 3.07758 6.2102C2.43508 6.3714 2 6.95365 2 7.61605V16.3839C2 17.0463 2.43508 17.6286 3.07758 17.7898C4.81567 18.2258 8.40785 19 12 19C15.5921 19 19.1843 18.2258 20.9224 17.7898C21.5649 17.6286 22 17.0463 22 16.3839Z" stroke="#333333" stroke-width="2"/>
<path d="M11.2867 14.9488C10.9553 15.1808 10.5 14.9437 10.5 14.5392V9.45988C10.5 9.05533 10.9553 8.81828 11.2867 9.05023L14.9149 11.5899C15.1992 11.789 15.1992 12.2101 14.9149 12.4091L11.2867 14.9488Z" stroke="#333333" stroke-width="2" stroke-linejoin="round"/>
</svg>
