<svg width="24" height="24" viewBox="0 0 24 24" fill="none" xmlns="http://www.w3.org/2000/svg">
<g clip-path="url(#clip0_2_21033)">
<path d="M24 0H0V24H24V0Z" fill="white" fill-opacity="0.01"/>
<path d="M5.5317 5.2072C8.3033 5.06905 10.4591 5 11.9989 5C13.5389 5 15.6954 5.0691 18.4684 5.20725C19.9695 5.28205 21.1835 6.45595 21.3087 7.9536C21.4355 9.4706 21.4989 10.8067 21.4989 11.9619C21.4989 13.1313 21.434 14.486 21.304 16.0261C21.1792 17.5052 19.9916 18.6706 18.5104 18.7675C16.1397 18.9225 13.9692 19 11.9989 19C10.0289 19 7.8592 18.9225 5.4898 18.7675C4.00914 18.6707 2.82173 17.506 2.69632 16.0275C2.56471 14.4759 2.4989 13.1207 2.4989 11.9619C2.4989 10.817 2.56314 9.4805 2.6916 7.9522H2.69161C2.81745 6.45515 4.03125 5.282 5.5317 5.2072Z" stroke="#333333" stroke-width="2" stroke-linejoin="round"/>
<path d="M10.5 9.80555V14.204C10.5 14.4407 10.6919 14.6326 10.9285 14.6326C11.0126 14.6326 11.0948 14.6079 11.1649 14.5615L14.4637 12.3813C14.6612 12.2508 14.7154 11.9849 14.5849 11.7874C14.5537 11.7402 14.5135 11.6996 14.4665 11.6681L11.1677 9.44991C10.9713 9.31786 10.705 9.37001 10.5729 9.56646C10.5254 9.63716 10.5 9.7204 10.5 9.80555Z" stroke="#333333" stroke-width="2" stroke-linejoin="round"/>
</g>
<defs>
<clipPath id="clip0_2_21033">
<rect width="24" height="24" fill="white"/>
</clipPath>
</defs>
</svg>
