<svg width="24" height="24" viewBox="0 0 24 24" fill="none" xmlns="http://www.w3.org/2000/svg">
<path d="M9.99998 21.5C7.63708 20.6163 5.66623 17.5925 4.67983 15.8214C4.25395 15.0567 4.4783 14.1173 5.16178 13.5705C5.92363 12.9611 7.02188 13.0219 7.71178 13.7118L8.49998 14.5V10.25C8.49998 9.55965 9.05963 9 9.74998 9C10.4403 9 11 9.55965 11 10.25V8.25C11 7.55965 11.5596 7 12.25 7C12.9403 7 13.5 7.55965 13.5 8.25V12.25C13.5 11.5597 14.0596 11 14.75 11C15.4403 11 16 11.5597 16 12.25V13.75C16 13.0597 16.5596 12.5 17.25 12.5C17.9403 12.5 18.5 13.0597 18.5 13.75V17.684C18.5 18.2192 18.3677 18.748 18.0592 19.1854C17.5474 19.911 16.6275 21.0168 15.5 21.5C13.75 22.25 12.185 22.3171 9.99998 21.5Z" stroke="#333333" stroke-width="2" stroke-linecap="round" stroke-linejoin="round"/>
<path d="M6.5 4H17.5" stroke="#333333" stroke-width="2" stroke-linecap="round" stroke-linejoin="round"/>
<path d="M8.50015 6L6.5 4L8.5 2" stroke="#333333" stroke-width="2" stroke-linecap="round" stroke-linejoin="round"/>
<path d="M15.5 2L17.5 4L15.5 6" stroke="#333333" stroke-width="2" stroke-linecap="round" stroke-linejoin="round"/>
</svg>
